  0
SECTION
  2
HEADER
  9
$ANGBASE
  50
0.0
  9
$ANGDIR
  70
1
  9
$MEASUREMENT
  70
1
  0
ENDSEC
  0
SECTION
  2
TABLES
  0
TABLE
  2
LTYPE
  70
4
  0
LTYPE
  5
40F
  2
CONTINUOUS
  70
0
  3
Solid line
  72
65
  73
0
  40
0.0
  0
LTYPE
  5
410
  2
DASHDOT
 70
0
  3
Dash Dot ____ _ ____ _
 72
65
 73
4
 40
2.0
 49
1.25
 49
-0.25
 49
0.25
 49
-0.25
  0
LTYPE
  5
411
  2
DASHED
 70
0
  3
Dashed __ __ __ __ __
 72
65
 73
2
 40
0.75
 49
0.5
 49
-0.25
  0
LTYPE
  5
43B
  2
DOTTED
 70
0
  3
Dotted .  .  .  .
 72
65
 73
2
 40
0.2
 49
0.0
 49
-0.2
  0
ENDTAB
  0
TABLE
  2
STYLE
  70
4
  0
STYLE
  2
KICAD
  70
0
  40
0
  41
1
  42
1
  50
0
  71
0
  3
isocp.shx
  0
STYLE
  2
KICADB
  70
0
  40
0
  41
1
  42
1
  50
0
  71
0
  3
isocp.shx
  0
STYLE
  2
KICADI
  70
0
  40
0
  41
1
  42
1
  50
15
  71
0
  3
isocp.shx
  0
STYLE
  2
KICADBI
  70
0
  40
0
  41
1
  42
1
  50
15
  71
0
  3
isocp.shx
  0
ENDTAB
  0
TABLE
  2
LAYER
  70
1
  0
LAYER
  2
BLACK
  70
0
  62
7
  6
CONTINUOUS
  0
ENDTAB
  0
ENDSEC
  0
SECTION
  2
ENTITIES
0
LINE
8
BLACK
6
CONTINUOUS
10
42.15
20
-107.54
11
42.2983
21
-107.555
0
LINE
8
BLACK
6
CONTINUOUS
10
42.2983
20
-107.555
11
42.4408
21
-107.598
0
LINE
8
BLACK
6
CONTINUOUS
10
42.4408
20
-107.598
11
42.5722
21
-107.668
0
LINE
8
BLACK
6
CONTINUOUS
10
42.5722
20
-107.668
11
42.6874
21
-107.763
0
LINE
8
BLACK
6
CONTINUOUS
10
42.6874
20
-107.763
11
42.7819
21
-107.878
0
LINE
8
BLACK
6
CONTINUOUS
10
42.7819
20
-107.878
11
42.8521
21
-108.009
0
LINE
8
BLACK
6
CONTINUOUS
10
42.8521
20
-108.009
11
42.8954
21
-108.152
0
LINE
8
BLACK
6
CONTINUOUS
10
42.8954
20
-108.152
11
42.91
21
-108.3
0
LINE
8
BLACK
6
CONTINUOUS
10
42.91
20
-108.3
11
42.91
21
-108.9
0
LINE
8
BLACK
6
CONTINUOUS
10
42.91
20
-108.9
11
42.8954
21
-109.048
0
LINE
8
BLACK
6
CONTINUOUS
10
42.8954
20
-109.048
11
42.8521
21
-109.191
0
LINE
8
BLACK
6
CONTINUOUS
10
42.8521
20
-109.191
11
42.7819
21
-109.322
0
LINE
8
BLACK
6
CONTINUOUS
10
42.7819
20
-109.322
11
42.6874
21
-109.437
0
LINE
8
BLACK
6
CONTINUOUS
10
42.6874
20
-109.437
11
42.5722
21
-109.532
0
LINE
8
BLACK
6
CONTINUOUS
10
42.5722
20
-109.532
11
42.4408
21
-109.602
0
LINE
8
BLACK
6
CONTINUOUS
10
42.4408
20
-109.602
11
42.2983
21
-109.645
0
LINE
8
BLACK
6
CONTINUOUS
10
42.2983
20
-109.645
11
42.15
21
-109.66
0
LINE
8
BLACK
6
CONTINUOUS
10
42.15
20
-109.66
11
40.75
21
-109.66
0
LINE
8
BLACK
6
CONTINUOUS
10
40.75
20
-109.66
11
40.6017
21
-109.645
0
LINE
8
BLACK
6
CONTINUOUS
10
40.6017
20
-109.645
11
40.4592
21
-109.602
0
LINE
8
BLACK
6
CONTINUOUS
10
40.4592
20
-109.602
11
40.3278
21
-109.532
0
LINE
8
BLACK
6
CONTINUOUS
10
40.3278
20
-109.532
11
40.2126
21
-109.437
0
LINE
8
BLACK
6
CONTINUOUS
10
40.2126
20
-109.437
11
40.1181
21
-109.322
0
LINE
8
BLACK
6
CONTINUOUS
10
40.1181
20
-109.322
11
40.0479
21
-109.191
0
LINE
8
BLACK
6
CONTINUOUS
10
40.0479
20
-109.191
11
40.0046
21
-109.048
0
LINE
8
BLACK
6
CONTINUOUS
10
40.0046
20
-109.048
11
39.99
21
-108.9
0
LINE
8
BLACK
6
CONTINUOUS
10
39.99
20
-108.9
11
39.99
21
-108.3
0
LINE
8
BLACK
6
CONTINUOUS
10
39.99
20
-108.3
11
40.0046
21
-108.152
0
LINE
8
BLACK
6
CONTINUOUS
10
40.0046
20
-108.152
11
40.0479
21
-108.009
0
LINE
8
BLACK
6
CONTINUOUS
10
40.0479
20
-108.009
11
40.1181
21
-107.878
0
LINE
8
BLACK
6
CONTINUOUS
10
40.1181
20
-107.878
11
40.2126
21
-107.763
0
LINE
8
BLACK
6
CONTINUOUS
10
40.2126
20
-107.763
11
40.3278
21
-107.668
0
LINE
8
BLACK
6
CONTINUOUS
10
40.3278
20
-107.668
11
40.4592
21
-107.598
0
LINE
8
BLACK
6
CONTINUOUS
10
40.4592
20
-107.598
11
40.6017
21
-107.555
0
LINE
8
BLACK
6
CONTINUOUS
10
40.6017
20
-107.555
11
40.75
21
-107.54
0
LINE
8
BLACK
6
CONTINUOUS
10
40.75
20
-107.54
11
42.15
21
-107.54
0
LINE
8
BLACK
6
CONTINUOUS
10
40.75
20
-107.66
11
40.6779
21
-107.66
0
LINE
8
BLACK
6
CONTINUOUS
10
40.6779
20
-107.66
11
40.5373
21
-107.692
0
LINE
8
BLACK
6
CONTINUOUS
10
40.5373
20
-107.692
11
40.4073
21
-107.755
0
LINE
8
BLACK
6
CONTINUOUS
10
40.4073
20
-107.755
11
40.2946
21
-107.845
0
LINE
8
BLACK
6
CONTINUOUS
10
40.2946
20
-107.845
11
40.2047
21
-107.957
0
LINE
8
BLACK
6
CONTINUOUS
10
40.2047
20
-107.957
11
40.1421
21
-108.087
0
LINE
8
BLACK
6
CONTINUOUS
10
40.1421
20
-108.087
11
40.11
21
-108.228
0
LINE
8
BLACK
6
CONTINUOUS
10
40.11
20
-108.228
11
40.11
21
-108.3
0
LINE
8
BLACK
6
CONTINUOUS
10
40.11
20
-108.3
11
40.11
21
-108.9
0
LINE
8
BLACK
6
CONTINUOUS
10
40.11
20
-108.9
11
40.11
21
-108.972
0
LINE
8
BLACK
6
CONTINUOUS
10
40.11
20
-108.972
11
40.1421
21
-109.113
0
LINE
8
BLACK
6
CONTINUOUS
10
40.1421
20
-109.113
11
40.2047
21
-109.243
0
LINE
8
BLACK
6
CONTINUOUS
10
40.2047
20
-109.243
11
40.2946
21
-109.355
0
LINE
8
BLACK
6
CONTINUOUS
10
40.2946
20
-109.355
11
40.4073
21
-109.445
0
LINE
8
BLACK
6
CONTINUOUS
10
40.4073
20
-109.445
11
40.5373
21
-109.508
0
LINE
8
BLACK
6
CONTINUOUS
10
40.5373
20
-109.508
11
40.6779
21
-109.54
0
LINE
8
BLACK
6
CONTINUOUS
10
40.6779
20
-109.54
11
40.75
21
-109.54
0
LINE
8
BLACK
6
CONTINUOUS
10
40.75
20
-109.54
11
42.15
21
-109.54
0
LINE
8
BLACK
6
CONTINUOUS
10
42.15
20
-109.54
11
42.2221
21
-109.54
0
LINE
8
BLACK
6
CONTINUOUS
10
42.2221
20
-109.54
11
42.3627
21
-109.508
0
LINE
8
BLACK
6
CONTINUOUS
10
42.3627
20
-109.508
11
42.4927
21
-109.445
0
LINE
8
BLACK
6
CONTINUOUS
10
42.4927
20
-109.445
11
42.6054
21
-109.355
0
LINE
8
BLACK
6
CONTINUOUS
10
42.6054
20
-109.355
11
42.6953
21
-109.243
0
LINE
8
BLACK
6
CONTINUOUS
10
42.6953
20
-109.243
11
42.7579
21
-109.113
0
LINE
8
BLACK
6
CONTINUOUS
10
42.7579
20
-109.113
11
42.79
21
-108.972
0
LINE
8
BLACK
6
CONTINUOUS
10
42.79
20
-108.972
11
42.79
21
-108.9
0
LINE
8
BLACK
6
CONTINUOUS
10
42.79
20
-108.9
11
42.79
21
-108.3
0
LINE
8
BLACK
6
CONTINUOUS
10
42.79
20
-108.3
11
42.79
21
-108.228
0
LINE
8
BLACK
6
CONTINUOUS
10
42.79
20
-108.228
11
42.7579
21
-108.087
0
LINE
8
BLACK
6
CONTINUOUS
10
42.7579
20
-108.087
11
42.6953
21
-107.957
0
LINE
8
BLACK
6
CONTINUOUS
10
42.6953
20
-107.957
11
42.6054
21
-107.845
0
LINE
8
BLACK
6
CONTINUOUS
10
42.6054
20
-107.845
11
42.4927
21
-107.755
0
LINE
8
BLACK
6
CONTINUOUS
10
42.4927
20
-107.755
11
42.3627
21
-107.692
0
LINE
8
BLACK
6
CONTINUOUS
10
42.3627
20
-107.692
11
42.2221
21
-107.66
0
LINE
8
BLACK
6
CONTINUOUS
10
42.2221
20
-107.66
11
42.15
21
-107.66
0
LINE
8
BLACK
6
CONTINUOUS
10
42.15
20
-107.66
11
40.75
21
-107.66
0
LINE
8
BLACK
6
CONTINUOUS
10
109.25
20
-107.54
11
109.398
21
-107.555
0
LINE
8
BLACK
6
CONTINUOUS
10
109.398
20
-107.555
11
109.541
21
-107.598
0
LINE
8
BLACK
6
CONTINUOUS
10
109.541
20
-107.598
11
109.672
21
-107.668
0
LINE
8
BLACK
6
CONTINUOUS
10
109.672
20
-107.668
11
109.787
21
-107.763
0
LINE
8
BLACK
6
CONTINUOUS
10
109.787
20
-107.763
11
109.882
21
-107.878
0
LINE
8
BLACK
6
CONTINUOUS
10
109.882
20
-107.878
11
109.952
21
-108.009
0
LINE
8
BLACK
6
CONTINUOUS
10
109.952
20
-108.009
11
109.995
21
-108.152
0
LINE
8
BLACK
6
CONTINUOUS
10
109.995
20
-108.152
11
110.01
21
-108.3
0
LINE
8
BLACK
6
CONTINUOUS
10
110.01
20
-108.3
11
110.01
21
-108.9
0
LINE
8
BLACK
6
CONTINUOUS
10
110.01
20
-108.9
11
109.995
21
-109.048
0
LINE
8
BLACK
6
CONTINUOUS
10
109.995
20
-109.048
11
109.952
21
-109.191
0
LINE
8
BLACK
6
CONTINUOUS
10
109.952
20
-109.191
11
109.882
21
-109.322
0
LINE
8
BLACK
6
CONTINUOUS
10
109.882
20
-109.322
11
109.787
21
-109.437
0
LINE
8
BLACK
6
CONTINUOUS
10
109.787
20
-109.437
11
109.672
21
-109.532
0
LINE
8
BLACK
6
CONTINUOUS
10
109.672
20
-109.532
11
109.541
21
-109.602
0
LINE
8
BLACK
6
CONTINUOUS
10
109.541
20
-109.602
11
109.398
21
-109.645
0
LINE
8
BLACK
6
CONTINUOUS
10
109.398
20
-109.645
11
109.25
21
-109.66
0
LINE
8
BLACK
6
CONTINUOUS
10
109.25
20
-109.66
11
107.85
21
-109.66
0
LINE
8
BLACK
6
CONTINUOUS
10
107.85
20
-109.66
11
107.702
21
-109.645
0
LINE
8
BLACK
6
CONTINUOUS
10
107.702
20
-109.645
11
107.559
21
-109.602
0
LINE
8
BLACK
6
CONTINUOUS
10
107.559
20
-109.602
11
107.428
21
-109.532
0
LINE
8
BLACK
6
CONTINUOUS
10
107.428
20
-109.532
11
107.313
21
-109.437
0
LINE
8
BLACK
6
CONTINUOUS
10
107.313
20
-109.437
11
107.218
21
-109.322
0
LINE
8
BLACK
6
CONTINUOUS
10
107.218
20
-109.322
11
107.148
21
-109.191
0
LINE
8
BLACK
6
CONTINUOUS
10
107.148
20
-109.191
11
107.105
21
-109.048
0
LINE
8
BLACK
6
CONTINUOUS
10
107.105
20
-109.048
11
107.09
21
-108.9
0
LINE
8
BLACK
6
CONTINUOUS
10
107.09
20
-108.9
11
107.09
21
-108.3
0
LINE
8
BLACK
6
CONTINUOUS
10
107.09
20
-108.3
11
107.09
21
-108.3
0
LINE
8
BLACK
6
CONTINUOUS
10
107.09
20
-108.3
11
107.105
21
-108.152
0
LINE
8
BLACK
6
CONTINUOUS
10
107.105
20
-108.152
11
107.148
21
-108.009
0
LINE
8
BLACK
6
CONTINUOUS
10
107.148
20
-108.009
11
107.218
21
-107.878
0
LINE
8
BLACK
6
CONTINUOUS
10
107.218
20
-107.878
11
107.313
21
-107.763
0
LINE
8
BLACK
6
CONTINUOUS
10
107.313
20
-107.763
11
107.428
21
-107.668
0
LINE
8
BLACK
6
CONTINUOUS
10
107.428
20
-107.668
11
107.559
21
-107.598
0
LINE
8
BLACK
6
CONTINUOUS
10
107.559
20
-107.598
11
107.702
21
-107.555
0
LINE
8
BLACK
6
CONTINUOUS
10
107.702
20
-107.555
11
107.85
21
-107.54
0
LINE
8
BLACK
6
CONTINUOUS
10
107.85
20
-107.54
11
109.25
21
-107.54
0
LINE
8
BLACK
6
CONTINUOUS
10
107.85
20
-107.66
11
107.778
21
-107.66
0
LINE
8
BLACK
6
CONTINUOUS
10
107.778
20
-107.66
11
107.637
21
-107.692
0
LINE
8
BLACK
6
CONTINUOUS
10
107.637
20
-107.692
11
107.507
21
-107.755
0
LINE
8
BLACK
6
CONTINUOUS
10
107.507
20
-107.755
11
107.395
21
-107.845
0
LINE
8
BLACK
6
CONTINUOUS
10
107.395
20
-107.845
11
107.305
21
-107.957
0
LINE
8
BLACK
6
CONTINUOUS
10
107.305
20
-107.957
11
107.242
21
-108.087
0
LINE
8
BLACK
6
CONTINUOUS
10
107.242
20
-108.087
11
107.21
21
-108.228
0
LINE
8
BLACK
6
CONTINUOUS
10
107.21
20
-108.228
11
107.21
21
-108.3
0
LINE
8
BLACK
6
CONTINUOUS
10
107.21
20
-108.3
11
107.21
21
-108.9
0
LINE
8
BLACK
6
CONTINUOUS
10
107.21
20
-108.9
11
107.21
21
-108.972
0
LINE
8
BLACK
6
CONTINUOUS
10
107.21
20
-108.972
11
107.242
21
-109.113
0
LINE
8
BLACK
6
CONTINUOUS
10
107.242
20
-109.113
11
107.305
21
-109.243
0
LINE
8
BLACK
6
CONTINUOUS
10
107.305
20
-109.243
11
107.395
21
-109.355
0
LINE
8
BLACK
6
CONTINUOUS
10
107.395
20
-109.355
11
107.507
21
-109.445
0
LINE
8
BLACK
6
CONTINUOUS
10
107.507
20
-109.445
11
107.637
21
-109.508
0
LINE
8
BLACK
6
CONTINUOUS
10
107.637
20
-109.508
11
107.778
21
-109.54
0
LINE
8
BLACK
6
CONTINUOUS
10
107.778
20
-109.54
11
107.85
21
-109.54
0
LINE
8
BLACK
6
CONTINUOUS
10
107.85
20
-109.54
11
109.25
21
-109.54
0
LINE
8
BLACK
6
CONTINUOUS
10
109.25
20
-109.54
11
109.322
21
-109.54
0
LINE
8
BLACK
6
CONTINUOUS
10
109.322
20
-109.54
11
109.463
21
-109.508
0
LINE
8
BLACK
6
CONTINUOUS
10
109.463
20
-109.508
11
109.593
21
-109.445
0
LINE
8
BLACK
6
CONTINUOUS
10
109.593
20
-109.445
11
109.705
21
-109.355
0
LINE
8
BLACK
6
CONTINUOUS
10
109.705
20
-109.355
11
109.795
21
-109.243
0
LINE
8
BLACK
6
CONTINUOUS
10
109.795
20
-109.243
11
109.858
21
-109.113
0
LINE
8
BLACK
6
CONTINUOUS
10
109.858
20
-109.113
11
109.89
21
-108.972
0
LINE
8
BLACK
6
CONTINUOUS
10
109.89
20
-108.972
11
109.89
21
-108.9
0
LINE
8
BLACK
6
CONTINUOUS
10
109.89
20
-108.9
11
109.89
21
-108.3
0
LINE
8
BLACK
6
CONTINUOUS
10
109.89
20
-108.3
11
109.89
21
-108.3
0
LINE
8
BLACK
6
CONTINUOUS
10
109.89
20
-108.3
11
109.89
21
-108.228
0
LINE
8
BLACK
6
CONTINUOUS
10
109.89
20
-108.228
11
109.858
21
-108.087
0
LINE
8
BLACK
6
CONTINUOUS
10
109.858
20
-108.087
11
109.795
21
-107.957
0
LINE
8
BLACK
6
CONTINUOUS
10
109.795
20
-107.957
11
109.705
21
-107.845
0
LINE
8
BLACK
6
CONTINUOUS
10
109.705
20
-107.845
11
109.593
21
-107.755
0
LINE
8
BLACK
6
CONTINUOUS
10
109.593
20
-107.755
11
109.463
21
-107.692
0
LINE
8
BLACK
6
CONTINUOUS
10
109.463
20
-107.692
11
109.322
21
-107.66
0
LINE
8
BLACK
6
CONTINUOUS
10
109.322
20
-107.66
11
109.25
21
-107.66
0
LINE
8
BLACK
6
CONTINUOUS
10
109.25
20
-107.66
11
107.85
21
-107.66
0
LINE
8
BLACK
6
CONTINUOUS
10
47.9874
20
-99.8255
11
48.005
21
-99.8679
0
LINE
8
BLACK
6
CONTINUOUS
10
48.005
20
-99.8679
11
48.005
21
-100.205
0
LINE
8
BLACK
6
CONTINUOUS
10
48.005
20
-100.205
11
49.665
21
-100.205
0
LINE
8
BLACK
6
CONTINUOUS
10
49.665
20
-100.205
11
49.665
21
-99.935
0
LINE
8
BLACK
6
CONTINUOUS
10
49.665
20
-99.935
11
49.6826
21
-99.8926
0
LINE
8
BLACK
6
CONTINUOUS
10
49.6826
20
-99.8926
11
49.725
21
-99.875
0
LINE
8
BLACK
6
CONTINUOUS
10
49.725
20
-99.875
11
49.7674
21
-99.8926
0
LINE
8
BLACK
6
CONTINUOUS
10
49.7674
20
-99.8926
11
49.785
21
-99.935
0
LINE
8
BLACK
6
CONTINUOUS
10
49.785
20
-99.935
11
49.785
21
-100.205
0
LINE
8
BLACK
6
CONTINUOUS
10
49.785
20
-100.205
11
50.425
21
-100.205
0
LINE
8
BLACK
6
CONTINUOUS
10
50.425
20
-100.205
11
50.425
21
-99.935
0
LINE
8
BLACK
6
CONTINUOUS
10
50.425
20
-99.935
11
50.4426
21
-99.8926
0
LINE
8
BLACK
6
CONTINUOUS
10
50.4426
20
-99.8926
11
50.485
21
-99.875
0
LINE
8
BLACK
6
CONTINUOUS
10
50.485
20
-99.875
11
50.5274
21
-99.8926
0
LINE
8
BLACK
6
CONTINUOUS
10
50.5274
20
-99.8926
11
50.545
21
-99.935
0
LINE
8
BLACK
6
CONTINUOUS
10
50.545
20
-99.935
11
50.545
21
-100.205
0
LINE
8
BLACK
6
CONTINUOUS
10
50.545
20
-100.205
11
51.435
21
-100.205
0
LINE
8
BLACK
6
CONTINUOUS
10
51.435
20
-100.205
11
51.4774
21
-100.223
0
LINE
8
BLACK
6
CONTINUOUS
10
51.4774
20
-100.223
11
51.495
21
-100.265
0
LINE
8
BLACK
6
CONTINUOUS
10
51.495
20
-100.265
11
51.495
21
-102.925
0
LINE
8
BLACK
6
CONTINUOUS
10
51.495
20
-102.925
11
51.4774
21
-102.967
0
LINE
8
BLACK
6
CONTINUOUS
10
51.4774
20
-102.967
11
51.435
21
-102.985
0
LINE
8
BLACK
6
CONTINUOUS
10
51.435
20
-102.985
11
50.545
21
-102.985
0
LINE
8
BLACK
6
CONTINUOUS
10
50.545
20
-102.985
11
50.545
21
-108.925
0
LINE
8
BLACK
6
CONTINUOUS
10
50.545
20
-108.925
11
50.5274
21
-108.967
0
LINE
8
BLACK
6
CONTINUOUS
10
50.5274
20
-108.967
11
50.485
21
-108.985
0
LINE
8
BLACK
6
CONTINUOUS
10
50.485
20
-108.985
11
50.425
21
-108.985
0
LINE
8
BLACK
6
CONTINUOUS
10
50.425
20
-108.985
11
50.305
21
-108.985
0
LINE
8
BLACK
6
CONTINUOUS
10
50.305
20
-108.985
11
50.185
21
-108.985
0
LINE
8
BLACK
6
CONTINUOUS
10
50.185
20
-108.985
11
50.065
21
-108.985
0
LINE
8
BLACK
6
CONTINUOUS
10
50.065
20
-108.985
11
49.945
21
-108.985
0
LINE
8
BLACK
6
CONTINUOUS
10
49.945
20
-108.985
11
49.825
21
-108.985
0
LINE
8
BLACK
6
CONTINUOUS
10
49.825
20
-108.985
11
49.725
21
-108.985
0
LINE
8
BLACK
6
CONTINUOUS
10
49.725
20
-108.985
11
49.6826
21
-108.967
0
LINE
8
BLACK
6
CONTINUOUS
10
49.6826
20
-108.967
11
49.665
21
-108.925
0
LINE
8
BLACK
6
CONTINUOUS
10
49.665
20
-108.925
11
49.665
21
-102.985
0
LINE
8
BLACK
6
CONTINUOUS
10
49.665
20
-102.985
11
48.835
21
-102.985
0
LINE
8
BLACK
6
CONTINUOUS
10
48.835
20
-102.985
11
48.005
21
-102.985
0
LINE
8
BLACK
6
CONTINUOUS
10
48.005
20
-102.985
11
48.005
21
-108.925
0
LINE
8
BLACK
6
CONTINUOUS
10
48.005
20
-108.925
11
47.9874
21
-108.967
0
LINE
8
BLACK
6
CONTINUOUS
10
47.9874
20
-108.967
11
47.945
21
-108.985
0
LINE
8
BLACK
6
CONTINUOUS
10
47.945
20
-108.985
11
47.185
21
-108.985
0
LINE
8
BLACK
6
CONTINUOUS
10
47.185
20
-108.985
11
47.1426
21
-108.967
0
LINE
8
BLACK
6
CONTINUOUS
10
47.1426
20
-108.967
11
47.125
21
-108.925
0
LINE
8
BLACK
6
CONTINUOUS
10
47.125
20
-108.925
11
47.125
21
-102.985
0
LINE
8
BLACK
6
CONTINUOUS
10
47.125
20
-102.985
11
46.295
21
-102.985
0
LINE
8
BLACK
6
CONTINUOUS
10
46.295
20
-102.985
11
45.465
21
-102.985
0
LINE
8
BLACK
6
CONTINUOUS
10
45.465
20
-102.985
11
45.465
21
-108.925
0
LINE
8
BLACK
6
CONTINUOUS
10
45.465
20
-108.925
11
45.4474
21
-108.967
0
LINE
8
BLACK
6
CONTINUOUS
10
45.4474
20
-108.967
11
45.405
21
-108.985
0
LINE
8
BLACK
6
CONTINUOUS
10
45.405
20
-108.985
11
44.645
21
-108.985
0
LINE
8
BLACK
6
CONTINUOUS
10
44.645
20
-108.985
11
44.6026
21
-108.967
0
LINE
8
BLACK
6
CONTINUOUS
10
44.6026
20
-108.967
11
44.585
21
-108.925
0
LINE
8
BLACK
6
CONTINUOUS
10
44.585
20
-108.925
11
44.585
21
-102.985
0
LINE
8
BLACK
6
CONTINUOUS
10
44.585
20
-102.985
11
43.695
21
-102.985
0
LINE
8
BLACK
6
CONTINUOUS
10
43.695
20
-102.985
11
43.6526
21
-102.967
0
LINE
8
BLACK
6
CONTINUOUS
10
43.6526
20
-102.967
11
43.635
21
-102.925
0
LINE
8
BLACK
6
CONTINUOUS
10
43.635
20
-102.925
11
43.635
21
-100.265
0
LINE
8
BLACK
6
CONTINUOUS
10
43.635
20
-100.265
11
43.6526
21
-100.223
0
LINE
8
BLACK
6
CONTINUOUS
10
43.6526
20
-100.223
11
43.695
21
-100.205
0
LINE
8
BLACK
6
CONTINUOUS
10
43.695
20
-100.205
11
44.585
21
-100.205
0
LINE
8
BLACK
6
CONTINUOUS
10
44.585
20
-100.205
11
44.585
21
-99.8679
0
LINE
8
BLACK
6
CONTINUOUS
10
44.585
20
-99.8679
11
44.6026
21
-99.8255
0
LINE
8
BLACK
6
CONTINUOUS
10
44.6026
20
-99.8255
11
44.645
21
-99.8079
0
LINE
8
BLACK
6
CONTINUOUS
10
44.645
20
-99.8079
11
44.6874
21
-99.8255
0
LINE
8
BLACK
6
CONTINUOUS
10
44.6874
20
-99.8255
11
44.705
21
-99.8679
0
LINE
8
BLACK
6
CONTINUOUS
10
44.705
20
-99.8679
11
44.705
21
-100.205
0
LINE
8
BLACK
6
CONTINUOUS
10
44.705
20
-100.205
11
45.345
21
-100.205
0
LINE
8
BLACK
6
CONTINUOUS
10
45.345
20
-100.205
11
45.345
21
-99.8679
0
LINE
8
BLACK
6
CONTINUOUS
10
45.345
20
-99.8679
11
45.3626
21
-99.8255
0
LINE
8
BLACK
6
CONTINUOUS
10
45.3626
20
-99.8255
11
45.405
21
-99.8079
0
LINE
8
BLACK
6
CONTINUOUS
10
45.405
20
-99.8079
11
45.4474
21
-99.8255
0
LINE
8
BLACK
6
CONTINUOUS
10
45.4474
20
-99.8255
11
45.465
21
-99.8679
0
LINE
8
BLACK
6
CONTINUOUS
10
45.465
20
-99.8679
11
45.465
21
-100.205
0
LINE
8
BLACK
6
CONTINUOUS
10
45.465
20
-100.205
11
47.125
21
-100.205
0
LINE
8
BLACK
6
CONTINUOUS
10
47.125
20
-100.205
11
47.125
21
-99.8679
0
LINE
8
BLACK
6
CONTINUOUS
10
47.125
20
-99.8679
11
47.1426
21
-99.8255
0
LINE
8
BLACK
6
CONTINUOUS
10
47.1426
20
-99.8255
11
47.185
21
-99.8079
0
LINE
8
BLACK
6
CONTINUOUS
10
47.185
20
-99.8079
11
47.2274
21
-99.8255
0
LINE
8
BLACK
6
CONTINUOUS
10
47.2274
20
-99.8255
11
47.245
21
-99.8679
0
LINE
8
BLACK
6
CONTINUOUS
10
47.245
20
-99.8679
11
47.245
21
-100.205
0
LINE
8
BLACK
6
CONTINUOUS
10
47.245
20
-100.205
11
47.885
21
-100.205
0
LINE
8
BLACK
6
CONTINUOUS
10
47.885
20
-100.205
11
47.885
21
-99.8679
0
LINE
8
BLACK
6
CONTINUOUS
10
47.885
20
-99.8679
11
47.9026
21
-99.8255
0
LINE
8
BLACK
6
CONTINUOUS
10
47.9026
20
-99.8255
11
47.945
21
-99.8079
0
LINE
8
BLACK
6
CONTINUOUS
10
47.945
20
-99.8079
11
47.9874
21
-99.8255
0
LINE
8
BLACK
6
CONTINUOUS
10
47.245
20
-102.985
11
47.245
21
-108.865
0
LINE
8
BLACK
6
CONTINUOUS
10
47.245
20
-108.865
11
47.885
21
-108.865
0
LINE
8
BLACK
6
CONTINUOUS
10
47.885
20
-108.865
11
47.885
21
-102.985
0
LINE
8
BLACK
6
CONTINUOUS
10
47.885
20
-102.985
11
47.245
21
-102.985
0
LINE
8
BLACK
6
CONTINUOUS
10
44.705
20
-102.985
11
44.705
21
-108.865
0
LINE
8
BLACK
6
CONTINUOUS
10
44.705
20
-108.865
11
45.345
21
-108.865
0
LINE
8
BLACK
6
CONTINUOUS
10
45.345
20
-108.865
11
45.345
21
-102.985
0
LINE
8
BLACK
6
CONTINUOUS
10
45.345
20
-102.985
11
44.705
21
-102.985
0
LINE
8
BLACK
6
CONTINUOUS
10
45.405
20
-100.325
11
44.645
21
-100.325
0
LINE
8
BLACK
6
CONTINUOUS
10
44.645
20
-100.325
11
43.755
21
-100.325
0
LINE
8
BLACK
6
CONTINUOUS
10
43.755
20
-100.325
11
43.755
21
-102.865
0
LINE
8
BLACK
6
CONTINUOUS
10
43.755
20
-102.865
11
46.235
21
-102.865
0
LINE
8
BLACK
6
CONTINUOUS
10
46.235
20
-102.865
11
46.235
21
-100.325
0
LINE
8
BLACK
6
CONTINUOUS
10
46.235
20
-100.325
11
45.405
21
-100.325
0
LINE
8
BLACK
6
CONTINUOUS
10
47.945
20
-100.325
11
47.185
21
-100.325
0
LINE
8
BLACK
6
CONTINUOUS
10
47.185
20
-100.325
11
46.355
21
-100.325
0
LINE
8
BLACK
6
CONTINUOUS
10
46.355
20
-100.325
11
46.355
21
-102.865
0
LINE
8
BLACK
6
CONTINUOUS
10
46.355
20
-102.865
11
48.775
21
-102.865
0
LINE
8
BLACK
6
CONTINUOUS
10
48.775
20
-102.865
11
48.775
21
-100.325
0
LINE
8
BLACK
6
CONTINUOUS
10
48.775
20
-100.325
11
47.945
21
-100.325
0
LINE
8
BLACK
6
CONTINUOUS
10
50.485
20
-100.325
11
49.725
21
-100.325
0
LINE
8
BLACK
6
CONTINUOUS
10
49.725
20
-100.325
11
48.895
21
-100.325
0
LINE
8
BLACK
6
CONTINUOUS
10
48.895
20
-100.325
11
48.895
21
-102.865
0
LINE
8
BLACK
6
CONTINUOUS
10
48.895
20
-102.865
11
51.375
21
-102.865
0
LINE
8
BLACK
6
CONTINUOUS
10
51.375
20
-102.865
11
51.375
21
-100.325
0
LINE
8
BLACK
6
CONTINUOUS
10
51.375
20
-100.325
11
50.485
21
-100.325
0
LINE
8
BLACK
6
CONTINUOUS
10
102.857
20
-99.8255
11
102.875
21
-99.8679
0
LINE
8
BLACK
6
CONTINUOUS
10
102.875
20
-99.8679
11
102.875
21
-100.205
0
LINE
8
BLACK
6
CONTINUOUS
10
102.875
20
-100.205
11
104.535
21
-100.205
0
LINE
8
BLACK
6
CONTINUOUS
10
104.535
20
-100.205
11
104.535
21
-99.935
0
LINE
8
BLACK
6
CONTINUOUS
10
104.535
20
-99.935
11
104.553
21
-99.8926
0
LINE
8
BLACK
6
CONTINUOUS
10
104.553
20
-99.8926
11
104.595
21
-99.875
0
LINE
8
BLACK
6
CONTINUOUS
10
104.595
20
-99.875
11
104.637
21
-99.8926
0
LINE
8
BLACK
6
CONTINUOUS
10
104.637
20
-99.8926
11
104.655
21
-99.935
0
LINE
8
BLACK
6
CONTINUOUS
10
104.655
20
-99.935
11
104.655
21
-100.205
0
LINE
8
BLACK
6
CONTINUOUS
10
104.655
20
-100.205
11
105.295
21
-100.205
0
LINE
8
BLACK
6
CONTINUOUS
10
105.295
20
-100.205
11
105.295
21
-99.935
0
LINE
8
BLACK
6
CONTINUOUS
10
105.295
20
-99.935
11
105.313
21
-99.8926
0
LINE
8
BLACK
6
CONTINUOUS
10
105.313
20
-99.8926
11
105.355
21
-99.875
0
LINE
8
BLACK
6
CONTINUOUS
10
105.355
20
-99.875
11
105.397
21
-99.8926
0
LINE
8
BLACK
6
CONTINUOUS
10
105.397
20
-99.8926
11
105.415
21
-99.935
0
LINE
8
BLACK
6
CONTINUOUS
10
105.415
20
-99.935
11
105.415
21
-100.205
0
LINE
8
BLACK
6
CONTINUOUS
10
105.415
20
-100.205
11
106.305
21
-100.205
0
LINE
8
BLACK
6
CONTINUOUS
10
106.305
20
-100.205
11
106.347
21
-100.223
0
LINE
8
BLACK
6
CONTINUOUS
10
106.347
20
-100.223
11
106.365
21
-100.265
0
LINE
8
BLACK
6
CONTINUOUS
10
106.365
20
-100.265
11
106.365
21
-102.925
0
LINE
8
BLACK
6
CONTINUOUS
10
106.365
20
-102.925
11
106.347
21
-102.967
0
LINE
8
BLACK
6
CONTINUOUS
10
106.347
20
-102.967
11
106.305
21
-102.985
0
LINE
8
BLACK
6
CONTINUOUS
10
106.305
20
-102.985
11
105.415
21
-102.985
0
LINE
8
BLACK
6
CONTINUOUS
10
105.415
20
-102.985
11
105.415
21
-108.925
0
LINE
8
BLACK
6
CONTINUOUS
10
105.415
20
-108.925
11
105.397
21
-108.967
0
LINE
8
BLACK
6
CONTINUOUS
10
105.397
20
-108.967
11
105.355
21
-108.985
0
LINE
8
BLACK
6
CONTINUOUS
10
105.355
20
-108.985
11
105.295
21
-108.985
0
LINE
8
BLACK
6
CONTINUOUS
10
105.295
20
-108.985
11
105.175
21
-108.985
0
LINE
8
BLACK
6
CONTINUOUS
10
105.175
20
-108.985
11
105.055
21
-108.985
0
LINE
8
BLACK
6
CONTINUOUS
10
105.055
20
-108.985
11
104.935
21
-108.985
0
LINE
8
BLACK
6
CONTINUOUS
10
104.935
20
-108.985
11
104.815
21
-108.985
0
LINE
8
BLACK
6
CONTINUOUS
10
104.815
20
-108.985
11
104.695
21
-108.985
0
LINE
8
BLACK
6
CONTINUOUS
10
104.695
20
-108.985
11
104.595
21
-108.985
0
LINE
8
BLACK
6
CONTINUOUS
10
104.595
20
-108.985
11
104.553
21
-108.967
0
LINE
8
BLACK
6
CONTINUOUS
10
104.553
20
-108.967
11
104.535
21
-108.925
0
LINE
8
BLACK
6
CONTINUOUS
10
104.535
20
-108.925
11
104.535
21
-102.985
0
LINE
8
BLACK
6
CONTINUOUS
10
104.535
20
-102.985
11
103.705
21
-102.985
0
LINE
8
BLACK
6
CONTINUOUS
10
103.705
20
-102.985
11
102.875
21
-102.985
0
LINE
8
BLACK
6
CONTINUOUS
10
102.875
20
-102.985
11
102.875
21
-108.925
0
LINE
8
BLACK
6
CONTINUOUS
10
102.875
20
-108.925
11
102.857
21
-108.967
0
LINE
8
BLACK
6
CONTINUOUS
10
102.857
20
-108.967
11
102.815
21
-108.985
0
LINE
8
BLACK
6
CONTINUOUS
10
102.815
20
-108.985
11
102.055
21
-108.985
0
LINE
8
BLACK
6
CONTINUOUS
10
102.055
20
-108.985
11
102.013
21
-108.967
0
LINE
8
BLACK
6
CONTINUOUS
10
102.013
20
-108.967
11
101.995
21
-108.925
0
LINE
8
BLACK
6
CONTINUOUS
10
101.995
20
-108.925
11
101.995
21
-108.925
0
LINE
8
BLACK
6
CONTINUOUS
10
101.995
20
-108.925
11
101.995
21
-102.985
0
LINE
8
BLACK
6
CONTINUOUS
10
101.995
20
-102.985
11
101.165
21
-102.985
0
LINE
8
BLACK
6
CONTINUOUS
10
101.165
20
-102.985
11
100.335
21
-102.985
0
LINE
8
BLACK
6
CONTINUOUS
10
100.335
20
-102.985
11
100.335
21
-108.925
0
LINE
8
BLACK
6
CONTINUOUS
10
100.335
20
-108.925
11
100.317
21
-108.967
0
LINE
8
BLACK
6
CONTINUOUS
10
100.317
20
-108.967
11
100.275
21
-108.985
0
LINE
8
BLACK
6
CONTINUOUS
10
100.275
20
-108.985
11
99.515
21
-108.985
0
LINE
8
BLACK
6
CONTINUOUS
10
99.515
20
-108.985
11
99.4726
21
-108.967
0
LINE
8
BLACK
6
CONTINUOUS
10
99.4726
20
-108.967
11
99.455
21
-108.925
0
LINE
8
BLACK
6
CONTINUOUS
10
99.455
20
-108.925
11
99.455
21
-102.985
0
LINE
8
BLACK
6
CONTINUOUS
10
99.455
20
-102.985
11
98.565
21
-102.985
0
LINE
8
BLACK
6
CONTINUOUS
10
98.565
20
-102.985
11
98.5226
21
-102.967
0
LINE
8
BLACK
6
CONTINUOUS
10
98.5226
20
-102.967
11
98.505
21
-102.925
0
LINE
8
BLACK
6
CONTINUOUS
10
98.505
20
-102.925
11
98.505
21
-100.265
0
LINE
8
BLACK
6
CONTINUOUS
10
98.505
20
-100.265
11
98.5226
21
-100.223
0
LINE
8
BLACK
6
CONTINUOUS
10
98.5226
20
-100.223
11
98.565
21
-100.205
0
LINE
8
BLACK
6
CONTINUOUS
10
98.565
20
-100.205
11
99.455
21
-100.205
0
LINE
8
BLACK
6
CONTINUOUS
10
99.455
20
-100.205
11
99.455
21
-99.8679
0
LINE
8
BLACK
6
CONTINUOUS
10
99.455
20
-99.8679
11
99.4726
21
-99.8255
0
LINE
8
BLACK
6
CONTINUOUS
10
99.4726
20
-99.8255
11
99.515
21
-99.8079
0
LINE
8
BLACK
6
CONTINUOUS
10
99.515
20
-99.8079
11
99.5574
21
-99.8255
0
LINE
8
BLACK
6
CONTINUOUS
10
99.5574
20
-99.8255
11
99.575
21
-99.8679
0
LINE
8
BLACK
6
CONTINUOUS
10
99.575
20
-99.8679
11
99.575
21
-100.205
0
LINE
8
BLACK
6
CONTINUOUS
10
99.575
20
-100.205
11
100.215
21
-100.205
0
LINE
8
BLACK
6
CONTINUOUS
10
100.215
20
-100.205
11
100.215
21
-99.8679
0
LINE
8
BLACK
6
CONTINUOUS
10
100.215
20
-99.8679
11
100.233
21
-99.8255
0
LINE
8
BLACK
6
CONTINUOUS
10
100.233
20
-99.8255
11
100.275
21
-99.8079
0
LINE
8
BLACK
6
CONTINUOUS
10
100.275
20
-99.8079
11
100.317
21
-99.8255
0
LINE
8
BLACK
6
CONTINUOUS
10
100.317
20
-99.8255
11
100.335
21
-99.8679
0
LINE
8
BLACK
6
CONTINUOUS
10
100.335
20
-99.8679
11
100.335
21
-100.205
0
LINE
8
BLACK
6
CONTINUOUS
10
100.335
20
-100.205
11
101.995
21
-100.205
0
LINE
8
BLACK
6
CONTINUOUS
10
101.995
20
-100.205
11
101.995
21
-99.8679
0
LINE
8
BLACK
6
CONTINUOUS
10
101.995
20
-99.8679
11
102.013
21
-99.8255
0
LINE
8
BLACK
6
CONTINUOUS
10
102.013
20
-99.8255
11
102.055
21
-99.8079
0
LINE
8
BLACK
6
CONTINUOUS
10
102.055
20
-99.8079
11
102.097
21
-99.8255
0
LINE
8
BLACK
6
CONTINUOUS
10
102.097
20
-99.8255
11
102.115
21
-99.8679
0
LINE
8
BLACK
6
CONTINUOUS
10
102.115
20
-99.8679
11
102.115
21
-100.205
0
LINE
8
BLACK
6
CONTINUOUS
10
102.115
20
-100.205
11
102.755
21
-100.205
0
LINE
8
BLACK
6
CONTINUOUS
10
102.755
20
-100.205
11
102.755
21
-99.8679
0
LINE
8
BLACK
6
CONTINUOUS
10
102.755
20
-99.8679
11
102.773
21
-99.8255
0
LINE
8
BLACK
6
CONTINUOUS
10
102.773
20
-99.8255
11
102.815
21
-99.8079
0
LINE
8
BLACK
6
CONTINUOUS
10
102.815
20
-99.8079
11
102.857
21
-99.8255
0
LINE
8
BLACK
6
CONTINUOUS
10
102.115
20
-102.985
11
102.115
21
-108.865
0
LINE
8
BLACK
6
CONTINUOUS
10
102.115
20
-108.865
11
102.755
21
-108.865
0
LINE
8
BLACK
6
CONTINUOUS
10
102.755
20
-108.865
11
102.755
21
-102.985
0
LINE
8
BLACK
6
CONTINUOUS
10
102.755
20
-102.985
11
102.115
21
-102.985
0
LINE
8
BLACK
6
CONTINUOUS
10
99.575
20
-102.985
11
99.575
21
-108.865
0
LINE
8
BLACK
6
CONTINUOUS
10
99.575
20
-108.865
11
100.215
21
-108.865
0
LINE
8
BLACK
6
CONTINUOUS
10
100.215
20
-108.865
11
100.215
21
-102.985
0
LINE
8
BLACK
6
CONTINUOUS
10
100.215
20
-102.985
11
99.575
21
-102.985
0
LINE
8
BLACK
6
CONTINUOUS
10
100.275
20
-100.325
11
99.515
21
-100.325
0
LINE
8
BLACK
6
CONTINUOUS
10
99.515
20
-100.325
11
98.625
21
-100.325
0
LINE
8
BLACK
6
CONTINUOUS
10
98.625
20
-100.325
11
98.625
21
-102.865
0
LINE
8
BLACK
6
CONTINUOUS
10
98.625
20
-102.865
11
101.105
21
-102.865
0
LINE
8
BLACK
6
CONTINUOUS
10
101.105
20
-102.865
11
101.105
21
-100.325
0
LINE
8
BLACK
6
CONTINUOUS
10
101.105
20
-100.325
11
100.275
21
-100.325
0
LINE
8
BLACK
6
CONTINUOUS
10
102.815
20
-100.325
11
102.055
21
-100.325
0
LINE
8
BLACK
6
CONTINUOUS
10
102.055
20
-100.325
11
101.225
21
-100.325
0
LINE
8
BLACK
6
CONTINUOUS
10
101.225
20
-100.325
11
101.225
21
-102.865
0
LINE
8
BLACK
6
CONTINUOUS
10
101.225
20
-102.865
11
103.645
21
-102.865
0
LINE
8
BLACK
6
CONTINUOUS
10
103.645
20
-102.865
11
103.645
21
-100.325
0
LINE
8
BLACK
6
CONTINUOUS
10
103.645
20
-100.325
11
102.815
21
-100.325
0
LINE
8
BLACK
6
CONTINUOUS
10
105.355
20
-100.325
11
104.595
21
-100.325
0
LINE
8
BLACK
6
CONTINUOUS
10
104.595
20
-100.325
11
103.765
21
-100.325
0
LINE
8
BLACK
6
CONTINUOUS
10
103.765
20
-100.325
11
103.765
21
-102.865
0
LINE
8
BLACK
6
CONTINUOUS
10
103.765
20
-102.865
11
106.245
21
-102.865
0
LINE
8
BLACK
6
CONTINUOUS
10
106.245
20
-102.865
11
106.245
21
-100.325
0
LINE
8
BLACK
6
CONTINUOUS
10
106.245
20
-100.325
11
105.355
21
-100.325
0
LINE
8
BLACK
6
CONTINUOUS
10
109.25
20
-105.04
11
109.398
21
-105.055
0
LINE
8
BLACK
6
CONTINUOUS
10
109.398
20
-105.055
11
109.541
21
-105.098
0
LINE
8
BLACK
6
CONTINUOUS
10
109.541
20
-105.098
11
109.672
21
-105.168
0
LINE
8
BLACK
6
CONTINUOUS
10
109.672
20
-105.168
11
109.787
21
-105.263
0
LINE
8
BLACK
6
CONTINUOUS
10
109.787
20
-105.263
11
109.882
21
-105.378
0
LINE
8
BLACK
6
CONTINUOUS
10
109.882
20
-105.378
11
109.952
21
-105.509
0
LINE
8
BLACK
6
CONTINUOUS
10
109.952
20
-105.509
11
109.995
21
-105.652
0
LINE
8
BLACK
6
CONTINUOUS
10
109.995
20
-105.652
11
110.01
21
-105.8
0
LINE
8
BLACK
6
CONTINUOUS
10
110.01
20
-105.8
11
110.01
21
-106.4
0
LINE
8
BLACK
6
CONTINUOUS
10
110.01
20
-106.4
11
109.995
21
-106.548
0
LINE
8
BLACK
6
CONTINUOUS
10
109.995
20
-106.548
11
109.952
21
-106.691
0
LINE
8
BLACK
6
CONTINUOUS
10
109.952
20
-106.691
11
109.882
21
-106.822
0
LINE
8
BLACK
6
CONTINUOUS
10
109.882
20
-106.822
11
109.787
21
-106.937
0
LINE
8
BLACK
6
CONTINUOUS
10
109.787
20
-106.937
11
109.672
21
-107.032
0
LINE
8
BLACK
6
CONTINUOUS
10
109.672
20
-107.032
11
109.541
21
-107.102
0
LINE
8
BLACK
6
CONTINUOUS
10
109.541
20
-107.102
11
109.398
21
-107.145
0
LINE
8
BLACK
6
CONTINUOUS
10
109.398
20
-107.145
11
109.25
21
-107.16
0
LINE
8
BLACK
6
CONTINUOUS
10
109.25
20
-107.16
11
107.85
21
-107.16
0
LINE
8
BLACK
6
CONTINUOUS
10
107.85
20
-107.16
11
107.702
21
-107.145
0
LINE
8
BLACK
6
CONTINUOUS
10
107.702
20
-107.145
11
107.559
21
-107.102
0
LINE
8
BLACK
6
CONTINUOUS
10
107.559
20
-107.102
11
107.428
21
-107.032
0
LINE
8
BLACK
6
CONTINUOUS
10
107.428
20
-107.032
11
107.313
21
-106.937
0
LINE
8
BLACK
6
CONTINUOUS
10
107.313
20
-106.937
11
107.218
21
-106.822
0
LINE
8
BLACK
6
CONTINUOUS
10
107.218
20
-106.822
11
107.148
21
-106.691
0
LINE
8
BLACK
6
CONTINUOUS
10
107.148
20
-106.691
11
107.105
21
-106.548
0
LINE
8
BLACK
6
CONTINUOUS
10
107.105
20
-106.548
11
107.09
21
-106.4
0
LINE
8
BLACK
6
CONTINUOUS
10
107.09
20
-106.4
11
107.09
21
-105.8
0
LINE
8
BLACK
6
CONTINUOUS
10
107.09
20
-105.8
11
107.105
21
-105.652
0
LINE
8
BLACK
6
CONTINUOUS
10
107.105
20
-105.652
11
107.148
21
-105.509
0
LINE
8
BLACK
6
CONTINUOUS
10
107.148
20
-105.509
11
107.218
21
-105.378
0
LINE
8
BLACK
6
CONTINUOUS
10
107.218
20
-105.378
11
107.313
21
-105.263
0
LINE
8
BLACK
6
CONTINUOUS
10
107.313
20
-105.263
11
107.428
21
-105.168
0
LINE
8
BLACK
6
CONTINUOUS
10
107.428
20
-105.168
11
107.559
21
-105.098
0
LINE
8
BLACK
6
CONTINUOUS
10
107.559
20
-105.098
11
107.702
21
-105.055
0
LINE
8
BLACK
6
CONTINUOUS
10
107.702
20
-105.055
11
107.85
21
-105.04
0
LINE
8
BLACK
6
CONTINUOUS
10
107.85
20
-105.04
11
109.25
21
-105.04
0
LINE
8
BLACK
6
CONTINUOUS
10
107.85
20
-105.16
11
107.778
21
-105.16
0
LINE
8
BLACK
6
CONTINUOUS
10
107.778
20
-105.16
11
107.637
21
-105.192
0
LINE
8
BLACK
6
CONTINUOUS
10
107.637
20
-105.192
11
107.507
21
-105.255
0
LINE
8
BLACK
6
CONTINUOUS
10
107.507
20
-105.255
11
107.395
21
-105.345
0
LINE
8
BLACK
6
CONTINUOUS
10
107.395
20
-105.345
11
107.305
21
-105.457
0
LINE
8
BLACK
6
CONTINUOUS
10
107.305
20
-105.457
11
107.242
21
-105.587
0
LINE
8
BLACK
6
CONTINUOUS
10
107.242
20
-105.587
11
107.21
21
-105.728
0
LINE
8
BLACK
6
CONTINUOUS
10
107.21
20
-105.728
11
107.21
21
-105.8
0
LINE
8
BLACK
6
CONTINUOUS
10
107.21
20
-105.8
11
107.21
21
-106.4
0
LINE
8
BLACK
6
CONTINUOUS
10
107.21
20
-106.4
11
107.21
21
-106.472
0
LINE
8
BLACK
6
CONTINUOUS
10
107.21
20
-106.472
11
107.242
21
-106.613
0
LINE
8
BLACK
6
CONTINUOUS
10
107.242
20
-106.613
11
107.305
21
-106.743
0
LINE
8
BLACK
6
CONTINUOUS
10
107.305
20
-106.743
11
107.395
21
-106.855
0
LINE
8
BLACK
6
CONTINUOUS
10
107.395
20
-106.855
11
107.507
21
-106.945
0
LINE
8
BLACK
6
CONTINUOUS
10
107.507
20
-106.945
11
107.637
21
-107.008
0
LINE
8
BLACK
6
CONTINUOUS
10
107.637
20
-107.008
11
107.778
21
-107.04
0
LINE
8
BLACK
6
CONTINUOUS
10
107.778
20
-107.04
11
107.85
21
-107.04
0
LINE
8
BLACK
6
CONTINUOUS
10
107.85
20
-107.04
11
109.25
21
-107.04
0
LINE
8
BLACK
6
CONTINUOUS
10
109.25
20
-107.04
11
109.322
21
-107.04
0
LINE
8
BLACK
6
CONTINUOUS
10
109.322
20
-107.04
11
109.463
21
-107.008
0
LINE
8
BLACK
6
CONTINUOUS
10
109.463
20
-107.008
11
109.593
21
-106.945
0
LINE
8
BLACK
6
CONTINUOUS
10
109.593
20
-106.945
11
109.705
21
-106.855
0
LINE
8
BLACK
6
CONTINUOUS
10
109.705
20
-106.855
11
109.795
21
-106.743
0
LINE
8
BLACK
6
CONTINUOUS
10
109.795
20
-106.743
11
109.858
21
-106.613
0
LINE
8
BLACK
6
CONTINUOUS
10
109.858
20
-106.613
11
109.89
21
-106.472
0
LINE
8
BLACK
6
CONTINUOUS
10
109.89
20
-106.472
11
109.89
21
-106.4
0
LINE
8
BLACK
6
CONTINUOUS
10
109.89
20
-106.4
11
109.89
21
-105.8
0
LINE
8
BLACK
6
CONTINUOUS
10
109.89
20
-105.8
11
109.89
21
-105.728
0
LINE
8
BLACK
6
CONTINUOUS
10
109.89
20
-105.728
11
109.858
21
-105.587
0
LINE
8
BLACK
6
CONTINUOUS
10
109.858
20
-105.587
11
109.795
21
-105.457
0
LINE
8
BLACK
6
CONTINUOUS
10
109.795
20
-105.457
11
109.705
21
-105.345
0
LINE
8
BLACK
6
CONTINUOUS
10
109.705
20
-105.345
11
109.593
21
-105.255
0
LINE
8
BLACK
6
CONTINUOUS
10
109.593
20
-105.255
11
109.463
21
-105.192
0
LINE
8
BLACK
6
CONTINUOUS
10
109.463
20
-105.192
11
109.322
21
-105.16
0
LINE
8
BLACK
6
CONTINUOUS
10
109.322
20
-105.16
11
109.25
21
-105.16
0
LINE
8
BLACK
6
CONTINUOUS
10
109.25
20
-105.16
11
107.85
21
-105.16
0
LINE
8
BLACK
6
CONTINUOUS
10
42.15
20
-104.84
11
42.2983
21
-104.855
0
LINE
8
BLACK
6
CONTINUOUS
10
42.2983
20
-104.855
11
42.4408
21
-104.898
0
LINE
8
BLACK
6
CONTINUOUS
10
42.4408
20
-104.898
11
42.5722
21
-104.968
0
LINE
8
BLACK
6
CONTINUOUS
10
42.5722
20
-104.968
11
42.6874
21
-105.063
0
LINE
8
BLACK
6
CONTINUOUS
10
42.6874
20
-105.063
11
42.7819
21
-105.178
0
LINE
8
BLACK
6
CONTINUOUS
10
42.7819
20
-105.178
11
42.8521
21
-105.309
0
LINE
8
BLACK
6
CONTINUOUS
10
42.8521
20
-105.309
11
42.8954
21
-105.452
0
LINE
8
BLACK
6
CONTINUOUS
10
42.8954
20
-105.452
11
42.91
21
-105.6
0
LINE
8
BLACK
6
CONTINUOUS
10
42.91
20
-105.6
11
42.91
21
-106.2
0
LINE
8
BLACK
6
CONTINUOUS
10
42.91
20
-106.2
11
42.8954
21
-106.348
0
LINE
8
BLACK
6
CONTINUOUS
10
42.8954
20
-106.348
11
42.8521
21
-106.491
0
LINE
8
BLACK
6
CONTINUOUS
10
42.8521
20
-106.491
11
42.7819
21
-106.622
0
LINE
8
BLACK
6
CONTINUOUS
10
42.7819
20
-106.622
11
42.6874
21
-106.737
0
LINE
8
BLACK
6
CONTINUOUS
10
42.6874
20
-106.737
11
42.5722
21
-106.832
0
LINE
8
BLACK
6
CONTINUOUS
10
42.5722
20
-106.832
11
42.4408
21
-106.902
0
LINE
8
BLACK
6
CONTINUOUS
10
42.4408
20
-106.902
11
42.2983
21
-106.945
0
LINE
8
BLACK
6
CONTINUOUS
10
42.2983
20
-106.945
11
42.15
21
-106.96
0
LINE
8
BLACK
6
CONTINUOUS
10
42.15
20
-106.96
11
40.75
21
-106.96
0
LINE
8
BLACK
6
CONTINUOUS
10
40.75
20
-106.96
11
40.6017
21
-106.945
0
LINE
8
BLACK
6
CONTINUOUS
10
40.6017
20
-106.945
11
40.4592
21
-106.902
0
LINE
8
BLACK
6
CONTINUOUS
10
40.4592
20
-106.902
11
40.3278
21
-106.832
0
LINE
8
BLACK
6
CONTINUOUS
10
40.3278
20
-106.832
11
40.2126
21
-106.737
0
LINE
8
BLACK
6
CONTINUOUS
10
40.2126
20
-106.737
11
40.1181
21
-106.622
0
LINE
8
BLACK
6
CONTINUOUS
10
40.1181
20
-106.622
11
40.0479
21
-106.491
0
LINE
8
BLACK
6
CONTINUOUS
10
40.0479
20
-106.491
11
40.0046
21
-106.348
0
LINE
8
BLACK
6
CONTINUOUS
10
40.0046
20
-106.348
11
39.99
21
-106.2
0
LINE
8
BLACK
6
CONTINUOUS
10
39.99
20
-106.2
11
39.99
21
-105.6
0
LINE
8
BLACK
6
CONTINUOUS
10
39.99
20
-105.6
11
40.0046
21
-105.452
0
LINE
8
BLACK
6
CONTINUOUS
10
40.0046
20
-105.452
11
40.0479
21
-105.309
0
LINE
8
BLACK
6
CONTINUOUS
10
40.0479
20
-105.309
11
40.1181
21
-105.178
0
LINE
8
BLACK
6
CONTINUOUS
10
40.1181
20
-105.178
11
40.2126
21
-105.063
0
LINE
8
BLACK
6
CONTINUOUS
10
40.2126
20
-105.063
11
40.3278
21
-104.968
0
LINE
8
BLACK
6
CONTINUOUS
10
40.3278
20
-104.968
11
40.4592
21
-104.898
0
LINE
8
BLACK
6
CONTINUOUS
10
40.4592
20
-104.898
11
40.6017
21
-104.855
0
LINE
8
BLACK
6
CONTINUOUS
10
40.6017
20
-104.855
11
40.75
21
-104.84
0
LINE
8
BLACK
6
CONTINUOUS
10
40.75
20
-104.84
11
42.15
21
-104.84
0
LINE
8
BLACK
6
CONTINUOUS
10
40.75
20
-104.96
11
40.6779
21
-104.96
0
LINE
8
BLACK
6
CONTINUOUS
10
40.6779
20
-104.96
11
40.5373
21
-104.992
0
LINE
8
BLACK
6
CONTINUOUS
10
40.5373
20
-104.992
11
40.4073
21
-105.055
0
LINE
8
BLACK
6
CONTINUOUS
10
40.4073
20
-105.055
11
40.2946
21
-105.145
0
LINE
8
BLACK
6
CONTINUOUS
10
40.2946
20
-105.145
11
40.2047
21
-105.257
0
LINE
8
BLACK
6
CONTINUOUS
10
40.2047
20
-105.257
11
40.1421
21
-105.387
0
LINE
8
BLACK
6
CONTINUOUS
10
40.1421
20
-105.387
11
40.11
21
-105.528
0
LINE
8
BLACK
6
CONTINUOUS
10
40.11
20
-105.528
11
40.11
21
-105.6
0
LINE
8
BLACK
6
CONTINUOUS
10
40.11
20
-105.6
11
40.11
21
-106.2
0
LINE
8
BLACK
6
CONTINUOUS
10
40.11
20
-106.2
11
40.11
21
-106.272
0
LINE
8
BLACK
6
CONTINUOUS
10
40.11
20
-106.272
11
40.1421
21
-106.413
0
LINE
8
BLACK
6
CONTINUOUS
10
40.1421
20
-106.413
11
40.2047
21
-106.543
0
LINE
8
BLACK
6
CONTINUOUS
10
40.2047
20
-106.543
11
40.2946
21
-106.655
0
LINE
8
BLACK
6
CONTINUOUS
10
40.2946
20
-106.655
11
40.4073
21
-106.745
0
LINE
8
BLACK
6
CONTINUOUS
10
40.4073
20
-106.745
11
40.5373
21
-106.808
0
LINE
8
BLACK
6
CONTINUOUS
10
40.5373
20
-106.808
11
40.6779
21
-106.84
0
LINE
8
BLACK
6
CONTINUOUS
10
40.6779
20
-106.84
11
40.75
21
-106.84
0
LINE
8
BLACK
6
CONTINUOUS
10
40.75
20
-106.84
11
42.15
21
-106.84
0
LINE
8
BLACK
6
CONTINUOUS
10
42.15
20
-106.84
11
42.2221
21
-106.84
0
LINE
8
BLACK
6
CONTINUOUS
10
42.2221
20
-106.84
11
42.3627
21
-106.808
0
LINE
8
BLACK
6
CONTINUOUS
10
42.3627
20
-106.808
11
42.4927
21
-106.745
0
LINE
8
BLACK
6
CONTINUOUS
10
42.4927
20
-106.745
11
42.6054
21
-106.655
0
LINE
8
BLACK
6
CONTINUOUS
10
42.6054
20
-106.655
11
42.6953
21
-106.543
0
LINE
8
BLACK
6
CONTINUOUS
10
42.6953
20
-106.543
11
42.7579
21
-106.413
0
LINE
8
BLACK
6
CONTINUOUS
10
42.7579
20
-106.413
11
42.79
21
-106.272
0
LINE
8
BLACK
6
CONTINUOUS
10
42.79
20
-106.272
11
42.79
21
-106.2
0
LINE
8
BLACK
6
CONTINUOUS
10
42.79
20
-106.2
11
42.79
21
-105.6
0
LINE
8
BLACK
6
CONTINUOUS
10
42.79
20
-105.6
11
42.79
21
-105.528
0
LINE
8
BLACK
6
CONTINUOUS
10
42.79
20
-105.528
11
42.7579
21
-105.387
0
LINE
8
BLACK
6
CONTINUOUS
10
42.7579
20
-105.387
11
42.6953
21
-105.257
0
LINE
8
BLACK
6
CONTINUOUS
10
42.6953
20
-105.257
11
42.6054
21
-105.145
0
LINE
8
BLACK
6
CONTINUOUS
10
42.6054
20
-105.145
11
42.4927
21
-105.055
0
LINE
8
BLACK
6
CONTINUOUS
10
42.4927
20
-105.055
11
42.3627
21
-104.992
0
LINE
8
BLACK
6
CONTINUOUS
10
42.3627
20
-104.992
11
42.2221
21
-104.96
0
LINE
8
BLACK
6
CONTINUOUS
10
42.2221
20
-104.96
11
42.15
21
-104.96
0
LINE
8
BLACK
6
CONTINUOUS
10
42.15
20
-104.96
11
40.75
21
-104.96
0
LINE
8
BLACK
6
CONTINUOUS
10
38.2
20
-100.94
11
38.3483
21
-100.955
0
LINE
8
BLACK
6
CONTINUOUS
10
38.3483
20
-100.955
11
38.4908
21
-100.998
0
LINE
8
BLACK
6
CONTINUOUS
10
38.4908
20
-100.998
11
38.6222
21
-101.068
0
LINE
8
BLACK
6
CONTINUOUS
10
38.6222
20
-101.068
11
38.7374
21
-101.163
0
LINE
8
BLACK
6
CONTINUOUS
10
38.7374
20
-101.163
11
38.8319
21
-101.278
0
LINE
8
BLACK
6
CONTINUOUS
10
38.8319
20
-101.278
11
38.9021
21
-101.409
0
LINE
8
BLACK
6
CONTINUOUS
10
38.9021
20
-101.409
11
38.9454
21
-101.552
0
LINE
8
BLACK
6
CONTINUOUS
10
38.9454
20
-101.552
11
38.96
21
-101.7
0
LINE
8
BLACK
6
CONTINUOUS
10
38.96
20
-101.7
11
38.96
21
-102.3
0
LINE
8
BLACK
6
CONTINUOUS
10
38.96
20
-102.3
11
38.9454
21
-102.448
0
LINE
8
BLACK
6
CONTINUOUS
10
38.9454
20
-102.448
11
38.9021
21
-102.591
0
LINE
8
BLACK
6
CONTINUOUS
10
38.9021
20
-102.591
11
38.8319
21
-102.722
0
LINE
8
BLACK
6
CONTINUOUS
10
38.8319
20
-102.722
11
38.7374
21
-102.837
0
LINE
8
BLACK
6
CONTINUOUS
10
38.7374
20
-102.837
11
38.6222
21
-102.932
0
LINE
8
BLACK
6
CONTINUOUS
10
38.6222
20
-102.932
11
38.4908
21
-103.002
0
LINE
8
BLACK
6
CONTINUOUS
10
38.4908
20
-103.002
11
38.3483
21
-103.045
0
LINE
8
BLACK
6
CONTINUOUS
10
38.3483
20
-103.045
11
38.2
21
-103.06
0
LINE
8
BLACK
6
CONTINUOUS
10
38.2
20
-103.06
11
36.8
21
-103.06
0
LINE
8
BLACK
6
CONTINUOUS
10
36.8
20
-103.06
11
36.6517
21
-103.045
0
LINE
8
BLACK
6
CONTINUOUS
10
36.6517
20
-103.045
11
36.5092
21
-103.002
0
LINE
8
BLACK
6
CONTINUOUS
10
36.5092
20
-103.002
11
36.3778
21
-102.932
0
LINE
8
BLACK
6
CONTINUOUS
10
36.3778
20
-102.932
11
36.2626
21
-102.837
0
LINE
8
BLACK
6
CONTINUOUS
10
36.2626
20
-102.837
11
36.1681
21
-102.722
0
LINE
8
BLACK
6
CONTINUOUS
10
36.1681
20
-102.722
11
36.0979
21
-102.591
0
LINE
8
BLACK
6
CONTINUOUS
10
36.0979
20
-102.591
11
36.0546
21
-102.448
0
LINE
8
BLACK
6
CONTINUOUS
10
36.0546
20
-102.448
11
36.04
21
-102.3
0
LINE
8
BLACK
6
CONTINUOUS
10
36.04
20
-102.3
11
36.04
21
-101.7
0
LINE
8
BLACK
6
CONTINUOUS
10
36.04
20
-101.7
11
36.0546
21
-101.552
0
LINE
8
BLACK
6
CONTINUOUS
10
36.0546
20
-101.552
11
36.0979
21
-101.409
0
LINE
8
BLACK
6
CONTINUOUS
10
36.0979
20
-101.409
11
36.1681
21
-101.278
0
LINE
8
BLACK
6
CONTINUOUS
10
36.1681
20
-101.278
11
36.2626
21
-101.163
0
LINE
8
BLACK
6
CONTINUOUS
10
36.2626
20
-101.163
11
36.3778
21
-101.068
0
LINE
8
BLACK
6
CONTINUOUS
10
36.3778
20
-101.068
11
36.5092
21
-100.998
0
LINE
8
BLACK
6
CONTINUOUS
10
36.5092
20
-100.998
11
36.6517
21
-100.955
0
LINE
8
BLACK
6
CONTINUOUS
10
36.6517
20
-100.955
11
36.8
21
-100.94
0
LINE
8
BLACK
6
CONTINUOUS
10
36.8
20
-100.94
11
38.2
21
-100.94
0
LINE
8
BLACK
6
CONTINUOUS
10
36.8
20
-101.06
11
36.7279
21
-101.06
0
LINE
8
BLACK
6
CONTINUOUS
10
36.7279
20
-101.06
11
36.5873
21
-101.092
0
LINE
8
BLACK
6
CONTINUOUS
10
36.5873
20
-101.092
11
36.4573
21
-101.155
0
LINE
8
BLACK
6
CONTINUOUS
10
36.4573
20
-101.155
11
36.3446
21
-101.245
0
LINE
8
BLACK
6
CONTINUOUS
10
36.3446
20
-101.245
11
36.2547
21
-101.357
0
LINE
8
BLACK
6
CONTINUOUS
10
36.2547
20
-101.357
11
36.1921
21
-101.487
0
LINE
8
BLACK
6
CONTINUOUS
10
36.1921
20
-101.487
11
36.16
21
-101.628
0
LINE
8
BLACK
6
CONTINUOUS
10
36.16
20
-101.628
11
36.16
21
-101.7
0
LINE
8
BLACK
6
CONTINUOUS
10
36.16
20
-101.7
11
36.16
21
-102.3
0
LINE
8
BLACK
6
CONTINUOUS
10
36.16
20
-102.3
11
36.16
21
-102.372
0
LINE
8
BLACK
6
CONTINUOUS
10
36.16
20
-102.372
11
36.1921
21
-102.513
0
LINE
8
BLACK
6
CONTINUOUS
10
36.1921
20
-102.513
11
36.2547
21
-102.643
0
LINE
8
BLACK
6
CONTINUOUS
10
36.2547
20
-102.643
11
36.3446
21
-102.755
0
LINE
8
BLACK
6
CONTINUOUS
10
36.3446
20
-102.755
11
36.4573
21
-102.845
0
LINE
8
BLACK
6
CONTINUOUS
10
36.4573
20
-102.845
11
36.5873
21
-102.908
0
LINE
8
BLACK
6
CONTINUOUS
10
36.5873
20
-102.908
11
36.7279
21
-102.94
0
LINE
8
BLACK
6
CONTINUOUS
10
36.7279
20
-102.94
11
36.8
21
-102.94
0
LINE
8
BLACK
6
CONTINUOUS
10
36.8
20
-102.94
11
38.2
21
-102.94
0
LINE
8
BLACK
6
CONTINUOUS
10
38.2
20
-102.94
11
38.2721
21
-102.94
0
LINE
8
BLACK
6
CONTINUOUS
10
38.2721
20
-102.94
11
38.4127
21
-102.908
0
LINE
8
BLACK
6
CONTINUOUS
10
38.4127
20
-102.908
11
38.5427
21
-102.845
0
LINE
8
BLACK
6
CONTINUOUS
10
38.5427
20
-102.845
11
38.6554
21
-102.755
0
LINE
8
BLACK
6
CONTINUOUS
10
38.6554
20
-102.755
11
38.7453
21
-102.643
0
LINE
8
BLACK
6
CONTINUOUS
10
38.7453
20
-102.643
11
38.8079
21
-102.513
0
LINE
8
BLACK
6
CONTINUOUS
10
38.8079
20
-102.513
11
38.84
21
-102.372
0
LINE
8
BLACK
6
CONTINUOUS
10
38.84
20
-102.372
11
38.84
21
-102.3
0
LINE
8
BLACK
6
CONTINUOUS
10
38.84
20
-102.3
11
38.84
21
-101.7
0
LINE
8
BLACK
6
CONTINUOUS
10
38.84
20
-101.7
11
38.84
21
-101.628
0
LINE
8
BLACK
6
CONTINUOUS
10
38.84
20
-101.628
11
38.8079
21
-101.487
0
LINE
8
BLACK
6
CONTINUOUS
10
38.8079
20
-101.487
11
38.7453
21
-101.357
0
LINE
8
BLACK
6
CONTINUOUS
10
38.7453
20
-101.357
11
38.6554
21
-101.245
0
LINE
8
BLACK
6
CONTINUOUS
10
38.6554
20
-101.245
11
38.5427
21
-101.155
0
LINE
8
BLACK
6
CONTINUOUS
10
38.5427
20
-101.155
11
38.4127
21
-101.092
0
LINE
8
BLACK
6
CONTINUOUS
10
38.4127
20
-101.092
11
38.2721
21
-101.06
0
LINE
8
BLACK
6
CONTINUOUS
10
38.2721
20
-101.06
11
38.2
21
-101.06
0
LINE
8
BLACK
6
CONTINUOUS
10
38.2
20
-101.06
11
36.8
21
-101.06
0
LINE
8
BLACK
6
CONTINUOUS
10
37.7849
20
-100.019
11
38.0639
21
-100.079
0
LINE
8
BLACK
6
CONTINUOUS
10
38.0639
20
-100.079
11
38.3315
21
-100.179
0
LINE
8
BLACK
6
CONTINUOUS
10
38.3315
20
-100.179
11
38.5822
21
-100.316
0
LINE
8
BLACK
6
CONTINUOUS
10
38.5822
20
-100.316
11
38.8108
21
-100.487
0
LINE
8
BLACK
6
CONTINUOUS
10
38.8108
20
-100.487
11
39.0127
21
-100.689
0
LINE
8
BLACK
6
CONTINUOUS
10
39.0127
20
-100.689
11
39.1839
21
-100.918
0
LINE
8
BLACK
6
CONTINUOUS
10
39.1839
20
-100.918
11
39.3208
21
-101.168
0
LINE
8
BLACK
6
CONTINUOUS
10
39.3208
20
-101.168
11
39.4206
21
-101.436
0
LINE
8
BLACK
6
CONTINUOUS
10
39.4206
20
-101.436
11
39.4813
21
-101.715
0
LINE
8
BLACK
6
CONTINUOUS
10
39.4813
20
-101.715
11
39.5016
21
-102
0
LINE
8
BLACK
6
CONTINUOUS
10
39.5016
20
-102
11
39.4813
21
-102.285
0
LINE
8
BLACK
6
CONTINUOUS
10
39.4813
20
-102.285
11
39.4206
21
-102.564
0
LINE
8
BLACK
6
CONTINUOUS
10
39.4206
20
-102.564
11
39.3208
21
-102.832
0
LINE
8
BLACK
6
CONTINUOUS
10
39.3208
20
-102.832
11
39.1839
21
-103.082
0
LINE
8
BLACK
6
CONTINUOUS
10
39.1839
20
-103.082
11
39.0127
21
-103.311
0
LINE
8
BLACK
6
CONTINUOUS
10
39.0127
20
-103.311
11
38.8108
21
-103.513
0
LINE
8
BLACK
6
CONTINUOUS
10
38.8108
20
-103.513
11
38.5822
21
-103.684
0
LINE
8
BLACK
6
CONTINUOUS
10
38.5822
20
-103.684
11
38.3315
21
-103.821
0
LINE
8
BLACK
6
CONTINUOUS
10
38.3315
20
-103.821
11
38.0639
21
-103.921
0
LINE
8
BLACK
6
CONTINUOUS
10
38.0639
20
-103.921
11
37.7849
21
-103.981
0
LINE
8
BLACK
6
CONTINUOUS
10
37.7849
20
-103.981
11
37.5
21
-104.002
0
LINE
8
BLACK
6
CONTINUOUS
10
37.5
20
-104.002
11
37.2151
21
-103.981
0
LINE
8
BLACK
6
CONTINUOUS
10
37.2151
20
-103.981
11
36.9361
21
-103.921
0
LINE
8
BLACK
6
CONTINUOUS
10
36.9361
20
-103.921
11
36.6685
21
-103.821
0
LINE
8
BLACK
6
CONTINUOUS
10
36.6685
20
-103.821
11
36.4178
21
-103.684
0
LINE
8
BLACK
6
CONTINUOUS
10
36.4178
20
-103.684
11
36.1892
21
-103.513
0
LINE
8
BLACK
6
CONTINUOUS
10
36.1892
20
-103.513
11
35.9873
21
-103.311
0
LINE
8
BLACK
6
CONTINUOUS
10
35.9873
20
-103.311
11
35.8161
21
-103.082
0
LINE
8
BLACK
6
CONTINUOUS
10
35.8161
20
-103.082
11
35.6792
21
-102.832
0
LINE
8
BLACK
6
CONTINUOUS
10
35.6792
20
-102.832
11
35.5794
21
-102.564
0
LINE
8
BLACK
6
CONTINUOUS
10
35.5794
20
-102.564
11
35.5187
21
-102.285
0
LINE
8
BLACK
6
CONTINUOUS
10
35.5187
20
-102.285
11
35.4984
21
-102
0
LINE
8
BLACK
6
CONTINUOUS
10
35.4984
20
-102
11
35.5187
21
-101.715
0
LINE
8
BLACK
6
CONTINUOUS
10
35.5187
20
-101.715
11
35.5794
21
-101.436
0
LINE
8
BLACK
6
CONTINUOUS
10
35.5794
20
-101.436
11
35.6792
21
-101.168
0
LINE
8
BLACK
6
CONTINUOUS
10
35.6792
20
-101.168
11
35.8161
21
-100.918
0
LINE
8
BLACK
6
CONTINUOUS
10
35.8161
20
-100.918
11
35.9873
21
-100.689
0
LINE
8
BLACK
6
CONTINUOUS
10
35.9873
20
-100.689
11
36.1892
21
-100.487
0
LINE
8
BLACK
6
CONTINUOUS
10
36.1892
20
-100.487
11
36.4178
21
-100.316
0
LINE
8
BLACK
6
CONTINUOUS
10
36.4178
20
-100.316
11
36.6685
21
-100.179
0
LINE
8
BLACK
6
CONTINUOUS
10
36.6685
20
-100.179
11
36.9361
21
-100.079
0
LINE
8
BLACK
6
CONTINUOUS
10
36.9361
20
-100.079
11
37.2151
21
-100.019
0
LINE
8
BLACK
6
CONTINUOUS
10
37.2151
20
-100.019
11
37.5
21
-99.9984
0
LINE
8
BLACK
6
CONTINUOUS
10
37.5
20
-99.9984
11
37.7849
21
-100.019
0
LINE
8
BLACK
6
CONTINUOUS
10
35.6327
20
-102.268
11
35.69
21
-102.531
0
LINE
8
BLACK
6
CONTINUOUS
10
35.69
20
-102.531
11
35.784
21
-102.784
0
LINE
8
BLACK
6
CONTINUOUS
10
35.784
20
-102.784
11
35.913
21
-103.02
0
LINE
8
BLACK
6
CONTINUOUS
10
35.913
20
-103.02
11
36.0743
21
-103.235
0
LINE
8
BLACK
6
CONTINUOUS
10
36.0743
20
-103.235
11
36.2646
21
-103.426
0
LINE
8
BLACK
6
CONTINUOUS
10
36.2646
20
-103.426
11
36.4801
21
-103.587
0
LINE
8
BLACK
6
CONTINUOUS
10
36.4801
20
-103.587
11
36.7163
21
-103.716
0
LINE
8
BLACK
6
CONTINUOUS
10
36.7163
20
-103.716
11
36.9685
21
-103.81
0
LINE
8
BLACK
6
CONTINUOUS
10
36.9685
20
-103.81
11
37.2315
21
-103.867
0
LINE
8
BLACK
6
CONTINUOUS
10
37.2315
20
-103.867
11
37.5
21
-103.886
0
LINE
8
BLACK
6
CONTINUOUS
10
37.5
20
-103.886
11
37.7685
21
-103.867
0
LINE
8
BLACK
6
CONTINUOUS
10
37.7685
20
-103.867
11
38.0315
21
-103.81
0
LINE
8
BLACK
6
CONTINUOUS
10
38.0315
20
-103.81
11
38.2837
21
-103.716
0
LINE
8
BLACK
6
CONTINUOUS
10
38.2837
20
-103.716
11
38.5199
21
-103.587
0
LINE
8
BLACK
6
CONTINUOUS
10
38.5199
20
-103.587
11
38.7354
21
-103.426
0
LINE
8
BLACK
6
CONTINUOUS
10
38.7354
20
-103.426
11
38.9257
21
-103.235
0
LINE
8
BLACK
6
CONTINUOUS
10
38.9257
20
-103.235
11
39.087
21
-103.02
0
LINE
8
BLACK
6
CONTINUOUS
10
39.087
20
-103.02
11
39.216
21
-102.784
0
LINE
8
BLACK
6
CONTINUOUS
10
39.216
20
-102.784
11
39.31
21
-102.531
0
LINE
8
BLACK
6
CONTINUOUS
10
39.31
20
-102.531
11
39.3673
21
-102.268
0
LINE
8
BLACK
6
CONTINUOUS
10
39.3673
20
-102.268
11
39.3865
21
-102
0
LINE
8
BLACK
6
CONTINUOUS
10
39.3865
20
-102
11
39.3673
21
-101.732
0
LINE
8
BLACK
6
CONTINUOUS
10
39.3673
20
-101.732
11
39.31
21
-101.469
0
LINE
8
BLACK
6
CONTINUOUS
10
39.31
20
-101.469
11
39.216
21
-101.216
0
LINE
8
BLACK
6
CONTINUOUS
10
39.216
20
-101.216
11
39.087
21
-100.98
0
LINE
8
BLACK
6
CONTINUOUS
10
39.087
20
-100.98
11
38.9257
21
-100.765
0
LINE
8
BLACK
6
CONTINUOUS
10
38.9257
20
-100.765
11
38.7354
21
-100.574
0
LINE
8
BLACK
6
CONTINUOUS
10
38.7354
20
-100.574
11
38.5199
21
-100.413
0
LINE
8
BLACK
6
CONTINUOUS
10
38.5199
20
-100.413
11
38.2837
21
-100.284
0
LINE
8
BLACK
6
CONTINUOUS
10
38.2837
20
-100.284
11
38.0315
21
-100.19
0
LINE
8
BLACK
6
CONTINUOUS
10
38.0315
20
-100.19
11
37.7685
21
-100.133
0
LINE
8
BLACK
6
CONTINUOUS
10
37.7685
20
-100.133
11
37.5
21
-100.114
0
LINE
8
BLACK
6
CONTINUOUS
10
37.5
20
-100.114
11
37.2315
21
-100.133
0
LINE
8
BLACK
6
CONTINUOUS
10
37.2315
20
-100.133
11
36.9685
21
-100.19
0
LINE
8
BLACK
6
CONTINUOUS
10
36.9685
20
-100.19
11
36.7163
21
-100.284
0
LINE
8
BLACK
6
CONTINUOUS
10
36.7163
20
-100.284
11
36.4801
21
-100.413
0
LINE
8
BLACK
6
CONTINUOUS
10
36.4801
20
-100.413
11
36.2646
21
-100.574
0
LINE
8
BLACK
6
CONTINUOUS
10
36.2646
20
-100.574
11
36.0743
21
-100.765
0
LINE
8
BLACK
6
CONTINUOUS
10
36.0743
20
-100.765
11
35.913
21
-100.98
0
LINE
8
BLACK
6
CONTINUOUS
10
35.913
20
-100.98
11
35.784
21
-101.216
0
LINE
8
BLACK
6
CONTINUOUS
10
35.784
20
-101.216
11
35.69
21
-101.469
0
LINE
8
BLACK
6
CONTINUOUS
10
35.69
20
-101.469
11
35.6327
21
-101.732
0
LINE
8
BLACK
6
CONTINUOUS
10
35.6327
20
-101.732
11
35.6135
21
-102
0
LINE
8
BLACK
6
CONTINUOUS
10
35.6135
20
-102
11
35.6327
21
-102.268
0
LINE
8
BLACK
6
CONTINUOUS
10
40.2
20
-99.24
11
40.2424
21
-99.2576
0
LINE
8
BLACK
6
CONTINUOUS
10
40.2424
20
-99.2576
11
40.26
21
-99.3
0
LINE
8
BLACK
6
CONTINUOUS
10
40.26
20
-99.3
11
40.26
21
-104.7
0
LINE
8
BLACK
6
CONTINUOUS
10
40.26
20
-104.7
11
40.2424
21
-104.742
0
LINE
8
BLACK
6
CONTINUOUS
10
40.2424
20
-104.742
11
40.2
21
-104.76
0
LINE
8
BLACK
6
CONTINUOUS
10
40.2
20
-104.76
11
34.8
21
-104.76
0
LINE
8
BLACK
6
CONTINUOUS
10
34.8
20
-104.76
11
34.7576
21
-104.742
0
LINE
8
BLACK
6
CONTINUOUS
10
34.7576
20
-104.742
11
34.74
21
-104.7
0
LINE
8
BLACK
6
CONTINUOUS
10
34.74
20
-104.7
11
34.74
21
-99.3
0
LINE
8
BLACK
6
CONTINUOUS
10
34.74
20
-99.3
11
34.7576
21
-99.2576
0
LINE
8
BLACK
6
CONTINUOUS
10
34.7576
20
-99.2576
11
34.8
21
-99.24
0
LINE
8
BLACK
6
CONTINUOUS
10
34.8
20
-99.24
11
40.2
21
-99.24
0
LINE
8
BLACK
6
CONTINUOUS
10
35.6249
20
-99.36
11
34.86
21
-100.125
0
LINE
8
BLACK
6
CONTINUOUS
10
34.86
20
-100.125
11
34.86
21
-104.64
0
LINE
8
BLACK
6
CONTINUOUS
10
34.86
20
-104.64
11
38.8566
21
-104.64
0
LINE
8
BLACK
6
CONTINUOUS
10
38.8566
20
-104.64
11
38.84
21
-104.6
0
LINE
8
BLACK
6
CONTINUOUS
10
38.84
20
-104.6
11
38.8576
21
-104.558
0
LINE
8
BLACK
6
CONTINUOUS
10
38.8576
20
-104.558
11
40.0576
21
-103.358
0
LINE
8
BLACK
6
CONTINUOUS
10
40.0576
20
-103.358
11
40.1
21
-103.34
0
LINE
8
BLACK
6
CONTINUOUS
10
40.1
20
-103.34
11
40.14
21
-103.357
0
LINE
8
BLACK
6
CONTINUOUS
10
40.14
20
-103.357
11
40.14
21
-99.36
0
LINE
8
BLACK
6
CONTINUOUS
10
40.14
20
-99.36
11
35.6249
21
-99.36
0
LINE
8
BLACK
6
CONTINUOUS
10
38.9449
20
-104.64
11
40.14
21
-104.64
0
LINE
8
BLACK
6
CONTINUOUS
10
40.14
20
-104.64
11
40.14
21
-103.445
0
LINE
8
BLACK
6
CONTINUOUS
10
40.14
20
-103.445
11
38.9449
21
-104.64
0
LINE
8
BLACK
6
CONTINUOUS
10
34.86
20
-99.36
11
34.86
21
-99.9551
0
LINE
8
BLACK
6
CONTINUOUS
10
34.86
20
-99.9551
11
35.4551
21
-99.36
0
LINE
8
BLACK
6
CONTINUOUS
10
35.4551
20
-99.36
11
34.86
21
-99.36
0
LINE
8
BLACK
6
CONTINUOUS
10
63.2
20
-100.94
11
63.3483
21
-100.955
0
LINE
8
BLACK
6
CONTINUOUS
10
63.3483
20
-100.955
11
63.4908
21
-100.998
0
LINE
8
BLACK
6
CONTINUOUS
10
63.4908
20
-100.998
11
63.6222
21
-101.068
0
LINE
8
BLACK
6
CONTINUOUS
10
63.6222
20
-101.068
11
63.7374
21
-101.163
0
LINE
8
BLACK
6
CONTINUOUS
10
63.7374
20
-101.163
11
63.8319
21
-101.278
0
LINE
8
BLACK
6
CONTINUOUS
10
63.8319
20
-101.278
11
63.9021
21
-101.409
0
LINE
8
BLACK
6
CONTINUOUS
10
63.9021
20
-101.409
11
63.9454
21
-101.552
0
LINE
8
BLACK
6
CONTINUOUS
10
63.9454
20
-101.552
11
63.96
21
-101.7
0
LINE
8
BLACK
6
CONTINUOUS
10
63.96
20
-101.7
11
63.96
21
-102.3
0
LINE
8
BLACK
6
CONTINUOUS
10
63.96
20
-102.3
11
63.9454
21
-102.448
0
LINE
8
BLACK
6
CONTINUOUS
10
63.9454
20
-102.448
11
63.9021
21
-102.591
0
LINE
8
BLACK
6
CONTINUOUS
10
63.9021
20
-102.591
11
63.8319
21
-102.722
0
LINE
8
BLACK
6
CONTINUOUS
10
63.8319
20
-102.722
11
63.7374
21
-102.837
0
LINE
8
BLACK
6
CONTINUOUS
10
63.7374
20
-102.837
11
63.6222
21
-102.932
0
LINE
8
BLACK
6
CONTINUOUS
10
63.6222
20
-102.932
11
63.4908
21
-103.002
0
LINE
8
BLACK
6
CONTINUOUS
10
63.4908
20
-103.002
11
63.3483
21
-103.045
0
LINE
8
BLACK
6
CONTINUOUS
10
63.3483
20
-103.045
11
63.2
21
-103.06
0
LINE
8
BLACK
6
CONTINUOUS
10
63.2
20
-103.06
11
61.8
21
-103.06
0
LINE
8
BLACK
6
CONTINUOUS
10
61.8
20
-103.06
11
61.6517
21
-103.045
0
LINE
8
BLACK
6
CONTINUOUS
10
61.6517
20
-103.045
11
61.5092
21
-103.002
0
LINE
8
BLACK
6
CONTINUOUS
10
61.5092
20
-103.002
11
61.3778
21
-102.932
0
LINE
8
BLACK
6
CONTINUOUS
10
61.3778
20
-102.932
11
61.2626
21
-102.837
0
LINE
8
BLACK
6
CONTINUOUS
10
61.2626
20
-102.837
11
61.1681
21
-102.722
0
LINE
8
BLACK
6
CONTINUOUS
10
61.1681
20
-102.722
11
61.0979
21
-102.591
0
LINE
8
BLACK
6
CONTINUOUS
10
61.0979
20
-102.591
11
61.0546
21
-102.448
0
LINE
8
BLACK
6
CONTINUOUS
10
61.0546
20
-102.448
11
61.04
21
-102.3
0
LINE
8
BLACK
6
CONTINUOUS
10
61.04
20
-102.3
11
61.04
21
-101.7
0
LINE
8
BLACK
6
CONTINUOUS
10
61.04
20
-101.7
11
61.0546
21
-101.552
0
LINE
8
BLACK
6
CONTINUOUS
10
61.0546
20
-101.552
11
61.0979
21
-101.409
0
LINE
8
BLACK
6
CONTINUOUS
10
61.0979
20
-101.409
11
61.1681
21
-101.278
0
LINE
8
BLACK
6
CONTINUOUS
10
61.1681
20
-101.278
11
61.2626
21
-101.163
0
LINE
8
BLACK
6
CONTINUOUS
10
61.2626
20
-101.163
11
61.3778
21
-101.068
0
LINE
8
BLACK
6
CONTINUOUS
10
61.3778
20
-101.068
11
61.5092
21
-100.998
0
LINE
8
BLACK
6
CONTINUOUS
10
61.5092
20
-100.998
11
61.6517
21
-100.955
0
LINE
8
BLACK
6
CONTINUOUS
10
61.6517
20
-100.955
11
61.8
21
-100.94
0
LINE
8
BLACK
6
CONTINUOUS
10
61.8
20
-100.94
11
63.2
21
-100.94
0
LINE
8
BLACK
6
CONTINUOUS
10
61.8
20
-101.06
11
61.7279
21
-101.06
0
LINE
8
BLACK
6
CONTINUOUS
10
61.7279
20
-101.06
11
61.5873
21
-101.092
0
LINE
8
BLACK
6
CONTINUOUS
10
61.5873
20
-101.092
11
61.4573
21
-101.155
0
LINE
8
BLACK
6
CONTINUOUS
10
61.4573
20
-101.155
11
61.3446
21
-101.245
0
LINE
8
BLACK
6
CONTINUOUS
10
61.3446
20
-101.245
11
61.2547
21
-101.357
0
LINE
8
BLACK
6
CONTINUOUS
10
61.2547
20
-101.357
11
61.1921
21
-101.487
0
LINE
8
BLACK
6
CONTINUOUS
10
61.1921
20
-101.487
11
61.16
21
-101.628
0
LINE
8
BLACK
6
CONTINUOUS
10
61.16
20
-101.628
11
61.16
21
-101.7
0
LINE
8
BLACK
6
CONTINUOUS
10
61.16
20
-101.7
11
61.16
21
-102.3
0
LINE
8
BLACK
6
CONTINUOUS
10
61.16
20
-102.3
11
61.16
21
-102.372
0
LINE
8
BLACK
6
CONTINUOUS
10
61.16
20
-102.372
11
61.1921
21
-102.513
0
LINE
8
BLACK
6
CONTINUOUS
10
61.1921
20
-102.513
11
61.2547
21
-102.643
0
LINE
8
BLACK
6
CONTINUOUS
10
61.2547
20
-102.643
11
61.3446
21
-102.755
0
LINE
8
BLACK
6
CONTINUOUS
10
61.3446
20
-102.755
11
61.4573
21
-102.845
0
LINE
8
BLACK
6
CONTINUOUS
10
61.4573
20
-102.845
11
61.5873
21
-102.908
0
LINE
8
BLACK
6
CONTINUOUS
10
61.5873
20
-102.908
11
61.7279
21
-102.94
0
LINE
8
BLACK
6
CONTINUOUS
10
61.7279
20
-102.94
11
61.8
21
-102.94
0
LINE
8
BLACK
6
CONTINUOUS
10
61.8
20
-102.94
11
63.2
21
-102.94
0
LINE
8
BLACK
6
CONTINUOUS
10
63.2
20
-102.94
11
63.2721
21
-102.94
0
LINE
8
BLACK
6
CONTINUOUS
10
63.2721
20
-102.94
11
63.4127
21
-102.908
0
LINE
8
BLACK
6
CONTINUOUS
10
63.4127
20
-102.908
11
63.5427
21
-102.845
0
LINE
8
BLACK
6
CONTINUOUS
10
63.5427
20
-102.845
11
63.6554
21
-102.755
0
LINE
8
BLACK
6
CONTINUOUS
10
63.6554
20
-102.755
11
63.7453
21
-102.643
0
LINE
8
BLACK
6
CONTINUOUS
10
63.7453
20
-102.643
11
63.8079
21
-102.513
0
LINE
8
BLACK
6
CONTINUOUS
10
63.8079
20
-102.513
11
63.84
21
-102.372
0
LINE
8
BLACK
6
CONTINUOUS
10
63.84
20
-102.372
11
63.84
21
-102.3
0
LINE
8
BLACK
6
CONTINUOUS
10
63.84
20
-102.3
11
63.84
21
-101.7
0
LINE
8
BLACK
6
CONTINUOUS
10
63.84
20
-101.7
11
63.84
21
-101.628
0
LINE
8
BLACK
6
CONTINUOUS
10
63.84
20
-101.628
11
63.8079
21
-101.487
0
LINE
8
BLACK
6
CONTINUOUS
10
63.8079
20
-101.487
11
63.7453
21
-101.357
0
LINE
8
BLACK
6
CONTINUOUS
10
63.7453
20
-101.357
11
63.6554
21
-101.245
0
LINE
8
BLACK
6
CONTINUOUS
10
63.6554
20
-101.245
11
63.5427
21
-101.155
0
LINE
8
BLACK
6
CONTINUOUS
10
63.5427
20
-101.155
11
63.4127
21
-101.092
0
LINE
8
BLACK
6
CONTINUOUS
10
63.4127
20
-101.092
11
63.2721
21
-101.06
0
LINE
8
BLACK
6
CONTINUOUS
10
63.2721
20
-101.06
11
63.2
21
-101.06
0
LINE
8
BLACK
6
CONTINUOUS
10
63.2
20
-101.06
11
61.8
21
-101.06
0
LINE
8
BLACK
6
CONTINUOUS
10
62.7849
20
-100.019
11
63.0639
21
-100.079
0
LINE
8
BLACK
6
CONTINUOUS
10
63.0639
20
-100.079
11
63.3315
21
-100.179
0
LINE
8
BLACK
6
CONTINUOUS
10
63.3315
20
-100.179
11
63.5822
21
-100.316
0
LINE
8
BLACK
6
CONTINUOUS
10
63.5822
20
-100.316
11
63.8108
21
-100.487
0
LINE
8
BLACK
6
CONTINUOUS
10
63.8108
20
-100.487
11
64.0127
21
-100.689
0
LINE
8
BLACK
6
CONTINUOUS
10
64.0127
20
-100.689
11
64.1839
21
-100.918
0
LINE
8
BLACK
6
CONTINUOUS
10
64.1839
20
-100.918
11
64.3208
21
-101.168
0
LINE
8
BLACK
6
CONTINUOUS
10
64.3208
20
-101.168
11
64.4206
21
-101.436
0
LINE
8
BLACK
6
CONTINUOUS
10
64.4206
20
-101.436
11
64.4813
21
-101.715
0
LINE
8
BLACK
6
CONTINUOUS
10
64.4813
20
-101.715
11
64.5016
21
-102
0
LINE
8
BLACK
6
CONTINUOUS
10
64.5016
20
-102
11
64.4813
21
-102.285
0
LINE
8
BLACK
6
CONTINUOUS
10
64.4813
20
-102.285
11
64.4206
21
-102.564
0
LINE
8
BLACK
6
CONTINUOUS
10
64.4206
20
-102.564
11
64.3208
21
-102.832
0
LINE
8
BLACK
6
CONTINUOUS
10
64.3208
20
-102.832
11
64.1839
21
-103.082
0
LINE
8
BLACK
6
CONTINUOUS
10
64.1839
20
-103.082
11
64.0127
21
-103.311
0
LINE
8
BLACK
6
CONTINUOUS
10
64.0127
20
-103.311
11
63.8108
21
-103.513
0
LINE
8
BLACK
6
CONTINUOUS
10
63.8108
20
-103.513
11
63.5822
21
-103.684
0
LINE
8
BLACK
6
CONTINUOUS
10
63.5822
20
-103.684
11
63.3315
21
-103.821
0
LINE
8
BLACK
6
CONTINUOUS
10
63.3315
20
-103.821
11
63.0639
21
-103.921
0
LINE
8
BLACK
6
CONTINUOUS
10
63.0639
20
-103.921
11
62.7849
21
-103.981
0
LINE
8
BLACK
6
CONTINUOUS
10
62.7849
20
-103.981
11
62.5
21
-104.002
0
LINE
8
BLACK
6
CONTINUOUS
10
62.5
20
-104.002
11
62.2151
21
-103.981
0
LINE
8
BLACK
6
CONTINUOUS
10
62.2151
20
-103.981
11
61.9361
21
-103.921
0
LINE
8
BLACK
6
CONTINUOUS
10
61.9361
20
-103.921
11
61.6685
21
-103.821
0
LINE
8
BLACK
6
CONTINUOUS
10
61.6685
20
-103.821
11
61.4178
21
-103.684
0
LINE
8
BLACK
6
CONTINUOUS
10
61.4178
20
-103.684
11
61.1892
21
-103.513
0
LINE
8
BLACK
6
CONTINUOUS
10
61.1892
20
-103.513
11
60.9873
21
-103.311
0
LINE
8
BLACK
6
CONTINUOUS
10
60.9873
20
-103.311
11
60.8161
21
-103.082
0
LINE
8
BLACK
6
CONTINUOUS
10
60.8161
20
-103.082
11
60.6792
21
-102.832
0
LINE
8
BLACK
6
CONTINUOUS
10
60.6792
20
-102.832
11
60.5794
21
-102.564
0
LINE
8
BLACK
6
CONTINUOUS
10
60.5794
20
-102.564
11
60.5187
21
-102.285
0
LINE
8
BLACK
6
CONTINUOUS
10
60.5187
20
-102.285
11
60.4984
21
-102
0
LINE
8
BLACK
6
CONTINUOUS
10
60.4984
20
-102
11
60.5187
21
-101.715
0
LINE
8
BLACK
6
CONTINUOUS
10
60.5187
20
-101.715
11
60.5794
21
-101.436
0
LINE
8
BLACK
6
CONTINUOUS
10
60.5794
20
-101.436
11
60.6792
21
-101.168
0
LINE
8
BLACK
6
CONTINUOUS
10
60.6792
20
-101.168
11
60.8161
21
-100.918
0
LINE
8
BLACK
6
CONTINUOUS
10
60.8161
20
-100.918
11
60.9873
21
-100.689
0
LINE
8
BLACK
6
CONTINUOUS
10
60.9873
20
-100.689
11
61.1892
21
-100.487
0
LINE
8
BLACK
6
CONTINUOUS
10
61.1892
20
-100.487
11
61.4178
21
-100.316
0
LINE
8
BLACK
6
CONTINUOUS
10
61.4178
20
-100.316
11
61.6685
21
-100.179
0
LINE
8
BLACK
6
CONTINUOUS
10
61.6685
20
-100.179
11
61.9361
21
-100.079
0
LINE
8
BLACK
6
CONTINUOUS
10
61.9361
20
-100.079
11
62.2151
21
-100.019
0
LINE
8
BLACK
6
CONTINUOUS
10
62.2151
20
-100.019
11
62.5
21
-99.9984
0
LINE
8
BLACK
6
CONTINUOUS
10
62.5
20
-99.9984
11
62.7849
21
-100.019
0
LINE
8
BLACK
6
CONTINUOUS
10
60.6327
20
-102.268
11
60.69
21
-102.531
0
LINE
8
BLACK
6
CONTINUOUS
10
60.69
20
-102.531
11
60.784
21
-102.784
0
LINE
8
BLACK
6
CONTINUOUS
10
60.784
20
-102.784
11
60.913
21
-103.02
0
LINE
8
BLACK
6
CONTINUOUS
10
60.913
20
-103.02
11
61.0743
21
-103.235
0
LINE
8
BLACK
6
CONTINUOUS
10
61.0743
20
-103.235
11
61.2646
21
-103.426
0
LINE
8
BLACK
6
CONTINUOUS
10
61.2646
20
-103.426
11
61.4801
21
-103.587
0
LINE
8
BLACK
6
CONTINUOUS
10
61.4801
20
-103.587
11
61.7163
21
-103.716
0
LINE
8
BLACK
6
CONTINUOUS
10
61.7163
20
-103.716
11
61.9685
21
-103.81
0
LINE
8
BLACK
6
CONTINUOUS
10
61.9685
20
-103.81
11
62.2315
21
-103.867
0
LINE
8
BLACK
6
CONTINUOUS
10
62.2315
20
-103.867
11
62.5
21
-103.886
0
LINE
8
BLACK
6
CONTINUOUS
10
62.5
20
-103.886
11
62.7685
21
-103.867
0
LINE
8
BLACK
6
CONTINUOUS
10
62.7685
20
-103.867
11
63.0315
21
-103.81
0
LINE
8
BLACK
6
CONTINUOUS
10
63.0315
20
-103.81
11
63.2837
21
-103.716
0
LINE
8
BLACK
6
CONTINUOUS
10
63.2837
20
-103.716
11
63.5199
21
-103.587
0
LINE
8
BLACK
6
CONTINUOUS
10
63.5199
20
-103.587
11
63.7354
21
-103.426
0
LINE
8
BLACK
6
CONTINUOUS
10
63.7354
20
-103.426
11
63.9257
21
-103.235
0
LINE
8
BLACK
6
CONTINUOUS
10
63.9257
20
-103.235
11
64.087
21
-103.02
0
LINE
8
BLACK
6
CONTINUOUS
10
64.087
20
-103.02
11
64.216
21
-102.784
0
LINE
8
BLACK
6
CONTINUOUS
10
64.216
20
-102.784
11
64.31
21
-102.531
0
LINE
8
BLACK
6
CONTINUOUS
10
64.31
20
-102.531
11
64.3673
21
-102.268
0
LINE
8
BLACK
6
CONTINUOUS
10
64.3673
20
-102.268
11
64.3865
21
-102
0
LINE
8
BLACK
6
CONTINUOUS
10
64.3865
20
-102
11
64.3673
21
-101.732
0
LINE
8
BLACK
6
CONTINUOUS
10
64.3673
20
-101.732
11
64.31
21
-101.469
0
LINE
8
BLACK
6
CONTINUOUS
10
64.31
20
-101.469
11
64.216
21
-101.216
0
LINE
8
BLACK
6
CONTINUOUS
10
64.216
20
-101.216
11
64.087
21
-100.98
0
LINE
8
BLACK
6
CONTINUOUS
10
64.087
20
-100.98
11
63.9257
21
-100.765
0
LINE
8
BLACK
6
CONTINUOUS
10
63.9257
20
-100.765
11
63.7354
21
-100.574
0
LINE
8
BLACK
6
CONTINUOUS
10
63.7354
20
-100.574
11
63.5199
21
-100.413
0
LINE
8
BLACK
6
CONTINUOUS
10
63.5199
20
-100.413
11
63.2837
21
-100.284
0
LINE
8
BLACK
6
CONTINUOUS
10
63.2837
20
-100.284
11
63.0315
21
-100.19
0
LINE
8
BLACK
6
CONTINUOUS
10
63.0315
20
-100.19
11
62.7685
21
-100.133
0
LINE
8
BLACK
6
CONTINUOUS
10
62.7685
20
-100.133
11
62.5
21
-100.114
0
LINE
8
BLACK
6
CONTINUOUS
10
62.5
20
-100.114
11
62.2315
21
-100.133
0
LINE
8
BLACK
6
CONTINUOUS
10
62.2315
20
-100.133
11
61.9685
21
-100.19
0
LINE
8
BLACK
6
CONTINUOUS
10
61.9685
20
-100.19
11
61.7163
21
-100.284
0
LINE
8
BLACK
6
CONTINUOUS
10
61.7163
20
-100.284
11
61.4801
21
-100.413
0
LINE
8
BLACK
6
CONTINUOUS
10
61.4801
20
-100.413
11
61.2646
21
-100.574
0
LINE
8
BLACK
6
CONTINUOUS
10
61.2646
20
-100.574
11
61.0743
21
-100.765
0
LINE
8
BLACK
6
CONTINUOUS
10
61.0743
20
-100.765
11
60.913
21
-100.98
0
LINE
8
BLACK
6
CONTINUOUS
10
60.913
20
-100.98
11
60.784
21
-101.216
0
LINE
8
BLACK
6
CONTINUOUS
10
60.784
20
-101.216
11
60.69
21
-101.469
0
LINE
8
BLACK
6
CONTINUOUS
10
60.69
20
-101.469
11
60.6327
21
-101.732
0
LINE
8
BLACK
6
CONTINUOUS
10
60.6327
20
-101.732
11
60.6135
21
-102
0
LINE
8
BLACK
6
CONTINUOUS
10
60.6135
20
-102
11
60.6327
21
-102.268
0
LINE
8
BLACK
6
CONTINUOUS
10
65.2
20
-99.24
11
65.2424
21
-99.2576
0
LINE
8
BLACK
6
CONTINUOUS
10
65.2424
20
-99.2576
11
65.26
21
-99.3
0
LINE
8
BLACK
6
CONTINUOUS
10
65.26
20
-99.3
11
65.26
21
-104.7
0
LINE
8
BLACK
6
CONTINUOUS
10
65.26
20
-104.7
11
65.2424
21
-104.742
0
LINE
8
BLACK
6
CONTINUOUS
10
65.2424
20
-104.742
11
65.2
21
-104.76
0
LINE
8
BLACK
6
CONTINUOUS
10
65.2
20
-104.76
11
59.8
21
-104.76
0
LINE
8
BLACK
6
CONTINUOUS
10
59.8
20
-104.76
11
59.7576
21
-104.742
0
LINE
8
BLACK
6
CONTINUOUS
10
59.7576
20
-104.742
11
59.74
21
-104.7
0
LINE
8
BLACK
6
CONTINUOUS
10
59.74
20
-104.7
11
59.74
21
-99.3
0
LINE
8
BLACK
6
CONTINUOUS
10
59.74
20
-99.3
11
59.7576
21
-99.2576
0
LINE
8
BLACK
6
CONTINUOUS
10
59.7576
20
-99.2576
11
59.8
21
-99.24
0
LINE
8
BLACK
6
CONTINUOUS
10
59.8
20
-99.24
11
65.2
21
-99.24
0
LINE
8
BLACK
6
CONTINUOUS
10
61.1434
20
-99.36
11
61.16
21
-99.4
0
LINE
8
BLACK
6
CONTINUOUS
10
61.16
20
-99.4
11
61.1424
21
-99.4424
0
LINE
8
BLACK
6
CONTINUOUS
10
61.1424
20
-99.4424
11
59.9424
21
-100.642
0
LINE
8
BLACK
6
CONTINUOUS
10
59.9424
20
-100.642
11
59.9
21
-100.66
0
LINE
8
BLACK
6
CONTINUOUS
10
59.9
20
-100.66
11
59.86
21
-100.643
0
LINE
8
BLACK
6
CONTINUOUS
10
59.86
20
-100.643
11
59.86
21
-104.64
0
LINE
8
BLACK
6
CONTINUOUS
10
59.86
20
-104.64
11
64.3751
21
-104.64
0
LINE
8
BLACK
6
CONTINUOUS
10
64.3751
20
-104.64
11
65.14
21
-103.875
0
LINE
8
BLACK
6
CONTINUOUS
10
65.14
20
-103.875
11
65.14
21
-99.36
0
LINE
8
BLACK
6
CONTINUOUS
10
65.14
20
-99.36
11
61.1434
21
-99.36
0
LINE
8
BLACK
6
CONTINUOUS
10
64.5449
20
-104.64
11
65.14
21
-104.64
0
LINE
8
BLACK
6
CONTINUOUS
10
65.14
20
-104.64
11
65.14
21
-104.045
0
LINE
8
BLACK
6
CONTINUOUS
10
65.14
20
-104.045
11
64.5449
21
-104.64
0
LINE
8
BLACK
6
CONTINUOUS
10
59.86
20
-99.36
11
59.86
21
-100.555
0
LINE
8
BLACK
6
CONTINUOUS
10
59.86
20
-100.555
11
61.0551
21
-99.36
0
LINE
8
BLACK
6
CONTINUOUS
10
61.0551
20
-99.36
11
59.86
21
-99.36
0
LINE
8
BLACK
6
CONTINUOUS
10
75.7
20
-100.94
11
75.8483
21
-100.955
0
LINE
8
BLACK
6
CONTINUOUS
10
75.8483
20
-100.955
11
75.9908
21
-100.998
0
LINE
8
BLACK
6
CONTINUOUS
10
75.9908
20
-100.998
11
76.1222
21
-101.068
0
LINE
8
BLACK
6
CONTINUOUS
10
76.1222
20
-101.068
11
76.2374
21
-101.163
0
LINE
8
BLACK
6
CONTINUOUS
10
76.2374
20
-101.163
11
76.3319
21
-101.278
0
LINE
8
BLACK
6
CONTINUOUS
10
76.3319
20
-101.278
11
76.4021
21
-101.409
0
LINE
8
BLACK
6
CONTINUOUS
10
76.4021
20
-101.409
11
76.4454
21
-101.552
0
LINE
8
BLACK
6
CONTINUOUS
10
76.4454
20
-101.552
11
76.46
21
-101.7
0
LINE
8
BLACK
6
CONTINUOUS
10
76.46
20
-101.7
11
76.46
21
-102.3
0
LINE
8
BLACK
6
CONTINUOUS
10
76.46
20
-102.3
11
76.4454
21
-102.448
0
LINE
8
BLACK
6
CONTINUOUS
10
76.4454
20
-102.448
11
76.4021
21
-102.591
0
LINE
8
BLACK
6
CONTINUOUS
10
76.4021
20
-102.591
11
76.3319
21
-102.722
0
LINE
8
BLACK
6
CONTINUOUS
10
76.3319
20
-102.722
11
76.2374
21
-102.837
0
LINE
8
BLACK
6
CONTINUOUS
10
76.2374
20
-102.837
11
76.1222
21
-102.932
0
LINE
8
BLACK
6
CONTINUOUS
10
76.1222
20
-102.932
11
75.9908
21
-103.002
0
LINE
8
BLACK
6
CONTINUOUS
10
75.9908
20
-103.002
11
75.8483
21
-103.045
0
LINE
8
BLACK
6
CONTINUOUS
10
75.8483
20
-103.045
11
75.7
21
-103.06
0
LINE
8
BLACK
6
CONTINUOUS
10
75.7
20
-103.06
11
74.3
21
-103.06
0
LINE
8
BLACK
6
CONTINUOUS
10
74.3
20
-103.06
11
74.1517
21
-103.045
0
LINE
8
BLACK
6
CONTINUOUS
10
74.1517
20
-103.045
11
74.0092
21
-103.002
0
LINE
8
BLACK
6
CONTINUOUS
10
74.0092
20
-103.002
11
73.8778
21
-102.932
0
LINE
8
BLACK
6
CONTINUOUS
10
73.8778
20
-102.932
11
73.7626
21
-102.837
0
LINE
8
BLACK
6
CONTINUOUS
10
73.7626
20
-102.837
11
73.6681
21
-102.722
0
LINE
8
BLACK
6
CONTINUOUS
10
73.6681
20
-102.722
11
73.5979
21
-102.591
0
LINE
8
BLACK
6
CONTINUOUS
10
73.5979
20
-102.591
11
73.5546
21
-102.448
0
LINE
8
BLACK
6
CONTINUOUS
10
73.5546
20
-102.448
11
73.54
21
-102.3
0
LINE
8
BLACK
6
CONTINUOUS
10
73.54
20
-102.3
11
73.54
21
-101.7
0
LINE
8
BLACK
6
CONTINUOUS
10
73.54
20
-101.7
11
73.5546
21
-101.552
0
LINE
8
BLACK
6
CONTINUOUS
10
73.5546
20
-101.552
11
73.5979
21
-101.409
0
LINE
8
BLACK
6
CONTINUOUS
10
73.5979
20
-101.409
11
73.6681
21
-101.278
0
LINE
8
BLACK
6
CONTINUOUS
10
73.6681
20
-101.278
11
73.7626
21
-101.163
0
LINE
8
BLACK
6
CONTINUOUS
10
73.7626
20
-101.163
11
73.8778
21
-101.068
0
LINE
8
BLACK
6
CONTINUOUS
10
73.8778
20
-101.068
11
74.0092
21
-100.998
0
LINE
8
BLACK
6
CONTINUOUS
10
74.0092
20
-100.998
11
74.1517
21
-100.955
0
LINE
8
BLACK
6
CONTINUOUS
10
74.1517
20
-100.955
11
74.3
21
-100.94
0
LINE
8
BLACK
6
CONTINUOUS
10
74.3
20
-100.94
11
75.7
21
-100.94
0
LINE
8
BLACK
6
CONTINUOUS
10
74.3
20
-101.06
11
74.2279
21
-101.06
0
LINE
8
BLACK
6
CONTINUOUS
10
74.2279
20
-101.06
11
74.0873
21
-101.092
0
LINE
8
BLACK
6
CONTINUOUS
10
74.0873
20
-101.092
11
73.9573
21
-101.155
0
LINE
8
BLACK
6
CONTINUOUS
10
73.9573
20
-101.155
11
73.8446
21
-101.245
0
LINE
8
BLACK
6
CONTINUOUS
10
73.8446
20
-101.245
11
73.7547
21
-101.357
0
LINE
8
BLACK
6
CONTINUOUS
10
73.7547
20
-101.357
11
73.6921
21
-101.487
0
LINE
8
BLACK
6
CONTINUOUS
10
73.6921
20
-101.487
11
73.66
21
-101.628
0
LINE
8
BLACK
6
CONTINUOUS
10
73.66
20
-101.628
11
73.66
21
-101.7
0
LINE
8
BLACK
6
CONTINUOUS
10
73.66
20
-101.7
11
73.66
21
-102.3
0
LINE
8
BLACK
6
CONTINUOUS
10
73.66
20
-102.3
11
73.66
21
-102.372
0
LINE
8
BLACK
6
CONTINUOUS
10
73.66
20
-102.372
11
73.6921
21
-102.513
0
LINE
8
BLACK
6
CONTINUOUS
10
73.6921
20
-102.513
11
73.7547
21
-102.643
0
LINE
8
BLACK
6
CONTINUOUS
10
73.7547
20
-102.643
11
73.8446
21
-102.755
0
LINE
8
BLACK
6
CONTINUOUS
10
73.8446
20
-102.755
11
73.9573
21
-102.845
0
LINE
8
BLACK
6
CONTINUOUS
10
73.9573
20
-102.845
11
74.0873
21
-102.908
0
LINE
8
BLACK
6
CONTINUOUS
10
74.0873
20
-102.908
11
74.2279
21
-102.94
0
LINE
8
BLACK
6
CONTINUOUS
10
74.2279
20
-102.94
11
74.3
21
-102.94
0
LINE
8
BLACK
6
CONTINUOUS
10
74.3
20
-102.94
11
75.7
21
-102.94
0
LINE
8
BLACK
6
CONTINUOUS
10
75.7
20
-102.94
11
75.7721
21
-102.94
0
LINE
8
BLACK
6
CONTINUOUS
10
75.7721
20
-102.94
11
75.9127
21
-102.908
0
LINE
8
BLACK
6
CONTINUOUS
10
75.9127
20
-102.908
11
76.0427
21
-102.845
0
LINE
8
BLACK
6
CONTINUOUS
10
76.0427
20
-102.845
11
76.1554
21
-102.755
0
LINE
8
BLACK
6
CONTINUOUS
10
76.1554
20
-102.755
11
76.2453
21
-102.643
0
LINE
8
BLACK
6
CONTINUOUS
10
76.2453
20
-102.643
11
76.3079
21
-102.513
0
LINE
8
BLACK
6
CONTINUOUS
10
76.3079
20
-102.513
11
76.34
21
-102.372
0
LINE
8
BLACK
6
CONTINUOUS
10
76.34
20
-102.372
11
76.34
21
-102.3
0
LINE
8
BLACK
6
CONTINUOUS
10
76.34
20
-102.3
11
76.34
21
-101.7
0
LINE
8
BLACK
6
CONTINUOUS
10
76.34
20
-101.7
11
76.34
21
-101.628
0
LINE
8
BLACK
6
CONTINUOUS
10
76.34
20
-101.628
11
76.3079
21
-101.487
0
LINE
8
BLACK
6
CONTINUOUS
10
76.3079
20
-101.487
11
76.2453
21
-101.357
0
LINE
8
BLACK
6
CONTINUOUS
10
76.2453
20
-101.357
11
76.1554
21
-101.245
0
LINE
8
BLACK
6
CONTINUOUS
10
76.1554
20
-101.245
11
76.0427
21
-101.155
0
LINE
8
BLACK
6
CONTINUOUS
10
76.0427
20
-101.155
11
75.9127
21
-101.092
0
LINE
8
BLACK
6
CONTINUOUS
10
75.9127
20
-101.092
11
75.7721
21
-101.06
0
LINE
8
BLACK
6
CONTINUOUS
10
75.7721
20
-101.06
11
75.7
21
-101.06
0
LINE
8
BLACK
6
CONTINUOUS
10
75.7
20
-101.06
11
74.3
21
-101.06
0
LINE
8
BLACK
6
CONTINUOUS
10
75.2849
20
-100.019
11
75.5639
21
-100.079
0
LINE
8
BLACK
6
CONTINUOUS
10
75.5639
20
-100.079
11
75.8315
21
-100.179
0
LINE
8
BLACK
6
CONTINUOUS
10
75.8315
20
-100.179
11
76.0822
21
-100.316
0
LINE
8
BLACK
6
CONTINUOUS
10
76.0822
20
-100.316
11
76.3108
21
-100.487
0
LINE
8
BLACK
6
CONTINUOUS
10
76.3108
20
-100.487
11
76.5127
21
-100.689
0
LINE
8
BLACK
6
CONTINUOUS
10
76.5127
20
-100.689
11
76.6839
21
-100.918
0
LINE
8
BLACK
6
CONTINUOUS
10
76.6839
20
-100.918
11
76.8208
21
-101.168
0
LINE
8
BLACK
6
CONTINUOUS
10
76.8208
20
-101.168
11
76.9206
21
-101.436
0
LINE
8
BLACK
6
CONTINUOUS
10
76.9206
20
-101.436
11
76.9813
21
-101.715
0
LINE
8
BLACK
6
CONTINUOUS
10
76.9813
20
-101.715
11
77.0016
21
-102
0
LINE
8
BLACK
6
CONTINUOUS
10
77.0016
20
-102
11
76.9813
21
-102.285
0
LINE
8
BLACK
6
CONTINUOUS
10
76.9813
20
-102.285
11
76.9206
21
-102.564
0
LINE
8
BLACK
6
CONTINUOUS
10
76.9206
20
-102.564
11
76.8208
21
-102.832
0
LINE
8
BLACK
6
CONTINUOUS
10
76.8208
20
-102.832
11
76.6839
21
-103.082
0
LINE
8
BLACK
6
CONTINUOUS
10
76.6839
20
-103.082
11
76.5127
21
-103.311
0
LINE
8
BLACK
6
CONTINUOUS
10
76.5127
20
-103.311
11
76.3108
21
-103.513
0
LINE
8
BLACK
6
CONTINUOUS
10
76.3108
20
-103.513
11
76.0822
21
-103.684
0
LINE
8
BLACK
6
CONTINUOUS
10
76.0822
20
-103.684
11
75.8315
21
-103.821
0
LINE
8
BLACK
6
CONTINUOUS
10
75.8315
20
-103.821
11
75.5639
21
-103.921
0
LINE
8
BLACK
6
CONTINUOUS
10
75.5639
20
-103.921
11
75.2849
21
-103.981
0
LINE
8
BLACK
6
CONTINUOUS
10
75.2849
20
-103.981
11
75
21
-104.002
0
LINE
8
BLACK
6
CONTINUOUS
10
75
20
-104.002
11
74.7151
21
-103.981
0
LINE
8
BLACK
6
CONTINUOUS
10
74.7151
20
-103.981
11
74.4361
21
-103.921
0
LINE
8
BLACK
6
CONTINUOUS
10
74.4361
20
-103.921
11
74.1685
21
-103.821
0
LINE
8
BLACK
6
CONTINUOUS
10
74.1685
20
-103.821
11
73.9178
21
-103.684
0
LINE
8
BLACK
6
CONTINUOUS
10
73.9178
20
-103.684
11
73.6892
21
-103.513
0
LINE
8
BLACK
6
CONTINUOUS
10
73.6892
20
-103.513
11
73.4873
21
-103.311
0
LINE
8
BLACK
6
CONTINUOUS
10
73.4873
20
-103.311
11
73.3161
21
-103.082
0
LINE
8
BLACK
6
CONTINUOUS
10
73.3161
20
-103.082
11
73.1792
21
-102.832
0
LINE
8
BLACK
6
CONTINUOUS
10
73.1792
20
-102.832
11
73.0794
21
-102.564
0
LINE
8
BLACK
6
CONTINUOUS
10
73.0794
20
-102.564
11
73.0187
21
-102.285
0
LINE
8
BLACK
6
CONTINUOUS
10
73.0187
20
-102.285
11
72.9984
21
-102
0
LINE
8
BLACK
6
CONTINUOUS
10
72.9984
20
-102
11
73.0187
21
-101.715
0
LINE
8
BLACK
6
CONTINUOUS
10
73.0187
20
-101.715
11
73.0794
21
-101.436
0
LINE
8
BLACK
6
CONTINUOUS
10
73.0794
20
-101.436
11
73.1792
21
-101.168
0
LINE
8
BLACK
6
CONTINUOUS
10
73.1792
20
-101.168
11
73.3161
21
-100.918
0
LINE
8
BLACK
6
CONTINUOUS
10
73.3161
20
-100.918
11
73.4873
21
-100.689
0
LINE
8
BLACK
6
CONTINUOUS
10
73.4873
20
-100.689
11
73.6892
21
-100.487
0
LINE
8
BLACK
6
CONTINUOUS
10
73.6892
20
-100.487
11
73.9178
21
-100.316
0
LINE
8
BLACK
6
CONTINUOUS
10
73.9178
20
-100.316
11
74.1685
21
-100.179
0
LINE
8
BLACK
6
CONTINUOUS
10
74.1685
20
-100.179
11
74.4361
21
-100.079
0
LINE
8
BLACK
6
CONTINUOUS
10
74.4361
20
-100.079
11
74.7151
21
-100.019
0
LINE
8
BLACK
6
CONTINUOUS
10
74.7151
20
-100.019
11
75
21
-99.9984
0
LINE
8
BLACK
6
CONTINUOUS
10
75
20
-99.9984
11
75.2849
21
-100.019
0
LINE
8
BLACK
6
CONTINUOUS
10
73.1327
20
-102.268
11
73.19
21
-102.531
0
LINE
8
BLACK
6
CONTINUOUS
10
73.19
20
-102.531
11
73.284
21
-102.784
0
LINE
8
BLACK
6
CONTINUOUS
10
73.284
20
-102.784
11
73.413
21
-103.02
0
LINE
8
BLACK
6
CONTINUOUS
10
73.413
20
-103.02
11
73.5743
21
-103.235
0
LINE
8
BLACK
6
CONTINUOUS
10
73.5743
20
-103.235
11
73.7646
21
-103.426
0
LINE
8
BLACK
6
CONTINUOUS
10
73.7646
20
-103.426
11
73.9801
21
-103.587
0
LINE
8
BLACK
6
CONTINUOUS
10
73.9801
20
-103.587
11
74.2163
21
-103.716
0
LINE
8
BLACK
6
CONTINUOUS
10
74.2163
20
-103.716
11
74.4685
21
-103.81
0
LINE
8
BLACK
6
CONTINUOUS
10
74.4685
20
-103.81
11
74.7315
21
-103.867
0
LINE
8
BLACK
6
CONTINUOUS
10
74.7315
20
-103.867
11
75
21
-103.886
0
LINE
8
BLACK
6
CONTINUOUS
10
75
20
-103.886
11
75.2685
21
-103.867
0
LINE
8
BLACK
6
CONTINUOUS
10
75.2685
20
-103.867
11
75.5315
21
-103.81
0
LINE
8
BLACK
6
CONTINUOUS
10
75.5315
20
-103.81
11
75.7837
21
-103.716
0
LINE
8
BLACK
6
CONTINUOUS
10
75.7837
20
-103.716
11
76.0199
21
-103.587
0
LINE
8
BLACK
6
CONTINUOUS
10
76.0199
20
-103.587
11
76.2354
21
-103.426
0
LINE
8
BLACK
6
CONTINUOUS
10
76.2354
20
-103.426
11
76.4257
21
-103.235
0
LINE
8
BLACK
6
CONTINUOUS
10
76.4257
20
-103.235
11
76.587
21
-103.02
0
LINE
8
BLACK
6
CONTINUOUS
10
76.587
20
-103.02
11
76.716
21
-102.784
0
LINE
8
BLACK
6
CONTINUOUS
10
76.716
20
-102.784
11
76.81
21
-102.531
0
LINE
8
BLACK
6
CONTINUOUS
10
76.81
20
-102.531
11
76.8673
21
-102.268
0
LINE
8
BLACK
6
CONTINUOUS
10
76.8673
20
-102.268
11
76.8865
21
-102
0
LINE
8
BLACK
6
CONTINUOUS
10
76.8865
20
-102
11
76.8673
21
-101.732
0
LINE
8
BLACK
6
CONTINUOUS
10
76.8673
20
-101.732
11
76.81
21
-101.469
0
LINE
8
BLACK
6
CONTINUOUS
10
76.81
20
-101.469
11
76.716
21
-101.216
0
LINE
8
BLACK
6
CONTINUOUS
10
76.716
20
-101.216
11
76.587
21
-100.98
0
LINE
8
BLACK
6
CONTINUOUS
10
76.587
20
-100.98
11
76.4257
21
-100.765
0
LINE
8
BLACK
6
CONTINUOUS
10
76.4257
20
-100.765
11
76.2354
21
-100.574
0
LINE
8
BLACK
6
CONTINUOUS
10
76.2354
20
-100.574
11
76.0199
21
-100.413
0
LINE
8
BLACK
6
CONTINUOUS
10
76.0199
20
-100.413
11
75.7837
21
-100.284
0
LINE
8
BLACK
6
CONTINUOUS
10
75.7837
20
-100.284
11
75.5315
21
-100.19
0
LINE
8
BLACK
6
CONTINUOUS
10
75.5315
20
-100.19
11
75.2685
21
-100.133
0
LINE
8
BLACK
6
CONTINUOUS
10
75.2685
20
-100.133
11
75
21
-100.114
0
LINE
8
BLACK
6
CONTINUOUS
10
75
20
-100.114
11
74.7315
21
-100.133
0
LINE
8
BLACK
6
CONTINUOUS
10
74.7315
20
-100.133
11
74.4685
21
-100.19
0
LINE
8
BLACK
6
CONTINUOUS
10
74.4685
20
-100.19
11
74.2163
21
-100.284
0
LINE
8
BLACK
6
CONTINUOUS
10
74.2163
20
-100.284
11
73.9801
21
-100.413
0
LINE
8
BLACK
6
CONTINUOUS
10
73.9801
20
-100.413
11
73.7646
21
-100.574
0
LINE
8
BLACK
6
CONTINUOUS
10
73.7646
20
-100.574
11
73.5743
21
-100.765
0
LINE
8
BLACK
6
CONTINUOUS
10
73.5743
20
-100.765
11
73.413
21
-100.98
0
LINE
8
BLACK
6
CONTINUOUS
10
73.413
20
-100.98
11
73.284
21
-101.216
0
LINE
8
BLACK
6
CONTINUOUS
10
73.284
20
-101.216
11
73.19
21
-101.469
0
LINE
8
BLACK
6
CONTINUOUS
10
73.19
20
-101.469
11
73.1327
21
-101.732
0
LINE
8
BLACK
6
CONTINUOUS
10
73.1327
20
-101.732
11
73.1135
21
-102
0
LINE
8
BLACK
6
CONTINUOUS
10
73.1135
20
-102
11
73.1327
21
-102.268
0
LINE
8
BLACK
6
CONTINUOUS
10
77.7
20
-99.24
11
77.7424
21
-99.2576
0
LINE
8
BLACK
6
CONTINUOUS
10
77.7424
20
-99.2576
11
77.76
21
-99.3
0
LINE
8
BLACK
6
CONTINUOUS
10
77.76
20
-99.3
11
77.76
21
-104.7
0
LINE
8
BLACK
6
CONTINUOUS
10
77.76
20
-104.7
11
77.7424
21
-104.742
0
LINE
8
BLACK
6
CONTINUOUS
10
77.7424
20
-104.742
11
77.7
21
-104.76
0
LINE
8
BLACK
6
CONTINUOUS
10
77.7
20
-104.76
11
72.3
21
-104.76
0
LINE
8
BLACK
6
CONTINUOUS
10
72.3
20
-104.76
11
72.2576
21
-104.742
0
LINE
8
BLACK
6
CONTINUOUS
10
72.2576
20
-104.742
11
72.24
21
-104.7
0
LINE
8
BLACK
6
CONTINUOUS
10
72.24
20
-104.7
11
72.24
21
-99.3
0
LINE
8
BLACK
6
CONTINUOUS
10
72.24
20
-99.3
11
72.2576
21
-99.2576
0
LINE
8
BLACK
6
CONTINUOUS
10
72.2576
20
-99.2576
11
72.3
21
-99.24
0
LINE
8
BLACK
6
CONTINUOUS
10
72.3
20
-99.24
11
77.7
21
-99.24
0
LINE
8
BLACK
6
CONTINUOUS
10
73.6434
20
-99.36
11
73.66
21
-99.4
0
LINE
8
BLACK
6
CONTINUOUS
10
73.66
20
-99.4
11
73.6424
21
-99.4424
0
LINE
8
BLACK
6
CONTINUOUS
10
73.6424
20
-99.4424
11
72.4424
21
-100.642
0
LINE
8
BLACK
6
CONTINUOUS
10
72.4424
20
-100.642
11
72.4
21
-100.66
0
LINE
8
BLACK
6
CONTINUOUS
10
72.4
20
-100.66
11
72.36
21
-100.643
0
LINE
8
BLACK
6
CONTINUOUS
10
72.36
20
-100.643
11
72.36
21
-104.64
0
LINE
8
BLACK
6
CONTINUOUS
10
72.36
20
-104.64
11
76.8751
21
-104.64
0
LINE
8
BLACK
6
CONTINUOUS
10
76.8751
20
-104.64
11
77.64
21
-103.875
0
LINE
8
BLACK
6
CONTINUOUS
10
77.64
20
-103.875
11
77.64
21
-99.36
0
LINE
8
BLACK
6
CONTINUOUS
10
77.64
20
-99.36
11
73.6434
21
-99.36
0
LINE
8
BLACK
6
CONTINUOUS
10
77.0449
20
-104.64
11
77.64
21
-104.64
0
LINE
8
BLACK
6
CONTINUOUS
10
77.64
20
-104.64
11
77.64
21
-104.045
0
LINE
8
BLACK
6
CONTINUOUS
10
77.64
20
-104.045
11
77.0449
21
-104.64
0
LINE
8
BLACK
6
CONTINUOUS
10
72.36
20
-99.36
11
72.36
21
-100.555
0
LINE
8
BLACK
6
CONTINUOUS
10
72.36
20
-100.555
11
73.5551
21
-99.36
0
LINE
8
BLACK
6
CONTINUOUS
10
73.5551
20
-99.36
11
72.36
21
-99.36
0
LINE
8
BLACK
6
CONTINUOUS
10
88.2
20
-100.94
11
88.3483
21
-100.955
0
LINE
8
BLACK
6
CONTINUOUS
10
88.3483
20
-100.955
11
88.4908
21
-100.998
0
LINE
8
BLACK
6
CONTINUOUS
10
88.4908
20
-100.998
11
88.6222
21
-101.068
0
LINE
8
BLACK
6
CONTINUOUS
10
88.6222
20
-101.068
11
88.7374
21
-101.163
0
LINE
8
BLACK
6
CONTINUOUS
10
88.7374
20
-101.163
11
88.8319
21
-101.278
0
LINE
8
BLACK
6
CONTINUOUS
10
88.8319
20
-101.278
11
88.9021
21
-101.409
0
LINE
8
BLACK
6
CONTINUOUS
10
88.9021
20
-101.409
11
88.9454
21
-101.552
0
LINE
8
BLACK
6
CONTINUOUS
10
88.9454
20
-101.552
11
88.96
21
-101.7
0
LINE
8
BLACK
6
CONTINUOUS
10
88.96
20
-101.7
11
88.96
21
-102.3
0
LINE
8
BLACK
6
CONTINUOUS
10
88.96
20
-102.3
11
88.9454
21
-102.448
0
LINE
8
BLACK
6
CONTINUOUS
10
88.9454
20
-102.448
11
88.9021
21
-102.591
0
LINE
8
BLACK
6
CONTINUOUS
10
88.9021
20
-102.591
11
88.8319
21
-102.722
0
LINE
8
BLACK
6
CONTINUOUS
10
88.8319
20
-102.722
11
88.7374
21
-102.837
0
LINE
8
BLACK
6
CONTINUOUS
10
88.7374
20
-102.837
11
88.6222
21
-102.932
0
LINE
8
BLACK
6
CONTINUOUS
10
88.6222
20
-102.932
11
88.4908
21
-103.002
0
LINE
8
BLACK
6
CONTINUOUS
10
88.4908
20
-103.002
11
88.3483
21
-103.045
0
LINE
8
BLACK
6
CONTINUOUS
10
88.3483
20
-103.045
11
88.2
21
-103.06
0
LINE
8
BLACK
6
CONTINUOUS
10
88.2
20
-103.06
11
86.8
21
-103.06
0
LINE
8
BLACK
6
CONTINUOUS
10
86.8
20
-103.06
11
86.6517
21
-103.045
0
LINE
8
BLACK
6
CONTINUOUS
10
86.6517
20
-103.045
11
86.5092
21
-103.002
0
LINE
8
BLACK
6
CONTINUOUS
10
86.5092
20
-103.002
11
86.3778
21
-102.932
0
LINE
8
BLACK
6
CONTINUOUS
10
86.3778
20
-102.932
11
86.2626
21
-102.837
0
LINE
8
BLACK
6
CONTINUOUS
10
86.2626
20
-102.837
11
86.1681
21
-102.722
0
LINE
8
BLACK
6
CONTINUOUS
10
86.1681
20
-102.722
11
86.0979
21
-102.591
0
LINE
8
BLACK
6
CONTINUOUS
10
86.0979
20
-102.591
11
86.0546
21
-102.448
0
LINE
8
BLACK
6
CONTINUOUS
10
86.0546
20
-102.448
11
86.04
21
-102.3
0
LINE
8
BLACK
6
CONTINUOUS
10
86.04
20
-102.3
11
86.04
21
-101.7
0
LINE
8
BLACK
6
CONTINUOUS
10
86.04
20
-101.7
11
86.0546
21
-101.552
0
LINE
8
BLACK
6
CONTINUOUS
10
86.0546
20
-101.552
11
86.0979
21
-101.409
0
LINE
8
BLACK
6
CONTINUOUS
10
86.0979
20
-101.409
11
86.1681
21
-101.278
0
LINE
8
BLACK
6
CONTINUOUS
10
86.1681
20
-101.278
11
86.2626
21
-101.163
0
LINE
8
BLACK
6
CONTINUOUS
10
86.2626
20
-101.163
11
86.3778
21
-101.068
0
LINE
8
BLACK
6
CONTINUOUS
10
86.3778
20
-101.068
11
86.5092
21
-100.998
0
LINE
8
BLACK
6
CONTINUOUS
10
86.5092
20
-100.998
11
86.6517
21
-100.955
0
LINE
8
BLACK
6
CONTINUOUS
10
86.6517
20
-100.955
11
86.8
21
-100.94
0
LINE
8
BLACK
6
CONTINUOUS
10
86.8
20
-100.94
11
88.2
21
-100.94
0
LINE
8
BLACK
6
CONTINUOUS
10
86.8
20
-101.06
11
86.7279
21
-101.06
0
LINE
8
BLACK
6
CONTINUOUS
10
86.7279
20
-101.06
11
86.5873
21
-101.092
0
LINE
8
BLACK
6
CONTINUOUS
10
86.5873
20
-101.092
11
86.4573
21
-101.155
0
LINE
8
BLACK
6
CONTINUOUS
10
86.4573
20
-101.155
11
86.3446
21
-101.245
0
LINE
8
BLACK
6
CONTINUOUS
10
86.3446
20
-101.245
11
86.2547
21
-101.357
0
LINE
8
BLACK
6
CONTINUOUS
10
86.2547
20
-101.357
11
86.1921
21
-101.487
0
LINE
8
BLACK
6
CONTINUOUS
10
86.1921
20
-101.487
11
86.16
21
-101.628
0
LINE
8
BLACK
6
CONTINUOUS
10
86.16
20
-101.628
11
86.16
21
-101.7
0
LINE
8
BLACK
6
CONTINUOUS
10
86.16
20
-101.7
11
86.16
21
-102.3
0
LINE
8
BLACK
6
CONTINUOUS
10
86.16
20
-102.3
11
86.16
21
-102.372
0
LINE
8
BLACK
6
CONTINUOUS
10
86.16
20
-102.372
11
86.1921
21
-102.513
0
LINE
8
BLACK
6
CONTINUOUS
10
86.1921
20
-102.513
11
86.2547
21
-102.643
0
LINE
8
BLACK
6
CONTINUOUS
10
86.2547
20
-102.643
11
86.3446
21
-102.755
0
LINE
8
BLACK
6
CONTINUOUS
10
86.3446
20
-102.755
11
86.4573
21
-102.845
0
LINE
8
BLACK
6
CONTINUOUS
10
86.4573
20
-102.845
11
86.5873
21
-102.908
0
LINE
8
BLACK
6
CONTINUOUS
10
86.5873
20
-102.908
11
86.7279
21
-102.94
0
LINE
8
BLACK
6
CONTINUOUS
10
86.7279
20
-102.94
11
86.8
21
-102.94
0
LINE
8
BLACK
6
CONTINUOUS
10
86.8
20
-102.94
11
88.2
21
-102.94
0
LINE
8
BLACK
6
CONTINUOUS
10
88.2
20
-102.94
11
88.2721
21
-102.94
0
LINE
8
BLACK
6
CONTINUOUS
10
88.2721
20
-102.94
11
88.4127
21
-102.908
0
LINE
8
BLACK
6
CONTINUOUS
10
88.4127
20
-102.908
11
88.5427
21
-102.845
0
LINE
8
BLACK
6
CONTINUOUS
10
88.5427
20
-102.845
11
88.6554
21
-102.755
0
LINE
8
BLACK
6
CONTINUOUS
10
88.6554
20
-102.755
11
88.7453
21
-102.643
0
LINE
8
BLACK
6
CONTINUOUS
10
88.7453
20
-102.643
11
88.8079
21
-102.513
0
LINE
8
BLACK
6
CONTINUOUS
10
88.8079
20
-102.513
11
88.84
21
-102.372
0
LINE
8
BLACK
6
CONTINUOUS
10
88.84
20
-102.372
11
88.84
21
-102.3
0
LINE
8
BLACK
6
CONTINUOUS
10
88.84
20
-102.3
11
88.84
21
-101.7
0
LINE
8
BLACK
6
CONTINUOUS
10
88.84
20
-101.7
11
88.84
21
-101.628
0
LINE
8
BLACK
6
CONTINUOUS
10
88.84
20
-101.628
11
88.8079
21
-101.487
0
LINE
8
BLACK
6
CONTINUOUS
10
88.8079
20
-101.487
11
88.7453
21
-101.357
0
LINE
8
BLACK
6
CONTINUOUS
10
88.7453
20
-101.357
11
88.6554
21
-101.245
0
LINE
8
BLACK
6
CONTINUOUS
10
88.6554
20
-101.245
11
88.5427
21
-101.155
0
LINE
8
BLACK
6
CONTINUOUS
10
88.5427
20
-101.155
11
88.4127
21
-101.092
0
LINE
8
BLACK
6
CONTINUOUS
10
88.4127
20
-101.092
11
88.2721
21
-101.06
0
LINE
8
BLACK
6
CONTINUOUS
10
88.2721
20
-101.06
11
88.2
21
-101.06
0
LINE
8
BLACK
6
CONTINUOUS
10
88.2
20
-101.06
11
86.8
21
-101.06
0
LINE
8
BLACK
6
CONTINUOUS
10
87.7849
20
-100.019
11
88.0639
21
-100.079
0
LINE
8
BLACK
6
CONTINUOUS
10
88.0639
20
-100.079
11
88.3315
21
-100.179
0
LINE
8
BLACK
6
CONTINUOUS
10
88.3315
20
-100.179
11
88.5822
21
-100.316
0
LINE
8
BLACK
6
CONTINUOUS
10
88.5822
20
-100.316
11
88.8108
21
-100.487
0
LINE
8
BLACK
6
CONTINUOUS
10
88.8108
20
-100.487
11
89.0127
21
-100.689
0
LINE
8
BLACK
6
CONTINUOUS
10
89.0127
20
-100.689
11
89.1839
21
-100.918
0
LINE
8
BLACK
6
CONTINUOUS
10
89.1839
20
-100.918
11
89.3208
21
-101.168
0
LINE
8
BLACK
6
CONTINUOUS
10
89.3208
20
-101.168
11
89.4206
21
-101.436
0
LINE
8
BLACK
6
CONTINUOUS
10
89.4206
20
-101.436
11
89.4813
21
-101.715
0
LINE
8
BLACK
6
CONTINUOUS
10
89.4813
20
-101.715
11
89.5016
21
-102
0
LINE
8
BLACK
6
CONTINUOUS
10
89.5016
20
-102
11
89.4813
21
-102.285
0
LINE
8
BLACK
6
CONTINUOUS
10
89.4813
20
-102.285
11
89.4206
21
-102.564
0
LINE
8
BLACK
6
CONTINUOUS
10
89.4206
20
-102.564
11
89.3208
21
-102.832
0
LINE
8
BLACK
6
CONTINUOUS
10
89.3208
20
-102.832
11
89.1839
21
-103.082
0
LINE
8
BLACK
6
CONTINUOUS
10
89.1839
20
-103.082
11
89.0127
21
-103.311
0
LINE
8
BLACK
6
CONTINUOUS
10
89.0127
20
-103.311
11
88.8108
21
-103.513
0
LINE
8
BLACK
6
CONTINUOUS
10
88.8108
20
-103.513
11
88.5822
21
-103.684
0
LINE
8
BLACK
6
CONTINUOUS
10
88.5822
20
-103.684
11
88.3315
21
-103.821
0
LINE
8
BLACK
6
CONTINUOUS
10
88.3315
20
-103.821
11
88.0639
21
-103.921
0
LINE
8
BLACK
6
CONTINUOUS
10
88.0639
20
-103.921
11
87.7849
21
-103.981
0
LINE
8
BLACK
6
CONTINUOUS
10
87.7849
20
-103.981
11
87.5
21
-104.002
0
LINE
8
BLACK
6
CONTINUOUS
10
87.5
20
-104.002
11
87.2151
21
-103.981
0
LINE
8
BLACK
6
CONTINUOUS
10
87.2151
20
-103.981
11
86.9361
21
-103.921
0
LINE
8
BLACK
6
CONTINUOUS
10
86.9361
20
-103.921
11
86.6685
21
-103.821
0
LINE
8
BLACK
6
CONTINUOUS
10
86.6685
20
-103.821
11
86.4178
21
-103.684
0
LINE
8
BLACK
6
CONTINUOUS
10
86.4178
20
-103.684
11
86.1892
21
-103.513
0
LINE
8
BLACK
6
CONTINUOUS
10
86.1892
20
-103.513
11
85.9873
21
-103.311
0
LINE
8
BLACK
6
CONTINUOUS
10
85.9873
20
-103.311
11
85.8161
21
-103.082
0
LINE
8
BLACK
6
CONTINUOUS
10
85.8161
20
-103.082
11
85.6792
21
-102.832
0
LINE
8
BLACK
6
CONTINUOUS
10
85.6792
20
-102.832
11
85.5794
21
-102.564
0
LINE
8
BLACK
6
CONTINUOUS
10
85.5794
20
-102.564
11
85.5187
21
-102.285
0
LINE
8
BLACK
6
CONTINUOUS
10
85.5187
20
-102.285
11
85.4984
21
-102
0
LINE
8
BLACK
6
CONTINUOUS
10
85.4984
20
-102
11
85.5187
21
-101.715
0
LINE
8
BLACK
6
CONTINUOUS
10
85.5187
20
-101.715
11
85.5794
21
-101.436
0
LINE
8
BLACK
6
CONTINUOUS
10
85.5794
20
-101.436
11
85.6792
21
-101.168
0
LINE
8
BLACK
6
CONTINUOUS
10
85.6792
20
-101.168
11
85.8161
21
-100.918
0
LINE
8
BLACK
6
CONTINUOUS
10
85.8161
20
-100.918
11
85.9873
21
-100.689
0
LINE
8
BLACK
6
CONTINUOUS
10
85.9873
20
-100.689
11
86.1892
21
-100.487
0
LINE
8
BLACK
6
CONTINUOUS
10
86.1892
20
-100.487
11
86.4178
21
-100.316
0
LINE
8
BLACK
6
CONTINUOUS
10
86.4178
20
-100.316
11
86.6685
21
-100.179
0
LINE
8
BLACK
6
CONTINUOUS
10
86.6685
20
-100.179
11
86.9361
21
-100.079
0
LINE
8
BLACK
6
CONTINUOUS
10
86.9361
20
-100.079
11
87.2151
21
-100.019
0
LINE
8
BLACK
6
CONTINUOUS
10
87.2151
20
-100.019
11
87.5
21
-99.9984
0
LINE
8
BLACK
6
CONTINUOUS
10
87.5
20
-99.9984
11
87.7849
21
-100.019
0
LINE
8
BLACK
6
CONTINUOUS
10
85.6327
20
-102.268
11
85.69
21
-102.531
0
LINE
8
BLACK
6
CONTINUOUS
10
85.69
20
-102.531
11
85.784
21
-102.784
0
LINE
8
BLACK
6
CONTINUOUS
10
85.784
20
-102.784
11
85.913
21
-103.02
0
LINE
8
BLACK
6
CONTINUOUS
10
85.913
20
-103.02
11
86.0743
21
-103.235
0
LINE
8
BLACK
6
CONTINUOUS
10
86.0743
20
-103.235
11
86.2646
21
-103.426
0
LINE
8
BLACK
6
CONTINUOUS
10
86.2646
20
-103.426
11
86.4801
21
-103.587
0
LINE
8
BLACK
6
CONTINUOUS
10
86.4801
20
-103.587
11
86.7163
21
-103.716
0
LINE
8
BLACK
6
CONTINUOUS
10
86.7163
20
-103.716
11
86.9685
21
-103.81
0
LINE
8
BLACK
6
CONTINUOUS
10
86.9685
20
-103.81
11
87.2315
21
-103.867
0
LINE
8
BLACK
6
CONTINUOUS
10
87.2315
20
-103.867
11
87.5
21
-103.886
0
LINE
8
BLACK
6
CONTINUOUS
10
87.5
20
-103.886
11
87.7685
21
-103.867
0
LINE
8
BLACK
6
CONTINUOUS
10
87.7685
20
-103.867
11
88.0315
21
-103.81
0
LINE
8
BLACK
6
CONTINUOUS
10
88.0315
20
-103.81
11
88.2837
21
-103.716
0
LINE
8
BLACK
6
CONTINUOUS
10
88.2837
20
-103.716
11
88.5199
21
-103.587
0
LINE
8
BLACK
6
CONTINUOUS
10
88.5199
20
-103.587
11
88.7354
21
-103.426
0
LINE
8
BLACK
6
CONTINUOUS
10
88.7354
20
-103.426
11
88.9257
21
-103.235
0
LINE
8
BLACK
6
CONTINUOUS
10
88.9257
20
-103.235
11
89.087
21
-103.02
0
LINE
8
BLACK
6
CONTINUOUS
10
89.087
20
-103.02
11
89.216
21
-102.784
0
LINE
8
BLACK
6
CONTINUOUS
10
89.216
20
-102.784
11
89.31
21
-102.531
0
LINE
8
BLACK
6
CONTINUOUS
10
89.31
20
-102.531
11
89.3673
21
-102.268
0
LINE
8
BLACK
6
CONTINUOUS
10
89.3673
20
-102.268
11
89.3865
21
-102
0
LINE
8
BLACK
6
CONTINUOUS
10
89.3865
20
-102
11
89.3673
21
-101.732
0
LINE
8
BLACK
6
CONTINUOUS
10
89.3673
20
-101.732
11
89.31
21
-101.469
0
LINE
8
BLACK
6
CONTINUOUS
10
89.31
20
-101.469
11
89.216
21
-101.216
0
LINE
8
BLACK
6
CONTINUOUS
10
89.216
20
-101.216
11
89.087
21
-100.98
0
LINE
8
BLACK
6
CONTINUOUS
10
89.087
20
-100.98
11
88.9257
21
-100.765
0
LINE
8
BLACK
6
CONTINUOUS
10
88.9257
20
-100.765
11
88.7354
21
-100.574
0
LINE
8
BLACK
6
CONTINUOUS
10
88.7354
20
-100.574
11
88.5199
21
-100.413
0
LINE
8
BLACK
6
CONTINUOUS
10
88.5199
20
-100.413
11
88.2837
21
-100.284
0
LINE
8
BLACK
6
CONTINUOUS
10
88.2837
20
-100.284
11
88.0315
21
-100.19
0
LINE
8
BLACK
6
CONTINUOUS
10
88.0315
20
-100.19
11
87.7685
21
-100.133
0
LINE
8
BLACK
6
CONTINUOUS
10
87.7685
20
-100.133
11
87.5
21
-100.114
0
LINE
8
BLACK
6
CONTINUOUS
10
87.5
20
-100.114
11
87.2315
21
-100.133
0
LINE
8
BLACK
6
CONTINUOUS
10
87.2315
20
-100.133
11
86.9685
21
-100.19
0
LINE
8
BLACK
6
CONTINUOUS
10
86.9685
20
-100.19
11
86.7163
21
-100.284
0
LINE
8
BLACK
6
CONTINUOUS
10
86.7163
20
-100.284
11
86.4801
21
-100.413
0
LINE
8
BLACK
6
CONTINUOUS
10
86.4801
20
-100.413
11
86.2646
21
-100.574
0
LINE
8
BLACK
6
CONTINUOUS
10
86.2646
20
-100.574
11
86.0743
21
-100.765
0
LINE
8
BLACK
6
CONTINUOUS
10
86.0743
20
-100.765
11
85.913
21
-100.98
0
LINE
8
BLACK
6
CONTINUOUS
10
85.913
20
-100.98
11
85.784
21
-101.216
0
LINE
8
BLACK
6
CONTINUOUS
10
85.784
20
-101.216
11
85.69
21
-101.469
0
LINE
8
BLACK
6
CONTINUOUS
10
85.69
20
-101.469
11
85.6327
21
-101.732
0
LINE
8
BLACK
6
CONTINUOUS
10
85.6327
20
-101.732
11
85.6135
21
-102
0
LINE
8
BLACK
6
CONTINUOUS
10
85.6135
20
-102
11
85.6327
21
-102.268
0
LINE
8
BLACK
6
CONTINUOUS
10
90.2
20
-99.24
11
90.2424
21
-99.2576
0
LINE
8
BLACK
6
CONTINUOUS
10
90.2424
20
-99.2576
11
90.26
21
-99.3
0
LINE
8
BLACK
6
CONTINUOUS
10
90.26
20
-99.3
11
90.26
21
-104.7
0
LINE
8
BLACK
6
CONTINUOUS
10
90.26
20
-104.7
11
90.2424
21
-104.742
0
LINE
8
BLACK
6
CONTINUOUS
10
90.2424
20
-104.742
11
90.2
21
-104.76
0
LINE
8
BLACK
6
CONTINUOUS
10
90.2
20
-104.76
11
84.8
21
-104.76
0
LINE
8
BLACK
6
CONTINUOUS
10
84.8
20
-104.76
11
84.7576
21
-104.742
0
LINE
8
BLACK
6
CONTINUOUS
10
84.7576
20
-104.742
11
84.74
21
-104.7
0
LINE
8
BLACK
6
CONTINUOUS
10
84.74
20
-104.7
11
84.74
21
-99.3
0
LINE
8
BLACK
6
CONTINUOUS
10
84.74
20
-99.3
11
84.7576
21
-99.2576
0
LINE
8
BLACK
6
CONTINUOUS
10
84.7576
20
-99.2576
11
84.8
21
-99.24
0
LINE
8
BLACK
6
CONTINUOUS
10
84.8
20
-99.24
11
90.2
21
-99.24
0
LINE
8
BLACK
6
CONTINUOUS
10
86.1434
20
-99.36
11
86.16
21
-99.4
0
LINE
8
BLACK
6
CONTINUOUS
10
86.16
20
-99.4
11
86.1424
21
-99.4424
0
LINE
8
BLACK
6
CONTINUOUS
10
86.1424
20
-99.4424
11
84.9424
21
-100.642
0
LINE
8
BLACK
6
CONTINUOUS
10
84.9424
20
-100.642
11
84.9
21
-100.66
0
LINE
8
BLACK
6
CONTINUOUS
10
84.9
20
-100.66
11
84.86
21
-100.643
0
LINE
8
BLACK
6
CONTINUOUS
10
84.86
20
-100.643
11
84.86
21
-104.64
0
LINE
8
BLACK
6
CONTINUOUS
10
84.86
20
-104.64
11
89.3751
21
-104.64
0
LINE
8
BLACK
6
CONTINUOUS
10
89.3751
20
-104.64
11
90.14
21
-103.875
0
LINE
8
BLACK
6
CONTINUOUS
10
90.14
20
-103.875
11
90.14
21
-99.36
0
LINE
8
BLACK
6
CONTINUOUS
10
90.14
20
-99.36
11
86.1434
21
-99.36
0
LINE
8
BLACK
6
CONTINUOUS
10
89.5449
20
-104.64
11
90.14
21
-104.64
0
LINE
8
BLACK
6
CONTINUOUS
10
90.14
20
-104.64
11
90.14
21
-104.045
0
LINE
8
BLACK
6
CONTINUOUS
10
90.14
20
-104.045
11
89.5449
21
-104.64
0
LINE
8
BLACK
6
CONTINUOUS
10
84.86
20
-99.36
11
84.86
21
-100.555
0
LINE
8
BLACK
6
CONTINUOUS
10
84.86
20
-100.555
11
86.0551
21
-99.36
0
LINE
8
BLACK
6
CONTINUOUS
10
86.0551
20
-99.36
11
84.86
21
-99.36
0
LINE
8
BLACK
6
CONTINUOUS
10
113.2
20
-100.94
11
113.348
21
-100.955
0
LINE
8
BLACK
6
CONTINUOUS
10
113.348
20
-100.955
11
113.491
21
-100.998
0
LINE
8
BLACK
6
CONTINUOUS
10
113.491
20
-100.998
11
113.622
21
-101.068
0
LINE
8
BLACK
6
CONTINUOUS
10
113.622
20
-101.068
11
113.737
21
-101.163
0
LINE
8
BLACK
6
CONTINUOUS
10
113.737
20
-101.163
11
113.832
21
-101.278
0
LINE
8
BLACK
6
CONTINUOUS
10
113.832
20
-101.278
11
113.902
21
-101.409
0
LINE
8
BLACK
6
CONTINUOUS
10
113.902
20
-101.409
11
113.945
21
-101.552
0
LINE
8
BLACK
6
CONTINUOUS
10
113.945
20
-101.552
11
113.96
21
-101.7
0
LINE
8
BLACK
6
CONTINUOUS
10
113.96
20
-101.7
11
113.96
21
-102.3
0
LINE
8
BLACK
6
CONTINUOUS
10
113.96
20
-102.3
11
113.945
21
-102.448
0
LINE
8
BLACK
6
CONTINUOUS
10
113.945
20
-102.448
11
113.902
21
-102.591
0
LINE
8
BLACK
6
CONTINUOUS
10
113.902
20
-102.591
11
113.832
21
-102.722
0
LINE
8
BLACK
6
CONTINUOUS
10
113.832
20
-102.722
11
113.737
21
-102.837
0
LINE
8
BLACK
6
CONTINUOUS
10
113.737
20
-102.837
11
113.622
21
-102.932
0
LINE
8
BLACK
6
CONTINUOUS
10
113.622
20
-102.932
11
113.491
21
-103.002
0
LINE
8
BLACK
6
CONTINUOUS
10
113.491
20
-103.002
11
113.348
21
-103.045
0
LINE
8
BLACK
6
CONTINUOUS
10
113.348
20
-103.045
11
113.2
21
-103.06
0
LINE
8
BLACK
6
CONTINUOUS
10
113.2
20
-103.06
11
111.8
21
-103.06
0
LINE
8
BLACK
6
CONTINUOUS
10
111.8
20
-103.06
11
111.652
21
-103.045
0
LINE
8
BLACK
6
CONTINUOUS
10
111.652
20
-103.045
11
111.509
21
-103.002
0
LINE
8
BLACK
6
CONTINUOUS
10
111.509
20
-103.002
11
111.378
21
-102.932
0
LINE
8
BLACK
6
CONTINUOUS
10
111.378
20
-102.932
11
111.263
21
-102.837
0
LINE
8
BLACK
6
CONTINUOUS
10
111.263
20
-102.837
11
111.168
21
-102.722
0
LINE
8
BLACK
6
CONTINUOUS
10
111.168
20
-102.722
11
111.098
21
-102.591
0
LINE
8
BLACK
6
CONTINUOUS
10
111.098
20
-102.591
11
111.055
21
-102.448
0
LINE
8
BLACK
6
CONTINUOUS
10
111.055
20
-102.448
11
111.04
21
-102.3
0
LINE
8
BLACK
6
CONTINUOUS
10
111.04
20
-102.3
11
111.04
21
-101.7
0
LINE
8
BLACK
6
CONTINUOUS
10
111.04
20
-101.7
11
111.055
21
-101.552
0
LINE
8
BLACK
6
CONTINUOUS
10
111.055
20
-101.552
11
111.098
21
-101.409
0
LINE
8
BLACK
6
CONTINUOUS
10
111.098
20
-101.409
11
111.168
21
-101.278
0
LINE
8
BLACK
6
CONTINUOUS
10
111.168
20
-101.278
11
111.263
21
-101.163
0
LINE
8
BLACK
6
CONTINUOUS
10
111.263
20
-101.163
11
111.378
21
-101.068
0
LINE
8
BLACK
6
CONTINUOUS
10
111.378
20
-101.068
11
111.509
21
-100.998
0
LINE
8
BLACK
6
CONTINUOUS
10
111.509
20
-100.998
11
111.652
21
-100.955
0
LINE
8
BLACK
6
CONTINUOUS
10
111.652
20
-100.955
11
111.8
21
-100.94
0
LINE
8
BLACK
6
CONTINUOUS
10
111.8
20
-100.94
11
113.2
21
-100.94
0
LINE
8
BLACK
6
CONTINUOUS
10
111.8
20
-101.06
11
111.728
21
-101.06
0
LINE
8
BLACK
6
CONTINUOUS
10
111.728
20
-101.06
11
111.587
21
-101.092
0
LINE
8
BLACK
6
CONTINUOUS
10
111.587
20
-101.092
11
111.457
21
-101.155
0
LINE
8
BLACK
6
CONTINUOUS
10
111.457
20
-101.155
11
111.345
21
-101.245
0
LINE
8
BLACK
6
CONTINUOUS
10
111.345
20
-101.245
11
111.255
21
-101.357
0
LINE
8
BLACK
6
CONTINUOUS
10
111.255
20
-101.357
11
111.192
21
-101.487
0
LINE
8
BLACK
6
CONTINUOUS
10
111.192
20
-101.487
11
111.16
21
-101.628
0
LINE
8
BLACK
6
CONTINUOUS
10
111.16
20
-101.628
11
111.16
21
-101.7
0
LINE
8
BLACK
6
CONTINUOUS
10
111.16
20
-101.7
11
111.16
21
-102.3
0
LINE
8
BLACK
6
CONTINUOUS
10
111.16
20
-102.3
11
111.16
21
-102.372
0
LINE
8
BLACK
6
CONTINUOUS
10
111.16
20
-102.372
11
111.192
21
-102.513
0
LINE
8
BLACK
6
CONTINUOUS
10
111.192
20
-102.513
11
111.255
21
-102.643
0
LINE
8
BLACK
6
CONTINUOUS
10
111.255
20
-102.643
11
111.345
21
-102.755
0
LINE
8
BLACK
6
CONTINUOUS
10
111.345
20
-102.755
11
111.457
21
-102.845
0
LINE
8
BLACK
6
CONTINUOUS
10
111.457
20
-102.845
11
111.587
21
-102.908
0
LINE
8
BLACK
6
CONTINUOUS
10
111.587
20
-102.908
11
111.728
21
-102.94
0
LINE
8
BLACK
6
CONTINUOUS
10
111.728
20
-102.94
11
111.8
21
-102.94
0
LINE
8
BLACK
6
CONTINUOUS
10
111.8
20
-102.94
11
113.2
21
-102.94
0
LINE
8
BLACK
6
CONTINUOUS
10
113.2
20
-102.94
11
113.272
21
-102.94
0
LINE
8
BLACK
6
CONTINUOUS
10
113.272
20
-102.94
11
113.413
21
-102.908
0
LINE
8
BLACK
6
CONTINUOUS
10
113.413
20
-102.908
11
113.543
21
-102.845
0
LINE
8
BLACK
6
CONTINUOUS
10
113.543
20
-102.845
11
113.655
21
-102.755
0
LINE
8
BLACK
6
CONTINUOUS
10
113.655
20
-102.755
11
113.745
21
-102.643
0
LINE
8
BLACK
6
CONTINUOUS
10
113.745
20
-102.643
11
113.808
21
-102.513
0
LINE
8
BLACK
6
CONTINUOUS
10
113.808
20
-102.513
11
113.84
21
-102.372
0
LINE
8
BLACK
6
CONTINUOUS
10
113.84
20
-102.372
11
113.84
21
-102.3
0
LINE
8
BLACK
6
CONTINUOUS
10
113.84
20
-102.3
11
113.84
21
-101.7
0
LINE
8
BLACK
6
CONTINUOUS
10
113.84
20
-101.7
11
113.84
21
-101.628
0
LINE
8
BLACK
6
CONTINUOUS
10
113.84
20
-101.628
11
113.808
21
-101.487
0
LINE
8
BLACK
6
CONTINUOUS
10
113.808
20
-101.487
11
113.745
21
-101.357
0
LINE
8
BLACK
6
CONTINUOUS
10
113.745
20
-101.357
11
113.655
21
-101.245
0
LINE
8
BLACK
6
CONTINUOUS
10
113.655
20
-101.245
11
113.543
21
-101.155
0
LINE
8
BLACK
6
CONTINUOUS
10
113.543
20
-101.155
11
113.413
21
-101.092
0
LINE
8
BLACK
6
CONTINUOUS
10
113.413
20
-101.092
11
113.272
21
-101.06
0
LINE
8
BLACK
6
CONTINUOUS
10
113.272
20
-101.06
11
113.2
21
-101.06
0
LINE
8
BLACK
6
CONTINUOUS
10
113.2
20
-101.06
11
111.8
21
-101.06
0
LINE
8
BLACK
6
CONTINUOUS
10
112.785
20
-100.019
11
113.064
21
-100.079
0
LINE
8
BLACK
6
CONTINUOUS
10
113.064
20
-100.079
11
113.332
21
-100.179
0
LINE
8
BLACK
6
CONTINUOUS
10
113.332
20
-100.179
11
113.582
21
-100.316
0
LINE
8
BLACK
6
CONTINUOUS
10
113.582
20
-100.316
11
113.811
21
-100.487
0
LINE
8
BLACK
6
CONTINUOUS
10
113.811
20
-100.487
11
114.013
21
-100.689
0
LINE
8
BLACK
6
CONTINUOUS
10
114.013
20
-100.689
11
114.184
21
-100.918
0
LINE
8
BLACK
6
CONTINUOUS
10
114.184
20
-100.918
11
114.321
21
-101.168
0
LINE
8
BLACK
6
CONTINUOUS
10
114.321
20
-101.168
11
114.421
21
-101.436
0
LINE
8
BLACK
6
CONTINUOUS
10
114.421
20
-101.436
11
114.481
21
-101.715
0
LINE
8
BLACK
6
CONTINUOUS
10
114.481
20
-101.715
11
114.502
21
-102
0
LINE
8
BLACK
6
CONTINUOUS
10
114.502
20
-102
11
114.481
21
-102.285
0
LINE
8
BLACK
6
CONTINUOUS
10
114.481
20
-102.285
11
114.421
21
-102.564
0
LINE
8
BLACK
6
CONTINUOUS
10
114.421
20
-102.564
11
114.321
21
-102.832
0
LINE
8
BLACK
6
CONTINUOUS
10
114.321
20
-102.832
11
114.184
21
-103.082
0
LINE
8
BLACK
6
CONTINUOUS
10
114.184
20
-103.082
11
114.013
21
-103.311
0
LINE
8
BLACK
6
CONTINUOUS
10
114.013
20
-103.311
11
113.811
21
-103.513
0
LINE
8
BLACK
6
CONTINUOUS
10
113.811
20
-103.513
11
113.582
21
-103.684
0
LINE
8
BLACK
6
CONTINUOUS
10
113.582
20
-103.684
11
113.332
21
-103.821
0
LINE
8
BLACK
6
CONTINUOUS
10
113.332
20
-103.821
11
113.064
21
-103.921
0
LINE
8
BLACK
6
CONTINUOUS
10
113.064
20
-103.921
11
112.785
21
-103.981
0
LINE
8
BLACK
6
CONTINUOUS
10
112.785
20
-103.981
11
112.5
21
-104.002
0
LINE
8
BLACK
6
CONTINUOUS
10
112.5
20
-104.002
11
112.215
21
-103.981
0
LINE
8
BLACK
6
CONTINUOUS
10
112.215
20
-103.981
11
111.936
21
-103.921
0
LINE
8
BLACK
6
CONTINUOUS
10
111.936
20
-103.921
11
111.668
21
-103.821
0
LINE
8
BLACK
6
CONTINUOUS
10
111.668
20
-103.821
11
111.418
21
-103.684
0
LINE
8
BLACK
6
CONTINUOUS
10
111.418
20
-103.684
11
111.189
21
-103.513
0
LINE
8
BLACK
6
CONTINUOUS
10
111.189
20
-103.513
11
110.987
21
-103.311
0
LINE
8
BLACK
6
CONTINUOUS
10
110.987
20
-103.311
11
110.816
21
-103.082
0
LINE
8
BLACK
6
CONTINUOUS
10
110.816
20
-103.082
11
110.679
21
-102.832
0
LINE
8
BLACK
6
CONTINUOUS
10
110.679
20
-102.832
11
110.579
21
-102.564
0
LINE
8
BLACK
6
CONTINUOUS
10
110.579
20
-102.564
11
110.519
21
-102.285
0
LINE
8
BLACK
6
CONTINUOUS
10
110.519
20
-102.285
11
110.498
21
-102
0
LINE
8
BLACK
6
CONTINUOUS
10
110.498
20
-102
11
110.519
21
-101.715
0
LINE
8
BLACK
6
CONTINUOUS
10
110.519
20
-101.715
11
110.579
21
-101.436
0
LINE
8
BLACK
6
CONTINUOUS
10
110.579
20
-101.436
11
110.679
21
-101.168
0
LINE
8
BLACK
6
CONTINUOUS
10
110.679
20
-101.168
11
110.816
21
-100.918
0
LINE
8
BLACK
6
CONTINUOUS
10
110.816
20
-100.918
11
110.987
21
-100.689
0
LINE
8
BLACK
6
CONTINUOUS
10
110.987
20
-100.689
11
111.189
21
-100.487
0
LINE
8
BLACK
6
CONTINUOUS
10
111.189
20
-100.487
11
111.418
21
-100.316
0
LINE
8
BLACK
6
CONTINUOUS
10
111.418
20
-100.316
11
111.668
21
-100.179
0
LINE
8
BLACK
6
CONTINUOUS
10
111.668
20
-100.179
11
111.936
21
-100.079
0
LINE
8
BLACK
6
CONTINUOUS
10
111.936
20
-100.079
11
112.215
21
-100.019
0
LINE
8
BLACK
6
CONTINUOUS
10
112.215
20
-100.019
11
112.5
21
-99.9984
0
LINE
8
BLACK
6
CONTINUOUS
10
112.5
20
-99.9984
11
112.785
21
-100.019
0
LINE
8
BLACK
6
CONTINUOUS
10
110.633
20
-102.268
11
110.69
21
-102.531
0
LINE
8
BLACK
6
CONTINUOUS
10
110.69
20
-102.531
11
110.784
21
-102.784
0
LINE
8
BLACK
6
CONTINUOUS
10
110.784
20
-102.784
11
110.913
21
-103.02
0
LINE
8
BLACK
6
CONTINUOUS
10
110.913
20
-103.02
11
111.074
21
-103.235
0
LINE
8
BLACK
6
CONTINUOUS
10
111.074
20
-103.235
11
111.265
21
-103.426
0
LINE
8
BLACK
6
CONTINUOUS
10
111.265
20
-103.426
11
111.48
21
-103.587
0
LINE
8
BLACK
6
CONTINUOUS
10
111.48
20
-103.587
11
111.716
21
-103.716
0
LINE
8
BLACK
6
CONTINUOUS
10
111.716
20
-103.716
11
111.969
21
-103.81
0
LINE
8
BLACK
6
CONTINUOUS
10
111.969
20
-103.81
11
112.232
21
-103.867
0
LINE
8
BLACK
6
CONTINUOUS
10
112.232
20
-103.867
11
112.5
21
-103.886
0
LINE
8
BLACK
6
CONTINUOUS
10
112.5
20
-103.886
11
112.768
21
-103.867
0
LINE
8
BLACK
6
CONTINUOUS
10
112.768
20
-103.867
11
113.031
21
-103.81
0
LINE
8
BLACK
6
CONTINUOUS
10
113.031
20
-103.81
11
113.284
21
-103.716
0
LINE
8
BLACK
6
CONTINUOUS
10
113.284
20
-103.716
11
113.52
21
-103.587
0
LINE
8
BLACK
6
CONTINUOUS
10
113.52
20
-103.587
11
113.735
21
-103.426
0
LINE
8
BLACK
6
CONTINUOUS
10
113.735
20
-103.426
11
113.926
21
-103.235
0
LINE
8
BLACK
6
CONTINUOUS
10
113.926
20
-103.235
11
114.087
21
-103.02
0
LINE
8
BLACK
6
CONTINUOUS
10
114.087
20
-103.02
11
114.216
21
-102.784
0
LINE
8
BLACK
6
CONTINUOUS
10
114.216
20
-102.784
11
114.31
21
-102.531
0
LINE
8
BLACK
6
CONTINUOUS
10
114.31
20
-102.531
11
114.367
21
-102.268
0
LINE
8
BLACK
6
CONTINUOUS
10
114.367
20
-102.268
11
114.386
21
-102
0
LINE
8
BLACK
6
CONTINUOUS
10
114.386
20
-102
11
114.367
21
-101.732
0
LINE
8
BLACK
6
CONTINUOUS
10
114.367
20
-101.732
11
114.31
21
-101.469
0
LINE
8
BLACK
6
CONTINUOUS
10
114.31
20
-101.469
11
114.216
21
-101.216
0
LINE
8
BLACK
6
CONTINUOUS
10
114.216
20
-101.216
11
114.087
21
-100.98
0
LINE
8
BLACK
6
CONTINUOUS
10
114.087
20
-100.98
11
113.926
21
-100.765
0
LINE
8
BLACK
6
CONTINUOUS
10
113.926
20
-100.765
11
113.735
21
-100.574
0
LINE
8
BLACK
6
CONTINUOUS
10
113.735
20
-100.574
11
113.52
21
-100.413
0
LINE
8
BLACK
6
CONTINUOUS
10
113.52
20
-100.413
11
113.284
21
-100.284
0
LINE
8
BLACK
6
CONTINUOUS
10
113.284
20
-100.284
11
113.031
21
-100.19
0
LINE
8
BLACK
6
CONTINUOUS
10
113.031
20
-100.19
11
112.768
21
-100.133
0
LINE
8
BLACK
6
CONTINUOUS
10
112.768
20
-100.133
11
112.5
21
-100.114
0
LINE
8
BLACK
6
CONTINUOUS
10
112.5
20
-100.114
11
112.232
21
-100.133
0
LINE
8
BLACK
6
CONTINUOUS
10
112.232
20
-100.133
11
111.969
21
-100.19
0
LINE
8
BLACK
6
CONTINUOUS
10
111.969
20
-100.19
11
111.716
21
-100.284
0
LINE
8
BLACK
6
CONTINUOUS
10
111.716
20
-100.284
11
111.48
21
-100.413
0
LINE
8
BLACK
6
CONTINUOUS
10
111.48
20
-100.413
11
111.265
21
-100.574
0
LINE
8
BLACK
6
CONTINUOUS
10
111.265
20
-100.574
11
111.074
21
-100.765
0
LINE
8
BLACK
6
CONTINUOUS
10
111.074
20
-100.765
11
110.913
21
-100.98
0
LINE
8
BLACK
6
CONTINUOUS
10
110.913
20
-100.98
11
110.784
21
-101.216
0
LINE
8
BLACK
6
CONTINUOUS
10
110.784
20
-101.216
11
110.69
21
-101.469
0
LINE
8
BLACK
6
CONTINUOUS
10
110.69
20
-101.469
11
110.633
21
-101.732
0
LINE
8
BLACK
6
CONTINUOUS
10
110.633
20
-101.732
11
110.614
21
-102
0
LINE
8
BLACK
6
CONTINUOUS
10
110.614
20
-102
11
110.633
21
-102.268
0
LINE
8
BLACK
6
CONTINUOUS
10
115.2
20
-99.24
11
115.242
21
-99.2576
0
LINE
8
BLACK
6
CONTINUOUS
10
115.242
20
-99.2576
11
115.26
21
-99.3
0
LINE
8
BLACK
6
CONTINUOUS
10
115.26
20
-99.3
11
115.26
21
-104.7
0
LINE
8
BLACK
6
CONTINUOUS
10
115.26
20
-104.7
11
115.242
21
-104.742
0
LINE
8
BLACK
6
CONTINUOUS
10
115.242
20
-104.742
11
115.2
21
-104.76
0
LINE
8
BLACK
6
CONTINUOUS
10
115.2
20
-104.76
11
109.8
21
-104.76
0
LINE
8
BLACK
6
CONTINUOUS
10
109.8
20
-104.76
11
109.758
21
-104.742
0
LINE
8
BLACK
6
CONTINUOUS
10
109.758
20
-104.742
11
109.74
21
-104.7
0
LINE
8
BLACK
6
CONTINUOUS
10
109.74
20
-104.7
11
109.74
21
-99.3
0
LINE
8
BLACK
6
CONTINUOUS
10
109.74
20
-99.3
11
109.758
21
-99.2576
0
LINE
8
BLACK
6
CONTINUOUS
10
109.758
20
-99.2576
11
109.8
21
-99.24
0
LINE
8
BLACK
6
CONTINUOUS
10
109.8
20
-99.24
11
115.2
21
-99.24
0
LINE
8
BLACK
6
CONTINUOUS
10
111.143
20
-99.36
11
111.16
21
-99.4
0
LINE
8
BLACK
6
CONTINUOUS
10
111.16
20
-99.4
11
111.142
21
-99.4424
0
LINE
8
BLACK
6
CONTINUOUS
10
111.142
20
-99.4424
11
109.942
21
-100.642
0
LINE
8
BLACK
6
CONTINUOUS
10
109.942
20
-100.642
11
109.9
21
-100.66
0
LINE
8
BLACK
6
CONTINUOUS
10
109.9
20
-100.66
11
109.86
21
-100.643
0
LINE
8
BLACK
6
CONTINUOUS
10
109.86
20
-100.643
11
109.86
21
-104.64
0
LINE
8
BLACK
6
CONTINUOUS
10
109.86
20
-104.64
11
114.375
21
-104.64
0
LINE
8
BLACK
6
CONTINUOUS
10
114.375
20
-104.64
11
115.14
21
-103.875
0
LINE
8
BLACK
6
CONTINUOUS
10
115.14
20
-103.875
11
115.14
21
-99.36
0
LINE
8
BLACK
6
CONTINUOUS
10
115.14
20
-99.36
11
111.143
21
-99.36
0
LINE
8
BLACK
6
CONTINUOUS
10
114.545
20
-104.64
11
115.14
21
-104.64
0
LINE
8
BLACK
6
CONTINUOUS
10
115.14
20
-104.64
11
115.14
21
-104.045
0
LINE
8
BLACK
6
CONTINUOUS
10
115.14
20
-104.045
11
114.545
21
-104.64
0
LINE
8
BLACK
6
CONTINUOUS
10
109.86
20
-99.36
11
109.86
21
-100.555
0
LINE
8
BLACK
6
CONTINUOUS
10
109.86
20
-100.555
11
111.055
21
-99.36
0
LINE
8
BLACK
6
CONTINUOUS
10
111.055
20
-99.36
11
109.86
21
-99.36
0
LINE
8
BLACK
6
CONTINUOUS
10
41.3074
20
-102.646
11
41.325
21
-102.689
0
LINE
8
BLACK
6
CONTINUOUS
10
41.325
20
-102.689
11
41.325
21
-103.211
0
LINE
8
BLACK
6
CONTINUOUS
10
41.325
20
-103.211
11
41.3074
21
-103.254
0
LINE
8
BLACK
6
CONTINUOUS
10
41.3074
20
-103.254
11
41.265
21
-103.271
0
LINE
8
BLACK
6
CONTINUOUS
10
41.265
20
-103.271
11
41.2226
21
-103.254
0
LINE
8
BLACK
6
CONTINUOUS
10
41.2226
20
-103.254
11
41.205
21
-103.211
0
LINE
8
BLACK
6
CONTINUOUS
10
41.205
20
-103.211
11
41.205
21
-102.689
0
LINE
8
BLACK
6
CONTINUOUS
10
41.205
20
-102.689
11
41.2226
21
-102.646
0
LINE
8
BLACK
6
CONTINUOUS
10
41.2226
20
-102.646
11
41.265
21
-102.629
0
LINE
8
BLACK
6
CONTINUOUS
10
41.265
20
-102.629
11
41.3074
21
-102.646
0
LINE
8
BLACK
6
CONTINUOUS
10
42.7774
20
-102.646
11
42.795
21
-102.689
0
LINE
8
BLACK
6
CONTINUOUS
10
42.795
20
-102.689
11
42.795
21
-103.211
0
LINE
8
BLACK
6
CONTINUOUS
10
42.795
20
-103.211
11
42.7774
21
-103.254
0
LINE
8
BLACK
6
CONTINUOUS
10
42.7774
20
-103.254
11
42.735
21
-103.271
0
LINE
8
BLACK
6
CONTINUOUS
10
42.735
20
-103.271
11
42.6926
21
-103.254
0
LINE
8
BLACK
6
CONTINUOUS
10
42.6926
20
-103.254
11
42.675
21
-103.211
0
LINE
8
BLACK
6
CONTINUOUS
10
42.675
20
-103.211
11
42.675
21
-102.689
0
LINE
8
BLACK
6
CONTINUOUS
10
42.675
20
-102.689
11
42.6926
21
-102.646
0
LINE
8
BLACK
6
CONTINUOUS
10
42.6926
20
-102.646
11
42.735
21
-102.629
0
LINE
8
BLACK
6
CONTINUOUS
10
42.735
20
-102.629
11
42.7774
21
-102.646
0
LINE
8
BLACK
6
CONTINUOUS
10
107.607
20
-100.896
11
107.625
21
-100.939
0
LINE
8
BLACK
6
CONTINUOUS
10
107.625
20
-100.939
11
107.625
21
-101.461
0
LINE
8
BLACK
6
CONTINUOUS
10
107.625
20
-101.461
11
107.607
21
-101.504
0
LINE
8
BLACK
6
CONTINUOUS
10
107.607
20
-101.504
11
107.565
21
-101.521
0
LINE
8
BLACK
6
CONTINUOUS
10
107.565
20
-101.521
11
107.523
21
-101.504
0
LINE
8
BLACK
6
CONTINUOUS
10
107.523
20
-101.504
11
107.505
21
-101.461
0
LINE
8
BLACK
6
CONTINUOUS
10
107.505
20
-101.461
11
107.505
21
-100.939
0
LINE
8
BLACK
6
CONTINUOUS
10
107.505
20
-100.939
11
107.523
21
-100.896
0
LINE
8
BLACK
6
CONTINUOUS
10
107.523
20
-100.896
11
107.565
21
-100.879
0
LINE
8
BLACK
6
CONTINUOUS
10
107.565
20
-100.879
11
107.607
21
-100.896
0
LINE
8
BLACK
6
CONTINUOUS
10
109.077
20
-100.896
11
109.095
21
-100.939
0
LINE
8
BLACK
6
CONTINUOUS
10
109.095
20
-100.939
11
109.095
21
-101.461
0
LINE
8
BLACK
6
CONTINUOUS
10
109.095
20
-101.461
11
109.077
21
-101.504
0
LINE
8
BLACK
6
CONTINUOUS
10
109.077
20
-101.504
11
109.035
21
-101.521
0
LINE
8
BLACK
6
CONTINUOUS
10
109.035
20
-101.521
11
108.993
21
-101.504
0
LINE
8
BLACK
6
CONTINUOUS
10
108.993
20
-101.504
11
108.975
21
-101.461
0
LINE
8
BLACK
6
CONTINUOUS
10
108.975
20
-101.461
11
108.975
21
-100.939
0
LINE
8
BLACK
6
CONTINUOUS
10
108.975
20
-100.939
11
108.993
21
-100.896
0
LINE
8
BLACK
6
CONTINUOUS
10
108.993
20
-100.896
11
109.035
21
-100.879
0
LINE
8
BLACK
6
CONTINUOUS
10
109.035
20
-100.879
11
109.077
21
-100.896
0
LINE
8
BLACK
6
CONTINUOUS
10
57.3074
20
-100.696
11
57.325
21
-100.739
0
LINE
8
BLACK
6
CONTINUOUS
10
57.325
20
-100.739
11
57.325
21
-101.261
0
LINE
8
BLACK
6
CONTINUOUS
10
57.325
20
-101.261
11
57.3074
21
-101.304
0
LINE
8
BLACK
6
CONTINUOUS
10
57.3074
20
-101.304
11
57.265
21
-101.321
0
LINE
8
BLACK
6
CONTINUOUS
10
57.265
20
-101.321
11
57.2226
21
-101.304
0
LINE
8
BLACK
6
CONTINUOUS
10
57.2226
20
-101.304
11
57.205
21
-101.261
0
LINE
8
BLACK
6
CONTINUOUS
10
57.205
20
-101.261
11
57.205
21
-100.739
0
LINE
8
BLACK
6
CONTINUOUS
10
57.205
20
-100.739
11
57.2226
21
-100.696
0
LINE
8
BLACK
6
CONTINUOUS
10
57.2226
20
-100.696
11
57.265
21
-100.679
0
LINE
8
BLACK
6
CONTINUOUS
10
57.265
20
-100.679
11
57.3074
21
-100.696
0
LINE
8
BLACK
6
CONTINUOUS
10
58.7774
20
-100.696
11
58.795
21
-100.739
0
LINE
8
BLACK
6
CONTINUOUS
10
58.795
20
-100.739
11
58.795
21
-101.261
0
LINE
8
BLACK
6
CONTINUOUS
10
58.795
20
-101.261
11
58.7774
21
-101.304
0
LINE
8
BLACK
6
CONTINUOUS
10
58.7774
20
-101.304
11
58.735
21
-101.321
0
LINE
8
BLACK
6
CONTINUOUS
10
58.735
20
-101.321
11
58.6926
21
-101.304
0
LINE
8
BLACK
6
CONTINUOUS
10
58.6926
20
-101.304
11
58.675
21
-101.261
0
LINE
8
BLACK
6
CONTINUOUS
10
58.675
20
-101.261
11
58.675
21
-100.739
0
LINE
8
BLACK
6
CONTINUOUS
10
58.675
20
-100.739
11
58.6926
21
-100.696
0
LINE
8
BLACK
6
CONTINUOUS
10
58.6926
20
-100.696
11
58.735
21
-100.679
0
LINE
8
BLACK
6
CONTINUOUS
10
58.735
20
-100.679
11
58.7774
21
-100.696
0
LINE
8
BLACK
6
CONTINUOUS
10
69.8074
20
-100.696
11
69.825
21
-100.739
0
LINE
8
BLACK
6
CONTINUOUS
10
69.825
20
-100.739
11
69.825
21
-101.261
0
LINE
8
BLACK
6
CONTINUOUS
10
69.825
20
-101.261
11
69.8074
21
-101.304
0
LINE
8
BLACK
6
CONTINUOUS
10
69.8074
20
-101.304
11
69.765
21
-101.321
0
LINE
8
BLACK
6
CONTINUOUS
10
69.765
20
-101.321
11
69.7226
21
-101.304
0
LINE
8
BLACK
6
CONTINUOUS
10
69.7226
20
-101.304
11
69.705
21
-101.261
0
LINE
8
BLACK
6
CONTINUOUS
10
69.705
20
-101.261
11
69.705
21
-100.739
0
LINE
8
BLACK
6
CONTINUOUS
10
69.705
20
-100.739
11
69.7226
21
-100.696
0
LINE
8
BLACK
6
CONTINUOUS
10
69.7226
20
-100.696
11
69.765
21
-100.679
0
LINE
8
BLACK
6
CONTINUOUS
10
69.765
20
-100.679
11
69.8074
21
-100.696
0
LINE
8
BLACK
6
CONTINUOUS
10
71.2774
20
-100.696
11
71.295
21
-100.739
0
LINE
8
BLACK
6
CONTINUOUS
10
71.295
20
-100.739
11
71.295
21
-101.261
0
LINE
8
BLACK
6
CONTINUOUS
10
71.295
20
-101.261
11
71.2774
21
-101.304
0
LINE
8
BLACK
6
CONTINUOUS
10
71.2774
20
-101.304
11
71.235
21
-101.321
0
LINE
8
BLACK
6
CONTINUOUS
10
71.235
20
-101.321
11
71.1926
21
-101.304
0
LINE
8
BLACK
6
CONTINUOUS
10
71.1926
20
-101.304
11
71.175
21
-101.261
0
LINE
8
BLACK
6
CONTINUOUS
10
71.175
20
-101.261
11
71.175
21
-100.739
0
LINE
8
BLACK
6
CONTINUOUS
10
71.175
20
-100.739
11
71.1926
21
-100.696
0
LINE
8
BLACK
6
CONTINUOUS
10
71.1926
20
-100.696
11
71.235
21
-100.679
0
LINE
8
BLACK
6
CONTINUOUS
10
71.235
20
-100.679
11
71.2774
21
-100.696
0
LINE
8
BLACK
6
CONTINUOUS
10
82.3074
20
-100.696
11
82.325
21
-100.739
0
LINE
8
BLACK
6
CONTINUOUS
10
82.325
20
-100.739
11
82.325
21
-101.261
0
LINE
8
BLACK
6
CONTINUOUS
10
82.325
20
-101.261
11
82.3074
21
-101.304
0
LINE
8
BLACK
6
CONTINUOUS
10
82.3074
20
-101.304
11
82.265
21
-101.321
0
LINE
8
BLACK
6
CONTINUOUS
10
82.265
20
-101.321
11
82.2226
21
-101.304
0
LINE
8
BLACK
6
CONTINUOUS
10
82.2226
20
-101.304
11
82.205
21
-101.261
0
LINE
8
BLACK
6
CONTINUOUS
10
82.205
20
-101.261
11
82.205
21
-100.739
0
LINE
8
BLACK
6
CONTINUOUS
10
82.205
20
-100.739
11
82.2226
21
-100.696
0
LINE
8
BLACK
6
CONTINUOUS
10
82.2226
20
-100.696
11
82.265
21
-100.679
0
LINE
8
BLACK
6
CONTINUOUS
10
82.265
20
-100.679
11
82.3074
21
-100.696
0
LINE
8
BLACK
6
CONTINUOUS
10
83.7774
20
-100.696
11
83.795
21
-100.739
0
LINE
8
BLACK
6
CONTINUOUS
10
83.795
20
-100.739
11
83.795
21
-101.261
0
LINE
8
BLACK
6
CONTINUOUS
10
83.795
20
-101.261
11
83.7774
21
-101.304
0
LINE
8
BLACK
6
CONTINUOUS
10
83.7774
20
-101.304
11
83.735
21
-101.321
0
LINE
8
BLACK
6
CONTINUOUS
10
83.735
20
-101.321
11
83.6926
21
-101.304
0
LINE
8
BLACK
6
CONTINUOUS
10
83.6926
20
-101.304
11
83.675
21
-101.261
0
LINE
8
BLACK
6
CONTINUOUS
10
83.675
20
-101.261
11
83.675
21
-100.739
0
LINE
8
BLACK
6
CONTINUOUS
10
83.675
20
-100.739
11
83.6926
21
-100.696
0
LINE
8
BLACK
6
CONTINUOUS
10
83.6926
20
-100.696
11
83.735
21
-100.679
0
LINE
8
BLACK
6
CONTINUOUS
10
83.735
20
-100.679
11
83.7774
21
-100.696
0
LINE
8
BLACK
6
CONTINUOUS
10
52.9048
20
-98.7176
11
52.9439
21
-98.7619
0
LINE
8
BLACK
6
CONTINUOUS
10
52.9439
20
-98.7619
11
52.9639
21
-98.8257
0
LINE
8
BLACK
6
CONTINUOUS
10
52.9639
20
-98.8257
11
52.9696
21
-98.9
0
LINE
8
BLACK
6
CONTINUOUS
10
52.9696
20
-98.9
11
52.9678
21
-98.942
0
LINE
8
BLACK
6
CONTINUOUS
10
52.9678
20
-98.942
11
52.9625
21
-98.9805
0
LINE
8
BLACK
6
CONTINUOUS
10
52.9625
20
-98.9805
11
52.9386
21
-99.0438
0
LINE
8
BLACK
6
CONTINUOUS
10
52.9386
20
-99.0438
11
52.8948
21
-99.0857
0
LINE
8
BLACK
6
CONTINUOUS
10
52.8948
20
-99.0857
11
52.8277
21
-99.101
0
LINE
8
BLACK
6
CONTINUOUS
10
52.8277
20
-99.101
11
52.8172
21
-99.101
0
LINE
8
BLACK
6
CONTINUOUS
10
52.8172
20
-99.101
11
52.8067
21
-99.1
0
LINE
8
BLACK
6
CONTINUOUS
10
52.8067
20
-99.1
11
52.8067
21
-98.7038
0
LINE
8
BLACK
6
CONTINUOUS
10
52.8067
20
-98.7038
11
52.8239
21
-98.7014
0
LINE
8
BLACK
6
CONTINUOUS
10
52.8239
20
-98.7014
11
52.841
21
-98.7009
0
LINE
8
BLACK
6
CONTINUOUS
10
52.841
20
-98.7009
11
52.9048
21
-98.7176
0
LINE
8
BLACK
6
CONTINUOUS
10
51.375
20
-97.495
11
51.4174
21
-97.5126
0
LINE
8
BLACK
6
CONTINUOUS
10
51.4174
20
-97.5126
11
51.435
21
-97.555
0
LINE
8
BLACK
6
CONTINUOUS
10
51.435
20
-97.555
11
51.435
21
-98.4528
0
LINE
8
BLACK
6
CONTINUOUS
10
51.435
20
-98.4528
11
51.478
21
-98.4324
0
LINE
8
BLACK
6
CONTINUOUS
10
51.478
20
-98.4324
11
51.5247
21
-98.4157
0
LINE
8
BLACK
6
CONTINUOUS
10
51.5247
20
-98.4157
11
51.5729
21
-98.4036
0
LINE
8
BLACK
6
CONTINUOUS
10
51.5729
20
-98.4036
11
51.622
21
-98.3963
0
LINE
8
BLACK
6
CONTINUOUS
10
51.622
20
-98.3963
11
51.6717
21
-98.3939
0
LINE
8
BLACK
6
CONTINUOUS
10
51.6717
20
-98.3939
11
51.7113
21
-98.3939
0
LINE
8
BLACK
6
CONTINUOUS
10
51.7113
20
-98.3939
11
51.7113
21
-98.3939
0
LINE
8
BLACK
6
CONTINUOUS
10
51.7113
20
-98.3939
11
53.0887
21
-98.3939
0
LINE
8
BLACK
6
CONTINUOUS
10
53.0887
20
-98.3939
11
53.1283
21
-98.3939
0
LINE
8
BLACK
6
CONTINUOUS
10
53.1283
20
-98.3939
11
53.178
21
-98.3963
0
LINE
8
BLACK
6
CONTINUOUS
10
53.178
20
-98.3963
11
53.2271
21
-98.4036
0
LINE
8
BLACK
6
CONTINUOUS
10
53.2271
20
-98.4036
11
53.2753
21
-98.4157
0
LINE
8
BLACK
6
CONTINUOUS
10
53.2753
20
-98.4157
11
53.322
21
-98.4324
0
LINE
8
BLACK
6
CONTINUOUS
10
53.322
20
-98.4324
11
53.3669
21
-98.4537
0
LINE
8
BLACK
6
CONTINUOUS
10
53.3669
20
-98.4537
11
53.4095
21
-98.4792
0
LINE
8
BLACK
6
CONTINUOUS
10
53.4095
20
-98.4792
11
53.4494
21
-98.5088
0
LINE
8
BLACK
6
CONTINUOUS
10
53.4494
20
-98.5088
11
53.4862
21
-98.5421
0
LINE
8
BLACK
6
CONTINUOUS
10
53.4862
20
-98.5421
11
53.5196
21
-98.5789
0
LINE
8
BLACK
6
CONTINUOUS
10
53.5196
20
-98.5789
11
53.5491
21
-98.6188
0
LINE
8
BLACK
6
CONTINUOUS
10
53.5491
20
-98.6188
11
53.5747
21
-98.6614
0
LINE
8
BLACK
6
CONTINUOUS
10
53.5747
20
-98.6614
11
53.5959
21
-98.7063
0
LINE
8
BLACK
6
CONTINUOUS
10
53.5959
20
-98.7063
11
53.6126
21
-98.7531
0
LINE
8
BLACK
6
CONTINUOUS
10
53.6126
20
-98.7531
11
53.6247
21
-98.8013
0
LINE
8
BLACK
6
CONTINUOUS
10
53.6247
20
-98.8013
11
53.632
21
-98.8504
0
LINE
8
BLACK
6
CONTINUOUS
10
53.632
20
-98.8504
11
53.6344
21
-98.9
0
LINE
8
BLACK
6
CONTINUOUS
10
53.6344
20
-98.9
11
53.632
21
-98.9496
0
LINE
8
BLACK
6
CONTINUOUS
10
53.632
20
-98.9496
11
53.6247
21
-98.9987
0
LINE
8
BLACK
6
CONTINUOUS
10
53.6247
20
-98.9987
11
53.6126
21
-99.0469
0
LINE
8
BLACK
6
CONTINUOUS
10
53.6126
20
-99.0469
11
53.5959
21
-99.0937
0
LINE
8
BLACK
6
CONTINUOUS
10
53.5959
20
-99.0937
11
53.5747
21
-99.1386
0
LINE
8
BLACK
6
CONTINUOUS
10
53.5747
20
-99.1386
11
53.5491
21
-99.1812
0
LINE
8
BLACK
6
CONTINUOUS
10
53.5491
20
-99.1812
11
53.5196
21
-99.2211
0
LINE
8
BLACK
6
CONTINUOUS
10
53.5196
20
-99.2211
11
53.4862
21
-99.2579
0
LINE
8
BLACK
6
CONTINUOUS
10
53.4862
20
-99.2579
11
53.4494
21
-99.2912
0
LINE
8
BLACK
6
CONTINUOUS
10
53.4494
20
-99.2912
11
53.4095
21
-99.3208
0
LINE
8
BLACK
6
CONTINUOUS
10
53.4095
20
-99.3208
11
53.3669
21
-99.3463
0
LINE
8
BLACK
6
CONTINUOUS
10
53.3669
20
-99.3463
11
53.322
21
-99.3676
0
LINE
8
BLACK
6
CONTINUOUS
10
53.322
20
-99.3676
11
53.2753
21
-99.3843
0
LINE
8
BLACK
6
CONTINUOUS
10
53.2753
20
-99.3843
11
53.2271
21
-99.3964
0
LINE
8
BLACK
6
CONTINUOUS
10
53.2271
20
-99.3964
11
53.178
21
-99.4037
0
LINE
8
BLACK
6
CONTINUOUS
10
53.178
20
-99.4037
11
53.1283
21
-99.4061
0
LINE
8
BLACK
6
CONTINUOUS
10
53.1283
20
-99.4061
11
53.0887
21
-99.4061
0
LINE
8
BLACK
6
CONTINUOUS
10
53.0887
20
-99.4061
11
52.8153
21
-99.4061
0
LINE
8
BLACK
6
CONTINUOUS
10
52.8153
20
-99.4061
11
52.5
21
-99.4061
0
LINE
8
BLACK
6
CONTINUOUS
10
52.5
20
-99.4061
11
51.9523
21
-99.4061
0
LINE
8
BLACK
6
CONTINUOUS
10
51.9523
20
-99.4061
11
51.7113
21
-99.4061
0
LINE
8
BLACK
6
CONTINUOUS
10
51.7113
20
-99.4061
11
51.6717
21
-99.4061
0
LINE
8
BLACK
6
CONTINUOUS
10
51.6717
20
-99.4061
11
51.622
21
-99.4037
0
LINE
8
BLACK
6
CONTINUOUS
10
51.622
20
-99.4037
11
51.5729
21
-99.3964
0
LINE
8
BLACK
6
CONTINUOUS
10
51.5729
20
-99.3964
11
51.5247
21
-99.3843
0
LINE
8
BLACK
6
CONTINUOUS
10
51.5247
20
-99.3843
11
51.478
21
-99.3676
0
LINE
8
BLACK
6
CONTINUOUS
10
51.478
20
-99.3676
11
51.4331
21
-99.3463
0
LINE
8
BLACK
6
CONTINUOUS
10
51.4331
20
-99.3463
11
51.3905
21
-99.3208
0
LINE
8
BLACK
6
CONTINUOUS
10
51.3905
20
-99.3208
11
51.3506
21
-99.2912
0
LINE
8
BLACK
6
CONTINUOUS
10
51.3506
20
-99.2912
11
51.3138
21
-99.2579
0
LINE
8
BLACK
6
CONTINUOUS
10
51.3138
20
-99.2579
11
51.2804
21
-99.2211
0
LINE
8
BLACK
6
CONTINUOUS
10
51.2804
20
-99.2211
11
51.2509
21
-99.1812
0
LINE
8
BLACK
6
CONTINUOUS
10
51.2509
20
-99.1812
11
51.2253
21
-99.1386
0
LINE
8
BLACK
6
CONTINUOUS
10
51.2253
20
-99.1386
11
51.2041
21
-99.0937
0
LINE
8
BLACK
6
CONTINUOUS
10
51.2041
20
-99.0937
11
51.1874
21
-99.0469
0
LINE
8
BLACK
6
CONTINUOUS
10
51.1874
20
-99.0469
11
51.1753
21
-98.9987
0
LINE
8
BLACK
6
CONTINUOUS
10
51.1753
20
-98.9987
11
51.168
21
-98.9496
0
LINE
8
BLACK
6
CONTINUOUS
10
51.168
20
-98.9496
11
51.1656
21
-98.9
0
LINE
8
BLACK
6
CONTINUOUS
10
51.1656
20
-98.9
11
51.168
21
-98.8504
0
LINE
8
BLACK
6
CONTINUOUS
10
51.168
20
-98.8504
11
51.1753
21
-98.8013
0
LINE
8
BLACK
6
CONTINUOUS
10
51.1753
20
-98.8013
11
51.1874
21
-98.7531
0
LINE
8
BLACK
6
CONTINUOUS
10
51.1874
20
-98.7531
11
51.2041
21
-98.7063
0
LINE
8
BLACK
6
CONTINUOUS
10
51.2041
20
-98.7063
11
51.2253
21
-98.6614
0
LINE
8
BLACK
6
CONTINUOUS
10
51.2253
20
-98.6614
11
51.2509
21
-98.6188
0
LINE
8
BLACK
6
CONTINUOUS
10
51.2509
20
-98.6188
11
51.2804
21
-98.5789
0
LINE
8
BLACK
6
CONTINUOUS
10
51.2804
20
-98.5789
11
51.3138
21
-98.5421
0
LINE
8
BLACK
6
CONTINUOUS
10
51.3138
20
-98.5421
11
51.315
21
-98.541
0
LINE
8
BLACK
6
CONTINUOUS
10
51.315
20
-98.541
11
51.315
21
-97.615
0
LINE
8
BLACK
6
CONTINUOUS
10
51.315
20
-97.615
11
50.105
21
-97.615
0
LINE
8
BLACK
6
CONTINUOUS
10
50.105
20
-97.615
11
50.0626
21
-97.5974
0
LINE
8
BLACK
6
CONTINUOUS
10
50.0626
20
-97.5974
11
50.045
21
-97.555
0
LINE
8
BLACK
6
CONTINUOUS
10
50.045
20
-97.555
11
50.0626
21
-97.5126
0
LINE
8
BLACK
6
CONTINUOUS
10
50.0626
20
-97.5126
11
50.105
21
-97.495
0
LINE
8
BLACK
6
CONTINUOUS
10
50.105
20
-97.495
11
51.375
21
-97.495
0
LINE
8
BLACK
6
CONTINUOUS
10
51.9149
20
-98.5972
11
51.8666
21
-98.6119
0
LINE
8
BLACK
6
CONTINUOUS
10
51.8666
20
-98.6119
11
51.823
21
-98.6363
0
LINE
8
BLACK
6
CONTINUOUS
10
51.823
20
-98.6363
11
51.7856
21
-98.6704
0
LINE
8
BLACK
6
CONTINUOUS
10
51.7856
20
-98.6704
11
51.7549
21
-98.7141
0
LINE
8
BLACK
6
CONTINUOUS
10
51.7549
20
-98.7141
11
51.7313
21
-98.7671
0
LINE
8
BLACK
6
CONTINUOUS
10
51.7313
20
-98.7671
11
51.7163
21
-98.8292
0
LINE
8
BLACK
6
CONTINUOUS
10
51.7163
20
-98.8292
11
51.7113
21
-98.9
0
LINE
8
BLACK
6
CONTINUOUS
10
51.7113
20
-98.9
11
51.7156
21
-98.9716
0
LINE
8
BLACK
6
CONTINUOUS
10
51.7156
20
-98.9716
11
51.7285
21
-99.0338
0
LINE
8
BLACK
6
CONTINUOUS
10
51.7285
20
-99.0338
11
51.7492
21
-99.0867
0
LINE
8
BLACK
6
CONTINUOUS
10
51.7492
20
-99.0867
11
51.7771
21
-99.13
0
LINE
8
BLACK
6
CONTINUOUS
10
51.7771
20
-99.13
11
51.8117
21
-99.1638
0
LINE
8
BLACK
6
CONTINUOUS
10
51.8117
20
-99.1638
11
51.8528
21
-99.1881
0
LINE
8
BLACK
6
CONTINUOUS
10
51.8528
20
-99.1881
11
51.8998
21
-99.2028
0
LINE
8
BLACK
6
CONTINUOUS
10
51.8998
20
-99.2028
11
51.9523
21
-99.2077
0
LINE
8
BLACK
6
CONTINUOUS
10
51.9523
20
-99.2077
11
52.0105
21
-99.2053
0
LINE
8
BLACK
6
CONTINUOUS
10
52.0105
20
-99.2053
11
52.0595
21
-99.1981
0
LINE
8
BLACK
6
CONTINUOUS
10
52.0595
20
-99.1981
11
52.1247
21
-99.181
0
LINE
8
BLACK
6
CONTINUOUS
10
52.1247
20
-99.181
11
52.1247
21
-98.8867
0
LINE
8
BLACK
6
CONTINUOUS
10
52.1247
20
-98.8867
11
52.0076
21
-98.8867
0
LINE
8
BLACK
6
CONTINUOUS
10
52.0076
20
-98.8867
11
52.0076
21
-99.1019
0
LINE
8
BLACK
6
CONTINUOUS
10
52.0076
20
-99.1019
11
51.9847
21
-99.1048
0
LINE
8
BLACK
6
CONTINUOUS
10
51.9847
20
-99.1048
11
51.9618
21
-99.1057
0
LINE
8
BLACK
6
CONTINUOUS
10
51.9618
20
-99.1057
11
51.9049
21
-99.0932
0
LINE
8
BLACK
6
CONTINUOUS
10
51.9049
20
-99.0932
11
51.8637
21
-99.0557
0
LINE
8
BLACK
6
CONTINUOUS
10
51.8637
20
-99.0557
11
51.8452
21
-99.0162
0
LINE
8
BLACK
6
CONTINUOUS
10
51.8452
20
-99.0162
11
51.8341
21
-98.9643
0
LINE
8
BLACK
6
CONTINUOUS
10
51.8341
20
-98.9643
11
51.8304
21
-98.9
0
LINE
8
BLACK
6
CONTINUOUS
10
51.8304
20
-98.9
11
51.8324
21
-98.8563
0
LINE
8
BLACK
6
CONTINUOUS
10
51.8324
20
-98.8563
11
51.8385
21
-98.8167
0
LINE
8
BLACK
6
CONTINUOUS
10
51.8385
20
-98.8167
11
51.8652
21
-98.7519
0
LINE
8
BLACK
6
CONTINUOUS
10
51.8652
20
-98.7519
11
51.9123
21
-98.7095
0
LINE
8
BLACK
6
CONTINUOUS
10
51.9123
20
-98.7095
11
51.9828
21
-98.6943
0
LINE
8
BLACK
6
CONTINUOUS
10
51.9828
20
-98.6943
11
52.0457
21
-98.7047
0
LINE
8
BLACK
6
CONTINUOUS
10
52.0457
20
-98.7047
11
52.0971
21
-98.7285
0
LINE
8
BLACK
6
CONTINUOUS
10
52.0971
20
-98.7285
11
52.1276
21
-98.6352
0
LINE
8
BLACK
6
CONTINUOUS
10
52.1276
20
-98.6352
11
52.1081
21
-98.6238
0
LINE
8
BLACK
6
CONTINUOUS
10
52.1081
20
-98.6238
11
52.0752
21
-98.6095
0
LINE
8
BLACK
6
CONTINUOUS
10
52.0752
20
-98.6095
11
52.028
21
-98.5976
0
LINE
8
BLACK
6
CONTINUOUS
10
52.028
20
-98.5976
11
51.9666
21
-98.5923
0
LINE
8
BLACK
6
CONTINUOUS
10
51.9666
20
-98.5923
11
51.9149
21
-98.5972
0
LINE
8
BLACK
6
CONTINUOUS
10
52.7648
20
-98.6019
11
52.6896
21
-98.6133
0
LINE
8
BLACK
6
CONTINUOUS
10
52.6896
20
-98.6133
11
52.6896
21
-99.1886
0
LINE
8
BLACK
6
CONTINUOUS
10
52.6896
20
-99.1886
11
52.7539
21
-99.1996
0
LINE
8
BLACK
6
CONTINUOUS
10
52.7539
20
-99.1996
11
52.8153
21
-99.2029
0
LINE
8
BLACK
6
CONTINUOUS
10
52.8153
20
-99.2029
11
52.8728
21
-99.1987
0
LINE
8
BLACK
6
CONTINUOUS
10
52.8728
20
-99.1987
11
52.9253
21
-99.1862
0
LINE
8
BLACK
6
CONTINUOUS
10
52.9253
20
-99.1862
11
52.9719
21
-99.1647
0
LINE
8
BLACK
6
CONTINUOUS
10
52.9719
20
-99.1647
11
53.0115
21
-99.1334
0
LINE
8
BLACK
6
CONTINUOUS
10
53.0115
20
-99.1334
11
53.0438
21
-99.0918
0
LINE
8
BLACK
6
CONTINUOUS
10
53.0438
20
-99.0918
11
53.0682
21
-99.0395
0
LINE
8
BLACK
6
CONTINUOUS
10
53.0682
20
-99.0395
11
53.0835
21
-98.9758
0
LINE
8
BLACK
6
CONTINUOUS
10
53.0835
20
-98.9758
11
53.0887
21
-98.9
0
LINE
8
BLACK
6
CONTINUOUS
10
53.0887
20
-98.9
11
53.084
21
-98.8258
0
LINE
8
BLACK
6
CONTINUOUS
10
53.084
20
-98.8258
11
53.0701
21
-98.7633
0
LINE
8
BLACK
6
CONTINUOUS
10
53.0701
20
-98.7633
11
53.0478
21
-98.7116
0
LINE
8
BLACK
6
CONTINUOUS
10
53.0478
20
-98.7116
11
53.0182
21
-98.67
0
LINE
8
BLACK
6
CONTINUOUS
10
53.0182
20
-98.67
11
52.9811
21
-98.6382
0
LINE
8
BLACK
6
CONTINUOUS
10
52.9811
20
-98.6382
11
52.9367
21
-98.6162
0
LINE
8
BLACK
6
CONTINUOUS
10
52.9367
20
-98.6162
11
52.8861
21
-98.6033
0
LINE
8
BLACK
6
CONTINUOUS
10
52.8861
20
-98.6033
11
52.8305
21
-98.599
0
LINE
8
BLACK
6
CONTINUOUS
10
52.8305
20
-98.599
11
52.7648
21
-98.6019
0
LINE
8
BLACK
6
CONTINUOUS
10
52.2057
20
-99.1953
11
52.3114
21
-99.1953
0
LINE
8
BLACK
6
CONTINUOUS
10
52.3114
20
-99.1953
11
52.3114
21
-98.8038
0
LINE
8
BLACK
6
CONTINUOUS
10
52.3114
20
-98.8038
11
52.3468
21
-98.8691
0
LINE
8
BLACK
6
CONTINUOUS
10
52.3468
20
-98.8691
11
52.3806
21
-98.9344
0
LINE
8
BLACK
6
CONTINUOUS
10
52.3806
20
-98.9344
11
52.4129
21
-98.9995
0
LINE
8
BLACK
6
CONTINUOUS
10
52.4129
20
-98.9995
11
52.4435
21
-99.0647
0
LINE
8
BLACK
6
CONTINUOUS
10
52.4435
20
-99.0647
11
52.4725
21
-99.1299
0
LINE
8
BLACK
6
CONTINUOUS
10
52.4725
20
-99.1299
11
52.5
21
-99.1953
0
LINE
8
BLACK
6
CONTINUOUS
10
52.5
20
-99.1953
11
52.5943
21
-99.1953
0
LINE
8
BLACK
6
CONTINUOUS
10
52.5943
20
-99.1953
11
52.5943
21
-98.6057
0
LINE
8
BLACK
6
CONTINUOUS
10
52.5943
20
-98.6057
11
52.4886
21
-98.6057
0
LINE
8
BLACK
6
CONTINUOUS
10
52.4886
20
-98.6057
11
52.4886
21
-98.9686
0
LINE
8
BLACK
6
CONTINUOUS
10
52.4886
20
-98.9686
11
52.4718
21
-98.9314
0
LINE
8
BLACK
6
CONTINUOUS
10
52.4718
20
-98.9314
11
52.4519
21
-98.8886
0
LINE
8
BLACK
6
CONTINUOUS
10
52.4519
20
-98.8886
11
52.4295
21
-98.8421
0
LINE
8
BLACK
6
CONTINUOUS
10
52.4295
20
-98.8421
11
52.4052
21
-98.7943
0
LINE
8
BLACK
6
CONTINUOUS
10
52.4052
20
-98.7943
11
52.3796
21
-98.7456
0
LINE
8
BLACK
6
CONTINUOUS
10
52.3796
20
-98.7456
11
52.3533
21
-98.6966
0
LINE
8
BLACK
6
CONTINUOUS
10
52.3533
20
-98.6966
11
52.3267
21
-98.6494
0
LINE
8
BLACK
6
CONTINUOUS
10
52.3267
20
-98.6494
11
52.3
21
-98.6057
0
LINE
8
BLACK
6
CONTINUOUS
10
52.3
20
-98.6057
11
52.2057
21
-98.6057
0
LINE
8
BLACK
6
CONTINUOUS
10
52.2057
20
-98.6057
11
52.2057
21
-99.1953
0
LINE
8
BLACK
6
CONTINUOUS
10
107.805
20
-98.6176
11
107.844
21
-98.6619
0
LINE
8
BLACK
6
CONTINUOUS
10
107.844
20
-98.6619
11
107.864
21
-98.7257
0
LINE
8
BLACK
6
CONTINUOUS
10
107.864
20
-98.7257
11
107.87
21
-98.8
0
LINE
8
BLACK
6
CONTINUOUS
10
107.87
20
-98.8
11
107.868
21
-98.842
0
LINE
8
BLACK
6
CONTINUOUS
10
107.868
20
-98.842
11
107.862
21
-98.8805
0
LINE
8
BLACK
6
CONTINUOUS
10
107.862
20
-98.8805
11
107.839
21
-98.9438
0
LINE
8
BLACK
6
CONTINUOUS
10
107.839
20
-98.9438
11
107.795
21
-98.9857
0
LINE
8
BLACK
6
CONTINUOUS
10
107.795
20
-98.9857
11
107.728
21
-99.001
0
LINE
8
BLACK
6
CONTINUOUS
10
107.728
20
-99.001
11
107.717
21
-99.001
0
LINE
8
BLACK
6
CONTINUOUS
10
107.717
20
-99.001
11
107.707
21
-99
0
LINE
8
BLACK
6
CONTINUOUS
10
107.707
20
-99
11
107.707
21
-98.6038
0
LINE
8
BLACK
6
CONTINUOUS
10
107.707
20
-98.6038
11
107.724
21
-98.6014
0
LINE
8
BLACK
6
CONTINUOUS
10
107.724
20
-98.6014
11
107.741
21
-98.6009
0
LINE
8
BLACK
6
CONTINUOUS
10
107.741
20
-98.6009
11
107.805
21
-98.6176
0
LINE
8
BLACK
6
CONTINUOUS
10
106.245
20
-97.495
11
106.287
21
-97.5126
0
LINE
8
BLACK
6
CONTINUOUS
10
106.287
20
-97.5126
11
106.305
21
-97.555
0
LINE
8
BLACK
6
CONTINUOUS
10
106.305
20
-97.555
11
106.305
21
-98.3705
0
LINE
8
BLACK
6
CONTINUOUS
10
106.305
20
-98.3705
11
106.333
21
-98.3537
0
LINE
8
BLACK
6
CONTINUOUS
10
106.333
20
-98.3537
11
106.378
21
-98.3324
0
LINE
8
BLACK
6
CONTINUOUS
10
106.378
20
-98.3324
11
106.425
21
-98.3157
0
LINE
8
BLACK
6
CONTINUOUS
10
106.425
20
-98.3157
11
106.473
21
-98.3036
0
LINE
8
BLACK
6
CONTINUOUS
10
106.473
20
-98.3036
11
106.522
21
-98.2963
0
LINE
8
BLACK
6
CONTINUOUS
10
106.522
20
-98.2963
11
106.572
21
-98.2939
0
LINE
8
BLACK
6
CONTINUOUS
10
106.572
20
-98.2939
11
106.611
21
-98.2939
0
LINE
8
BLACK
6
CONTINUOUS
10
106.611
20
-98.2939
11
106.611
21
-98.2939
0
LINE
8
BLACK
6
CONTINUOUS
10
106.611
20
-98.2939
11
107.989
21
-98.2939
0
LINE
8
BLACK
6
CONTINUOUS
10
107.989
20
-98.2939
11
108.028
21
-98.2939
0
LINE
8
BLACK
6
CONTINUOUS
10
108.028
20
-98.2939
11
108.078
21
-98.2963
0
LINE
8
BLACK
6
CONTINUOUS
10
108.078
20
-98.2963
11
108.127
21
-98.3036
0
LINE
8
BLACK
6
CONTINUOUS
10
108.127
20
-98.3036
11
108.175
21
-98.3157
0
LINE
8
BLACK
6
CONTINUOUS
10
108.175
20
-98.3157
11
108.222
21
-98.3324
0
LINE
8
BLACK
6
CONTINUOUS
10
108.222
20
-98.3324
11
108.267
21
-98.3537
0
LINE
8
BLACK
6
CONTINUOUS
10
108.267
20
-98.3537
11
108.31
21
-98.3792
0
LINE
8
BLACK
6
CONTINUOUS
10
108.31
20
-98.3792
11
108.349
21
-98.4088
0
LINE
8
BLACK
6
CONTINUOUS
10
108.349
20
-98.4088
11
108.386
21
-98.4421
0
LINE
8
BLACK
6
CONTINUOUS
10
108.386
20
-98.4421
11
108.42
21
-98.4789
0
LINE
8
BLACK
6
CONTINUOUS
10
108.42
20
-98.4789
11
108.449
21
-98.5188
0
LINE
8
BLACK
6
CONTINUOUS
10
108.449
20
-98.5188
11
108.475
21
-98.5614
0
LINE
8
BLACK
6
CONTINUOUS
10
108.475
20
-98.5614
11
108.496
21
-98.6063
0
LINE
8
BLACK
6
CONTINUOUS
10
108.496
20
-98.6063
11
108.513
21
-98.6531
0
LINE
8
BLACK
6
CONTINUOUS
10
108.513
20
-98.6531
11
108.525
21
-98.7013
0
LINE
8
BLACK
6
CONTINUOUS
10
108.525
20
-98.7013
11
108.532
21
-98.7504
0
LINE
8
BLACK
6
CONTINUOUS
10
108.532
20
-98.7504
11
108.534
21
-98.8
0
LINE
8
BLACK
6
CONTINUOUS
10
108.534
20
-98.8
11
108.532
21
-98.8496
0
LINE
8
BLACK
6
CONTINUOUS
10
108.532
20
-98.8496
11
108.525
21
-98.8987
0
LINE
8
BLACK
6
CONTINUOUS
10
108.525
20
-98.8987
11
108.513
21
-98.9469
0
LINE
8
BLACK
6
CONTINUOUS
10
108.513
20
-98.9469
11
108.496
21
-98.9937
0
LINE
8
BLACK
6
CONTINUOUS
10
108.496
20
-98.9937
11
108.475
21
-99.0386
0
LINE
8
BLACK
6
CONTINUOUS
10
108.475
20
-99.0386
11
108.449
21
-99.0812
0
LINE
8
BLACK
6
CONTINUOUS
10
108.449
20
-99.0812
11
108.42
21
-99.1211
0
LINE
8
BLACK
6
CONTINUOUS
10
108.42
20
-99.1211
11
108.386
21
-99.1579
0
LINE
8
BLACK
6
CONTINUOUS
10
108.386
20
-99.1579
11
108.349
21
-99.1912
0
LINE
8
BLACK
6
CONTINUOUS
10
108.349
20
-99.1912
11
108.31
21
-99.2208
0
LINE
8
BLACK
6
CONTINUOUS
10
108.31
20
-99.2208
11
108.267
21
-99.2463
0
LINE
8
BLACK
6
CONTINUOUS
10
108.267
20
-99.2463
11
108.222
21
-99.2676
0
LINE
8
BLACK
6
CONTINUOUS
10
108.222
20
-99.2676
11
108.175
21
-99.2843
0
LINE
8
BLACK
6
CONTINUOUS
10
108.175
20
-99.2843
11
108.127
21
-99.2964
0
LINE
8
BLACK
6
CONTINUOUS
10
108.127
20
-99.2964
11
108.078
21
-99.3037
0
LINE
8
BLACK
6
CONTINUOUS
10
108.078
20
-99.3037
11
108.028
21
-99.3061
0
LINE
8
BLACK
6
CONTINUOUS
10
108.028
20
-99.3061
11
107.989
21
-99.3061
0
LINE
8
BLACK
6
CONTINUOUS
10
107.989
20
-99.3061
11
107.715
21
-99.3061
0
LINE
8
BLACK
6
CONTINUOUS
10
107.715
20
-99.3061
11
107.4
21
-99.3061
0
LINE
8
BLACK
6
CONTINUOUS
10
107.4
20
-99.3061
11
106.852
21
-99.3061
0
LINE
8
BLACK
6
CONTINUOUS
10
106.852
20
-99.3061
11
106.611
21
-99.3061
0
LINE
8
BLACK
6
CONTINUOUS
10
106.611
20
-99.3061
11
106.572
21
-99.3061
0
LINE
8
BLACK
6
CONTINUOUS
10
106.572
20
-99.3061
11
106.522
21
-99.3037
0
LINE
8
BLACK
6
CONTINUOUS
10
106.522
20
-99.3037
11
106.473
21
-99.2964
0
LINE
8
BLACK
6
CONTINUOUS
10
106.473
20
-99.2964
11
106.425
21
-99.2843
0
LINE
8
BLACK
6
CONTINUOUS
10
106.425
20
-99.2843
11
106.378
21
-99.2676
0
LINE
8
BLACK
6
CONTINUOUS
10
106.378
20
-99.2676
11
106.333
21
-99.2463
0
LINE
8
BLACK
6
CONTINUOUS
10
106.333
20
-99.2463
11
106.29
21
-99.2208
0
LINE
8
BLACK
6
CONTINUOUS
10
106.29
20
-99.2208
11
106.251
21
-99.1912
0
LINE
8
BLACK
6
CONTINUOUS
10
106.251
20
-99.1912
11
106.214
21
-99.1579
0
LINE
8
BLACK
6
CONTINUOUS
10
106.214
20
-99.1579
11
106.18
21
-99.1211
0
LINE
8
BLACK
6
CONTINUOUS
10
106.18
20
-99.1211
11
106.151
21
-99.0812
0
LINE
8
BLACK
6
CONTINUOUS
10
106.151
20
-99.0812
11
106.125
21
-99.0386
0
LINE
8
BLACK
6
CONTINUOUS
10
106.125
20
-99.0386
11
106.104
21
-98.9937
0
LINE
8
BLACK
6
CONTINUOUS
10
106.104
20
-98.9937
11
106.087
21
-98.9469
0
LINE
8
BLACK
6
CONTINUOUS
10
106.087
20
-98.9469
11
106.075
21
-98.8987
0
LINE
8
BLACK
6
CONTINUOUS
10
106.075
20
-98.8987
11
106.068
21
-98.8496
0
LINE
8
BLACK
6
CONTINUOUS
10
106.068
20
-98.8496
11
106.066
21
-98.8
0
LINE
8
BLACK
6
CONTINUOUS
10
106.066
20
-98.8
11
106.068
21
-98.7504
0
LINE
8
BLACK
6
CONTINUOUS
10
106.068
20
-98.7504
11
106.075
21
-98.7013
0
LINE
8
BLACK
6
CONTINUOUS
10
106.075
20
-98.7013
11
106.087
21
-98.6531
0
LINE
8
BLACK
6
CONTINUOUS
10
106.087
20
-98.6531
11
106.104
21
-98.6063
0
LINE
8
BLACK
6
CONTINUOUS
10
106.104
20
-98.6063
11
106.125
21
-98.5614
0
LINE
8
BLACK
6
CONTINUOUS
10
106.125
20
-98.5614
11
106.151
21
-98.5188
0
LINE
8
BLACK
6
CONTINUOUS
10
106.151
20
-98.5188
11
106.18
21
-98.4789
0
LINE
8
BLACK
6
CONTINUOUS
10
106.18
20
-98.4789
11
106.185
21
-98.4739
0
LINE
8
BLACK
6
CONTINUOUS
10
106.185
20
-98.4739
11
106.185
21
-97.615
0
LINE
8
BLACK
6
CONTINUOUS
10
106.185
20
-97.615
11
104.975
21
-97.615
0
LINE
8
BLACK
6
CONTINUOUS
10
104.975
20
-97.615
11
104.933
21
-97.5974
0
LINE
8
BLACK
6
CONTINUOUS
10
104.933
20
-97.5974
11
104.915
21
-97.555
0
LINE
8
BLACK
6
CONTINUOUS
10
104.915
20
-97.555
11
104.933
21
-97.5126
0
LINE
8
BLACK
6
CONTINUOUS
10
104.933
20
-97.5126
11
104.975
21
-97.495
0
LINE
8
BLACK
6
CONTINUOUS
10
104.975
20
-97.495
11
106.245
21
-97.495
0
LINE
8
BLACK
6
CONTINUOUS
10
106.815
20
-98.4972
11
106.767
21
-98.5119
0
LINE
8
BLACK
6
CONTINUOUS
10
106.767
20
-98.5119
11
106.723
21
-98.5363
0
LINE
8
BLACK
6
CONTINUOUS
10
106.723
20
-98.5363
11
106.686
21
-98.5704
0
LINE
8
BLACK
6
CONTINUOUS
10
106.686
20
-98.5704
11
106.655
21
-98.6141
0
LINE
8
BLACK
6
CONTINUOUS
10
106.655
20
-98.6141
11
106.631
21
-98.6671
0
LINE
8
BLACK
6
CONTINUOUS
10
106.631
20
-98.6671
11
106.616
21
-98.7292
0
LINE
8
BLACK
6
CONTINUOUS
10
106.616
20
-98.7292
11
106.611
21
-98.8
0
LINE
8
BLACK
6
CONTINUOUS
10
106.611
20
-98.8
11
106.616
21
-98.8716
0
LINE
8
BLACK
6
CONTINUOUS
10
106.616
20
-98.8716
11
106.628
21
-98.9338
0
LINE
8
BLACK
6
CONTINUOUS
10
106.628
20
-98.9338
11
106.649
21
-98.9867
0
LINE
8
BLACK
6
CONTINUOUS
10
106.649
20
-98.9867
11
106.677
21
-99.03
0
LINE
8
BLACK
6
CONTINUOUS
10
106.677
20
-99.03
11
106.712
21
-99.0638
0
LINE
8
BLACK
6
CONTINUOUS
10
106.712
20
-99.0638
11
106.753
21
-99.0881
0
LINE
8
BLACK
6
CONTINUOUS
10
106.753
20
-99.0881
11
106.8
21
-99.1028
0
LINE
8
BLACK
6
CONTINUOUS
10
106.8
20
-99.1028
11
106.852
21
-99.1077
0
LINE
8
BLACK
6
CONTINUOUS
10
106.852
20
-99.1077
11
106.911
21
-99.1053
0
LINE
8
BLACK
6
CONTINUOUS
10
106.911
20
-99.1053
11
106.959
21
-99.0981
0
LINE
8
BLACK
6
CONTINUOUS
10
106.959
20
-99.0981
11
107.025
21
-99.081
0
LINE
8
BLACK
6
CONTINUOUS
10
107.025
20
-99.081
11
107.025
21
-98.7867
0
LINE
8
BLACK
6
CONTINUOUS
10
107.025
20
-98.7867
11
106.908
21
-98.7867
0
LINE
8
BLACK
6
CONTINUOUS
10
106.908
20
-98.7867
11
106.908
21
-99.0019
0
LINE
8
BLACK
6
CONTINUOUS
10
106.908
20
-99.0019
11
106.885
21
-99.0048
0
LINE
8
BLACK
6
CONTINUOUS
10
106.885
20
-99.0048
11
106.862
21
-99.0057
0
LINE
8
BLACK
6
CONTINUOUS
10
106.862
20
-99.0057
11
106.805
21
-98.9932
0
LINE
8
BLACK
6
CONTINUOUS
10
106.805
20
-98.9932
11
106.764
21
-98.9557
0
LINE
8
BLACK
6
CONTINUOUS
10
106.764
20
-98.9557
11
106.745
21
-98.9162
0
LINE
8
BLACK
6
CONTINUOUS
10
106.745
20
-98.9162
11
106.734
21
-98.8643
0
LINE
8
BLACK
6
CONTINUOUS
10
106.734
20
-98.8643
11
106.73
21
-98.8
0
LINE
8
BLACK
6
CONTINUOUS
10
106.73
20
-98.8
11
106.732
21
-98.7563
0
LINE
8
BLACK
6
CONTINUOUS
10
106.732
20
-98.7563
11
106.739
21
-98.7167
0
LINE
8
BLACK
6
CONTINUOUS
10
106.739
20
-98.7167
11
106.765
21
-98.6519
0
LINE
8
BLACK
6
CONTINUOUS
10
106.765
20
-98.6519
11
106.812
21
-98.6095
0
LINE
8
BLACK
6
CONTINUOUS
10
106.812
20
-98.6095
11
106.883
21
-98.5943
0
LINE
8
BLACK
6
CONTINUOUS
10
106.883
20
-98.5943
11
106.946
21
-98.6047
0
LINE
8
BLACK
6
CONTINUOUS
10
106.946
20
-98.6047
11
106.997
21
-98.6285
0
LINE
8
BLACK
6
CONTINUOUS
10
106.997
20
-98.6285
11
107.028
21
-98.5352
0
LINE
8
BLACK
6
CONTINUOUS
10
107.028
20
-98.5352
11
107.008
21
-98.5238
0
LINE
8
BLACK
6
CONTINUOUS
10
107.008
20
-98.5238
11
106.975
21
-98.5095
0
LINE
8
BLACK
6
CONTINUOUS
10
106.975
20
-98.5095
11
106.928
21
-98.4976
0
LINE
8
BLACK
6
CONTINUOUS
10
106.928
20
-98.4976
11
106.867
21
-98.4923
0
LINE
8
BLACK
6
CONTINUOUS
10
106.867
20
-98.4923
11
106.815
21
-98.4972
0
LINE
8
BLACK
6
CONTINUOUS
10
107.665
20
-98.5019
11
107.59
21
-98.5133
0
LINE
8
BLACK
6
CONTINUOUS
10
107.59
20
-98.5133
11
107.59
21
-99.0886
0
LINE
8
BLACK
6
CONTINUOUS
10
107.59
20
-99.0886
11
107.654
21
-99.0996
0
LINE
8
BLACK
6
CONTINUOUS
10
107.654
20
-99.0996
11
107.715
21
-99.1029
0
LINE
8
BLACK
6
CONTINUOUS
10
107.715
20
-99.1029
11
107.773
21
-99.0987
0
LINE
8
BLACK
6
CONTINUOUS
10
107.773
20
-99.0987
11
107.825
21
-99.0862
0
LINE
8
BLACK
6
CONTINUOUS
10
107.825
20
-99.0862
11
107.872
21
-99.0647
0
LINE
8
BLACK
6
CONTINUOUS
10
107.872
20
-99.0647
11
107.912
21
-99.0334
0
LINE
8
BLACK
6
CONTINUOUS
10
107.912
20
-99.0334
11
107.944
21
-98.9918
0
LINE
8
BLACK
6
CONTINUOUS
10
107.944
20
-98.9918
11
107.968
21
-98.9395
0
LINE
8
BLACK
6
CONTINUOUS
10
107.968
20
-98.9395
11
107.984
21
-98.8758
0
LINE
8
BLACK
6
CONTINUOUS
10
107.984
20
-98.8758
11
107.989
21
-98.8
0
LINE
8
BLACK
6
CONTINUOUS
10
107.989
20
-98.8
11
107.984
21
-98.7258
0
LINE
8
BLACK
6
CONTINUOUS
10
107.984
20
-98.7258
11
107.97
21
-98.6633
0
LINE
8
BLACK
6
CONTINUOUS
10
107.97
20
-98.6633
11
107.948
21
-98.6116
0
LINE
8
BLACK
6
CONTINUOUS
10
107.948
20
-98.6116
11
107.918
21
-98.57
0
LINE
8
BLACK
6
CONTINUOUS
10
107.918
20
-98.57
11
107.881
21
-98.5382
0
LINE
8
BLACK
6
CONTINUOUS
10
107.881
20
-98.5382
11
107.837
21
-98.5162
0
LINE
8
BLACK
6
CONTINUOUS
10
107.837
20
-98.5162
11
107.786
21
-98.5033
0
LINE
8
BLACK
6
CONTINUOUS
10
107.786
20
-98.5033
11
107.731
21
-98.499
0
LINE
8
BLACK
6
CONTINUOUS
10
107.731
20
-98.499
11
107.665
21
-98.5019
0
LINE
8
BLACK
6
CONTINUOUS
10
107.106
20
-99.0953
11
107.211
21
-99.0953
0
LINE
8
BLACK
6
CONTINUOUS
10
107.211
20
-99.0953
11
107.211
21
-98.7038
0
LINE
8
BLACK
6
CONTINUOUS
10
107.211
20
-98.7038
11
107.247
21
-98.7691
0
LINE
8
BLACK
6
CONTINUOUS
10
107.247
20
-98.7691
11
107.281
21
-98.8344
0
LINE
8
BLACK
6
CONTINUOUS
10
107.281
20
-98.8344
11
107.313
21
-98.8995
0
LINE
8
BLACK
6
CONTINUOUS
10
107.313
20
-98.8995
11
107.343
21
-98.9647
0
LINE
8
BLACK
6
CONTINUOUS
10
107.343
20
-98.9647
11
107.373
21
-99.0299
0
LINE
8
BLACK
6
CONTINUOUS
10
107.373
20
-99.0299
11
107.4
21
-99.0953
0
LINE
8
BLACK
6
CONTINUOUS
10
107.4
20
-99.0953
11
107.494
21
-99.0953
0
LINE
8
BLACK
6
CONTINUOUS
10
107.494
20
-99.0953
11
107.494
21
-98.5057
0
LINE
8
BLACK
6
CONTINUOUS
10
107.494
20
-98.5057
11
107.389
21
-98.5057
0
LINE
8
BLACK
6
CONTINUOUS
10
107.389
20
-98.5057
11
107.389
21
-98.8686
0
LINE
8
BLACK
6
CONTINUOUS
10
107.389
20
-98.8686
11
107.372
21
-98.8314
0
LINE
8
BLACK
6
CONTINUOUS
10
107.372
20
-98.8314
11
107.352
21
-98.7886
0
LINE
8
BLACK
6
CONTINUOUS
10
107.352
20
-98.7886
11
107.33
21
-98.7421
0
LINE
8
BLACK
6
CONTINUOUS
10
107.33
20
-98.7421
11
107.305
21
-98.6943
0
LINE
8
BLACK
6
CONTINUOUS
10
107.305
20
-98.6943
11
107.28
21
-98.6456
0
LINE
8
BLACK
6
CONTINUOUS
10
107.28
20
-98.6456
11
107.253
21
-98.5966
0
LINE
8
BLACK
6
CONTINUOUS
10
107.253
20
-98.5966
11
107.227
21
-98.5494
0
LINE
8
BLACK
6
CONTINUOUS
10
107.227
20
-98.5494
11
107.2
21
-98.5057
0
LINE
8
BLACK
6
CONTINUOUS
10
107.2
20
-98.5057
11
107.106
21
-98.5057
0
LINE
8
BLACK
6
CONTINUOUS
10
107.106
20
-98.5057
11
107.106
21
-99.0953
0
LINE
8
BLACK
6
CONTINUOUS
10
42.1104
20
-98.3006
11
43.4896
21
-98.3006
0
LINE
8
BLACK
6
CONTINUOUS
10
43.4896
20
-98.3006
11
43.5293
21
-98.3006
0
LINE
8
BLACK
6
CONTINUOUS
10
43.5293
20
-98.3006
11
43.8622
21
-98.8
0
LINE
8
BLACK
6
CONTINUOUS
10
43.8622
20
-98.8
11
43.5293
21
-99.2994
0
LINE
8
BLACK
6
CONTINUOUS
10
43.5293
20
-99.2994
11
43.4896
21
-99.2994
0
LINE
8
BLACK
6
CONTINUOUS
10
43.4896
20
-99.2994
11
43.202
21
-99.2994
0
LINE
8
BLACK
6
CONTINUOUS
10
43.202
20
-99.2994
11
42.7409
21
-99.2994
0
LINE
8
BLACK
6
CONTINUOUS
10
42.7409
20
-99.2994
11
42.3609
21
-99.2994
0
LINE
8
BLACK
6
CONTINUOUS
10
42.3609
20
-99.2994
11
42.1104
21
-99.2994
0
LINE
8
BLACK
6
CONTINUOUS
10
42.1104
20
-99.2994
11
42.0707
21
-99.2994
0
LINE
8
BLACK
6
CONTINUOUS
10
42.0707
20
-99.2994
11
41.7378
21
-98.8
0
LINE
8
BLACK
6
CONTINUOUS
10
41.7378
20
-98.8
11
42.0707
21
-98.3006
0
LINE
8
BLACK
6
CONTINUOUS
10
42.0707
20
-98.3006
11
42.1104
21
-98.3006
0
LINE
8
BLACK
6
CONTINUOUS
10
42.1104
20
-98.3006
11
42.1104
21
-98.3006
0
LINE
8
BLACK
6
CONTINUOUS
10
42.6478
20
-98.5718
11
42.6428
21
-98.6471
0
LINE
8
BLACK
6
CONTINUOUS
10
42.6428
20
-98.6471
11
42.6362
21
-98.7246
0
LINE
8
BLACK
6
CONTINUOUS
10
42.6362
20
-98.7246
11
42.6276
21
-98.8038
0
LINE
8
BLACK
6
CONTINUOUS
10
42.6276
20
-98.8038
11
42.6931
21
-98.8058
0
LINE
8
BLACK
6
CONTINUOUS
10
42.6931
20
-98.8058
11
42.7448
21
-98.8119
0
LINE
8
BLACK
6
CONTINUOUS
10
42.7448
20
-98.8119
11
42.8138
21
-98.8348
0
LINE
8
BLACK
6
CONTINUOUS
10
42.8138
20
-98.8348
11
42.8462
21
-98.87
0
LINE
8
BLACK
6
CONTINUOUS
10
42.8462
20
-98.87
11
42.8543
21
-98.9153
0
LINE
8
BLACK
6
CONTINUOUS
10
42.8543
20
-98.9153
11
42.8495
21
-98.9467
0
LINE
8
BLACK
6
CONTINUOUS
10
42.8495
20
-98.9467
11
42.8319
21
-98.9738
0
LINE
8
BLACK
6
CONTINUOUS
10
42.8319
20
-98.9738
11
42.7967
21
-98.9934
0
LINE
8
BLACK
6
CONTINUOUS
10
42.7967
20
-98.9934
11
42.74
21
-99.001
0
LINE
8
BLACK
6
CONTINUOUS
10
42.74
20
-99.001
11
42.6955
21
-98.9988
0
LINE
8
BLACK
6
CONTINUOUS
10
42.6955
20
-98.9988
11
42.659
21
-98.9924
0
LINE
8
BLACK
6
CONTINUOUS
10
42.659
20
-98.9924
11
42.6057
21
-98.9734
0
LINE
8
BLACK
6
CONTINUOUS
10
42.6057
20
-98.9734
11
42.5819
21
-99.0705
0
LINE
8
BLACK
6
CONTINUOUS
10
42.5819
20
-99.0705
11
42.609
21
-99.081
0
LINE
8
BLACK
6
CONTINUOUS
10
42.609
20
-99.081
11
42.6486
21
-99.091
0
LINE
8
BLACK
6
CONTINUOUS
10
42.6486
20
-99.091
11
42.6943
21
-99.0981
0
LINE
8
BLACK
6
CONTINUOUS
10
42.6943
20
-99.0981
11
42.7409
21
-99.101
0
LINE
8
BLACK
6
CONTINUOUS
10
42.7409
20
-99.101
11
42.7955
21
-99.0974
0
LINE
8
BLACK
6
CONTINUOUS
10
42.7955
20
-99.0974
11
42.8429
21
-99.0867
0
LINE
8
BLACK
6
CONTINUOUS
10
42.8429
20
-99.0867
11
42.8831
21
-99.0696
0
LINE
8
BLACK
6
CONTINUOUS
10
42.8831
20
-99.0696
11
42.9162
21
-99.0467
0
LINE
8
BLACK
6
CONTINUOUS
10
42.9162
20
-99.0467
11
42.96
21
-98.9862
0
LINE
8
BLACK
6
CONTINUOUS
10
42.96
20
-98.9862
11
42.9743
21
-98.9105
0
LINE
8
BLACK
6
CONTINUOUS
10
42.9743
20
-98.9105
11
42.9679
21
-98.8552
0
LINE
8
BLACK
6
CONTINUOUS
10
42.9679
20
-98.8552
11
42.9485
21
-98.8089
0
LINE
8
BLACK
6
CONTINUOUS
10
42.9485
20
-98.8089
11
42.9162
21
-98.7714
0
LINE
8
BLACK
6
CONTINUOUS
10
42.9162
20
-98.7714
11
42.8708
21
-98.7431
0
LINE
8
BLACK
6
CONTINUOUS
10
42.8708
20
-98.7431
11
42.8121
21
-98.724
0
LINE
8
BLACK
6
CONTINUOUS
10
42.8121
20
-98.724
11
42.74
21
-98.7143
0
LINE
8
BLACK
6
CONTINUOUS
10
42.74
20
-98.7143
11
42.7448
21
-98.66
0
LINE
8
BLACK
6
CONTINUOUS
10
42.7448
20
-98.66
11
42.7495
21
-98.5962
0
LINE
8
BLACK
6
CONTINUOUS
10
42.7495
20
-98.5962
11
42.9524
21
-98.5962
0
LINE
8
BLACK
6
CONTINUOUS
10
42.9524
20
-98.5962
11
42.9524
21
-98.499
0
LINE
8
BLACK
6
CONTINUOUS
10
42.9524
20
-98.499
11
42.6514
21
-98.499
0
LINE
8
BLACK
6
CONTINUOUS
10
42.6514
20
-98.499
11
42.6478
21
-98.5718
0
LINE
8
BLACK
6
CONTINUOUS
10
43.0481
20
-98.5523
11
43.0638
21
-98.619
0
LINE
8
BLACK
6
CONTINUOUS
10
43.0638
20
-98.619
11
43.0764
21
-98.6689
0
LINE
8
BLACK
6
CONTINUOUS
10
43.0764
20
-98.6689
11
43.0901
21
-98.7208
0
LINE
8
BLACK
6
CONTINUOUS
10
43.0901
20
-98.7208
11
43.1048
21
-98.7748
0
LINE
8
BLACK
6
CONTINUOUS
10
43.1048
20
-98.7748
11
43.1204
21
-98.8297
0
LINE
8
BLACK
6
CONTINUOUS
10
43.1204
20
-98.8297
11
43.1365
21
-98.8848
0
LINE
8
BLACK
6
CONTINUOUS
10
43.1365
20
-98.8848
11
43.1534
21
-98.94
0
LINE
8
BLACK
6
CONTINUOUS
10
43.1534
20
-98.94
11
43.1784
21
-99.0186
0
LINE
8
BLACK
6
CONTINUOUS
10
43.1784
20
-99.0186
11
43.202
21
-99.0886
0
LINE
8
BLACK
6
CONTINUOUS
10
43.202
20
-99.0886
11
43.3229
21
-99.0886
0
LINE
8
BLACK
6
CONTINUOUS
10
43.3229
20
-99.0886
11
43.3411
21
-99.0379
0
LINE
8
BLACK
6
CONTINUOUS
10
43.3411
20
-99.0379
11
43.3589
21
-98.9859
0
LINE
8
BLACK
6
CONTINUOUS
10
43.3589
20
-98.9859
11
43.3763
21
-98.9329
0
LINE
8
BLACK
6
CONTINUOUS
10
43.3763
20
-98.9329
11
43.3929
21
-98.8795
0
LINE
8
BLACK
6
CONTINUOUS
10
43.3929
20
-98.8795
11
43.4086
21
-98.8268
0
LINE
8
BLACK
6
CONTINUOUS
10
43.4086
20
-98.8268
11
43.4234
21
-98.7748
0
LINE
8
BLACK
6
CONTINUOUS
10
43.4234
20
-98.7748
11
43.4437
21
-98.6989
0
LINE
8
BLACK
6
CONTINUOUS
10
43.4437
20
-98.6989
11
43.4615
21
-98.6266
0
LINE
8
BLACK
6
CONTINUOUS
10
43.4615
20
-98.6266
11
43.4769
21
-98.5595
0
LINE
8
BLACK
6
CONTINUOUS
10
43.4769
20
-98.5595
11
43.4896
21
-98.499
0
LINE
8
BLACK
6
CONTINUOUS
10
43.4896
20
-98.499
11
43.3667
21
-98.499
0
LINE
8
BLACK
6
CONTINUOUS
10
43.3667
20
-98.499
11
43.3582
21
-98.5485
0
LINE
8
BLACK
6
CONTINUOUS
10
43.3582
20
-98.5485
11
43.3477
21
-98.6057
0
LINE
8
BLACK
6
CONTINUOUS
10
43.3477
20
-98.6057
11
43.3358
21
-98.6675
0
LINE
8
BLACK
6
CONTINUOUS
10
43.3358
20
-98.6675
11
43.3229
21
-98.7309
0
LINE
8
BLACK
6
CONTINUOUS
10
43.3229
20
-98.7309
11
43.3091
21
-98.7948
0
LINE
8
BLACK
6
CONTINUOUS
10
43.3091
20
-98.7948
11
43.2943
21
-98.8576
0
LINE
8
BLACK
6
CONTINUOUS
10
43.2943
20
-98.8576
11
43.2791
21
-98.9166
0
LINE
8
BLACK
6
CONTINUOUS
10
43.2791
20
-98.9166
11
43.2639
21
-98.9686
0
LINE
8
BLACK
6
CONTINUOUS
10
43.2639
20
-98.9686
11
43.2485
21
-98.9158
0
LINE
8
BLACK
6
CONTINUOUS
10
43.2485
20
-98.9158
11
43.2329
21
-98.8567
0
LINE
8
BLACK
6
CONTINUOUS
10
43.2329
20
-98.8567
11
43.2177
21
-98.7938
0
LINE
8
BLACK
6
CONTINUOUS
10
43.2177
20
-98.7938
11
43.2034
21
-98.73
0
LINE
8
BLACK
6
CONTINUOUS
10
43.2034
20
-98.73
11
43.1902
21
-98.6666
0
LINE
8
BLACK
6
CONTINUOUS
10
43.1902
20
-98.6666
11
43.1781
21
-98.6052
0
LINE
8
BLACK
6
CONTINUOUS
10
43.1781
20
-98.6052
11
43.1681
21
-98.5484
0
LINE
8
BLACK
6
CONTINUOUS
10
43.1681
20
-98.5484
11
43.161
21
-98.499
0
LINE
8
BLACK
6
CONTINUOUS
10
43.161
20
-98.499
11
43.0372
21
-98.499
0
LINE
8
BLACK
6
CONTINUOUS
10
43.0372
20
-98.499
11
43.0481
21
-98.5523
0
LINE
8
BLACK
6
CONTINUOUS
10
42.2599
20
-98.7905
11
42.1104
21
-98.7905
0
LINE
8
BLACK
6
CONTINUOUS
10
42.1104
20
-98.7905
11
42.1104
21
-98.8867
0
LINE
8
BLACK
6
CONTINUOUS
10
42.1104
20
-98.8867
11
42.2599
21
-98.8867
0
LINE
8
BLACK
6
CONTINUOUS
10
42.2599
20
-98.8867
11
42.2599
21
-99.0524
0
LINE
8
BLACK
6
CONTINUOUS
10
42.2599
20
-99.0524
11
42.3609
21
-99.0524
0
LINE
8
BLACK
6
CONTINUOUS
10
42.3609
20
-99.0524
11
42.3609
21
-98.8867
0
LINE
8
BLACK
6
CONTINUOUS
10
42.3609
20
-98.8867
11
42.5104
21
-98.8867
0
LINE
8
BLACK
6
CONTINUOUS
10
42.5104
20
-98.8867
11
42.5104
21
-98.7905
0
LINE
8
BLACK
6
CONTINUOUS
10
42.5104
20
-98.7905
11
42.3609
21
-98.7905
0
LINE
8
BLACK
6
CONTINUOUS
10
42.3609
20
-98.7905
11
42.3609
21
-98.6247
0
LINE
8
BLACK
6
CONTINUOUS
10
42.3609
20
-98.6247
11
42.2599
21
-98.6247
0
LINE
8
BLACK
6
CONTINUOUS
10
42.2599
20
-98.6247
11
42.2599
21
-98.7905
0
LINE
8
BLACK
6
CONTINUOUS
10
96.9104
20
-98.3006
11
98.2896
21
-98.3006
0
LINE
8
BLACK
6
CONTINUOUS
10
98.2896
20
-98.3006
11
98.3293
21
-98.3006
0
LINE
8
BLACK
6
CONTINUOUS
10
98.3293
20
-98.3006
11
98.6622
21
-98.8
0
LINE
8
BLACK
6
CONTINUOUS
10
98.6622
20
-98.8
11
98.3293
21
-99.2994
0
LINE
8
BLACK
6
CONTINUOUS
10
98.3293
20
-99.2994
11
98.2896
21
-99.2994
0
LINE
8
BLACK
6
CONTINUOUS
10
98.2896
20
-99.2994
11
98.002
21
-99.2994
0
LINE
8
BLACK
6
CONTINUOUS
10
98.002
20
-99.2994
11
97.5409
21
-99.2994
0
LINE
8
BLACK
6
CONTINUOUS
10
97.5409
20
-99.2994
11
97.1609
21
-99.2994
0
LINE
8
BLACK
6
CONTINUOUS
10
97.1609
20
-99.2994
11
96.9104
21
-99.2994
0
LINE
8
BLACK
6
CONTINUOUS
10
96.9104
20
-99.2994
11
96.8707
21
-99.2994
0
LINE
8
BLACK
6
CONTINUOUS
10
96.8707
20
-99.2994
11
96.5378
21
-98.8
0
LINE
8
BLACK
6
CONTINUOUS
10
96.5378
20
-98.8
11
96.8707
21
-98.3006
0
LINE
8
BLACK
6
CONTINUOUS
10
96.8707
20
-98.3006
11
96.9104
21
-98.3006
0
LINE
8
BLACK
6
CONTINUOUS
10
96.9104
20
-98.3006
11
96.9104
21
-98.3006
0
LINE
8
BLACK
6
CONTINUOUS
10
97.4478
20
-98.5718
11
97.4428
21
-98.6471
0
LINE
8
BLACK
6
CONTINUOUS
10
97.4428
20
-98.6471
11
97.4362
21
-98.7246
0
LINE
8
BLACK
6
CONTINUOUS
10
97.4362
20
-98.7246
11
97.4276
21
-98.8038
0
LINE
8
BLACK
6
CONTINUOUS
10
97.4276
20
-98.8038
11
97.4931
21
-98.8058
0
LINE
8
BLACK
6
CONTINUOUS
10
97.4931
20
-98.8058
11
97.5448
21
-98.8119
0
LINE
8
BLACK
6
CONTINUOUS
10
97.5448
20
-98.8119
11
97.6138
21
-98.8348
0
LINE
8
BLACK
6
CONTINUOUS
10
97.6138
20
-98.8348
11
97.6462
21
-98.87
0
LINE
8
BLACK
6
CONTINUOUS
10
97.6462
20
-98.87
11
97.6543
21
-98.9153
0
LINE
8
BLACK
6
CONTINUOUS
10
97.6543
20
-98.9153
11
97.6495
21
-98.9467
0
LINE
8
BLACK
6
CONTINUOUS
10
97.6495
20
-98.9467
11
97.6319
21
-98.9738
0
LINE
8
BLACK
6
CONTINUOUS
10
97.6319
20
-98.9738
11
97.5967
21
-98.9934
0
LINE
8
BLACK
6
CONTINUOUS
10
97.5967
20
-98.9934
11
97.54
21
-99.001
0
LINE
8
BLACK
6
CONTINUOUS
10
97.54
20
-99.001
11
97.4955
21
-98.9988
0
LINE
8
BLACK
6
CONTINUOUS
10
97.4955
20
-98.9988
11
97.459
21
-98.9924
0
LINE
8
BLACK
6
CONTINUOUS
10
97.459
20
-98.9924
11
97.4057
21
-98.9734
0
LINE
8
BLACK
6
CONTINUOUS
10
97.4057
20
-98.9734
11
97.3819
21
-99.0705
0
LINE
8
BLACK
6
CONTINUOUS
10
97.3819
20
-99.0705
11
97.409
21
-99.081
0
LINE
8
BLACK
6
CONTINUOUS
10
97.409
20
-99.081
11
97.4486
21
-99.091
0
LINE
8
BLACK
6
CONTINUOUS
10
97.4486
20
-99.091
11
97.4943
21
-99.0981
0
LINE
8
BLACK
6
CONTINUOUS
10
97.4943
20
-99.0981
11
97.5409
21
-99.101
0
LINE
8
BLACK
6
CONTINUOUS
10
97.5409
20
-99.101
11
97.5955
21
-99.0974
0
LINE
8
BLACK
6
CONTINUOUS
10
97.5955
20
-99.0974
11
97.6429
21
-99.0867
0
LINE
8
BLACK
6
CONTINUOUS
10
97.6429
20
-99.0867
11
97.6831
21
-99.0696
0
LINE
8
BLACK
6
CONTINUOUS
10
97.6831
20
-99.0696
11
97.7162
21
-99.0467
0
LINE
8
BLACK
6
CONTINUOUS
10
97.7162
20
-99.0467
11
97.76
21
-98.9862
0
LINE
8
BLACK
6
CONTINUOUS
10
97.76
20
-98.9862
11
97.7743
21
-98.9105
0
LINE
8
BLACK
6
CONTINUOUS
10
97.7743
20
-98.9105
11
97.7679
21
-98.8552
0
LINE
8
BLACK
6
CONTINUOUS
10
97.7679
20
-98.8552
11
97.7485
21
-98.8089
0
LINE
8
BLACK
6
CONTINUOUS
10
97.7485
20
-98.8089
11
97.7162
21
-98.7714
0
LINE
8
BLACK
6
CONTINUOUS
10
97.7162
20
-98.7714
11
97.6708
21
-98.7431
0
LINE
8
BLACK
6
CONTINUOUS
10
97.6708
20
-98.7431
11
97.6121
21
-98.724
0
LINE
8
BLACK
6
CONTINUOUS
10
97.6121
20
-98.724
11
97.54
21
-98.7143
0
LINE
8
BLACK
6
CONTINUOUS
10
97.54
20
-98.7143
11
97.5448
21
-98.66
0
LINE
8
BLACK
6
CONTINUOUS
10
97.5448
20
-98.66
11
97.5495
21
-98.5962
0
LINE
8
BLACK
6
CONTINUOUS
10
97.5495
20
-98.5962
11
97.7524
21
-98.5962
0
LINE
8
BLACK
6
CONTINUOUS
10
97.7524
20
-98.5962
11
97.7524
21
-98.499
0
LINE
8
BLACK
6
CONTINUOUS
10
97.7524
20
-98.499
11
97.4514
21
-98.499
0
LINE
8
BLACK
6
CONTINUOUS
10
97.4514
20
-98.499
11
97.4478
21
-98.5718
0
LINE
8
BLACK
6
CONTINUOUS
10
97.8481
20
-98.5523
11
97.8638
21
-98.619
0
LINE
8
BLACK
6
CONTINUOUS
10
97.8638
20
-98.619
11
97.8764
21
-98.6689
0
LINE
8
BLACK
6
CONTINUOUS
10
97.8764
20
-98.6689
11
97.8901
21
-98.7208
0
LINE
8
BLACK
6
CONTINUOUS
10
97.8901
20
-98.7208
11
97.9048
21
-98.7748
0
LINE
8
BLACK
6
CONTINUOUS
10
97.9048
20
-98.7748
11
97.9204
21
-98.8297
0
LINE
8
BLACK
6
CONTINUOUS
10
97.9204
20
-98.8297
11
97.9365
21
-98.8848
0
LINE
8
BLACK
6
CONTINUOUS
10
97.9365
20
-98.8848
11
97.9534
21
-98.94
0
LINE
8
BLACK
6
CONTINUOUS
10
97.9534
20
-98.94
11
97.9784
21
-99.0186
0
LINE
8
BLACK
6
CONTINUOUS
10
97.9784
20
-99.0186
11
98.002
21
-99.0886
0
LINE
8
BLACK
6
CONTINUOUS
10
98.002
20
-99.0886
11
98.1229
21
-99.0886
0
LINE
8
BLACK
6
CONTINUOUS
10
98.1229
20
-99.0886
11
98.1411
21
-99.0379
0
LINE
8
BLACK
6
CONTINUOUS
10
98.1411
20
-99.0379
11
98.1589
21
-98.9859
0
LINE
8
BLACK
6
CONTINUOUS
10
98.1589
20
-98.9859
11
98.1763
21
-98.9329
0
LINE
8
BLACK
6
CONTINUOUS
10
98.1763
20
-98.9329
11
98.1929
21
-98.8795
0
LINE
8
BLACK
6
CONTINUOUS
10
98.1929
20
-98.8795
11
98.2086
21
-98.8268
0
LINE
8
BLACK
6
CONTINUOUS
10
98.2086
20
-98.8268
11
98.2234
21
-98.7748
0
LINE
8
BLACK
6
CONTINUOUS
10
98.2234
20
-98.7748
11
98.2437
21
-98.6989
0
LINE
8
BLACK
6
CONTINUOUS
10
98.2437
20
-98.6989
11
98.2615
21
-98.6266
0
LINE
8
BLACK
6
CONTINUOUS
10
98.2615
20
-98.6266
11
98.2769
21
-98.5595
0
LINE
8
BLACK
6
CONTINUOUS
10
98.2769
20
-98.5595
11
98.2896
21
-98.499
0
LINE
8
BLACK
6
CONTINUOUS
10
98.2896
20
-98.499
11
98.1667
21
-98.499
0
LINE
8
BLACK
6
CONTINUOUS
10
98.1667
20
-98.499
11
98.1582
21
-98.5485
0
LINE
8
BLACK
6
CONTINUOUS
10
98.1582
20
-98.5485
11
98.1477
21
-98.6057
0
LINE
8
BLACK
6
CONTINUOUS
10
98.1477
20
-98.6057
11
98.1358
21
-98.6675
0
LINE
8
BLACK
6
CONTINUOUS
10
98.1358
20
-98.6675
11
98.1229
21
-98.7309
0
LINE
8
BLACK
6
CONTINUOUS
10
98.1229
20
-98.7309
11
98.1091
21
-98.7948
0
LINE
8
BLACK
6
CONTINUOUS
10
98.1091
20
-98.7948
11
98.0943
21
-98.8576
0
LINE
8
BLACK
6
CONTINUOUS
10
98.0943
20
-98.8576
11
98.0791
21
-98.9166
0
LINE
8
BLACK
6
CONTINUOUS
10
98.0791
20
-98.9166
11
98.0639
21
-98.9686
0
LINE
8
BLACK
6
CONTINUOUS
10
98.0639
20
-98.9686
11
98.0485
21
-98.9158
0
LINE
8
BLACK
6
CONTINUOUS
10
98.0485
20
-98.9158
11
98.0329
21
-98.8567
0
LINE
8
BLACK
6
CONTINUOUS
10
98.0329
20
-98.8567
11
98.0177
21
-98.7938
0
LINE
8
BLACK
6
CONTINUOUS
10
98.0177
20
-98.7938
11
98.0034
21
-98.73
0
LINE
8
BLACK
6
CONTINUOUS
10
98.0034
20
-98.73
11
97.9902
21
-98.6666
0
LINE
8
BLACK
6
CONTINUOUS
10
97.9902
20
-98.6666
11
97.9781
21
-98.6052
0
LINE
8
BLACK
6
CONTINUOUS
10
97.9781
20
-98.6052
11
97.9681
21
-98.5484
0
LINE
8
BLACK
6
CONTINUOUS
10
97.9681
20
-98.5484
11
97.961
21
-98.499
0
LINE
8
BLACK
6
CONTINUOUS
10
97.961
20
-98.499
11
97.8372
21
-98.499
0
LINE
8
BLACK
6
CONTINUOUS
10
97.8372
20
-98.499
11
97.8481
21
-98.5523
0
LINE
8
BLACK
6
CONTINUOUS
10
97.0599
20
-98.7905
11
96.9104
21
-98.7905
0
LINE
8
BLACK
6
CONTINUOUS
10
96.9104
20
-98.7905
11
96.9104
21
-98.8867
0
LINE
8
BLACK
6
CONTINUOUS
10
96.9104
20
-98.8867
11
97.0599
21
-98.8867
0
LINE
8
BLACK
6
CONTINUOUS
10
97.0599
20
-98.8867
11
97.0599
21
-99.0524
0
LINE
8
BLACK
6
CONTINUOUS
10
97.0599
20
-99.0524
11
97.1609
21
-99.0524
0
LINE
8
BLACK
6
CONTINUOUS
10
97.1609
20
-99.0524
11
97.1609
21
-98.8867
0
LINE
8
BLACK
6
CONTINUOUS
10
97.1609
20
-98.8867
11
97.3104
21
-98.8867
0
LINE
8
BLACK
6
CONTINUOUS
10
97.3104
20
-98.8867
11
97.3104
21
-98.7905
0
LINE
8
BLACK
6
CONTINUOUS
10
97.3104
20
-98.7905
11
97.1609
21
-98.7905
0
LINE
8
BLACK
6
CONTINUOUS
10
97.1609
20
-98.7905
11
97.1609
21
-98.6247
0
LINE
8
BLACK
6
CONTINUOUS
10
97.1609
20
-98.6247
11
97.0599
21
-98.6247
0
LINE
8
BLACK
6
CONTINUOUS
10
97.0599
20
-98.6247
11
97.0599
21
-98.7905
  0
ENDSEC
  0
EOF
