%TF.GenerationSoftware,KiCad,Pcbnew,7.0.7*%
%TF.CreationDate,2023-11-13T13:38:28+01:00*%
%TF.ProjectId,Small_Wall,536d616c-6c5f-4576-916c-6c2e6b696361,rev?*%
%TF.SameCoordinates,Original*%
%TF.FileFunction,Profile,NP*%
%FSLAX46Y46*%
G04 Gerber Fmt 4.6, Leading zero omitted, Abs format (unit mm)*
G04 Created by KiCad (PCBNEW 7.0.7) date 2023-11-13 13:38:28*
%MOMM*%
%LPD*%
G01*
G04 APERTURE LIST*
%TA.AperFunction,Profile*%
%ADD10C,0.100000*%
%TD*%
G04 APERTURE END LIST*
D10*
X97400000Y-110000000D02*
X102600000Y-110000000D01*
X102600000Y-111600000D02*
X102600000Y-110000000D01*
X82600000Y-111600000D02*
X82600000Y-110000000D01*
X87400000Y-111600000D02*
X87400000Y-110000000D01*
X25000000Y-110000000D02*
X25000000Y-97000000D01*
X72600000Y-111600000D02*
X72600000Y-110000000D01*
X82600000Y-111600000D02*
X87400000Y-111600000D01*
X125000000Y-97000000D02*
X125000000Y-110000000D01*
X47400000Y-111600000D02*
X47400000Y-110000000D01*
X67400000Y-110000000D02*
X72600000Y-110000000D01*
X42600000Y-111600000D02*
X42600000Y-110000000D01*
X77400000Y-110000000D02*
X82600000Y-110000000D01*
X97400000Y-111600000D02*
X97400000Y-110000000D01*
X67400000Y-111600000D02*
X67400000Y-110000000D01*
X47400000Y-110000000D02*
X52600000Y-110000000D01*
X57400000Y-110000000D02*
X62600000Y-110000000D01*
X87400000Y-110000000D02*
X92600000Y-110000000D01*
X25000000Y-110000000D02*
X42600000Y-110000000D01*
X77400000Y-111600000D02*
X77400000Y-110000000D01*
X92600000Y-111600000D02*
X97400000Y-111600000D01*
X102600000Y-111600000D02*
X107400000Y-111600000D01*
X62600000Y-111600000D02*
X62600000Y-110000000D01*
X107400000Y-111600000D02*
X107400000Y-110000000D01*
X52600000Y-111600000D02*
X57400000Y-111600000D01*
X72600000Y-111600000D02*
X77400000Y-111600000D01*
X62600000Y-111600000D02*
X67400000Y-111600000D01*
X69500000Y-105300000D02*
X80500000Y-105300000D01*
X80500000Y-107000000D01*
X69500000Y-107000000D01*
X69500000Y-105300000D01*
X57400000Y-111600000D02*
X57400000Y-110000000D01*
X42600000Y-111600000D02*
X47400000Y-111600000D01*
X25000000Y-97000000D02*
X125000000Y-97000000D01*
X107400000Y-110000000D02*
X125000000Y-110000000D01*
X92600000Y-111600000D02*
X92600000Y-110000000D01*
X52600000Y-111600000D02*
X52600000Y-110000000D01*
M02*
