%TF.GenerationSoftware,KiCad,Pcbnew,7.0.7*%
%TF.CreationDate,2023-11-13T13:38:28+01:00*%
%TF.ProjectId,Small_Wall,536d616c-6c5f-4576-916c-6c2e6b696361,rev?*%
%TF.SameCoordinates,Original*%
%TF.FileFunction,Paste,Top*%
%TF.FilePolarity,Positive*%
%FSLAX46Y46*%
G04 Gerber Fmt 4.6, Leading zero omitted, Abs format (unit mm)*
G04 Created by KiCad (PCBNEW 7.0.7) date 2023-11-13 13:38:28*
%MOMM*%
%LPD*%
G01*
G04 APERTURE LIST*
G04 Aperture macros list*
%AMRoundRect*
0 Rectangle with rounded corners*
0 $1 Rounding radius*
0 $2 $3 $4 $5 $6 $7 $8 $9 X,Y pos of 4 corners*
0 Add a 4 corners polygon primitive as box body*
4,1,4,$2,$3,$4,$5,$6,$7,$8,$9,$2,$3,0*
0 Add four circle primitives for the rounded corners*
1,1,$1+$1,$2,$3*
1,1,$1+$1,$4,$5*
1,1,$1+$1,$6,$7*
1,1,$1+$1,$8,$9*
0 Add four rect primitives between the rounded corners*
20,1,$1+$1,$2,$3,$4,$5,0*
20,1,$1+$1,$4,$5,$6,$7,0*
20,1,$1+$1,$6,$7,$8,$9,0*
20,1,$1+$1,$8,$9,$2,$3,0*%
G04 Aperture macros list end*
%ADD10R,1.524000X1.143000*%
%ADD11O,1.524000X2.000000*%
%ADD12RoundRect,0.250000X0.475000X-0.250000X0.475000X0.250000X-0.475000X0.250000X-0.475000X-0.250000X0*%
%ADD13RoundRect,0.312500X-0.462500X-0.312500X0.462500X-0.312500X0.462500X0.312500X-0.462500X0.312500X0*%
%ADD14RoundRect,0.250000X-0.475000X0.250000X-0.475000X-0.250000X0.475000X-0.250000X0.475000X0.250000X0*%
%ADD15RoundRect,0.312500X0.462500X0.312500X-0.462500X0.312500X-0.462500X-0.312500X0.462500X-0.312500X0*%
G04 APERTURE END LIST*
D10*
%TO.C,J2*%
X101900000Y-109425000D03*
D11*
X101900000Y-108983800D03*
D10*
X100000000Y-109425000D03*
D11*
X100000000Y-108983800D03*
D10*
X98100000Y-109425000D03*
D11*
X98100000Y-108983800D03*
%TD*%
D10*
%TO.C,J4*%
X51900000Y-109400000D03*
D11*
X51900000Y-108958800D03*
D10*
X50000000Y-109400000D03*
D11*
X50000000Y-108958800D03*
D10*
X48100000Y-109400000D03*
D11*
X48100000Y-108958800D03*
%TD*%
D12*
%TO.C,C5*%
X42000000Y-103900000D03*
X42000000Y-102000000D03*
%TD*%
D13*
%TO.C,U1*%
X110050000Y-100150000D03*
X110050000Y-103850000D03*
X114950000Y-103850000D03*
X114950000Y-100150000D03*
%TD*%
D14*
%TO.C,C3*%
X70500000Y-100050000D03*
X70500000Y-101950000D03*
%TD*%
D13*
%TO.C,U4*%
X60050000Y-100150000D03*
X60050000Y-103850000D03*
X64950000Y-103850000D03*
X64950000Y-100150000D03*
%TD*%
D15*
%TO.C,U5*%
X39950000Y-103850000D03*
X39950000Y-100150000D03*
X35050000Y-100150000D03*
X35050000Y-103850000D03*
%TD*%
D14*
%TO.C,C1*%
X108300000Y-100250000D03*
X108300000Y-102150000D03*
%TD*%
%TO.C,C2*%
X83000000Y-100050000D03*
X83000000Y-101950000D03*
%TD*%
D13*
%TO.C,U3*%
X72550000Y-100150000D03*
X72550000Y-103850000D03*
X77450000Y-103850000D03*
X77450000Y-100150000D03*
%TD*%
%TO.C,U2*%
X85050000Y-100150000D03*
X85050000Y-103850000D03*
X89950000Y-103850000D03*
X89950000Y-100150000D03*
%TD*%
D14*
%TO.C,C4*%
X58000000Y-100050000D03*
X58000000Y-101950000D03*
%TD*%
M02*
