%TF.GenerationSoftware,KiCad,Pcbnew,7.0.7*%
%TF.CreationDate,2023-11-13T13:38:28+01:00*%
%TF.ProjectId,Small_Wall,536d616c-6c5f-4576-916c-6c2e6b696361,rev?*%
%TF.SameCoordinates,Original*%
%TF.FileFunction,Copper,L2,Bot*%
%TF.FilePolarity,Positive*%
%FSLAX46Y46*%
G04 Gerber Fmt 4.6, Leading zero omitted, Abs format (unit mm)*
G04 Created by KiCad (PCBNEW 7.0.7) date 2023-11-13 13:38:28*
%MOMM*%
%LPD*%
G01*
G04 APERTURE LIST*
%TA.AperFunction,ComponentPad*%
%ADD10R,1.700000X1.700000*%
%TD*%
%TA.AperFunction,ComponentPad*%
%ADD11O,1.700000X1.700000*%
%TD*%
%TA.AperFunction,ViaPad*%
%ADD12C,0.800000*%
%TD*%
%TA.AperFunction,Conductor*%
%ADD13C,0.500000*%
%TD*%
G04 APERTURE END LIST*
D10*
%TO.P,J1,1,Pin_1*%
%TO.N,GND*%
X104975000Y-98825000D03*
D11*
%TO.P,J1,2,Pin_2*%
%TO.N,Net-(J1-Pin_2)*%
X102435000Y-98825000D03*
%TO.P,J1,3,Pin_3*%
%TO.N,VDD*%
X99895000Y-98825000D03*
%TD*%
D10*
%TO.P,J3,1,Pin_1*%
%TO.N,GND*%
X50105000Y-98825000D03*
D11*
%TO.P,J3,2,Pin_2*%
%TO.N,Net-(J3-Pin_2)*%
X47565000Y-98825000D03*
%TO.P,J3,3,Pin_3*%
%TO.N,VDD*%
X45025000Y-98825000D03*
%TD*%
D12*
%TO.N,VDD*%
X45806978Y-108308300D03*
X106200000Y-101000000D03*
%TO.N,GND*%
X62500000Y-98000000D03*
X59000000Y-102000000D03*
X43800000Y-103300000D03*
X46100000Y-100900000D03*
X40900000Y-97800000D03*
X44000000Y-109000000D03*
X43800000Y-100800000D03*
X84000000Y-102250000D03*
X87500000Y-106000000D03*
X46200000Y-103600000D03*
X62500000Y-106000000D03*
X87500000Y-98000000D03*
X99600000Y-101500000D03*
X106100000Y-108800000D03*
X118300000Y-108300000D03*
X75000000Y-98000000D03*
X54400000Y-97800000D03*
X71500000Y-102000000D03*
X116500000Y-101900000D03*
%TO.N,Net-(JP6-B)*%
X55400000Y-103600000D03*
X35100000Y-106200000D03*
%TO.N,Net-(JP3-B)*%
X92700000Y-101100000D03*
X107800000Y-103800000D03*
%TD*%
D13*
%TO.N,VDD*%
X102070000Y-101000000D02*
X106200000Y-101000000D01*
X45806978Y-108308300D02*
X45025000Y-107526322D01*
X99895000Y-98825000D02*
X102070000Y-101000000D01*
X45025000Y-107526322D02*
X45025000Y-98825000D01*
%TO.N,Net-(JP6-B)*%
X45400000Y-110200000D02*
X46000000Y-110200000D01*
X46000000Y-110200000D02*
X52600000Y-103600000D01*
X52600000Y-103600000D02*
X55400000Y-103600000D01*
X44956978Y-109756978D02*
X45400000Y-110200000D01*
X44956978Y-108556978D02*
X44956978Y-109756978D01*
X35100000Y-106200000D02*
X35300000Y-106400000D01*
X42800000Y-106400000D02*
X44956978Y-108556978D01*
X35300000Y-106400000D02*
X42800000Y-106400000D01*
%TO.N,Net-(JP3-B)*%
X95400000Y-103800000D02*
X92700000Y-101100000D01*
X107800000Y-103800000D02*
X95400000Y-103800000D01*
%TD*%
%TA.AperFunction,Conductor*%
%TO.N,GND*%
G36*
X124942539Y-97020185D02*
G01*
X124988294Y-97072989D01*
X124999500Y-97124500D01*
X124999500Y-109875500D01*
X124979815Y-109942539D01*
X124927011Y-109988294D01*
X124875500Y-109999500D01*
X107424760Y-109999500D01*
X107424554Y-109999459D01*
X107400000Y-109999459D01*
X107399901Y-109999500D01*
X107399617Y-109999616D01*
X107399615Y-109999618D01*
X107399459Y-109999999D01*
X107399476Y-110024616D01*
X107399471Y-110024616D01*
X107399500Y-110024759D01*
X107399500Y-111475500D01*
X107379815Y-111542539D01*
X107327011Y-111588294D01*
X107275500Y-111599500D01*
X102724500Y-111599500D01*
X102657461Y-111579815D01*
X102611706Y-111527011D01*
X102600500Y-111475500D01*
X102600500Y-110024759D01*
X102600528Y-110024616D01*
X102600524Y-110024616D01*
X102600539Y-110000002D01*
X102600541Y-110000000D01*
X102600462Y-109999808D01*
X102600384Y-109999618D01*
X102600382Y-109999616D01*
X102600099Y-109999500D01*
X102600000Y-109999459D01*
X102575446Y-109999459D01*
X102575240Y-109999500D01*
X97424760Y-109999500D01*
X97424554Y-109999459D01*
X97400000Y-109999459D01*
X97399901Y-109999500D01*
X97399617Y-109999616D01*
X97399615Y-109999618D01*
X97399459Y-109999999D01*
X97399476Y-110024616D01*
X97399471Y-110024616D01*
X97399500Y-110024759D01*
X97399500Y-111475500D01*
X97379815Y-111542539D01*
X97327011Y-111588294D01*
X97275500Y-111599500D01*
X92724500Y-111599500D01*
X92657461Y-111579815D01*
X92611706Y-111527011D01*
X92600500Y-111475500D01*
X92600500Y-110024759D01*
X92600528Y-110024616D01*
X92600524Y-110024616D01*
X92600539Y-110000002D01*
X92600541Y-110000000D01*
X92600462Y-109999808D01*
X92600384Y-109999618D01*
X92600382Y-109999616D01*
X92600099Y-109999500D01*
X92600000Y-109999459D01*
X92575446Y-109999459D01*
X92575240Y-109999500D01*
X87424760Y-109999500D01*
X87424554Y-109999459D01*
X87400000Y-109999459D01*
X87399901Y-109999500D01*
X87399617Y-109999616D01*
X87399615Y-109999618D01*
X87399459Y-109999999D01*
X87399476Y-110024616D01*
X87399471Y-110024616D01*
X87399500Y-110024759D01*
X87399500Y-111475500D01*
X87379815Y-111542539D01*
X87327011Y-111588294D01*
X87275500Y-111599500D01*
X82724500Y-111599500D01*
X82657461Y-111579815D01*
X82611706Y-111527011D01*
X82600500Y-111475500D01*
X82600500Y-110024759D01*
X82600528Y-110024616D01*
X82600524Y-110024616D01*
X82600539Y-110000002D01*
X82600541Y-110000000D01*
X82600462Y-109999808D01*
X82600384Y-109999618D01*
X82600382Y-109999616D01*
X82600099Y-109999500D01*
X82600000Y-109999459D01*
X82575446Y-109999459D01*
X82575240Y-109999500D01*
X77424760Y-109999500D01*
X77424554Y-109999459D01*
X77400000Y-109999459D01*
X77399901Y-109999500D01*
X77399617Y-109999616D01*
X77399615Y-109999618D01*
X77399459Y-109999999D01*
X77399476Y-110024616D01*
X77399471Y-110024616D01*
X77399500Y-110024759D01*
X77399500Y-111475500D01*
X77379815Y-111542539D01*
X77327011Y-111588294D01*
X77275500Y-111599500D01*
X72724500Y-111599500D01*
X72657461Y-111579815D01*
X72611706Y-111527011D01*
X72600500Y-111475500D01*
X72600500Y-110024759D01*
X72600528Y-110024616D01*
X72600524Y-110024616D01*
X72600539Y-110000002D01*
X72600541Y-110000000D01*
X72600462Y-109999808D01*
X72600384Y-109999618D01*
X72600382Y-109999616D01*
X72600099Y-109999500D01*
X72600000Y-109999459D01*
X72575446Y-109999459D01*
X72575240Y-109999500D01*
X67424760Y-109999500D01*
X67424554Y-109999459D01*
X67400000Y-109999459D01*
X67399901Y-109999500D01*
X67399617Y-109999616D01*
X67399615Y-109999618D01*
X67399459Y-109999999D01*
X67399476Y-110024616D01*
X67399471Y-110024616D01*
X67399500Y-110024759D01*
X67399500Y-111475500D01*
X67379815Y-111542539D01*
X67327011Y-111588294D01*
X67275500Y-111599500D01*
X62724500Y-111599500D01*
X62657461Y-111579815D01*
X62611706Y-111527011D01*
X62600500Y-111475500D01*
X62600500Y-110024759D01*
X62600528Y-110024616D01*
X62600524Y-110024616D01*
X62600539Y-110000002D01*
X62600541Y-110000000D01*
X62600462Y-109999808D01*
X62600384Y-109999618D01*
X62600382Y-109999616D01*
X62600099Y-109999500D01*
X62600000Y-109999459D01*
X62575446Y-109999459D01*
X62575240Y-109999500D01*
X57424760Y-109999500D01*
X57424554Y-109999459D01*
X57400000Y-109999459D01*
X57399901Y-109999500D01*
X57399617Y-109999616D01*
X57399615Y-109999618D01*
X57399459Y-109999999D01*
X57399476Y-110024616D01*
X57399471Y-110024616D01*
X57399500Y-110024759D01*
X57399500Y-111475500D01*
X57379815Y-111542539D01*
X57327011Y-111588294D01*
X57275500Y-111599500D01*
X52724500Y-111599500D01*
X52657461Y-111579815D01*
X52611706Y-111527011D01*
X52600500Y-111475500D01*
X52600500Y-110024759D01*
X52600528Y-110024616D01*
X52600524Y-110024616D01*
X52600539Y-110000002D01*
X52600541Y-110000000D01*
X52600462Y-109999808D01*
X52600384Y-109999618D01*
X52600382Y-109999616D01*
X52600099Y-109999500D01*
X52600000Y-109999459D01*
X52575446Y-109999459D01*
X52575240Y-109999500D01*
X47561230Y-109999500D01*
X47494191Y-109979815D01*
X47448436Y-109927011D01*
X47438492Y-109857853D01*
X47467517Y-109794297D01*
X47473549Y-109787819D01*
X50285478Y-106975889D01*
X69499416Y-106975889D01*
X69499459Y-107000001D01*
X69499500Y-107000099D01*
X69499616Y-107000382D01*
X69499618Y-107000384D01*
X69499808Y-107000462D01*
X69500000Y-107000541D01*
X69500002Y-107000539D01*
X69524616Y-107000524D01*
X69524616Y-107000528D01*
X69524760Y-107000500D01*
X80475240Y-107000500D01*
X80475383Y-107000528D01*
X80475384Y-107000524D01*
X80499997Y-107000539D01*
X80500000Y-107000541D01*
X80500383Y-107000383D01*
X80500500Y-107000099D01*
X80500541Y-107000000D01*
X80500540Y-106999997D01*
X80500583Y-106975889D01*
X80500500Y-106975467D01*
X80500500Y-105324759D01*
X80500528Y-105324616D01*
X80500524Y-105324616D01*
X80500539Y-105300002D01*
X80500541Y-105300000D01*
X80500462Y-105299808D01*
X80500384Y-105299618D01*
X80500382Y-105299616D01*
X80500099Y-105299500D01*
X80500000Y-105299459D01*
X80475446Y-105299459D01*
X80475240Y-105299500D01*
X69524760Y-105299500D01*
X69524554Y-105299459D01*
X69500000Y-105299459D01*
X69499901Y-105299500D01*
X69499617Y-105299616D01*
X69499615Y-105299618D01*
X69499459Y-105299999D01*
X69499476Y-105324616D01*
X69499471Y-105324616D01*
X69499500Y-105324759D01*
X69499500Y-106975467D01*
X69499416Y-106975889D01*
X50285478Y-106975889D01*
X52874548Y-104386819D01*
X52935871Y-104353334D01*
X52962229Y-104350500D01*
X54860663Y-104350500D01*
X54927702Y-104370185D01*
X54933548Y-104374182D01*
X54947265Y-104384148D01*
X54947270Y-104384151D01*
X55120192Y-104461142D01*
X55120197Y-104461144D01*
X55305354Y-104500500D01*
X55305355Y-104500500D01*
X55494644Y-104500500D01*
X55494646Y-104500500D01*
X55679803Y-104461144D01*
X55852730Y-104384151D01*
X56005871Y-104272888D01*
X56132533Y-104132216D01*
X56227179Y-103968284D01*
X56285674Y-103788256D01*
X56305460Y-103600000D01*
X56285674Y-103411744D01*
X56227179Y-103231716D01*
X56132533Y-103067784D01*
X56005871Y-102927112D01*
X56005870Y-102927111D01*
X55852734Y-102815851D01*
X55852729Y-102815848D01*
X55679807Y-102738857D01*
X55679802Y-102738855D01*
X55534001Y-102707865D01*
X55494646Y-102699500D01*
X55305354Y-102699500D01*
X55272897Y-102706398D01*
X55120197Y-102738855D01*
X55120192Y-102738857D01*
X54947270Y-102815848D01*
X54947265Y-102815851D01*
X54933548Y-102825818D01*
X54867742Y-102849298D01*
X54860663Y-102849500D01*
X52663708Y-102849500D01*
X52645737Y-102848191D01*
X52621979Y-102844711D01*
X52621973Y-102844710D01*
X52576903Y-102848654D01*
X52569931Y-102849264D01*
X52564530Y-102849500D01*
X52556289Y-102849500D01*
X52534579Y-102852037D01*
X52523724Y-102853306D01*
X52508419Y-102854645D01*
X52447199Y-102860001D01*
X52440132Y-102861460D01*
X52440120Y-102861404D01*
X52432763Y-102863035D01*
X52432777Y-102863092D01*
X52425743Y-102864759D01*
X52353575Y-102891025D01*
X52280675Y-102915181D01*
X52274126Y-102918236D01*
X52274101Y-102918183D01*
X52267308Y-102921471D01*
X52267334Y-102921523D01*
X52260880Y-102924764D01*
X52196708Y-102966971D01*
X52131347Y-103007285D01*
X52125683Y-103011765D01*
X52125647Y-103011719D01*
X52119798Y-103016484D01*
X52119835Y-103016528D01*
X52114310Y-103021164D01*
X52114304Y-103021169D01*
X52114304Y-103021170D01*
X52070325Y-103067784D01*
X52061597Y-103077035D01*
X46907477Y-108231153D01*
X46846154Y-108264638D01*
X46776462Y-108259654D01*
X46720529Y-108217782D01*
X46696476Y-108156435D01*
X46692652Y-108120044D01*
X46634157Y-107940016D01*
X46539511Y-107776084D01*
X46412849Y-107635412D01*
X46412848Y-107635411D01*
X46259712Y-107524151D01*
X46259707Y-107524148D01*
X46086785Y-107447157D01*
X46086780Y-107447155D01*
X46021647Y-107433311D01*
X45960165Y-107400118D01*
X45959747Y-107399702D01*
X45811818Y-107251773D01*
X45778333Y-107190450D01*
X45775499Y-107164092D01*
X45775499Y-103600000D01*
X45775499Y-101100000D01*
X91794540Y-101100000D01*
X91814326Y-101288256D01*
X91814327Y-101288259D01*
X91872818Y-101468277D01*
X91872821Y-101468284D01*
X91967467Y-101632216D01*
X92058019Y-101732784D01*
X92094129Y-101772888D01*
X92247265Y-101884148D01*
X92247270Y-101884151D01*
X92420191Y-101961142D01*
X92420193Y-101961142D01*
X92420197Y-101961144D01*
X92485329Y-101974987D01*
X92546809Y-102008178D01*
X92547228Y-102008596D01*
X94824267Y-104285634D01*
X94836048Y-104299266D01*
X94850390Y-104318530D01*
X94890420Y-104352119D01*
X94894392Y-104355759D01*
X94900224Y-104361591D01*
X94900227Y-104361594D01*
X94925947Y-104381931D01*
X94984788Y-104431304D01*
X94990818Y-104435270D01*
X94990785Y-104435319D01*
X94997143Y-104439369D01*
X94997175Y-104439319D01*
X95003320Y-104443109D01*
X95003323Y-104443111D01*
X95072936Y-104475572D01*
X95141567Y-104510040D01*
X95141572Y-104510041D01*
X95148361Y-104512513D01*
X95148340Y-104512570D01*
X95155455Y-104515043D01*
X95155475Y-104514986D01*
X95162330Y-104517258D01*
X95237557Y-104532790D01*
X95237558Y-104532790D01*
X95312279Y-104550500D01*
X95312289Y-104550500D01*
X95319452Y-104551338D01*
X95319444Y-104551397D01*
X95326945Y-104552164D01*
X95326951Y-104552105D01*
X95334140Y-104552734D01*
X95334144Y-104552733D01*
X95334145Y-104552734D01*
X95410918Y-104550500D01*
X107260663Y-104550500D01*
X107327702Y-104570185D01*
X107333548Y-104574182D01*
X107347265Y-104584148D01*
X107347270Y-104584151D01*
X107520192Y-104661142D01*
X107520197Y-104661144D01*
X107705354Y-104700500D01*
X107705355Y-104700500D01*
X107894644Y-104700500D01*
X107894646Y-104700500D01*
X108079803Y-104661144D01*
X108252730Y-104584151D01*
X108405871Y-104472888D01*
X108532533Y-104332216D01*
X108627179Y-104168284D01*
X108685674Y-103988256D01*
X108705460Y-103800000D01*
X108685674Y-103611744D01*
X108627179Y-103431716D01*
X108532533Y-103267784D01*
X108405871Y-103127112D01*
X108336946Y-103077035D01*
X108252734Y-103015851D01*
X108252729Y-103015848D01*
X108079807Y-102938857D01*
X108079802Y-102938855D01*
X107934001Y-102907865D01*
X107894646Y-102899500D01*
X107705354Y-102899500D01*
X107672897Y-102906398D01*
X107520197Y-102938855D01*
X107520192Y-102938857D01*
X107347270Y-103015848D01*
X107347265Y-103015851D01*
X107333548Y-103025818D01*
X107267742Y-103049298D01*
X107260663Y-103049500D01*
X95762229Y-103049500D01*
X95695190Y-103029815D01*
X95674548Y-103013181D01*
X94643991Y-101982624D01*
X93612770Y-100951402D01*
X93582521Y-100902041D01*
X93527179Y-100731716D01*
X93432533Y-100567784D01*
X93305871Y-100427112D01*
X93305870Y-100427111D01*
X93152734Y-100315851D01*
X93152729Y-100315848D01*
X92979807Y-100238857D01*
X92979802Y-100238855D01*
X92834001Y-100207865D01*
X92794646Y-100199500D01*
X92605354Y-100199500D01*
X92572897Y-100206398D01*
X92420197Y-100238855D01*
X92420192Y-100238857D01*
X92247270Y-100315848D01*
X92247265Y-100315851D01*
X92094129Y-100427111D01*
X91967466Y-100567785D01*
X91872821Y-100731715D01*
X91872818Y-100731722D01*
X91817479Y-100902039D01*
X91814326Y-100911744D01*
X91794540Y-101100000D01*
X45775499Y-101100000D01*
X45775499Y-100012696D01*
X45795184Y-99945661D01*
X45828372Y-99911128D01*
X45896401Y-99863495D01*
X46063495Y-99696401D01*
X46193426Y-99510840D01*
X46248001Y-99467217D01*
X46317499Y-99460023D01*
X46379854Y-99491546D01*
X46396574Y-99510841D01*
X46526505Y-99696401D01*
X46693599Y-99863495D01*
X46761620Y-99911124D01*
X46887165Y-99999032D01*
X46887167Y-99999033D01*
X46887170Y-99999035D01*
X47101337Y-100098903D01*
X47329592Y-100160063D01*
X47517918Y-100176539D01*
X47564999Y-100180659D01*
X47565000Y-100180659D01*
X47565001Y-100180659D01*
X47606696Y-100177011D01*
X47800408Y-100160063D01*
X48028663Y-100098903D01*
X48242830Y-99999035D01*
X48436401Y-99863495D01*
X48558717Y-99741178D01*
X48620036Y-99707696D01*
X48689728Y-99712680D01*
X48745662Y-99754551D01*
X48762577Y-99785528D01*
X48811646Y-99917088D01*
X48811649Y-99917093D01*
X48897809Y-100032187D01*
X48897812Y-100032190D01*
X49012906Y-100118350D01*
X49012913Y-100118354D01*
X49147620Y-100168596D01*
X49147627Y-100168598D01*
X49207155Y-100174999D01*
X49207172Y-100175000D01*
X49854999Y-100175000D01*
X49854999Y-99437301D01*
X49874683Y-99370262D01*
X49927487Y-99324507D01*
X49996646Y-99314563D01*
X50003380Y-99315531D01*
X50069237Y-99325000D01*
X50069238Y-99325000D01*
X50140762Y-99325000D01*
X50140763Y-99325000D01*
X50213353Y-99314563D01*
X50282512Y-99324507D01*
X50335315Y-99370262D01*
X50355000Y-99437301D01*
X50355000Y-100175000D01*
X51002828Y-100175000D01*
X51002844Y-100174999D01*
X51062372Y-100168598D01*
X51062379Y-100168596D01*
X51197086Y-100118354D01*
X51197093Y-100118350D01*
X51312187Y-100032190D01*
X51312190Y-100032187D01*
X51398350Y-99917093D01*
X51398354Y-99917086D01*
X51448596Y-99782379D01*
X51448598Y-99782372D01*
X51454999Y-99722844D01*
X51455000Y-99722827D01*
X51455000Y-99075000D01*
X50718347Y-99075000D01*
X50651308Y-99055315D01*
X50605553Y-99002511D01*
X50595609Y-98933353D01*
X50599369Y-98916067D01*
X50605000Y-98896888D01*
X50605000Y-98825000D01*
X98539341Y-98825000D01*
X98559936Y-99060403D01*
X98559938Y-99060413D01*
X98621094Y-99288655D01*
X98621096Y-99288659D01*
X98621097Y-99288663D01*
X98690408Y-99437301D01*
X98720965Y-99502830D01*
X98720967Y-99502834D01*
X98829281Y-99657521D01*
X98856505Y-99696401D01*
X99023599Y-99863495D01*
X99091620Y-99911124D01*
X99217165Y-99999032D01*
X99217167Y-99999033D01*
X99217170Y-99999035D01*
X99431337Y-100098903D01*
X99659592Y-100160063D01*
X99847918Y-100176539D01*
X99894999Y-100180659D01*
X99895000Y-100180659D01*
X99895001Y-100180659D01*
X99936696Y-100177011D01*
X100108013Y-100162022D01*
X100176512Y-100175788D01*
X100206501Y-100197869D01*
X101494267Y-101485634D01*
X101506048Y-101499266D01*
X101520390Y-101518530D01*
X101560420Y-101552119D01*
X101564392Y-101555759D01*
X101570223Y-101561590D01*
X101595939Y-101581923D01*
X101654786Y-101631302D01*
X101654788Y-101631303D01*
X101660823Y-101635272D01*
X101660789Y-101635322D01*
X101667144Y-101639370D01*
X101667177Y-101639318D01*
X101673319Y-101643107D01*
X101673323Y-101643110D01*
X101737182Y-101672888D01*
X101742914Y-101675561D01*
X101811558Y-101710036D01*
X101811561Y-101710037D01*
X101811567Y-101710040D01*
X101811572Y-101710041D01*
X101818355Y-101712510D01*
X101818334Y-101712567D01*
X101825451Y-101715040D01*
X101825470Y-101714984D01*
X101832330Y-101717257D01*
X101907532Y-101732784D01*
X101982279Y-101750500D01*
X101982288Y-101750500D01*
X101989452Y-101751338D01*
X101989445Y-101751397D01*
X101996946Y-101752163D01*
X101996952Y-101752104D01*
X102004140Y-101752733D01*
X102004143Y-101752732D01*
X102004144Y-101752733D01*
X102080898Y-101750500D01*
X105660663Y-101750500D01*
X105727702Y-101770185D01*
X105733548Y-101774182D01*
X105747265Y-101784148D01*
X105747270Y-101784151D01*
X105920192Y-101861142D01*
X105920197Y-101861144D01*
X106105354Y-101900500D01*
X106105355Y-101900500D01*
X106294644Y-101900500D01*
X106294646Y-101900500D01*
X106479803Y-101861144D01*
X106652730Y-101784151D01*
X106805871Y-101672888D01*
X106932533Y-101532216D01*
X107027179Y-101368284D01*
X107085674Y-101188256D01*
X107105460Y-101000000D01*
X107085674Y-100811744D01*
X107027179Y-100631716D01*
X106932533Y-100467784D01*
X106805871Y-100327112D01*
X106790369Y-100315849D01*
X106652734Y-100215851D01*
X106652729Y-100215848D01*
X106479807Y-100138857D01*
X106479802Y-100138855D01*
X106343879Y-100109964D01*
X106282397Y-100076771D01*
X106248621Y-100015608D01*
X106253273Y-99945894D01*
X106264554Y-99925118D01*
X106264103Y-99924872D01*
X106268354Y-99917086D01*
X106318596Y-99782379D01*
X106318598Y-99782372D01*
X106324999Y-99722844D01*
X106325000Y-99722827D01*
X106325000Y-99075000D01*
X105588347Y-99075000D01*
X105521308Y-99055315D01*
X105475553Y-99002511D01*
X105465609Y-98933353D01*
X105469369Y-98916067D01*
X105475000Y-98896888D01*
X105475000Y-98753111D01*
X105469369Y-98733933D01*
X105469370Y-98664064D01*
X105507145Y-98605286D01*
X105570701Y-98576262D01*
X105588347Y-98575000D01*
X106325000Y-98575000D01*
X106325000Y-97927172D01*
X106324999Y-97927155D01*
X106318598Y-97867627D01*
X106318596Y-97867620D01*
X106268354Y-97732913D01*
X106268350Y-97732906D01*
X106182190Y-97617812D01*
X106182187Y-97617809D01*
X106067093Y-97531649D01*
X106067086Y-97531645D01*
X105932379Y-97481403D01*
X105932372Y-97481401D01*
X105872844Y-97475000D01*
X105225000Y-97475000D01*
X105225000Y-98212698D01*
X105205315Y-98279737D01*
X105152511Y-98325492D01*
X105083355Y-98335436D01*
X105010766Y-98325000D01*
X105010763Y-98325000D01*
X104939237Y-98325000D01*
X104939233Y-98325000D01*
X104866645Y-98335436D01*
X104797487Y-98325492D01*
X104744684Y-98279736D01*
X104725000Y-98212698D01*
X104725000Y-97475000D01*
X104077155Y-97475000D01*
X104017627Y-97481401D01*
X104017620Y-97481403D01*
X103882913Y-97531645D01*
X103882906Y-97531649D01*
X103767812Y-97617809D01*
X103767809Y-97617812D01*
X103681649Y-97732906D01*
X103681645Y-97732913D01*
X103632578Y-97864470D01*
X103590707Y-97920404D01*
X103525242Y-97944821D01*
X103456969Y-97929969D01*
X103428715Y-97908819D01*
X103384366Y-97864470D01*
X103306401Y-97786505D01*
X103306397Y-97786502D01*
X103306396Y-97786501D01*
X103112834Y-97650967D01*
X103112830Y-97650965D01*
X103041727Y-97617809D01*
X102898663Y-97551097D01*
X102898659Y-97551096D01*
X102898655Y-97551094D01*
X102670413Y-97489938D01*
X102670403Y-97489936D01*
X102435001Y-97469341D01*
X102434999Y-97469341D01*
X102199596Y-97489936D01*
X102199586Y-97489938D01*
X101971344Y-97551094D01*
X101971335Y-97551098D01*
X101757171Y-97650964D01*
X101757169Y-97650965D01*
X101563597Y-97786505D01*
X101396505Y-97953597D01*
X101266575Y-98139158D01*
X101211998Y-98182783D01*
X101142500Y-98189977D01*
X101080145Y-98158454D01*
X101063425Y-98139158D01*
X100933494Y-97953597D01*
X100766402Y-97786506D01*
X100766395Y-97786501D01*
X100572834Y-97650967D01*
X100572830Y-97650965D01*
X100501727Y-97617809D01*
X100358663Y-97551097D01*
X100358659Y-97551096D01*
X100358655Y-97551094D01*
X100130413Y-97489938D01*
X100130403Y-97489936D01*
X99895001Y-97469341D01*
X99894999Y-97469341D01*
X99659596Y-97489936D01*
X99659586Y-97489938D01*
X99431344Y-97551094D01*
X99431335Y-97551098D01*
X99217171Y-97650964D01*
X99217169Y-97650965D01*
X99023597Y-97786505D01*
X98856505Y-97953597D01*
X98720965Y-98147169D01*
X98720964Y-98147171D01*
X98621098Y-98361335D01*
X98621094Y-98361344D01*
X98559938Y-98589586D01*
X98559936Y-98589596D01*
X98539341Y-98824999D01*
X98539341Y-98825000D01*
X50605000Y-98825000D01*
X50605000Y-98753111D01*
X50599369Y-98733933D01*
X50599370Y-98664064D01*
X50637145Y-98605286D01*
X50700701Y-98576262D01*
X50718347Y-98575000D01*
X51455000Y-98575000D01*
X51455000Y-97927172D01*
X51454999Y-97927155D01*
X51448598Y-97867627D01*
X51448596Y-97867620D01*
X51398354Y-97732913D01*
X51398350Y-97732906D01*
X51312190Y-97617812D01*
X51312187Y-97617809D01*
X51197093Y-97531649D01*
X51197086Y-97531645D01*
X51062379Y-97481403D01*
X51062372Y-97481401D01*
X51002844Y-97475000D01*
X50355000Y-97475000D01*
X50355000Y-98212698D01*
X50335315Y-98279737D01*
X50282511Y-98325492D01*
X50213355Y-98335436D01*
X50140766Y-98325000D01*
X50140763Y-98325000D01*
X50069237Y-98325000D01*
X50069233Y-98325000D01*
X49996644Y-98335436D01*
X49927486Y-98325492D01*
X49874683Y-98279736D01*
X49854999Y-98212698D01*
X49855000Y-97475000D01*
X49207155Y-97475000D01*
X49147627Y-97481401D01*
X49147620Y-97481403D01*
X49012913Y-97531645D01*
X49012906Y-97531649D01*
X48897812Y-97617809D01*
X48897809Y-97617812D01*
X48811649Y-97732906D01*
X48811645Y-97732913D01*
X48762578Y-97864470D01*
X48720707Y-97920404D01*
X48655242Y-97944821D01*
X48586969Y-97929969D01*
X48558715Y-97908819D01*
X48514366Y-97864470D01*
X48436401Y-97786505D01*
X48436397Y-97786502D01*
X48436396Y-97786501D01*
X48242834Y-97650967D01*
X48242830Y-97650965D01*
X48171727Y-97617809D01*
X48028663Y-97551097D01*
X48028659Y-97551096D01*
X48028655Y-97551094D01*
X47800413Y-97489938D01*
X47800403Y-97489936D01*
X47565001Y-97469341D01*
X47564999Y-97469341D01*
X47329596Y-97489936D01*
X47329586Y-97489938D01*
X47101344Y-97551094D01*
X47101335Y-97551098D01*
X46887171Y-97650964D01*
X46887169Y-97650965D01*
X46693597Y-97786505D01*
X46526505Y-97953597D01*
X46396575Y-98139158D01*
X46341998Y-98182783D01*
X46272500Y-98189977D01*
X46210145Y-98158454D01*
X46193425Y-98139158D01*
X46063494Y-97953597D01*
X45896402Y-97786506D01*
X45896395Y-97786501D01*
X45702834Y-97650967D01*
X45702830Y-97650965D01*
X45631727Y-97617809D01*
X45488663Y-97551097D01*
X45488659Y-97551096D01*
X45488655Y-97551094D01*
X45260413Y-97489938D01*
X45260403Y-97489936D01*
X45025001Y-97469341D01*
X45024999Y-97469341D01*
X44789596Y-97489936D01*
X44789586Y-97489938D01*
X44561344Y-97551094D01*
X44561335Y-97551098D01*
X44347171Y-97650964D01*
X44347169Y-97650965D01*
X44153597Y-97786505D01*
X43986505Y-97953597D01*
X43850965Y-98147169D01*
X43850964Y-98147171D01*
X43751098Y-98361335D01*
X43751094Y-98361344D01*
X43689938Y-98589586D01*
X43689936Y-98589596D01*
X43669341Y-98824999D01*
X43669341Y-98825000D01*
X43689936Y-99060403D01*
X43689938Y-99060413D01*
X43751094Y-99288655D01*
X43751096Y-99288659D01*
X43751097Y-99288663D01*
X43820408Y-99437301D01*
X43850965Y-99502830D01*
X43850967Y-99502834D01*
X43959281Y-99657521D01*
X43986504Y-99696400D01*
X43986506Y-99696402D01*
X44153595Y-99863492D01*
X44153598Y-99863494D01*
X44153599Y-99863495D01*
X44221623Y-99911125D01*
X44265248Y-99965701D01*
X44274500Y-100012700D01*
X44274500Y-106513770D01*
X44254815Y-106580809D01*
X44202011Y-106626564D01*
X44132853Y-106636508D01*
X44069297Y-106607483D01*
X44062819Y-106601451D01*
X43375729Y-105914361D01*
X43363949Y-105900730D01*
X43356482Y-105890701D01*
X43349612Y-105881472D01*
X43349610Y-105881470D01*
X43309587Y-105847886D01*
X43305612Y-105844244D01*
X43302690Y-105841322D01*
X43299780Y-105838411D01*
X43274040Y-105818059D01*
X43215209Y-105768694D01*
X43209180Y-105764729D01*
X43209212Y-105764680D01*
X43202853Y-105760628D01*
X43202822Y-105760679D01*
X43196680Y-105756891D01*
X43196678Y-105756890D01*
X43196677Y-105756889D01*
X43157474Y-105738608D01*
X43127058Y-105724424D01*
X43092894Y-105707267D01*
X43058433Y-105689960D01*
X43058431Y-105689959D01*
X43058430Y-105689959D01*
X43051645Y-105687489D01*
X43051665Y-105687433D01*
X43044549Y-105684959D01*
X43044531Y-105685015D01*
X43037671Y-105682742D01*
X43009841Y-105676996D01*
X42962434Y-105667207D01*
X42913472Y-105655603D01*
X42887719Y-105649499D01*
X42880547Y-105648661D01*
X42880553Y-105648601D01*
X42873055Y-105647835D01*
X42873050Y-105647895D01*
X42865860Y-105647265D01*
X42789083Y-105649500D01*
X35871278Y-105649500D01*
X35804239Y-105629815D01*
X35779128Y-105608472D01*
X35705870Y-105527111D01*
X35552734Y-105415851D01*
X35552729Y-105415848D01*
X35379807Y-105338857D01*
X35379802Y-105338855D01*
X35234000Y-105307865D01*
X35194646Y-105299500D01*
X35005354Y-105299500D01*
X34972897Y-105306398D01*
X34820197Y-105338855D01*
X34820192Y-105338857D01*
X34647270Y-105415848D01*
X34647265Y-105415851D01*
X34494129Y-105527111D01*
X34367466Y-105667785D01*
X34272821Y-105831715D01*
X34272818Y-105831722D01*
X34214327Y-106011740D01*
X34214326Y-106011744D01*
X34194540Y-106200000D01*
X34214326Y-106388256D01*
X34214327Y-106388259D01*
X34272818Y-106568277D01*
X34272821Y-106568284D01*
X34367467Y-106732216D01*
X34494128Y-106872888D01*
X34494129Y-106872888D01*
X34647265Y-106984148D01*
X34647270Y-106984151D01*
X34820192Y-107061142D01*
X34820197Y-107061144D01*
X35005354Y-107100500D01*
X35005355Y-107100500D01*
X35011711Y-107101851D01*
X35011581Y-107102461D01*
X35034224Y-107109102D01*
X35034782Y-107107570D01*
X35041564Y-107110038D01*
X35041567Y-107110040D01*
X35041570Y-107110040D01*
X35048357Y-107112511D01*
X35048336Y-107112567D01*
X35055455Y-107115042D01*
X35055474Y-107114986D01*
X35062329Y-107117258D01*
X35137562Y-107132790D01*
X35137562Y-107132791D01*
X35212279Y-107150500D01*
X35212289Y-107150500D01*
X35219452Y-107151338D01*
X35219444Y-107151397D01*
X35226945Y-107152164D01*
X35226951Y-107152105D01*
X35234140Y-107152734D01*
X35234144Y-107152733D01*
X35234145Y-107152734D01*
X35310918Y-107150500D01*
X42437770Y-107150500D01*
X42504809Y-107170185D01*
X42525451Y-107186819D01*
X44170159Y-108831526D01*
X44203644Y-108892849D01*
X44206478Y-108919207D01*
X44206478Y-109693272D01*
X44205169Y-109711241D01*
X44201688Y-109735003D01*
X44206242Y-109787042D01*
X44206478Y-109792448D01*
X44206478Y-109800687D01*
X44210284Y-109833252D01*
X44216978Y-109909769D01*
X44218439Y-109916845D01*
X44218381Y-109916856D01*
X44220012Y-109924215D01*
X44220070Y-109924202D01*
X44221735Y-109931228D01*
X44248003Y-110003402D01*
X44272163Y-110076309D01*
X44275214Y-110082852D01*
X44275160Y-110082876D01*
X44278448Y-110089666D01*
X44278499Y-110089641D01*
X44281739Y-110096091D01*
X44281740Y-110096092D01*
X44281741Y-110096095D01*
X44318762Y-110152383D01*
X44323943Y-110160261D01*
X44364265Y-110225633D01*
X44368744Y-110231297D01*
X44368697Y-110231334D01*
X44373460Y-110237180D01*
X44373506Y-110237142D01*
X44378151Y-110242678D01*
X44433995Y-110295363D01*
X44824270Y-110685638D01*
X44836051Y-110699270D01*
X44850388Y-110718528D01*
X44850389Y-110718529D01*
X44850390Y-110718530D01*
X44855696Y-110722982D01*
X44890409Y-110752111D01*
X44894397Y-110755766D01*
X44900216Y-110761585D01*
X44900220Y-110761588D01*
X44900223Y-110761591D01*
X44925959Y-110781940D01*
X44984786Y-110831302D01*
X44984787Y-110831302D01*
X44984789Y-110831304D01*
X44990818Y-110835270D01*
X44990785Y-110835319D01*
X44997147Y-110839372D01*
X44997179Y-110839321D01*
X45003319Y-110843108D01*
X45003323Y-110843111D01*
X45038132Y-110859342D01*
X45072941Y-110875575D01*
X45091336Y-110884813D01*
X45141567Y-110910040D01*
X45141569Y-110910040D01*
X45148357Y-110912511D01*
X45148336Y-110912567D01*
X45155455Y-110915042D01*
X45155474Y-110914986D01*
X45162329Y-110917258D01*
X45237561Y-110932790D01*
X45237562Y-110932791D01*
X45312279Y-110950500D01*
X45312289Y-110950500D01*
X45319452Y-110951338D01*
X45319444Y-110951397D01*
X45326945Y-110952164D01*
X45326951Y-110952105D01*
X45334140Y-110952734D01*
X45334144Y-110952733D01*
X45334145Y-110952734D01*
X45410918Y-110950500D01*
X45936295Y-110950500D01*
X45954265Y-110951809D01*
X45978023Y-110955289D01*
X46030068Y-110950735D01*
X46035470Y-110950500D01*
X46043704Y-110950500D01*
X46043709Y-110950500D01*
X46055327Y-110949141D01*
X46076276Y-110946693D01*
X46089028Y-110945577D01*
X46152797Y-110939999D01*
X46152805Y-110939996D01*
X46159866Y-110938539D01*
X46159878Y-110938598D01*
X46167243Y-110936965D01*
X46167229Y-110936906D01*
X46174246Y-110935241D01*
X46174255Y-110935241D01*
X46246423Y-110908974D01*
X46319334Y-110884814D01*
X46319343Y-110884807D01*
X46325882Y-110881760D01*
X46325908Y-110881816D01*
X46332690Y-110878532D01*
X46332663Y-110878478D01*
X46339106Y-110875240D01*
X46339117Y-110875237D01*
X46403283Y-110833034D01*
X46468656Y-110792712D01*
X46468662Y-110792705D01*
X46474325Y-110788229D01*
X46474362Y-110788277D01*
X46480204Y-110783518D01*
X46480164Y-110783471D01*
X46485686Y-110778836D01*
X46485696Y-110778830D01*
X46510904Y-110752111D01*
X46538386Y-110722982D01*
X47187819Y-110073548D01*
X47249142Y-110040063D01*
X47318833Y-110045047D01*
X47374767Y-110086918D01*
X47399184Y-110152383D01*
X47399500Y-110161229D01*
X47399500Y-111475500D01*
X47379815Y-111542539D01*
X47327011Y-111588294D01*
X47275500Y-111599500D01*
X42724500Y-111599500D01*
X42657461Y-111579815D01*
X42611706Y-111527011D01*
X42600500Y-111475500D01*
X42600500Y-110024759D01*
X42600528Y-110024616D01*
X42600524Y-110024616D01*
X42600539Y-110000002D01*
X42600541Y-110000000D01*
X42600462Y-109999808D01*
X42600384Y-109999618D01*
X42600382Y-109999616D01*
X42600099Y-109999500D01*
X42600000Y-109999459D01*
X42575446Y-109999459D01*
X42575240Y-109999500D01*
X25124500Y-109999500D01*
X25057461Y-109979815D01*
X25011706Y-109927011D01*
X25000500Y-109875500D01*
X25000500Y-97124500D01*
X25020185Y-97057461D01*
X25072989Y-97011706D01*
X25124500Y-97000500D01*
X124875500Y-97000500D01*
X124942539Y-97020185D01*
G37*
%TD.AperFunction*%
%TD*%
M02*
