M48
; DRILL file {KiCad 7.0.7} date lun. 13 nov. 2023 09:39:39
; FORMAT={-:-/ absolute / inch / decimal}
; #@! TF.CreationDate,2023-11-13T09:39:39+01:00
; #@! TF.GenerationSoftware,Kicad,Pcbnew,7.0.7
; #@! TF.FileFunction,Plated,1,2,PTH
FMAT,2
INCH
; #@! TA.AperFunction,Plated,PTH,ViaDrill
T1C0.0157
; #@! TA.AperFunction,Plated,PTH,ComponentDrill
T2C0.0394
%
G90
G05
T1
X1.3819Y-4.1811
X1.6102Y-3.8504
X1.7244Y-3.9685
X1.7244Y-4.0669
X1.7323Y-4.2913
X1.8034Y-4.2641
X1.815Y-3.9724
X1.8189Y-4.0787
X2.1417Y-3.8504
X2.1811Y-4.0787
X2.3228Y-4.0157
X2.4606Y-3.8583
X2.4606Y-4.1732
X2.815Y-4.0157
X2.9528Y-3.8583
X3.3071Y-4.0256
X3.4449Y-3.8583
X3.4449Y-4.1732
X3.6496Y-3.9803
X3.9213Y-3.9961
X4.1772Y-4.2835
X4.1811Y-3.9764
X4.2441Y-4.0866
X4.5866Y-4.0118
X4.6575Y-4.2638
T2
X1.7726Y-3.8907
X1.8726Y-3.8907
X1.9726Y-3.8907
X3.9329Y-3.8907
X4.0329Y-3.8907
X4.1329Y-3.8907
T0
M30
