%TF.GenerationSoftware,KiCad,Pcbnew,7.0.5*%
%TF.CreationDate,2023-07-17T12:02:18+02:00*%
%TF.ProjectId,Small_Wall,536d616c-6c5f-4576-916c-6c2e6b696361,rev?*%
%TF.SameCoordinates,Original*%
%TF.FileFunction,Copper,L2,Bot*%
%TF.FilePolarity,Positive*%
%FSLAX46Y46*%
G04 Gerber Fmt 4.6, Leading zero omitted, Abs format (unit mm)*
G04 Created by KiCad (PCBNEW 7.0.5) date 2023-07-17 12:02:18*
%MOMM*%
%LPD*%
G01*
G04 APERTURE LIST*
%TA.AperFunction,ComponentPad*%
%ADD10R,1.700000X1.700000*%
%TD*%
%TA.AperFunction,ComponentPad*%
%ADD11O,1.700000X1.700000*%
%TD*%
%TA.AperFunction,ViaPad*%
%ADD12C,0.800000*%
%TD*%
%TA.AperFunction,Conductor*%
%ADD13C,0.500000*%
%TD*%
G04 APERTURE END LIST*
D10*
%TO.P,J1,1,Pin_1*%
%TO.N,VDD*%
X117540000Y-98800000D03*
D11*
%TO.P,J1,2,Pin_2*%
%TO.N,Net-(J1-Pin_2)*%
X115000000Y-98800000D03*
%TO.P,J1,3,Pin_3*%
%TO.N,GND*%
X112460000Y-98800000D03*
%TD*%
D10*
%TO.P,J4,1,Pin_1*%
%TO.N,VDD*%
X37525000Y-98825000D03*
D11*
%TO.P,J4,2,Pin_2*%
%TO.N,Net-(J4-Pin_2)*%
X34985000Y-98825000D03*
%TO.P,J4,3,Pin_3*%
%TO.N,GND*%
X32445000Y-98825000D03*
%TD*%
D12*
%TO.N,VDD*%
X37750000Y-107250000D03*
X107000000Y-109000000D03*
X108250000Y-99000000D03*
%TO.N,GND*%
X62500000Y-98000000D03*
X100000000Y-98000000D03*
X59000000Y-102000000D03*
X21000000Y-102750000D03*
X128750000Y-103750000D03*
X28750000Y-103500000D03*
X20750000Y-97750000D03*
X87500000Y-98000000D03*
X103500000Y-104000000D03*
X43000000Y-109000000D03*
X113000000Y-108983800D03*
X75000000Y-98000000D03*
X50000000Y-98000000D03*
X120500000Y-102750000D03*
X46500000Y-102000000D03*
X71500000Y-102000000D03*
%TO.N,Net-(J1-Pin_2)*%
X120750000Y-107250000D03*
%TO.N,Net-(J4-Pin_2)*%
X28750000Y-107000000D03*
%TD*%
D13*
%TO.N,VDD*%
X37750000Y-107250000D02*
X37525000Y-107025000D01*
X107000000Y-100250000D02*
X108250000Y-99000000D01*
X107000000Y-109000000D02*
X107000000Y-100250000D01*
X37525000Y-107025000D02*
X37525000Y-98825000D01*
%TO.N,GND*%
X28750000Y-102520000D02*
X28750000Y-103500000D01*
X120500000Y-102750000D02*
X121500000Y-103750000D01*
X121500000Y-103750000D02*
X128750000Y-103750000D01*
X32445000Y-98825000D02*
X28750000Y-102520000D01*
%TO.N,Net-(J1-Pin_2)*%
X115000000Y-98800000D02*
X115000000Y-101500000D01*
X115000000Y-101500000D02*
X120750000Y-107250000D01*
%TO.N,Net-(J4-Pin_2)*%
X34985000Y-100765000D02*
X28750000Y-107000000D01*
X34985000Y-98825000D02*
X34985000Y-100765000D01*
%TD*%
%TA.AperFunction,Conductor*%
%TO.N,GND*%
G36*
X129942539Y-97020185D02*
G01*
X129988294Y-97072989D01*
X129999500Y-97124500D01*
X129999500Y-109875500D01*
X129979815Y-109942539D01*
X129927011Y-109988294D01*
X129875500Y-109999500D01*
X117524760Y-109999500D01*
X117524554Y-109999459D01*
X117499998Y-109999459D01*
X117499909Y-109999496D01*
X117499619Y-109999615D01*
X117499615Y-109999618D01*
X117499459Y-109999999D01*
X117499476Y-110024616D01*
X117499471Y-110024616D01*
X117499500Y-110024759D01*
X117499500Y-111475500D01*
X117479815Y-111542539D01*
X117427011Y-111588294D01*
X117375500Y-111599500D01*
X112624500Y-111599500D01*
X112557461Y-111579815D01*
X112511706Y-111527011D01*
X112500500Y-111475500D01*
X112500500Y-110024759D01*
X112500528Y-110024616D01*
X112500524Y-110024616D01*
X112500539Y-110000002D01*
X112500541Y-110000000D01*
X112500462Y-109999808D01*
X112500384Y-109999618D01*
X112500383Y-109999617D01*
X112500381Y-109999616D01*
X112500090Y-109999496D01*
X112500001Y-109999459D01*
X112475446Y-109999459D01*
X112475240Y-109999500D01*
X107537961Y-109999500D01*
X107503435Y-109989361D01*
X107500770Y-109996820D01*
X107499458Y-109999998D01*
X107499476Y-110024616D01*
X107499471Y-110024616D01*
X107499500Y-110024759D01*
X107499500Y-111475500D01*
X107479815Y-111542539D01*
X107427011Y-111588294D01*
X107375500Y-111599500D01*
X102624500Y-111599500D01*
X102557461Y-111579815D01*
X102511706Y-111527011D01*
X102500500Y-111475500D01*
X102500500Y-110024759D01*
X102500528Y-110024616D01*
X102500524Y-110024616D01*
X102500539Y-110000002D01*
X102500541Y-110000000D01*
X102500462Y-109999808D01*
X102500384Y-109999618D01*
X102500383Y-109999617D01*
X102500381Y-109999616D01*
X102500090Y-109999496D01*
X102500001Y-109999459D01*
X102475446Y-109999459D01*
X102475240Y-109999500D01*
X97524760Y-109999500D01*
X97524554Y-109999459D01*
X97499998Y-109999459D01*
X97499909Y-109999496D01*
X97499619Y-109999615D01*
X97499615Y-109999618D01*
X97499459Y-109999999D01*
X97499476Y-110024616D01*
X97499471Y-110024616D01*
X97499500Y-110024759D01*
X97499500Y-111475500D01*
X97479815Y-111542539D01*
X97427011Y-111588294D01*
X97375500Y-111599500D01*
X92624500Y-111599500D01*
X92557461Y-111579815D01*
X92511706Y-111527011D01*
X92500500Y-111475500D01*
X92500500Y-110024759D01*
X92500528Y-110024616D01*
X92500524Y-110024616D01*
X92500539Y-110000002D01*
X92500541Y-110000000D01*
X92500462Y-109999808D01*
X92500384Y-109999618D01*
X92500383Y-109999617D01*
X92500381Y-109999616D01*
X92500090Y-109999496D01*
X92500001Y-109999459D01*
X92475446Y-109999459D01*
X92475240Y-109999500D01*
X87524760Y-109999500D01*
X87524554Y-109999459D01*
X87499998Y-109999459D01*
X87499909Y-109999496D01*
X87499619Y-109999615D01*
X87499615Y-109999618D01*
X87499459Y-109999999D01*
X87499476Y-110024616D01*
X87499471Y-110024616D01*
X87499500Y-110024759D01*
X87499500Y-111475500D01*
X87479815Y-111542539D01*
X87427011Y-111588294D01*
X87375500Y-111599500D01*
X82624500Y-111599500D01*
X82557461Y-111579815D01*
X82511706Y-111527011D01*
X82500500Y-111475500D01*
X82500500Y-110024759D01*
X82500528Y-110024616D01*
X82500524Y-110024616D01*
X82500539Y-110000002D01*
X82500541Y-110000000D01*
X82500462Y-109999808D01*
X82500384Y-109999618D01*
X82500383Y-109999617D01*
X82500381Y-109999616D01*
X82500090Y-109999496D01*
X82500001Y-109999459D01*
X82475446Y-109999459D01*
X82475240Y-109999500D01*
X77524760Y-109999500D01*
X77524554Y-109999459D01*
X77499998Y-109999459D01*
X77499909Y-109999496D01*
X77499619Y-109999615D01*
X77499615Y-109999618D01*
X77499459Y-109999999D01*
X77499476Y-110024616D01*
X77499471Y-110024616D01*
X77499500Y-110024759D01*
X77499500Y-111475500D01*
X77479815Y-111542539D01*
X77427011Y-111588294D01*
X77375500Y-111599500D01*
X72624500Y-111599500D01*
X72557461Y-111579815D01*
X72511706Y-111527011D01*
X72500500Y-111475500D01*
X72500500Y-110024759D01*
X72500528Y-110024616D01*
X72500524Y-110024616D01*
X72500539Y-110000002D01*
X72500541Y-110000000D01*
X72500462Y-109999808D01*
X72500384Y-109999618D01*
X72500383Y-109999617D01*
X72500381Y-109999616D01*
X72500090Y-109999496D01*
X72500001Y-109999459D01*
X72475446Y-109999459D01*
X72475240Y-109999500D01*
X67524760Y-109999500D01*
X67524554Y-109999459D01*
X67499998Y-109999459D01*
X67499909Y-109999496D01*
X67499619Y-109999615D01*
X67499615Y-109999618D01*
X67499459Y-109999999D01*
X67499476Y-110024616D01*
X67499471Y-110024616D01*
X67499500Y-110024759D01*
X67499500Y-111475500D01*
X67479815Y-111542539D01*
X67427011Y-111588294D01*
X67375500Y-111599500D01*
X62624500Y-111599500D01*
X62557461Y-111579815D01*
X62511706Y-111527011D01*
X62500500Y-111475500D01*
X62500500Y-110024759D01*
X62500528Y-110024616D01*
X62500524Y-110024616D01*
X62500539Y-110000002D01*
X62500541Y-110000000D01*
X62500462Y-109999808D01*
X62500384Y-109999618D01*
X62500383Y-109999617D01*
X62500381Y-109999616D01*
X62500090Y-109999496D01*
X62500001Y-109999459D01*
X62475446Y-109999459D01*
X62475240Y-109999500D01*
X57524760Y-109999500D01*
X57524554Y-109999459D01*
X57499998Y-109999459D01*
X57499909Y-109999496D01*
X57499619Y-109999615D01*
X57499615Y-109999618D01*
X57499459Y-109999999D01*
X57499476Y-110024616D01*
X57499471Y-110024616D01*
X57499500Y-110024759D01*
X57499500Y-111475500D01*
X57479815Y-111542539D01*
X57427011Y-111588294D01*
X57375500Y-111599500D01*
X52624500Y-111599500D01*
X52557461Y-111579815D01*
X52511706Y-111527011D01*
X52500500Y-111475500D01*
X52500500Y-110024759D01*
X52500528Y-110024616D01*
X52500524Y-110024616D01*
X52500539Y-110000002D01*
X52500541Y-110000000D01*
X52500462Y-109999808D01*
X52500384Y-109999618D01*
X52500383Y-109999617D01*
X52500381Y-109999616D01*
X52500090Y-109999496D01*
X52500001Y-109999459D01*
X52475446Y-109999459D01*
X52475240Y-109999500D01*
X47524760Y-109999500D01*
X47524554Y-109999459D01*
X47499998Y-109999459D01*
X47499909Y-109999496D01*
X47499619Y-109999615D01*
X47499615Y-109999618D01*
X47499459Y-109999999D01*
X47499476Y-110024616D01*
X47499471Y-110024616D01*
X47499500Y-110024759D01*
X47499500Y-111475500D01*
X47479815Y-111542539D01*
X47427011Y-111588294D01*
X47375500Y-111599500D01*
X42624500Y-111599500D01*
X42557461Y-111579815D01*
X42511706Y-111527011D01*
X42500500Y-111475500D01*
X42500500Y-110024759D01*
X42500528Y-110024616D01*
X42500524Y-110024616D01*
X42500539Y-110000002D01*
X42500541Y-110000000D01*
X42500462Y-109999808D01*
X42500384Y-109999618D01*
X42500383Y-109999617D01*
X42500381Y-109999616D01*
X42500090Y-109999496D01*
X42500001Y-109999459D01*
X42475446Y-109999459D01*
X42475240Y-109999500D01*
X37524760Y-109999500D01*
X37524554Y-109999459D01*
X37499998Y-109999459D01*
X37499909Y-109999496D01*
X37499619Y-109999615D01*
X37499615Y-109999618D01*
X37499459Y-109999999D01*
X37499476Y-110024616D01*
X37499471Y-110024616D01*
X37499500Y-110024759D01*
X37499500Y-111475500D01*
X37479815Y-111542539D01*
X37427011Y-111588294D01*
X37375500Y-111599500D01*
X32624500Y-111599500D01*
X32557461Y-111579815D01*
X32511706Y-111527011D01*
X32500500Y-111475500D01*
X32500500Y-110024759D01*
X32500528Y-110024616D01*
X32500524Y-110024616D01*
X32500539Y-110000002D01*
X32500541Y-110000000D01*
X32500462Y-109999808D01*
X32500384Y-109999618D01*
X32500383Y-109999617D01*
X32500381Y-109999616D01*
X32500090Y-109999496D01*
X32500001Y-109999459D01*
X32475446Y-109999459D01*
X32475240Y-109999500D01*
X20124500Y-109999500D01*
X20057461Y-109979815D01*
X20011706Y-109927011D01*
X20000500Y-109875500D01*
X20000500Y-109000000D01*
X106094540Y-109000000D01*
X106114326Y-109188256D01*
X106114327Y-109188259D01*
X106172818Y-109368277D01*
X106172821Y-109368284D01*
X106267467Y-109532216D01*
X106394129Y-109672888D01*
X106547265Y-109784148D01*
X106547270Y-109784151D01*
X106720192Y-109861142D01*
X106720197Y-109861144D01*
X106905354Y-109900500D01*
X106905355Y-109900500D01*
X107094644Y-109900500D01*
X107094646Y-109900500D01*
X107279803Y-109861144D01*
X107335704Y-109836254D01*
X107404953Y-109826969D01*
X107425033Y-109836371D01*
X107444248Y-109794297D01*
X107465076Y-109775182D01*
X107541306Y-109719796D01*
X107605871Y-109672888D01*
X107732533Y-109532216D01*
X107827179Y-109368284D01*
X107885674Y-109188256D01*
X107905460Y-109000000D01*
X107885674Y-108811744D01*
X107827179Y-108631716D01*
X107767113Y-108527677D01*
X107750500Y-108465677D01*
X107750500Y-100612228D01*
X107770185Y-100545189D01*
X107786814Y-100524552D01*
X108402771Y-99908595D01*
X108464092Y-99875112D01*
X108464448Y-99875034D01*
X108529803Y-99861144D01*
X108702730Y-99784151D01*
X108855871Y-99672888D01*
X108982533Y-99532216D01*
X109077179Y-99368284D01*
X109135674Y-99188256D01*
X109150205Y-99050000D01*
X111129364Y-99050000D01*
X111186567Y-99263486D01*
X111186570Y-99263492D01*
X111286399Y-99477578D01*
X111421894Y-99671082D01*
X111588917Y-99838105D01*
X111782421Y-99973600D01*
X111996507Y-100073429D01*
X111996516Y-100073433D01*
X112210000Y-100130634D01*
X112210000Y-99235501D01*
X112317685Y-99284680D01*
X112424237Y-99300000D01*
X112495763Y-99300000D01*
X112602315Y-99284680D01*
X112710000Y-99235501D01*
X112710000Y-100130633D01*
X112923483Y-100073433D01*
X112923492Y-100073429D01*
X113137578Y-99973600D01*
X113331082Y-99838105D01*
X113498105Y-99671082D01*
X113628119Y-99485405D01*
X113682696Y-99441781D01*
X113752195Y-99434588D01*
X113814549Y-99466110D01*
X113831269Y-99485405D01*
X113961505Y-99671401D01*
X114128599Y-99838495D01*
X114163746Y-99863105D01*
X114196622Y-99886125D01*
X114240247Y-99940701D01*
X114249499Y-99987700D01*
X114249500Y-101436294D01*
X114248191Y-101454263D01*
X114244710Y-101478025D01*
X114249264Y-101530064D01*
X114249500Y-101535470D01*
X114249500Y-101543712D01*
X114253202Y-101575391D01*
X114253386Y-101577185D01*
X114260000Y-101652792D01*
X114261461Y-101659867D01*
X114261403Y-101659878D01*
X114263034Y-101667237D01*
X114263092Y-101667224D01*
X114264757Y-101674249D01*
X114290708Y-101745551D01*
X114291299Y-101747253D01*
X114315182Y-101819326D01*
X114318236Y-101825874D01*
X114318182Y-101825898D01*
X114321470Y-101832688D01*
X114321521Y-101832663D01*
X114324761Y-101839113D01*
X114324762Y-101839114D01*
X114324763Y-101839117D01*
X114366494Y-101902567D01*
X114367443Y-101904058D01*
X114407289Y-101968657D01*
X114411766Y-101974319D01*
X114411719Y-101974356D01*
X114416482Y-101980202D01*
X114416528Y-101980164D01*
X114421173Y-101985699D01*
X114476363Y-102037768D01*
X114477657Y-102039025D01*
X119837228Y-107398596D01*
X119867478Y-107447958D01*
X119922819Y-107618280D01*
X119922821Y-107618284D01*
X120017467Y-107782216D01*
X120123971Y-107900500D01*
X120144129Y-107922888D01*
X120297265Y-108034148D01*
X120297270Y-108034151D01*
X120470192Y-108111142D01*
X120470197Y-108111144D01*
X120655354Y-108150500D01*
X120655355Y-108150500D01*
X120844644Y-108150500D01*
X120844646Y-108150500D01*
X121029803Y-108111144D01*
X121202730Y-108034151D01*
X121355871Y-107922888D01*
X121482533Y-107782216D01*
X121577179Y-107618284D01*
X121635674Y-107438256D01*
X121655460Y-107250000D01*
X121635674Y-107061744D01*
X121577179Y-106881716D01*
X121482533Y-106717784D01*
X121355871Y-106577112D01*
X121275500Y-106518719D01*
X121202734Y-106465851D01*
X121202729Y-106465848D01*
X121029807Y-106388857D01*
X121029803Y-106388856D01*
X120964669Y-106375011D01*
X120903188Y-106341818D01*
X120902770Y-106341402D01*
X115786819Y-101225450D01*
X115753334Y-101164127D01*
X115750500Y-101137769D01*
X115750500Y-99987700D01*
X115770185Y-99920661D01*
X115803375Y-99886126D01*
X115871401Y-99838495D01*
X115993329Y-99716566D01*
X116054648Y-99683084D01*
X116124340Y-99688068D01*
X116180274Y-99729939D01*
X116197189Y-99760917D01*
X116246202Y-99892328D01*
X116246206Y-99892335D01*
X116332452Y-100007544D01*
X116332455Y-100007547D01*
X116447664Y-100093793D01*
X116447671Y-100093797D01*
X116582517Y-100144091D01*
X116582516Y-100144091D01*
X116589444Y-100144835D01*
X116642127Y-100150500D01*
X118437872Y-100150499D01*
X118497483Y-100144091D01*
X118632331Y-100093796D01*
X118747546Y-100007546D01*
X118833796Y-99892331D01*
X118884091Y-99757483D01*
X118890500Y-99697873D01*
X118890499Y-97902128D01*
X118884091Y-97842517D01*
X118882810Y-97839083D01*
X118833797Y-97707671D01*
X118833793Y-97707664D01*
X118747547Y-97592455D01*
X118747544Y-97592452D01*
X118632335Y-97506206D01*
X118632328Y-97506202D01*
X118497482Y-97455908D01*
X118497483Y-97455908D01*
X118437883Y-97449501D01*
X118437881Y-97449500D01*
X118437873Y-97449500D01*
X118437864Y-97449500D01*
X116642129Y-97449500D01*
X116642123Y-97449501D01*
X116582516Y-97455908D01*
X116447671Y-97506202D01*
X116447664Y-97506206D01*
X116332455Y-97592452D01*
X116332452Y-97592455D01*
X116246206Y-97707664D01*
X116246203Y-97707669D01*
X116197189Y-97839083D01*
X116155317Y-97895016D01*
X116089853Y-97919433D01*
X116021580Y-97904581D01*
X115993326Y-97883430D01*
X115871402Y-97761506D01*
X115871395Y-97761501D01*
X115677834Y-97625967D01*
X115677830Y-97625965D01*
X115659574Y-97617452D01*
X115463663Y-97526097D01*
X115463659Y-97526096D01*
X115463655Y-97526094D01*
X115235413Y-97464938D01*
X115235403Y-97464936D01*
X115000001Y-97444341D01*
X114999999Y-97444341D01*
X114764596Y-97464936D01*
X114764586Y-97464938D01*
X114536344Y-97526094D01*
X114536335Y-97526098D01*
X114322171Y-97625964D01*
X114322169Y-97625965D01*
X114128597Y-97761505D01*
X113961508Y-97928594D01*
X113831269Y-98114595D01*
X113776692Y-98158219D01*
X113707193Y-98165412D01*
X113644839Y-98133890D01*
X113628119Y-98114594D01*
X113498113Y-97928926D01*
X113498108Y-97928920D01*
X113331082Y-97761894D01*
X113137578Y-97626399D01*
X112923492Y-97526570D01*
X112923486Y-97526567D01*
X112710000Y-97469364D01*
X112710000Y-98364498D01*
X112602315Y-98315320D01*
X112495763Y-98300000D01*
X112424237Y-98300000D01*
X112317685Y-98315320D01*
X112210000Y-98364498D01*
X112210000Y-97469364D01*
X112209999Y-97469364D01*
X111996513Y-97526567D01*
X111996507Y-97526570D01*
X111782422Y-97626399D01*
X111782420Y-97626400D01*
X111588926Y-97761886D01*
X111588920Y-97761891D01*
X111421891Y-97928920D01*
X111421886Y-97928926D01*
X111286400Y-98122420D01*
X111286399Y-98122422D01*
X111186570Y-98336507D01*
X111186567Y-98336513D01*
X111129364Y-98549999D01*
X111129364Y-98550000D01*
X112026314Y-98550000D01*
X112000507Y-98590156D01*
X111960000Y-98728111D01*
X111960000Y-98871889D01*
X112000507Y-99009844D01*
X112026314Y-99050000D01*
X111129364Y-99050000D01*
X109150205Y-99050000D01*
X109155460Y-99000000D01*
X109135674Y-98811744D01*
X109077179Y-98631716D01*
X108982533Y-98467784D01*
X108855871Y-98327112D01*
X108839641Y-98315320D01*
X108702734Y-98215851D01*
X108702729Y-98215848D01*
X108529807Y-98138857D01*
X108529802Y-98138855D01*
X108384000Y-98107865D01*
X108344646Y-98099500D01*
X108155354Y-98099500D01*
X108122897Y-98106398D01*
X107970197Y-98138855D01*
X107970192Y-98138857D01*
X107797270Y-98215848D01*
X107797265Y-98215851D01*
X107644129Y-98327111D01*
X107517466Y-98467785D01*
X107422821Y-98631715D01*
X107422819Y-98631719D01*
X107367478Y-98802041D01*
X107337228Y-98851403D01*
X106514358Y-99674272D01*
X106500729Y-99686051D01*
X106481468Y-99700390D01*
X106447898Y-99740397D01*
X106444253Y-99744376D01*
X106438407Y-99750223D01*
X106418618Y-99775251D01*
X106417481Y-99776647D01*
X106368694Y-99834790D01*
X106364729Y-99840819D01*
X106364682Y-99840788D01*
X106360630Y-99847147D01*
X106360679Y-99847177D01*
X106356889Y-99853321D01*
X106324812Y-99922110D01*
X106324027Y-99923731D01*
X106289957Y-99991572D01*
X106287488Y-99998357D01*
X106287432Y-99998336D01*
X106284960Y-100005450D01*
X106285015Y-100005469D01*
X106282743Y-100012325D01*
X106267391Y-100086670D01*
X106267001Y-100088428D01*
X106249499Y-100162279D01*
X106248661Y-100169454D01*
X106248601Y-100169447D01*
X106247835Y-100176945D01*
X106247895Y-100176951D01*
X106247265Y-100184140D01*
X106249474Y-100260030D01*
X106249500Y-100261833D01*
X106249500Y-108465677D01*
X106232887Y-108527677D01*
X106172821Y-108631714D01*
X106114327Y-108811740D01*
X106114326Y-108811744D01*
X106094540Y-109000000D01*
X20000500Y-109000000D01*
X20000500Y-107000000D01*
X27844540Y-107000000D01*
X27864326Y-107188256D01*
X27864327Y-107188259D01*
X27922818Y-107368277D01*
X27922821Y-107368284D01*
X28017467Y-107532216D01*
X28144128Y-107672888D01*
X28144129Y-107672888D01*
X28297265Y-107784148D01*
X28297270Y-107784151D01*
X28470192Y-107861142D01*
X28470197Y-107861144D01*
X28655354Y-107900500D01*
X28655355Y-107900500D01*
X28844644Y-107900500D01*
X28844646Y-107900500D01*
X29029803Y-107861144D01*
X29202730Y-107784151D01*
X29355871Y-107672888D01*
X29482533Y-107532216D01*
X29577179Y-107368284D01*
X29632522Y-107197955D01*
X29662769Y-107148597D01*
X35470638Y-101340727D01*
X35484267Y-101328950D01*
X35503530Y-101314610D01*
X35503532Y-101314606D01*
X35503534Y-101314606D01*
X35521663Y-101292999D01*
X35537113Y-101274585D01*
X35540767Y-101270599D01*
X35546591Y-101264776D01*
X35566400Y-101239721D01*
X35567476Y-101238401D01*
X35616302Y-101180214D01*
X35616304Y-101180209D01*
X35620274Y-101174175D01*
X35620325Y-101174208D01*
X35624369Y-101167860D01*
X35624317Y-101167828D01*
X35628106Y-101161682D01*
X35628111Y-101161677D01*
X35660212Y-101092834D01*
X35660961Y-101091287D01*
X35695040Y-101023433D01*
X35695041Y-101023428D01*
X35697508Y-101016650D01*
X35697566Y-101016671D01*
X35700043Y-101009544D01*
X35699986Y-101009526D01*
X35702256Y-101002676D01*
X35717612Y-100928301D01*
X35717984Y-100926619D01*
X35735500Y-100852721D01*
X35735500Y-100852717D01*
X35735501Y-100852713D01*
X35736339Y-100845548D01*
X35736398Y-100845554D01*
X35737164Y-100838054D01*
X35737105Y-100838049D01*
X35737734Y-100830859D01*
X35735526Y-100754967D01*
X35735500Y-100753164D01*
X35735500Y-100012700D01*
X35755185Y-99945661D01*
X35788375Y-99911126D01*
X35856401Y-99863495D01*
X35978329Y-99741566D01*
X36039648Y-99708084D01*
X36109340Y-99713068D01*
X36165274Y-99754939D01*
X36182189Y-99785917D01*
X36231202Y-99917328D01*
X36231206Y-99917335D01*
X36317452Y-100032544D01*
X36317455Y-100032547D01*
X36432664Y-100118793D01*
X36432671Y-100118797D01*
X36464408Y-100130634D01*
X36567517Y-100169091D01*
X36627127Y-100175500D01*
X36650497Y-100175499D01*
X36717536Y-100195181D01*
X36763292Y-100247983D01*
X36774500Y-100299499D01*
X36774500Y-106961294D01*
X36773191Y-106979263D01*
X36769710Y-107003025D01*
X36774264Y-107055064D01*
X36774500Y-107060470D01*
X36774500Y-107068712D01*
X36778202Y-107100391D01*
X36778386Y-107102185D01*
X36785000Y-107177792D01*
X36786461Y-107184867D01*
X36786403Y-107184878D01*
X36788034Y-107192237D01*
X36788092Y-107192224D01*
X36789757Y-107199249D01*
X36815708Y-107270551D01*
X36816299Y-107272253D01*
X36840182Y-107344326D01*
X36843236Y-107350874D01*
X36843182Y-107350898D01*
X36846483Y-107357716D01*
X36846535Y-107357691D01*
X36848188Y-107360984D01*
X36848375Y-107361623D01*
X36850308Y-107365615D01*
X36852228Y-107370887D01*
X36851199Y-107371261D01*
X36860687Y-107403647D01*
X36864325Y-107438250D01*
X36864327Y-107438260D01*
X36922818Y-107618277D01*
X36922821Y-107618284D01*
X37017467Y-107782216D01*
X37123971Y-107900500D01*
X37144129Y-107922888D01*
X37297265Y-108034148D01*
X37297270Y-108034151D01*
X37470192Y-108111142D01*
X37470197Y-108111144D01*
X37655354Y-108150500D01*
X37655355Y-108150500D01*
X37844644Y-108150500D01*
X37844646Y-108150500D01*
X38029803Y-108111144D01*
X38202730Y-108034151D01*
X38355871Y-107922888D01*
X38482533Y-107782216D01*
X38577179Y-107618284D01*
X38635674Y-107438256D01*
X38655460Y-107250000D01*
X38635674Y-107061744D01*
X38607778Y-106975889D01*
X69499416Y-106975889D01*
X69499459Y-107000001D01*
X69499544Y-107000206D01*
X69499616Y-107000382D01*
X69499618Y-107000384D01*
X69499808Y-107000462D01*
X69500000Y-107000541D01*
X69500002Y-107000539D01*
X69524616Y-107000524D01*
X69524616Y-107000528D01*
X69524760Y-107000500D01*
X80475240Y-107000500D01*
X80475383Y-107000528D01*
X80475384Y-107000524D01*
X80499997Y-107000539D01*
X80500000Y-107000541D01*
X80500383Y-107000383D01*
X80500500Y-107000099D01*
X80500541Y-107000000D01*
X80500540Y-106999997D01*
X80500583Y-106975889D01*
X80500500Y-106975467D01*
X80500500Y-105324759D01*
X80500528Y-105324616D01*
X80500524Y-105324616D01*
X80500539Y-105300002D01*
X80500541Y-105300000D01*
X80500462Y-105299808D01*
X80500384Y-105299618D01*
X80500383Y-105299617D01*
X80500381Y-105299616D01*
X80500090Y-105299496D01*
X80500001Y-105299459D01*
X80475446Y-105299459D01*
X80475240Y-105299500D01*
X69524760Y-105299500D01*
X69524554Y-105299459D01*
X69499998Y-105299459D01*
X69499909Y-105299496D01*
X69499619Y-105299615D01*
X69499615Y-105299618D01*
X69499459Y-105299999D01*
X69499476Y-105324616D01*
X69499471Y-105324616D01*
X69499500Y-105324759D01*
X69499500Y-106975467D01*
X69499416Y-106975889D01*
X38607778Y-106975889D01*
X38577179Y-106881716D01*
X38482533Y-106717784D01*
X38355871Y-106577112D01*
X38326613Y-106555854D01*
X38283949Y-106500526D01*
X38275500Y-106455538D01*
X38275500Y-100299499D01*
X38295185Y-100232460D01*
X38347989Y-100186705D01*
X38399500Y-100175499D01*
X38422871Y-100175499D01*
X38422872Y-100175499D01*
X38482483Y-100169091D01*
X38617331Y-100118796D01*
X38732546Y-100032546D01*
X38818796Y-99917331D01*
X38869091Y-99782483D01*
X38875500Y-99722873D01*
X38875499Y-97927128D01*
X38869091Y-97867517D01*
X38867810Y-97864083D01*
X38818797Y-97732671D01*
X38818793Y-97732664D01*
X38732547Y-97617455D01*
X38732544Y-97617452D01*
X38617335Y-97531206D01*
X38617328Y-97531202D01*
X38482482Y-97480908D01*
X38482483Y-97480908D01*
X38422883Y-97474501D01*
X38422881Y-97474500D01*
X38422873Y-97474500D01*
X38422864Y-97474500D01*
X36627129Y-97474500D01*
X36627123Y-97474501D01*
X36567516Y-97480908D01*
X36432671Y-97531202D01*
X36432664Y-97531206D01*
X36317455Y-97617452D01*
X36317452Y-97617455D01*
X36231206Y-97732664D01*
X36231203Y-97732669D01*
X36182189Y-97864083D01*
X36140317Y-97920016D01*
X36074853Y-97944433D01*
X36006580Y-97929581D01*
X35978326Y-97908430D01*
X35856402Y-97786506D01*
X35856395Y-97786501D01*
X35662834Y-97650967D01*
X35662830Y-97650965D01*
X35610148Y-97626399D01*
X35448663Y-97551097D01*
X35448659Y-97551096D01*
X35448655Y-97551094D01*
X35220413Y-97489938D01*
X35220403Y-97489936D01*
X34985001Y-97469341D01*
X34984999Y-97469341D01*
X34749596Y-97489936D01*
X34749586Y-97489938D01*
X34521344Y-97551094D01*
X34521335Y-97551098D01*
X34307171Y-97650964D01*
X34307169Y-97650965D01*
X34113597Y-97786505D01*
X33946508Y-97953594D01*
X33816269Y-98139595D01*
X33761692Y-98183219D01*
X33692193Y-98190412D01*
X33629839Y-98158890D01*
X33613119Y-98139594D01*
X33483113Y-97953926D01*
X33483108Y-97953920D01*
X33316082Y-97786894D01*
X33122578Y-97651399D01*
X32908492Y-97551570D01*
X32908486Y-97551567D01*
X32695000Y-97494364D01*
X32695000Y-98389498D01*
X32587315Y-98340320D01*
X32480763Y-98325000D01*
X32409237Y-98325000D01*
X32302685Y-98340320D01*
X32195000Y-98389498D01*
X32195000Y-97494364D01*
X32194999Y-97494364D01*
X31981513Y-97551567D01*
X31981507Y-97551570D01*
X31767422Y-97651399D01*
X31767420Y-97651400D01*
X31573926Y-97786886D01*
X31573920Y-97786891D01*
X31406891Y-97953920D01*
X31406886Y-97953926D01*
X31271400Y-98147420D01*
X31271399Y-98147422D01*
X31171570Y-98361507D01*
X31171567Y-98361513D01*
X31114364Y-98574999D01*
X31114364Y-98575000D01*
X32011314Y-98575000D01*
X31985507Y-98615156D01*
X31945000Y-98753111D01*
X31945000Y-98896889D01*
X31985507Y-99034844D01*
X32011314Y-99075000D01*
X31114364Y-99075000D01*
X31171567Y-99288486D01*
X31171570Y-99288492D01*
X31271399Y-99502578D01*
X31406894Y-99696082D01*
X31573917Y-99863105D01*
X31767421Y-99998600D01*
X31981507Y-100098429D01*
X31981516Y-100098433D01*
X32195000Y-100155634D01*
X32195000Y-99260501D01*
X32302685Y-99309680D01*
X32409237Y-99325000D01*
X32480763Y-99325000D01*
X32587315Y-99309680D01*
X32695000Y-99260501D01*
X32695000Y-100155633D01*
X32908483Y-100098433D01*
X32908492Y-100098429D01*
X33122578Y-99998600D01*
X33316082Y-99863105D01*
X33483105Y-99696082D01*
X33613119Y-99510405D01*
X33667696Y-99466781D01*
X33737195Y-99459588D01*
X33799549Y-99491110D01*
X33816269Y-99510405D01*
X33946505Y-99696401D01*
X33946506Y-99696402D01*
X34113595Y-99863492D01*
X34113598Y-99863494D01*
X34113599Y-99863495D01*
X34181623Y-99911125D01*
X34225248Y-99965701D01*
X34234500Y-100012700D01*
X34234500Y-100402769D01*
X34214815Y-100469808D01*
X34198181Y-100490450D01*
X28597228Y-106091402D01*
X28535905Y-106124887D01*
X28535329Y-106125011D01*
X28470196Y-106138856D01*
X28470192Y-106138857D01*
X28297270Y-106215848D01*
X28297265Y-106215851D01*
X28144129Y-106327111D01*
X28017466Y-106467785D01*
X27922821Y-106631715D01*
X27922818Y-106631722D01*
X27894855Y-106717785D01*
X27864326Y-106811744D01*
X27844540Y-107000000D01*
X20000500Y-107000000D01*
X20000500Y-97124500D01*
X20020185Y-97057461D01*
X20072989Y-97011706D01*
X20124500Y-97000500D01*
X129875500Y-97000500D01*
X129942539Y-97020185D01*
G37*
%TD.AperFunction*%
%TD*%
M02*
