%TF.GenerationSoftware,KiCad,Pcbnew,7.0.5*%
%TF.CreationDate,2023-07-17T12:02:18+02:00*%
%TF.ProjectId,Small_Wall,536d616c-6c5f-4576-916c-6c2e6b696361,rev?*%
%TF.SameCoordinates,Original*%
%TF.FileFunction,Legend,Top*%
%TF.FilePolarity,Positive*%
%FSLAX46Y46*%
G04 Gerber Fmt 4.6, Leading zero omitted, Abs format (unit mm)*
G04 Created by KiCad (PCBNEW 7.0.5) date 2023-07-17 12:02:18*
%MOMM*%
%LPD*%
G01*
G04 APERTURE LIST*
%ADD10C,0.120000*%
G04 APERTURE END LIST*
%TO.C,kibuzzard-64B196A7*%
G36*
X109966305Y-107526626D02*
G01*
X110004763Y-107531984D01*
X110068104Y-107555796D01*
X110110014Y-107599611D01*
X110125254Y-107666763D01*
X110125254Y-107677240D01*
X110124301Y-107687718D01*
X109728061Y-107687718D01*
X109725680Y-107670573D01*
X109725204Y-107653428D01*
X109741872Y-107589610D01*
X109786164Y-107550558D01*
X109849981Y-107530555D01*
X109924276Y-107524840D01*
X109966305Y-107526626D01*
G37*
G36*
X110575151Y-106852375D02*
G01*
X110575151Y-106911430D01*
X110575151Y-107679145D01*
X110575151Y-107804875D01*
X110575151Y-108003313D01*
X109424849Y-108003313D01*
X109424849Y-107804875D01*
X109424849Y-107663905D01*
X109623286Y-107663905D01*
X109626144Y-107729628D01*
X109637574Y-107804875D01*
X110212884Y-107804875D01*
X110223838Y-107740581D01*
X110227171Y-107679145D01*
X110223004Y-107621638D01*
X110210502Y-107569131D01*
X110188952Y-107522578D01*
X110157639Y-107482930D01*
X110116086Y-107450664D01*
X110063818Y-107426256D01*
X110000119Y-107410897D01*
X109924276Y-107405778D01*
X109850100Y-107410421D01*
X109787592Y-107424351D01*
X109735919Y-107446616D01*
X109694247Y-107476263D01*
X109662458Y-107513291D01*
X109640431Y-107557701D01*
X109627572Y-107608303D01*
X109623286Y-107663905D01*
X109424849Y-107663905D01*
X109424849Y-107372440D01*
X110274796Y-107372440D01*
X110376714Y-107372440D01*
X110376714Y-106911430D01*
X110274796Y-106911430D01*
X110274796Y-107372440D01*
X109424849Y-107372440D01*
X109424849Y-106852375D01*
X109629954Y-106852375D01*
X109727109Y-106852375D01*
X109727109Y-106723787D01*
X110122396Y-106723787D01*
X110122396Y-106852375D01*
X110219551Y-106852375D01*
X110219551Y-106478042D01*
X110122396Y-106478042D01*
X110122396Y-106605677D01*
X109727109Y-106605677D01*
X109727109Y-106478042D01*
X109629954Y-106478042D01*
X109629954Y-106852375D01*
X109424849Y-106852375D01*
X109424849Y-106383745D01*
X109629954Y-106383745D01*
X110219551Y-106383745D01*
X110219551Y-106278017D01*
X109828074Y-106278017D01*
X109893426Y-106242616D01*
X109958672Y-106208802D01*
X110023812Y-106176576D01*
X110088953Y-106145938D01*
X110154199Y-106116886D01*
X110219551Y-106089423D01*
X110219551Y-105995125D01*
X109629954Y-105995125D01*
X109629954Y-106100852D01*
X109992856Y-106100852D01*
X109955709Y-106117640D01*
X109912846Y-106137524D01*
X109866412Y-106159907D01*
X109818549Y-106184196D01*
X109769852Y-106209795D01*
X109720917Y-106236108D01*
X109673650Y-106262777D01*
X109629954Y-106289448D01*
X109629954Y-106383745D01*
X109424849Y-106383745D01*
X109424849Y-105995125D01*
X109424849Y-105796687D01*
X110575151Y-105796687D01*
X110575151Y-105995125D01*
X110575151Y-106089423D01*
X110575151Y-106852375D01*
G37*
%TO.C,kibuzzard-64B196D3*%
G36*
X39969639Y-107474752D02*
G01*
X40008096Y-107480110D01*
X40071438Y-107503923D01*
X40113347Y-107547738D01*
X40128587Y-107614889D01*
X40128587Y-107625366D01*
X40127635Y-107635844D01*
X39731395Y-107635844D01*
X39729014Y-107618699D01*
X39728537Y-107601554D01*
X39745206Y-107537736D01*
X39789497Y-107498684D01*
X39853315Y-107478681D01*
X39927610Y-107472966D01*
X39969639Y-107474752D01*
G37*
G36*
X39969044Y-106521300D02*
G01*
X40007620Y-106523800D01*
X40072866Y-106537135D01*
X40117157Y-106565710D01*
X40133350Y-106613811D01*
X40117157Y-106662389D01*
X40073342Y-106690487D01*
X40008096Y-106703822D01*
X39969163Y-106706323D01*
X39927610Y-106707156D01*
X39886176Y-106706323D01*
X39847600Y-106703822D01*
X39782354Y-106690487D01*
X39738062Y-106662389D01*
X39721870Y-106613811D01*
X39738062Y-106565234D01*
X39781877Y-106537135D01*
X39847124Y-106523800D01*
X39886057Y-106521300D01*
X39927610Y-106520466D01*
X39969044Y-106521300D01*
G37*
G36*
X40578485Y-106139466D02*
G01*
X40578485Y-106612859D01*
X40578485Y-106859556D01*
X40578485Y-107627271D01*
X40578485Y-107753001D01*
X40578485Y-107951439D01*
X39421515Y-107951439D01*
X39421515Y-107753001D01*
X39421515Y-107612031D01*
X39626620Y-107612031D01*
X39629477Y-107677754D01*
X39640907Y-107753001D01*
X40216218Y-107753001D01*
X40227171Y-107688708D01*
X40230505Y-107627271D01*
X40226338Y-107569764D01*
X40213836Y-107517258D01*
X40192286Y-107470704D01*
X40160973Y-107431056D01*
X40119420Y-107398790D01*
X40067151Y-107374383D01*
X40003453Y-107359023D01*
X39927610Y-107353904D01*
X39853434Y-107358547D01*
X39790926Y-107372477D01*
X39739253Y-107394742D01*
X39697581Y-107424389D01*
X39665792Y-107461417D01*
X39643765Y-107505827D01*
X39630906Y-107556429D01*
X39626620Y-107612031D01*
X39421515Y-107612031D01*
X39421515Y-107320566D01*
X40278130Y-107320566D01*
X40380048Y-107320566D01*
X40380048Y-106859556D01*
X40278130Y-106859556D01*
X40278130Y-107320566D01*
X39421515Y-107320566D01*
X39421515Y-106613811D01*
X39619952Y-106613811D01*
X39628578Y-106675618D01*
X39654454Y-106727688D01*
X39697581Y-106770021D01*
X39741069Y-106794608D01*
X39793903Y-106812169D01*
X39856083Y-106822706D01*
X39927610Y-106826219D01*
X39999137Y-106822796D01*
X40061317Y-106812527D01*
X40114151Y-106795411D01*
X40157639Y-106771450D01*
X40200766Y-106729487D01*
X40226642Y-106676623D01*
X40235268Y-106612859D01*
X40226642Y-106550629D01*
X40200766Y-106498559D01*
X40157639Y-106456649D01*
X40114151Y-106432479D01*
X40061317Y-106415215D01*
X39999137Y-106404857D01*
X39927610Y-106401404D01*
X39856083Y-106404797D01*
X39793903Y-106414977D01*
X39741069Y-106431943D01*
X39697581Y-106455696D01*
X39654454Y-106497395D01*
X39628578Y-106550100D01*
X39619952Y-106613811D01*
X39421515Y-106613811D01*
X39421515Y-106338539D01*
X39633287Y-106338539D01*
X40009525Y-106338539D01*
X40058579Y-106336158D01*
X40102870Y-106329014D01*
X40141684Y-106316155D01*
X40174307Y-106296629D01*
X40219551Y-106235192D01*
X40231338Y-106191973D01*
X40235268Y-106139466D01*
X40231338Y-106086126D01*
X40219551Y-106042311D01*
X40200382Y-106007069D01*
X40174307Y-105979446D01*
X40141684Y-105959206D01*
X40102870Y-105946109D01*
X40058579Y-105938965D01*
X40009525Y-105936584D01*
X39633287Y-105936584D01*
X39633287Y-106053741D01*
X40000953Y-106053741D01*
X40063341Y-106057551D01*
X40104299Y-106070886D01*
X40126683Y-106096604D01*
X40133350Y-106137561D01*
X40126683Y-106178519D01*
X40104775Y-106203760D01*
X40064294Y-106216619D01*
X40001905Y-106220429D01*
X39633287Y-106220429D01*
X39633287Y-106338539D01*
X39421515Y-106338539D01*
X39421515Y-105875624D01*
X39633287Y-105875624D01*
X39730442Y-105875624D01*
X39730442Y-105720366D01*
X40222885Y-105720366D01*
X40222885Y-105602256D01*
X39730442Y-105602256D01*
X39730442Y-105446999D01*
X39633287Y-105446999D01*
X39633287Y-105875624D01*
X39421515Y-105875624D01*
X39421515Y-105446999D01*
X39421515Y-105248561D01*
X40578485Y-105248561D01*
X40578485Y-105446999D01*
X40578485Y-105602256D01*
X40578485Y-106139466D01*
G37*
%TO.C,kibuzzard-64B19658*%
G36*
X119310390Y-98200573D02*
G01*
X120689610Y-98200573D01*
X120729298Y-98200573D01*
X121062249Y-98700000D01*
X120729298Y-99199427D01*
X120689610Y-99199427D01*
X120401955Y-99199427D01*
X119940945Y-99199427D01*
X119560897Y-99199427D01*
X119310390Y-99199427D01*
X119270702Y-99199427D01*
X119118091Y-98970510D01*
X119781877Y-98970510D01*
X119809024Y-98980987D01*
X119848552Y-98990989D01*
X119894272Y-98998132D01*
X119940945Y-99000990D01*
X119995476Y-98997418D01*
X120042862Y-98986703D01*
X120083106Y-98969557D01*
X120116205Y-98946697D01*
X120160020Y-98886214D01*
X120174307Y-98810490D01*
X120167852Y-98755245D01*
X120148484Y-98708890D01*
X120116205Y-98671425D01*
X120070802Y-98643062D01*
X120012065Y-98624012D01*
X119939992Y-98614275D01*
X119944755Y-98559982D01*
X119949517Y-98496165D01*
X120152400Y-98496165D01*
X120152400Y-98399010D01*
X120237172Y-98399010D01*
X120248126Y-98452350D01*
X120263843Y-98519025D01*
X120276437Y-98568925D01*
X120290089Y-98620837D01*
X120304800Y-98674759D01*
X120320357Y-98729739D01*
X120336550Y-98784825D01*
X120353378Y-98840017D01*
X120378381Y-98918599D01*
X120401955Y-98988607D01*
X120522922Y-98988607D01*
X120541126Y-98937860D01*
X120558906Y-98885949D01*
X120576263Y-98832874D01*
X120592931Y-98779534D01*
X120608647Y-98726829D01*
X120623411Y-98674759D01*
X120643652Y-98598916D01*
X120661511Y-98526645D01*
X120676870Y-98459494D01*
X120689610Y-98399010D01*
X120566737Y-98399010D01*
X120558165Y-98448540D01*
X120547688Y-98505690D01*
X120535781Y-98567483D01*
X120522922Y-98630944D01*
X120509111Y-98694761D01*
X120494348Y-98757626D01*
X120479107Y-98816562D01*
X120463867Y-98868592D01*
X120448508Y-98815848D01*
X120432911Y-98756674D01*
X120417671Y-98693809D01*
X120403384Y-98629991D01*
X120390168Y-98566650D01*
X120378142Y-98505214D01*
X120368141Y-98448421D01*
X120360997Y-98399010D01*
X120237172Y-98399010D01*
X120152400Y-98399010D01*
X119851410Y-98399010D01*
X119847838Y-98471757D01*
X119842837Y-98547124D01*
X119836170Y-98624633D01*
X119827597Y-98703810D01*
X119893082Y-98705834D01*
X119944755Y-98711906D01*
X120013811Y-98734766D01*
X120046196Y-98770009D01*
X120054292Y-98815252D01*
X120049530Y-98846685D01*
X120031909Y-98873831D01*
X119996666Y-98893358D01*
X119939992Y-98900978D01*
X119895463Y-98898834D01*
X119859030Y-98892405D01*
X119805690Y-98873355D01*
X119781877Y-98970510D01*
X119118091Y-98970510D01*
X118995536Y-98786677D01*
X119310390Y-98786677D01*
X119459932Y-98786677D01*
X119459932Y-98952412D01*
X119560897Y-98952412D01*
X119560897Y-98786677D01*
X119710440Y-98786677D01*
X119710440Y-98690475D01*
X119560897Y-98690475D01*
X119560897Y-98524740D01*
X119459932Y-98524740D01*
X119459932Y-98690475D01*
X119310390Y-98690475D01*
X119310390Y-98786677D01*
X118995536Y-98786677D01*
X118937751Y-98700000D01*
X119270702Y-98200572D01*
X119310390Y-98200572D01*
X119310390Y-98200573D01*
G37*
%TO.C,kibuzzard-64B196A7*%
G36*
X114310390Y-97341872D02*
G01*
X114349442Y-97386164D01*
X114369445Y-97449981D01*
X114375160Y-97524276D01*
X114373374Y-97566305D01*
X114368016Y-97604763D01*
X114344204Y-97668104D01*
X114300389Y-97710014D01*
X114233237Y-97725254D01*
X114222760Y-97725254D01*
X114212282Y-97724301D01*
X114212282Y-97328061D01*
X114229427Y-97325680D01*
X114246572Y-97325204D01*
X114310390Y-97341872D01*
G37*
G36*
X116103313Y-98175151D02*
G01*
X115904875Y-98175151D01*
X115810577Y-98175151D01*
X115047625Y-98175151D01*
X114988570Y-98175151D01*
X114220855Y-98175151D01*
X114095125Y-98175151D01*
X113896687Y-98175151D01*
X113896687Y-97874796D01*
X114527560Y-97874796D01*
X114527560Y-97976714D01*
X114988570Y-97976714D01*
X114988570Y-97874796D01*
X114527560Y-97874796D01*
X113896687Y-97874796D01*
X113896687Y-97812884D01*
X114095125Y-97812884D01*
X114159419Y-97823838D01*
X114220855Y-97827171D01*
X114278362Y-97823004D01*
X114330869Y-97810502D01*
X114377422Y-97788952D01*
X114417070Y-97757639D01*
X114449336Y-97716086D01*
X114473744Y-97663818D01*
X114489103Y-97600119D01*
X114494222Y-97524276D01*
X114489579Y-97450100D01*
X114475649Y-97387592D01*
X114453384Y-97335919D01*
X114423737Y-97294247D01*
X114386709Y-97262458D01*
X114342299Y-97240431D01*
X114301071Y-97229954D01*
X115047625Y-97229954D01*
X115047625Y-97327109D01*
X115176213Y-97327109D01*
X115176213Y-97722396D01*
X115047625Y-97722396D01*
X115047625Y-97819551D01*
X115421958Y-97819551D01*
X115421958Y-97722396D01*
X115294323Y-97722396D01*
X115294323Y-97327109D01*
X115421958Y-97327109D01*
X115421958Y-97229954D01*
X115516255Y-97229954D01*
X115516255Y-97819551D01*
X115621983Y-97819551D01*
X115621983Y-97428074D01*
X115657384Y-97493426D01*
X115691198Y-97558672D01*
X115723424Y-97623812D01*
X115754062Y-97688953D01*
X115783114Y-97754199D01*
X115810577Y-97819551D01*
X115904875Y-97819551D01*
X115904875Y-97229954D01*
X115799148Y-97229954D01*
X115799148Y-97592856D01*
X115782360Y-97555709D01*
X115762476Y-97512846D01*
X115740093Y-97466412D01*
X115715804Y-97418549D01*
X115690205Y-97369852D01*
X115663892Y-97320917D01*
X115637223Y-97273650D01*
X115610552Y-97229954D01*
X115516255Y-97229954D01*
X115421958Y-97229954D01*
X115047625Y-97229954D01*
X114301071Y-97229954D01*
X114291697Y-97227572D01*
X114236095Y-97223286D01*
X114170372Y-97226144D01*
X114095125Y-97237574D01*
X114095125Y-97812884D01*
X113896687Y-97812884D01*
X113896687Y-97024849D01*
X114095125Y-97024849D01*
X115904875Y-97024849D01*
X116103313Y-97024849D01*
X116103313Y-98175151D01*
G37*
D10*
%TO.C,J1*%
X118810000Y-97530000D02*
X118810000Y-98800000D01*
X117540000Y-97530000D02*
X118810000Y-97530000D01*
X115380000Y-99842929D02*
X115380000Y-100240000D01*
X114620000Y-99842929D02*
X114620000Y-100240000D01*
X112840000Y-99842929D02*
X112840000Y-100240000D01*
X112080000Y-99842929D02*
X112080000Y-100240000D01*
X117920000Y-99910000D02*
X117920000Y-100240000D01*
X117160000Y-99910000D02*
X117160000Y-100240000D01*
X118870000Y-100240000D02*
X111130000Y-100240000D01*
X116270000Y-100240000D02*
X116270000Y-102900000D01*
X113730000Y-100240000D02*
X113730000Y-102900000D01*
X111130000Y-100240000D02*
X111130000Y-102900000D01*
X118870000Y-102900000D02*
X118870000Y-100240000D01*
X117920000Y-102900000D02*
X117920000Y-108900000D01*
X117860000Y-102900000D02*
X117860000Y-108900000D01*
X117740000Y-102900000D02*
X117740000Y-108900000D01*
X117620000Y-102900000D02*
X117620000Y-108900000D01*
X117500000Y-102900000D02*
X117500000Y-108900000D01*
X117380000Y-102900000D02*
X117380000Y-108900000D01*
X117260000Y-102900000D02*
X117260000Y-108900000D01*
X115380000Y-102900000D02*
X115380000Y-108900000D01*
X112840000Y-102900000D02*
X112840000Y-108900000D01*
X111130000Y-102900000D02*
X118870000Y-102900000D01*
X117920000Y-108900000D02*
X117160000Y-108900000D01*
X117160000Y-108900000D02*
X117160000Y-102900000D01*
X115380000Y-108900000D02*
X114620000Y-108900000D01*
X114620000Y-108900000D02*
X114620000Y-102900000D01*
X112840000Y-108900000D02*
X112080000Y-108900000D01*
X112080000Y-108900000D02*
X112080000Y-102900000D01*
%TO.C,kibuzzard-64B1960B*%
G36*
X41942029Y-106132191D02*
G01*
X41980486Y-106137549D01*
X42043827Y-106161361D01*
X42085737Y-106205176D01*
X42100977Y-106272327D01*
X42100977Y-106282805D01*
X42100025Y-106293282D01*
X41703785Y-106293282D01*
X41701404Y-106276137D01*
X41700927Y-106258992D01*
X41717596Y-106195175D01*
X41761887Y-106156122D01*
X41825705Y-106136120D01*
X41900000Y-106130405D01*
X41942029Y-106132191D01*
G37*
G36*
X42406095Y-106599988D02*
G01*
X42406095Y-107147675D01*
X42406095Y-107388658D01*
X42406095Y-107428345D01*
X42403658Y-107477951D01*
X42396371Y-107527079D01*
X42384303Y-107575257D01*
X42367571Y-107622019D01*
X42346336Y-107666917D01*
X42320803Y-107709516D01*
X42291217Y-107749408D01*
X42257863Y-107786208D01*
X42221063Y-107819562D01*
X42181171Y-107849148D01*
X42138572Y-107874681D01*
X42093674Y-107895916D01*
X42046912Y-107912648D01*
X41998734Y-107924716D01*
X41949606Y-107932003D01*
X41900000Y-107934440D01*
X41850394Y-107932003D01*
X41801266Y-107924716D01*
X41753088Y-107912648D01*
X41706326Y-107895916D01*
X41661428Y-107874681D01*
X41618829Y-107849148D01*
X41578937Y-107819562D01*
X41542137Y-107786208D01*
X41508783Y-107749408D01*
X41479197Y-107709516D01*
X41453664Y-107666917D01*
X41432429Y-107622019D01*
X41415697Y-107575257D01*
X41403629Y-107527079D01*
X41396342Y-107477951D01*
X41393905Y-107428345D01*
X41393905Y-107388658D01*
X41393905Y-107388657D01*
X41393905Y-107133388D01*
X41592342Y-107133388D01*
X41597224Y-107185061D01*
X41611869Y-107233400D01*
X41636277Y-107276977D01*
X41670447Y-107314363D01*
X41714143Y-107345081D01*
X41767126Y-107368655D01*
X41829158Y-107383657D01*
X41900000Y-107388658D01*
X41971557Y-107384371D01*
X42033826Y-107371513D01*
X42086690Y-107350796D01*
X42130029Y-107322935D01*
X42163842Y-107288288D01*
X42188131Y-107247211D01*
X42202776Y-107200182D01*
X42207658Y-107147675D01*
X42205276Y-107089453D01*
X42198132Y-107040519D01*
X42180987Y-106975273D01*
X41886665Y-106975273D01*
X41886665Y-107092430D01*
X42101930Y-107092430D01*
X42104787Y-107115290D01*
X42105740Y-107138150D01*
X42093238Y-107195062D01*
X42055734Y-107236258D01*
X42016205Y-107254778D01*
X41964294Y-107265891D01*
X41900000Y-107269595D01*
X41856304Y-107267571D01*
X41816656Y-107261499D01*
X41751886Y-107234829D01*
X41709500Y-107187680D01*
X41694260Y-107117195D01*
X41704737Y-107054330D01*
X41728550Y-107002895D01*
X41635205Y-106972415D01*
X41623775Y-106991941D01*
X41609487Y-107024803D01*
X41597581Y-107071951D01*
X41592342Y-107133388D01*
X41393905Y-107133388D01*
X41393905Y-106894310D01*
X41605677Y-106894310D01*
X42195275Y-106894310D01*
X42195275Y-106788582D01*
X41803797Y-106788582D01*
X41869150Y-106753181D01*
X41934396Y-106719368D01*
X41999536Y-106687141D01*
X42064677Y-106656502D01*
X42129923Y-106627451D01*
X42195275Y-106599988D01*
X42195275Y-106505690D01*
X41605677Y-106505690D01*
X41605677Y-106611418D01*
X41968580Y-106611418D01*
X41931432Y-106628205D01*
X41888570Y-106648089D01*
X41842136Y-106670473D01*
X41794272Y-106694761D01*
X41745576Y-106720360D01*
X41696641Y-106746673D01*
X41649373Y-106773342D01*
X41605677Y-106800012D01*
X41605677Y-106894310D01*
X41393905Y-106894310D01*
X41393905Y-106269470D01*
X41599010Y-106269470D01*
X41601867Y-106335192D01*
X41613297Y-106410440D01*
X42188607Y-106410440D01*
X42199561Y-106346146D01*
X42202895Y-106284710D01*
X42198728Y-106227203D01*
X42186226Y-106174696D01*
X42164676Y-106128143D01*
X42133362Y-106088495D01*
X42091810Y-106056229D01*
X42039541Y-106031821D01*
X41975843Y-106016462D01*
X41900000Y-106011342D01*
X41825824Y-106015986D01*
X41763316Y-106029916D01*
X41711643Y-106052181D01*
X41669971Y-106081827D01*
X41638182Y-106118856D01*
X41616155Y-106163266D01*
X41603296Y-106213868D01*
X41599010Y-106269470D01*
X41393905Y-106269470D01*
X41393905Y-106011342D01*
X41393905Y-105971655D01*
X41396342Y-105922049D01*
X41403629Y-105872921D01*
X41415697Y-105824743D01*
X41432429Y-105777981D01*
X41453664Y-105733083D01*
X41479197Y-105690484D01*
X41508783Y-105650592D01*
X41542137Y-105613792D01*
X41578937Y-105580438D01*
X41618829Y-105550852D01*
X41661428Y-105525319D01*
X41706326Y-105504084D01*
X41753088Y-105487352D01*
X41801266Y-105475284D01*
X41850394Y-105467997D01*
X41900000Y-105465560D01*
X41949606Y-105467997D01*
X41998734Y-105475284D01*
X42046912Y-105487352D01*
X42093674Y-105504084D01*
X42138572Y-105525319D01*
X42181171Y-105550852D01*
X42221063Y-105580438D01*
X42257863Y-105613792D01*
X42291217Y-105650592D01*
X42320803Y-105690484D01*
X42346336Y-105733083D01*
X42367571Y-105777981D01*
X42384303Y-105824743D01*
X42396371Y-105872921D01*
X42403658Y-105922049D01*
X42406095Y-105971655D01*
X42406095Y-106011342D01*
X42406095Y-106284710D01*
X42406095Y-106599988D01*
G37*
%TO.C,JP11*%
X27050000Y-107800000D02*
X26450000Y-107800000D01*
X25750000Y-107100000D02*
X25750000Y-105700000D01*
X27750000Y-105700000D02*
X27750000Y-107100000D01*
X26450000Y-105000000D02*
X27050000Y-105000000D01*
X25750000Y-107100000D02*
G75*
G03*
X26450000Y-107800000I699999J-1D01*
G01*
X27050000Y-107800000D02*
G75*
G03*
X27750000Y-107100000I1J699999D01*
G01*
X26450000Y-105000000D02*
G75*
G03*
X25750000Y-105700000I0J-700000D01*
G01*
X27750000Y-105700000D02*
G75*
G03*
X27050000Y-105000000I-700000J0D01*
G01*
%TO.C,kibuzzard-64B1960B*%
G36*
X111942029Y-106132191D02*
G01*
X111980486Y-106137549D01*
X112043827Y-106161361D01*
X112085737Y-106205176D01*
X112100977Y-106272327D01*
X112100977Y-106282805D01*
X112100025Y-106293282D01*
X111703785Y-106293282D01*
X111701404Y-106276137D01*
X111700927Y-106258992D01*
X111717596Y-106195175D01*
X111761887Y-106156122D01*
X111825705Y-106136120D01*
X111900000Y-106130405D01*
X111942029Y-106132191D01*
G37*
G36*
X112406095Y-106599988D02*
G01*
X112406095Y-107147675D01*
X112406095Y-107388658D01*
X112406095Y-107428345D01*
X112403658Y-107477951D01*
X112396371Y-107527079D01*
X112384303Y-107575257D01*
X112367571Y-107622019D01*
X112346336Y-107666917D01*
X112320803Y-107709516D01*
X112291217Y-107749408D01*
X112257863Y-107786208D01*
X112221063Y-107819562D01*
X112181171Y-107849148D01*
X112138572Y-107874681D01*
X112093674Y-107895916D01*
X112046912Y-107912648D01*
X111998734Y-107924716D01*
X111949606Y-107932003D01*
X111900000Y-107934440D01*
X111850394Y-107932003D01*
X111801266Y-107924716D01*
X111753088Y-107912648D01*
X111706326Y-107895916D01*
X111661428Y-107874681D01*
X111618829Y-107849148D01*
X111578937Y-107819562D01*
X111542137Y-107786208D01*
X111508783Y-107749408D01*
X111479197Y-107709516D01*
X111453664Y-107666917D01*
X111432429Y-107622019D01*
X111415697Y-107575257D01*
X111403629Y-107527079D01*
X111396342Y-107477951D01*
X111393905Y-107428345D01*
X111393905Y-107388658D01*
X111393905Y-107388657D01*
X111393905Y-107133388D01*
X111592342Y-107133388D01*
X111597224Y-107185061D01*
X111611869Y-107233400D01*
X111636277Y-107276977D01*
X111670447Y-107314363D01*
X111714143Y-107345081D01*
X111767126Y-107368655D01*
X111829158Y-107383657D01*
X111900000Y-107388658D01*
X111971557Y-107384371D01*
X112033826Y-107371513D01*
X112086690Y-107350796D01*
X112130029Y-107322935D01*
X112163842Y-107288288D01*
X112188131Y-107247211D01*
X112202776Y-107200182D01*
X112207658Y-107147675D01*
X112205276Y-107089453D01*
X112198132Y-107040519D01*
X112180987Y-106975273D01*
X111886665Y-106975273D01*
X111886665Y-107092430D01*
X112101930Y-107092430D01*
X112104787Y-107115290D01*
X112105740Y-107138150D01*
X112093238Y-107195062D01*
X112055734Y-107236258D01*
X112016205Y-107254778D01*
X111964294Y-107265891D01*
X111900000Y-107269595D01*
X111856304Y-107267571D01*
X111816656Y-107261499D01*
X111751886Y-107234829D01*
X111709500Y-107187680D01*
X111694260Y-107117195D01*
X111704737Y-107054330D01*
X111728550Y-107002895D01*
X111635205Y-106972415D01*
X111623775Y-106991941D01*
X111609487Y-107024803D01*
X111597581Y-107071951D01*
X111592342Y-107133388D01*
X111393905Y-107133388D01*
X111393905Y-106894310D01*
X111605677Y-106894310D01*
X112195275Y-106894310D01*
X112195275Y-106788582D01*
X111803797Y-106788582D01*
X111869150Y-106753181D01*
X111934396Y-106719368D01*
X111999536Y-106687141D01*
X112064677Y-106656502D01*
X112129923Y-106627451D01*
X112195275Y-106599988D01*
X112195275Y-106505690D01*
X111605677Y-106505690D01*
X111605677Y-106611418D01*
X111968580Y-106611418D01*
X111931432Y-106628205D01*
X111888570Y-106648089D01*
X111842136Y-106670473D01*
X111794272Y-106694761D01*
X111745576Y-106720360D01*
X111696641Y-106746673D01*
X111649373Y-106773342D01*
X111605677Y-106800012D01*
X111605677Y-106894310D01*
X111393905Y-106894310D01*
X111393905Y-106269470D01*
X111599010Y-106269470D01*
X111601867Y-106335192D01*
X111613297Y-106410440D01*
X112188607Y-106410440D01*
X112199561Y-106346146D01*
X112202895Y-106284710D01*
X112198728Y-106227203D01*
X112186226Y-106174696D01*
X112164676Y-106128143D01*
X112133362Y-106088495D01*
X112091810Y-106056229D01*
X112039541Y-106031821D01*
X111975843Y-106016462D01*
X111900000Y-106011342D01*
X111825824Y-106015986D01*
X111763316Y-106029916D01*
X111711643Y-106052181D01*
X111669971Y-106081827D01*
X111638182Y-106118856D01*
X111616155Y-106163266D01*
X111603296Y-106213868D01*
X111599010Y-106269470D01*
X111393905Y-106269470D01*
X111393905Y-106011342D01*
X111393905Y-105971655D01*
X111396342Y-105922049D01*
X111403629Y-105872921D01*
X111415697Y-105824743D01*
X111432429Y-105777981D01*
X111453664Y-105733083D01*
X111479197Y-105690484D01*
X111508783Y-105650592D01*
X111542137Y-105613792D01*
X111578937Y-105580438D01*
X111618829Y-105550852D01*
X111661428Y-105525319D01*
X111706326Y-105504084D01*
X111753088Y-105487352D01*
X111801266Y-105475284D01*
X111850394Y-105467997D01*
X111900000Y-105465560D01*
X111949606Y-105467997D01*
X111998734Y-105475284D01*
X112046912Y-105487352D01*
X112093674Y-105504084D01*
X112138572Y-105525319D01*
X112181171Y-105550852D01*
X112221063Y-105580438D01*
X112257863Y-105613792D01*
X112291217Y-105650592D01*
X112320803Y-105690484D01*
X112346336Y-105733083D01*
X112367571Y-105777981D01*
X112384303Y-105824743D01*
X112396371Y-105872921D01*
X112403658Y-105922049D01*
X112406095Y-105971655D01*
X112406095Y-106011342D01*
X112406095Y-106284710D01*
X112406095Y-106599988D01*
G37*
%TO.C,C6*%
X46235000Y-100738748D02*
X46235000Y-101261252D01*
X44765000Y-100738748D02*
X44765000Y-101261252D01*
%TO.C,U2*%
X97400000Y-100600000D02*
X98600000Y-99400000D01*
X102700000Y-103900000D02*
X101900000Y-104700000D01*
X97300000Y-99300000D02*
X102700000Y-99300000D01*
X102700000Y-99300000D02*
X102700000Y-104700000D01*
X102700000Y-104700000D02*
X97300000Y-104700000D01*
X97300000Y-104700000D02*
X97300000Y-99300000D01*
X101941649Y-102000000D02*
G75*
G03*
X101941649Y-102000000I-1941649J0D01*
G01*
%TO.C,C4*%
X71235000Y-100738748D02*
X71235000Y-101261252D01*
X69765000Y-100738748D02*
X69765000Y-101261252D01*
%TO.C,kibuzzard-64B19658*%
G36*
X108599427Y-106959055D02*
G01*
X108599427Y-107339103D01*
X108599427Y-107589610D01*
X108599427Y-107629298D01*
X108100000Y-107962249D01*
X107600572Y-107629298D01*
X107600572Y-107589610D01*
X107600573Y-107589610D01*
X107600573Y-107440068D01*
X107924740Y-107440068D01*
X108090475Y-107440068D01*
X108090475Y-107589610D01*
X108186677Y-107589610D01*
X108186677Y-107440068D01*
X108352412Y-107440068D01*
X108352412Y-107339103D01*
X108186677Y-107339103D01*
X108186677Y-107189560D01*
X108090475Y-107189560D01*
X108090475Y-107339103D01*
X107924740Y-107339103D01*
X107924740Y-107440068D01*
X107600573Y-107440068D01*
X107600573Y-107048590D01*
X107799010Y-107048590D01*
X107871757Y-107052162D01*
X107947124Y-107057163D01*
X108024633Y-107063830D01*
X108103810Y-107072403D01*
X108105834Y-107006918D01*
X108111906Y-106955245D01*
X108134766Y-106886189D01*
X108170009Y-106853804D01*
X108215252Y-106845708D01*
X108246685Y-106850470D01*
X108273831Y-106868091D01*
X108293358Y-106903334D01*
X108300978Y-106960008D01*
X108298834Y-107004537D01*
X108292405Y-107040970D01*
X108273355Y-107094310D01*
X108370510Y-107118123D01*
X108380987Y-107090976D01*
X108390989Y-107051448D01*
X108398132Y-107005728D01*
X108400990Y-106959055D01*
X108397418Y-106904524D01*
X108386703Y-106857138D01*
X108369557Y-106816894D01*
X108346697Y-106783795D01*
X108286214Y-106739980D01*
X108210490Y-106725693D01*
X108155245Y-106732148D01*
X108108890Y-106751516D01*
X108071425Y-106783795D01*
X108043062Y-106829198D01*
X108024012Y-106887935D01*
X108014275Y-106960008D01*
X107959982Y-106955245D01*
X107896165Y-106950483D01*
X107896165Y-106747600D01*
X107799010Y-106747600D01*
X107799010Y-107048590D01*
X107600573Y-107048590D01*
X107600573Y-106662828D01*
X107799010Y-106662828D01*
X107852350Y-106651874D01*
X107919025Y-106636157D01*
X107968925Y-106623563D01*
X108020837Y-106609911D01*
X108074759Y-106595200D01*
X108129739Y-106579643D01*
X108184825Y-106563450D01*
X108240017Y-106546622D01*
X108318599Y-106521619D01*
X108388607Y-106498045D01*
X108388607Y-106377078D01*
X108337860Y-106358874D01*
X108285949Y-106341094D01*
X108232874Y-106323737D01*
X108179534Y-106307069D01*
X108126829Y-106291353D01*
X108074759Y-106276589D01*
X107998916Y-106256348D01*
X107926645Y-106238489D01*
X107859494Y-106223130D01*
X107799010Y-106210390D01*
X107799010Y-106333263D01*
X107848540Y-106341835D01*
X107905690Y-106352312D01*
X107967483Y-106364219D01*
X108030944Y-106377078D01*
X108094761Y-106390889D01*
X108157626Y-106405652D01*
X108216562Y-106420893D01*
X108268592Y-106436133D01*
X108215848Y-106451492D01*
X108156674Y-106467089D01*
X108093809Y-106482329D01*
X108029991Y-106496616D01*
X107966650Y-106509832D01*
X107905214Y-106521858D01*
X107848421Y-106531859D01*
X107799010Y-106539003D01*
X107799010Y-106662828D01*
X107600573Y-106662828D01*
X107600573Y-106210390D01*
X107600573Y-106170702D01*
X108100000Y-105837751D01*
X108599427Y-106170702D01*
X108599427Y-106210390D01*
X108599427Y-106498045D01*
X108599427Y-106959055D01*
G37*
%TO.C,U5*%
X59900000Y-100600000D02*
X61100000Y-99400000D01*
X65200000Y-103900000D02*
X64400000Y-104700000D01*
X59800000Y-99300000D02*
X65200000Y-99300000D01*
X65200000Y-99300000D02*
X65200000Y-104700000D01*
X65200000Y-104700000D02*
X59800000Y-104700000D01*
X59800000Y-104700000D02*
X59800000Y-99300000D01*
X64441649Y-102000000D02*
G75*
G03*
X64441649Y-102000000I-1941649J0D01*
G01*
%TO.C,JP1*%
X123450000Y-108000000D02*
X122850000Y-108000000D01*
X122150000Y-107300000D02*
X122150000Y-105900000D01*
X124150000Y-105900000D02*
X124150000Y-107300000D01*
X122850000Y-105200000D02*
X123450000Y-105200000D01*
X122150000Y-107300000D02*
G75*
G03*
X122850000Y-108000000I699999J-1D01*
G01*
X123450000Y-108000000D02*
G75*
G03*
X124150000Y-107300000I1J699999D01*
G01*
X122850000Y-105200000D02*
G75*
G03*
X122150000Y-105900000I0J-700000D01*
G01*
X124150000Y-105900000D02*
G75*
G03*
X123450000Y-105200000I-700000J0D01*
G01*
%TO.C,JP9*%
X51400000Y-101700000D02*
X51400000Y-102300000D01*
X50700000Y-103000000D02*
X49300000Y-103000000D01*
X49300000Y-101000000D02*
X50700000Y-101000000D01*
X48600000Y-102300000D02*
X48600000Y-101700000D01*
X50700000Y-103000000D02*
G75*
G03*
X51400000Y-102300000I1J699999D01*
G01*
X51400000Y-101700000D02*
G75*
G03*
X50700000Y-101000000I-699999J1D01*
G01*
X48600000Y-102300000D02*
G75*
G03*
X49300000Y-103000000I700000J0D01*
G01*
X49300000Y-101000000D02*
G75*
G03*
X48600000Y-101700000I0J-700000D01*
G01*
%TO.C,JP5*%
X101400000Y-101700000D02*
X101400000Y-102300000D01*
X100700000Y-103000000D02*
X99300000Y-103000000D01*
X99300000Y-101000000D02*
X100700000Y-101000000D01*
X98600000Y-102300000D02*
X98600000Y-101700000D01*
X100700000Y-103000000D02*
G75*
G03*
X101400000Y-102300000I1J699999D01*
G01*
X101400000Y-101700000D02*
G75*
G03*
X100700000Y-101000000I-699999J1D01*
G01*
X98600000Y-102300000D02*
G75*
G03*
X99300000Y-103000000I700000J0D01*
G01*
X99300000Y-101000000D02*
G75*
G03*
X98600000Y-101700000I0J-700000D01*
G01*
%TO.C,U6*%
X47400000Y-100600000D02*
X48600000Y-99400000D01*
X52700000Y-103900000D02*
X51900000Y-104700000D01*
X47300000Y-99300000D02*
X52700000Y-99300000D01*
X52700000Y-99300000D02*
X52700000Y-104700000D01*
X52700000Y-104700000D02*
X47300000Y-104700000D01*
X47300000Y-104700000D02*
X47300000Y-99300000D01*
X51941649Y-102000000D02*
G75*
G03*
X51941649Y-102000000I-1941649J0D01*
G01*
%TO.C,JP12*%
X24550000Y-107800000D02*
X23950000Y-107800000D01*
X23250000Y-107100000D02*
X23250000Y-105700000D01*
X25250000Y-105700000D02*
X25250000Y-107100000D01*
X23950000Y-105000000D02*
X24550000Y-105000000D01*
X23250000Y-107100000D02*
G75*
G03*
X23950000Y-107800000I699999J-1D01*
G01*
X24550000Y-107800000D02*
G75*
G03*
X25250000Y-107100000I1J699999D01*
G01*
X23950000Y-105000000D02*
G75*
G03*
X23250000Y-105700000I0J-700000D01*
G01*
X25250000Y-105700000D02*
G75*
G03*
X24550000Y-105000000I-700000J0D01*
G01*
%TO.C,C2*%
X96235000Y-100738748D02*
X96235000Y-101261252D01*
X94765000Y-100738748D02*
X94765000Y-101261252D01*
%TO.C,C7*%
X21735000Y-100738748D02*
X21735000Y-101261252D01*
X20265000Y-100738748D02*
X20265000Y-101261252D01*
%TO.C,C3*%
X83735000Y-100738748D02*
X83735000Y-101261252D01*
X82265000Y-100738748D02*
X82265000Y-101261252D01*
%TO.C,U1*%
X122400000Y-100600000D02*
X123600000Y-99400000D01*
X127700000Y-103900000D02*
X126900000Y-104700000D01*
X122300000Y-99300000D02*
X127700000Y-99300000D01*
X127700000Y-99300000D02*
X127700000Y-104700000D01*
X127700000Y-104700000D02*
X122300000Y-104700000D01*
X122300000Y-104700000D02*
X122300000Y-99300000D01*
X126941649Y-102000000D02*
G75*
G03*
X126941649Y-102000000I-1941649J0D01*
G01*
%TO.C,J4*%
X38795000Y-97555000D02*
X38795000Y-98825000D01*
X37525000Y-97555000D02*
X38795000Y-97555000D01*
X35365000Y-99867929D02*
X35365000Y-100265000D01*
X34605000Y-99867929D02*
X34605000Y-100265000D01*
X32825000Y-99867929D02*
X32825000Y-100265000D01*
X32065000Y-99867929D02*
X32065000Y-100265000D01*
X37905000Y-99935000D02*
X37905000Y-100265000D01*
X37145000Y-99935000D02*
X37145000Y-100265000D01*
X38855000Y-100265000D02*
X31115000Y-100265000D01*
X36255000Y-100265000D02*
X36255000Y-102925000D01*
X33715000Y-100265000D02*
X33715000Y-102925000D01*
X31115000Y-100265000D02*
X31115000Y-102925000D01*
X38855000Y-102925000D02*
X38855000Y-100265000D01*
X37905000Y-102925000D02*
X37905000Y-108925000D01*
X37845000Y-102925000D02*
X37845000Y-108925000D01*
X37725000Y-102925000D02*
X37725000Y-108925000D01*
X37605000Y-102925000D02*
X37605000Y-108925000D01*
X37485000Y-102925000D02*
X37485000Y-108925000D01*
X37365000Y-102925000D02*
X37365000Y-108925000D01*
X37245000Y-102925000D02*
X37245000Y-108925000D01*
X35365000Y-102925000D02*
X35365000Y-108925000D01*
X32825000Y-102925000D02*
X32825000Y-108925000D01*
X31115000Y-102925000D02*
X38855000Y-102925000D01*
X37905000Y-108925000D02*
X37145000Y-108925000D01*
X37145000Y-108925000D02*
X37145000Y-102925000D01*
X35365000Y-108925000D02*
X34605000Y-108925000D01*
X34605000Y-108925000D02*
X34605000Y-102925000D01*
X32825000Y-108925000D02*
X32065000Y-108925000D01*
X32065000Y-108925000D02*
X32065000Y-102925000D01*
%TO.C,JP4*%
X126400000Y-101700000D02*
X126400000Y-102300000D01*
X125700000Y-103000000D02*
X124300000Y-103000000D01*
X124300000Y-101000000D02*
X125700000Y-101000000D01*
X123600000Y-102300000D02*
X123600000Y-101700000D01*
X125700000Y-103000000D02*
G75*
G03*
X126400000Y-102300000I1J699999D01*
G01*
X126400000Y-101700000D02*
G75*
G03*
X125700000Y-101000000I-699999J1D01*
G01*
X123600000Y-102300000D02*
G75*
G03*
X124300000Y-103000000I700000J0D01*
G01*
X124300000Y-101000000D02*
G75*
G03*
X123600000Y-101700000I0J-700000D01*
G01*
%TO.C,kibuzzard-64B1960B*%
G36*
X30804825Y-98617596D02*
G01*
X30843878Y-98661887D01*
X30863880Y-98725705D01*
X30869595Y-98800000D01*
X30867809Y-98842029D01*
X30862451Y-98880486D01*
X30838639Y-98943827D01*
X30794824Y-98985737D01*
X30727673Y-99000977D01*
X30717195Y-99000977D01*
X30706718Y-99000025D01*
X30706718Y-98603785D01*
X30723863Y-98601404D01*
X30741008Y-98600927D01*
X30804825Y-98617596D01*
G37*
G36*
X31077951Y-98296342D02*
G01*
X31127079Y-98303629D01*
X31175257Y-98315697D01*
X31222019Y-98332429D01*
X31266917Y-98353664D01*
X31309516Y-98379197D01*
X31349408Y-98408783D01*
X31386208Y-98442137D01*
X31419562Y-98478937D01*
X31449148Y-98518829D01*
X31474681Y-98561428D01*
X31495916Y-98606326D01*
X31512648Y-98653088D01*
X31524716Y-98701266D01*
X31532003Y-98750394D01*
X31534440Y-98800000D01*
X31532003Y-98849606D01*
X31524716Y-98898734D01*
X31512648Y-98946912D01*
X31495916Y-98993674D01*
X31474681Y-99038572D01*
X31449148Y-99081171D01*
X31419562Y-99121063D01*
X31386208Y-99157863D01*
X31349408Y-99191217D01*
X31309516Y-99220803D01*
X31266917Y-99246336D01*
X31222019Y-99267571D01*
X31175257Y-99284303D01*
X31127079Y-99296371D01*
X31077951Y-99303658D01*
X31028345Y-99306095D01*
X30988658Y-99306095D01*
X30715290Y-99306095D01*
X30400012Y-99306095D01*
X29852325Y-99306095D01*
X29611342Y-99306095D01*
X29571655Y-99306095D01*
X29522049Y-99303658D01*
X29472921Y-99296371D01*
X29424743Y-99284303D01*
X29377981Y-99267571D01*
X29333083Y-99246336D01*
X29290484Y-99220803D01*
X29250592Y-99191217D01*
X29213792Y-99157863D01*
X29180438Y-99121063D01*
X29150852Y-99081171D01*
X29125319Y-99038572D01*
X29104084Y-98993674D01*
X29087352Y-98946912D01*
X29075284Y-98898734D01*
X29067997Y-98849606D01*
X29065560Y-98800000D01*
X29611342Y-98800000D01*
X29615629Y-98871557D01*
X29628487Y-98933826D01*
X29649204Y-98986690D01*
X29677065Y-99030029D01*
X29711712Y-99063842D01*
X29752789Y-99088131D01*
X29799818Y-99102776D01*
X29852325Y-99107658D01*
X29910547Y-99105276D01*
X29959481Y-99098132D01*
X30024727Y-99080987D01*
X30024727Y-98786665D01*
X29907570Y-98786665D01*
X29907570Y-99001930D01*
X29884710Y-99004787D01*
X29861850Y-99005740D01*
X29804938Y-98993238D01*
X29763742Y-98955734D01*
X29745222Y-98916205D01*
X29734109Y-98864294D01*
X29730405Y-98800000D01*
X29732429Y-98756304D01*
X29738501Y-98716656D01*
X29765171Y-98651886D01*
X29812320Y-98609500D01*
X29882805Y-98594260D01*
X29945670Y-98604737D01*
X29997105Y-98628550D01*
X30027585Y-98535205D01*
X30008059Y-98523775D01*
X29975197Y-98509487D01*
X29960109Y-98505677D01*
X30105690Y-98505677D01*
X30105690Y-99095275D01*
X30211418Y-99095275D01*
X30211418Y-98703797D01*
X30246819Y-98769150D01*
X30280632Y-98834396D01*
X30312859Y-98899536D01*
X30343498Y-98964677D01*
X30372549Y-99029923D01*
X30400012Y-99095275D01*
X30494310Y-99095275D01*
X30494310Y-99088607D01*
X30589560Y-99088607D01*
X30653854Y-99099561D01*
X30715290Y-99102895D01*
X30772797Y-99098728D01*
X30825304Y-99086226D01*
X30871857Y-99064676D01*
X30911505Y-99033362D01*
X30943771Y-98991810D01*
X30968179Y-98939541D01*
X30983538Y-98875843D01*
X30988658Y-98800000D01*
X30984014Y-98725824D01*
X30970084Y-98663316D01*
X30947819Y-98611643D01*
X30918173Y-98569971D01*
X30881144Y-98538182D01*
X30836734Y-98516155D01*
X30786132Y-98503296D01*
X30730530Y-98499010D01*
X30664808Y-98501867D01*
X30589560Y-98513297D01*
X30589560Y-99088607D01*
X30494310Y-99088607D01*
X30494310Y-98505677D01*
X30388582Y-98505677D01*
X30388582Y-98868580D01*
X30371795Y-98831432D01*
X30351911Y-98788570D01*
X30329527Y-98742136D01*
X30305239Y-98694272D01*
X30279640Y-98645576D01*
X30253327Y-98596641D01*
X30226658Y-98549373D01*
X30199988Y-98505677D01*
X30105690Y-98505677D01*
X29960109Y-98505677D01*
X29928049Y-98497581D01*
X29866612Y-98492342D01*
X29814939Y-98497224D01*
X29766600Y-98511869D01*
X29723023Y-98536277D01*
X29685637Y-98570447D01*
X29654919Y-98614143D01*
X29631345Y-98667126D01*
X29616343Y-98729158D01*
X29611342Y-98800000D01*
X29065560Y-98800000D01*
X29067997Y-98750394D01*
X29075284Y-98701266D01*
X29087352Y-98653088D01*
X29104084Y-98606326D01*
X29125319Y-98561428D01*
X29150852Y-98518829D01*
X29180438Y-98478937D01*
X29213792Y-98442137D01*
X29250592Y-98408783D01*
X29290484Y-98379197D01*
X29333083Y-98353664D01*
X29377981Y-98332429D01*
X29424743Y-98315697D01*
X29472921Y-98303629D01*
X29522049Y-98296342D01*
X29571655Y-98293905D01*
X29611342Y-98293905D01*
X29611343Y-98293905D01*
X30988658Y-98293905D01*
X31028345Y-98293905D01*
X31077951Y-98296342D01*
G37*
%TO.C,JP7*%
X76400000Y-101700000D02*
X76400000Y-102300000D01*
X75700000Y-103000000D02*
X74300000Y-103000000D01*
X74300000Y-101000000D02*
X75700000Y-101000000D01*
X73600000Y-102300000D02*
X73600000Y-101700000D01*
X75700000Y-103000000D02*
G75*
G03*
X76400000Y-102300000I1J699999D01*
G01*
X76400000Y-101700000D02*
G75*
G03*
X75700000Y-101000000I-699999J1D01*
G01*
X73600000Y-102300000D02*
G75*
G03*
X74300000Y-103000000I700000J0D01*
G01*
X74300000Y-101000000D02*
G75*
G03*
X73600000Y-101700000I0J-700000D01*
G01*
%TO.C,U4*%
X72400000Y-100600000D02*
X73600000Y-99400000D01*
X77700000Y-103900000D02*
X76900000Y-104700000D01*
X72300000Y-99300000D02*
X77700000Y-99300000D01*
X77700000Y-99300000D02*
X77700000Y-104700000D01*
X77700000Y-104700000D02*
X72300000Y-104700000D01*
X72300000Y-104700000D02*
X72300000Y-99300000D01*
X76941649Y-102000000D02*
G75*
G03*
X76941649Y-102000000I-1941649J0D01*
G01*
%TO.C,U3*%
X84900000Y-100600000D02*
X86100000Y-99400000D01*
X90200000Y-103900000D02*
X89400000Y-104700000D01*
X84800000Y-99300000D02*
X90200000Y-99300000D01*
X90200000Y-99300000D02*
X90200000Y-104700000D01*
X90200000Y-104700000D02*
X84800000Y-104700000D01*
X84800000Y-104700000D02*
X84800000Y-99300000D01*
X89441649Y-102000000D02*
G75*
G03*
X89441649Y-102000000I-1941649J0D01*
G01*
%TO.C,JP6*%
X88900000Y-101700000D02*
X88900000Y-102300000D01*
X88200000Y-103000000D02*
X86800000Y-103000000D01*
X86800000Y-101000000D02*
X88200000Y-101000000D01*
X86100000Y-102300000D02*
X86100000Y-101700000D01*
X88200000Y-103000000D02*
G75*
G03*
X88900000Y-102300000I1J699999D01*
G01*
X88900000Y-101700000D02*
G75*
G03*
X88200000Y-101000000I-699999J1D01*
G01*
X86100000Y-102300000D02*
G75*
G03*
X86800000Y-103000000I700000J0D01*
G01*
X86800000Y-101000000D02*
G75*
G03*
X86100000Y-101700000I0J-700000D01*
G01*
%TO.C,U7*%
X22400000Y-100600000D02*
X23600000Y-99400000D01*
X27700000Y-103900000D02*
X26900000Y-104700000D01*
X22300000Y-99300000D02*
X27700000Y-99300000D01*
X27700000Y-99300000D02*
X27700000Y-104700000D01*
X27700000Y-104700000D02*
X22300000Y-104700000D01*
X22300000Y-104700000D02*
X22300000Y-99300000D01*
X26941649Y-102000000D02*
G75*
G03*
X26941649Y-102000000I-1941649J0D01*
G01*
%TO.C,kibuzzard-64B1960B*%
G36*
X110804825Y-98617596D02*
G01*
X110843878Y-98661887D01*
X110863880Y-98725705D01*
X110869595Y-98800000D01*
X110867809Y-98842029D01*
X110862451Y-98880486D01*
X110838639Y-98943827D01*
X110794824Y-98985737D01*
X110727673Y-99000977D01*
X110717195Y-99000977D01*
X110706718Y-99000025D01*
X110706718Y-98603785D01*
X110723863Y-98601404D01*
X110741008Y-98600927D01*
X110804825Y-98617596D01*
G37*
G36*
X111077951Y-98296342D02*
G01*
X111127079Y-98303629D01*
X111175257Y-98315697D01*
X111222019Y-98332429D01*
X111266917Y-98353664D01*
X111309516Y-98379197D01*
X111349408Y-98408783D01*
X111386208Y-98442137D01*
X111419562Y-98478937D01*
X111449148Y-98518829D01*
X111474681Y-98561428D01*
X111495916Y-98606326D01*
X111512648Y-98653088D01*
X111524716Y-98701266D01*
X111532003Y-98750394D01*
X111534440Y-98800000D01*
X111532003Y-98849606D01*
X111524716Y-98898734D01*
X111512648Y-98946912D01*
X111495916Y-98993674D01*
X111474681Y-99038572D01*
X111449148Y-99081171D01*
X111419562Y-99121063D01*
X111386208Y-99157863D01*
X111349408Y-99191217D01*
X111309516Y-99220803D01*
X111266917Y-99246336D01*
X111222019Y-99267571D01*
X111175257Y-99284303D01*
X111127079Y-99296371D01*
X111077951Y-99303658D01*
X111028345Y-99306095D01*
X110988658Y-99306095D01*
X110715290Y-99306095D01*
X110400012Y-99306095D01*
X109852325Y-99306095D01*
X109611342Y-99306095D01*
X109571655Y-99306095D01*
X109522049Y-99303658D01*
X109472921Y-99296371D01*
X109424743Y-99284303D01*
X109377981Y-99267571D01*
X109333083Y-99246336D01*
X109290484Y-99220803D01*
X109250592Y-99191217D01*
X109213792Y-99157863D01*
X109180438Y-99121063D01*
X109150852Y-99081171D01*
X109125319Y-99038572D01*
X109104084Y-98993674D01*
X109087352Y-98946912D01*
X109075284Y-98898734D01*
X109067997Y-98849606D01*
X109065560Y-98800000D01*
X109611342Y-98800000D01*
X109615629Y-98871557D01*
X109628487Y-98933826D01*
X109649204Y-98986690D01*
X109677065Y-99030029D01*
X109711712Y-99063842D01*
X109752789Y-99088131D01*
X109799818Y-99102776D01*
X109852325Y-99107658D01*
X109910547Y-99105276D01*
X109959481Y-99098132D01*
X110024727Y-99080987D01*
X110024727Y-98786665D01*
X109907570Y-98786665D01*
X109907570Y-99001930D01*
X109884710Y-99004787D01*
X109861850Y-99005740D01*
X109804938Y-98993238D01*
X109763742Y-98955734D01*
X109745222Y-98916205D01*
X109734109Y-98864294D01*
X109730405Y-98800000D01*
X109732429Y-98756304D01*
X109738501Y-98716656D01*
X109765171Y-98651886D01*
X109812320Y-98609500D01*
X109882805Y-98594260D01*
X109945670Y-98604737D01*
X109997105Y-98628550D01*
X110027585Y-98535205D01*
X110008059Y-98523775D01*
X109975197Y-98509487D01*
X109960109Y-98505677D01*
X110105690Y-98505677D01*
X110105690Y-99095275D01*
X110211418Y-99095275D01*
X110211418Y-98703797D01*
X110246819Y-98769150D01*
X110280632Y-98834396D01*
X110312859Y-98899536D01*
X110343498Y-98964677D01*
X110372549Y-99029923D01*
X110400012Y-99095275D01*
X110494310Y-99095275D01*
X110494310Y-99088607D01*
X110589560Y-99088607D01*
X110653854Y-99099561D01*
X110715290Y-99102895D01*
X110772797Y-99098728D01*
X110825304Y-99086226D01*
X110871857Y-99064676D01*
X110911505Y-99033362D01*
X110943771Y-98991810D01*
X110968179Y-98939541D01*
X110983538Y-98875843D01*
X110988658Y-98800000D01*
X110984014Y-98725824D01*
X110970084Y-98663316D01*
X110947819Y-98611643D01*
X110918173Y-98569971D01*
X110881144Y-98538182D01*
X110836734Y-98516155D01*
X110786132Y-98503296D01*
X110730530Y-98499010D01*
X110664808Y-98501867D01*
X110589560Y-98513297D01*
X110589560Y-99088607D01*
X110494310Y-99088607D01*
X110494310Y-98505677D01*
X110388582Y-98505677D01*
X110388582Y-98868580D01*
X110371795Y-98831432D01*
X110351911Y-98788570D01*
X110329527Y-98742136D01*
X110305239Y-98694272D01*
X110279640Y-98645576D01*
X110253327Y-98596641D01*
X110226658Y-98549373D01*
X110199988Y-98505677D01*
X110105690Y-98505677D01*
X109960109Y-98505677D01*
X109928049Y-98497581D01*
X109866612Y-98492342D01*
X109814939Y-98497224D01*
X109766600Y-98511869D01*
X109723023Y-98536277D01*
X109685637Y-98570447D01*
X109654919Y-98614143D01*
X109631345Y-98667126D01*
X109616343Y-98729158D01*
X109611342Y-98800000D01*
X109065560Y-98800000D01*
X109067997Y-98750394D01*
X109075284Y-98701266D01*
X109087352Y-98653088D01*
X109104084Y-98606326D01*
X109125319Y-98561428D01*
X109150852Y-98518829D01*
X109180438Y-98478937D01*
X109213792Y-98442137D01*
X109250592Y-98408783D01*
X109290484Y-98379197D01*
X109333083Y-98353664D01*
X109377981Y-98332429D01*
X109424743Y-98315697D01*
X109472921Y-98303629D01*
X109522049Y-98296342D01*
X109571655Y-98293905D01*
X109611342Y-98293905D01*
X109611343Y-98293905D01*
X110988658Y-98293905D01*
X111028345Y-98293905D01*
X111077951Y-98296342D01*
G37*
%TO.C,kibuzzard-64B19658*%
G36*
X38599427Y-106959055D02*
G01*
X38599427Y-107339103D01*
X38599427Y-107589610D01*
X38599427Y-107629298D01*
X38100000Y-107962249D01*
X37600572Y-107629298D01*
X37600572Y-107589610D01*
X37600573Y-107589610D01*
X37600573Y-107440068D01*
X37924740Y-107440068D01*
X38090475Y-107440068D01*
X38090475Y-107589610D01*
X38186677Y-107589610D01*
X38186677Y-107440068D01*
X38352412Y-107440068D01*
X38352412Y-107339103D01*
X38186677Y-107339103D01*
X38186677Y-107189560D01*
X38090475Y-107189560D01*
X38090475Y-107339103D01*
X37924740Y-107339103D01*
X37924740Y-107440068D01*
X37600573Y-107440068D01*
X37600573Y-107048590D01*
X37799010Y-107048590D01*
X37871757Y-107052162D01*
X37947124Y-107057163D01*
X38024633Y-107063830D01*
X38103810Y-107072403D01*
X38105834Y-107006918D01*
X38111906Y-106955245D01*
X38134766Y-106886189D01*
X38170009Y-106853804D01*
X38215252Y-106845708D01*
X38246685Y-106850470D01*
X38273831Y-106868091D01*
X38293358Y-106903334D01*
X38300978Y-106960008D01*
X38298834Y-107004537D01*
X38292405Y-107040970D01*
X38273355Y-107094310D01*
X38370510Y-107118123D01*
X38380987Y-107090976D01*
X38390989Y-107051448D01*
X38398132Y-107005728D01*
X38400990Y-106959055D01*
X38397418Y-106904524D01*
X38386703Y-106857138D01*
X38369557Y-106816894D01*
X38346697Y-106783795D01*
X38286214Y-106739980D01*
X38210490Y-106725693D01*
X38155245Y-106732148D01*
X38108890Y-106751516D01*
X38071425Y-106783795D01*
X38043062Y-106829198D01*
X38024012Y-106887935D01*
X38014275Y-106960008D01*
X37959982Y-106955245D01*
X37896165Y-106950483D01*
X37896165Y-106747600D01*
X37799010Y-106747600D01*
X37799010Y-107048590D01*
X37600573Y-107048590D01*
X37600573Y-106662828D01*
X37799010Y-106662828D01*
X37852350Y-106651874D01*
X37919025Y-106636157D01*
X37968925Y-106623563D01*
X38020837Y-106609911D01*
X38074759Y-106595200D01*
X38129739Y-106579643D01*
X38184825Y-106563450D01*
X38240017Y-106546622D01*
X38318599Y-106521619D01*
X38388607Y-106498045D01*
X38388607Y-106377078D01*
X38337860Y-106358874D01*
X38285949Y-106341094D01*
X38232874Y-106323737D01*
X38179534Y-106307069D01*
X38126829Y-106291353D01*
X38074759Y-106276589D01*
X37998916Y-106256348D01*
X37926645Y-106238489D01*
X37859494Y-106223130D01*
X37799010Y-106210390D01*
X37799010Y-106333263D01*
X37848540Y-106341835D01*
X37905690Y-106352312D01*
X37967483Y-106364219D01*
X38030944Y-106377078D01*
X38094761Y-106390889D01*
X38157626Y-106405652D01*
X38216562Y-106420893D01*
X38268592Y-106436133D01*
X38215848Y-106451492D01*
X38156674Y-106467089D01*
X38093809Y-106482329D01*
X38029991Y-106496616D01*
X37966650Y-106509832D01*
X37905214Y-106521858D01*
X37848421Y-106531859D01*
X37799010Y-106539003D01*
X37799010Y-106662828D01*
X37600573Y-106662828D01*
X37600573Y-106210390D01*
X37600573Y-106170702D01*
X38100000Y-105837751D01*
X38599427Y-106170702D01*
X38599427Y-106210390D01*
X38599427Y-106498045D01*
X38599427Y-106959055D01*
G37*
%TO.C,C1*%
X121235000Y-100738748D02*
X121235000Y-101261252D01*
X119765000Y-100738748D02*
X119765000Y-101261252D01*
%TO.C,JP10*%
X26400000Y-101700000D02*
X26400000Y-102300000D01*
X25700000Y-103000000D02*
X24300000Y-103000000D01*
X24300000Y-101000000D02*
X25700000Y-101000000D01*
X23600000Y-102300000D02*
X23600000Y-101700000D01*
X25700000Y-103000000D02*
G75*
G03*
X26400000Y-102300000I1J699999D01*
G01*
X26400000Y-101700000D02*
G75*
G03*
X25700000Y-101000000I-699999J1D01*
G01*
X23600000Y-102300000D02*
G75*
G03*
X24300000Y-103000000I700000J0D01*
G01*
X24300000Y-101000000D02*
G75*
G03*
X23600000Y-101700000I0J-700000D01*
G01*
%TO.C,kibuzzard-64B196D3*%
G36*
X33962264Y-97345206D02*
G01*
X34001316Y-97389497D01*
X34021319Y-97453315D01*
X34027034Y-97527610D01*
X34025248Y-97569639D01*
X34019890Y-97608096D01*
X33996077Y-97671438D01*
X33952262Y-97713347D01*
X33885111Y-97728587D01*
X33874634Y-97728587D01*
X33864156Y-97727635D01*
X33864156Y-97331395D01*
X33881301Y-97329014D01*
X33898446Y-97328537D01*
X33962264Y-97345206D01*
G37*
G36*
X34934766Y-97338062D02*
G01*
X34962865Y-97381877D01*
X34976200Y-97447124D01*
X34978700Y-97486057D01*
X34979534Y-97527610D01*
X34978700Y-97569044D01*
X34976200Y-97607620D01*
X34962865Y-97672866D01*
X34934290Y-97717157D01*
X34886189Y-97733350D01*
X34837611Y-97717157D01*
X34809513Y-97673342D01*
X34796178Y-97608096D01*
X34793677Y-97569163D01*
X34792844Y-97527610D01*
X34793677Y-97486176D01*
X34796178Y-97447600D01*
X34809513Y-97382354D01*
X34837611Y-97338062D01*
X34886189Y-97321870D01*
X34934766Y-97338062D01*
G37*
G36*
X36251439Y-98178485D02*
G01*
X36053001Y-98178485D01*
X35897744Y-98178485D01*
X35360534Y-98178485D01*
X34887141Y-98178485D01*
X34640444Y-98178485D01*
X33872729Y-98178485D01*
X33746999Y-98178485D01*
X33548561Y-98178485D01*
X33548561Y-97878130D01*
X34179434Y-97878130D01*
X34179434Y-97980048D01*
X34640444Y-97980048D01*
X34640444Y-97878130D01*
X34179434Y-97878130D01*
X33548561Y-97878130D01*
X33548561Y-97816218D01*
X33746999Y-97816218D01*
X33811292Y-97827171D01*
X33872729Y-97830505D01*
X33930236Y-97826338D01*
X33982742Y-97813836D01*
X34029296Y-97792286D01*
X34068944Y-97760973D01*
X34101210Y-97719420D01*
X34125617Y-97667151D01*
X34140977Y-97603453D01*
X34146096Y-97527610D01*
X34673781Y-97527610D01*
X34677204Y-97599137D01*
X34687473Y-97661317D01*
X34704589Y-97714151D01*
X34728550Y-97757639D01*
X34770513Y-97800766D01*
X34823377Y-97826642D01*
X34887141Y-97835268D01*
X34949371Y-97826642D01*
X35001441Y-97800766D01*
X35043351Y-97757639D01*
X35067521Y-97714151D01*
X35084785Y-97661317D01*
X35095143Y-97599137D01*
X35098596Y-97527610D01*
X35095203Y-97456083D01*
X35085023Y-97393903D01*
X35068057Y-97341069D01*
X35044304Y-97297581D01*
X35002605Y-97254454D01*
X34959491Y-97233287D01*
X35161461Y-97233287D01*
X35161461Y-97609525D01*
X35163842Y-97658579D01*
X35170986Y-97702870D01*
X35183845Y-97741684D01*
X35203371Y-97774307D01*
X35264808Y-97819551D01*
X35308027Y-97831338D01*
X35360534Y-97835268D01*
X35413874Y-97831338D01*
X35457689Y-97819551D01*
X35492931Y-97800382D01*
X35520554Y-97774307D01*
X35540794Y-97741684D01*
X35553891Y-97702870D01*
X35561035Y-97658579D01*
X35563416Y-97609525D01*
X35563416Y-97233287D01*
X35624376Y-97233287D01*
X35624376Y-97330442D01*
X35779634Y-97330442D01*
X35779634Y-97822885D01*
X35897744Y-97822885D01*
X35897744Y-97330442D01*
X36053001Y-97330442D01*
X36053001Y-97233287D01*
X35624376Y-97233287D01*
X35563416Y-97233287D01*
X35446259Y-97233287D01*
X35446259Y-97600953D01*
X35442449Y-97663341D01*
X35429114Y-97704299D01*
X35403396Y-97726683D01*
X35362439Y-97733350D01*
X35321481Y-97726683D01*
X35296240Y-97704775D01*
X35283381Y-97664294D01*
X35279571Y-97601905D01*
X35279571Y-97233287D01*
X35161461Y-97233287D01*
X34959491Y-97233287D01*
X34949900Y-97228578D01*
X34886189Y-97219952D01*
X34824382Y-97228578D01*
X34772312Y-97254454D01*
X34729979Y-97297581D01*
X34705392Y-97341069D01*
X34687831Y-97393903D01*
X34677294Y-97456083D01*
X34673781Y-97527610D01*
X34146096Y-97527610D01*
X34141453Y-97453434D01*
X34127523Y-97390926D01*
X34105258Y-97339253D01*
X34075611Y-97297581D01*
X34038583Y-97265792D01*
X33994173Y-97243765D01*
X33943571Y-97230906D01*
X33887969Y-97226620D01*
X33822246Y-97229477D01*
X33746999Y-97240907D01*
X33746999Y-97816218D01*
X33548561Y-97816218D01*
X33548561Y-97021515D01*
X33746999Y-97021515D01*
X36053001Y-97021515D01*
X36251439Y-97021515D01*
X36251439Y-98178485D01*
G37*
%TO.C,C5*%
X58735000Y-100738748D02*
X58735000Y-101261252D01*
X57265000Y-100738748D02*
X57265000Y-101261252D01*
%TO.C,kibuzzard-64B19658*%
G36*
X39310390Y-98300573D02*
G01*
X40689610Y-98300573D01*
X40729298Y-98300573D01*
X41062249Y-98800000D01*
X40729298Y-99299427D01*
X40689610Y-99299427D01*
X40401955Y-99299427D01*
X39940945Y-99299427D01*
X39560897Y-99299427D01*
X39310390Y-99299427D01*
X39270702Y-99299427D01*
X39118091Y-99070510D01*
X39781877Y-99070510D01*
X39809024Y-99080987D01*
X39848552Y-99090989D01*
X39894272Y-99098132D01*
X39940945Y-99100990D01*
X39995476Y-99097418D01*
X40042862Y-99086703D01*
X40083106Y-99069557D01*
X40116205Y-99046697D01*
X40160020Y-98986214D01*
X40174307Y-98910490D01*
X40167852Y-98855245D01*
X40148484Y-98808890D01*
X40116205Y-98771425D01*
X40070802Y-98743062D01*
X40012065Y-98724012D01*
X39939992Y-98714275D01*
X39944755Y-98659982D01*
X39949517Y-98596165D01*
X40152400Y-98596165D01*
X40152400Y-98499010D01*
X40237172Y-98499010D01*
X40248126Y-98552350D01*
X40263843Y-98619025D01*
X40276437Y-98668925D01*
X40290089Y-98720837D01*
X40304800Y-98774759D01*
X40320357Y-98829739D01*
X40336550Y-98884825D01*
X40353378Y-98940017D01*
X40378381Y-99018599D01*
X40401955Y-99088607D01*
X40522922Y-99088607D01*
X40541126Y-99037860D01*
X40558906Y-98985949D01*
X40576263Y-98932874D01*
X40592931Y-98879534D01*
X40608647Y-98826829D01*
X40623411Y-98774759D01*
X40643652Y-98698916D01*
X40661511Y-98626645D01*
X40676870Y-98559494D01*
X40689610Y-98499010D01*
X40566737Y-98499010D01*
X40558165Y-98548540D01*
X40547688Y-98605690D01*
X40535781Y-98667483D01*
X40522922Y-98730944D01*
X40509111Y-98794761D01*
X40494348Y-98857626D01*
X40479107Y-98916562D01*
X40463867Y-98968592D01*
X40448508Y-98915848D01*
X40432911Y-98856674D01*
X40417671Y-98793809D01*
X40403384Y-98729991D01*
X40390168Y-98666650D01*
X40378142Y-98605214D01*
X40368141Y-98548421D01*
X40360997Y-98499010D01*
X40237172Y-98499010D01*
X40152400Y-98499010D01*
X39851410Y-98499010D01*
X39847838Y-98571757D01*
X39842837Y-98647124D01*
X39836170Y-98724633D01*
X39827597Y-98803810D01*
X39893082Y-98805834D01*
X39944755Y-98811906D01*
X40013811Y-98834766D01*
X40046196Y-98870009D01*
X40054292Y-98915252D01*
X40049530Y-98946685D01*
X40031909Y-98973831D01*
X39996666Y-98993358D01*
X39939992Y-99000978D01*
X39895463Y-98998834D01*
X39859030Y-98992405D01*
X39805690Y-98973355D01*
X39781877Y-99070510D01*
X39118091Y-99070510D01*
X38995536Y-98886677D01*
X39310390Y-98886677D01*
X39459932Y-98886677D01*
X39459932Y-99052412D01*
X39560897Y-99052412D01*
X39560897Y-98886677D01*
X39710440Y-98886677D01*
X39710440Y-98790475D01*
X39560897Y-98790475D01*
X39560897Y-98624740D01*
X39459932Y-98624740D01*
X39459932Y-98790475D01*
X39310390Y-98790475D01*
X39310390Y-98886677D01*
X38995536Y-98886677D01*
X38937751Y-98800000D01*
X39270702Y-98300572D01*
X39310390Y-98300572D01*
X39310390Y-98300573D01*
G37*
%TO.C,JP2*%
X126050000Y-108000000D02*
X125450000Y-108000000D01*
X124750000Y-107300000D02*
X124750000Y-105900000D01*
X126750000Y-105900000D02*
X126750000Y-107300000D01*
X125450000Y-105200000D02*
X126050000Y-105200000D01*
X124750000Y-107300000D02*
G75*
G03*
X125450000Y-108000000I699999J-1D01*
G01*
X126050000Y-108000000D02*
G75*
G03*
X126750000Y-107300000I1J699999D01*
G01*
X125450000Y-105200000D02*
G75*
G03*
X124750000Y-105900000I0J-700000D01*
G01*
X126750000Y-105900000D02*
G75*
G03*
X126050000Y-105200000I-700000J0D01*
G01*
%TO.C,JP8*%
X63900000Y-101700000D02*
X63900000Y-102300000D01*
X63200000Y-103000000D02*
X61800000Y-103000000D01*
X61800000Y-101000000D02*
X63200000Y-101000000D01*
X61100000Y-102300000D02*
X61100000Y-101700000D01*
X63200000Y-103000000D02*
G75*
G03*
X63900000Y-102300000I1J699999D01*
G01*
X63900000Y-101700000D02*
G75*
G03*
X63200000Y-101000000I-699999J1D01*
G01*
X61100000Y-102300000D02*
G75*
G03*
X61800000Y-103000000I700000J0D01*
G01*
X61800000Y-101000000D02*
G75*
G03*
X61100000Y-101700000I0J-700000D01*
G01*
%TD*%
M02*
