M48
; DRILL file {KiCad 7.0.5} date lun. 17 juil. 2023 12:02:22
; FORMAT={-:-/ absolute / inch / decimal}
; #@! TF.CreationDate,2023-07-17T12:02:22+02:00
; #@! TF.GenerationSoftware,Kicad,Pcbnew,7.0.5
; #@! TF.FileFunction,Plated,1,2,PTH
FMAT,2
INCH
; #@! TA.AperFunction,Plated,PTH,ViaDrill
T1C0.0157
; #@! TA.AperFunction,Plated,PTH,ComponentDrill
T2C0.0394
%
G90
G05
T1
X0.8169Y-3.8484
X0.8268Y-4.0453
X1.1319Y-4.0748
X1.1319Y-4.2126
X1.4862Y-4.2224
X1.6929Y-4.2913
X1.8307Y-4.0157
X1.9685Y-3.8583
X2.3228Y-4.0157
X2.4606Y-3.8583
X2.815Y-4.0157
X2.9528Y-3.8583
X3.4449Y-3.8583
X3.937Y-3.8583
X4.0748Y-4.0945
X4.2126Y-4.2913
X4.2618Y-3.8976
X4.4488Y-4.2907
X4.7441Y-4.0453
X4.7539Y-4.2224
X5.0689Y-4.0846
T2
X1.2774Y-3.8907
X1.3774Y-3.8907
X1.4774Y-3.8907
X4.4276Y-3.8898
X4.5276Y-3.8898
X4.6276Y-3.8898
T0
M30
