%TF.GenerationSoftware,KiCad,Pcbnew,7.0.5*%
%TF.CreationDate,2023-07-17T12:02:18+02:00*%
%TF.ProjectId,Small_Wall,536d616c-6c5f-4576-916c-6c2e6b696361,rev?*%
%TF.SameCoordinates,Original*%
%TF.FileFunction,Paste,Top*%
%TF.FilePolarity,Positive*%
%FSLAX46Y46*%
G04 Gerber Fmt 4.6, Leading zero omitted, Abs format (unit mm)*
G04 Created by KiCad (PCBNEW 7.0.5) date 2023-07-17 12:02:18*
%MOMM*%
%LPD*%
G01*
G04 APERTURE LIST*
G04 Aperture macros list*
%AMRoundRect*
0 Rectangle with rounded corners*
0 $1 Rounding radius*
0 $2 $3 $4 $5 $6 $7 $8 $9 X,Y pos of 4 corners*
0 Add a 4 corners polygon primitive as box body*
4,1,4,$2,$3,$4,$5,$6,$7,$8,$9,$2,$3,0*
0 Add four circle primitives for the rounded corners*
1,1,$1+$1,$2,$3*
1,1,$1+$1,$4,$5*
1,1,$1+$1,$6,$7*
1,1,$1+$1,$8,$9*
0 Add four rect primitives between the rounded corners*
20,1,$1+$1,$2,$3,$4,$5,0*
20,1,$1+$1,$4,$5,$6,$7,0*
20,1,$1+$1,$6,$7,$8,$9,0*
20,1,$1+$1,$8,$9,$2,$3,0*%
G04 Aperture macros list end*
%ADD10R,1.524000X1.143000*%
%ADD11O,1.524000X2.000000*%
%ADD12RoundRect,0.250000X-0.475000X0.250000X-0.475000X-0.250000X0.475000X-0.250000X0.475000X0.250000X0*%
%ADD13RoundRect,0.312500X-0.462500X-0.312500X0.462500X-0.312500X0.462500X0.312500X-0.462500X0.312500X0*%
G04 APERTURE END LIST*
D10*
%TO.C,J2*%
X111900000Y-109425000D03*
D11*
X111900000Y-108983800D03*
D10*
X110000000Y-109425000D03*
D11*
X110000000Y-108983800D03*
D10*
X108100000Y-109425000D03*
D11*
X108100000Y-108983800D03*
%TD*%
D10*
%TO.C,J5*%
X41900000Y-109400000D03*
D11*
X41900000Y-108958800D03*
D10*
X40000000Y-109400000D03*
D11*
X40000000Y-108958800D03*
D10*
X38100000Y-109400000D03*
D11*
X38100000Y-108958800D03*
%TD*%
D12*
%TO.C,C6*%
X45500000Y-100050000D03*
X45500000Y-101950000D03*
%TD*%
D13*
%TO.C,U2*%
X97550000Y-100150000D03*
X97550000Y-103850000D03*
X102450000Y-103850000D03*
X102450000Y-100150000D03*
%TD*%
D12*
%TO.C,C4*%
X70500000Y-100050000D03*
X70500000Y-101950000D03*
%TD*%
D13*
%TO.C,U5*%
X60050000Y-100150000D03*
X60050000Y-103850000D03*
X64950000Y-103850000D03*
X64950000Y-100150000D03*
%TD*%
%TO.C,U6*%
X47550000Y-100150000D03*
X47550000Y-103850000D03*
X52450000Y-103850000D03*
X52450000Y-100150000D03*
%TD*%
D12*
%TO.C,C2*%
X95500000Y-100050000D03*
X95500000Y-101950000D03*
%TD*%
%TO.C,C7*%
X21000000Y-100050000D03*
X21000000Y-101950000D03*
%TD*%
%TO.C,C3*%
X83000000Y-100050000D03*
X83000000Y-101950000D03*
%TD*%
D13*
%TO.C,U1*%
X122550000Y-100150000D03*
X122550000Y-103850000D03*
X127450000Y-103850000D03*
X127450000Y-100150000D03*
%TD*%
%TO.C,U4*%
X72550000Y-100150000D03*
X72550000Y-103850000D03*
X77450000Y-103850000D03*
X77450000Y-100150000D03*
%TD*%
%TO.C,U3*%
X85050000Y-100150000D03*
X85050000Y-103850000D03*
X89950000Y-103850000D03*
X89950000Y-100150000D03*
%TD*%
%TO.C,U7*%
X22550000Y-100150000D03*
X22550000Y-103850000D03*
X27450000Y-103850000D03*
X27450000Y-100150000D03*
%TD*%
D12*
%TO.C,C1*%
X120500000Y-100050000D03*
X120500000Y-101950000D03*
%TD*%
%TO.C,C5*%
X58000000Y-100050000D03*
X58000000Y-101950000D03*
%TD*%
M02*
