%TF.GenerationSoftware,KiCad,Pcbnew,7.0.7*%
%TF.CreationDate,2023-11-13T13:38:28+01:00*%
%TF.ProjectId,Small_Wall,536d616c-6c5f-4576-916c-6c2e6b696361,rev?*%
%TF.SameCoordinates,Original*%
%TF.FileFunction,Legend,Bot*%
%TF.FilePolarity,Positive*%
%FSLAX46Y46*%
G04 Gerber Fmt 4.6, Leading zero omitted, Abs format (unit mm)*
G04 Created by KiCad (PCBNEW 7.0.7) date 2023-11-13 13:38:28*
%MOMM*%
%LPD*%
G01*
G04 APERTURE LIST*
%ADD10C,0.032046*%
G04 APERTURE END LIST*
D10*
X71294204Y-102702883D02*
X70945575Y-102635125D01*
X70939786Y-102040722D01*
X70786080Y-102010833D01*
X70397762Y-102528631D01*
X70038343Y-102458764D01*
X70453614Y-101906198D01*
X70427564Y-101896389D01*
X70402433Y-101886096D01*
X70378221Y-101875320D01*
X70354929Y-101864060D01*
X70332556Y-101852316D01*
X70311102Y-101840088D01*
X70290568Y-101827377D01*
X70270952Y-101814182D01*
X70252256Y-101800504D01*
X70234478Y-101786343D01*
X70217620Y-101771698D01*
X70201680Y-101756570D01*
X70186660Y-101740958D01*
X70172558Y-101724864D01*
X70159376Y-101708286D01*
X70147112Y-101691225D01*
X70135642Y-101673233D01*
X70125275Y-101654535D01*
X70116009Y-101635131D01*
X70107846Y-101615022D01*
X70100785Y-101594208D01*
X70094826Y-101572688D01*
X70089970Y-101550462D01*
X70086216Y-101527531D01*
X70083564Y-101503895D01*
X70082016Y-101479553D01*
X70081931Y-101474790D01*
X70445014Y-101474790D01*
X70445060Y-101483968D01*
X70445486Y-101492907D01*
X70446292Y-101501607D01*
X70447478Y-101510068D01*
X70449044Y-101518290D01*
X70450990Y-101526274D01*
X70453317Y-101534019D01*
X70456024Y-101541525D01*
X70459112Y-101548793D01*
X70462581Y-101555822D01*
X70466430Y-101562612D01*
X70470656Y-101568914D01*
X70475144Y-101575047D01*
X70479892Y-101581010D01*
X70484902Y-101586802D01*
X70490173Y-101592425D01*
X70495706Y-101597878D01*
X70501500Y-101603161D01*
X70507555Y-101608275D01*
X70513872Y-101613218D01*
X70520450Y-101617991D01*
X70527289Y-101622594D01*
X70534389Y-101627028D01*
X70541750Y-101631291D01*
X70549373Y-101635385D01*
X70557256Y-101639308D01*
X70565401Y-101643062D01*
X70581832Y-101649567D01*
X70598886Y-101655752D01*
X70616564Y-101661617D01*
X70634865Y-101667162D01*
X70653790Y-101672386D01*
X70673339Y-101677291D01*
X70693513Y-101681875D01*
X70714311Y-101686139D01*
X70937347Y-101729465D01*
X70934660Y-101373476D01*
X70731137Y-101333913D01*
X70717211Y-101331316D01*
X70703581Y-101328997D01*
X70690247Y-101326956D01*
X70677210Y-101325194D01*
X70664470Y-101323710D01*
X70652026Y-101322505D01*
X70639881Y-101321579D01*
X70628033Y-101320932D01*
X70616483Y-101320563D01*
X70605229Y-101320472D01*
X70594272Y-101320659D01*
X70583612Y-101321124D01*
X70573250Y-101321867D01*
X70563184Y-101322889D01*
X70553416Y-101324189D01*
X70543945Y-101325769D01*
X70534587Y-101327720D01*
X70530083Y-101328909D01*
X70525697Y-101330241D01*
X70521429Y-101331715D01*
X70517277Y-101333331D01*
X70513243Y-101335090D01*
X70509326Y-101336991D01*
X70505527Y-101339035D01*
X70501844Y-101341221D01*
X70498279Y-101343549D01*
X70494831Y-101346020D01*
X70491501Y-101348633D01*
X70488287Y-101351388D01*
X70485191Y-101354286D01*
X70482212Y-101357326D01*
X70479350Y-101360508D01*
X70476605Y-101363832D01*
X70473977Y-101367299D01*
X70471467Y-101370909D01*
X70469073Y-101374660D01*
X70466797Y-101378554D01*
X70464638Y-101382590D01*
X70462596Y-101386769D01*
X70458862Y-101395552D01*
X70455598Y-101404905D01*
X70452801Y-101414827D01*
X70450472Y-101425318D01*
X70448622Y-101435691D01*
X70447151Y-101445824D01*
X70446060Y-101455718D01*
X70445347Y-101465374D01*
X70445014Y-101474790D01*
X70081931Y-101474790D01*
X70081570Y-101454507D01*
X70082228Y-101428755D01*
X70083988Y-101402298D01*
X70086852Y-101375137D01*
X70090819Y-101347271D01*
X70095890Y-101318700D01*
X70101784Y-101291540D01*
X70108663Y-101265638D01*
X70116527Y-101240996D01*
X70125376Y-101217612D01*
X70135209Y-101195487D01*
X70146027Y-101174620D01*
X70157830Y-101155011D01*
X70170617Y-101136661D01*
X70184388Y-101119568D01*
X70199144Y-101103734D01*
X70214883Y-101089158D01*
X70231607Y-101075839D01*
X70249315Y-101063778D01*
X70268007Y-101052975D01*
X70287683Y-101043429D01*
X70308342Y-101035141D01*
X70318904Y-101031255D01*
X70329656Y-101027595D01*
X70340596Y-101024160D01*
X70351724Y-101020950D01*
X70363042Y-101017966D01*
X70374549Y-101015206D01*
X70386244Y-101012672D01*
X70398128Y-101010363D01*
X70410201Y-101008280D01*
X70422463Y-101006421D01*
X70434914Y-101004788D01*
X70447554Y-101003380D01*
X70460382Y-101002197D01*
X70473399Y-101001240D01*
X70500000Y-101000000D01*
X70527355Y-100999660D01*
X70555465Y-101000220D01*
X70584330Y-101001678D01*
X70613949Y-101004038D01*
X70644325Y-101007298D01*
X70675456Y-101011459D01*
X70707342Y-101016523D01*
X70739985Y-101022490D01*
X71281306Y-101127703D01*
X71286233Y-101729465D01*
X71294204Y-102702883D01*
G36*
X71294204Y-102702883D02*
G01*
X70945575Y-102635125D01*
X70939786Y-102040722D01*
X70786080Y-102010833D01*
X70397762Y-102528631D01*
X70038343Y-102458764D01*
X70453614Y-101906198D01*
X70427564Y-101896389D01*
X70402433Y-101886096D01*
X70378221Y-101875320D01*
X70354929Y-101864060D01*
X70332556Y-101852316D01*
X70311102Y-101840088D01*
X70290568Y-101827377D01*
X70270952Y-101814182D01*
X70252256Y-101800504D01*
X70234478Y-101786343D01*
X70217620Y-101771698D01*
X70201680Y-101756570D01*
X70186660Y-101740958D01*
X70172558Y-101724864D01*
X70159376Y-101708286D01*
X70147112Y-101691225D01*
X70135642Y-101673233D01*
X70125275Y-101654535D01*
X70116009Y-101635131D01*
X70107846Y-101615022D01*
X70100785Y-101594208D01*
X70094826Y-101572688D01*
X70089970Y-101550462D01*
X70086216Y-101527531D01*
X70083564Y-101503895D01*
X70082016Y-101479553D01*
X70081931Y-101474790D01*
X70445014Y-101474790D01*
X70445060Y-101483968D01*
X70445486Y-101492907D01*
X70446292Y-101501607D01*
X70447478Y-101510068D01*
X70449044Y-101518290D01*
X70450990Y-101526274D01*
X70453317Y-101534019D01*
X70456024Y-101541525D01*
X70459112Y-101548793D01*
X70462581Y-101555822D01*
X70466430Y-101562612D01*
X70470656Y-101568914D01*
X70475144Y-101575047D01*
X70479892Y-101581010D01*
X70484902Y-101586802D01*
X70490173Y-101592425D01*
X70495706Y-101597878D01*
X70501500Y-101603161D01*
X70507555Y-101608275D01*
X70513872Y-101613218D01*
X70520450Y-101617991D01*
X70527289Y-101622594D01*
X70534389Y-101627028D01*
X70541750Y-101631291D01*
X70549373Y-101635385D01*
X70557256Y-101639308D01*
X70565401Y-101643062D01*
X70581832Y-101649567D01*
X70598886Y-101655752D01*
X70616564Y-101661617D01*
X70634865Y-101667162D01*
X70653790Y-101672386D01*
X70673339Y-101677291D01*
X70693513Y-101681875D01*
X70714311Y-101686139D01*
X70937347Y-101729465D01*
X70934660Y-101373476D01*
X70731137Y-101333913D01*
X70717211Y-101331316D01*
X70703581Y-101328997D01*
X70690247Y-101326956D01*
X70677210Y-101325194D01*
X70664470Y-101323710D01*
X70652026Y-101322505D01*
X70639881Y-101321579D01*
X70628033Y-101320932D01*
X70616483Y-101320563D01*
X70605229Y-101320472D01*
X70594272Y-101320659D01*
X70583612Y-101321124D01*
X70573250Y-101321867D01*
X70563184Y-101322889D01*
X70553416Y-101324189D01*
X70543945Y-101325769D01*
X70534587Y-101327720D01*
X70530083Y-101328909D01*
X70525697Y-101330241D01*
X70521429Y-101331715D01*
X70517277Y-101333331D01*
X70513243Y-101335090D01*
X70509326Y-101336991D01*
X70505527Y-101339035D01*
X70501844Y-101341221D01*
X70498279Y-101343549D01*
X70494831Y-101346020D01*
X70491501Y-101348633D01*
X70488287Y-101351388D01*
X70485191Y-101354286D01*
X70482212Y-101357326D01*
X70479350Y-101360508D01*
X70476605Y-101363832D01*
X70473977Y-101367299D01*
X70471467Y-101370909D01*
X70469073Y-101374660D01*
X70466797Y-101378554D01*
X70464638Y-101382590D01*
X70462596Y-101386769D01*
X70458862Y-101395552D01*
X70455598Y-101404905D01*
X70452801Y-101414827D01*
X70450472Y-101425318D01*
X70448622Y-101435691D01*
X70447151Y-101445824D01*
X70446060Y-101455718D01*
X70445347Y-101465374D01*
X70445014Y-101474790D01*
X70081931Y-101474790D01*
X70081570Y-101454507D01*
X70082228Y-101428755D01*
X70083988Y-101402298D01*
X70086852Y-101375137D01*
X70090819Y-101347271D01*
X70095890Y-101318700D01*
X70101784Y-101291540D01*
X70108663Y-101265638D01*
X70116527Y-101240996D01*
X70125376Y-101217612D01*
X70135209Y-101195487D01*
X70146027Y-101174620D01*
X70157830Y-101155011D01*
X70170617Y-101136661D01*
X70184388Y-101119568D01*
X70199144Y-101103734D01*
X70214883Y-101089158D01*
X70231607Y-101075839D01*
X70249315Y-101063778D01*
X70268007Y-101052975D01*
X70287683Y-101043429D01*
X70308342Y-101035141D01*
X70318904Y-101031255D01*
X70329656Y-101027595D01*
X70340596Y-101024160D01*
X70351724Y-101020950D01*
X70363042Y-101017966D01*
X70374549Y-101015206D01*
X70386244Y-101012672D01*
X70398128Y-101010363D01*
X70410201Y-101008280D01*
X70422463Y-101006421D01*
X70434914Y-101004788D01*
X70447554Y-101003380D01*
X70460382Y-101002197D01*
X70473399Y-101001240D01*
X70500000Y-101000000D01*
X70527355Y-100999660D01*
X70555465Y-101000220D01*
X70584330Y-101001678D01*
X70613949Y-101004038D01*
X70644325Y-101007298D01*
X70675456Y-101011459D01*
X70707342Y-101016523D01*
X70739985Y-101022490D01*
X71281306Y-101127703D01*
X71286233Y-101729465D01*
X71294204Y-102702883D01*
G37*
X72569909Y-101378189D02*
X72582849Y-102953369D01*
X71461222Y-102735337D01*
X71459734Y-102407832D01*
X72230581Y-102557652D01*
X72227274Y-102239201D01*
X71757431Y-102147837D01*
X71755902Y-101820333D01*
X72225785Y-101911655D01*
X72222809Y-101637977D01*
X71451962Y-101488115D01*
X71448282Y-101160197D01*
X72569909Y-101378189D01*
G36*
X72569909Y-101378189D02*
G01*
X72582849Y-102953369D01*
X71461222Y-102735337D01*
X71459734Y-102407832D01*
X72230581Y-102557652D01*
X72227274Y-102239201D01*
X71757431Y-102147837D01*
X71755902Y-101820333D01*
X72225785Y-101911655D01*
X72222809Y-101637977D01*
X71451962Y-101488115D01*
X71448282Y-101160197D01*
X72569909Y-101378189D01*
G37*
X73536465Y-101566085D02*
X73538077Y-101858325D01*
X73338854Y-101819589D01*
X73348570Y-102810288D01*
X73547710Y-102848983D01*
X73549363Y-103141265D01*
X72804520Y-102996447D01*
X72800717Y-102703793D01*
X72997790Y-102742075D01*
X72992416Y-101752285D01*
X72793234Y-101713549D01*
X72789430Y-101420853D01*
X73536465Y-101566085D01*
G36*
X73536465Y-101566085D02*
G01*
X73538077Y-101858325D01*
X73338854Y-101819589D01*
X73348570Y-102810288D01*
X73547710Y-102848983D01*
X73549363Y-103141265D01*
X72804520Y-102996447D01*
X72800717Y-102703793D01*
X72997790Y-102742075D01*
X72992416Y-101752285D01*
X72793234Y-101713549D01*
X72789430Y-101420853D01*
X73536465Y-101566085D01*
G37*
X78701090Y-102649843D02*
X78711632Y-103162142D01*
X78306199Y-103083346D01*
X78298593Y-102571584D01*
X78701090Y-102649843D01*
G36*
X78701090Y-102649843D02*
G01*
X78711632Y-103162142D01*
X78306199Y-103083346D01*
X78298593Y-102571584D01*
X78701090Y-102649843D01*
G37*
X75788275Y-102003805D02*
X75801216Y-103578944D01*
X74679589Y-103360952D01*
X74678101Y-103033406D01*
X75448947Y-103183267D01*
X75445641Y-102864776D01*
X74975798Y-102773453D01*
X74974310Y-102445907D01*
X75444152Y-102537229D01*
X75441175Y-102263551D01*
X74670329Y-102113731D01*
X74666649Y-101785772D01*
X75788275Y-102003805D01*
G36*
X75788275Y-102003805D02*
G01*
X75801216Y-103578944D01*
X74679589Y-103360952D01*
X74678101Y-103033406D01*
X75448947Y-103183267D01*
X75445641Y-102864776D01*
X74975798Y-102773453D01*
X74974310Y-102445907D01*
X75444152Y-102537229D01*
X75441175Y-102263551D01*
X74670329Y-102113731D01*
X74666649Y-101785772D01*
X75788275Y-102003805D01*
G37*
X73488727Y-98094778D02*
X73494789Y-98096091D01*
X73502561Y-98097855D01*
X73511630Y-98100026D01*
X73521585Y-98102563D01*
X73532013Y-98105421D01*
X73537275Y-98106958D01*
X73542501Y-98108559D01*
X73564545Y-98115849D01*
X73594731Y-98125348D01*
X73627276Y-98135311D01*
X73656396Y-98143989D01*
X73671026Y-98148644D01*
X73688622Y-98154764D01*
X73727812Y-98169054D01*
X73764170Y-98182170D01*
X73778226Y-98186822D01*
X73783688Y-98188416D01*
X73787902Y-98189423D01*
X73801750Y-98192308D01*
X73807754Y-98193708D01*
X73813313Y-98195127D01*
X73818556Y-98196598D01*
X73823610Y-98198156D01*
X73828601Y-98199835D01*
X73833657Y-98201671D01*
X73844472Y-98205950D01*
X73857075Y-98211269D01*
X73891709Y-98226134D01*
X73899019Y-98229201D01*
X73916187Y-98236653D01*
X73926236Y-98241202D01*
X73936071Y-98245863D01*
X73940630Y-98248132D01*
X73944800Y-98250306D01*
X73948471Y-98252344D01*
X73951530Y-98254204D01*
X73967618Y-98264767D01*
X73978815Y-98271912D01*
X73991435Y-98279605D01*
X73998119Y-98283494D01*
X74004968Y-98287325D01*
X74011918Y-98291031D01*
X74018905Y-98294549D01*
X74025866Y-98297813D01*
X74032737Y-98300757D01*
X74039454Y-98303316D01*
X74045953Y-98305426D01*
X74074422Y-98313519D01*
X74104308Y-98322197D01*
X74135847Y-98331812D01*
X74152309Y-98337081D01*
X74169274Y-98342716D01*
X74295860Y-98413285D01*
X74309754Y-98418410D01*
X74322527Y-98423006D01*
X74335506Y-98427589D01*
X74334953Y-98428751D01*
X74333301Y-98431804D01*
X74332067Y-98433838D01*
X74330564Y-98436100D01*
X74328792Y-98438511D01*
X74326753Y-98440990D01*
X74325634Y-98442229D01*
X74324449Y-98443455D01*
X74323198Y-98444657D01*
X74321882Y-98445825D01*
X74320499Y-98446949D01*
X74319052Y-98448019D01*
X74317539Y-98449024D01*
X74315962Y-98449955D01*
X74314320Y-98450802D01*
X74312613Y-98451554D01*
X74310842Y-98452201D01*
X74309007Y-98452733D01*
X74307107Y-98453141D01*
X74305144Y-98453412D01*
X74303118Y-98453539D01*
X74301028Y-98453510D01*
X74301400Y-98454731D01*
X74302573Y-98458100D01*
X74303487Y-98460452D01*
X74304635Y-98463175D01*
X74306026Y-98466213D01*
X74307673Y-98469513D01*
X74309585Y-98473017D01*
X74311774Y-98476672D01*
X74314251Y-98480421D01*
X74315600Y-98482314D01*
X74317026Y-98484210D01*
X74318529Y-98486102D01*
X74320111Y-98487983D01*
X74321772Y-98489846D01*
X74323516Y-98491685D01*
X74325342Y-98493492D01*
X74327252Y-98495260D01*
X74329248Y-98496984D01*
X74331331Y-98498654D01*
X74339993Y-98505254D01*
X74348987Y-98511919D01*
X74358352Y-98518656D01*
X74368122Y-98525473D01*
X74378334Y-98532376D01*
X74389025Y-98539373D01*
X74400231Y-98546472D01*
X74411988Y-98553680D01*
X74424702Y-98561630D01*
X74438355Y-98570646D01*
X74452348Y-98580265D01*
X74466085Y-98590024D01*
X74478965Y-98599462D01*
X74490393Y-98608117D01*
X74499768Y-98615528D01*
X74506494Y-98621231D01*
X74505720Y-98622086D01*
X74503471Y-98624411D01*
X74501827Y-98626012D01*
X74499855Y-98627844D01*
X74497570Y-98629864D01*
X74494983Y-98632026D01*
X74492110Y-98634284D01*
X74488964Y-98636594D01*
X74485557Y-98638911D01*
X74483761Y-98640057D01*
X74481905Y-98641189D01*
X74479991Y-98642299D01*
X74478021Y-98643383D01*
X74475996Y-98644435D01*
X74473918Y-98645448D01*
X74471789Y-98646419D01*
X74469610Y-98647340D01*
X74467384Y-98648206D01*
X74465111Y-98649012D01*
X74465040Y-98649039D01*
X74464870Y-98649137D01*
X74464766Y-98649221D01*
X74464661Y-98649333D01*
X74464561Y-98649476D01*
X74464476Y-98649653D01*
X74464411Y-98649868D01*
X74464376Y-98650124D01*
X74464377Y-98650425D01*
X74464423Y-98650773D01*
X74464521Y-98651171D01*
X74464678Y-98651624D01*
X74464904Y-98652135D01*
X74465205Y-98652706D01*
X74465589Y-98653342D01*
X74466064Y-98654045D01*
X74466637Y-98654819D01*
X74467316Y-98655667D01*
X74468110Y-98656592D01*
X74469025Y-98657598D01*
X74470070Y-98658688D01*
X74471251Y-98659865D01*
X74472578Y-98661133D01*
X74474057Y-98662495D01*
X74475696Y-98663954D01*
X74477503Y-98665514D01*
X74479486Y-98667178D01*
X74481653Y-98668948D01*
X74484011Y-98670830D01*
X74486567Y-98672825D01*
X74606911Y-98758525D01*
X74612449Y-98762244D01*
X74618168Y-98766329D01*
X74629988Y-98775354D01*
X74642047Y-98785114D01*
X74654018Y-98795125D01*
X74676396Y-98813959D01*
X74686150Y-98821813D01*
X74690526Y-98825137D01*
X74694513Y-98827978D01*
X74704057Y-98835280D01*
X74711784Y-98841113D01*
X74718240Y-98846008D01*
X74723974Y-98850492D01*
X74729531Y-98855094D01*
X74732415Y-98857605D01*
X74735459Y-98860344D01*
X74742304Y-98866769D01*
X74750613Y-98874900D01*
X74754873Y-98878617D01*
X74758257Y-98881801D01*
X74759646Y-98883206D01*
X74760847Y-98884493D01*
X74761870Y-98885668D01*
X74762727Y-98886734D01*
X74763426Y-98887698D01*
X74763978Y-98888564D01*
X74764395Y-98889337D01*
X74764686Y-98890022D01*
X74764861Y-98890625D01*
X74764932Y-98891150D01*
X74764908Y-98891603D01*
X74764799Y-98891988D01*
X74764617Y-98892311D01*
X74764371Y-98892576D01*
X74764073Y-98892789D01*
X74763731Y-98892955D01*
X74762962Y-98893164D01*
X74762146Y-98893245D01*
X74761367Y-98893238D01*
X74760707Y-98893183D01*
X74760080Y-98893090D01*
X74757669Y-98893178D01*
X74754719Y-98893243D01*
X74750666Y-98893283D01*
X74745552Y-98893267D01*
X74739420Y-98893167D01*
X74732315Y-98892953D01*
X74728410Y-98892793D01*
X74724279Y-98892594D01*
X74720795Y-98892020D01*
X74717430Y-98891671D01*
X74714198Y-98891520D01*
X74711113Y-98891541D01*
X74708190Y-98891710D01*
X74705444Y-98891999D01*
X74702891Y-98892384D01*
X74700543Y-98892838D01*
X74698417Y-98893335D01*
X74696526Y-98893850D01*
X74693511Y-98894829D01*
X74690958Y-98895860D01*
X74690743Y-98896404D01*
X74690528Y-98897066D01*
X74690289Y-98897972D01*
X74690063Y-98899110D01*
X74689884Y-98900467D01*
X74689823Y-98901225D01*
X74689788Y-98902033D01*
X74689783Y-98902889D01*
X74689812Y-98903793D01*
X74689880Y-98904743D01*
X74689992Y-98905738D01*
X74690151Y-98906775D01*
X74690362Y-98907854D01*
X74690630Y-98908972D01*
X74690960Y-98910129D01*
X74691355Y-98911323D01*
X74691820Y-98912552D01*
X74692360Y-98913815D01*
X74692979Y-98915110D01*
X74693682Y-98916436D01*
X74694472Y-98917792D01*
X74695356Y-98919175D01*
X74696336Y-98920584D01*
X74697418Y-98922019D01*
X74698606Y-98923476D01*
X74701099Y-98926604D01*
X74703637Y-98930110D01*
X74709026Y-98938230D01*
X74715126Y-98947791D01*
X74722292Y-98958749D01*
X74726385Y-98964736D01*
X74730877Y-98971056D01*
X74735812Y-98977702D01*
X74741234Y-98984669D01*
X74747187Y-98991950D01*
X74753717Y-98999540D01*
X74760866Y-99007434D01*
X74768679Y-99015626D01*
X74772740Y-99019522D01*
X74776662Y-99023464D01*
X74780470Y-99027451D01*
X74784187Y-99031482D01*
X74791447Y-99039678D01*
X74798634Y-99048052D01*
X74805939Y-99056602D01*
X74813554Y-99065327D01*
X74821672Y-99074227D01*
X74825979Y-99078743D01*
X74830484Y-99083301D01*
X74834511Y-99087909D01*
X74838533Y-99092766D01*
X74846475Y-99102975D01*
X74854139Y-99113435D01*
X74861354Y-99123654D01*
X74873749Y-99141396D01*
X74878585Y-99147934D01*
X74880587Y-99150403D01*
X74882284Y-99152258D01*
X74849666Y-99168712D01*
X74849088Y-99188183D01*
X74851143Y-99190388D01*
X74853285Y-99192542D01*
X74855512Y-99194656D01*
X74857822Y-99196739D01*
X74860213Y-99198799D01*
X74862683Y-99200846D01*
X74867855Y-99204939D01*
X74891338Y-99222621D01*
X74897075Y-99225764D01*
X74906588Y-99229964D01*
X74936130Y-99241110D01*
X74978335Y-99255202D01*
X75031571Y-99271385D01*
X75094210Y-99288803D01*
X75128546Y-99297707D01*
X75164621Y-99306599D01*
X75202231Y-99315372D01*
X75241173Y-99323919D01*
X75281243Y-99332132D01*
X75322237Y-99339905D01*
X75388389Y-99351771D01*
X75448976Y-99361597D01*
X75504494Y-99369603D01*
X75555441Y-99376014D01*
X75645611Y-99384933D01*
X75723460Y-99390131D01*
X75858102Y-99396468D01*
X75922848Y-99401160D01*
X75991178Y-99409235D01*
X76026219Y-99414883D01*
X76059985Y-99421447D01*
X76092610Y-99428898D01*
X76124231Y-99437204D01*
X76154981Y-99446333D01*
X76184997Y-99456256D01*
X76214414Y-99466942D01*
X76243366Y-99478359D01*
X76271989Y-99490477D01*
X76300419Y-99503264D01*
X76357237Y-99530727D01*
X76414903Y-99560499D01*
X76474497Y-99592334D01*
X76480520Y-99595391D01*
X76486319Y-99598470D01*
X76497288Y-99604668D01*
X76507493Y-99610868D01*
X76517021Y-99617011D01*
X76525959Y-99623039D01*
X76534395Y-99628891D01*
X76550110Y-99639835D01*
X76576031Y-99651211D01*
X76601812Y-99662907D01*
X76627372Y-99674943D01*
X76652630Y-99687342D01*
X76677507Y-99700125D01*
X76701922Y-99713314D01*
X76725795Y-99726931D01*
X76749044Y-99740997D01*
X76791372Y-99769993D01*
X76836265Y-99804788D01*
X76883168Y-99844446D01*
X76931529Y-99888031D01*
X76980795Y-99934607D01*
X77030414Y-99983237D01*
X77128497Y-100082917D01*
X77304565Y-100265738D01*
X77373705Y-100333900D01*
X77401616Y-100358892D01*
X77424352Y-100376576D01*
X77443301Y-100389493D01*
X77461457Y-100401091D01*
X77478899Y-100411448D01*
X77495709Y-100420642D01*
X77511966Y-100428752D01*
X77527751Y-100435854D01*
X77543145Y-100442028D01*
X77558227Y-100447351D01*
X77573078Y-100451902D01*
X77587778Y-100455758D01*
X77602408Y-100458998D01*
X77617048Y-100461699D01*
X77631779Y-100463941D01*
X77646681Y-100465800D01*
X77677318Y-100468684D01*
X77692539Y-100469155D01*
X77706631Y-100469289D01*
X77719614Y-100469129D01*
X77731507Y-100468718D01*
X77752110Y-100467309D01*
X77768601Y-100465400D01*
X77781143Y-100463328D01*
X77789901Y-100461430D01*
X77796711Y-100459506D01*
X77807229Y-100446208D01*
X77819148Y-100432044D01*
X77826414Y-100423799D01*
X77834415Y-100415053D01*
X77843048Y-100406011D01*
X77852212Y-100396876D01*
X77861803Y-100387854D01*
X77871719Y-100379150D01*
X77881858Y-100370968D01*
X77886979Y-100367137D01*
X77892118Y-100363514D01*
X77897261Y-100360123D01*
X77902396Y-100356991D01*
X77907510Y-100354144D01*
X77912590Y-100351606D01*
X77927140Y-100345217D01*
X77943480Y-100339118D01*
X77961234Y-100333325D01*
X77980025Y-100327855D01*
X78019212Y-100317954D01*
X78058029Y-100309549D01*
X78093464Y-100302776D01*
X78122504Y-100297771D01*
X78149351Y-100293604D01*
X78149441Y-100298311D01*
X78149058Y-100311461D01*
X78148384Y-100320748D01*
X78147226Y-100331599D01*
X78145461Y-100343834D01*
X78142967Y-100357270D01*
X78139623Y-100371725D01*
X78135306Y-100387018D01*
X78132744Y-100394921D01*
X78129893Y-100402966D01*
X78126738Y-100411129D01*
X78123264Y-100419387D01*
X78119454Y-100427719D01*
X78115295Y-100436101D01*
X78110770Y-100444510D01*
X78105864Y-100452924D01*
X78100563Y-100461320D01*
X78094850Y-100469675D01*
X78088711Y-100477966D01*
X78082130Y-100486171D01*
X78073696Y-100495475D01*
X78065073Y-100504023D01*
X78056281Y-100511848D01*
X78047340Y-100518981D01*
X78038271Y-100525455D01*
X78029092Y-100531303D01*
X78019825Y-100536555D01*
X78010489Y-100541243D01*
X78001105Y-100545401D01*
X77991691Y-100549060D01*
X77972858Y-100555008D01*
X77954151Y-100559345D01*
X77935728Y-100562327D01*
X77817837Y-100568151D01*
X77800042Y-100570863D01*
X77779795Y-100573146D01*
X77757342Y-100574871D01*
X77732929Y-100575910D01*
X77706800Y-100576133D01*
X77679202Y-100575413D01*
X77650379Y-100573619D01*
X77620576Y-100570624D01*
X77590040Y-100566299D01*
X77559016Y-100560514D01*
X77527748Y-100553141D01*
X77496483Y-100544051D01*
X77465466Y-100533116D01*
X77434942Y-100520206D01*
X77405156Y-100505194D01*
X77390617Y-100496858D01*
X77376354Y-100487949D01*
X77350936Y-100470882D01*
X77325729Y-100453053D01*
X77300772Y-100434586D01*
X77276102Y-100415601D01*
X77227780Y-100376569D01*
X77181067Y-100336936D01*
X77016438Y-100191947D01*
X76997752Y-100177301D01*
X76977696Y-100162515D01*
X76956389Y-100147664D01*
X76933952Y-100132826D01*
X76910501Y-100118076D01*
X76886158Y-100103489D01*
X76861040Y-100089143D01*
X76835266Y-100075113D01*
X76808957Y-100061475D01*
X76782230Y-100048305D01*
X76755205Y-100035680D01*
X76728000Y-100023675D01*
X76700735Y-100012367D01*
X76673530Y-100001831D01*
X76646501Y-99992143D01*
X76619770Y-99983380D01*
X76620412Y-99993298D01*
X76621283Y-100003221D01*
X76623444Y-100022883D01*
X76625722Y-100041955D01*
X76626738Y-100051141D01*
X76627584Y-100060027D01*
X76631636Y-100086262D01*
X76637346Y-100115584D01*
X76652830Y-100181183D01*
X76672222Y-100252220D01*
X76693710Y-100324090D01*
X76715478Y-100392188D01*
X76735715Y-100451909D01*
X76752607Y-100498649D01*
X76764340Y-100527802D01*
X76777076Y-100555033D01*
X76795457Y-100591525D01*
X76817541Y-100633719D01*
X76841386Y-100678058D01*
X76865049Y-100720983D01*
X76886588Y-100758936D01*
X76904061Y-100788360D01*
X76915525Y-100805697D01*
X76919898Y-100810302D01*
X76924967Y-100815168D01*
X76930717Y-100820263D01*
X76937137Y-100825557D01*
X76944212Y-100831017D01*
X76951930Y-100836614D01*
X76960278Y-100842315D01*
X76969244Y-100848089D01*
X76978813Y-100853905D01*
X76988973Y-100859733D01*
X76999712Y-100865539D01*
X77011016Y-100871295D01*
X77022872Y-100876967D01*
X77035267Y-100882525D01*
X77048189Y-100887938D01*
X77061624Y-100893175D01*
X77143049Y-100920804D01*
X77244878Y-100953668D01*
X77368665Y-100992683D01*
X77368639Y-101028399D01*
X77369220Y-101067882D01*
X77370739Y-101117194D01*
X77373607Y-101172895D01*
X77375674Y-101202065D01*
X77378231Y-101231543D01*
X77381329Y-101260897D01*
X77385019Y-101289697D01*
X77389352Y-101317514D01*
X77394379Y-101343917D01*
X77398633Y-101366630D01*
X77404255Y-101392900D01*
X77417221Y-101447994D01*
X77433322Y-101511556D01*
X77428890Y-101514538D01*
X77416795Y-101523211D01*
X77408437Y-101529553D01*
X77398840Y-101537163D01*
X77388229Y-101545990D01*
X77376829Y-101555983D01*
X77364866Y-101567090D01*
X77352565Y-101579259D01*
X77340152Y-101592439D01*
X77327852Y-101606580D01*
X77321814Y-101613994D01*
X77315890Y-101621629D01*
X77310106Y-101629478D01*
X77304491Y-101637534D01*
X77299074Y-101645793D01*
X77293882Y-101654246D01*
X77288944Y-101662887D01*
X77284288Y-101671711D01*
X77275328Y-101683256D01*
X77265171Y-101696019D01*
X77254264Y-101709093D01*
X77248668Y-101715464D01*
X77243052Y-101721572D01*
X77237471Y-101727305D01*
X77231982Y-101732549D01*
X77226639Y-101737192D01*
X77221500Y-101741119D01*
X77216619Y-101744217D01*
X77214293Y-101745420D01*
X77212053Y-101746373D01*
X77209905Y-101747063D01*
X77207856Y-101747474D01*
X77205914Y-101747594D01*
X77204086Y-101747407D01*
X76826724Y-101673324D01*
X76826564Y-101669170D01*
X76826566Y-101664377D01*
X76826801Y-101658127D01*
X76827404Y-101650686D01*
X76828510Y-101642320D01*
X76830252Y-101633293D01*
X76832765Y-101623873D01*
X76834353Y-101619098D01*
X76836184Y-101614325D01*
X76838275Y-101609585D01*
X76840642Y-101604913D01*
X76843304Y-101600342D01*
X76846275Y-101595905D01*
X76849574Y-101591635D01*
X76853217Y-101587566D01*
X76857220Y-101583730D01*
X76861601Y-101580161D01*
X76866376Y-101576892D01*
X76871563Y-101573956D01*
X76877177Y-101571386D01*
X76883236Y-101569217D01*
X76889757Y-101567480D01*
X76896756Y-101566209D01*
X76900789Y-101565182D01*
X76904549Y-101564136D01*
X76911357Y-101561985D01*
X76917405Y-101559761D01*
X76922915Y-101557471D01*
X76944060Y-101547752D01*
X76950242Y-101545212D01*
X76957228Y-101542638D01*
X76965244Y-101540036D01*
X76974513Y-101537413D01*
X76979687Y-101536095D01*
X76985258Y-101534773D01*
X76991255Y-101533448D01*
X76997704Y-101532122D01*
X77004635Y-101530794D01*
X77012075Y-101529466D01*
X77020051Y-101528138D01*
X77028593Y-101526810D01*
X77035364Y-101525682D01*
X77041800Y-101524435D01*
X77047934Y-101523023D01*
X77053799Y-101521400D01*
X77059427Y-101519521D01*
X77064853Y-101517338D01*
X77070108Y-101514805D01*
X77075226Y-101511877D01*
X77080239Y-101508508D01*
X77085180Y-101504651D01*
X77090082Y-101500260D01*
X77094979Y-101495290D01*
X77099902Y-101489693D01*
X77104885Y-101483424D01*
X77109960Y-101476437D01*
X77115161Y-101468685D01*
X77120280Y-101460187D01*
X77125084Y-101451096D01*
X77129572Y-101441569D01*
X77133741Y-101431765D01*
X77137590Y-101421840D01*
X77141115Y-101411952D01*
X77147188Y-101392917D01*
X77151942Y-101375919D01*
X77155359Y-101362219D01*
X77158115Y-101349746D01*
X77158299Y-101346242D01*
X77158462Y-101336802D01*
X77158353Y-101330358D01*
X77158020Y-101323033D01*
X77157390Y-101315027D01*
X77156391Y-101306543D01*
X77154948Y-101297780D01*
X77152990Y-101288939D01*
X77151794Y-101284553D01*
X77150443Y-101280222D01*
X77148926Y-101275973D01*
X77147234Y-101271830D01*
X77145359Y-101267819D01*
X77143291Y-101263963D01*
X77141021Y-101260290D01*
X77138540Y-101256823D01*
X77135838Y-101253588D01*
X77132908Y-101250610D01*
X77129739Y-101247914D01*
X77126323Y-101245526D01*
X77121803Y-101242682D01*
X77116875Y-101240118D01*
X77111556Y-101237813D01*
X77105860Y-101235746D01*
X77093400Y-101232249D01*
X77079619Y-101229463D01*
X77064639Y-101227226D01*
X77048582Y-101225375D01*
X77013733Y-101222185D01*
X76976054Y-101218592D01*
X76956461Y-101216238D01*
X76936529Y-101213297D01*
X76916381Y-101209605D01*
X76896139Y-101205000D01*
X76875928Y-101199320D01*
X76865872Y-101196026D01*
X76855869Y-101192402D01*
X76825105Y-101179612D01*
X76793197Y-101165453D01*
X76727179Y-101133905D01*
X76660268Y-101099501D01*
X76594914Y-101063987D01*
X76533568Y-101029107D01*
X76478683Y-100996606D01*
X76432710Y-100968228D01*
X76398099Y-100945719D01*
X76385241Y-100935969D01*
X76371586Y-100924049D01*
X76357300Y-100910273D01*
X76342552Y-100894956D01*
X76327509Y-100878415D01*
X76312339Y-100860963D01*
X76282288Y-100824590D01*
X76253740Y-100788359D01*
X76228036Y-100754792D01*
X76190525Y-100705734D01*
X76184087Y-100698036D01*
X76177596Y-100690916D01*
X76171118Y-100684364D01*
X76164718Y-100678368D01*
X76158459Y-100672917D01*
X76152406Y-100667999D01*
X76146624Y-100663603D01*
X76141176Y-100659718D01*
X76136128Y-100656332D01*
X76131544Y-100653434D01*
X76124026Y-100649058D01*
X76117392Y-100645665D01*
X76106196Y-100653062D01*
X76072955Y-100674501D01*
X76048232Y-100690135D01*
X76018195Y-100708859D01*
X75982908Y-100730532D01*
X75942437Y-100755013D01*
X75901738Y-100779085D01*
X75867465Y-100800246D01*
X75838690Y-100818735D01*
X75814488Y-100834793D01*
X75776093Y-100860570D01*
X75760047Y-100870768D01*
X75744867Y-100879491D01*
X75737207Y-100883863D01*
X75729335Y-100888854D01*
X75721330Y-100894373D01*
X75713273Y-100900332D01*
X75705243Y-100906641D01*
X75697321Y-100913210D01*
X75689585Y-100919949D01*
X75682115Y-100926770D01*
X75674992Y-100933582D01*
X75668294Y-100940296D01*
X75662102Y-100946822D01*
X75656495Y-100953071D01*
X75651553Y-100958953D01*
X75647356Y-100964378D01*
X75643983Y-100969257D01*
X75641515Y-100973501D01*
X75633384Y-100989113D01*
X75625853Y-101005986D01*
X75618911Y-101023807D01*
X75612547Y-101042263D01*
X75606752Y-101061041D01*
X75601514Y-101079828D01*
X75592671Y-101116178D01*
X75585937Y-101148809D01*
X75581228Y-101175217D01*
X75577560Y-101199347D01*
X75551416Y-101203602D01*
X75523374Y-101208684D01*
X75489475Y-101215524D01*
X75452813Y-101223964D01*
X75434412Y-101228735D01*
X75416480Y-101233847D01*
X75399403Y-101239280D01*
X75383568Y-101245014D01*
X75369362Y-101251030D01*
X75357170Y-101257308D01*
X75351714Y-101260346D01*
X75346289Y-101263634D01*
X75335574Y-101270869D01*
X75325098Y-101278829D01*
X75314936Y-101287335D01*
X75305161Y-101296203D01*
X75295848Y-101305253D01*
X75287071Y-101314303D01*
X75278903Y-101323171D01*
X75264693Y-101339636D01*
X75253809Y-101353196D01*
X75244392Y-101365787D01*
X74785298Y-101275622D01*
X74784771Y-101269815D01*
X74784518Y-101264286D01*
X74784524Y-101259028D01*
X74784773Y-101254034D01*
X74785253Y-101249295D01*
X74785948Y-101244804D01*
X74786843Y-101240553D01*
X74787924Y-101236534D01*
X74789176Y-101232741D01*
X74790584Y-101229165D01*
X74792135Y-101225798D01*
X74793812Y-101222633D01*
X74795602Y-101219663D01*
X74797490Y-101216879D01*
X74799461Y-101214274D01*
X74801501Y-101211840D01*
X74805728Y-101207457D01*
X74810053Y-101203667D01*
X74814360Y-101200409D01*
X74818532Y-101197622D01*
X74831518Y-101189963D01*
X74835755Y-101186939D01*
X74840028Y-101183593D01*
X74848820Y-101176171D01*
X74858185Y-101168174D01*
X74863172Y-101164109D01*
X74868411Y-101160080D01*
X74873937Y-101156145D01*
X74879787Y-101152364D01*
X74882844Y-101150551D01*
X74885997Y-101148798D01*
X74889248Y-101147113D01*
X74892602Y-101145505D01*
X74896065Y-101143980D01*
X74899640Y-101142545D01*
X74903332Y-101141209D01*
X74907146Y-101139978D01*
X74911086Y-101138860D01*
X74915157Y-101137863D01*
X74919363Y-101136994D01*
X74923708Y-101136261D01*
X74953270Y-101131967D01*
X74979055Y-101128638D01*
X75001404Y-101126136D01*
X75020663Y-101124323D01*
X75051275Y-101122210D01*
X75073636Y-101121193D01*
X75090487Y-101120165D01*
X75097704Y-101119301D01*
X75104572Y-101118020D01*
X75111435Y-101116184D01*
X75118634Y-101113653D01*
X75126514Y-101110291D01*
X75135417Y-101105958D01*
X75213051Y-101068149D01*
X75234330Y-101056961D01*
X75244370Y-101051302D01*
X75253798Y-101045647D01*
X75262452Y-101040030D01*
X75270173Y-101034489D01*
X75276802Y-101029057D01*
X75282177Y-101023772D01*
X75287257Y-101017339D01*
X75293038Y-101008561D01*
X75299417Y-100997613D01*
X75306294Y-100984673D01*
X75313565Y-100969916D01*
X75321131Y-100953518D01*
X75328889Y-100935656D01*
X75336737Y-100916505D01*
X75344574Y-100896242D01*
X75352298Y-100875043D01*
X75359807Y-100853085D01*
X75367000Y-100830543D01*
X75373775Y-100807594D01*
X75380030Y-100784413D01*
X75385664Y-100761177D01*
X75390574Y-100738063D01*
X75396214Y-100710123D01*
X75401987Y-100683051D01*
X75407852Y-100657069D01*
X75413765Y-100632397D01*
X75419683Y-100609258D01*
X75425564Y-100587872D01*
X75431364Y-100568459D01*
X75437041Y-100551242D01*
X75381053Y-100531308D01*
X75319154Y-100510479D01*
X75252574Y-100490489D01*
X75217912Y-100481352D01*
X75182540Y-100473074D01*
X75146612Y-100465874D01*
X75110282Y-100459967D01*
X75073704Y-100455572D01*
X75037030Y-100452904D01*
X75000414Y-100452181D01*
X74964011Y-100453619D01*
X74927973Y-100457436D01*
X74892455Y-100463847D01*
X74854180Y-100472455D01*
X74799130Y-100483890D01*
X74766838Y-100490202D01*
X74732182Y-100496662D01*
X74695771Y-100503084D01*
X74658216Y-100509281D01*
X74655537Y-100513770D01*
X74652894Y-100518507D01*
X74650297Y-100523501D01*
X74647751Y-100528764D01*
X74645264Y-100534307D01*
X74642845Y-100540141D01*
X74640500Y-100546277D01*
X74638237Y-100552726D01*
X74636063Y-100559498D01*
X74633987Y-100566606D01*
X74632015Y-100574059D01*
X74630155Y-100581868D01*
X74628414Y-100590045D01*
X74626801Y-100598601D01*
X74625322Y-100607546D01*
X74623985Y-100616892D01*
X74622635Y-100628648D01*
X74621897Y-100640663D01*
X74622106Y-100665301D01*
X74624316Y-100690475D01*
X74628226Y-100715854D01*
X74633540Y-100741107D01*
X74639957Y-100765902D01*
X74647180Y-100789908D01*
X74654910Y-100812793D01*
X74670698Y-100853878D01*
X74684932Y-100886506D01*
X74699185Y-100915789D01*
X74684857Y-100937825D01*
X74651595Y-100987679D01*
X74632422Y-101015416D01*
X74613986Y-101040964D01*
X74605613Y-101051965D01*
X74598108Y-101061274D01*
X74591699Y-101068513D01*
X74586613Y-101073299D01*
X74582345Y-101077007D01*
X74577141Y-101081025D01*
X74571124Y-101085334D01*
X74564417Y-101089913D01*
X74533160Y-101110567D01*
X74516601Y-101122031D01*
X74508519Y-101127982D01*
X74500735Y-101134053D01*
X74493371Y-101140226D01*
X74486550Y-101146481D01*
X74480396Y-101152800D01*
X74475033Y-101159164D01*
X74463564Y-101175743D01*
X74451746Y-101192562D01*
X74438777Y-101210840D01*
X79399631Y-102175122D01*
X79404882Y-102528134D01*
X76650900Y-101992808D01*
X76680170Y-103749807D01*
X76301898Y-103676302D01*
X76265725Y-101917939D01*
X69685497Y-100638886D01*
X69680659Y-100285956D01*
X74436462Y-101210385D01*
X74042563Y-101132995D01*
X74042046Y-101129743D01*
X74041596Y-101125961D01*
X74041192Y-101120993D01*
X74040965Y-101115026D01*
X74041045Y-101108249D01*
X74041563Y-101100850D01*
X74042649Y-101093018D01*
X74043446Y-101088998D01*
X74044434Y-101084940D01*
X74045629Y-101080868D01*
X74047048Y-101076805D01*
X74048707Y-101072775D01*
X74050622Y-101068801D01*
X74052810Y-101064907D01*
X74055287Y-101061116D01*
X74058069Y-101057452D01*
X74061172Y-101053938D01*
X74064614Y-101050598D01*
X74068409Y-101047456D01*
X74072575Y-101044535D01*
X74077128Y-101041858D01*
X74082085Y-101039449D01*
X74087460Y-101037332D01*
X74092079Y-101035643D01*
X74096754Y-101033696D01*
X74101482Y-101031529D01*
X74106261Y-101029181D01*
X74115958Y-101024089D01*
X74125824Y-101018724D01*
X74135837Y-101013388D01*
X74140892Y-101010825D01*
X74145976Y-101008383D01*
X74151086Y-101006100D01*
X74156219Y-101004013D01*
X74161373Y-101002160D01*
X74166545Y-101000579D01*
X74186000Y-100995989D01*
X74203292Y-100992399D01*
X74218626Y-100989669D01*
X74232208Y-100987657D01*
X74244240Y-100986220D01*
X74254930Y-100985219D01*
X74273097Y-100983954D01*
X74288348Y-100982728D01*
X74295391Y-100981776D01*
X74302320Y-100980409D01*
X74309339Y-100978486D01*
X74316653Y-100975864D01*
X74324467Y-100972403D01*
X74332985Y-100967961D01*
X74335695Y-100966488D01*
X74338409Y-100964697D01*
X74341120Y-100962610D01*
X74343824Y-100960254D01*
X74349185Y-100954824D01*
X74354444Y-100948598D01*
X74359553Y-100941769D01*
X74364466Y-100934529D01*
X74369134Y-100927068D01*
X74373512Y-100919579D01*
X74381206Y-100905281D01*
X74387169Y-100893170D01*
X74392392Y-100881641D01*
X74368507Y-100847100D01*
X74314060Y-100767063D01*
X74283443Y-100721039D01*
X74254865Y-100676908D01*
X74231553Y-100639092D01*
X74222880Y-100623935D01*
X74216734Y-100612014D01*
X74178998Y-100538053D01*
X74172362Y-100524800D01*
X74166445Y-100512568D01*
X74161045Y-100500822D01*
X74155962Y-100489024D01*
X74105017Y-100473525D01*
X74054871Y-100457074D01*
X74006683Y-100440012D01*
X73961609Y-100422681D01*
X73920808Y-100405425D01*
X73885436Y-100388584D01*
X73870147Y-100380426D01*
X73856650Y-100372501D01*
X73845090Y-100364850D01*
X73835609Y-100357518D01*
X73832936Y-100355732D01*
X73830345Y-100353895D01*
X73827829Y-100352016D01*
X73825382Y-100350104D01*
X73820671Y-100346210D01*
X73816158Y-100342279D01*
X73807522Y-100334570D01*
X73803297Y-100330924D01*
X73801185Y-100329181D01*
X73799064Y-100327504D01*
X73792614Y-100329904D01*
X73786428Y-100332318D01*
X73774729Y-100337009D01*
X73769159Y-100339199D01*
X73763736Y-100341226D01*
X73758432Y-100343048D01*
X73753217Y-100344619D01*
X73736695Y-100350317D01*
X73717731Y-100356219D01*
X73673905Y-100368591D01*
X73572628Y-100395292D01*
X73520877Y-100409438D01*
X73472183Y-100423993D01*
X73449874Y-100431396D01*
X73429397Y-100438866D01*
X73411110Y-100446394D01*
X73395368Y-100453966D01*
X73380525Y-100462658D01*
X73364860Y-100473316D01*
X73348619Y-100485593D01*
X73332048Y-100499140D01*
X73315391Y-100513607D01*
X73298895Y-100528647D01*
X73267365Y-100559046D01*
X73239424Y-100587547D01*
X73217034Y-100611360D01*
X73196765Y-100633759D01*
X73169609Y-100638989D01*
X73140758Y-100645320D01*
X73106250Y-100653947D01*
X73087936Y-100659078D01*
X73069481Y-100664732D01*
X73051310Y-100670891D01*
X73033846Y-100677539D01*
X73017515Y-100684657D01*
X73002740Y-100692230D01*
X72996069Y-100696182D01*
X72989947Y-100700240D01*
X72984425Y-100704403D01*
X72979558Y-100708670D01*
X72976218Y-100711399D01*
X72972220Y-100714029D01*
X72962452Y-100718992D01*
X72950655Y-100723567D01*
X72937231Y-100727760D01*
X72922579Y-100731578D01*
X72907100Y-100735028D01*
X72875262Y-100740851D01*
X72844922Y-100745285D01*
X72819284Y-100748383D01*
X72794929Y-100750796D01*
X72792906Y-100750507D01*
X72790424Y-100750277D01*
X72787002Y-100750106D01*
X72782671Y-100750083D01*
X72777461Y-100750293D01*
X72771404Y-100750824D01*
X72764530Y-100751765D01*
X72760796Y-100752416D01*
X72756869Y-100753202D01*
X72752753Y-100754133D01*
X72748453Y-100755222D01*
X72743971Y-100756478D01*
X72739311Y-100757913D01*
X72734478Y-100759537D01*
X72729476Y-100761362D01*
X72724307Y-100763398D01*
X72718977Y-100765657D01*
X72713488Y-100768149D01*
X72707844Y-100770885D01*
X72702051Y-100773876D01*
X72696110Y-100777133D01*
X72690027Y-100780667D01*
X72683804Y-100784489D01*
X72641115Y-100809837D01*
X72632923Y-100814450D01*
X72625413Y-100818435D01*
X72618432Y-100821826D01*
X72611824Y-100824655D01*
X72605436Y-100826952D01*
X72599112Y-100828750D01*
X72592698Y-100830080D01*
X72586040Y-100830975D01*
X72578982Y-100831466D01*
X72571371Y-100831584D01*
X72563051Y-100831363D01*
X72553869Y-100830833D01*
X72515228Y-100826474D01*
X72473202Y-100820648D01*
X72389517Y-100807119D01*
X72297306Y-100790235D01*
X72296418Y-100785499D01*
X72294751Y-100772838D01*
X72294094Y-100764262D01*
X72293802Y-100754576D01*
X72294064Y-100744071D01*
X72295066Y-100733036D01*
X72295903Y-100727411D01*
X72296995Y-100721762D01*
X72298366Y-100716127D01*
X72300038Y-100710540D01*
X72302036Y-100705039D01*
X72304383Y-100699660D01*
X72307101Y-100694438D01*
X72310215Y-100689412D01*
X72313748Y-100684615D01*
X72317723Y-100680086D01*
X72322163Y-100675860D01*
X72327092Y-100671973D01*
X72332534Y-100668463D01*
X72338511Y-100665364D01*
X72345047Y-100662714D01*
X72352165Y-100660548D01*
X72359194Y-100658579D01*
X72365493Y-100656495D01*
X72371130Y-100654304D01*
X72376174Y-100652009D01*
X72380694Y-100649616D01*
X72384760Y-100647130D01*
X72388440Y-100644557D01*
X72391802Y-100641901D01*
X72394917Y-100639167D01*
X72397853Y-100636361D01*
X72403464Y-100630554D01*
X72409186Y-100624520D01*
X72415571Y-100618300D01*
X72419185Y-100615134D01*
X72423172Y-100611936D01*
X72427599Y-100608713D01*
X72432538Y-100605470D01*
X72438056Y-100602211D01*
X72444222Y-100598942D01*
X72451106Y-100595667D01*
X72458776Y-100592393D01*
X72467302Y-100589125D01*
X72476752Y-100585867D01*
X72487195Y-100582624D01*
X72498700Y-100579403D01*
X72511336Y-100576207D01*
X72525173Y-100573042D01*
X72540278Y-100569914D01*
X72556722Y-100566828D01*
X72648666Y-100551827D01*
X72672147Y-100547505D01*
X72693719Y-100542769D01*
X72703461Y-100540218D01*
X72712329Y-100537528D01*
X72720194Y-100534688D01*
X72726923Y-100531688D01*
X72734798Y-100526804D01*
X72745942Y-100518578D01*
X72776549Y-100493622D01*
X72815773Y-100459872D01*
X72860641Y-100420380D01*
X72955419Y-100336378D01*
X72999385Y-100297971D01*
X73037105Y-100266030D01*
X73074667Y-100235318D01*
X73118319Y-100198338D01*
X73210214Y-100118347D01*
X73316571Y-100023688D01*
X73366594Y-99951878D01*
X73372051Y-99890900D01*
X73349934Y-99853900D01*
X73315414Y-99796893D01*
X73307059Y-99782215D01*
X73303233Y-99775111D01*
X73299716Y-99768235D01*
X73296565Y-99761641D01*
X73293835Y-99755384D01*
X73291583Y-99749518D01*
X73289865Y-99744097D01*
X73286818Y-99733804D01*
X73284101Y-99726025D01*
X73282854Y-99722981D01*
X73281677Y-99720449D01*
X73280565Y-99718388D01*
X73279514Y-99716761D01*
X73278519Y-99715527D01*
X73277576Y-99714649D01*
X73276682Y-99714086D01*
X73275831Y-99713800D01*
X73275020Y-99713751D01*
X73274244Y-99713900D01*
X73272780Y-99714638D01*
X73270086Y-99716770D01*
X73268788Y-99717540D01*
X73268137Y-99717714D01*
X73267478Y-99717694D01*
X73266807Y-99717443D01*
X73266120Y-99716920D01*
X73265412Y-99716088D01*
X73264681Y-99714905D01*
X73263920Y-99713334D01*
X73263126Y-99711336D01*
X73261422Y-99705899D01*
X73260600Y-99703279D01*
X73259571Y-99700602D01*
X73258347Y-99697876D01*
X73256940Y-99695105D01*
X73253622Y-99689454D01*
X73249708Y-99683694D01*
X73245290Y-99677874D01*
X73240458Y-99672040D01*
X73235304Y-99666238D01*
X73229919Y-99660515D01*
X73224395Y-99654917D01*
X73218822Y-99649492D01*
X73207898Y-99639346D01*
X73197877Y-99630449D01*
X73189489Y-99623175D01*
X73186333Y-99619815D01*
X73183044Y-99615913D01*
X73179669Y-99611573D01*
X73176254Y-99606900D01*
X73169490Y-99596974D01*
X73163124Y-99586972D01*
X73157527Y-99577734D01*
X73153069Y-99570098D01*
X73149057Y-99562982D01*
X73148169Y-99566736D01*
X73146968Y-99571009D01*
X73146152Y-99573622D01*
X73145183Y-99576507D01*
X73144052Y-99579627D01*
X73142752Y-99582949D01*
X73141277Y-99586437D01*
X73139617Y-99590057D01*
X73137766Y-99593773D01*
X73135717Y-99597551D01*
X73134615Y-99599451D01*
X73133461Y-99601355D01*
X73132253Y-99603256D01*
X73130991Y-99605150D01*
X73130389Y-99604414D01*
X73128660Y-99602193D01*
X73127411Y-99600522D01*
X73125924Y-99598474D01*
X73124215Y-99596048D01*
X73122299Y-99593241D01*
X73120190Y-99590052D01*
X73117902Y-99586479D01*
X73115452Y-99582520D01*
X73112852Y-99578172D01*
X73110120Y-99573435D01*
X73107268Y-99568305D01*
X73104312Y-99562782D01*
X73101267Y-99556864D01*
X73098443Y-99551091D01*
X73096088Y-99545946D01*
X73094126Y-99541336D01*
X73092479Y-99537171D01*
X73089817Y-99529806D01*
X73087481Y-99523117D01*
X73086242Y-99519797D01*
X73084851Y-99516370D01*
X73083231Y-99512746D01*
X73081305Y-99508832D01*
X73078994Y-99504536D01*
X73076221Y-99499768D01*
X73072909Y-99494434D01*
X73068979Y-99488444D01*
X73064333Y-99481688D01*
X73060080Y-99474392D01*
X73056189Y-99466622D01*
X73052628Y-99458443D01*
X73049364Y-99449920D01*
X73046366Y-99441119D01*
X73043600Y-99432106D01*
X73041036Y-99422946D01*
X73023918Y-99352225D01*
X73019623Y-99338951D01*
X73015769Y-99327716D01*
X73012319Y-99318322D01*
X73009235Y-99310569D01*
X73006479Y-99304259D01*
X73004016Y-99299192D01*
X73001807Y-99295169D01*
X72999815Y-99291991D01*
X72997254Y-99296436D01*
X72990588Y-99307727D01*
X72986192Y-99314982D01*
X72981342Y-99322798D01*
X72976228Y-99330793D01*
X72971042Y-99338583D01*
X72968586Y-99334733D01*
X72965947Y-99330351D01*
X72964400Y-99327670D01*
X72962751Y-99324711D01*
X72961035Y-99321509D01*
X72959287Y-99318100D01*
X72957545Y-99314519D01*
X72955843Y-99310803D01*
X72954218Y-99306987D01*
X72952706Y-99303107D01*
X72951343Y-99299199D01*
X72950729Y-99297246D01*
X72950165Y-99295298D01*
X72948233Y-99279660D01*
X72947151Y-99271454D01*
X72945884Y-99263021D01*
X72944350Y-99254381D01*
X72942471Y-99245559D01*
X72941376Y-99241087D01*
X72940164Y-99236577D01*
X72938825Y-99232033D01*
X72937349Y-99227457D01*
X72934410Y-99218199D01*
X72931702Y-99208949D01*
X72929099Y-99199949D01*
X72926477Y-99191444D01*
X72925119Y-99187452D01*
X72923710Y-99183676D01*
X72922233Y-99180144D01*
X72920673Y-99176887D01*
X72919014Y-99173937D01*
X72917241Y-99171322D01*
X72915337Y-99169074D01*
X72913288Y-99167223D01*
X72911072Y-99165455D01*
X72908675Y-99163459D01*
X72903330Y-99158936D01*
X72900375Y-99156485D01*
X72897230Y-99153958D01*
X72893892Y-99151393D01*
X72890357Y-99148827D01*
X72886623Y-99146299D01*
X72882689Y-99143847D01*
X72878550Y-99141507D01*
X72876403Y-99140391D01*
X72874205Y-99139318D01*
X72871954Y-99138292D01*
X72869651Y-99137318D01*
X72867294Y-99136400D01*
X72864885Y-99135544D01*
X72862422Y-99134754D01*
X72859905Y-99134035D01*
X72857334Y-99133391D01*
X72854708Y-99132828D01*
X72851043Y-99132219D01*
X72847139Y-99131775D01*
X72843025Y-99131481D01*
X72838726Y-99131323D01*
X72834269Y-99131287D01*
X72829681Y-99131360D01*
X72820218Y-99131775D01*
X72810550Y-99132456D01*
X72800889Y-99133291D01*
X72782444Y-99134977D01*
X72780025Y-99135059D01*
X72777715Y-99135057D01*
X72775506Y-99134981D01*
X72773393Y-99134839D01*
X72769432Y-99134394D01*
X72765783Y-99133796D01*
X72759231Y-99132425D01*
X72756234Y-99131796D01*
X72753358Y-99131301D01*
X72750556Y-99131012D01*
X72749169Y-99130968D01*
X72747782Y-99131001D01*
X72746390Y-99131123D01*
X72744986Y-99131341D01*
X72743566Y-99131664D01*
X72742123Y-99132102D01*
X72740650Y-99132663D01*
X72739143Y-99133357D01*
X72737594Y-99134192D01*
X72735999Y-99135178D01*
X72734351Y-99136323D01*
X72732645Y-99137637D01*
X72730873Y-99139129D01*
X72729031Y-99140806D01*
X72725235Y-99144195D01*
X72721389Y-99147274D01*
X72717536Y-99150054D01*
X72713714Y-99152550D01*
X72709966Y-99154773D01*
X72706331Y-99156736D01*
X72702849Y-99158452D01*
X72699562Y-99159933D01*
X72696510Y-99161193D01*
X72693733Y-99162244D01*
X72689168Y-99163769D01*
X72685127Y-99164867D01*
X72685129Y-99164829D01*
X72685119Y-99164706D01*
X72685101Y-99164610D01*
X72685070Y-99164490D01*
X72685022Y-99164343D01*
X72684955Y-99164170D01*
X72684864Y-99163968D01*
X72684747Y-99163736D01*
X72684600Y-99163473D01*
X72684420Y-99163178D01*
X72684203Y-99162849D01*
X72683947Y-99162486D01*
X72683647Y-99162087D01*
X72683301Y-99161650D01*
X72682905Y-99161175D01*
X72682456Y-99160660D01*
X72681950Y-99160105D01*
X72681384Y-99159507D01*
X72680756Y-99158865D01*
X72680060Y-99158179D01*
X72679295Y-99157446D01*
X72678457Y-99156667D01*
X72677542Y-99155839D01*
X72676547Y-99154961D01*
X72675469Y-99154032D01*
X72674305Y-99153051D01*
X72673050Y-99152016D01*
X72671703Y-99150927D01*
X72670258Y-99149781D01*
X72668714Y-99148579D01*
X72663066Y-99144209D01*
X72658623Y-99140726D01*
X72654991Y-99137785D01*
X72651781Y-99135040D01*
X72648599Y-99132149D01*
X72645055Y-99128765D01*
X72640756Y-99124545D01*
X72635311Y-99119144D01*
X72632472Y-99116210D01*
X72630067Y-99113496D01*
X72628047Y-99110972D01*
X72626359Y-99108609D01*
X72624951Y-99106377D01*
X72623772Y-99104248D01*
X72622770Y-99102192D01*
X72621893Y-99100180D01*
X72620310Y-99096170D01*
X72619499Y-99094113D01*
X72618607Y-99091983D01*
X72617582Y-99089751D01*
X72616373Y-99087386D01*
X72614927Y-99084860D01*
X72613193Y-99082143D01*
X72611335Y-99079326D01*
X72609554Y-99076504D01*
X72607854Y-99073659D01*
X72606238Y-99070773D01*
X72604709Y-99067828D01*
X72603273Y-99064805D01*
X72601932Y-99061685D01*
X72600689Y-99058451D01*
X72599550Y-99055084D01*
X72598516Y-99051566D01*
X72597593Y-99047878D01*
X72596783Y-99044002D01*
X72596091Y-99039920D01*
X72595520Y-99035612D01*
X72595073Y-99031062D01*
X72594755Y-99026250D01*
X72594676Y-99023823D01*
X72594686Y-99021488D01*
X72594776Y-99019241D01*
X72594939Y-99017077D01*
X72595456Y-99012987D01*
X72596173Y-99009185D01*
X72597031Y-99005640D01*
X72597969Y-99002323D01*
X72599841Y-98996242D01*
X72600654Y-98993416D01*
X72601302Y-98990692D01*
X72601726Y-98988039D01*
X72601835Y-98986729D01*
X72601865Y-98985425D01*
X72601809Y-98984123D01*
X72601658Y-98982819D01*
X72601406Y-98981510D01*
X72601044Y-98980191D01*
X72600566Y-98978858D01*
X72599962Y-98977507D01*
X72599227Y-98976136D01*
X72598352Y-98974739D01*
X72597600Y-98973700D01*
X72596769Y-98972696D01*
X72595864Y-98971721D01*
X72594891Y-98970768D01*
X72592762Y-98968904D01*
X72590424Y-98967057D01*
X72585295Y-98963217D01*
X72582589Y-98961125D01*
X72579848Y-98958854D01*
X72577113Y-98956355D01*
X72575761Y-98955004D01*
X72574427Y-98953578D01*
X72573116Y-98952070D01*
X72571834Y-98950475D01*
X72570586Y-98948786D01*
X72569377Y-98946997D01*
X72568213Y-98945102D01*
X72567098Y-98943095D01*
X72566039Y-98940969D01*
X72565041Y-98938720D01*
X72564110Y-98936339D01*
X72563249Y-98933822D01*
X72562466Y-98931163D01*
X72561765Y-98928354D01*
X72561123Y-98923016D01*
X72560637Y-98918277D01*
X72560281Y-98914090D01*
X72560032Y-98910406D01*
X72559758Y-98904360D01*
X72559622Y-98899756D01*
X72559431Y-98896213D01*
X72559254Y-98894720D01*
X72558991Y-98893349D01*
X72558618Y-98892052D01*
X72558111Y-98890781D01*
X72557445Y-98889490D01*
X72556597Y-98888129D01*
X72556140Y-98887390D01*
X72555714Y-98886586D01*
X72554953Y-98884809D01*
X72554305Y-98882844D01*
X72553761Y-98880737D01*
X72553313Y-98878534D01*
X72552951Y-98876281D01*
X72552666Y-98874024D01*
X72552449Y-98871810D01*
X72552184Y-98867691D01*
X72552084Y-98864294D01*
X72552091Y-98861134D01*
X72548014Y-98855379D01*
X72543793Y-98848990D01*
X72541393Y-98845152D01*
X72538896Y-98840974D01*
X72536377Y-98836525D01*
X72533908Y-98831870D01*
X72531561Y-98827076D01*
X72529410Y-98822211D01*
X72527529Y-98817342D01*
X72526712Y-98814927D01*
X72525989Y-98812536D01*
X72525370Y-98810177D01*
X72524864Y-98807860D01*
X72524480Y-98805591D01*
X72524227Y-98803380D01*
X72524383Y-98799274D01*
X72524411Y-98795431D01*
X72524315Y-98791831D01*
X72524098Y-98788457D01*
X72523765Y-98785289D01*
X72523317Y-98782310D01*
X72522760Y-98779501D01*
X72522097Y-98776844D01*
X72521331Y-98774319D01*
X72520465Y-98771908D01*
X72519505Y-98769594D01*
X72518452Y-98767357D01*
X72517312Y-98765179D01*
X72516086Y-98763042D01*
X72514780Y-98760926D01*
X72513396Y-98758814D01*
X72514028Y-98757478D01*
X72514873Y-98755897D01*
X72516119Y-98753788D01*
X72517801Y-98751209D01*
X72519956Y-98748221D01*
X72522620Y-98744884D01*
X72524154Y-98743102D01*
X72525829Y-98741256D01*
X72527649Y-98739352D01*
X72529618Y-98737398D01*
X72531743Y-98735401D01*
X72534025Y-98733369D01*
X72536472Y-98731310D01*
X72539086Y-98729230D01*
X72541872Y-98727137D01*
X72544835Y-98725039D01*
X72547980Y-98722943D01*
X72551310Y-98720856D01*
X72554831Y-98718787D01*
X72558547Y-98716742D01*
X72562462Y-98714729D01*
X72566581Y-98712756D01*
X72570909Y-98710829D01*
X72575449Y-98708957D01*
X72577035Y-98706869D01*
X72578950Y-98704305D01*
X72581555Y-98700765D01*
X72584805Y-98696281D01*
X72588655Y-98690882D01*
X72593062Y-98684596D01*
X72597979Y-98677455D01*
X72601811Y-98675035D01*
X72606201Y-98672520D01*
X72616364Y-98667242D01*
X72627881Y-98661695D01*
X72640163Y-98655954D01*
X72652622Y-98650095D01*
X72664668Y-98644193D01*
X72670352Y-98641249D01*
X72675713Y-98638322D01*
X72680676Y-98635422D01*
X72685168Y-98632558D01*
X72693961Y-98626534D01*
X72703194Y-98620019D01*
X72721688Y-98606647D01*
X72738066Y-98594697D01*
X72744653Y-98589959D01*
X72749743Y-98586422D01*
X72752057Y-98584746D01*
X72754734Y-98582607D01*
X72760995Y-98577207D01*
X72775828Y-98563804D01*
X72783653Y-98556877D01*
X72787503Y-98553592D01*
X72791251Y-98550516D01*
X72794848Y-98547717D01*
X72798249Y-98545261D01*
X72801406Y-98543216D01*
X72804272Y-98541649D01*
X72805320Y-98541084D01*
X72806460Y-98540231D01*
X72807682Y-98539109D01*
X72808979Y-98537738D01*
X72811767Y-98534323D01*
X72814759Y-98530135D01*
X72817894Y-98525324D01*
X72821107Y-98520040D01*
X72824336Y-98514434D01*
X72827516Y-98508656D01*
X72833479Y-98497184D01*
X72838490Y-98486827D01*
X72842042Y-98478786D01*
X72843113Y-98476010D01*
X72843629Y-98474263D01*
X72844482Y-98473058D01*
X72845410Y-98471594D01*
X72847556Y-98468038D01*
X72848808Y-98466019D01*
X72850202Y-98463889D01*
X72851753Y-98461685D01*
X72853480Y-98459443D01*
X72855398Y-98457200D01*
X72856434Y-98456090D01*
X72857524Y-98454994D01*
X72858670Y-98453916D01*
X72859875Y-98452861D01*
X72861140Y-98451833D01*
X72862467Y-98450837D01*
X72863859Y-98449878D01*
X72865318Y-98448961D01*
X72866845Y-98448089D01*
X72868443Y-98447268D01*
X72870114Y-98446502D01*
X72871860Y-98445795D01*
X72873683Y-98445153D01*
X72875586Y-98444580D01*
X72902959Y-98434054D01*
X72911731Y-98430368D01*
X72916139Y-98428392D01*
X72920495Y-98426335D01*
X72924753Y-98424200D01*
X72928861Y-98421993D01*
X72932773Y-98419717D01*
X72936440Y-98417378D01*
X72940787Y-98415419D01*
X72945746Y-98412928D01*
X72957004Y-98406717D01*
X72969231Y-98399470D01*
X72981442Y-98391913D01*
X73001878Y-98378772D01*
X73010440Y-98373101D01*
X73014548Y-98361557D01*
X73019313Y-98349006D01*
X73025556Y-98333607D01*
X73029155Y-98325231D01*
X73033031Y-98316613D01*
X73037153Y-98307910D01*
X73041491Y-98299277D01*
X73046014Y-98290872D01*
X73050690Y-98282852D01*
X73055489Y-98275373D01*
X73060381Y-98268591D01*
X73069320Y-98256818D01*
X73076644Y-98246832D01*
X73087739Y-98231101D01*
X73092158Y-98224793D01*
X73096256Y-98219149D01*
X73100355Y-98213888D01*
X73104781Y-98208729D01*
X73112776Y-98199992D01*
X73114434Y-98198148D01*
X73116001Y-98196353D01*
X73117500Y-98194563D01*
X73118954Y-98192736D01*
X73120385Y-98190829D01*
X73121817Y-98188796D01*
X73123272Y-98186596D01*
X73124773Y-98184186D01*
X73126343Y-98181520D01*
X73128004Y-98178557D01*
X73129781Y-98175252D01*
X73131694Y-98171563D01*
X73132813Y-98171810D01*
X73135929Y-98172604D01*
X73138123Y-98173231D01*
X73140682Y-98174026D01*
X73143559Y-98174999D01*
X73146711Y-98176160D01*
X73150091Y-98177519D01*
X73153656Y-98179086D01*
X73157360Y-98180871D01*
X73161157Y-98182885D01*
X73165003Y-98185138D01*
X73166930Y-98186358D01*
X73168853Y-98187640D01*
X73170765Y-98188988D01*
X73172661Y-98190402D01*
X73174536Y-98191883D01*
X73176383Y-98193433D01*
X73185150Y-98189082D01*
X73195248Y-98184221D01*
X73208391Y-98178082D01*
X73224005Y-98171051D01*
X73241518Y-98163513D01*
X73250807Y-98159674D01*
X73260355Y-98155852D01*
X73270091Y-98152096D01*
X73279943Y-98148454D01*
X73319651Y-98136451D01*
X73357946Y-98125393D01*
X73375314Y-98120739D01*
X73390829Y-98116946D01*
X73403992Y-98114223D01*
X73409535Y-98113327D01*
X73414302Y-98112776D01*
X73418642Y-98112867D01*
X73423150Y-98112709D01*
X73427791Y-98112318D01*
X73432526Y-98111711D01*
X73437320Y-98110905D01*
X73442136Y-98109916D01*
X73446937Y-98108762D01*
X73451685Y-98107459D01*
X73456345Y-98106023D01*
X73460879Y-98104472D01*
X73465250Y-98102823D01*
X73469422Y-98101091D01*
X73473359Y-98099293D01*
X73477022Y-98097448D01*
X73480376Y-98095570D01*
X73483383Y-98093677D01*
X73488727Y-98094778D01*
G36*
X73488727Y-98094778D02*
G01*
X73494789Y-98096091D01*
X73502561Y-98097855D01*
X73511630Y-98100026D01*
X73521585Y-98102563D01*
X73532013Y-98105421D01*
X73537275Y-98106958D01*
X73542501Y-98108559D01*
X73564545Y-98115849D01*
X73594731Y-98125348D01*
X73627276Y-98135311D01*
X73656396Y-98143989D01*
X73671026Y-98148644D01*
X73688622Y-98154764D01*
X73727812Y-98169054D01*
X73764170Y-98182170D01*
X73778226Y-98186822D01*
X73783688Y-98188416D01*
X73787902Y-98189423D01*
X73801750Y-98192308D01*
X73807754Y-98193708D01*
X73813313Y-98195127D01*
X73818556Y-98196598D01*
X73823610Y-98198156D01*
X73828601Y-98199835D01*
X73833657Y-98201671D01*
X73844472Y-98205950D01*
X73857075Y-98211269D01*
X73891709Y-98226134D01*
X73899019Y-98229201D01*
X73916187Y-98236653D01*
X73926236Y-98241202D01*
X73936071Y-98245863D01*
X73940630Y-98248132D01*
X73944800Y-98250306D01*
X73948471Y-98252344D01*
X73951530Y-98254204D01*
X73967618Y-98264767D01*
X73978815Y-98271912D01*
X73991435Y-98279605D01*
X73998119Y-98283494D01*
X74004968Y-98287325D01*
X74011918Y-98291031D01*
X74018905Y-98294549D01*
X74025866Y-98297813D01*
X74032737Y-98300757D01*
X74039454Y-98303316D01*
X74045953Y-98305426D01*
X74074422Y-98313519D01*
X74104308Y-98322197D01*
X74135847Y-98331812D01*
X74152309Y-98337081D01*
X74169274Y-98342716D01*
X74295860Y-98413285D01*
X74309754Y-98418410D01*
X74322527Y-98423006D01*
X74335506Y-98427589D01*
X74334953Y-98428751D01*
X74333301Y-98431804D01*
X74332067Y-98433838D01*
X74330564Y-98436100D01*
X74328792Y-98438511D01*
X74326753Y-98440990D01*
X74325634Y-98442229D01*
X74324449Y-98443455D01*
X74323198Y-98444657D01*
X74321882Y-98445825D01*
X74320499Y-98446949D01*
X74319052Y-98448019D01*
X74317539Y-98449024D01*
X74315962Y-98449955D01*
X74314320Y-98450802D01*
X74312613Y-98451554D01*
X74310842Y-98452201D01*
X74309007Y-98452733D01*
X74307107Y-98453141D01*
X74305144Y-98453412D01*
X74303118Y-98453539D01*
X74301028Y-98453510D01*
X74301400Y-98454731D01*
X74302573Y-98458100D01*
X74303487Y-98460452D01*
X74304635Y-98463175D01*
X74306026Y-98466213D01*
X74307673Y-98469513D01*
X74309585Y-98473017D01*
X74311774Y-98476672D01*
X74314251Y-98480421D01*
X74315600Y-98482314D01*
X74317026Y-98484210D01*
X74318529Y-98486102D01*
X74320111Y-98487983D01*
X74321772Y-98489846D01*
X74323516Y-98491685D01*
X74325342Y-98493492D01*
X74327252Y-98495260D01*
X74329248Y-98496984D01*
X74331331Y-98498654D01*
X74339993Y-98505254D01*
X74348987Y-98511919D01*
X74358352Y-98518656D01*
X74368122Y-98525473D01*
X74378334Y-98532376D01*
X74389025Y-98539373D01*
X74400231Y-98546472D01*
X74411988Y-98553680D01*
X74424702Y-98561630D01*
X74438355Y-98570646D01*
X74452348Y-98580265D01*
X74466085Y-98590024D01*
X74478965Y-98599462D01*
X74490393Y-98608117D01*
X74499768Y-98615528D01*
X74506494Y-98621231D01*
X74505720Y-98622086D01*
X74503471Y-98624411D01*
X74501827Y-98626012D01*
X74499855Y-98627844D01*
X74497570Y-98629864D01*
X74494983Y-98632026D01*
X74492110Y-98634284D01*
X74488964Y-98636594D01*
X74485557Y-98638911D01*
X74483761Y-98640057D01*
X74481905Y-98641189D01*
X74479991Y-98642299D01*
X74478021Y-98643383D01*
X74475996Y-98644435D01*
X74473918Y-98645448D01*
X74471789Y-98646419D01*
X74469610Y-98647340D01*
X74467384Y-98648206D01*
X74465111Y-98649012D01*
X74465040Y-98649039D01*
X74464870Y-98649137D01*
X74464766Y-98649221D01*
X74464661Y-98649333D01*
X74464561Y-98649476D01*
X74464476Y-98649653D01*
X74464411Y-98649868D01*
X74464376Y-98650124D01*
X74464377Y-98650425D01*
X74464423Y-98650773D01*
X74464521Y-98651171D01*
X74464678Y-98651624D01*
X74464904Y-98652135D01*
X74465205Y-98652706D01*
X74465589Y-98653342D01*
X74466064Y-98654045D01*
X74466637Y-98654819D01*
X74467316Y-98655667D01*
X74468110Y-98656592D01*
X74469025Y-98657598D01*
X74470070Y-98658688D01*
X74471251Y-98659865D01*
X74472578Y-98661133D01*
X74474057Y-98662495D01*
X74475696Y-98663954D01*
X74477503Y-98665514D01*
X74479486Y-98667178D01*
X74481653Y-98668948D01*
X74484011Y-98670830D01*
X74486567Y-98672825D01*
X74606911Y-98758525D01*
X74612449Y-98762244D01*
X74618168Y-98766329D01*
X74629988Y-98775354D01*
X74642047Y-98785114D01*
X74654018Y-98795125D01*
X74676396Y-98813959D01*
X74686150Y-98821813D01*
X74690526Y-98825137D01*
X74694513Y-98827978D01*
X74704057Y-98835280D01*
X74711784Y-98841113D01*
X74718240Y-98846008D01*
X74723974Y-98850492D01*
X74729531Y-98855094D01*
X74732415Y-98857605D01*
X74735459Y-98860344D01*
X74742304Y-98866769D01*
X74750613Y-98874900D01*
X74754873Y-98878617D01*
X74758257Y-98881801D01*
X74759646Y-98883206D01*
X74760847Y-98884493D01*
X74761870Y-98885668D01*
X74762727Y-98886734D01*
X74763426Y-98887698D01*
X74763978Y-98888564D01*
X74764395Y-98889337D01*
X74764686Y-98890022D01*
X74764861Y-98890625D01*
X74764932Y-98891150D01*
X74764908Y-98891603D01*
X74764799Y-98891988D01*
X74764617Y-98892311D01*
X74764371Y-98892576D01*
X74764073Y-98892789D01*
X74763731Y-98892955D01*
X74762962Y-98893164D01*
X74762146Y-98893245D01*
X74761367Y-98893238D01*
X74760707Y-98893183D01*
X74760080Y-98893090D01*
X74757669Y-98893178D01*
X74754719Y-98893243D01*
X74750666Y-98893283D01*
X74745552Y-98893267D01*
X74739420Y-98893167D01*
X74732315Y-98892953D01*
X74728410Y-98892793D01*
X74724279Y-98892594D01*
X74720795Y-98892020D01*
X74717430Y-98891671D01*
X74714198Y-98891520D01*
X74711113Y-98891541D01*
X74708190Y-98891710D01*
X74705444Y-98891999D01*
X74702891Y-98892384D01*
X74700543Y-98892838D01*
X74698417Y-98893335D01*
X74696526Y-98893850D01*
X74693511Y-98894829D01*
X74690958Y-98895860D01*
X74690743Y-98896404D01*
X74690528Y-98897066D01*
X74690289Y-98897972D01*
X74690063Y-98899110D01*
X74689884Y-98900467D01*
X74689823Y-98901225D01*
X74689788Y-98902033D01*
X74689783Y-98902889D01*
X74689812Y-98903793D01*
X74689880Y-98904743D01*
X74689992Y-98905738D01*
X74690151Y-98906775D01*
X74690362Y-98907854D01*
X74690630Y-98908972D01*
X74690960Y-98910129D01*
X74691355Y-98911323D01*
X74691820Y-98912552D01*
X74692360Y-98913815D01*
X74692979Y-98915110D01*
X74693682Y-98916436D01*
X74694472Y-98917792D01*
X74695356Y-98919175D01*
X74696336Y-98920584D01*
X74697418Y-98922019D01*
X74698606Y-98923476D01*
X74701099Y-98926604D01*
X74703637Y-98930110D01*
X74709026Y-98938230D01*
X74715126Y-98947791D01*
X74722292Y-98958749D01*
X74726385Y-98964736D01*
X74730877Y-98971056D01*
X74735812Y-98977702D01*
X74741234Y-98984669D01*
X74747187Y-98991950D01*
X74753717Y-98999540D01*
X74760866Y-99007434D01*
X74768679Y-99015626D01*
X74772740Y-99019522D01*
X74776662Y-99023464D01*
X74780470Y-99027451D01*
X74784187Y-99031482D01*
X74791447Y-99039678D01*
X74798634Y-99048052D01*
X74805939Y-99056602D01*
X74813554Y-99065327D01*
X74821672Y-99074227D01*
X74825979Y-99078743D01*
X74830484Y-99083301D01*
X74834511Y-99087909D01*
X74838533Y-99092766D01*
X74846475Y-99102975D01*
X74854139Y-99113435D01*
X74861354Y-99123654D01*
X74873749Y-99141396D01*
X74878585Y-99147934D01*
X74880587Y-99150403D01*
X74882284Y-99152258D01*
X74849666Y-99168712D01*
X74849088Y-99188183D01*
X74851143Y-99190388D01*
X74853285Y-99192542D01*
X74855512Y-99194656D01*
X74857822Y-99196739D01*
X74860213Y-99198799D01*
X74862683Y-99200846D01*
X74867855Y-99204939D01*
X74891338Y-99222621D01*
X74897075Y-99225764D01*
X74906588Y-99229964D01*
X74936130Y-99241110D01*
X74978335Y-99255202D01*
X75031571Y-99271385D01*
X75094210Y-99288803D01*
X75128546Y-99297707D01*
X75164621Y-99306599D01*
X75202231Y-99315372D01*
X75241173Y-99323919D01*
X75281243Y-99332132D01*
X75322237Y-99339905D01*
X75388389Y-99351771D01*
X75448976Y-99361597D01*
X75504494Y-99369603D01*
X75555441Y-99376014D01*
X75645611Y-99384933D01*
X75723460Y-99390131D01*
X75858102Y-99396468D01*
X75922848Y-99401160D01*
X75991178Y-99409235D01*
X76026219Y-99414883D01*
X76059985Y-99421447D01*
X76092610Y-99428898D01*
X76124231Y-99437204D01*
X76154981Y-99446333D01*
X76184997Y-99456256D01*
X76214414Y-99466942D01*
X76243366Y-99478359D01*
X76271989Y-99490477D01*
X76300419Y-99503264D01*
X76357237Y-99530727D01*
X76414903Y-99560499D01*
X76474497Y-99592334D01*
X76480520Y-99595391D01*
X76486319Y-99598470D01*
X76497288Y-99604668D01*
X76507493Y-99610868D01*
X76517021Y-99617011D01*
X76525959Y-99623039D01*
X76534395Y-99628891D01*
X76550110Y-99639835D01*
X76576031Y-99651211D01*
X76601812Y-99662907D01*
X76627372Y-99674943D01*
X76652630Y-99687342D01*
X76677507Y-99700125D01*
X76701922Y-99713314D01*
X76725795Y-99726931D01*
X76749044Y-99740997D01*
X76791372Y-99769993D01*
X76836265Y-99804788D01*
X76883168Y-99844446D01*
X76931529Y-99888031D01*
X76980795Y-99934607D01*
X77030414Y-99983237D01*
X77128497Y-100082917D01*
X77304565Y-100265738D01*
X77373705Y-100333900D01*
X77401616Y-100358892D01*
X77424352Y-100376576D01*
X77443301Y-100389493D01*
X77461457Y-100401091D01*
X77478899Y-100411448D01*
X77495709Y-100420642D01*
X77511966Y-100428752D01*
X77527751Y-100435854D01*
X77543145Y-100442028D01*
X77558227Y-100447351D01*
X77573078Y-100451902D01*
X77587778Y-100455758D01*
X77602408Y-100458998D01*
X77617048Y-100461699D01*
X77631779Y-100463941D01*
X77646681Y-100465800D01*
X77677318Y-100468684D01*
X77692539Y-100469155D01*
X77706631Y-100469289D01*
X77719614Y-100469129D01*
X77731507Y-100468718D01*
X77752110Y-100467309D01*
X77768601Y-100465400D01*
X77781143Y-100463328D01*
X77789901Y-100461430D01*
X77796711Y-100459506D01*
X77807229Y-100446208D01*
X77819148Y-100432044D01*
X77826414Y-100423799D01*
X77834415Y-100415053D01*
X77843048Y-100406011D01*
X77852212Y-100396876D01*
X77861803Y-100387854D01*
X77871719Y-100379150D01*
X77881858Y-100370968D01*
X77886979Y-100367137D01*
X77892118Y-100363514D01*
X77897261Y-100360123D01*
X77902396Y-100356991D01*
X77907510Y-100354144D01*
X77912590Y-100351606D01*
X77927140Y-100345217D01*
X77943480Y-100339118D01*
X77961234Y-100333325D01*
X77980025Y-100327855D01*
X78019212Y-100317954D01*
X78058029Y-100309549D01*
X78093464Y-100302776D01*
X78122504Y-100297771D01*
X78149351Y-100293604D01*
X78149441Y-100298311D01*
X78149058Y-100311461D01*
X78148384Y-100320748D01*
X78147226Y-100331599D01*
X78145461Y-100343834D01*
X78142967Y-100357270D01*
X78139623Y-100371725D01*
X78135306Y-100387018D01*
X78132744Y-100394921D01*
X78129893Y-100402966D01*
X78126738Y-100411129D01*
X78123264Y-100419387D01*
X78119454Y-100427719D01*
X78115295Y-100436101D01*
X78110770Y-100444510D01*
X78105864Y-100452924D01*
X78100563Y-100461320D01*
X78094850Y-100469675D01*
X78088711Y-100477966D01*
X78082130Y-100486171D01*
X78073696Y-100495475D01*
X78065073Y-100504023D01*
X78056281Y-100511848D01*
X78047340Y-100518981D01*
X78038271Y-100525455D01*
X78029092Y-100531303D01*
X78019825Y-100536555D01*
X78010489Y-100541243D01*
X78001105Y-100545401D01*
X77991691Y-100549060D01*
X77972858Y-100555008D01*
X77954151Y-100559345D01*
X77935728Y-100562327D01*
X77817837Y-100568151D01*
X77800042Y-100570863D01*
X77779795Y-100573146D01*
X77757342Y-100574871D01*
X77732929Y-100575910D01*
X77706800Y-100576133D01*
X77679202Y-100575413D01*
X77650379Y-100573619D01*
X77620576Y-100570624D01*
X77590040Y-100566299D01*
X77559016Y-100560514D01*
X77527748Y-100553141D01*
X77496483Y-100544051D01*
X77465466Y-100533116D01*
X77434942Y-100520206D01*
X77405156Y-100505194D01*
X77390617Y-100496858D01*
X77376354Y-100487949D01*
X77350936Y-100470882D01*
X77325729Y-100453053D01*
X77300772Y-100434586D01*
X77276102Y-100415601D01*
X77227780Y-100376569D01*
X77181067Y-100336936D01*
X77016438Y-100191947D01*
X76997752Y-100177301D01*
X76977696Y-100162515D01*
X76956389Y-100147664D01*
X76933952Y-100132826D01*
X76910501Y-100118076D01*
X76886158Y-100103489D01*
X76861040Y-100089143D01*
X76835266Y-100075113D01*
X76808957Y-100061475D01*
X76782230Y-100048305D01*
X76755205Y-100035680D01*
X76728000Y-100023675D01*
X76700735Y-100012367D01*
X76673530Y-100001831D01*
X76646501Y-99992143D01*
X76619770Y-99983380D01*
X76620412Y-99993298D01*
X76621283Y-100003221D01*
X76623444Y-100022883D01*
X76625722Y-100041955D01*
X76626738Y-100051141D01*
X76627584Y-100060027D01*
X76631636Y-100086262D01*
X76637346Y-100115584D01*
X76652830Y-100181183D01*
X76672222Y-100252220D01*
X76693710Y-100324090D01*
X76715478Y-100392188D01*
X76735715Y-100451909D01*
X76752607Y-100498649D01*
X76764340Y-100527802D01*
X76777076Y-100555033D01*
X76795457Y-100591525D01*
X76817541Y-100633719D01*
X76841386Y-100678058D01*
X76865049Y-100720983D01*
X76886588Y-100758936D01*
X76904061Y-100788360D01*
X76915525Y-100805697D01*
X76919898Y-100810302D01*
X76924967Y-100815168D01*
X76930717Y-100820263D01*
X76937137Y-100825557D01*
X76944212Y-100831017D01*
X76951930Y-100836614D01*
X76960278Y-100842315D01*
X76969244Y-100848089D01*
X76978813Y-100853905D01*
X76988973Y-100859733D01*
X76999712Y-100865539D01*
X77011016Y-100871295D01*
X77022872Y-100876967D01*
X77035267Y-100882525D01*
X77048189Y-100887938D01*
X77061624Y-100893175D01*
X77143049Y-100920804D01*
X77244878Y-100953668D01*
X77368665Y-100992683D01*
X77368639Y-101028399D01*
X77369220Y-101067882D01*
X77370739Y-101117194D01*
X77373607Y-101172895D01*
X77375674Y-101202065D01*
X77378231Y-101231543D01*
X77381329Y-101260897D01*
X77385019Y-101289697D01*
X77389352Y-101317514D01*
X77394379Y-101343917D01*
X77398633Y-101366630D01*
X77404255Y-101392900D01*
X77417221Y-101447994D01*
X77433322Y-101511556D01*
X77428890Y-101514538D01*
X77416795Y-101523211D01*
X77408437Y-101529553D01*
X77398840Y-101537163D01*
X77388229Y-101545990D01*
X77376829Y-101555983D01*
X77364866Y-101567090D01*
X77352565Y-101579259D01*
X77340152Y-101592439D01*
X77327852Y-101606580D01*
X77321814Y-101613994D01*
X77315890Y-101621629D01*
X77310106Y-101629478D01*
X77304491Y-101637534D01*
X77299074Y-101645793D01*
X77293882Y-101654246D01*
X77288944Y-101662887D01*
X77284288Y-101671711D01*
X77275328Y-101683256D01*
X77265171Y-101696019D01*
X77254264Y-101709093D01*
X77248668Y-101715464D01*
X77243052Y-101721572D01*
X77237471Y-101727305D01*
X77231982Y-101732549D01*
X77226639Y-101737192D01*
X77221500Y-101741119D01*
X77216619Y-101744217D01*
X77214293Y-101745420D01*
X77212053Y-101746373D01*
X77209905Y-101747063D01*
X77207856Y-101747474D01*
X77205914Y-101747594D01*
X77204086Y-101747407D01*
X76826724Y-101673324D01*
X76826564Y-101669170D01*
X76826566Y-101664377D01*
X76826801Y-101658127D01*
X76827404Y-101650686D01*
X76828510Y-101642320D01*
X76830252Y-101633293D01*
X76832765Y-101623873D01*
X76834353Y-101619098D01*
X76836184Y-101614325D01*
X76838275Y-101609585D01*
X76840642Y-101604913D01*
X76843304Y-101600342D01*
X76846275Y-101595905D01*
X76849574Y-101591635D01*
X76853217Y-101587566D01*
X76857220Y-101583730D01*
X76861601Y-101580161D01*
X76866376Y-101576892D01*
X76871563Y-101573956D01*
X76877177Y-101571386D01*
X76883236Y-101569217D01*
X76889757Y-101567480D01*
X76896756Y-101566209D01*
X76900789Y-101565182D01*
X76904549Y-101564136D01*
X76911357Y-101561985D01*
X76917405Y-101559761D01*
X76922915Y-101557471D01*
X76944060Y-101547752D01*
X76950242Y-101545212D01*
X76957228Y-101542638D01*
X76965244Y-101540036D01*
X76974513Y-101537413D01*
X76979687Y-101536095D01*
X76985258Y-101534773D01*
X76991255Y-101533448D01*
X76997704Y-101532122D01*
X77004635Y-101530794D01*
X77012075Y-101529466D01*
X77020051Y-101528138D01*
X77028593Y-101526810D01*
X77035364Y-101525682D01*
X77041800Y-101524435D01*
X77047934Y-101523023D01*
X77053799Y-101521400D01*
X77059427Y-101519521D01*
X77064853Y-101517338D01*
X77070108Y-101514805D01*
X77075226Y-101511877D01*
X77080239Y-101508508D01*
X77085180Y-101504651D01*
X77090082Y-101500260D01*
X77094979Y-101495290D01*
X77099902Y-101489693D01*
X77104885Y-101483424D01*
X77109960Y-101476437D01*
X77115161Y-101468685D01*
X77120280Y-101460187D01*
X77125084Y-101451096D01*
X77129572Y-101441569D01*
X77133741Y-101431765D01*
X77137590Y-101421840D01*
X77141115Y-101411952D01*
X77147188Y-101392917D01*
X77151942Y-101375919D01*
X77155359Y-101362219D01*
X77158115Y-101349746D01*
X77158299Y-101346242D01*
X77158462Y-101336802D01*
X77158353Y-101330358D01*
X77158020Y-101323033D01*
X77157390Y-101315027D01*
X77156391Y-101306543D01*
X77154948Y-101297780D01*
X77152990Y-101288939D01*
X77151794Y-101284553D01*
X77150443Y-101280222D01*
X77148926Y-101275973D01*
X77147234Y-101271830D01*
X77145359Y-101267819D01*
X77143291Y-101263963D01*
X77141021Y-101260290D01*
X77138540Y-101256823D01*
X77135838Y-101253588D01*
X77132908Y-101250610D01*
X77129739Y-101247914D01*
X77126323Y-101245526D01*
X77121803Y-101242682D01*
X77116875Y-101240118D01*
X77111556Y-101237813D01*
X77105860Y-101235746D01*
X77093400Y-101232249D01*
X77079619Y-101229463D01*
X77064639Y-101227226D01*
X77048582Y-101225375D01*
X77013733Y-101222185D01*
X76976054Y-101218592D01*
X76956461Y-101216238D01*
X76936529Y-101213297D01*
X76916381Y-101209605D01*
X76896139Y-101205000D01*
X76875928Y-101199320D01*
X76865872Y-101196026D01*
X76855869Y-101192402D01*
X76825105Y-101179612D01*
X76793197Y-101165453D01*
X76727179Y-101133905D01*
X76660268Y-101099501D01*
X76594914Y-101063987D01*
X76533568Y-101029107D01*
X76478683Y-100996606D01*
X76432710Y-100968228D01*
X76398099Y-100945719D01*
X76385241Y-100935969D01*
X76371586Y-100924049D01*
X76357300Y-100910273D01*
X76342552Y-100894956D01*
X76327509Y-100878415D01*
X76312339Y-100860963D01*
X76282288Y-100824590D01*
X76253740Y-100788359D01*
X76228036Y-100754792D01*
X76190525Y-100705734D01*
X76184087Y-100698036D01*
X76177596Y-100690916D01*
X76171118Y-100684364D01*
X76164718Y-100678368D01*
X76158459Y-100672917D01*
X76152406Y-100667999D01*
X76146624Y-100663603D01*
X76141176Y-100659718D01*
X76136128Y-100656332D01*
X76131544Y-100653434D01*
X76124026Y-100649058D01*
X76117392Y-100645665D01*
X76106196Y-100653062D01*
X76072955Y-100674501D01*
X76048232Y-100690135D01*
X76018195Y-100708859D01*
X75982908Y-100730532D01*
X75942437Y-100755013D01*
X75901738Y-100779085D01*
X75867465Y-100800246D01*
X75838690Y-100818735D01*
X75814488Y-100834793D01*
X75776093Y-100860570D01*
X75760047Y-100870768D01*
X75744867Y-100879491D01*
X75737207Y-100883863D01*
X75729335Y-100888854D01*
X75721330Y-100894373D01*
X75713273Y-100900332D01*
X75705243Y-100906641D01*
X75697321Y-100913210D01*
X75689585Y-100919949D01*
X75682115Y-100926770D01*
X75674992Y-100933582D01*
X75668294Y-100940296D01*
X75662102Y-100946822D01*
X75656495Y-100953071D01*
X75651553Y-100958953D01*
X75647356Y-100964378D01*
X75643983Y-100969257D01*
X75641515Y-100973501D01*
X75633384Y-100989113D01*
X75625853Y-101005986D01*
X75618911Y-101023807D01*
X75612547Y-101042263D01*
X75606752Y-101061041D01*
X75601514Y-101079828D01*
X75592671Y-101116178D01*
X75585937Y-101148809D01*
X75581228Y-101175217D01*
X75577560Y-101199347D01*
X75551416Y-101203602D01*
X75523374Y-101208684D01*
X75489475Y-101215524D01*
X75452813Y-101223964D01*
X75434412Y-101228735D01*
X75416480Y-101233847D01*
X75399403Y-101239280D01*
X75383568Y-101245014D01*
X75369362Y-101251030D01*
X75357170Y-101257308D01*
X75351714Y-101260346D01*
X75346289Y-101263634D01*
X75335574Y-101270869D01*
X75325098Y-101278829D01*
X75314936Y-101287335D01*
X75305161Y-101296203D01*
X75295848Y-101305253D01*
X75287071Y-101314303D01*
X75278903Y-101323171D01*
X75264693Y-101339636D01*
X75253809Y-101353196D01*
X75244392Y-101365787D01*
X74785298Y-101275622D01*
X74784771Y-101269815D01*
X74784518Y-101264286D01*
X74784524Y-101259028D01*
X74784773Y-101254034D01*
X74785253Y-101249295D01*
X74785948Y-101244804D01*
X74786843Y-101240553D01*
X74787924Y-101236534D01*
X74789176Y-101232741D01*
X74790584Y-101229165D01*
X74792135Y-101225798D01*
X74793812Y-101222633D01*
X74795602Y-101219663D01*
X74797490Y-101216879D01*
X74799461Y-101214274D01*
X74801501Y-101211840D01*
X74805728Y-101207457D01*
X74810053Y-101203667D01*
X74814360Y-101200409D01*
X74818532Y-101197622D01*
X74831518Y-101189963D01*
X74835755Y-101186939D01*
X74840028Y-101183593D01*
X74848820Y-101176171D01*
X74858185Y-101168174D01*
X74863172Y-101164109D01*
X74868411Y-101160080D01*
X74873937Y-101156145D01*
X74879787Y-101152364D01*
X74882844Y-101150551D01*
X74885997Y-101148798D01*
X74889248Y-101147113D01*
X74892602Y-101145505D01*
X74896065Y-101143980D01*
X74899640Y-101142545D01*
X74903332Y-101141209D01*
X74907146Y-101139978D01*
X74911086Y-101138860D01*
X74915157Y-101137863D01*
X74919363Y-101136994D01*
X74923708Y-101136261D01*
X74953270Y-101131967D01*
X74979055Y-101128638D01*
X75001404Y-101126136D01*
X75020663Y-101124323D01*
X75051275Y-101122210D01*
X75073636Y-101121193D01*
X75090487Y-101120165D01*
X75097704Y-101119301D01*
X75104572Y-101118020D01*
X75111435Y-101116184D01*
X75118634Y-101113653D01*
X75126514Y-101110291D01*
X75135417Y-101105958D01*
X75213051Y-101068149D01*
X75234330Y-101056961D01*
X75244370Y-101051302D01*
X75253798Y-101045647D01*
X75262452Y-101040030D01*
X75270173Y-101034489D01*
X75276802Y-101029057D01*
X75282177Y-101023772D01*
X75287257Y-101017339D01*
X75293038Y-101008561D01*
X75299417Y-100997613D01*
X75306294Y-100984673D01*
X75313565Y-100969916D01*
X75321131Y-100953518D01*
X75328889Y-100935656D01*
X75336737Y-100916505D01*
X75344574Y-100896242D01*
X75352298Y-100875043D01*
X75359807Y-100853085D01*
X75367000Y-100830543D01*
X75373775Y-100807594D01*
X75380030Y-100784413D01*
X75385664Y-100761177D01*
X75390574Y-100738063D01*
X75396214Y-100710123D01*
X75401987Y-100683051D01*
X75407852Y-100657069D01*
X75413765Y-100632397D01*
X75419683Y-100609258D01*
X75425564Y-100587872D01*
X75431364Y-100568459D01*
X75437041Y-100551242D01*
X75381053Y-100531308D01*
X75319154Y-100510479D01*
X75252574Y-100490489D01*
X75217912Y-100481352D01*
X75182540Y-100473074D01*
X75146612Y-100465874D01*
X75110282Y-100459967D01*
X75073704Y-100455572D01*
X75037030Y-100452904D01*
X75000414Y-100452181D01*
X74964011Y-100453619D01*
X74927973Y-100457436D01*
X74892455Y-100463847D01*
X74854180Y-100472455D01*
X74799130Y-100483890D01*
X74766838Y-100490202D01*
X74732182Y-100496662D01*
X74695771Y-100503084D01*
X74658216Y-100509281D01*
X74655537Y-100513770D01*
X74652894Y-100518507D01*
X74650297Y-100523501D01*
X74647751Y-100528764D01*
X74645264Y-100534307D01*
X74642845Y-100540141D01*
X74640500Y-100546277D01*
X74638237Y-100552726D01*
X74636063Y-100559498D01*
X74633987Y-100566606D01*
X74632015Y-100574059D01*
X74630155Y-100581868D01*
X74628414Y-100590045D01*
X74626801Y-100598601D01*
X74625322Y-100607546D01*
X74623985Y-100616892D01*
X74622635Y-100628648D01*
X74621897Y-100640663D01*
X74622106Y-100665301D01*
X74624316Y-100690475D01*
X74628226Y-100715854D01*
X74633540Y-100741107D01*
X74639957Y-100765902D01*
X74647180Y-100789908D01*
X74654910Y-100812793D01*
X74670698Y-100853878D01*
X74684932Y-100886506D01*
X74699185Y-100915789D01*
X74684857Y-100937825D01*
X74651595Y-100987679D01*
X74632422Y-101015416D01*
X74613986Y-101040964D01*
X74605613Y-101051965D01*
X74598108Y-101061274D01*
X74591699Y-101068513D01*
X74586613Y-101073299D01*
X74582345Y-101077007D01*
X74577141Y-101081025D01*
X74571124Y-101085334D01*
X74564417Y-101089913D01*
X74533160Y-101110567D01*
X74516601Y-101122031D01*
X74508519Y-101127982D01*
X74500735Y-101134053D01*
X74493371Y-101140226D01*
X74486550Y-101146481D01*
X74480396Y-101152800D01*
X74475033Y-101159164D01*
X74463564Y-101175743D01*
X74451746Y-101192562D01*
X74438777Y-101210840D01*
X79399631Y-102175122D01*
X79404882Y-102528134D01*
X76650900Y-101992808D01*
X76680170Y-103749807D01*
X76301898Y-103676302D01*
X76265725Y-101917939D01*
X69685497Y-100638886D01*
X69680659Y-100285956D01*
X74436462Y-101210385D01*
X74042563Y-101132995D01*
X74042046Y-101129743D01*
X74041596Y-101125961D01*
X74041192Y-101120993D01*
X74040965Y-101115026D01*
X74041045Y-101108249D01*
X74041563Y-101100850D01*
X74042649Y-101093018D01*
X74043446Y-101088998D01*
X74044434Y-101084940D01*
X74045629Y-101080868D01*
X74047048Y-101076805D01*
X74048707Y-101072775D01*
X74050622Y-101068801D01*
X74052810Y-101064907D01*
X74055287Y-101061116D01*
X74058069Y-101057452D01*
X74061172Y-101053938D01*
X74064614Y-101050598D01*
X74068409Y-101047456D01*
X74072575Y-101044535D01*
X74077128Y-101041858D01*
X74082085Y-101039449D01*
X74087460Y-101037332D01*
X74092079Y-101035643D01*
X74096754Y-101033696D01*
X74101482Y-101031529D01*
X74106261Y-101029181D01*
X74115958Y-101024089D01*
X74125824Y-101018724D01*
X74135837Y-101013388D01*
X74140892Y-101010825D01*
X74145976Y-101008383D01*
X74151086Y-101006100D01*
X74156219Y-101004013D01*
X74161373Y-101002160D01*
X74166545Y-101000579D01*
X74186000Y-100995989D01*
X74203292Y-100992399D01*
X74218626Y-100989669D01*
X74232208Y-100987657D01*
X74244240Y-100986220D01*
X74254930Y-100985219D01*
X74273097Y-100983954D01*
X74288348Y-100982728D01*
X74295391Y-100981776D01*
X74302320Y-100980409D01*
X74309339Y-100978486D01*
X74316653Y-100975864D01*
X74324467Y-100972403D01*
X74332985Y-100967961D01*
X74335695Y-100966488D01*
X74338409Y-100964697D01*
X74341120Y-100962610D01*
X74343824Y-100960254D01*
X74349185Y-100954824D01*
X74354444Y-100948598D01*
X74359553Y-100941769D01*
X74364466Y-100934529D01*
X74369134Y-100927068D01*
X74373512Y-100919579D01*
X74381206Y-100905281D01*
X74387169Y-100893170D01*
X74392392Y-100881641D01*
X74368507Y-100847100D01*
X74314060Y-100767063D01*
X74283443Y-100721039D01*
X74254865Y-100676908D01*
X74231553Y-100639092D01*
X74222880Y-100623935D01*
X74216734Y-100612014D01*
X74178998Y-100538053D01*
X74172362Y-100524800D01*
X74166445Y-100512568D01*
X74161045Y-100500822D01*
X74155962Y-100489024D01*
X74105017Y-100473525D01*
X74054871Y-100457074D01*
X74006683Y-100440012D01*
X73961609Y-100422681D01*
X73920808Y-100405425D01*
X73885436Y-100388584D01*
X73870147Y-100380426D01*
X73856650Y-100372501D01*
X73845090Y-100364850D01*
X73835609Y-100357518D01*
X73832936Y-100355732D01*
X73830345Y-100353895D01*
X73827829Y-100352016D01*
X73825382Y-100350104D01*
X73820671Y-100346210D01*
X73816158Y-100342279D01*
X73807522Y-100334570D01*
X73803297Y-100330924D01*
X73801185Y-100329181D01*
X73799064Y-100327504D01*
X73792614Y-100329904D01*
X73786428Y-100332318D01*
X73774729Y-100337009D01*
X73769159Y-100339199D01*
X73763736Y-100341226D01*
X73758432Y-100343048D01*
X73753217Y-100344619D01*
X73736695Y-100350317D01*
X73717731Y-100356219D01*
X73673905Y-100368591D01*
X73572628Y-100395292D01*
X73520877Y-100409438D01*
X73472183Y-100423993D01*
X73449874Y-100431396D01*
X73429397Y-100438866D01*
X73411110Y-100446394D01*
X73395368Y-100453966D01*
X73380525Y-100462658D01*
X73364860Y-100473316D01*
X73348619Y-100485593D01*
X73332048Y-100499140D01*
X73315391Y-100513607D01*
X73298895Y-100528647D01*
X73267365Y-100559046D01*
X73239424Y-100587547D01*
X73217034Y-100611360D01*
X73196765Y-100633759D01*
X73169609Y-100638989D01*
X73140758Y-100645320D01*
X73106250Y-100653947D01*
X73087936Y-100659078D01*
X73069481Y-100664732D01*
X73051310Y-100670891D01*
X73033846Y-100677539D01*
X73017515Y-100684657D01*
X73002740Y-100692230D01*
X72996069Y-100696182D01*
X72989947Y-100700240D01*
X72984425Y-100704403D01*
X72979558Y-100708670D01*
X72976218Y-100711399D01*
X72972220Y-100714029D01*
X72962452Y-100718992D01*
X72950655Y-100723567D01*
X72937231Y-100727760D01*
X72922579Y-100731578D01*
X72907100Y-100735028D01*
X72875262Y-100740851D01*
X72844922Y-100745285D01*
X72819284Y-100748383D01*
X72794929Y-100750796D01*
X72792906Y-100750507D01*
X72790424Y-100750277D01*
X72787002Y-100750106D01*
X72782671Y-100750083D01*
X72777461Y-100750293D01*
X72771404Y-100750824D01*
X72764530Y-100751765D01*
X72760796Y-100752416D01*
X72756869Y-100753202D01*
X72752753Y-100754133D01*
X72748453Y-100755222D01*
X72743971Y-100756478D01*
X72739311Y-100757913D01*
X72734478Y-100759537D01*
X72729476Y-100761362D01*
X72724307Y-100763398D01*
X72718977Y-100765657D01*
X72713488Y-100768149D01*
X72707844Y-100770885D01*
X72702051Y-100773876D01*
X72696110Y-100777133D01*
X72690027Y-100780667D01*
X72683804Y-100784489D01*
X72641115Y-100809837D01*
X72632923Y-100814450D01*
X72625413Y-100818435D01*
X72618432Y-100821826D01*
X72611824Y-100824655D01*
X72605436Y-100826952D01*
X72599112Y-100828750D01*
X72592698Y-100830080D01*
X72586040Y-100830975D01*
X72578982Y-100831466D01*
X72571371Y-100831584D01*
X72563051Y-100831363D01*
X72553869Y-100830833D01*
X72515228Y-100826474D01*
X72473202Y-100820648D01*
X72389517Y-100807119D01*
X72297306Y-100790235D01*
X72296418Y-100785499D01*
X72294751Y-100772838D01*
X72294094Y-100764262D01*
X72293802Y-100754576D01*
X72294064Y-100744071D01*
X72295066Y-100733036D01*
X72295903Y-100727411D01*
X72296995Y-100721762D01*
X72298366Y-100716127D01*
X72300038Y-100710540D01*
X72302036Y-100705039D01*
X72304383Y-100699660D01*
X72307101Y-100694438D01*
X72310215Y-100689412D01*
X72313748Y-100684615D01*
X72317723Y-100680086D01*
X72322163Y-100675860D01*
X72327092Y-100671973D01*
X72332534Y-100668463D01*
X72338511Y-100665364D01*
X72345047Y-100662714D01*
X72352165Y-100660548D01*
X72359194Y-100658579D01*
X72365493Y-100656495D01*
X72371130Y-100654304D01*
X72376174Y-100652009D01*
X72380694Y-100649616D01*
X72384760Y-100647130D01*
X72388440Y-100644557D01*
X72391802Y-100641901D01*
X72394917Y-100639167D01*
X72397853Y-100636361D01*
X72403464Y-100630554D01*
X72409186Y-100624520D01*
X72415571Y-100618300D01*
X72419185Y-100615134D01*
X72423172Y-100611936D01*
X72427599Y-100608713D01*
X72432538Y-100605470D01*
X72438056Y-100602211D01*
X72444222Y-100598942D01*
X72451106Y-100595667D01*
X72458776Y-100592393D01*
X72467302Y-100589125D01*
X72476752Y-100585867D01*
X72487195Y-100582624D01*
X72498700Y-100579403D01*
X72511336Y-100576207D01*
X72525173Y-100573042D01*
X72540278Y-100569914D01*
X72556722Y-100566828D01*
X72648666Y-100551827D01*
X72672147Y-100547505D01*
X72693719Y-100542769D01*
X72703461Y-100540218D01*
X72712329Y-100537528D01*
X72720194Y-100534688D01*
X72726923Y-100531688D01*
X72734798Y-100526804D01*
X72745942Y-100518578D01*
X72776549Y-100493622D01*
X72815773Y-100459872D01*
X72860641Y-100420380D01*
X72955419Y-100336378D01*
X72999385Y-100297971D01*
X73037105Y-100266030D01*
X73074667Y-100235318D01*
X73118319Y-100198338D01*
X73210214Y-100118347D01*
X73316571Y-100023688D01*
X73366594Y-99951878D01*
X73372051Y-99890900D01*
X73349934Y-99853900D01*
X73315414Y-99796893D01*
X73307059Y-99782215D01*
X73303233Y-99775111D01*
X73299716Y-99768235D01*
X73296565Y-99761641D01*
X73293835Y-99755384D01*
X73291583Y-99749518D01*
X73289865Y-99744097D01*
X73286818Y-99733804D01*
X73284101Y-99726025D01*
X73282854Y-99722981D01*
X73281677Y-99720449D01*
X73280565Y-99718388D01*
X73279514Y-99716761D01*
X73278519Y-99715527D01*
X73277576Y-99714649D01*
X73276682Y-99714086D01*
X73275831Y-99713800D01*
X73275020Y-99713751D01*
X73274244Y-99713900D01*
X73272780Y-99714638D01*
X73270086Y-99716770D01*
X73268788Y-99717540D01*
X73268137Y-99717714D01*
X73267478Y-99717694D01*
X73266807Y-99717443D01*
X73266120Y-99716920D01*
X73265412Y-99716088D01*
X73264681Y-99714905D01*
X73263920Y-99713334D01*
X73263126Y-99711336D01*
X73261422Y-99705899D01*
X73260600Y-99703279D01*
X73259571Y-99700602D01*
X73258347Y-99697876D01*
X73256940Y-99695105D01*
X73253622Y-99689454D01*
X73249708Y-99683694D01*
X73245290Y-99677874D01*
X73240458Y-99672040D01*
X73235304Y-99666238D01*
X73229919Y-99660515D01*
X73224395Y-99654917D01*
X73218822Y-99649492D01*
X73207898Y-99639346D01*
X73197877Y-99630449D01*
X73189489Y-99623175D01*
X73186333Y-99619815D01*
X73183044Y-99615913D01*
X73179669Y-99611573D01*
X73176254Y-99606900D01*
X73169490Y-99596974D01*
X73163124Y-99586972D01*
X73157527Y-99577734D01*
X73153069Y-99570098D01*
X73149057Y-99562982D01*
X73148169Y-99566736D01*
X73146968Y-99571009D01*
X73146152Y-99573622D01*
X73145183Y-99576507D01*
X73144052Y-99579627D01*
X73142752Y-99582949D01*
X73141277Y-99586437D01*
X73139617Y-99590057D01*
X73137766Y-99593773D01*
X73135717Y-99597551D01*
X73134615Y-99599451D01*
X73133461Y-99601355D01*
X73132253Y-99603256D01*
X73130991Y-99605150D01*
X73130389Y-99604414D01*
X73128660Y-99602193D01*
X73127411Y-99600522D01*
X73125924Y-99598474D01*
X73124215Y-99596048D01*
X73122299Y-99593241D01*
X73120190Y-99590052D01*
X73117902Y-99586479D01*
X73115452Y-99582520D01*
X73112852Y-99578172D01*
X73110120Y-99573435D01*
X73107268Y-99568305D01*
X73104312Y-99562782D01*
X73101267Y-99556864D01*
X73098443Y-99551091D01*
X73096088Y-99545946D01*
X73094126Y-99541336D01*
X73092479Y-99537171D01*
X73089817Y-99529806D01*
X73087481Y-99523117D01*
X73086242Y-99519797D01*
X73084851Y-99516370D01*
X73083231Y-99512746D01*
X73081305Y-99508832D01*
X73078994Y-99504536D01*
X73076221Y-99499768D01*
X73072909Y-99494434D01*
X73068979Y-99488444D01*
X73064333Y-99481688D01*
X73060080Y-99474392D01*
X73056189Y-99466622D01*
X73052628Y-99458443D01*
X73049364Y-99449920D01*
X73046366Y-99441119D01*
X73043600Y-99432106D01*
X73041036Y-99422946D01*
X73023918Y-99352225D01*
X73019623Y-99338951D01*
X73015769Y-99327716D01*
X73012319Y-99318322D01*
X73009235Y-99310569D01*
X73006479Y-99304259D01*
X73004016Y-99299192D01*
X73001807Y-99295169D01*
X72999815Y-99291991D01*
X72997254Y-99296436D01*
X72990588Y-99307727D01*
X72986192Y-99314982D01*
X72981342Y-99322798D01*
X72976228Y-99330793D01*
X72971042Y-99338583D01*
X72968586Y-99334733D01*
X72965947Y-99330351D01*
X72964400Y-99327670D01*
X72962751Y-99324711D01*
X72961035Y-99321509D01*
X72959287Y-99318100D01*
X72957545Y-99314519D01*
X72955843Y-99310803D01*
X72954218Y-99306987D01*
X72952706Y-99303107D01*
X72951343Y-99299199D01*
X72950729Y-99297246D01*
X72950165Y-99295298D01*
X72948233Y-99279660D01*
X72947151Y-99271454D01*
X72945884Y-99263021D01*
X72944350Y-99254381D01*
X72942471Y-99245559D01*
X72941376Y-99241087D01*
X72940164Y-99236577D01*
X72938825Y-99232033D01*
X72937349Y-99227457D01*
X72934410Y-99218199D01*
X72931702Y-99208949D01*
X72929099Y-99199949D01*
X72926477Y-99191444D01*
X72925119Y-99187452D01*
X72923710Y-99183676D01*
X72922233Y-99180144D01*
X72920673Y-99176887D01*
X72919014Y-99173937D01*
X72917241Y-99171322D01*
X72915337Y-99169074D01*
X72913288Y-99167223D01*
X72911072Y-99165455D01*
X72908675Y-99163459D01*
X72903330Y-99158936D01*
X72900375Y-99156485D01*
X72897230Y-99153958D01*
X72893892Y-99151393D01*
X72890357Y-99148827D01*
X72886623Y-99146299D01*
X72882689Y-99143847D01*
X72878550Y-99141507D01*
X72876403Y-99140391D01*
X72874205Y-99139318D01*
X72871954Y-99138292D01*
X72869651Y-99137318D01*
X72867294Y-99136400D01*
X72864885Y-99135544D01*
X72862422Y-99134754D01*
X72859905Y-99134035D01*
X72857334Y-99133391D01*
X72854708Y-99132828D01*
X72851043Y-99132219D01*
X72847139Y-99131775D01*
X72843025Y-99131481D01*
X72838726Y-99131323D01*
X72834269Y-99131287D01*
X72829681Y-99131360D01*
X72820218Y-99131775D01*
X72810550Y-99132456D01*
X72800889Y-99133291D01*
X72782444Y-99134977D01*
X72780025Y-99135059D01*
X72777715Y-99135057D01*
X72775506Y-99134981D01*
X72773393Y-99134839D01*
X72769432Y-99134394D01*
X72765783Y-99133796D01*
X72759231Y-99132425D01*
X72756234Y-99131796D01*
X72753358Y-99131301D01*
X72750556Y-99131012D01*
X72749169Y-99130968D01*
X72747782Y-99131001D01*
X72746390Y-99131123D01*
X72744986Y-99131341D01*
X72743566Y-99131664D01*
X72742123Y-99132102D01*
X72740650Y-99132663D01*
X72739143Y-99133357D01*
X72737594Y-99134192D01*
X72735999Y-99135178D01*
X72734351Y-99136323D01*
X72732645Y-99137637D01*
X72730873Y-99139129D01*
X72729031Y-99140806D01*
X72725235Y-99144195D01*
X72721389Y-99147274D01*
X72717536Y-99150054D01*
X72713714Y-99152550D01*
X72709966Y-99154773D01*
X72706331Y-99156736D01*
X72702849Y-99158452D01*
X72699562Y-99159933D01*
X72696510Y-99161193D01*
X72693733Y-99162244D01*
X72689168Y-99163769D01*
X72685127Y-99164867D01*
X72685129Y-99164829D01*
X72685119Y-99164706D01*
X72685101Y-99164610D01*
X72685070Y-99164490D01*
X72685022Y-99164343D01*
X72684955Y-99164170D01*
X72684864Y-99163968D01*
X72684747Y-99163736D01*
X72684600Y-99163473D01*
X72684420Y-99163178D01*
X72684203Y-99162849D01*
X72683947Y-99162486D01*
X72683647Y-99162087D01*
X72683301Y-99161650D01*
X72682905Y-99161175D01*
X72682456Y-99160660D01*
X72681950Y-99160105D01*
X72681384Y-99159507D01*
X72680756Y-99158865D01*
X72680060Y-99158179D01*
X72679295Y-99157446D01*
X72678457Y-99156667D01*
X72677542Y-99155839D01*
X72676547Y-99154961D01*
X72675469Y-99154032D01*
X72674305Y-99153051D01*
X72673050Y-99152016D01*
X72671703Y-99150927D01*
X72670258Y-99149781D01*
X72668714Y-99148579D01*
X72663066Y-99144209D01*
X72658623Y-99140726D01*
X72654991Y-99137785D01*
X72651781Y-99135040D01*
X72648599Y-99132149D01*
X72645055Y-99128765D01*
X72640756Y-99124545D01*
X72635311Y-99119144D01*
X72632472Y-99116210D01*
X72630067Y-99113496D01*
X72628047Y-99110972D01*
X72626359Y-99108609D01*
X72624951Y-99106377D01*
X72623772Y-99104248D01*
X72622770Y-99102192D01*
X72621893Y-99100180D01*
X72620310Y-99096170D01*
X72619499Y-99094113D01*
X72618607Y-99091983D01*
X72617582Y-99089751D01*
X72616373Y-99087386D01*
X72614927Y-99084860D01*
X72613193Y-99082143D01*
X72611335Y-99079326D01*
X72609554Y-99076504D01*
X72607854Y-99073659D01*
X72606238Y-99070773D01*
X72604709Y-99067828D01*
X72603273Y-99064805D01*
X72601932Y-99061685D01*
X72600689Y-99058451D01*
X72599550Y-99055084D01*
X72598516Y-99051566D01*
X72597593Y-99047878D01*
X72596783Y-99044002D01*
X72596091Y-99039920D01*
X72595520Y-99035612D01*
X72595073Y-99031062D01*
X72594755Y-99026250D01*
X72594676Y-99023823D01*
X72594686Y-99021488D01*
X72594776Y-99019241D01*
X72594939Y-99017077D01*
X72595456Y-99012987D01*
X72596173Y-99009185D01*
X72597031Y-99005640D01*
X72597969Y-99002323D01*
X72599841Y-98996242D01*
X72600654Y-98993416D01*
X72601302Y-98990692D01*
X72601726Y-98988039D01*
X72601835Y-98986729D01*
X72601865Y-98985425D01*
X72601809Y-98984123D01*
X72601658Y-98982819D01*
X72601406Y-98981510D01*
X72601044Y-98980191D01*
X72600566Y-98978858D01*
X72599962Y-98977507D01*
X72599227Y-98976136D01*
X72598352Y-98974739D01*
X72597600Y-98973700D01*
X72596769Y-98972696D01*
X72595864Y-98971721D01*
X72594891Y-98970768D01*
X72592762Y-98968904D01*
X72590424Y-98967057D01*
X72585295Y-98963217D01*
X72582589Y-98961125D01*
X72579848Y-98958854D01*
X72577113Y-98956355D01*
X72575761Y-98955004D01*
X72574427Y-98953578D01*
X72573116Y-98952070D01*
X72571834Y-98950475D01*
X72570586Y-98948786D01*
X72569377Y-98946997D01*
X72568213Y-98945102D01*
X72567098Y-98943095D01*
X72566039Y-98940969D01*
X72565041Y-98938720D01*
X72564110Y-98936339D01*
X72563249Y-98933822D01*
X72562466Y-98931163D01*
X72561765Y-98928354D01*
X72561123Y-98923016D01*
X72560637Y-98918277D01*
X72560281Y-98914090D01*
X72560032Y-98910406D01*
X72559758Y-98904360D01*
X72559622Y-98899756D01*
X72559431Y-98896213D01*
X72559254Y-98894720D01*
X72558991Y-98893349D01*
X72558618Y-98892052D01*
X72558111Y-98890781D01*
X72557445Y-98889490D01*
X72556597Y-98888129D01*
X72556140Y-98887390D01*
X72555714Y-98886586D01*
X72554953Y-98884809D01*
X72554305Y-98882844D01*
X72553761Y-98880737D01*
X72553313Y-98878534D01*
X72552951Y-98876281D01*
X72552666Y-98874024D01*
X72552449Y-98871810D01*
X72552184Y-98867691D01*
X72552084Y-98864294D01*
X72552091Y-98861134D01*
X72548014Y-98855379D01*
X72543793Y-98848990D01*
X72541393Y-98845152D01*
X72538896Y-98840974D01*
X72536377Y-98836525D01*
X72533908Y-98831870D01*
X72531561Y-98827076D01*
X72529410Y-98822211D01*
X72527529Y-98817342D01*
X72526712Y-98814927D01*
X72525989Y-98812536D01*
X72525370Y-98810177D01*
X72524864Y-98807860D01*
X72524480Y-98805591D01*
X72524227Y-98803380D01*
X72524383Y-98799274D01*
X72524411Y-98795431D01*
X72524315Y-98791831D01*
X72524098Y-98788457D01*
X72523765Y-98785289D01*
X72523317Y-98782310D01*
X72522760Y-98779501D01*
X72522097Y-98776844D01*
X72521331Y-98774319D01*
X72520465Y-98771908D01*
X72519505Y-98769594D01*
X72518452Y-98767357D01*
X72517312Y-98765179D01*
X72516086Y-98763042D01*
X72514780Y-98760926D01*
X72513396Y-98758814D01*
X72514028Y-98757478D01*
X72514873Y-98755897D01*
X72516119Y-98753788D01*
X72517801Y-98751209D01*
X72519956Y-98748221D01*
X72522620Y-98744884D01*
X72524154Y-98743102D01*
X72525829Y-98741256D01*
X72527649Y-98739352D01*
X72529618Y-98737398D01*
X72531743Y-98735401D01*
X72534025Y-98733369D01*
X72536472Y-98731310D01*
X72539086Y-98729230D01*
X72541872Y-98727137D01*
X72544835Y-98725039D01*
X72547980Y-98722943D01*
X72551310Y-98720856D01*
X72554831Y-98718787D01*
X72558547Y-98716742D01*
X72562462Y-98714729D01*
X72566581Y-98712756D01*
X72570909Y-98710829D01*
X72575449Y-98708957D01*
X72577035Y-98706869D01*
X72578950Y-98704305D01*
X72581555Y-98700765D01*
X72584805Y-98696281D01*
X72588655Y-98690882D01*
X72593062Y-98684596D01*
X72597979Y-98677455D01*
X72601811Y-98675035D01*
X72606201Y-98672520D01*
X72616364Y-98667242D01*
X72627881Y-98661695D01*
X72640163Y-98655954D01*
X72652622Y-98650095D01*
X72664668Y-98644193D01*
X72670352Y-98641249D01*
X72675713Y-98638322D01*
X72680676Y-98635422D01*
X72685168Y-98632558D01*
X72693961Y-98626534D01*
X72703194Y-98620019D01*
X72721688Y-98606647D01*
X72738066Y-98594697D01*
X72744653Y-98589959D01*
X72749743Y-98586422D01*
X72752057Y-98584746D01*
X72754734Y-98582607D01*
X72760995Y-98577207D01*
X72775828Y-98563804D01*
X72783653Y-98556877D01*
X72787503Y-98553592D01*
X72791251Y-98550516D01*
X72794848Y-98547717D01*
X72798249Y-98545261D01*
X72801406Y-98543216D01*
X72804272Y-98541649D01*
X72805320Y-98541084D01*
X72806460Y-98540231D01*
X72807682Y-98539109D01*
X72808979Y-98537738D01*
X72811767Y-98534323D01*
X72814759Y-98530135D01*
X72817894Y-98525324D01*
X72821107Y-98520040D01*
X72824336Y-98514434D01*
X72827516Y-98508656D01*
X72833479Y-98497184D01*
X72838490Y-98486827D01*
X72842042Y-98478786D01*
X72843113Y-98476010D01*
X72843629Y-98474263D01*
X72844482Y-98473058D01*
X72845410Y-98471594D01*
X72847556Y-98468038D01*
X72848808Y-98466019D01*
X72850202Y-98463889D01*
X72851753Y-98461685D01*
X72853480Y-98459443D01*
X72855398Y-98457200D01*
X72856434Y-98456090D01*
X72857524Y-98454994D01*
X72858670Y-98453916D01*
X72859875Y-98452861D01*
X72861140Y-98451833D01*
X72862467Y-98450837D01*
X72863859Y-98449878D01*
X72865318Y-98448961D01*
X72866845Y-98448089D01*
X72868443Y-98447268D01*
X72870114Y-98446502D01*
X72871860Y-98445795D01*
X72873683Y-98445153D01*
X72875586Y-98444580D01*
X72902959Y-98434054D01*
X72911731Y-98430368D01*
X72916139Y-98428392D01*
X72920495Y-98426335D01*
X72924753Y-98424200D01*
X72928861Y-98421993D01*
X72932773Y-98419717D01*
X72936440Y-98417378D01*
X72940787Y-98415419D01*
X72945746Y-98412928D01*
X72957004Y-98406717D01*
X72969231Y-98399470D01*
X72981442Y-98391913D01*
X73001878Y-98378772D01*
X73010440Y-98373101D01*
X73014548Y-98361557D01*
X73019313Y-98349006D01*
X73025556Y-98333607D01*
X73029155Y-98325231D01*
X73033031Y-98316613D01*
X73037153Y-98307910D01*
X73041491Y-98299277D01*
X73046014Y-98290872D01*
X73050690Y-98282852D01*
X73055489Y-98275373D01*
X73060381Y-98268591D01*
X73069320Y-98256818D01*
X73076644Y-98246832D01*
X73087739Y-98231101D01*
X73092158Y-98224793D01*
X73096256Y-98219149D01*
X73100355Y-98213888D01*
X73104781Y-98208729D01*
X73112776Y-98199992D01*
X73114434Y-98198148D01*
X73116001Y-98196353D01*
X73117500Y-98194563D01*
X73118954Y-98192736D01*
X73120385Y-98190829D01*
X73121817Y-98188796D01*
X73123272Y-98186596D01*
X73124773Y-98184186D01*
X73126343Y-98181520D01*
X73128004Y-98178557D01*
X73129781Y-98175252D01*
X73131694Y-98171563D01*
X73132813Y-98171810D01*
X73135929Y-98172604D01*
X73138123Y-98173231D01*
X73140682Y-98174026D01*
X73143559Y-98174999D01*
X73146711Y-98176160D01*
X73150091Y-98177519D01*
X73153656Y-98179086D01*
X73157360Y-98180871D01*
X73161157Y-98182885D01*
X73165003Y-98185138D01*
X73166930Y-98186358D01*
X73168853Y-98187640D01*
X73170765Y-98188988D01*
X73172661Y-98190402D01*
X73174536Y-98191883D01*
X73176383Y-98193433D01*
X73185150Y-98189082D01*
X73195248Y-98184221D01*
X73208391Y-98178082D01*
X73224005Y-98171051D01*
X73241518Y-98163513D01*
X73250807Y-98159674D01*
X73260355Y-98155852D01*
X73270091Y-98152096D01*
X73279943Y-98148454D01*
X73319651Y-98136451D01*
X73357946Y-98125393D01*
X73375314Y-98120739D01*
X73390829Y-98116946D01*
X73403992Y-98114223D01*
X73409535Y-98113327D01*
X73414302Y-98112776D01*
X73418642Y-98112867D01*
X73423150Y-98112709D01*
X73427791Y-98112318D01*
X73432526Y-98111711D01*
X73437320Y-98110905D01*
X73442136Y-98109916D01*
X73446937Y-98108762D01*
X73451685Y-98107459D01*
X73456345Y-98106023D01*
X73460879Y-98104472D01*
X73465250Y-98102823D01*
X73469422Y-98101091D01*
X73473359Y-98099293D01*
X73477022Y-98097448D01*
X73480376Y-98095570D01*
X73483383Y-98093677D01*
X73488727Y-98094778D01*
G37*
X74407688Y-101735418D02*
X74443324Y-103876435D01*
X69717246Y-102957793D01*
X69712326Y-102599820D01*
X74044961Y-103442022D01*
X74008250Y-101657779D01*
X74407688Y-101735418D01*
G36*
X74407688Y-101735418D02*
G01*
X74443324Y-103876435D01*
X69717246Y-102957793D01*
X69712326Y-102599820D01*
X74044961Y-103442022D01*
X74008250Y-101657779D01*
X74407688Y-101735418D01*
G37*
X78392396Y-104082644D02*
X77989609Y-104004344D01*
X77899196Y-103706605D01*
X77347044Y-103599284D01*
X77259897Y-103862503D01*
X76902626Y-103793050D01*
X77076683Y-103315187D01*
X77435968Y-103315187D01*
X77808411Y-103387617D01*
X77617249Y-102752493D01*
X77435968Y-103315187D01*
X77076683Y-103315187D01*
X77437581Y-102324364D01*
X77833794Y-102401383D01*
X78161472Y-103387617D01*
X78392396Y-104082644D01*
G36*
X78392396Y-104082644D02*
G01*
X77989609Y-104004344D01*
X77899196Y-103706605D01*
X77347044Y-103599284D01*
X77259897Y-103862503D01*
X76902626Y-103793050D01*
X77076683Y-103315187D01*
X77435968Y-103315187D01*
X77808411Y-103387617D01*
X77617249Y-102752493D01*
X77435968Y-103315187D01*
X77076683Y-103315187D01*
X77437581Y-102324364D01*
X77833794Y-102401383D01*
X78161472Y-103387617D01*
X78392396Y-104082644D01*
G37*
X79407569Y-102707307D02*
X79439319Y-104847579D01*
X74658340Y-103918230D01*
X74652345Y-103560051D01*
X79005940Y-104406304D01*
X78969229Y-102622103D01*
X79407569Y-102707307D01*
G36*
X79407569Y-102707307D02*
G01*
X79439319Y-104847579D01*
X74658340Y-103918230D01*
X74652345Y-103560051D01*
X79005940Y-104406304D01*
X78969229Y-102622103D01*
X79407569Y-102707307D01*
G37*
M02*
