%TF.GenerationSoftware,KiCad,Pcbnew,7.0.5*%
%TF.CreationDate,2023-07-17T12:02:18+02:00*%
%TF.ProjectId,Small_Wall,536d616c-6c5f-4576-916c-6c2e6b696361,rev?*%
%TF.SameCoordinates,Original*%
%TF.FileFunction,Profile,NP*%
%FSLAX46Y46*%
G04 Gerber Fmt 4.6, Leading zero omitted, Abs format (unit mm)*
G04 Created by KiCad (PCBNEW 7.0.5) date 2023-07-17 12:02:18*
%MOMM*%
%LPD*%
G01*
G04 APERTURE LIST*
%TA.AperFunction,Profile*%
%ADD10C,0.100000*%
%TD*%
%ADD11C,0.150000*%
G04 APERTURE END LIST*
D10*
X97500000Y-110000000D02*
X102500000Y-110000000D01*
X37500000Y-110000000D02*
X42500000Y-110000000D01*
X102500000Y-111600000D02*
X102500000Y-110000000D01*
X82500000Y-111600000D02*
X82500000Y-110000000D01*
X107500000Y-110000000D02*
X112500000Y-110000000D01*
X87500000Y-111600000D02*
X87500000Y-110000000D01*
X20000000Y-110000000D02*
X20000000Y-97000000D01*
X72500000Y-111600000D02*
X72500000Y-110000000D01*
X82500000Y-111600000D02*
X87500000Y-111600000D01*
X37500000Y-111600000D02*
X37500000Y-110000000D01*
X130000000Y-97000000D02*
X130000000Y-110000000D01*
X112500000Y-111600000D02*
X117500000Y-111600000D01*
X47500000Y-111600000D02*
X47500000Y-110000000D01*
X67500000Y-110000000D02*
X72500000Y-110000000D01*
X42500000Y-111600000D02*
X42500000Y-110000000D01*
X77500000Y-110000000D02*
X82500000Y-110000000D01*
X97500000Y-111600000D02*
X97500000Y-110000000D01*
X32500000Y-111600000D02*
X37500000Y-111600000D01*
X67500000Y-111600000D02*
X67500000Y-110000000D01*
X47500000Y-110000000D02*
X52500000Y-110000000D01*
X112500000Y-111600000D02*
X112500000Y-110000000D01*
X57500000Y-110000000D02*
X62500000Y-110000000D01*
X117500000Y-111600000D02*
X117500000Y-110000000D01*
X87500000Y-110000000D02*
X92500000Y-110000000D01*
X20000000Y-110000000D02*
X32500000Y-110000000D01*
X77500000Y-111600000D02*
X77500000Y-110000000D01*
X32500000Y-111600000D02*
X32500000Y-110000000D01*
X92500000Y-111600000D02*
X97500000Y-111600000D01*
X102500000Y-111600000D02*
X107500000Y-111600000D01*
X62500000Y-111600000D02*
X62500000Y-110000000D01*
X107500000Y-111600000D02*
X107500000Y-110000000D01*
X52500000Y-111600000D02*
X57500000Y-111600000D01*
X72500000Y-111600000D02*
X77500000Y-111600000D01*
X62500000Y-111600000D02*
X67500000Y-111600000D01*
X69500000Y-105300000D02*
X80500000Y-105300000D01*
X80500000Y-107000000D01*
X69500000Y-107000000D01*
X69500000Y-105300000D01*
X57500000Y-111600000D02*
X57500000Y-110000000D01*
X42500000Y-111600000D02*
X47500000Y-111600000D01*
X20000000Y-97000000D02*
X130000000Y-97000000D01*
X117500000Y-110000000D02*
X130000000Y-110000000D01*
X92500000Y-111600000D02*
X92500000Y-110000000D01*
X52500000Y-111600000D02*
X52500000Y-110000000D01*
D11*
X70476190Y-121304819D02*
X69904762Y-121304819D01*
X70190476Y-121304819D02*
X70190476Y-120304819D01*
X70190476Y-120304819D02*
X70095238Y-120447676D01*
X70095238Y-120447676D02*
X70000000Y-120542914D01*
X70000000Y-120542914D02*
X69904762Y-120590533D01*
X71428571Y-121304819D02*
X70857143Y-121304819D01*
X71142857Y-121304819D02*
X71142857Y-120304819D01*
X71142857Y-120304819D02*
X71047619Y-120447676D01*
X71047619Y-120447676D02*
X70952381Y-120542914D01*
X70952381Y-120542914D02*
X70857143Y-120590533D01*
X72047619Y-120304819D02*
X72142857Y-120304819D01*
X72142857Y-120304819D02*
X72238095Y-120352438D01*
X72238095Y-120352438D02*
X72285714Y-120400057D01*
X72285714Y-120400057D02*
X72333333Y-120495295D01*
X72333333Y-120495295D02*
X72380952Y-120685771D01*
X72380952Y-120685771D02*
X72380952Y-120923866D01*
X72380952Y-120923866D02*
X72333333Y-121114342D01*
X72333333Y-121114342D02*
X72285714Y-121209580D01*
X72285714Y-121209580D02*
X72238095Y-121257200D01*
X72238095Y-121257200D02*
X72142857Y-121304819D01*
X72142857Y-121304819D02*
X72047619Y-121304819D01*
X72047619Y-121304819D02*
X71952381Y-121257200D01*
X71952381Y-121257200D02*
X71904762Y-121209580D01*
X71904762Y-121209580D02*
X71857143Y-121114342D01*
X71857143Y-121114342D02*
X71809524Y-120923866D01*
X71809524Y-120923866D02*
X71809524Y-120685771D01*
X71809524Y-120685771D02*
X71857143Y-120495295D01*
X71857143Y-120495295D02*
X71904762Y-120400057D01*
X71904762Y-120400057D02*
X71952381Y-120352438D01*
X71952381Y-120352438D02*
X72047619Y-120304819D01*
X72857143Y-121257200D02*
X72857143Y-121304819D01*
X72857143Y-121304819D02*
X72809524Y-121400057D01*
X72809524Y-121400057D02*
X72761905Y-121447676D01*
X73476190Y-120304819D02*
X73571428Y-120304819D01*
X73571428Y-120304819D02*
X73666666Y-120352438D01*
X73666666Y-120352438D02*
X73714285Y-120400057D01*
X73714285Y-120400057D02*
X73761904Y-120495295D01*
X73761904Y-120495295D02*
X73809523Y-120685771D01*
X73809523Y-120685771D02*
X73809523Y-120923866D01*
X73809523Y-120923866D02*
X73761904Y-121114342D01*
X73761904Y-121114342D02*
X73714285Y-121209580D01*
X73714285Y-121209580D02*
X73666666Y-121257200D01*
X73666666Y-121257200D02*
X73571428Y-121304819D01*
X73571428Y-121304819D02*
X73476190Y-121304819D01*
X73476190Y-121304819D02*
X73380952Y-121257200D01*
X73380952Y-121257200D02*
X73333333Y-121209580D01*
X73333333Y-121209580D02*
X73285714Y-121114342D01*
X73285714Y-121114342D02*
X73238095Y-120923866D01*
X73238095Y-120923866D02*
X73238095Y-120685771D01*
X73238095Y-120685771D02*
X73285714Y-120495295D01*
X73285714Y-120495295D02*
X73333333Y-120400057D01*
X73333333Y-120400057D02*
X73380952Y-120352438D01*
X73380952Y-120352438D02*
X73476190Y-120304819D01*
X74428571Y-120304819D02*
X74523809Y-120304819D01*
X74523809Y-120304819D02*
X74619047Y-120352438D01*
X74619047Y-120352438D02*
X74666666Y-120400057D01*
X74666666Y-120400057D02*
X74714285Y-120495295D01*
X74714285Y-120495295D02*
X74761904Y-120685771D01*
X74761904Y-120685771D02*
X74761904Y-120923866D01*
X74761904Y-120923866D02*
X74714285Y-121114342D01*
X74714285Y-121114342D02*
X74666666Y-121209580D01*
X74666666Y-121209580D02*
X74619047Y-121257200D01*
X74619047Y-121257200D02*
X74523809Y-121304819D01*
X74523809Y-121304819D02*
X74428571Y-121304819D01*
X74428571Y-121304819D02*
X74333333Y-121257200D01*
X74333333Y-121257200D02*
X74285714Y-121209580D01*
X74285714Y-121209580D02*
X74238095Y-121114342D01*
X74238095Y-121114342D02*
X74190476Y-120923866D01*
X74190476Y-120923866D02*
X74190476Y-120685771D01*
X74190476Y-120685771D02*
X74238095Y-120495295D01*
X74238095Y-120495295D02*
X74285714Y-120400057D01*
X74285714Y-120400057D02*
X74333333Y-120352438D01*
X74333333Y-120352438D02*
X74428571Y-120304819D01*
X75380952Y-120304819D02*
X75476190Y-120304819D01*
X75476190Y-120304819D02*
X75571428Y-120352438D01*
X75571428Y-120352438D02*
X75619047Y-120400057D01*
X75619047Y-120400057D02*
X75666666Y-120495295D01*
X75666666Y-120495295D02*
X75714285Y-120685771D01*
X75714285Y-120685771D02*
X75714285Y-120923866D01*
X75714285Y-120923866D02*
X75666666Y-121114342D01*
X75666666Y-121114342D02*
X75619047Y-121209580D01*
X75619047Y-121209580D02*
X75571428Y-121257200D01*
X75571428Y-121257200D02*
X75476190Y-121304819D01*
X75476190Y-121304819D02*
X75380952Y-121304819D01*
X75380952Y-121304819D02*
X75285714Y-121257200D01*
X75285714Y-121257200D02*
X75238095Y-121209580D01*
X75238095Y-121209580D02*
X75190476Y-121114342D01*
X75190476Y-121114342D02*
X75142857Y-120923866D01*
X75142857Y-120923866D02*
X75142857Y-120685771D01*
X75142857Y-120685771D02*
X75190476Y-120495295D01*
X75190476Y-120495295D02*
X75238095Y-120400057D01*
X75238095Y-120400057D02*
X75285714Y-120352438D01*
X75285714Y-120352438D02*
X75380952Y-120304819D01*
X76333333Y-120304819D02*
X76428571Y-120304819D01*
X76428571Y-120304819D02*
X76523809Y-120352438D01*
X76523809Y-120352438D02*
X76571428Y-120400057D01*
X76571428Y-120400057D02*
X76619047Y-120495295D01*
X76619047Y-120495295D02*
X76666666Y-120685771D01*
X76666666Y-120685771D02*
X76666666Y-120923866D01*
X76666666Y-120923866D02*
X76619047Y-121114342D01*
X76619047Y-121114342D02*
X76571428Y-121209580D01*
X76571428Y-121209580D02*
X76523809Y-121257200D01*
X76523809Y-121257200D02*
X76428571Y-121304819D01*
X76428571Y-121304819D02*
X76333333Y-121304819D01*
X76333333Y-121304819D02*
X76238095Y-121257200D01*
X76238095Y-121257200D02*
X76190476Y-121209580D01*
X76190476Y-121209580D02*
X76142857Y-121114342D01*
X76142857Y-121114342D02*
X76095238Y-120923866D01*
X76095238Y-120923866D02*
X76095238Y-120685771D01*
X76095238Y-120685771D02*
X76142857Y-120495295D01*
X76142857Y-120495295D02*
X76190476Y-120400057D01*
X76190476Y-120400057D02*
X76238095Y-120352438D01*
X76238095Y-120352438D02*
X76333333Y-120304819D01*
X77857143Y-121304819D02*
X77857143Y-120638152D01*
X77857143Y-120733390D02*
X77904762Y-120685771D01*
X77904762Y-120685771D02*
X78000000Y-120638152D01*
X78000000Y-120638152D02*
X78142857Y-120638152D01*
X78142857Y-120638152D02*
X78238095Y-120685771D01*
X78238095Y-120685771D02*
X78285714Y-120781009D01*
X78285714Y-120781009D02*
X78285714Y-121304819D01*
X78285714Y-120781009D02*
X78333333Y-120685771D01*
X78333333Y-120685771D02*
X78428571Y-120638152D01*
X78428571Y-120638152D02*
X78571428Y-120638152D01*
X78571428Y-120638152D02*
X78666667Y-120685771D01*
X78666667Y-120685771D02*
X78714286Y-120781009D01*
X78714286Y-120781009D02*
X78714286Y-121304819D01*
X79190476Y-121304819D02*
X79190476Y-120638152D01*
X79190476Y-120733390D02*
X79238095Y-120685771D01*
X79238095Y-120685771D02*
X79333333Y-120638152D01*
X79333333Y-120638152D02*
X79476190Y-120638152D01*
X79476190Y-120638152D02*
X79571428Y-120685771D01*
X79571428Y-120685771D02*
X79619047Y-120781009D01*
X79619047Y-120781009D02*
X79619047Y-121304819D01*
X79619047Y-120781009D02*
X79666666Y-120685771D01*
X79666666Y-120685771D02*
X79761904Y-120638152D01*
X79761904Y-120638152D02*
X79904761Y-120638152D01*
X79904761Y-120638152D02*
X80000000Y-120685771D01*
X80000000Y-120685771D02*
X80047619Y-120781009D01*
X80047619Y-120781009D02*
X80047619Y-121304819D01*
D10*
X20000000Y-110500000D02*
X20000000Y-122586420D01*
X130000000Y-110500000D02*
X130000000Y-122586420D01*
X20000000Y-122000000D02*
X130000000Y-122000000D01*
X20000000Y-122000000D02*
X130000000Y-122000000D01*
X20000000Y-122000000D02*
X21126504Y-121413579D01*
X20000000Y-122000000D02*
X21126504Y-122586421D01*
X130000000Y-122000000D02*
X128873496Y-122586421D01*
X130000000Y-122000000D02*
X128873496Y-121413579D01*
M02*
