%TF.GenerationSoftware,KiCad,Pcbnew,7.0.7*%
%TF.CreationDate,2023-11-13T09:37:15+01:00*%
%TF.ProjectId,Small,536d616c-6c2e-46b6-9963-61645f706362,rev?*%
%TF.SameCoordinates,Original*%
%TF.FileFunction,Copper,L2,Bot*%
%TF.FilePolarity,Positive*%
%FSLAX46Y46*%
G04 Gerber Fmt 4.6, Leading zero omitted, Abs format (unit mm)*
G04 Created by KiCad (PCBNEW 7.0.7) date 2023-11-13 09:37:15*
%MOMM*%
%LPD*%
G01*
G04 APERTURE LIST*
G04 Aperture macros list*
%AMRoundRect*
0 Rectangle with rounded corners*
0 $1 Rounding radius*
0 $2 $3 $4 $5 $6 $7 $8 $9 X,Y pos of 4 corners*
0 Add a 4 corners polygon primitive as box body*
4,1,4,$2,$3,$4,$5,$6,$7,$8,$9,$2,$3,0*
0 Add four circle primitives for the rounded corners*
1,1,$1+$1,$2,$3*
1,1,$1+$1,$4,$5*
1,1,$1+$1,$6,$7*
1,1,$1+$1,$8,$9*
0 Add four rect primitives between the rounded corners*
20,1,$1+$1,$2,$3,$4,$5,0*
20,1,$1+$1,$4,$5,$6,$7,0*
20,1,$1+$1,$6,$7,$8,$9,0*
20,1,$1+$1,$8,$9,$2,$3,0*%
%AMHorizOval*
0 Thick line with rounded ends*
0 $1 width*
0 $2 $3 position (X,Y) of the first rounded end (center of the circle)*
0 $4 $5 position (X,Y) of the second rounded end (center of the circle)*
0 Add line between two ends*
20,1,$1,$2,$3,$4,$5,0*
0 Add two circle primitives to create the rounded ends*
1,1,$1,$2,$3*
1,1,$1,$4,$5*%
%AMRotRect*
0 Rectangle, with rotation*
0 The origin of the aperture is its center*
0 $1 length*
0 $2 width*
0 $3 Rotation angle, in degrees counterclockwise*
0 Add horizontal line*
21,1,$1,$2,0,0,$3*%
G04 Aperture macros list end*
%TA.AperFunction,ComponentPad*%
%ADD10RoundRect,0.250000X0.600000X0.725000X-0.600000X0.725000X-0.600000X-0.725000X0.600000X-0.725000X0*%
%TD*%
%TA.AperFunction,ComponentPad*%
%ADD11O,1.700000X1.950000*%
%TD*%
%TA.AperFunction,ComponentPad*%
%ADD12R,1.700000X1.700000*%
%TD*%
%TA.AperFunction,ComponentPad*%
%ADD13O,1.700000X1.700000*%
%TD*%
%TA.AperFunction,ComponentPad*%
%ADD14RoundRect,0.250000X0.927868X-0.157115X0.327868X0.882115X-0.927868X0.157115X-0.327868X-0.882115X0*%
%TD*%
%TA.AperFunction,ComponentPad*%
%ADD15HorizOval,1.700000X0.108253X0.062500X-0.108253X-0.062500X0*%
%TD*%
%TA.AperFunction,ComponentPad*%
%ADD16R,1.600000X1.600000*%
%TD*%
%TA.AperFunction,ComponentPad*%
%ADD17C,1.600000*%
%TD*%
%TA.AperFunction,ComponentPad*%
%ADD18RoundRect,0.250000X-0.927868X0.157115X-0.327868X-0.882115X0.927868X-0.157115X0.327868X0.882115X0*%
%TD*%
%TA.AperFunction,ComponentPad*%
%ADD19HorizOval,1.700000X-0.108253X-0.062500X0.108253X0.062500X0*%
%TD*%
%TA.AperFunction,ComponentPad*%
%ADD20RoundRect,0.250000X-0.327868X0.882115X-0.927868X-0.157115X0.327868X-0.882115X0.927868X0.157115X0*%
%TD*%
%TA.AperFunction,ComponentPad*%
%ADD21HorizOval,1.700000X-0.108253X0.062500X0.108253X-0.062500X0*%
%TD*%
%TA.AperFunction,ComponentPad*%
%ADD22RotRect,1.700000X1.700000X210.000000*%
%TD*%
%TA.AperFunction,ComponentPad*%
%ADD23HorizOval,1.700000X0.000000X0.000000X0.000000X0.000000X0*%
%TD*%
%TA.AperFunction,ComponentPad*%
%ADD24RotRect,1.600000X1.600000X60.000000*%
%TD*%
%TA.AperFunction,ComponentPad*%
%ADD25C,4.700000*%
%TD*%
%TA.AperFunction,ComponentPad*%
%ADD26RoundRect,0.250000X-0.600000X-0.725000X0.600000X-0.725000X0.600000X0.725000X-0.600000X0.725000X0*%
%TD*%
%TA.AperFunction,ComponentPad*%
%ADD27RoundRect,0.250000X0.327868X-0.882115X0.927868X0.157115X-0.327868X0.882115X-0.927868X-0.157115X0*%
%TD*%
%TA.AperFunction,ComponentPad*%
%ADD28RotRect,1.600000X1.600000X300.000000*%
%TD*%
%TA.AperFunction,ComponentPad*%
%ADD29RotRect,1.700000X1.700000X330.000000*%
%TD*%
%TA.AperFunction,ComponentPad*%
%ADD30HorizOval,1.700000X0.000000X0.000000X0.000000X0.000000X0*%
%TD*%
%TA.AperFunction,SMDPad,CuDef*%
%ADD31RoundRect,0.250000X-0.056458X-0.552211X0.506458X-0.227211X0.056458X0.552211X-0.506458X0.227211X0*%
%TD*%
%TA.AperFunction,SMDPad,CuDef*%
%ADD32RoundRect,0.250000X-0.475000X0.337500X-0.475000X-0.337500X0.475000X-0.337500X0.475000X0.337500X0*%
%TD*%
%TA.AperFunction,SMDPad,CuDef*%
%ADD33RoundRect,0.250000X0.337500X0.475000X-0.337500X0.475000X-0.337500X-0.475000X0.337500X-0.475000X0*%
%TD*%
%TA.AperFunction,SMDPad,CuDef*%
%ADD34RoundRect,0.250000X0.506458X0.227211X-0.056458X0.552211X-0.506458X-0.227211X0.056458X-0.552211X0*%
%TD*%
%TA.AperFunction,ConnectorPad*%
%ADD35C,0.787400*%
%TD*%
%TA.AperFunction,SMDPad,CuDef*%
%ADD36R,0.900000X0.800000*%
%TD*%
%TA.AperFunction,SMDPad,CuDef*%
%ADD37RoundRect,0.250000X0.350000X0.450000X-0.350000X0.450000X-0.350000X-0.450000X0.350000X-0.450000X0*%
%TD*%
%TA.AperFunction,SMDPad,CuDef*%
%ADD38RoundRect,0.250000X-0.450000X0.325000X-0.450000X-0.325000X0.450000X-0.325000X0.450000X0.325000X0*%
%TD*%
%TA.AperFunction,ViaPad*%
%ADD39C,0.800000*%
%TD*%
%TA.AperFunction,Conductor*%
%ADD40C,1.000000*%
%TD*%
%TA.AperFunction,Conductor*%
%ADD41C,0.150000*%
%TD*%
%TA.AperFunction,Conductor*%
%ADD42C,0.250000*%
%TD*%
G04 APERTURE END LIST*
D10*
%TO.P,J14,1,Pin_1*%
%TO.N,+5V*%
X51000000Y-112200000D03*
D11*
%TO.P,J14,2,Pin_2*%
%TO.N,Net-(J14-Pin_2)*%
X48500000Y-112200000D03*
%TO.P,J14,3,Pin_3*%
%TO.N,GND*%
X46000000Y-112200000D03*
%TD*%
D12*
%TO.P,J9,1,Pin_1*%
%TO.N,+5V*%
X99975000Y-116875000D03*
D13*
%TO.P,J9,2,Pin_2*%
%TO.N,Net-(J10-Pin_2)*%
X102515000Y-116875000D03*
%TO.P,J9,3,Pin_3*%
%TO.N,GND*%
X105055000Y-116875000D03*
%TD*%
D14*
%TO.P,J4,1,Pin_1*%
%TO.N,VDD*%
X88983166Y-84571833D03*
D15*
%TO.P,J4,2,Pin_2*%
%TO.N,/UART_2_TX*%
X87733166Y-82406769D03*
%TO.P,J4,3,Pin_3*%
%TO.N,/UART_2_RX*%
X86483166Y-80241706D03*
%TO.P,J4,4,Pin_4*%
%TO.N,GND*%
X85233166Y-78076642D03*
%TD*%
D16*
%TO.P,C8,1*%
%TO.N,VDD*%
X65190000Y-102192400D03*
D17*
%TO.P,C8,2*%
%TO.N,GND*%
X61690000Y-102192400D03*
%TD*%
D18*
%TO.P,J16,1,Pin_1*%
%TO.N,+5V*%
X107700000Y-96869873D03*
D19*
%TO.P,J16,2,Pin_2*%
%TO.N,Net-(J10-Pin_2)*%
X108950000Y-99034937D03*
%TO.P,J16,3,Pin_3*%
%TO.N,GND*%
X110200000Y-101200000D03*
%TD*%
D20*
%TO.P,J7,1,Pin_1*%
%TO.N,VDD*%
X64826833Y-77972720D03*
D21*
%TO.P,J7,2,Pin_2*%
%TO.N,/UART_3_TX*%
X63576833Y-80137784D03*
%TO.P,J7,3,Pin_3*%
%TO.N,/UART_3_RX*%
X62326833Y-82302847D03*
%TO.P,J7,4,Pin_4*%
%TO.N,GND*%
X61076833Y-84467911D03*
%TD*%
D22*
%TO.P,J10,1,Pin_1*%
%TO.N,+5V*%
X114806171Y-99933452D03*
D23*
%TO.P,J10,2,Pin_2*%
%TO.N,Net-(J10-Pin_2)*%
X113536171Y-97733747D03*
%TO.P,J10,3,Pin_3*%
%TO.N,GND*%
X112266171Y-95534043D03*
%TD*%
D24*
%TO.P,C11,1*%
%TO.N,VDD*%
X67826833Y-72776567D03*
D17*
%TO.P,C11,2*%
%TO.N,GND*%
X69576833Y-69745478D03*
%TD*%
D25*
%TO.P,H1,1,1*%
%TO.N,GND*%
X121339746Y-115000000D03*
%TD*%
D26*
%TO.P,J2,1,Pin_1*%
%TO.N,VDD*%
X71190000Y-102192400D03*
D11*
%TO.P,J2,2,Pin_2*%
%TO.N,/UART_1_TX*%
X73690000Y-102192400D03*
%TO.P,J2,3,Pin_3*%
%TO.N,/UART_1_RX*%
X76190000Y-102192400D03*
%TO.P,J2,4,Pin_4*%
%TO.N,GND*%
X78690000Y-102192400D03*
%TD*%
D12*
%TO.P,J8,1,Pin_1*%
%TO.N,+5V*%
X44975000Y-116875000D03*
D13*
%TO.P,J8,2,Pin_2*%
%TO.N,Net-(J14-Pin_2)*%
X47515000Y-116875000D03*
%TO.P,J8,3,Pin_3*%
%TO.N,GND*%
X50055000Y-116875000D03*
%TD*%
D18*
%TO.P,J17,1,Pin_1*%
%TO.N,+5V*%
X84550000Y-57034936D03*
D19*
%TO.P,J17,2,Pin_2*%
%TO.N,Net-(J11-Pin_2)*%
X85800000Y-59200000D03*
%TO.P,J17,3,Pin_3*%
%TO.N,GND*%
X87050000Y-61365063D03*
%TD*%
D27*
%TO.P,J18,1,Pin_1*%
%TO.N,+5V*%
X63150000Y-60965064D03*
D21*
%TO.P,J18,2,Pin_2*%
%TO.N,Net-(J11-Pin_2)*%
X64400000Y-58800000D03*
%TO.P,J18,3,Pin_3*%
%TO.N,GND*%
X65650000Y-56634937D03*
%TD*%
D28*
%TO.P,C1,1*%
%TO.N,VDD*%
X91983166Y-89767986D03*
D17*
%TO.P,C1,2*%
%TO.N,GND*%
X93733166Y-92799075D03*
%TD*%
D25*
%TO.P,H3,1,1*%
%TO.N,GND*%
X75000000Y-34737078D03*
%TD*%
D22*
%TO.P,J11,1,Pin_1*%
%TO.N,+5V*%
X87306171Y-52301927D03*
D23*
%TO.P,J11,2,Pin_2*%
%TO.N,Net-(J11-Pin_2)*%
X86036171Y-50102222D03*
%TO.P,J11,3,Pin_3*%
%TO.N,GND*%
X84766171Y-47902518D03*
%TD*%
D25*
%TO.P,H2,1,1*%
%TO.N,GND*%
X28660215Y-115000000D03*
%TD*%
D29*
%TO.P,J13,1,Pin_1*%
%TO.N,+5V*%
X37718829Y-95560024D03*
D30*
%TO.P,J13,2,Pin_2*%
%TO.N,Net-(J13-Pin_2)*%
X36448829Y-97759729D03*
%TO.P,J13,3,Pin_3*%
%TO.N,GND*%
X35178829Y-99959433D03*
%TD*%
D10*
%TO.P,J15,1,Pin_1*%
%TO.N,+5V*%
X105200000Y-112200000D03*
D11*
%TO.P,J15,2,Pin_2*%
%TO.N,Net-(J10-Pin_2)*%
X102700000Y-112200000D03*
%TO.P,J15,3,Pin_3*%
%TO.N,GND*%
X100200000Y-112200000D03*
%TD*%
D29*
%TO.P,J12,1,Pin_1*%
%TO.N,+5V*%
X65218830Y-47928499D03*
D30*
%TO.P,J12,2,Pin_2*%
%TO.N,Net-(J11-Pin_2)*%
X63948830Y-50128204D03*
%TO.P,J12,3,Pin_3*%
%TO.N,GND*%
X62678830Y-52327908D03*
%TD*%
D27*
%TO.P,J19,1,Pin_1*%
%TO.N,+5V*%
X39800000Y-101200000D03*
D21*
%TO.P,J19,2,Pin_2*%
%TO.N,Net-(J13-Pin_2)*%
X41050000Y-99034936D03*
%TO.P,J19,3,Pin_3*%
%TO.N,GND*%
X42300000Y-96869873D03*
%TD*%
D31*
%TO.P,D3,1,K*%
%TO.N,Net-(D3-K)*%
X99097983Y-75776008D03*
%TO.P,D3,2,A*%
%TO.N,Net-(D3-A)*%
X100873335Y-74751008D03*
%TD*%
D32*
%TO.P,C16,1*%
%TO.N,GND*%
X77300000Y-88425000D03*
%TO.P,C16,2*%
%TO.N,Net-(C16-Pad2)*%
X77300000Y-90500000D03*
%TD*%
D33*
%TO.P,C12,1*%
%TO.N,GND*%
X75975000Y-86600000D03*
%TO.P,C12,2*%
%TO.N,/OSC_IN*%
X73900000Y-86600000D03*
%TD*%
D34*
%TO.P,D5,1,K*%
%TO.N,Net-(D5-K)*%
X52152017Y-73610945D03*
%TO.P,D5,2,A*%
%TO.N,Net-(D5-A)*%
X50376665Y-72585945D03*
%TD*%
D35*
%TO.P,J27,1,Pin_1*%
%TO.N,+3V3*%
X75635000Y-44570000D03*
%TO.P,J27,2,Pin_2*%
%TO.N,/SWDIO*%
X74365000Y-44570000D03*
%TO.P,J27,3,Pin_3*%
%TO.N,/NRST*%
X75635000Y-45840000D03*
%TO.P,J27,4,Pin_4*%
%TO.N,/SWDCLK*%
X74365000Y-45840000D03*
%TO.P,J27,5,Pin_5*%
%TO.N,GND*%
X75635000Y-47110000D03*
%TO.P,J27,6,Pin_6*%
%TO.N,unconnected-(J27-Pin_6-Pad6)*%
X74365000Y-47110000D03*
%TD*%
D36*
%TO.P,Y1,1,1*%
%TO.N,Net-(C16-Pad2)*%
X75600000Y-89500000D03*
%TO.P,Y1,2,2*%
%TO.N,GND*%
X74200000Y-89500000D03*
%TO.P,Y1,3,3*%
%TO.N,/OSC_IN*%
X74200000Y-88400000D03*
%TO.P,Y1,4,4*%
%TO.N,GND*%
X75600000Y-88400000D03*
%TD*%
D37*
%TO.P,R15,1*%
%TO.N,Net-(C16-Pad2)*%
X75400000Y-91250000D03*
%TO.P,R15,2*%
%TO.N,/OSC_OUT*%
X73400000Y-91250000D03*
%TD*%
D31*
%TO.P,D4,1,K*%
%TO.N,Net-(D4-K)*%
X97847983Y-73610943D03*
%TO.P,D4,2,A*%
%TO.N,Net-(D4-A)*%
X99623335Y-72585943D03*
%TD*%
D34*
%TO.P,D6,1,K*%
%TO.N,Net-(D6-K)*%
X50902017Y-75776008D03*
%TO.P,D6,2,A*%
%TO.N,Net-(D6-A)*%
X49126665Y-74751008D03*
%TD*%
D38*
%TO.P,D2,1,K*%
%TO.N,Net-(D2-K)*%
X76250000Y-115350000D03*
%TO.P,D2,2,A*%
%TO.N,Net-(D2-A)*%
X76250000Y-117400000D03*
%TD*%
%TO.P,D1,1,K*%
%TO.N,Net-(D1-K)*%
X73750000Y-115350000D03*
%TO.P,D1,2,A*%
%TO.N,Net-(D1-A)*%
X73750000Y-117400000D03*
%TD*%
D39*
%TO.N,GND*%
X74300000Y-80400000D03*
X100800000Y-80400000D03*
X105500000Y-99200000D03*
X100400000Y-103000000D03*
X51800000Y-95600000D03*
X79000000Y-46400000D03*
X82500000Y-52300000D03*
X74800000Y-53600000D03*
X98400000Y-118600000D03*
X36400000Y-93900000D03*
X86800000Y-89700000D03*
X93600000Y-114000000D03*
X96200000Y-115800000D03*
X68100000Y-93500000D03*
X85100000Y-64700000D03*
X88100000Y-100500000D03*
X108700000Y-86300000D03*
X88400000Y-50400000D03*
X87500000Y-54900000D03*
X57400000Y-60600000D03*
X95300000Y-103200000D03*
X89900000Y-101600000D03*
X67700000Y-90037500D03*
X45000000Y-102800000D03*
X74800000Y-41400000D03*
X105500000Y-86700000D03*
X79275500Y-52800000D03*
%TO.N,+5V*%
X107437316Y-88400000D03*
X61200000Y-64000000D03*
X50300000Y-92000000D03*
X59700000Y-116600000D03*
X57000000Y-101600000D03*
X84900000Y-68000000D03*
X89429166Y-107100000D03*
%TO.N,+3V3*%
X56873927Y-97900000D03*
X47900000Y-103200000D03*
X77100000Y-44400000D03*
X65000000Y-87500000D03*
%TO.N,/OSC_IN*%
X72400000Y-86900000D03*
%TO.N,/NRST*%
X75900000Y-81200000D03*
X76000000Y-62500000D03*
X71900000Y-90200000D03*
X75900000Y-76400000D03*
X79100000Y-59600000D03*
%TO.N,Net-(D1-K)*%
X68275500Y-116300000D03*
%TO.N,Net-(D1-A)*%
X68000000Y-117700000D03*
%TO.N,Net-(D2-K)*%
X80900000Y-110400000D03*
%TO.N,Net-(D2-A)*%
X81800000Y-109500000D03*
%TO.N,Net-(D3-K)*%
X103275500Y-78550535D03*
%TO.N,Net-(D3-A)*%
X103613042Y-77509609D03*
%TO.N,Net-(D4-K)*%
X90100000Y-71200000D03*
%TO.N,Net-(D4-A)*%
X92000000Y-70475500D03*
%TO.N,Net-(D5-K)*%
X53800000Y-68800000D03*
%TO.N,Net-(D5-A)*%
X53000000Y-67800000D03*
%TO.N,Net-(D6-K)*%
X52200000Y-82900000D03*
%TO.N,Net-(D6-A)*%
X50000000Y-81000000D03*
%TO.N,/SWDIO*%
X79199500Y-54900000D03*
X75600000Y-52600000D03*
%TO.N,/SWDCLK*%
X77300000Y-52200000D03*
%TO.N,Net-(U1-FB)*%
X98026994Y-104651592D03*
X93977569Y-106422431D03*
%TO.N,/OSC_OUT*%
X72900000Y-89400000D03*
%TO.N,/LED_RET*%
X53200000Y-98700000D03*
X49400000Y-100800000D03*
X74200000Y-95200000D03*
X70900000Y-95300000D03*
%TO.N,/LED_SIG*%
X52300000Y-105400000D03*
X74200000Y-96300000D03*
X55700000Y-103400000D03*
X70900000Y-96300000D03*
%TD*%
D40*
%TO.N,VDD*%
X91983166Y-89767986D02*
X65190000Y-102192400D01*
X65190000Y-102192400D02*
X67826833Y-72776567D01*
X67826833Y-72776567D02*
X91983166Y-89767986D01*
D41*
%TO.N,GND*%
X79275500Y-50193725D02*
X79275500Y-52800000D01*
X68100000Y-90437500D02*
X67700000Y-90037500D01*
D40*
X94533165Y-91999076D02*
X94533165Y-85768613D01*
X93733166Y-92799075D02*
X94533165Y-91999076D01*
D42*
X75975000Y-88025000D02*
X75600000Y-88400000D01*
X75975000Y-86600000D02*
X75975000Y-88025000D01*
D41*
X72692462Y-93500000D02*
X68100000Y-93500000D01*
D40*
X63365000Y-103867400D02*
X77015000Y-103867400D01*
D42*
X77300000Y-88425000D02*
X75625000Y-88425000D01*
D40*
X94533165Y-85768613D02*
X86841194Y-78076642D01*
D41*
X76191775Y-47110000D02*
X79275500Y-50193725D01*
X75635000Y-47110000D02*
X76191775Y-47110000D01*
X74200000Y-89500000D02*
X74275000Y-89575000D01*
X74275000Y-89575000D02*
X74275000Y-91917462D01*
D40*
X93733166Y-92799075D02*
X84339841Y-102192400D01*
D41*
X68100000Y-93500000D02*
X68100000Y-90437500D01*
D40*
X84339841Y-102192400D02*
X78690000Y-102192400D01*
X77015000Y-103867400D02*
X78690000Y-102192400D01*
D41*
X74275000Y-91917462D02*
X72692462Y-93500000D01*
D42*
X75625000Y-88425000D02*
X75600000Y-88400000D01*
D40*
X61690000Y-102192400D02*
X63365000Y-103867400D01*
X86841194Y-78076642D02*
X85233166Y-78076642D01*
%TO.N,+5V*%
X84550000Y-57034936D02*
X84028392Y-57556544D01*
X86900000Y-63738155D02*
X86900000Y-66000000D01*
X84028392Y-57556544D02*
X84028392Y-60866547D01*
X86900000Y-66000000D02*
X84900000Y-68000000D01*
X99204166Y-116875000D02*
X89429166Y-107100000D01*
X49800000Y-91500000D02*
X50300000Y-92000000D01*
X48600000Y-114600000D02*
X46000000Y-114600000D01*
X62300000Y-107100000D02*
X59700000Y-109700000D01*
X62200000Y-64000000D02*
X63917276Y-65717276D01*
X84550000Y-57034936D02*
X84550000Y-55058098D01*
X39800000Y-101200000D02*
X38341072Y-99741072D01*
X67000000Y-49709669D02*
X65218830Y-47928499D01*
X57000000Y-109600000D02*
X59600000Y-109600000D01*
X99975000Y-116875000D02*
X99204166Y-116875000D01*
X51000000Y-112200000D02*
X48600000Y-114600000D01*
X38341072Y-96182267D02*
X37718829Y-95560024D01*
X84550000Y-55058098D02*
X87306171Y-52301927D01*
X62628392Y-55771608D02*
X67000000Y-51400000D01*
X105300000Y-88400000D02*
X107437316Y-88400000D01*
X53600000Y-109600000D02*
X51000000Y-112200000D01*
X110079576Y-97641421D02*
X110404903Y-98204903D01*
X81100000Y-43100000D02*
X81100000Y-53584936D01*
X99975000Y-116875000D02*
X99975000Y-116025000D01*
X59600000Y-109600000D02*
X59700000Y-109700000D01*
X107700000Y-96869873D02*
X109308028Y-96869873D01*
X81100000Y-53584936D02*
X84550000Y-57034936D01*
X63150000Y-60965064D02*
X62628392Y-60443456D01*
X67000000Y-51400000D02*
X67000000Y-49709669D01*
X46000000Y-114600000D02*
X44975000Y-115625000D01*
X57000000Y-101600000D02*
X57000000Y-109600000D01*
X44975000Y-115625000D02*
X44975000Y-116875000D01*
X84028392Y-60866547D02*
X86900000Y-63738155D01*
X110404903Y-98204903D02*
X112133452Y-99933452D01*
X63917276Y-65717276D02*
X63917276Y-73882724D01*
X61200000Y-62915064D02*
X63150000Y-60965064D01*
X59700000Y-116600000D02*
X59700000Y-109700000D01*
X77400000Y-39400000D02*
X81100000Y-43100000D01*
X61200000Y-64000000D02*
X61200000Y-62915064D01*
X99975000Y-116025000D02*
X102125000Y-113875000D01*
X49800000Y-88000000D02*
X49800000Y-91500000D01*
X109308028Y-96869873D02*
X110079576Y-97641421D01*
X62628392Y-60443456D02*
X62628392Y-55771608D01*
X57000000Y-109600000D02*
X53600000Y-109600000D01*
X112133452Y-99933452D02*
X114806171Y-99933452D01*
X84900000Y-68000000D02*
X105300000Y-88400000D01*
X103525000Y-113875000D02*
X105200000Y-112200000D01*
X38341072Y-99741072D02*
X38341072Y-96182267D01*
X73747329Y-39400000D02*
X77400000Y-39400000D01*
X61200000Y-64000000D02*
X62200000Y-64000000D01*
X102125000Y-113875000D02*
X103525000Y-113875000D01*
X63917276Y-73882724D02*
X49800000Y-88000000D01*
X89429166Y-107100000D02*
X62300000Y-107100000D01*
X65218830Y-47928499D02*
X73747329Y-39400000D01*
%TO.N,+3V3*%
X51573927Y-103200000D02*
X47900000Y-103200000D01*
X56873927Y-95626073D02*
X65000000Y-87500000D01*
X56873927Y-97900000D02*
X51573927Y-103200000D01*
X56873927Y-97900000D02*
X56873927Y-95626073D01*
D42*
X77100000Y-44400000D02*
X75805000Y-44400000D01*
X75805000Y-44400000D02*
X75635000Y-44570000D01*
D40*
%TO.N,/OSC_IN*%
X74200000Y-88400000D02*
X73900000Y-86600000D01*
D42*
X73600000Y-86900000D02*
X73900000Y-86600000D01*
X72400000Y-86900000D02*
X73600000Y-86900000D01*
%TO.N,/NRST*%
X80000000Y-58700000D02*
X79100000Y-59600000D01*
X76000000Y-62500000D02*
X76000000Y-62700000D01*
X75900000Y-81200000D02*
X71675000Y-85425000D01*
X75635000Y-45840000D02*
X80000000Y-50205000D01*
X71675000Y-89975000D02*
X71900000Y-90200000D01*
X76000000Y-62700000D02*
X76000000Y-76300000D01*
X76000000Y-76300000D02*
X75900000Y-76400000D01*
X80000000Y-50205000D02*
X80000000Y-58700000D01*
X71675000Y-85425000D02*
X71675000Y-89975000D01*
%TO.N,Net-(C16-Pad2)*%
X76300000Y-89500000D02*
X77300000Y-90500000D01*
X75600000Y-89500000D02*
X75600000Y-91050000D01*
X75600000Y-91050000D02*
X75400000Y-91250000D01*
X75600000Y-89500000D02*
X76300000Y-89500000D01*
%TO.N,Net-(D1-K)*%
X68275500Y-116300000D02*
X72800000Y-116300000D01*
X72800000Y-116300000D02*
X73750000Y-115350000D01*
%TO.N,Net-(D1-A)*%
X68000000Y-117700000D02*
X73450000Y-117700000D01*
X73450000Y-117700000D02*
X73750000Y-117400000D01*
%TO.N,Net-(D2-K)*%
X80900000Y-110400000D02*
X80900000Y-110700000D01*
X80900000Y-110700000D02*
X76250000Y-115350000D01*
%TO.N,Net-(D2-A)*%
X76250000Y-117400000D02*
X81800000Y-111850000D01*
X81800000Y-111850000D02*
X81800000Y-109500000D01*
%TO.N,Net-(D3-K)*%
X100624965Y-75900000D02*
X99221975Y-75900000D01*
X99221975Y-75900000D02*
X99097983Y-75776008D01*
X103275500Y-78550535D02*
X100624965Y-75900000D01*
%TO.N,Net-(D3-A)*%
X103613042Y-77490715D02*
X100873335Y-74751008D01*
X103613042Y-77509609D02*
X103613042Y-77490715D01*
%TO.N,Net-(D4-K)*%
X90100000Y-71200000D02*
X95437040Y-71200000D01*
X95437040Y-71200000D02*
X97847983Y-73610943D01*
%TO.N,Net-(D4-A)*%
X92000000Y-70475500D02*
X97512892Y-70475500D01*
X97512892Y-70475500D02*
X99623335Y-72585943D01*
%TO.N,Net-(D5-K)*%
X52152017Y-70447983D02*
X53800000Y-68800000D01*
X52152017Y-73610945D02*
X52152017Y-70447983D01*
%TO.N,Net-(D5-A)*%
X50376665Y-70423335D02*
X50376665Y-72585945D01*
X53000000Y-67800000D02*
X50376665Y-70423335D01*
%TO.N,Net-(D6-K)*%
X50902017Y-81602017D02*
X50902017Y-75776008D01*
X52200000Y-82900000D02*
X50902017Y-81602017D01*
%TO.N,Net-(D6-A)*%
X50000000Y-81000000D02*
X49126665Y-80126665D01*
X49126665Y-80126665D02*
X49126665Y-74751008D01*
%TO.N,/SWDIO*%
X74863604Y-52600000D02*
X72663700Y-50400096D01*
X75600000Y-52600000D02*
X74863604Y-52600000D01*
X72663700Y-50400096D02*
X72663700Y-46271300D01*
X77900000Y-54900000D02*
X79199500Y-54900000D01*
X72663700Y-46271300D02*
X74365000Y-44570000D01*
X75600000Y-52600000D02*
X77900000Y-54900000D01*
%TO.N,/SWDCLK*%
X73113700Y-50213700D02*
X73113700Y-47091300D01*
X73113700Y-47091300D02*
X74365000Y-45840000D01*
X76450000Y-51350000D02*
X74250000Y-51350000D01*
X77300000Y-52200000D02*
X76450000Y-51350000D01*
X73113700Y-50213700D02*
X74250000Y-51350000D01*
D40*
%TO.N,Net-(J10-Pin_2)*%
X101300000Y-106684937D02*
X108950000Y-99034937D01*
X102700000Y-112200000D02*
X101300000Y-110800000D01*
X101300000Y-110800000D02*
X101300000Y-106684937D01*
D41*
%TO.N,Net-(U1-FB)*%
X98026994Y-104651592D02*
X95748408Y-104651592D01*
X95748408Y-104651592D02*
X93977569Y-106422431D01*
D42*
%TO.N,/OSC_OUT*%
X72900000Y-89400000D02*
X72900000Y-90750000D01*
X72900000Y-90750000D02*
X73400000Y-91250000D01*
%TO.N,/LED_RET*%
X51500000Y-98700000D02*
X49400000Y-100800000D01*
X74100000Y-95300000D02*
X74200000Y-95200000D01*
X53200000Y-98700000D02*
X51500000Y-98700000D01*
X70900000Y-95300000D02*
X74100000Y-95300000D01*
%TO.N,/LED_SIG*%
X54300000Y-103400000D02*
X52300000Y-105400000D01*
X74200000Y-96300000D02*
X70900000Y-96300000D01*
X55700000Y-103400000D02*
X54300000Y-103400000D01*
%TD*%
%TA.AperFunction,Conductor*%
%TO.N,GND*%
G36*
X68844285Y-74715454D02*
G01*
X82053656Y-84006845D01*
X89814493Y-89465771D01*
X89858001Y-89520441D01*
X89865046Y-89589955D01*
X89833391Y-89652242D01*
X89795318Y-89679688D01*
X75281625Y-96409916D01*
X75212525Y-96420260D01*
X75148802Y-96391605D01*
X75110688Y-96333047D01*
X75106776Y-96306395D01*
X75106139Y-96306463D01*
X75105460Y-96299999D01*
X75085674Y-96111744D01*
X75027179Y-95931716D01*
X74958060Y-95811999D01*
X74941588Y-95744100D01*
X74958061Y-95688000D01*
X74969448Y-95668277D01*
X75027179Y-95568284D01*
X75085674Y-95388256D01*
X75105460Y-95200000D01*
X75085674Y-95011744D01*
X75027179Y-94831716D01*
X74932533Y-94667784D01*
X74805871Y-94527112D01*
X74790369Y-94515849D01*
X74652734Y-94415851D01*
X74652729Y-94415848D01*
X74479807Y-94338857D01*
X74479802Y-94338855D01*
X74334001Y-94307865D01*
X74294646Y-94299500D01*
X74105354Y-94299500D01*
X74072897Y-94306398D01*
X73920197Y-94338855D01*
X73920192Y-94338857D01*
X73747270Y-94415848D01*
X73747265Y-94415851D01*
X73594129Y-94527111D01*
X73519047Y-94610498D01*
X73504089Y-94627112D01*
X73498362Y-94633472D01*
X73438875Y-94670121D01*
X73406212Y-94674500D01*
X71603748Y-94674500D01*
X71536709Y-94654815D01*
X71511600Y-94633474D01*
X71505873Y-94627114D01*
X71505869Y-94627110D01*
X71352734Y-94515851D01*
X71352729Y-94515848D01*
X71179807Y-94438857D01*
X71179802Y-94438855D01*
X71034000Y-94407865D01*
X70994646Y-94399500D01*
X70805354Y-94399500D01*
X70772897Y-94406398D01*
X70620197Y-94438855D01*
X70620192Y-94438857D01*
X70447270Y-94515848D01*
X70447265Y-94515851D01*
X70294129Y-94627111D01*
X70167466Y-94767785D01*
X70072821Y-94931715D01*
X70072818Y-94931722D01*
X70014327Y-95111740D01*
X70014326Y-95111744D01*
X69994540Y-95300000D01*
X70014326Y-95488256D01*
X70014327Y-95488259D01*
X70072818Y-95668277D01*
X70072820Y-95668281D01*
X70072821Y-95668284D01*
X70106631Y-95726844D01*
X70113072Y-95738001D01*
X70129543Y-95805901D01*
X70113072Y-95861998D01*
X70085167Y-95910333D01*
X70072820Y-95931718D01*
X70072818Y-95931722D01*
X70020788Y-96091855D01*
X70014326Y-96111744D01*
X70000586Y-96242473D01*
X69996710Y-96279358D01*
X69994540Y-96300000D01*
X70014326Y-96488256D01*
X70014327Y-96488259D01*
X70072818Y-96668277D01*
X70072821Y-96668284D01*
X70167467Y-96832216D01*
X70256340Y-96930919D01*
X70294129Y-96972888D01*
X70447265Y-97084148D01*
X70447270Y-97084151D01*
X70620192Y-97161142D01*
X70620197Y-97161144D01*
X70805354Y-97200500D01*
X70805355Y-97200500D01*
X70994644Y-97200500D01*
X70994646Y-97200500D01*
X71179803Y-97161144D01*
X71352730Y-97084151D01*
X71505871Y-96972888D01*
X71508788Y-96969647D01*
X71511600Y-96966526D01*
X71571087Y-96929879D01*
X71603748Y-96925500D01*
X73496252Y-96925500D01*
X73563291Y-96945185D01*
X73588400Y-96966526D01*
X73594126Y-96972885D01*
X73594129Y-96972888D01*
X73595064Y-96973567D01*
X73607861Y-96982865D01*
X73650526Y-97038195D01*
X73656504Y-97107809D01*
X73623897Y-97169604D01*
X73587139Y-97195676D01*
X66536068Y-100465369D01*
X66466968Y-100475713D01*
X66403245Y-100447058D01*
X66365131Y-100388500D01*
X66360398Y-100341807D01*
X67269509Y-90200000D01*
X70994540Y-90200000D01*
X71014326Y-90388256D01*
X71014327Y-90388259D01*
X71072818Y-90568277D01*
X71072821Y-90568284D01*
X71167467Y-90732216D01*
X71294129Y-90872888D01*
X71447265Y-90984148D01*
X71447270Y-90984151D01*
X71620192Y-91061142D01*
X71620197Y-91061144D01*
X71805354Y-91100500D01*
X71805355Y-91100500D01*
X71994644Y-91100500D01*
X71994646Y-91100500D01*
X72149720Y-91067538D01*
X72219386Y-91072854D01*
X72275120Y-91114991D01*
X72299225Y-91180571D01*
X72299500Y-91188828D01*
X72299500Y-91750001D01*
X72299501Y-91750019D01*
X72310000Y-91852796D01*
X72310001Y-91852799D01*
X72335604Y-91930063D01*
X72365186Y-92019334D01*
X72457288Y-92168656D01*
X72581344Y-92292712D01*
X72730666Y-92384814D01*
X72897203Y-92439999D01*
X72999991Y-92450500D01*
X73800008Y-92450499D01*
X73800016Y-92450498D01*
X73800019Y-92450498D01*
X73856302Y-92444748D01*
X73902797Y-92439999D01*
X74069334Y-92384814D01*
X74218656Y-92292712D01*
X74312318Y-92199048D01*
X74373642Y-92165564D01*
X74443334Y-92170548D01*
X74487680Y-92199048D01*
X74581344Y-92292712D01*
X74730666Y-92384814D01*
X74897203Y-92439999D01*
X74999991Y-92450500D01*
X75800008Y-92450499D01*
X75800016Y-92450498D01*
X75800019Y-92450498D01*
X75856302Y-92444748D01*
X75902797Y-92439999D01*
X76069334Y-92384814D01*
X76218656Y-92292712D01*
X76342712Y-92168656D01*
X76434814Y-92019334D01*
X76489999Y-91852797D01*
X76500500Y-91750009D01*
X76500499Y-91692320D01*
X76520182Y-91625283D01*
X76572986Y-91579527D01*
X76642144Y-91569583D01*
X76663500Y-91574615D01*
X76672203Y-91577499D01*
X76774991Y-91588000D01*
X77825008Y-91587999D01*
X77825016Y-91587998D01*
X77825019Y-91587998D01*
X77881302Y-91582248D01*
X77927797Y-91577499D01*
X78094334Y-91522314D01*
X78243656Y-91430212D01*
X78367712Y-91306156D01*
X78459814Y-91156834D01*
X78514999Y-90990297D01*
X78525500Y-90887509D01*
X78525499Y-90112492D01*
X78514999Y-90009703D01*
X78459814Y-89843166D01*
X78367712Y-89693844D01*
X78243656Y-89569788D01*
X78240342Y-89567743D01*
X78238546Y-89565748D01*
X78237989Y-89565307D01*
X78238064Y-89565211D01*
X78193618Y-89515797D01*
X78182397Y-89446834D01*
X78210240Y-89382752D01*
X78240348Y-89356665D01*
X78243342Y-89354818D01*
X78367315Y-89230845D01*
X78459356Y-89081624D01*
X78459358Y-89081619D01*
X78514505Y-88915197D01*
X78514506Y-88915190D01*
X78524999Y-88812486D01*
X78525000Y-88812473D01*
X78525000Y-88675000D01*
X76358403Y-88675000D01*
X76298975Y-88659832D01*
X76292328Y-88656202D01*
X76157482Y-88605908D01*
X76157483Y-88605908D01*
X76097883Y-88599501D01*
X76097881Y-88599500D01*
X76097873Y-88599500D01*
X76097865Y-88599500D01*
X75474000Y-88599500D01*
X75406961Y-88579815D01*
X75361206Y-88527011D01*
X75350000Y-88475500D01*
X75350000Y-88274000D01*
X75369685Y-88206961D01*
X75422489Y-88161206D01*
X75474000Y-88150000D01*
X76513638Y-88150000D01*
X76580677Y-88169685D01*
X76587273Y-88175000D01*
X77050000Y-88175000D01*
X77050000Y-87337500D01*
X77550000Y-87337500D01*
X77550000Y-88175000D01*
X78524999Y-88175000D01*
X78524999Y-88037528D01*
X78524998Y-88037513D01*
X78514505Y-87934802D01*
X78459358Y-87768380D01*
X78459356Y-87768375D01*
X78367315Y-87619154D01*
X78243345Y-87495184D01*
X78094124Y-87403143D01*
X78094119Y-87403141D01*
X77927697Y-87347994D01*
X77927690Y-87347993D01*
X77824986Y-87337500D01*
X77550000Y-87337500D01*
X77050000Y-87337500D01*
X77050000Y-87314006D01*
X77044774Y-87304436D01*
X77048237Y-87239066D01*
X77052005Y-87227696D01*
X77052006Y-87227690D01*
X77062499Y-87124986D01*
X77062500Y-87124973D01*
X77062500Y-86850000D01*
X75849000Y-86850000D01*
X75781961Y-86830315D01*
X75736206Y-86777511D01*
X75725000Y-86726000D01*
X75725000Y-85375000D01*
X76225000Y-85375000D01*
X76225000Y-86350000D01*
X77062499Y-86350000D01*
X77062499Y-86075028D01*
X77062498Y-86075013D01*
X77052005Y-85972302D01*
X76996858Y-85805880D01*
X76996856Y-85805875D01*
X76904815Y-85656654D01*
X76780845Y-85532684D01*
X76631624Y-85440643D01*
X76631619Y-85440641D01*
X76465197Y-85385494D01*
X76465190Y-85385493D01*
X76362486Y-85375000D01*
X76225000Y-85375000D01*
X75725000Y-85375000D01*
X75587527Y-85375000D01*
X75587512Y-85375001D01*
X75484802Y-85385494D01*
X75318380Y-85440641D01*
X75318375Y-85440643D01*
X75169154Y-85532684D01*
X75045183Y-85656655D01*
X75045179Y-85656660D01*
X75043326Y-85659665D01*
X75041518Y-85661290D01*
X75040702Y-85662323D01*
X75040525Y-85662183D01*
X74991374Y-85706385D01*
X74922411Y-85717601D01*
X74858331Y-85689752D01*
X74832253Y-85659653D01*
X74832237Y-85659628D01*
X74830212Y-85656344D01*
X74706156Y-85532288D01*
X74556834Y-85440186D01*
X74390297Y-85385001D01*
X74390295Y-85385000D01*
X74287510Y-85374500D01*
X73512498Y-85374500D01*
X73512480Y-85374501D01*
X73409703Y-85385000D01*
X73409700Y-85385001D01*
X73243168Y-85440185D01*
X73243163Y-85440187D01*
X73093842Y-85532289D01*
X72969789Y-85656342D01*
X72877687Y-85805663D01*
X72877685Y-85805668D01*
X72827392Y-85957442D01*
X72787619Y-86014887D01*
X72723103Y-86041710D01*
X72683905Y-86039728D01*
X72679803Y-86038856D01*
X72494646Y-85999500D01*
X72424500Y-85999500D01*
X72357461Y-85979815D01*
X72311706Y-85927011D01*
X72300500Y-85875500D01*
X72300500Y-85735452D01*
X72320185Y-85668413D01*
X72336819Y-85647771D01*
X75847772Y-82136819D01*
X75909095Y-82103334D01*
X75935453Y-82100500D01*
X75994644Y-82100500D01*
X75994646Y-82100500D01*
X76179803Y-82061144D01*
X76352730Y-81984151D01*
X76505871Y-81872888D01*
X76632533Y-81732216D01*
X76727179Y-81568284D01*
X76785674Y-81388256D01*
X76805460Y-81200000D01*
X76785674Y-81011744D01*
X76727179Y-80831716D01*
X76632533Y-80667784D01*
X76505871Y-80527112D01*
X76486570Y-80513089D01*
X76352734Y-80415851D01*
X76352729Y-80415848D01*
X76179807Y-80338857D01*
X76179802Y-80338855D01*
X76034001Y-80307865D01*
X75994646Y-80299500D01*
X75805354Y-80299500D01*
X75772897Y-80306398D01*
X75620197Y-80338855D01*
X75620192Y-80338857D01*
X75447270Y-80415848D01*
X75447265Y-80415851D01*
X75294129Y-80527111D01*
X75167466Y-80667785D01*
X75072821Y-80831715D01*
X75072818Y-80831722D01*
X75020578Y-80992501D01*
X75014326Y-81011744D01*
X74997104Y-81175608D01*
X74996679Y-81179649D01*
X74970094Y-81244263D01*
X74961039Y-81254368D01*
X71291208Y-84924199D01*
X71278951Y-84934020D01*
X71279134Y-84934241D01*
X71273123Y-84939213D01*
X71225772Y-84989636D01*
X71204889Y-85010519D01*
X71204877Y-85010532D01*
X71200621Y-85016017D01*
X71196837Y-85020447D01*
X71164937Y-85054418D01*
X71164936Y-85054420D01*
X71155284Y-85071976D01*
X71144610Y-85088226D01*
X71132329Y-85104061D01*
X71132324Y-85104068D01*
X71113815Y-85146838D01*
X71111245Y-85152084D01*
X71088803Y-85192906D01*
X71083822Y-85212307D01*
X71077521Y-85230710D01*
X71069562Y-85249102D01*
X71069561Y-85249105D01*
X71062271Y-85295127D01*
X71061087Y-85300846D01*
X71049501Y-85345972D01*
X71049500Y-85345982D01*
X71049500Y-85366016D01*
X71047973Y-85385415D01*
X71044840Y-85405194D01*
X71044840Y-85405195D01*
X71049225Y-85451583D01*
X71049500Y-85457421D01*
X71049500Y-89883850D01*
X71043430Y-89922168D01*
X71014326Y-90011744D01*
X70994540Y-90200000D01*
X67269509Y-90200000D01*
X68649443Y-74805805D01*
X68675035Y-74740793D01*
X68731713Y-74699935D01*
X68801483Y-74696206D01*
X68844285Y-74715454D01*
G37*
%TD.AperFunction*%
%TA.AperFunction,Conductor*%
G36*
X77001256Y-40420185D02*
G01*
X77021898Y-40436819D01*
X80063181Y-43478101D01*
X80096666Y-43539424D01*
X80099500Y-43565782D01*
X80099500Y-49120546D01*
X80079815Y-49187585D01*
X80027011Y-49233340D01*
X79957853Y-49243284D01*
X79894297Y-49214259D01*
X79887819Y-49208227D01*
X76566882Y-45887291D01*
X76533397Y-45825968D01*
X76531245Y-45812590D01*
X76514478Y-45653061D01*
X76456392Y-45474293D01*
X76456389Y-45474287D01*
X76362411Y-45311511D01*
X76362409Y-45311508D01*
X76341217Y-45287972D01*
X76310987Y-45224980D01*
X76319612Y-45155645D01*
X76341217Y-45122028D01*
X76353729Y-45108132D01*
X76413216Y-45071483D01*
X76483073Y-45072814D01*
X76518760Y-45090783D01*
X76608035Y-45155645D01*
X76647270Y-45184151D01*
X76820192Y-45261142D01*
X76820197Y-45261144D01*
X77005354Y-45300500D01*
X77005355Y-45300500D01*
X77194644Y-45300500D01*
X77194646Y-45300500D01*
X77379803Y-45261144D01*
X77552730Y-45184151D01*
X77705871Y-45072888D01*
X77832533Y-44932216D01*
X77927179Y-44768284D01*
X77985674Y-44588256D01*
X78005460Y-44400000D01*
X77985674Y-44211744D01*
X77927179Y-44031716D01*
X77832533Y-43867784D01*
X77705871Y-43727112D01*
X77705870Y-43727111D01*
X77552734Y-43615851D01*
X77552729Y-43615848D01*
X77379807Y-43538857D01*
X77379802Y-43538855D01*
X77234000Y-43507865D01*
X77194646Y-43499500D01*
X77005354Y-43499500D01*
X76972897Y-43506398D01*
X76820197Y-43538855D01*
X76820192Y-43538857D01*
X76647270Y-43615848D01*
X76647265Y-43615851D01*
X76494130Y-43727110D01*
X76494126Y-43727114D01*
X76488400Y-43733474D01*
X76428913Y-43770121D01*
X76396252Y-43774500D01*
X76073111Y-43774500D01*
X76022676Y-43763780D01*
X75912845Y-43714880D01*
X75912843Y-43714879D01*
X75912844Y-43714879D01*
X75801360Y-43691183D01*
X75739878Y-43657991D01*
X75706102Y-43596827D01*
X75708351Y-43534329D01*
X75739469Y-43430388D01*
X75749607Y-43256340D01*
X75719332Y-43084646D01*
X75650279Y-42924562D01*
X75630181Y-42897566D01*
X75582993Y-42834181D01*
X75546168Y-42784717D01*
X75412614Y-42672651D01*
X75325680Y-42628991D01*
X75256818Y-42594407D01*
X75256816Y-42594406D01*
X75256815Y-42594406D01*
X75087171Y-42554200D01*
X74956564Y-42554200D01*
X74843051Y-42567467D01*
X74826835Y-42569363D01*
X74826832Y-42569364D01*
X74663008Y-42628991D01*
X74663004Y-42628993D01*
X74517348Y-42724792D01*
X74517347Y-42724793D01*
X74397706Y-42851603D01*
X74397704Y-42851607D01*
X74392264Y-42861029D01*
X74310534Y-43002590D01*
X74260531Y-43169610D01*
X74260530Y-43169616D01*
X74255479Y-43256340D01*
X74250393Y-43343660D01*
X74280668Y-43515354D01*
X74283321Y-43521504D01*
X74291798Y-43590857D01*
X74261433Y-43653784D01*
X74201869Y-43690305D01*
X74195242Y-43691905D01*
X74087155Y-43714879D01*
X74087149Y-43714881D01*
X73915437Y-43791334D01*
X73915432Y-43791336D01*
X73763368Y-43901817D01*
X73763366Y-43901819D01*
X73637595Y-44041501D01*
X73637587Y-44041512D01*
X73543610Y-44204287D01*
X73543605Y-44204299D01*
X73485523Y-44383056D01*
X73485523Y-44383057D01*
X73485522Y-44383061D01*
X73483742Y-44400000D01*
X73468756Y-44542574D01*
X73442171Y-44607188D01*
X73433116Y-44617292D01*
X72279908Y-45770499D01*
X72267651Y-45780320D01*
X72267834Y-45780541D01*
X72261823Y-45785513D01*
X72214472Y-45835936D01*
X72193589Y-45856819D01*
X72193577Y-45856832D01*
X72189321Y-45862317D01*
X72185537Y-45866747D01*
X72153637Y-45900718D01*
X72153636Y-45900720D01*
X72143984Y-45918276D01*
X72133310Y-45934526D01*
X72121029Y-45950361D01*
X72121024Y-45950368D01*
X72102515Y-45993138D01*
X72099945Y-45998384D01*
X72077503Y-46039206D01*
X72072522Y-46058607D01*
X72066221Y-46077010D01*
X72058262Y-46095402D01*
X72058261Y-46095405D01*
X72050971Y-46141427D01*
X72049787Y-46147146D01*
X72038201Y-46192272D01*
X72038200Y-46192282D01*
X72038200Y-46212316D01*
X72036673Y-46231715D01*
X72033540Y-46251494D01*
X72033540Y-46251495D01*
X72037925Y-46297883D01*
X72038200Y-46303721D01*
X72038200Y-50317351D01*
X72036475Y-50332968D01*
X72036761Y-50332995D01*
X72036026Y-50340761D01*
X72038200Y-50409910D01*
X72038200Y-50439439D01*
X72038201Y-50439456D01*
X72039068Y-50446327D01*
X72039526Y-50452146D01*
X72040990Y-50498720D01*
X72040991Y-50498723D01*
X72046580Y-50517963D01*
X72050524Y-50537007D01*
X72053036Y-50556888D01*
X72066882Y-50591859D01*
X72070190Y-50600215D01*
X72072082Y-50605743D01*
X72085081Y-50650484D01*
X72095280Y-50667730D01*
X72103836Y-50685196D01*
X72111214Y-50703828D01*
X72138598Y-50741519D01*
X72141806Y-50746403D01*
X72165527Y-50786512D01*
X72165533Y-50786520D01*
X72179690Y-50800676D01*
X72192328Y-50815472D01*
X72199675Y-50825585D01*
X72204106Y-50831683D01*
X72225157Y-50849098D01*
X72240009Y-50861384D01*
X72244320Y-50865306D01*
X73838099Y-52459086D01*
X74362801Y-52983788D01*
X74372626Y-52996051D01*
X74372847Y-52995869D01*
X74377818Y-53001878D01*
X74399840Y-53022557D01*
X74428239Y-53049226D01*
X74449133Y-53070120D01*
X74454615Y-53074373D01*
X74459047Y-53078157D01*
X74493022Y-53110062D01*
X74510580Y-53119714D01*
X74526837Y-53130393D01*
X74542668Y-53142673D01*
X74562341Y-53151186D01*
X74585437Y-53161182D01*
X74590681Y-53163750D01*
X74631512Y-53186197D01*
X74644127Y-53189435D01*
X74650909Y-53191177D01*
X74669323Y-53197481D01*
X74687708Y-53205438D01*
X74733761Y-53212732D01*
X74739430Y-53213906D01*
X74784585Y-53225500D01*
X74804620Y-53225500D01*
X74824017Y-53227026D01*
X74843800Y-53230160D01*
X74843802Y-53230159D01*
X74843804Y-53230160D01*
X74878858Y-53226845D01*
X74884792Y-53226285D01*
X74953386Y-53239572D01*
X74988610Y-53266759D01*
X74994129Y-53272888D01*
X74994131Y-53272890D01*
X75147265Y-53384148D01*
X75147270Y-53384151D01*
X75320192Y-53461142D01*
X75320197Y-53461144D01*
X75505354Y-53500500D01*
X75564548Y-53500500D01*
X75631587Y-53520185D01*
X75652228Y-53536818D01*
X76568801Y-54453392D01*
X77399197Y-55283788D01*
X77409022Y-55296051D01*
X77409243Y-55295869D01*
X77414214Y-55301878D01*
X77440217Y-55326295D01*
X77464635Y-55349226D01*
X77485529Y-55370120D01*
X77491011Y-55374373D01*
X77495443Y-55378157D01*
X77529418Y-55410062D01*
X77546976Y-55419714D01*
X77563235Y-55430395D01*
X77579064Y-55442673D01*
X77621838Y-55461182D01*
X77627056Y-55463738D01*
X77667908Y-55486197D01*
X77687316Y-55491180D01*
X77705717Y-55497480D01*
X77724104Y-55505437D01*
X77767488Y-55512308D01*
X77770119Y-55512725D01*
X77775839Y-55513909D01*
X77820981Y-55525500D01*
X77841016Y-55525500D01*
X77860414Y-55527026D01*
X77880194Y-55530159D01*
X77880195Y-55530160D01*
X77880195Y-55530159D01*
X77880196Y-55530160D01*
X77926583Y-55525775D01*
X77932422Y-55525500D01*
X78495752Y-55525500D01*
X78562791Y-55545185D01*
X78587900Y-55566526D01*
X78593626Y-55572885D01*
X78593630Y-55572889D01*
X78746765Y-55684148D01*
X78746770Y-55684151D01*
X78919692Y-55761142D01*
X78919697Y-55761144D01*
X79104854Y-55800500D01*
X79104855Y-55800500D01*
X79250500Y-55800500D01*
X79317539Y-55820185D01*
X79363294Y-55872989D01*
X79374500Y-55924500D01*
X79374500Y-58389546D01*
X79354815Y-58456585D01*
X79338181Y-58477227D01*
X79152228Y-58663181D01*
X79090905Y-58696666D01*
X79064547Y-58699500D01*
X79005354Y-58699500D01*
X78972897Y-58706398D01*
X78820197Y-58738855D01*
X78820192Y-58738857D01*
X78647270Y-58815848D01*
X78647265Y-58815851D01*
X78494129Y-58927111D01*
X78367466Y-59067785D01*
X78272821Y-59231715D01*
X78272818Y-59231722D01*
X78226945Y-59372907D01*
X78214326Y-59411744D01*
X78194540Y-59600000D01*
X78214326Y-59788256D01*
X78214327Y-59788259D01*
X78272818Y-59968277D01*
X78272821Y-59968284D01*
X78367467Y-60132216D01*
X78460214Y-60235222D01*
X78494129Y-60272888D01*
X78647265Y-60384148D01*
X78647270Y-60384151D01*
X78820192Y-60461142D01*
X78820197Y-60461144D01*
X79005354Y-60500500D01*
X79005355Y-60500500D01*
X79194644Y-60500500D01*
X79194646Y-60500500D01*
X79379803Y-60461144D01*
X79552730Y-60384151D01*
X79705871Y-60272888D01*
X79832533Y-60132216D01*
X79927179Y-59968284D01*
X79985674Y-59788256D01*
X80003321Y-59620344D01*
X80029904Y-59555734D01*
X80038951Y-59545638D01*
X80383788Y-59200801D01*
X80396042Y-59190986D01*
X80395859Y-59190764D01*
X80401866Y-59185792D01*
X80401877Y-59185786D01*
X80432775Y-59152882D01*
X80449227Y-59135364D01*
X80459671Y-59124918D01*
X80470120Y-59114471D01*
X80474379Y-59108978D01*
X80478152Y-59104561D01*
X80510062Y-59070582D01*
X80519713Y-59053024D01*
X80530396Y-59036761D01*
X80542673Y-59020936D01*
X80561185Y-58978153D01*
X80563738Y-58972941D01*
X80586197Y-58932092D01*
X80591180Y-58912680D01*
X80597481Y-58894280D01*
X80605437Y-58875896D01*
X80612729Y-58829852D01*
X80613906Y-58824171D01*
X80625500Y-58779019D01*
X80625500Y-58758982D01*
X80627027Y-58739582D01*
X80627142Y-58738856D01*
X80630160Y-58719804D01*
X80625775Y-58673415D01*
X80625500Y-58667577D01*
X80625500Y-54824717D01*
X80645185Y-54757678D01*
X80697989Y-54711923D01*
X80767147Y-54701979D01*
X80830703Y-54731004D01*
X80837166Y-54737022D01*
X81861286Y-55761142D01*
X82836506Y-56736362D01*
X82869991Y-56797685D01*
X82872773Y-56827648D01*
X82869397Y-56943678D01*
X82904875Y-57115494D01*
X82904875Y-57115496D01*
X82947166Y-57209743D01*
X82947170Y-57209752D01*
X82947175Y-57209762D01*
X83020091Y-57336056D01*
X83036564Y-57403955D01*
X83036346Y-57407471D01*
X83035896Y-57413383D01*
X83034806Y-57421154D01*
X83029776Y-57445632D01*
X83027892Y-57454802D01*
X83027892Y-57516141D01*
X83027713Y-57520850D01*
X83023054Y-57582018D01*
X83025099Y-57598071D01*
X83027395Y-57616104D01*
X83027892Y-57623932D01*
X83027892Y-60853830D01*
X83025635Y-60942909D01*
X83025635Y-60942917D01*
X83036456Y-61003286D01*
X83037110Y-61007951D01*
X83043317Y-61068977D01*
X83043319Y-61068991D01*
X83053600Y-61101760D01*
X83055471Y-61109384D01*
X83061534Y-61143199D01*
X83061534Y-61143202D01*
X83084286Y-61200159D01*
X83085866Y-61204598D01*
X83104233Y-61263135D01*
X83104236Y-61263142D01*
X83120901Y-61293166D01*
X83124271Y-61300261D01*
X83137014Y-61332161D01*
X83137019Y-61332171D01*
X83170769Y-61383380D01*
X83173210Y-61387410D01*
X83202980Y-61441045D01*
X83202981Y-61441046D01*
X83202983Y-61441049D01*
X83225360Y-61467114D01*
X83230085Y-61473382D01*
X83242655Y-61492453D01*
X83248990Y-61502066D01*
X83292370Y-61545446D01*
X83295561Y-61548890D01*
X83335523Y-61595439D01*
X83335522Y-61595439D01*
X83362691Y-61616470D01*
X83368578Y-61621654D01*
X84654480Y-62907555D01*
X85863181Y-64116256D01*
X85896666Y-64177579D01*
X85899500Y-64203937D01*
X85899500Y-65534216D01*
X85879815Y-65601255D01*
X85863181Y-65621897D01*
X84211592Y-67273486D01*
X84209316Y-67275650D01*
X84153789Y-67325818D01*
X84153781Y-67325827D01*
X84109511Y-67386115D01*
X84107589Y-67388597D01*
X84060301Y-67446592D01*
X84060300Y-67446594D01*
X84052843Y-67460871D01*
X84042883Y-67476850D01*
X84033356Y-67489823D01*
X84033348Y-67489837D01*
X84002113Y-67557816D01*
X84000730Y-67560636D01*
X83966092Y-67626947D01*
X83966091Y-67626949D01*
X83961658Y-67642442D01*
X83955121Y-67660092D01*
X83948396Y-67674729D01*
X83948393Y-67674738D01*
X83931482Y-67747609D01*
X83930695Y-67750650D01*
X83910113Y-67822579D01*
X83908890Y-67838641D01*
X83906039Y-67857246D01*
X83902397Y-67872941D01*
X83902396Y-67872947D01*
X83900500Y-67947753D01*
X83900341Y-67950888D01*
X83894662Y-68025478D01*
X83894663Y-68025482D01*
X83896697Y-68041461D01*
X83897650Y-68060252D01*
X83897242Y-68076356D01*
X83897243Y-68076367D01*
X83910442Y-68150011D01*
X83910918Y-68153116D01*
X83920368Y-68227322D01*
X83920371Y-68227334D01*
X83925580Y-68242571D01*
X83930299Y-68260793D01*
X83932769Y-68274573D01*
X83933143Y-68276659D01*
X83960887Y-68346113D01*
X83961977Y-68349058D01*
X83986181Y-68419867D01*
X83986182Y-68419869D01*
X83994354Y-68433751D01*
X84002644Y-68450651D01*
X84008621Y-68465612D01*
X84008627Y-68465625D01*
X84049802Y-68528101D01*
X84051464Y-68530766D01*
X84089410Y-68595229D01*
X84100204Y-68607175D01*
X84111734Y-68622070D01*
X84120595Y-68635516D01*
X84120596Y-68635517D01*
X84120597Y-68635518D01*
X84120598Y-68635519D01*
X84173513Y-68688434D01*
X84175658Y-68690691D01*
X84225820Y-68746212D01*
X84225823Y-68746215D01*
X84238801Y-68755745D01*
X84253091Y-68768012D01*
X104583566Y-89098487D01*
X104644938Y-89163050D01*
X104644941Y-89163053D01*
X104695281Y-89198092D01*
X104699043Y-89200928D01*
X104746587Y-89239694D01*
X104746590Y-89239695D01*
X104746593Y-89239698D01*
X104777045Y-89255604D01*
X104783758Y-89259672D01*
X104811951Y-89279295D01*
X104868329Y-89303489D01*
X104872578Y-89305507D01*
X104926951Y-89333909D01*
X104954489Y-89341788D01*
X104959974Y-89343358D01*
X104967368Y-89345990D01*
X104998942Y-89359540D01*
X104998945Y-89359540D01*
X104998946Y-89359541D01*
X105059022Y-89371887D01*
X105063600Y-89373010D01*
X105077501Y-89376987D01*
X105122582Y-89389887D01*
X105156839Y-89392495D01*
X105164614Y-89393586D01*
X105198255Y-89400500D01*
X105198259Y-89400500D01*
X105259599Y-89400500D01*
X105264305Y-89400678D01*
X105299063Y-89403325D01*
X105325476Y-89405337D01*
X105325476Y-89405336D01*
X105325477Y-89405337D01*
X105359560Y-89400996D01*
X105367390Y-89400500D01*
X107488059Y-89400500D01*
X107639755Y-89385074D01*
X107833895Y-89324162D01*
X107833896Y-89324161D01*
X107833904Y-89324159D01*
X108011818Y-89225409D01*
X108166211Y-89092866D01*
X108290764Y-88931958D01*
X108380376Y-88749271D01*
X108431379Y-88552285D01*
X108441685Y-88349064D01*
X108410872Y-88147929D01*
X108340202Y-87957113D01*
X108232568Y-87784429D01*
X108114265Y-87659975D01*
X108092377Y-87636949D01*
X108092376Y-87636948D01*
X108092375Y-87636947D01*
X107993790Y-87568330D01*
X107925366Y-87520705D01*
X107738372Y-87440459D01*
X107539057Y-87399500D01*
X105765782Y-87399500D01*
X105698743Y-87379815D01*
X105678101Y-87363181D01*
X90504791Y-72189871D01*
X90471306Y-72128548D01*
X90476290Y-72058856D01*
X90518162Y-72002923D01*
X90542027Y-71988916D01*
X90552730Y-71984151D01*
X90705871Y-71872888D01*
X90708788Y-71869647D01*
X90711600Y-71866526D01*
X90771087Y-71829879D01*
X90803748Y-71825500D01*
X95126588Y-71825500D01*
X95193627Y-71845185D01*
X95214269Y-71861819D01*
X96556997Y-73204548D01*
X96590482Y-73265871D01*
X96593264Y-73295835D01*
X96588790Y-73449589D01*
X96624268Y-73621405D01*
X96624268Y-73621407D01*
X96666559Y-73715654D01*
X96666568Y-73715673D01*
X96690495Y-73757115D01*
X97166574Y-74581706D01*
X97166578Y-74581713D01*
X97227064Y-74665479D01*
X97358122Y-74782111D01*
X97358123Y-74782112D01*
X97358125Y-74782113D01*
X97512549Y-74865378D01*
X97682013Y-74910786D01*
X97857380Y-74915888D01*
X97857380Y-74915887D01*
X97857381Y-74915888D01*
X97863987Y-74915310D01*
X97932487Y-74929075D01*
X97982671Y-74977690D01*
X97998606Y-75045718D01*
X97976375Y-75109957D01*
X97972568Y-75115393D01*
X97889300Y-75269821D01*
X97843892Y-75439285D01*
X97838790Y-75614654D01*
X97874268Y-75786470D01*
X97874268Y-75786472D01*
X97916559Y-75880719D01*
X97916563Y-75880728D01*
X97916568Y-75880738D01*
X97916571Y-75880743D01*
X98416574Y-76746771D01*
X98416578Y-76746778D01*
X98477064Y-76830544D01*
X98608122Y-76947176D01*
X98608123Y-76947177D01*
X98608125Y-76947178D01*
X98762549Y-77030443D01*
X98932013Y-77075851D01*
X99107380Y-77080953D01*
X99107380Y-77080952D01*
X99107382Y-77080953D01*
X99157597Y-77070583D01*
X99279198Y-77045476D01*
X99373466Y-77003176D01*
X100022999Y-76628167D01*
X100106767Y-76567679D01*
X100107315Y-76567062D01*
X100107746Y-76566793D01*
X100111789Y-76563143D01*
X100112440Y-76563864D01*
X100166588Y-76530071D01*
X100199944Y-76525500D01*
X100314513Y-76525500D01*
X100381552Y-76545185D01*
X100402194Y-76561819D01*
X102336538Y-78496163D01*
X102370023Y-78557486D01*
X102372178Y-78570882D01*
X102372568Y-78574592D01*
X102389826Y-78738791D01*
X102389827Y-78738794D01*
X102448318Y-78918812D01*
X102448321Y-78918819D01*
X102542967Y-79082751D01*
X102652030Y-79203877D01*
X102669629Y-79223423D01*
X102822765Y-79334683D01*
X102822770Y-79334686D01*
X102995692Y-79411677D01*
X102995697Y-79411679D01*
X103180854Y-79451035D01*
X103180855Y-79451035D01*
X103370144Y-79451035D01*
X103370146Y-79451035D01*
X103555303Y-79411679D01*
X103728230Y-79334686D01*
X103881371Y-79223423D01*
X104008033Y-79082751D01*
X104102679Y-78918819D01*
X104161174Y-78738791D01*
X104180960Y-78550535D01*
X104161174Y-78362279D01*
X104152781Y-78336451D01*
X104150787Y-78266612D01*
X104186867Y-78206779D01*
X104197829Y-78197815D01*
X104218913Y-78182497D01*
X104345575Y-78041825D01*
X104440221Y-77877893D01*
X104498716Y-77697865D01*
X104518502Y-77509609D01*
X104498716Y-77321353D01*
X104440221Y-77141325D01*
X104345575Y-76977393D01*
X104218913Y-76836721D01*
X104218912Y-76836720D01*
X104065776Y-76725460D01*
X104065771Y-76725457D01*
X103892849Y-76648466D01*
X103892844Y-76648464D01*
X103736024Y-76615132D01*
X103707688Y-76609109D01*
X103707687Y-76609109D01*
X103667388Y-76609109D01*
X103600349Y-76589424D01*
X103579707Y-76572790D01*
X102463840Y-75456922D01*
X102430355Y-75395599D01*
X102435339Y-75325907D01*
X102477211Y-75269974D01*
X102489506Y-75261863D01*
X103629857Y-74603481D01*
X103697754Y-74587009D01*
X103763781Y-74609862D01*
X103799223Y-74648838D01*
X106175898Y-78762646D01*
X106192390Y-78830542D01*
X106169557Y-78896575D01*
X106130529Y-78932064D01*
X104877538Y-79655479D01*
X104864091Y-79663195D01*
X104863730Y-79663659D01*
X104865770Y-79667186D01*
X104867782Y-79670962D01*
X104889123Y-79714551D01*
X104899356Y-79725283D01*
X107351518Y-83972552D01*
X107351588Y-83972756D01*
X107363891Y-83994065D01*
X107364220Y-83994317D01*
X107364221Y-83994317D01*
X107364627Y-83994264D01*
X107364628Y-83994263D01*
X107364631Y-83994263D01*
X107364632Y-83994260D01*
X107374717Y-83988391D01*
X108632331Y-83262307D01*
X108700227Y-83245835D01*
X108766254Y-83268688D01*
X108801696Y-83307664D01*
X111178371Y-87421472D01*
X111194863Y-87489368D01*
X111172030Y-87555401D01*
X111133002Y-87590890D01*
X109877537Y-88315735D01*
X109864090Y-88323451D01*
X109863730Y-88323913D01*
X109865770Y-88327440D01*
X109867782Y-88331216D01*
X109889123Y-88374805D01*
X109899356Y-88385537D01*
X112351518Y-92632806D01*
X112351588Y-92633010D01*
X112363891Y-92654319D01*
X112364220Y-92654571D01*
X112364221Y-92654571D01*
X112364627Y-92654518D01*
X112364628Y-92654517D01*
X112364631Y-92654517D01*
X112364632Y-92654514D01*
X112374717Y-92648645D01*
X113634804Y-91921132D01*
X113702700Y-91904661D01*
X113768727Y-91927514D01*
X113804169Y-91966490D01*
X116180844Y-96080298D01*
X116197336Y-96148194D01*
X116174503Y-96214227D01*
X116135475Y-96249716D01*
X114877536Y-96975988D01*
X114864089Y-96983704D01*
X114859681Y-96989382D01*
X114803017Y-97030260D01*
X114733248Y-97034013D01*
X114672525Y-96999451D01*
X114660169Y-96984458D01*
X114587298Y-96880387D01*
X114574664Y-96862343D01*
X114407573Y-96695253D01*
X114407566Y-96695248D01*
X114214005Y-96559714D01*
X114214001Y-96559712D01*
X114205215Y-96555615D01*
X113999834Y-96459844D01*
X113999830Y-96459843D01*
X113999826Y-96459841D01*
X113771584Y-96398685D01*
X113771574Y-96398683D01*
X113545383Y-96378893D01*
X113480314Y-96353440D01*
X113439336Y-96296849D01*
X113435458Y-96227087D01*
X113443809Y-96202960D01*
X113539601Y-95997535D01*
X113539604Y-95997526D01*
X113600738Y-95769369D01*
X113600740Y-95769358D01*
X113621328Y-95534044D01*
X113621328Y-95534041D01*
X113600740Y-95298727D01*
X113600739Y-95298720D01*
X113543534Y-95085230D01*
X112920773Y-95444782D01*
X112852873Y-95461255D01*
X112786846Y-95438402D01*
X112743655Y-95383481D01*
X112739800Y-95372344D01*
X112725664Y-95324199D01*
X112647932Y-95203245D01*
X112647929Y-95203240D01*
X112643305Y-95197904D01*
X112614282Y-95134348D01*
X112624227Y-95065189D01*
X112669983Y-95012387D01*
X112675020Y-95009317D01*
X113293534Y-94652218D01*
X113137253Y-94495937D01*
X112943749Y-94360442D01*
X112729663Y-94260613D01*
X112729654Y-94260609D01*
X112501497Y-94199475D01*
X112501486Y-94199473D01*
X112266173Y-94178886D01*
X112266169Y-94178886D01*
X112030855Y-94199473D01*
X112030844Y-94199475D01*
X111817359Y-94256678D01*
X112175273Y-94876604D01*
X112191746Y-94944504D01*
X112168893Y-95010531D01*
X112119398Y-95051398D01*
X111993072Y-95109090D01*
X111993066Y-95109093D01*
X111932652Y-95161442D01*
X111869096Y-95190466D01*
X111799938Y-95180522D01*
X111747135Y-95134766D01*
X111744064Y-95129728D01*
X111384346Y-94506677D01*
X111228061Y-94662962D01*
X111092571Y-94856463D01*
X111092570Y-94856465D01*
X110992741Y-95070550D01*
X110992737Y-95070559D01*
X110931603Y-95298716D01*
X110931601Y-95298727D01*
X110911014Y-95534041D01*
X110911014Y-95534044D01*
X110931601Y-95769358D01*
X110931603Y-95769369D01*
X110988806Y-95982853D01*
X111611567Y-95623302D01*
X111679467Y-95606829D01*
X111745494Y-95629682D01*
X111788685Y-95684603D01*
X111792544Y-95695753D01*
X111806676Y-95743883D01*
X111806677Y-95743885D01*
X111806678Y-95743887D01*
X111833533Y-95785674D01*
X111884412Y-95864845D01*
X111889036Y-95870181D01*
X111918059Y-95933738D01*
X111908112Y-96002896D01*
X111862355Y-96055698D01*
X111857320Y-96058767D01*
X111238806Y-96415866D01*
X111395088Y-96572148D01*
X111588592Y-96707643D01*
X111802678Y-96807472D01*
X111802687Y-96807476D01*
X112030844Y-96868610D01*
X112030855Y-96868612D01*
X112256652Y-96888367D01*
X112321721Y-96913819D01*
X112362700Y-96970410D01*
X112366578Y-97040172D01*
X112358227Y-97064300D01*
X112262269Y-97270082D01*
X112262265Y-97270091D01*
X112201109Y-97498333D01*
X112201107Y-97498343D01*
X112180512Y-97733746D01*
X112180512Y-97733747D01*
X112201107Y-97969150D01*
X112201109Y-97969160D01*
X112262265Y-98197402D01*
X112262267Y-98197406D01*
X112262268Y-98197410D01*
X112323867Y-98329509D01*
X112358195Y-98403125D01*
X112368687Y-98472203D01*
X112340167Y-98535987D01*
X112281691Y-98574226D01*
X112211823Y-98574781D01*
X112158132Y-98543211D01*
X111217046Y-97602126D01*
X111197340Y-97576445D01*
X111167248Y-97524325D01*
X110986467Y-97211203D01*
X110978700Y-97195198D01*
X110970954Y-97175804D01*
X110932232Y-97117051D01*
X110930329Y-97113969D01*
X110920663Y-97097227D01*
X110903341Y-97073215D01*
X110858978Y-97005903D01*
X110850965Y-96997890D01*
X110838089Y-96982762D01*
X110831456Y-96973567D01*
X110800570Y-96945185D01*
X110772081Y-96919005D01*
X110024480Y-96171405D01*
X109963089Y-96106822D01*
X109963088Y-96106821D01*
X109963087Y-96106820D01*
X109924982Y-96080298D01*
X109912737Y-96071775D01*
X109908974Y-96068937D01*
X109861441Y-96030178D01*
X109861434Y-96030173D01*
X109830987Y-96014270D01*
X109824279Y-96010207D01*
X109796077Y-95990578D01*
X109796074Y-95990576D01*
X109796073Y-95990576D01*
X109796069Y-95990574D01*
X109739708Y-95966387D01*
X109735452Y-95964366D01*
X109681085Y-95935967D01*
X109681078Y-95935964D01*
X109681077Y-95935964D01*
X109666232Y-95931716D01*
X109648058Y-95926515D01*
X109640658Y-95923881D01*
X109609085Y-95910332D01*
X109609086Y-95910332D01*
X109548994Y-95897982D01*
X109544419Y-95896859D01*
X109485448Y-95879986D01*
X109485453Y-95879986D01*
X109451186Y-95877376D01*
X109443408Y-95876285D01*
X109409770Y-95869373D01*
X109409769Y-95869373D01*
X109348430Y-95869373D01*
X109343723Y-95869194D01*
X109338149Y-95868769D01*
X109282552Y-95864535D01*
X109262617Y-95867074D01*
X109248468Y-95868876D01*
X109240639Y-95869373D01*
X108897712Y-95869373D01*
X108830673Y-95849688D01*
X108790325Y-95807373D01*
X108768383Y-95769369D01*
X108710018Y-95668277D01*
X108652822Y-95569210D01*
X108652820Y-95569206D01*
X108652816Y-95569200D01*
X108592328Y-95485432D01*
X108592324Y-95485429D01*
X108592323Y-95485427D01*
X108461270Y-95368800D01*
X108306843Y-95285533D01*
X108137379Y-95240125D01*
X107962010Y-95235023D01*
X107790194Y-95270501D01*
X107790192Y-95270501D01*
X107695945Y-95312792D01*
X107695921Y-95312804D01*
X106353578Y-96087808D01*
X106353566Y-96087816D01*
X106269806Y-96148296D01*
X106269806Y-96148297D01*
X106153174Y-96279355D01*
X106069907Y-96433782D01*
X106024499Y-96603246D01*
X106019397Y-96778615D01*
X106054875Y-96950431D01*
X106054875Y-96950433D01*
X106097171Y-97044690D01*
X106097180Y-97044709D01*
X106747177Y-98170534D01*
X106747179Y-98170539D01*
X106747183Y-98170545D01*
X106747184Y-98170546D01*
X106807672Y-98254314D01*
X106807674Y-98254316D01*
X106807676Y-98254318D01*
X106938729Y-98370945D01*
X106938730Y-98370946D01*
X106938732Y-98370947D01*
X107093156Y-98454212D01*
X107262620Y-98499620D01*
X107437987Y-98504722D01*
X107437988Y-98504721D01*
X107444393Y-98504908D01*
X107510831Y-98526534D01*
X107555032Y-98580646D01*
X107562960Y-98650065D01*
X107560562Y-98660949D01*
X107506684Y-98862024D01*
X107506682Y-98862034D01*
X107491316Y-99037673D01*
X107465863Y-99102741D01*
X107455469Y-99114546D01*
X100601532Y-105968483D01*
X100536946Y-106029879D01*
X100501899Y-106080231D01*
X100499062Y-106083993D01*
X100460302Y-106131529D01*
X100460299Y-106131534D01*
X100444392Y-106161984D01*
X100440324Y-106168698D01*
X100420702Y-106196891D01*
X100396509Y-106253267D01*
X100394488Y-106257521D01*
X100366091Y-106311888D01*
X100366090Y-106311889D01*
X100356640Y-106344912D01*
X100354007Y-106352308D01*
X100340459Y-106383880D01*
X100328113Y-106443956D01*
X100326990Y-106448532D01*
X100310113Y-106507514D01*
X100310113Y-106507516D01*
X100307503Y-106541778D01*
X100306414Y-106549545D01*
X100300980Y-106575989D01*
X100299500Y-106583195D01*
X100299500Y-106644534D01*
X100299321Y-106649243D01*
X100294662Y-106710411D01*
X100296707Y-106726464D01*
X100299003Y-106744497D01*
X100299500Y-106752325D01*
X100299500Y-110787283D01*
X100297243Y-110876362D01*
X100297243Y-110876370D01*
X100308064Y-110936739D01*
X100308718Y-110941404D01*
X100314925Y-111002430D01*
X100314927Y-111002444D01*
X100325208Y-111035213D01*
X100327079Y-111042837D01*
X100333142Y-111076652D01*
X100333142Y-111076655D01*
X100355894Y-111133612D01*
X100357474Y-111138051D01*
X100375841Y-111196588D01*
X100375844Y-111196595D01*
X100392509Y-111226619D01*
X100395879Y-111233714D01*
X100408623Y-111265617D01*
X100429537Y-111297351D01*
X100449991Y-111364159D01*
X100449999Y-111365585D01*
X100449999Y-111612956D01*
X100430314Y-111679995D01*
X100377510Y-111725750D01*
X100308352Y-111735694D01*
X100233975Y-111725000D01*
X100166025Y-111725000D01*
X100091647Y-111735694D01*
X100022488Y-111725750D01*
X99969684Y-111679995D01*
X99950000Y-111612956D01*
X99950000Y-110744364D01*
X99949999Y-110744364D01*
X99736513Y-110801567D01*
X99736507Y-110801570D01*
X99522422Y-110901399D01*
X99522420Y-110901400D01*
X99328926Y-111036886D01*
X99328920Y-111036891D01*
X99161891Y-111203920D01*
X99161886Y-111203926D01*
X99026400Y-111397420D01*
X99026399Y-111397422D01*
X98926570Y-111611507D01*
X98926566Y-111611516D01*
X98865432Y-111839673D01*
X98865430Y-111839683D01*
X98855779Y-111950000D01*
X99612708Y-111950000D01*
X99679747Y-111969685D01*
X99725502Y-112022489D01*
X99735446Y-112091647D01*
X99731686Y-112108933D01*
X99725000Y-112131705D01*
X99725000Y-112268294D01*
X99731686Y-112291067D01*
X99731684Y-112360937D01*
X99693909Y-112419714D01*
X99630353Y-112448738D01*
X99612708Y-112450000D01*
X98855779Y-112450000D01*
X98865430Y-112560316D01*
X98865432Y-112560326D01*
X98926566Y-112788483D01*
X98926570Y-112788492D01*
X99026399Y-113002577D01*
X99026400Y-113002579D01*
X99161886Y-113196073D01*
X99161891Y-113196079D01*
X99328917Y-113363105D01*
X99522421Y-113498600D01*
X99736507Y-113598429D01*
X99736516Y-113598433D01*
X99950000Y-113655634D01*
X99950000Y-112787044D01*
X99969685Y-112720005D01*
X100022489Y-112674250D01*
X100091647Y-112664306D01*
X100097066Y-112665085D01*
X100166025Y-112675000D01*
X100166026Y-112675000D01*
X100233974Y-112675000D01*
X100233975Y-112675000D01*
X100303570Y-112664993D01*
X100308353Y-112664306D01*
X100377512Y-112674250D01*
X100430316Y-112720005D01*
X100450000Y-112787044D01*
X100450000Y-113655633D01*
X100657925Y-113599922D01*
X100727775Y-113601585D01*
X100785637Y-113640748D01*
X100813141Y-113704976D01*
X100801554Y-113773879D01*
X100777699Y-113807378D01*
X99276531Y-115308548D01*
X99249371Y-115334365D01*
X99187220Y-115366286D01*
X99117677Y-115359538D01*
X99076258Y-115332172D01*
X90166517Y-106422431D01*
X93072109Y-106422431D01*
X93091895Y-106610687D01*
X93091896Y-106610690D01*
X93150387Y-106790708D01*
X93150390Y-106790715D01*
X93245036Y-106954647D01*
X93342632Y-107063038D01*
X93371698Y-107095319D01*
X93524834Y-107206579D01*
X93524839Y-107206582D01*
X93697761Y-107283573D01*
X93697766Y-107283575D01*
X93882923Y-107322931D01*
X93882924Y-107322931D01*
X94072213Y-107322931D01*
X94072215Y-107322931D01*
X94257372Y-107283575D01*
X94430299Y-107206582D01*
X94583440Y-107095319D01*
X94710102Y-106954647D01*
X94804748Y-106790715D01*
X94863243Y-106610687D01*
X94883029Y-106422431D01*
X94880501Y-106398378D01*
X94893071Y-106329649D01*
X94916138Y-106297740D01*
X95950468Y-105263411D01*
X96011792Y-105229926D01*
X96038150Y-105227092D01*
X97278226Y-105227092D01*
X97345265Y-105246777D01*
X97370376Y-105268120D01*
X97421123Y-105324480D01*
X97421129Y-105324485D01*
X97574259Y-105435740D01*
X97574264Y-105435743D01*
X97747186Y-105512734D01*
X97747191Y-105512736D01*
X97932348Y-105552092D01*
X97932349Y-105552092D01*
X98121638Y-105552092D01*
X98121640Y-105552092D01*
X98306797Y-105512736D01*
X98479724Y-105435743D01*
X98632865Y-105324480D01*
X98759527Y-105183808D01*
X98854173Y-105019876D01*
X98912668Y-104839848D01*
X98932454Y-104651592D01*
X98912668Y-104463336D01*
X98854173Y-104283308D01*
X98759527Y-104119376D01*
X98632865Y-103978704D01*
X98632857Y-103978698D01*
X98479728Y-103867443D01*
X98479723Y-103867440D01*
X98306801Y-103790449D01*
X98306796Y-103790447D01*
X98160994Y-103759457D01*
X98121640Y-103751092D01*
X97932348Y-103751092D01*
X97899891Y-103757990D01*
X97747191Y-103790447D01*
X97747186Y-103790449D01*
X97574264Y-103867440D01*
X97574259Y-103867443D01*
X97421129Y-103978698D01*
X97421123Y-103978703D01*
X97370376Y-104035064D01*
X97310889Y-104071713D01*
X97278226Y-104076092D01*
X95790194Y-104076092D01*
X95782096Y-104075561D01*
X95748408Y-104071126D01*
X95710688Y-104076092D01*
X95598172Y-104090905D01*
X95575008Y-104100500D01*
X95458175Y-104148892D01*
X95369253Y-104217125D01*
X95369232Y-104217141D01*
X95337956Y-104241142D01*
X95317269Y-104268099D01*
X95311919Y-104274200D01*
X94100508Y-105485612D01*
X94039185Y-105519097D01*
X94012827Y-105521931D01*
X93882923Y-105521931D01*
X93850466Y-105528829D01*
X93697766Y-105561286D01*
X93697761Y-105561288D01*
X93524839Y-105638279D01*
X93524834Y-105638282D01*
X93371698Y-105749542D01*
X93245035Y-105890216D01*
X93150390Y-106054146D01*
X93150387Y-106054153D01*
X93091896Y-106234171D01*
X93091895Y-106234175D01*
X93072109Y-106422431D01*
X90166517Y-106422431D01*
X90145618Y-106401532D01*
X90084227Y-106336949D01*
X90084226Y-106336948D01*
X90084225Y-106336947D01*
X90048222Y-106311888D01*
X90033875Y-106301902D01*
X90030112Y-106299064D01*
X89982579Y-106260305D01*
X89982572Y-106260300D01*
X89952125Y-106244397D01*
X89945417Y-106240334D01*
X89917215Y-106220705D01*
X89917212Y-106220703D01*
X89917211Y-106220703D01*
X89917207Y-106220701D01*
X89860846Y-106196514D01*
X89856590Y-106194493D01*
X89802223Y-106166094D01*
X89802216Y-106166091D01*
X89802215Y-106166091D01*
X89796174Y-106164362D01*
X89769196Y-106156642D01*
X89761796Y-106154008D01*
X89730223Y-106140459D01*
X89730224Y-106140459D01*
X89670132Y-106128109D01*
X89665557Y-106126986D01*
X89606586Y-106110113D01*
X89606591Y-106110113D01*
X89572324Y-106107503D01*
X89564546Y-106106412D01*
X89530908Y-106099500D01*
X89530907Y-106099500D01*
X89469568Y-106099500D01*
X89464861Y-106099321D01*
X89459287Y-106098896D01*
X89403690Y-106094662D01*
X89383755Y-106097201D01*
X89369606Y-106099003D01*
X89361777Y-106099500D01*
X62312677Y-106099500D01*
X62223637Y-106097244D01*
X62223626Y-106097245D01*
X62163271Y-106108062D01*
X62158607Y-106108716D01*
X62097563Y-106114925D01*
X62097555Y-106114927D01*
X62064781Y-106125210D01*
X62057153Y-106127082D01*
X62023349Y-106133141D01*
X61966381Y-106155895D01*
X61961945Y-106157474D01*
X61903414Y-106175840D01*
X61903410Y-106175842D01*
X61873378Y-106192510D01*
X61866284Y-106195879D01*
X61834382Y-106208623D01*
X61834377Y-106208625D01*
X61783156Y-106242381D01*
X61779128Y-106244822D01*
X61725501Y-106274588D01*
X61699434Y-106296965D01*
X61693165Y-106301692D01*
X61664484Y-106320595D01*
X61664478Y-106320600D01*
X61621109Y-106363968D01*
X61617655Y-106367169D01*
X61571102Y-106407136D01*
X61571101Y-106407137D01*
X61550077Y-106434298D01*
X61544885Y-106440193D01*
X59421899Y-108563181D01*
X59360576Y-108596666D01*
X59334218Y-108599500D01*
X58124500Y-108599500D01*
X58057461Y-108579815D01*
X58011706Y-108527011D01*
X58000500Y-108475500D01*
X58000500Y-102192402D01*
X60385034Y-102192402D01*
X60404858Y-102418999D01*
X60404860Y-102419010D01*
X60463730Y-102638717D01*
X60463734Y-102638726D01*
X60559865Y-102844881D01*
X60559866Y-102844883D01*
X60610973Y-102917871D01*
X60610973Y-102917872D01*
X61152580Y-102376265D01*
X61213903Y-102342780D01*
X61283594Y-102347764D01*
X61339528Y-102389635D01*
X61350742Y-102407646D01*
X61356527Y-102418999D01*
X61362358Y-102430444D01*
X61362363Y-102430450D01*
X61451949Y-102520036D01*
X61451951Y-102520037D01*
X61451955Y-102520041D01*
X61474747Y-102531654D01*
X61525542Y-102579628D01*
X61542337Y-102647449D01*
X61519799Y-102713584D01*
X61506132Y-102729819D01*
X60964526Y-103271425D01*
X60964526Y-103271426D01*
X61037512Y-103322531D01*
X61037516Y-103322533D01*
X61243673Y-103418665D01*
X61243682Y-103418669D01*
X61463389Y-103477539D01*
X61463400Y-103477541D01*
X61689998Y-103497366D01*
X61690002Y-103497366D01*
X61916599Y-103477541D01*
X61916610Y-103477539D01*
X62136317Y-103418669D01*
X62136331Y-103418664D01*
X62342478Y-103322536D01*
X62415472Y-103271425D01*
X61873866Y-102729819D01*
X61840381Y-102668496D01*
X61845365Y-102598804D01*
X61887237Y-102542871D01*
X61905245Y-102531658D01*
X61928045Y-102520041D01*
X62017641Y-102430445D01*
X62029254Y-102407652D01*
X62077225Y-102356858D01*
X62145046Y-102340061D01*
X62211181Y-102362597D01*
X62227419Y-102376266D01*
X62769025Y-102917872D01*
X62820136Y-102844878D01*
X62916264Y-102638731D01*
X62916269Y-102638717D01*
X62975139Y-102419010D01*
X62975141Y-102418999D01*
X62994966Y-102192402D01*
X62994966Y-102192397D01*
X62975141Y-101965800D01*
X62975139Y-101965789D01*
X62916269Y-101746082D01*
X62916265Y-101746073D01*
X62820133Y-101539916D01*
X62820131Y-101539912D01*
X62769026Y-101466926D01*
X62769025Y-101466926D01*
X62227419Y-102008532D01*
X62166096Y-102042017D01*
X62096404Y-102037033D01*
X62040471Y-101995161D01*
X62029256Y-101977151D01*
X62017641Y-101954355D01*
X62017637Y-101954351D01*
X62017636Y-101954349D01*
X61928050Y-101864763D01*
X61928044Y-101864758D01*
X61918109Y-101859696D01*
X61905250Y-101853144D01*
X61854456Y-101805173D01*
X61837660Y-101737352D01*
X61860197Y-101671217D01*
X61873865Y-101654980D01*
X62415472Y-101113373D01*
X62342483Y-101062266D01*
X62342481Y-101062265D01*
X62136326Y-100966134D01*
X62136317Y-100966130D01*
X61916610Y-100907260D01*
X61916599Y-100907258D01*
X61690002Y-100887434D01*
X61689998Y-100887434D01*
X61463400Y-100907258D01*
X61463389Y-100907260D01*
X61243682Y-100966130D01*
X61243673Y-100966134D01*
X61037513Y-101062268D01*
X60964526Y-101113373D01*
X61506133Y-101654980D01*
X61539618Y-101716303D01*
X61534634Y-101785995D01*
X61492762Y-101841928D01*
X61474748Y-101853145D01*
X61451956Y-101864758D01*
X61451949Y-101864763D01*
X61362363Y-101954349D01*
X61362358Y-101954356D01*
X61350745Y-101977148D01*
X61302770Y-102027944D01*
X61234949Y-102044738D01*
X61168814Y-102022200D01*
X61152580Y-102008533D01*
X60610973Y-101466926D01*
X60559868Y-101539913D01*
X60463734Y-101746073D01*
X60463730Y-101746082D01*
X60404860Y-101965789D01*
X60404858Y-101965800D01*
X60385034Y-102192397D01*
X60385034Y-102192402D01*
X58000500Y-102192402D01*
X58000500Y-101549256D01*
X57985074Y-101397560D01*
X57924162Y-101203420D01*
X57924160Y-101203416D01*
X57924159Y-101203412D01*
X57825409Y-101025498D01*
X57825408Y-101025497D01*
X57825407Y-101025495D01*
X57692867Y-100871106D01*
X57692865Y-100871104D01*
X57531962Y-100746554D01*
X57531959Y-100746553D01*
X57531958Y-100746552D01*
X57349271Y-100656940D01*
X57152285Y-100605937D01*
X57152287Y-100605937D01*
X56973081Y-100596849D01*
X56949064Y-100595631D01*
X56949063Y-100595631D01*
X56949061Y-100595631D01*
X56747936Y-100626442D01*
X56747924Y-100626445D01*
X56557118Y-100697111D01*
X56557111Y-100697115D01*
X56384432Y-100804745D01*
X56384427Y-100804749D01*
X56236949Y-100944938D01*
X56236947Y-100944940D01*
X56236947Y-100944941D01*
X56222199Y-100966130D01*
X56120705Y-101111949D01*
X56040459Y-101298943D01*
X55999500Y-101498258D01*
X55999500Y-102389916D01*
X55979815Y-102456955D01*
X55927011Y-102502710D01*
X55857853Y-102512654D01*
X55849720Y-102511206D01*
X55794646Y-102499500D01*
X55605354Y-102499500D01*
X55572897Y-102506398D01*
X55420197Y-102538855D01*
X55420192Y-102538857D01*
X55247270Y-102615848D01*
X55247265Y-102615851D01*
X55094130Y-102727110D01*
X55094126Y-102727114D01*
X55088400Y-102733474D01*
X55028913Y-102770121D01*
X54996252Y-102774500D01*
X54382738Y-102774500D01*
X54367121Y-102772776D01*
X54367094Y-102773062D01*
X54359332Y-102772327D01*
X54290204Y-102774500D01*
X54260650Y-102774500D01*
X54259929Y-102774590D01*
X54253757Y-102775369D01*
X54247945Y-102775826D01*
X54201373Y-102777290D01*
X54201372Y-102777290D01*
X54182129Y-102782881D01*
X54163079Y-102786825D01*
X54143211Y-102789334D01*
X54143209Y-102789335D01*
X54099884Y-102806488D01*
X54094357Y-102808380D01*
X54049610Y-102821381D01*
X54049609Y-102821382D01*
X54032367Y-102831579D01*
X54014899Y-102840137D01*
X53996269Y-102847513D01*
X53996267Y-102847514D01*
X53958576Y-102874898D01*
X53953694Y-102878105D01*
X53913579Y-102901830D01*
X53899408Y-102916000D01*
X53884623Y-102928628D01*
X53868412Y-102940407D01*
X53838709Y-102976310D01*
X53834777Y-102980631D01*
X52352228Y-104463181D01*
X52290905Y-104496666D01*
X52264547Y-104499500D01*
X52205354Y-104499500D01*
X52172897Y-104506398D01*
X52020197Y-104538855D01*
X52020192Y-104538857D01*
X51847270Y-104615848D01*
X51847265Y-104615851D01*
X51694129Y-104727111D01*
X51567466Y-104867785D01*
X51472821Y-105031715D01*
X51472818Y-105031722D01*
X51423403Y-105183808D01*
X51414326Y-105211744D01*
X51394540Y-105400000D01*
X51414326Y-105588256D01*
X51414327Y-105588259D01*
X51472818Y-105768277D01*
X51472821Y-105768284D01*
X51567467Y-105932216D01*
X51677260Y-106054153D01*
X51694129Y-106072888D01*
X51847265Y-106184148D01*
X51847270Y-106184151D01*
X52020192Y-106261142D01*
X52020197Y-106261144D01*
X52205354Y-106300500D01*
X52205355Y-106300500D01*
X52394644Y-106300500D01*
X52394646Y-106300500D01*
X52579803Y-106261144D01*
X52752730Y-106184151D01*
X52905871Y-106072888D01*
X53032533Y-105932216D01*
X53127179Y-105768284D01*
X53185674Y-105588256D01*
X53203321Y-105420344D01*
X53229904Y-105355734D01*
X53238951Y-105345638D01*
X54522771Y-104061819D01*
X54584095Y-104028334D01*
X54610453Y-104025500D01*
X54996252Y-104025500D01*
X55063291Y-104045185D01*
X55088400Y-104066526D01*
X55094126Y-104072885D01*
X55094130Y-104072889D01*
X55247265Y-104184148D01*
X55247270Y-104184151D01*
X55420192Y-104261142D01*
X55420197Y-104261144D01*
X55605354Y-104300500D01*
X55605355Y-104300500D01*
X55794644Y-104300500D01*
X55794646Y-104300500D01*
X55849722Y-104288793D01*
X55919385Y-104294108D01*
X55975119Y-104336245D01*
X55999225Y-104401825D01*
X55999500Y-104410083D01*
X55999500Y-108475500D01*
X55979815Y-108542539D01*
X55927011Y-108588294D01*
X55875500Y-108599500D01*
X53612677Y-108599500D01*
X53523637Y-108597244D01*
X53523626Y-108597245D01*
X53463271Y-108608062D01*
X53458607Y-108608716D01*
X53397563Y-108614925D01*
X53397555Y-108614927D01*
X53364781Y-108625210D01*
X53357153Y-108627082D01*
X53323349Y-108633141D01*
X53266381Y-108655895D01*
X53261945Y-108657474D01*
X53203414Y-108675840D01*
X53203410Y-108675842D01*
X53173378Y-108692510D01*
X53166284Y-108695879D01*
X53134382Y-108708623D01*
X53134377Y-108708625D01*
X53083156Y-108742381D01*
X53079128Y-108744822D01*
X53025501Y-108774588D01*
X52999434Y-108796965D01*
X52993165Y-108801692D01*
X52964484Y-108820595D01*
X52964478Y-108820600D01*
X52921109Y-108863968D01*
X52917655Y-108867169D01*
X52871102Y-108907136D01*
X52850076Y-108934298D01*
X52844885Y-108940192D01*
X51096897Y-110688181D01*
X51035574Y-110721666D01*
X51009216Y-110724500D01*
X50349998Y-110724500D01*
X50349980Y-110724501D01*
X50247203Y-110735000D01*
X50247200Y-110735001D01*
X50080668Y-110790185D01*
X50080663Y-110790187D01*
X49931342Y-110882289D01*
X49807289Y-111006342D01*
X49711821Y-111161121D01*
X49659873Y-111207845D01*
X49590910Y-111219068D01*
X49526828Y-111191224D01*
X49518601Y-111183705D01*
X49371402Y-111036506D01*
X49371395Y-111036501D01*
X49177834Y-110900967D01*
X49177830Y-110900965D01*
X49125069Y-110876362D01*
X48963663Y-110801097D01*
X48963659Y-110801096D01*
X48963655Y-110801094D01*
X48735413Y-110739938D01*
X48735403Y-110739936D01*
X48500001Y-110719341D01*
X48499999Y-110719341D01*
X48264596Y-110739936D01*
X48264586Y-110739938D01*
X48036344Y-110801094D01*
X48036335Y-110801098D01*
X47822171Y-110900964D01*
X47822169Y-110900965D01*
X47628597Y-111036505D01*
X47461508Y-111203594D01*
X47351269Y-111361032D01*
X47296692Y-111404656D01*
X47227193Y-111411849D01*
X47164839Y-111380327D01*
X47148119Y-111361031D01*
X47038113Y-111203926D01*
X47038108Y-111203920D01*
X46871082Y-111036894D01*
X46677578Y-110901399D01*
X46463492Y-110801570D01*
X46463486Y-110801567D01*
X46250000Y-110744364D01*
X46250000Y-111612956D01*
X46230315Y-111679995D01*
X46177511Y-111725750D01*
X46108353Y-111735694D01*
X46082064Y-111731914D01*
X46033975Y-111725000D01*
X45966025Y-111725000D01*
X45891647Y-111735694D01*
X45822488Y-111725750D01*
X45769684Y-111679995D01*
X45750000Y-111612956D01*
X45750000Y-110744364D01*
X45749999Y-110744364D01*
X45536513Y-110801567D01*
X45536507Y-110801570D01*
X45322422Y-110901399D01*
X45322420Y-110901400D01*
X45128926Y-111036886D01*
X45128920Y-111036891D01*
X44961891Y-111203920D01*
X44961886Y-111203926D01*
X44826400Y-111397420D01*
X44826399Y-111397422D01*
X44726570Y-111611507D01*
X44726566Y-111611516D01*
X44665432Y-111839673D01*
X44665430Y-111839683D01*
X44655779Y-111950000D01*
X45412708Y-111950000D01*
X45479747Y-111969685D01*
X45525502Y-112022489D01*
X45535446Y-112091647D01*
X45531686Y-112108933D01*
X45525000Y-112131705D01*
X45525000Y-112268294D01*
X45531686Y-112291067D01*
X45531684Y-112360937D01*
X45493909Y-112419714D01*
X45430353Y-112448738D01*
X45412708Y-112450000D01*
X44655779Y-112450000D01*
X44665430Y-112560316D01*
X44665432Y-112560326D01*
X44726566Y-112788483D01*
X44726570Y-112788492D01*
X44826399Y-113002577D01*
X44826400Y-113002579D01*
X44961886Y-113196073D01*
X44961891Y-113196079D01*
X45128917Y-113363105D01*
X45322421Y-113498600D01*
X45428249Y-113547948D01*
X45480688Y-113594120D01*
X45499840Y-113661314D01*
X45479624Y-113728195D01*
X45436024Y-113768748D01*
X45425501Y-113774588D01*
X45399434Y-113796965D01*
X45393165Y-113801692D01*
X45364481Y-113820597D01*
X45364477Y-113820601D01*
X45321112Y-113863967D01*
X45317656Y-113867169D01*
X45271105Y-113907134D01*
X45250076Y-113934299D01*
X45244885Y-113940192D01*
X44276531Y-114908547D01*
X44211946Y-114969942D01*
X44176899Y-115020294D01*
X44174062Y-115024056D01*
X44135302Y-115071592D01*
X44135299Y-115071597D01*
X44119392Y-115102047D01*
X44115324Y-115108761D01*
X44095702Y-115136954D01*
X44071509Y-115193330D01*
X44069488Y-115197584D01*
X44041091Y-115251951D01*
X44041090Y-115251952D01*
X44031640Y-115284975D01*
X44029007Y-115292371D01*
X44015459Y-115323943D01*
X44003113Y-115384019D01*
X44001990Y-115388595D01*
X43985113Y-115447577D01*
X43985112Y-115447586D01*
X43983653Y-115466733D01*
X43958931Y-115532083D01*
X43903348Y-115573491D01*
X43882665Y-115581205D01*
X43767455Y-115667452D01*
X43767452Y-115667455D01*
X43681206Y-115782664D01*
X43681202Y-115782671D01*
X43630908Y-115917517D01*
X43624501Y-115977116D01*
X43624500Y-115977135D01*
X43624500Y-117772870D01*
X43624501Y-117772876D01*
X43630908Y-117832483D01*
X43681202Y-117967328D01*
X43681206Y-117967335D01*
X43767452Y-118082544D01*
X43767455Y-118082547D01*
X43889769Y-118174112D01*
X43888247Y-118176144D01*
X43928177Y-118216075D01*
X43943028Y-118284348D01*
X43918610Y-118349812D01*
X43862676Y-118391682D01*
X43819344Y-118399500D01*
X42524760Y-118399500D01*
X42524554Y-118399459D01*
X42500000Y-118399459D01*
X42499901Y-118399500D01*
X42499617Y-118399616D01*
X42499615Y-118399618D01*
X42499459Y-118399999D01*
X42499476Y-118424616D01*
X42499471Y-118424616D01*
X42499500Y-118424759D01*
X42499500Y-119875500D01*
X42479815Y-119942539D01*
X42427011Y-119988294D01*
X42375500Y-119999500D01*
X20264002Y-119999500D01*
X20196963Y-119979815D01*
X20151208Y-119927011D01*
X20141264Y-119857853D01*
X20156609Y-119813511D01*
X22935046Y-115000003D01*
X25805385Y-115000003D01*
X25824688Y-115331426D01*
X25824689Y-115331437D01*
X25882333Y-115658351D01*
X25882336Y-115658365D01*
X25977551Y-115976408D01*
X26109042Y-116281236D01*
X26109048Y-116281249D01*
X26275039Y-116568756D01*
X26472573Y-116834088D01*
X27441316Y-115865344D01*
X27502639Y-115831859D01*
X27572330Y-115836843D01*
X27617080Y-115868446D01*
X27618277Y-115867250D01*
X27792965Y-116041938D01*
X27791597Y-116043305D01*
X27825589Y-116094374D01*
X27826711Y-116164235D01*
X27794869Y-116218897D01*
X26829504Y-117184261D01*
X26829505Y-117184262D01*
X26955425Y-117289922D01*
X27232803Y-117472356D01*
X27529467Y-117621347D01*
X27529473Y-117621350D01*
X27841428Y-117734892D01*
X27841449Y-117734899D01*
X28164463Y-117811456D01*
X28164478Y-117811458D01*
X28494227Y-117849999D01*
X28494228Y-117850000D01*
X28826202Y-117850000D01*
X28826202Y-117849999D01*
X29155951Y-117811458D01*
X29155966Y-117811456D01*
X29478980Y-117734899D01*
X29479001Y-117734892D01*
X29790956Y-117621350D01*
X29790962Y-117621347D01*
X30087626Y-117472356D01*
X30364998Y-117289926D01*
X30365000Y-117289925D01*
X30490923Y-117184262D01*
X30490924Y-117184261D01*
X29525560Y-116218898D01*
X29492075Y-116157575D01*
X29497059Y-116087883D01*
X29528668Y-116043142D01*
X29527465Y-116041939D01*
X29702154Y-115867250D01*
X29703526Y-115868622D01*
X29754560Y-115834635D01*
X29824420Y-115833494D01*
X29879113Y-115865345D01*
X30847855Y-116834088D01*
X31045390Y-116568756D01*
X31211381Y-116281249D01*
X31211387Y-116281236D01*
X31342878Y-115976408D01*
X31438093Y-115658365D01*
X31438096Y-115658351D01*
X31495740Y-115331437D01*
X31495741Y-115331426D01*
X31515045Y-115000003D01*
X31515045Y-114999996D01*
X31495741Y-114668573D01*
X31495740Y-114668562D01*
X31438096Y-114341648D01*
X31438093Y-114341634D01*
X31342878Y-114023591D01*
X31211387Y-113718763D01*
X31211381Y-113718750D01*
X31045390Y-113431243D01*
X30847855Y-113165910D01*
X29879112Y-114134654D01*
X29817789Y-114168139D01*
X29748097Y-114163155D01*
X29703351Y-114131551D01*
X29702153Y-114132750D01*
X29527465Y-113958062D01*
X29528830Y-113956696D01*
X29494836Y-113905612D01*
X29493720Y-113835751D01*
X29525559Y-113781101D01*
X30490924Y-112815737D01*
X30490923Y-112815736D01*
X30365004Y-112710077D01*
X30087626Y-112527643D01*
X29790962Y-112378652D01*
X29790956Y-112378649D01*
X29479001Y-112265107D01*
X29478980Y-112265100D01*
X29155966Y-112188543D01*
X29155951Y-112188541D01*
X28826202Y-112150000D01*
X28494228Y-112150000D01*
X28164478Y-112188541D01*
X28164463Y-112188543D01*
X27841449Y-112265100D01*
X27841428Y-112265107D01*
X27529473Y-112378649D01*
X27529467Y-112378652D01*
X27232803Y-112527643D01*
X26955430Y-112710074D01*
X26829504Y-112815736D01*
X27794869Y-113781101D01*
X27828354Y-113842424D01*
X27823370Y-113912116D01*
X27791777Y-113956874D01*
X27792965Y-113958062D01*
X27618277Y-114132750D01*
X27616919Y-114131392D01*
X27565766Y-114165396D01*
X27495904Y-114166476D01*
X27441316Y-114134654D01*
X26472572Y-113165910D01*
X26275042Y-113431239D01*
X26109048Y-113718750D01*
X26109042Y-113718763D01*
X25977551Y-114023591D01*
X25882336Y-114341634D01*
X25882333Y-114341648D01*
X25824689Y-114668562D01*
X25824688Y-114668573D01*
X25805385Y-114999996D01*
X25805385Y-115000003D01*
X22935046Y-115000003D01*
X26915918Y-108103334D01*
X29716803Y-103250936D01*
X46895631Y-103250936D01*
X46926442Y-103452063D01*
X46926445Y-103452075D01*
X46997111Y-103642881D01*
X46997113Y-103642884D01*
X46997114Y-103642887D01*
X47012704Y-103667899D01*
X47104745Y-103815567D01*
X47104747Y-103815569D01*
X47104748Y-103815571D01*
X47244941Y-103963053D01*
X47362944Y-104045185D01*
X47411949Y-104079294D01*
X47411950Y-104079294D01*
X47411951Y-104079295D01*
X47598942Y-104159540D01*
X47798259Y-104200500D01*
X51561211Y-104200500D01*
X51650285Y-104202757D01*
X51650285Y-104202756D01*
X51650290Y-104202757D01*
X51710680Y-104191932D01*
X51715339Y-104191280D01*
X51757534Y-104186988D01*
X51776365Y-104185074D01*
X51809154Y-104174786D01*
X51816767Y-104172918D01*
X51850580Y-104166858D01*
X51907548Y-104144101D01*
X51911980Y-104142524D01*
X51970515Y-104124159D01*
X52000554Y-104107484D01*
X52007635Y-104104122D01*
X52039544Y-104091377D01*
X52090781Y-104057608D01*
X52094778Y-104055187D01*
X52148429Y-104025409D01*
X52174495Y-104003030D01*
X52180770Y-103998300D01*
X52209446Y-103979402D01*
X52252819Y-103936027D01*
X52256277Y-103932823D01*
X52259540Y-103930020D01*
X52302822Y-103892866D01*
X52323855Y-103865691D01*
X52329025Y-103859821D01*
X57572394Y-98616452D01*
X57636980Y-98555059D01*
X57671885Y-98504908D01*
X57672026Y-98504706D01*
X57674865Y-98500941D01*
X57678539Y-98496435D01*
X57713625Y-98453407D01*
X57729528Y-98422960D01*
X57733601Y-98416239D01*
X57742728Y-98403125D01*
X57753222Y-98388049D01*
X57777419Y-98331660D01*
X57779425Y-98327435D01*
X57807836Y-98273049D01*
X57817287Y-98240015D01*
X57819918Y-98232628D01*
X57822747Y-98226036D01*
X57833467Y-98201058D01*
X57845820Y-98140940D01*
X57846933Y-98136412D01*
X57863814Y-98077418D01*
X57866422Y-98043155D01*
X57867514Y-98035376D01*
X57869212Y-98027114D01*
X57874427Y-98001741D01*
X57874427Y-97940375D01*
X57874603Y-97935721D01*
X57879264Y-97874524D01*
X57874922Y-97840430D01*
X57874427Y-97832619D01*
X57874427Y-96091855D01*
X57894112Y-96024815D01*
X57910741Y-96004179D01*
X65170969Y-88743950D01*
X65232290Y-88710467D01*
X65301982Y-88715451D01*
X65357915Y-88757323D01*
X65382332Y-88822787D01*
X65382153Y-88842704D01*
X64309120Y-100813177D01*
X64283528Y-100878191D01*
X64228949Y-100918288D01*
X64147669Y-100948603D01*
X64147664Y-100948606D01*
X64032455Y-101034852D01*
X64032452Y-101034855D01*
X63946206Y-101150064D01*
X63946202Y-101150071D01*
X63895908Y-101284917D01*
X63889501Y-101344516D01*
X63889500Y-101344535D01*
X63889500Y-103040270D01*
X63889501Y-103040276D01*
X63895908Y-103099883D01*
X63946202Y-103234728D01*
X63946206Y-103234735D01*
X64032452Y-103349944D01*
X64032455Y-103349947D01*
X64147664Y-103436193D01*
X64147671Y-103436197D01*
X64282517Y-103486491D01*
X64282516Y-103486491D01*
X64289444Y-103487235D01*
X64342127Y-103492900D01*
X66037872Y-103492899D01*
X66097483Y-103486491D01*
X66232331Y-103436196D01*
X66347546Y-103349946D01*
X66433796Y-103234731D01*
X66484091Y-103099883D01*
X66490500Y-103040273D01*
X66490499Y-102771354D01*
X66510183Y-102704316D01*
X66562331Y-102658863D01*
X69671668Y-101217014D01*
X69740767Y-101206671D01*
X69804490Y-101235326D01*
X69842604Y-101293884D01*
X69847190Y-101342111D01*
X69839500Y-101417381D01*
X69839500Y-102967401D01*
X69839501Y-102967418D01*
X69850000Y-103070196D01*
X69850001Y-103070199D01*
X69895894Y-103208694D01*
X69905186Y-103236734D01*
X69997288Y-103386056D01*
X70121344Y-103510112D01*
X70270666Y-103602214D01*
X70437203Y-103657399D01*
X70539991Y-103667900D01*
X71840008Y-103667899D01*
X71942797Y-103657399D01*
X72109334Y-103602214D01*
X72258656Y-103510112D01*
X72382712Y-103386056D01*
X72474814Y-103236734D01*
X72474814Y-103236731D01*
X72478178Y-103231279D01*
X72530126Y-103184554D01*
X72599088Y-103173331D01*
X72663170Y-103201174D01*
X72671398Y-103208694D01*
X72818599Y-103355895D01*
X72915384Y-103423665D01*
X73012165Y-103491432D01*
X73012167Y-103491433D01*
X73012170Y-103491435D01*
X73226337Y-103591303D01*
X73454592Y-103652463D01*
X73631034Y-103667900D01*
X73689999Y-103673059D01*
X73690000Y-103673059D01*
X73690001Y-103673059D01*
X73748966Y-103667900D01*
X73925408Y-103652463D01*
X74153663Y-103591303D01*
X74367829Y-103491435D01*
X74561401Y-103355895D01*
X74728495Y-103188801D01*
X74838426Y-103031801D01*
X74893001Y-102988178D01*
X74962500Y-102980984D01*
X75024855Y-103012506D01*
X75041571Y-103031798D01*
X75112144Y-103132587D01*
X75151506Y-103188803D01*
X75285235Y-103322531D01*
X75318599Y-103355895D01*
X75415384Y-103423665D01*
X75512165Y-103491432D01*
X75512167Y-103491433D01*
X75512170Y-103491435D01*
X75726337Y-103591303D01*
X75954592Y-103652463D01*
X76131034Y-103667900D01*
X76189999Y-103673059D01*
X76190000Y-103673059D01*
X76190001Y-103673059D01*
X76248966Y-103667900D01*
X76425408Y-103652463D01*
X76653663Y-103591303D01*
X76867829Y-103491435D01*
X77061401Y-103355895D01*
X77228495Y-103188801D01*
X77338732Y-103031365D01*
X77393306Y-102987742D01*
X77462805Y-102980548D01*
X77525159Y-103012070D01*
X77541880Y-103031367D01*
X77651886Y-103188473D01*
X77651891Y-103188479D01*
X77818917Y-103355505D01*
X78012421Y-103491000D01*
X78226507Y-103590829D01*
X78226516Y-103590833D01*
X78440000Y-103648034D01*
X78440000Y-102779444D01*
X78459685Y-102712405D01*
X78512489Y-102666650D01*
X78581647Y-102656706D01*
X78587066Y-102657485D01*
X78656025Y-102667400D01*
X78656026Y-102667400D01*
X78723974Y-102667400D01*
X78723975Y-102667400D01*
X78793570Y-102657393D01*
X78798353Y-102656706D01*
X78867512Y-102666650D01*
X78920316Y-102712405D01*
X78940000Y-102779444D01*
X78940000Y-103648033D01*
X79153483Y-103590833D01*
X79153492Y-103590829D01*
X79367577Y-103491000D01*
X79367579Y-103490999D01*
X79561073Y-103355513D01*
X79561079Y-103355508D01*
X79728108Y-103188479D01*
X79728113Y-103188473D01*
X79863599Y-102994979D01*
X79863600Y-102994977D01*
X79963429Y-102780892D01*
X79963433Y-102780883D01*
X80024567Y-102552726D01*
X80024569Y-102552716D01*
X80034221Y-102442400D01*
X79277292Y-102442400D01*
X79210253Y-102422715D01*
X79164498Y-102369911D01*
X79154554Y-102300753D01*
X79158314Y-102283467D01*
X79165000Y-102260694D01*
X79165000Y-102124105D01*
X79158314Y-102101333D01*
X79158316Y-102031463D01*
X79196091Y-101972686D01*
X79259647Y-101943662D01*
X79277292Y-101942400D01*
X80034221Y-101942400D01*
X80024569Y-101832083D01*
X80024567Y-101832073D01*
X79963433Y-101603916D01*
X79963429Y-101603907D01*
X79863600Y-101389822D01*
X79863599Y-101389820D01*
X79728113Y-101196326D01*
X79728108Y-101196320D01*
X79561082Y-101029294D01*
X79367578Y-100893799D01*
X79153492Y-100793970D01*
X79153486Y-100793967D01*
X78940000Y-100736764D01*
X78940000Y-101605356D01*
X78920315Y-101672395D01*
X78867511Y-101718150D01*
X78798353Y-101728094D01*
X78772064Y-101724314D01*
X78723975Y-101717400D01*
X78656025Y-101717400D01*
X78581647Y-101728094D01*
X78512488Y-101718150D01*
X78459684Y-101672395D01*
X78440000Y-101605356D01*
X78440000Y-100736764D01*
X78439999Y-100736764D01*
X78226513Y-100793967D01*
X78226507Y-100793970D01*
X78012422Y-100893799D01*
X78012420Y-100893800D01*
X77818926Y-101029286D01*
X77818920Y-101029291D01*
X77651891Y-101196320D01*
X77651890Y-101196322D01*
X77541880Y-101353432D01*
X77487303Y-101397057D01*
X77417804Y-101404249D01*
X77355450Y-101372727D01*
X77338730Y-101353431D01*
X77228494Y-101195997D01*
X77061402Y-101028906D01*
X77061395Y-101028901D01*
X77058924Y-101027171D01*
X76956848Y-100955696D01*
X76867834Y-100893367D01*
X76867830Y-100893365D01*
X76827777Y-100874688D01*
X76653663Y-100793497D01*
X76653659Y-100793496D01*
X76653655Y-100793494D01*
X76425413Y-100732338D01*
X76425403Y-100732336D01*
X76190001Y-100711741D01*
X76189999Y-100711741D01*
X75954596Y-100732336D01*
X75954586Y-100732338D01*
X75726344Y-100793494D01*
X75726335Y-100793498D01*
X75512171Y-100893364D01*
X75512169Y-100893365D01*
X75318597Y-101028905D01*
X75151508Y-101195994D01*
X75041574Y-101352996D01*
X74986997Y-101396621D01*
X74917498Y-101403813D01*
X74855144Y-101372291D01*
X74838424Y-101352995D01*
X74832500Y-101344535D01*
X74756032Y-101235326D01*
X74728494Y-101195997D01*
X74561402Y-101028906D01*
X74561395Y-101028901D01*
X74558924Y-101027171D01*
X74456848Y-100955696D01*
X74367834Y-100893367D01*
X74367830Y-100893365D01*
X74327777Y-100874688D01*
X74153663Y-100793497D01*
X74153659Y-100793496D01*
X74153655Y-100793494D01*
X73925413Y-100732338D01*
X73925403Y-100732336D01*
X73690001Y-100711741D01*
X73689999Y-100711741D01*
X73454596Y-100732336D01*
X73454586Y-100732338D01*
X73226344Y-100793494D01*
X73226335Y-100793498D01*
X73012171Y-100893364D01*
X73012169Y-100893365D01*
X72818597Y-101028905D01*
X72671398Y-101176105D01*
X72610075Y-101209590D01*
X72540383Y-101204606D01*
X72484450Y-101162734D01*
X72478178Y-101153520D01*
X72464722Y-101131705D01*
X72382712Y-100998744D01*
X72258656Y-100874688D01*
X72127786Y-100793967D01*
X72109336Y-100782587D01*
X72109331Y-100782585D01*
X72080855Y-100773149D01*
X71942797Y-100727401D01*
X71942795Y-100727400D01*
X71840016Y-100716900D01*
X71840009Y-100716900D01*
X71312326Y-100716900D01*
X71245287Y-100697215D01*
X71199532Y-100644411D01*
X71189588Y-100575253D01*
X71218613Y-100511697D01*
X71260161Y-100480406D01*
X73648522Y-99372885D01*
X87824894Y-92799077D01*
X92428200Y-92799077D01*
X92448024Y-93025674D01*
X92448026Y-93025685D01*
X92506896Y-93245392D01*
X92506900Y-93245401D01*
X92603031Y-93451557D01*
X92733508Y-93637895D01*
X92894345Y-93798732D01*
X93080684Y-93929209D01*
X93080686Y-93929210D01*
X93161437Y-93966864D01*
X93359964Y-93225952D01*
X93396329Y-93166292D01*
X93459176Y-93135763D01*
X93528552Y-93144058D01*
X93536003Y-93147546D01*
X93608018Y-93184240D01*
X93608020Y-93184240D01*
X93608022Y-93184241D01*
X93608021Y-93184241D01*
X93701680Y-93199075D01*
X93723205Y-93199075D01*
X93790244Y-93218760D01*
X93835999Y-93271564D01*
X93845943Y-93340722D01*
X93842980Y-93355169D01*
X93644401Y-94096275D01*
X93733164Y-94104041D01*
X93733168Y-94104041D01*
X93959765Y-94084216D01*
X93959776Y-94084214D01*
X94179483Y-94025344D01*
X94179492Y-94025340D01*
X94385648Y-93929209D01*
X94571986Y-93798732D01*
X94732823Y-93637895D01*
X94863301Y-93451554D01*
X94900955Y-93370802D01*
X94160044Y-93172275D01*
X94100384Y-93135910D01*
X94069855Y-93073063D01*
X94078150Y-93003687D01*
X94081638Y-92996235D01*
X94118331Y-92924223D01*
X94138152Y-92799075D01*
X94138151Y-92799071D01*
X94139444Y-92790911D01*
X94169373Y-92727776D01*
X94228685Y-92690844D01*
X94294012Y-92690533D01*
X95030365Y-92887838D01*
X95038132Y-92799075D01*
X95038132Y-92799072D01*
X95018307Y-92572475D01*
X95018305Y-92572464D01*
X94959435Y-92352757D01*
X94959431Y-92352748D01*
X94863300Y-92146592D01*
X94732823Y-91960254D01*
X94571986Y-91799417D01*
X94385648Y-91668940D01*
X94304893Y-91631284D01*
X94106366Y-92372196D01*
X94070001Y-92431856D01*
X94007154Y-92462385D01*
X93937778Y-92454090D01*
X93930297Y-92450587D01*
X93858313Y-92413909D01*
X93858310Y-92413908D01*
X93764652Y-92399075D01*
X93764647Y-92399075D01*
X93743126Y-92399075D01*
X93676087Y-92379390D01*
X93630332Y-92326586D01*
X93620388Y-92257428D01*
X93623351Y-92242982D01*
X93821929Y-91501874D01*
X93821929Y-91501873D01*
X93733169Y-91494109D01*
X93733164Y-91494109D01*
X93506566Y-91513933D01*
X93506555Y-91513935D01*
X93286848Y-91572805D01*
X93286839Y-91572809D01*
X93080683Y-91668940D01*
X92894345Y-91799417D01*
X92733508Y-91960254D01*
X92603030Y-92146594D01*
X92565375Y-92227346D01*
X93306287Y-92425874D01*
X93365947Y-92462239D01*
X93396476Y-92525086D01*
X93388181Y-92594462D01*
X93384678Y-92601943D01*
X93348000Y-92673927D01*
X93347999Y-92673930D01*
X93326886Y-92807238D01*
X93296957Y-92870373D01*
X93237645Y-92907304D01*
X93172320Y-92907615D01*
X92435965Y-92710310D01*
X92435964Y-92710310D01*
X92428200Y-92799072D01*
X92428200Y-92799077D01*
X87824894Y-92799077D01*
X91229169Y-91220461D01*
X91298266Y-91210118D01*
X91360281Y-91237338D01*
X91427172Y-91292568D01*
X91427174Y-91292570D01*
X91559469Y-91349221D01*
X91559472Y-91349222D01*
X91559475Y-91349223D01*
X91679920Y-91363624D01*
X91702378Y-91366310D01*
X91702378Y-91366309D01*
X91702379Y-91366310D01*
X91821505Y-91346277D01*
X91844303Y-91342444D01*
X91844303Y-91342443D01*
X91844308Y-91342443D01*
X91899136Y-91318189D01*
X93367694Y-90470315D01*
X93416115Y-90434960D01*
X93507749Y-90323979D01*
X93564403Y-90191677D01*
X93581490Y-90048773D01*
X93557623Y-89906844D01*
X93533369Y-89852016D01*
X93533367Y-89852012D01*
X93533365Y-89852008D01*
X92685495Y-88383458D01*
X92685493Y-88383454D01*
X92650140Y-88335037D01*
X92650134Y-88335031D01*
X92539159Y-88243403D01*
X92539157Y-88243401D01*
X92406862Y-88186750D01*
X92406859Y-88186749D01*
X92263953Y-88169661D01*
X92263951Y-88169662D01*
X92122028Y-88193527D01*
X92122016Y-88193531D01*
X92067203Y-88217779D01*
X92067195Y-88217783D01*
X91834309Y-88352239D01*
X91766409Y-88368711D01*
X91700970Y-88346274D01*
X88897643Y-86374431D01*
X88854135Y-86319761D01*
X88847090Y-86250247D01*
X88878745Y-86187960D01*
X88918216Y-86159876D01*
X88987239Y-86128905D01*
X90329592Y-85353895D01*
X90406976Y-85298018D01*
X90413359Y-85293409D01*
X90413359Y-85293408D01*
X90413360Y-85293408D01*
X90529993Y-85162348D01*
X90613258Y-85007924D01*
X90658666Y-84838460D01*
X90663768Y-84663093D01*
X90663767Y-84663092D01*
X90663768Y-84663090D01*
X90639241Y-84544308D01*
X90628291Y-84491275D01*
X90585991Y-84397007D01*
X90585940Y-84396919D01*
X90193481Y-83717161D01*
X89935987Y-83271169D01*
X89935986Y-83271166D01*
X89907569Y-83231812D01*
X89875494Y-83187392D01*
X89875490Y-83187389D01*
X89875489Y-83187387D01*
X89744436Y-83070760D01*
X89590009Y-82987493D01*
X89420544Y-82942085D01*
X89238772Y-82936797D01*
X89172333Y-82915171D01*
X89128133Y-82861058D01*
X89120205Y-82791640D01*
X89122599Y-82780772D01*
X89176483Y-82579676D01*
X89197078Y-82344268D01*
X89187986Y-82240348D01*
X89176483Y-82108861D01*
X89165330Y-82067238D01*
X89115321Y-81880606D01*
X89015454Y-81666439D01*
X88879913Y-81472867D01*
X88712819Y-81305773D01*
X88519248Y-81170234D01*
X88305081Y-81070366D01*
X88305077Y-81070365D01*
X88305073Y-81070363D01*
X88076826Y-81009205D01*
X87885899Y-80992501D01*
X87820830Y-80967049D01*
X87779851Y-80910458D01*
X87775973Y-80840696D01*
X87784324Y-80816568D01*
X87800572Y-80781724D01*
X87865322Y-80642868D01*
X87926483Y-80414613D01*
X87947078Y-80179205D01*
X87945923Y-80166008D01*
X87926483Y-79943798D01*
X87915790Y-79903893D01*
X87865321Y-79715543D01*
X87765454Y-79501376D01*
X87629913Y-79307804D01*
X87462819Y-79140710D01*
X87269248Y-79005171D01*
X87055081Y-78905303D01*
X87055077Y-78905302D01*
X87055073Y-78905300D01*
X86826826Y-78844142D01*
X86635366Y-78827391D01*
X86570298Y-78801938D01*
X86529319Y-78745347D01*
X86525441Y-78675585D01*
X86533792Y-78651458D01*
X86614849Y-78477633D01*
X86614852Y-78477624D01*
X86675986Y-78249467D01*
X86675988Y-78249457D01*
X86696576Y-78014142D01*
X86696576Y-78014140D01*
X86675988Y-77778825D01*
X86675987Y-77778818D01*
X86618782Y-77565329D01*
X85865490Y-78000243D01*
X85797590Y-78016716D01*
X85731563Y-77993863D01*
X85688372Y-77938942D01*
X85684513Y-77927790D01*
X85669686Y-77877295D01*
X85669685Y-77877291D01*
X85595839Y-77762384D01*
X85595834Y-77762380D01*
X85590033Y-77755684D01*
X85592220Y-77753788D01*
X85562364Y-77707333D01*
X85562362Y-77637463D01*
X85600136Y-77578685D01*
X85619340Y-77565009D01*
X86368783Y-77132317D01*
X86212499Y-76976032D01*
X86018996Y-76840542D01*
X85804910Y-76740712D01*
X85804901Y-76740708D01*
X85576744Y-76679574D01*
X85576733Y-76679572D01*
X85341420Y-76658985D01*
X85341417Y-76658985D01*
X85106102Y-76679572D01*
X85106092Y-76679574D01*
X84877933Y-76740709D01*
X84777560Y-76787512D01*
X85154825Y-77440952D01*
X85171298Y-77508852D01*
X85148445Y-77574879D01*
X85098950Y-77615746D01*
X84973722Y-77672936D01*
X84973719Y-77672938D01*
X84912379Y-77726089D01*
X84848823Y-77755113D01*
X84779664Y-77745169D01*
X84726861Y-77699413D01*
X84723790Y-77694375D01*
X84344549Y-77037510D01*
X84253841Y-77101026D01*
X84253830Y-77101035D01*
X84086802Y-77268063D01*
X83951315Y-77461559D01*
X83951313Y-77461563D01*
X83851483Y-77675650D01*
X83851479Y-77675659D01*
X83790345Y-77903816D01*
X83790343Y-77903826D01*
X83769756Y-78139141D01*
X83769756Y-78139143D01*
X83790343Y-78374457D01*
X83790345Y-78374467D01*
X83847548Y-78587951D01*
X84600841Y-78153039D01*
X84668741Y-78136566D01*
X84734768Y-78159419D01*
X84777959Y-78214340D01*
X84781818Y-78225492D01*
X84796644Y-78275988D01*
X84796646Y-78275992D01*
X84796647Y-78275993D01*
X84870493Y-78390900D01*
X84870496Y-78390903D01*
X84876299Y-78397600D01*
X84874110Y-78399496D01*
X84903964Y-78445941D01*
X84903970Y-78515811D01*
X84866200Y-78574592D01*
X84846990Y-78588273D01*
X84097546Y-79020964D01*
X84097546Y-79020965D01*
X84253833Y-79177251D01*
X84447330Y-79312739D01*
X84447334Y-79312741D01*
X84661421Y-79412571D01*
X84661430Y-79412575D01*
X84889592Y-79473710D01*
X85080659Y-79490426D01*
X85145728Y-79515878D01*
X85186706Y-79572469D01*
X85190585Y-79642231D01*
X85182234Y-79666359D01*
X85159762Y-79714551D01*
X85101322Y-79839876D01*
X85101011Y-79840542D01*
X85101007Y-79840551D01*
X85039850Y-80068794D01*
X85039848Y-80068804D01*
X85019254Y-80304203D01*
X85019254Y-80304208D01*
X85039848Y-80539613D01*
X85044843Y-80558252D01*
X85101011Y-80767869D01*
X85101012Y-80767872D01*
X85101013Y-80767874D01*
X85200876Y-80982032D01*
X85200878Y-80982036D01*
X85336419Y-81175608D01*
X85503513Y-81342702D01*
X85697084Y-81478241D01*
X85911251Y-81578109D01*
X86139506Y-81639270D01*
X86330434Y-81655973D01*
X86395502Y-81681425D01*
X86436481Y-81738016D01*
X86440359Y-81807778D01*
X86432008Y-81831906D01*
X86378892Y-81945813D01*
X86351322Y-82004939D01*
X86351011Y-82005605D01*
X86351007Y-82005614D01*
X86289850Y-82233857D01*
X86289848Y-82233867D01*
X86269254Y-82469266D01*
X86269254Y-82469271D01*
X86289848Y-82704676D01*
X86289849Y-82704678D01*
X86351011Y-82932932D01*
X86351012Y-82932935D01*
X86351013Y-82932937D01*
X86443828Y-83131981D01*
X86450878Y-83147099D01*
X86586419Y-83340671D01*
X86753513Y-83507765D01*
X86947084Y-83643304D01*
X87161251Y-83743172D01*
X87362331Y-83797051D01*
X87421990Y-83833415D01*
X87452519Y-83896261D01*
X87444225Y-83965637D01*
X87439381Y-83975676D01*
X87353073Y-84135742D01*
X87307665Y-84305206D01*
X87302563Y-84480575D01*
X87338041Y-84652391D01*
X87338041Y-84652393D01*
X87380337Y-84746650D01*
X87380346Y-84746669D01*
X87644153Y-85203595D01*
X87660626Y-85271495D01*
X87637773Y-85337522D01*
X87582852Y-85380713D01*
X87513299Y-85387354D01*
X87465426Y-85367018D01*
X76212676Y-77451902D01*
X76169168Y-77397232D01*
X76162123Y-77327718D01*
X76193778Y-77265431D01*
X76233576Y-77237202D01*
X76352730Y-77184151D01*
X76505871Y-77072888D01*
X76632533Y-76932216D01*
X76727179Y-76768284D01*
X76785674Y-76588256D01*
X76805460Y-76400000D01*
X76785674Y-76211744D01*
X76727179Y-76031716D01*
X76727176Y-76031710D01*
X76642113Y-75884375D01*
X76625500Y-75822376D01*
X76625500Y-63198687D01*
X76645185Y-63131648D01*
X76657350Y-63115715D01*
X76675891Y-63095122D01*
X76732533Y-63032216D01*
X76827179Y-62868284D01*
X76885674Y-62688256D01*
X76905460Y-62500000D01*
X76885674Y-62311744D01*
X76827179Y-62131716D01*
X76732533Y-61967784D01*
X76605871Y-61827112D01*
X76603665Y-61825509D01*
X76452734Y-61715851D01*
X76452729Y-61715848D01*
X76279807Y-61638857D01*
X76279802Y-61638855D01*
X76134000Y-61607865D01*
X76094646Y-61599500D01*
X75905354Y-61599500D01*
X75872897Y-61606398D01*
X75720197Y-61638855D01*
X75720192Y-61638857D01*
X75547270Y-61715848D01*
X75547265Y-61715851D01*
X75394129Y-61827111D01*
X75267466Y-61967785D01*
X75172821Y-62131715D01*
X75172818Y-62131722D01*
X75129274Y-62265738D01*
X75114326Y-62311744D01*
X75094540Y-62500000D01*
X75114326Y-62688256D01*
X75114327Y-62688259D01*
X75172818Y-62868277D01*
X75172821Y-62868284D01*
X75267467Y-63032216D01*
X75310772Y-63080310D01*
X75342650Y-63115715D01*
X75372880Y-63178706D01*
X75374500Y-63198687D01*
X75374500Y-75605538D01*
X75354815Y-75672577D01*
X75323387Y-75705854D01*
X75308440Y-75716714D01*
X75294127Y-75727113D01*
X75167466Y-75867785D01*
X75072821Y-76031715D01*
X75072818Y-76031722D01*
X75014327Y-76211740D01*
X75014326Y-76211744D01*
X75005225Y-76298327D01*
X74997506Y-76371775D01*
X74970921Y-76436390D01*
X74913623Y-76476374D01*
X74843804Y-76479034D01*
X74802847Y-76460236D01*
X71904270Y-74421395D01*
X69461714Y-72703315D01*
X69418206Y-72648645D01*
X69410771Y-72581328D01*
X69425157Y-72495780D01*
X69425157Y-72495779D01*
X69414701Y-72408333D01*
X69408070Y-72352876D01*
X69408069Y-72352873D01*
X69408068Y-72352870D01*
X69351417Y-72220576D01*
X69351416Y-72220575D01*
X69351416Y-72220574D01*
X69259782Y-72109593D01*
X69259780Y-72109591D01*
X69259778Y-72109589D01*
X69211367Y-72074239D01*
X69211359Y-72074234D01*
X68271150Y-71531406D01*
X67742804Y-71226366D01*
X67687975Y-71202110D01*
X67687973Y-71202109D01*
X67687972Y-71202109D01*
X67546047Y-71178243D01*
X67546045Y-71178242D01*
X67403139Y-71195330D01*
X67403136Y-71195331D01*
X67270842Y-71251982D01*
X67159855Y-71343621D01*
X67124505Y-71392032D01*
X67124500Y-71392040D01*
X66276632Y-72860596D01*
X66252375Y-72915427D01*
X66228509Y-73057352D01*
X66228508Y-73057354D01*
X66245596Y-73200260D01*
X66245597Y-73200263D01*
X66302248Y-73332557D01*
X66302249Y-73332558D01*
X66302250Y-73332560D01*
X66393884Y-73443541D01*
X66393885Y-73443541D01*
X66393887Y-73443544D01*
X66442298Y-73478894D01*
X66442306Y-73478899D01*
X66486858Y-73504621D01*
X66675187Y-73613352D01*
X66723402Y-73663919D01*
X66736692Y-73731810D01*
X66430691Y-77145486D01*
X66405099Y-77210500D01*
X66348421Y-77251358D01*
X66278651Y-77255087D01*
X66234594Y-77234946D01*
X66173253Y-77190652D01*
X66173249Y-77190650D01*
X64830917Y-76415656D01*
X64830896Y-76415645D01*
X64736640Y-76373348D01*
X64736636Y-76373347D01*
X64564820Y-76337870D01*
X64389453Y-76342972D01*
X64219989Y-76388380D01*
X64065565Y-76471646D01*
X63934504Y-76588279D01*
X63934502Y-76588280D01*
X63874021Y-76672039D01*
X63874010Y-76672056D01*
X63224011Y-77797890D01*
X63224001Y-77797910D01*
X63181708Y-77892161D01*
X63146230Y-78063977D01*
X63151332Y-78239346D01*
X63196740Y-78408810D01*
X63283048Y-78568876D01*
X63297539Y-78637226D01*
X63272776Y-78702561D01*
X63216622Y-78744136D01*
X63206000Y-78747500D01*
X63177965Y-78755013D01*
X63004922Y-78801379D01*
X63004916Y-78801382D01*
X62790753Y-78901247D01*
X62790751Y-78901248D01*
X62597178Y-79036788D01*
X62430090Y-79203877D01*
X62430087Y-79203880D01*
X62430086Y-79203882D01*
X62386792Y-79265712D01*
X62294544Y-79397455D01*
X62294543Y-79397457D01*
X62194680Y-79611615D01*
X62194678Y-79611619D01*
X62194678Y-79611621D01*
X62180642Y-79664003D01*
X62133515Y-79839876D01*
X62113488Y-80068799D01*
X62112921Y-80075283D01*
X62132948Y-80304203D01*
X62133516Y-80310689D01*
X62133516Y-80310693D01*
X62194674Y-80538938D01*
X62194676Y-80538942D01*
X62194677Y-80538946D01*
X62254756Y-80667785D01*
X62275675Y-80712646D01*
X62286167Y-80781724D01*
X62257647Y-80845508D01*
X62199171Y-80883747D01*
X62174100Y-80888579D01*
X62012460Y-80902720D01*
X61983173Y-80905283D01*
X61983170Y-80905283D01*
X61754925Y-80966441D01*
X61754916Y-80966445D01*
X61540753Y-81066310D01*
X61540751Y-81066311D01*
X61347178Y-81201851D01*
X61180090Y-81368940D01*
X61180087Y-81368943D01*
X61180086Y-81368945D01*
X61107322Y-81472862D01*
X61044544Y-81562518D01*
X61044543Y-81562520D01*
X60944680Y-81776678D01*
X60944678Y-81776682D01*
X60944678Y-81776684D01*
X60940724Y-81791440D01*
X60883515Y-82004939D01*
X60863488Y-82233862D01*
X60862921Y-82240346D01*
X60882948Y-82469266D01*
X60883516Y-82475752D01*
X60883516Y-82475756D01*
X60944674Y-82704001D01*
X60944676Y-82704005D01*
X60944677Y-82704009D01*
X61025901Y-82878193D01*
X61036393Y-82947270D01*
X61007873Y-83011055D01*
X60949397Y-83049294D01*
X60924326Y-83054126D01*
X60733261Y-83070842D01*
X60733257Y-83070842D01*
X60505097Y-83131977D01*
X60505088Y-83131981D01*
X60291002Y-83231810D01*
X60290998Y-83231812D01*
X60097504Y-83367298D01*
X59941214Y-83523587D01*
X60690658Y-83956278D01*
X60738874Y-84006845D01*
X60752097Y-84075452D01*
X60726129Y-84140317D01*
X60719876Y-84146875D01*
X60719966Y-84146953D01*
X60714160Y-84153653D01*
X60640312Y-84268563D01*
X60625485Y-84319061D01*
X60587710Y-84377838D01*
X60524154Y-84406863D01*
X60454996Y-84396919D01*
X60444508Y-84391512D01*
X59691215Y-83956600D01*
X59634011Y-84170087D01*
X59634011Y-84170091D01*
X59613424Y-84405407D01*
X59613424Y-84405412D01*
X59634011Y-84640729D01*
X59634011Y-84640733D01*
X59695146Y-84868893D01*
X59695150Y-84868902D01*
X59794980Y-85082989D01*
X59794982Y-85082993D01*
X59930469Y-85276489D01*
X60097496Y-85443516D01*
X60188217Y-85507040D01*
X60567457Y-84850176D01*
X60618024Y-84801960D01*
X60686631Y-84788737D01*
X60751496Y-84814705D01*
X60756020Y-84818441D01*
X60817388Y-84871616D01*
X60923772Y-84920199D01*
X60942617Y-84928806D01*
X60995421Y-84974561D01*
X61015105Y-85041600D01*
X60998492Y-85103600D01*
X60621228Y-85757039D01*
X60721593Y-85803840D01*
X60721602Y-85803844D01*
X60949759Y-85864978D01*
X60949769Y-85864980D01*
X61185084Y-85885568D01*
X61185087Y-85885568D01*
X61420400Y-85864980D01*
X61420411Y-85864978D01*
X61648568Y-85803844D01*
X61648577Y-85803840D01*
X61862661Y-85704012D01*
X61862663Y-85704011D01*
X62056159Y-85568525D01*
X62056165Y-85568520D01*
X62212450Y-85412234D01*
X61463007Y-84979543D01*
X61414791Y-84928976D01*
X61401568Y-84860369D01*
X61427536Y-84795504D01*
X61433789Y-84788946D01*
X61433700Y-84788869D01*
X61439498Y-84782175D01*
X61439506Y-84782169D01*
X61513352Y-84667262D01*
X61528180Y-84616759D01*
X61565953Y-84557984D01*
X61629508Y-84528957D01*
X61698666Y-84538900D01*
X61709157Y-84544308D01*
X62462449Y-84979222D01*
X62519654Y-84765734D01*
X62519655Y-84765727D01*
X62540243Y-84530413D01*
X62540243Y-84530410D01*
X62519655Y-84295096D01*
X62519653Y-84295085D01*
X62458519Y-84066928D01*
X62458516Y-84066919D01*
X62377459Y-83893094D01*
X62366967Y-83824017D01*
X62395486Y-83760233D01*
X62453963Y-83721993D01*
X62479033Y-83717161D01*
X62670493Y-83700411D01*
X62898748Y-83639250D01*
X63112915Y-83539383D01*
X63306486Y-83403843D01*
X63473580Y-83236749D01*
X63609121Y-83043177D01*
X63708988Y-82829010D01*
X63770150Y-82600756D01*
X63790745Y-82365348D01*
X63770150Y-82129940D01*
X63708989Y-81901685D01*
X63627989Y-81727981D01*
X63617498Y-81658907D01*
X63646018Y-81595123D01*
X63704494Y-81556883D01*
X63729559Y-81552052D01*
X63920493Y-81535348D01*
X64148748Y-81474187D01*
X64362915Y-81374320D01*
X64556486Y-81238780D01*
X64723580Y-81071686D01*
X64859121Y-80878114D01*
X64958988Y-80663947D01*
X65020150Y-80435693D01*
X65038557Y-80225292D01*
X65040745Y-80200287D01*
X65040745Y-80200282D01*
X65032524Y-80106321D01*
X65020150Y-79964877D01*
X64966270Y-79763795D01*
X64967933Y-79693947D01*
X65007095Y-79636084D01*
X65071324Y-79608580D01*
X65082439Y-79607755D01*
X65088844Y-79607568D01*
X65088846Y-79607569D01*
X65264213Y-79602467D01*
X65433677Y-79557059D01*
X65588101Y-79473794D01*
X65719161Y-79357161D01*
X65719162Y-79357159D01*
X65719163Y-79357159D01*
X65751238Y-79312739D01*
X65779649Y-79273394D01*
X66043464Y-78816450D01*
X66094030Y-78768237D01*
X66162637Y-78755013D01*
X66227501Y-78780981D01*
X66268030Y-78837895D01*
X66274355Y-78889523D01*
X65593109Y-86489321D01*
X65567517Y-86554335D01*
X65510839Y-86595193D01*
X65441069Y-86598922D01*
X65417833Y-86590925D01*
X65325275Y-86548397D01*
X65325264Y-86548393D01*
X65127054Y-86502396D01*
X64923641Y-86497242D01*
X64723352Y-86533140D01*
X64723345Y-86533142D01*
X64534385Y-86608621D01*
X64534376Y-86608626D01*
X64364481Y-86720597D01*
X56175459Y-94909619D01*
X56110873Y-94971015D01*
X56075826Y-95021367D01*
X56072989Y-95025129D01*
X56034229Y-95072665D01*
X56034226Y-95072670D01*
X56018319Y-95103120D01*
X56014251Y-95109834D01*
X55994629Y-95138027D01*
X55970436Y-95194403D01*
X55968415Y-95198657D01*
X55940018Y-95253024D01*
X55940017Y-95253025D01*
X55930567Y-95286048D01*
X55927934Y-95293444D01*
X55914386Y-95325016D01*
X55902040Y-95385092D01*
X55900917Y-95389668D01*
X55884040Y-95448650D01*
X55884040Y-95448652D01*
X55881430Y-95482914D01*
X55880341Y-95490681D01*
X55874907Y-95517125D01*
X55873427Y-95524331D01*
X55873427Y-95585670D01*
X55873248Y-95590379D01*
X55868589Y-95651547D01*
X55869966Y-95662354D01*
X55872930Y-95685633D01*
X55873427Y-95693461D01*
X55873427Y-97434218D01*
X55853742Y-97501257D01*
X55837108Y-97521899D01*
X54265552Y-99093454D01*
X54204229Y-99126939D01*
X54134537Y-99121955D01*
X54078604Y-99080083D01*
X54054187Y-99014619D01*
X54059939Y-98967458D01*
X54085674Y-98888256D01*
X54105460Y-98700000D01*
X54085674Y-98511744D01*
X54027179Y-98331716D01*
X53932533Y-98167784D01*
X53805871Y-98027112D01*
X53805870Y-98027111D01*
X53652734Y-97915851D01*
X53652729Y-97915848D01*
X53479807Y-97838857D01*
X53479802Y-97838855D01*
X53334001Y-97807865D01*
X53294646Y-97799500D01*
X53105354Y-97799500D01*
X53072897Y-97806398D01*
X52920197Y-97838855D01*
X52920192Y-97838857D01*
X52747270Y-97915848D01*
X52747265Y-97915851D01*
X52594130Y-98027110D01*
X52594126Y-98027114D01*
X52588400Y-98033474D01*
X52528913Y-98070121D01*
X52496252Y-98074500D01*
X51582737Y-98074500D01*
X51567120Y-98072776D01*
X51567093Y-98073062D01*
X51559331Y-98072327D01*
X51490203Y-98074500D01*
X51460650Y-98074500D01*
X51459929Y-98074590D01*
X51453757Y-98075369D01*
X51447945Y-98075826D01*
X51401372Y-98077290D01*
X51401369Y-98077291D01*
X51382126Y-98082881D01*
X51363083Y-98086825D01*
X51343204Y-98089336D01*
X51343203Y-98089337D01*
X51299878Y-98106490D01*
X51294352Y-98108382D01*
X51249608Y-98121383D01*
X51249604Y-98121385D01*
X51232365Y-98131580D01*
X51214898Y-98140137D01*
X51196269Y-98147512D01*
X51196267Y-98147513D01*
X51158564Y-98174906D01*
X51153682Y-98178112D01*
X51113580Y-98201828D01*
X51099408Y-98216000D01*
X51084623Y-98228628D01*
X51068412Y-98240407D01*
X51038709Y-98276310D01*
X51034776Y-98280631D01*
X50232776Y-99082633D01*
X49452228Y-99863181D01*
X49390905Y-99896666D01*
X49364547Y-99899500D01*
X49305354Y-99899500D01*
X49272897Y-99906398D01*
X49120197Y-99938855D01*
X49120192Y-99938857D01*
X48947270Y-100015848D01*
X48947265Y-100015851D01*
X48794129Y-100127111D01*
X48667466Y-100267785D01*
X48572821Y-100431715D01*
X48572818Y-100431722D01*
X48515060Y-100609485D01*
X48514326Y-100611744D01*
X48494540Y-100800000D01*
X48514326Y-100988256D01*
X48514327Y-100988259D01*
X48572818Y-101168277D01*
X48572821Y-101168284D01*
X48667467Y-101332216D01*
X48732326Y-101404249D01*
X48794129Y-101472888D01*
X48947265Y-101584148D01*
X48947270Y-101584151D01*
X49120192Y-101661142D01*
X49120197Y-101661144D01*
X49305354Y-101700500D01*
X49305355Y-101700500D01*
X49494644Y-101700500D01*
X49494646Y-101700500D01*
X49679803Y-101661144D01*
X49852730Y-101584151D01*
X50005871Y-101472888D01*
X50132533Y-101332216D01*
X50227179Y-101168284D01*
X50285674Y-100988256D01*
X50303321Y-100820344D01*
X50329904Y-100755734D01*
X50338951Y-100745638D01*
X51722771Y-99361819D01*
X51784095Y-99328334D01*
X51810453Y-99325500D01*
X52496252Y-99325500D01*
X52563291Y-99345185D01*
X52588400Y-99366526D01*
X52594126Y-99372885D01*
X52594130Y-99372889D01*
X52747265Y-99484148D01*
X52747270Y-99484151D01*
X52920192Y-99561142D01*
X52920197Y-99561144D01*
X53105354Y-99600500D01*
X53105355Y-99600500D01*
X53294644Y-99600500D01*
X53294646Y-99600500D01*
X53474250Y-99562324D01*
X53543916Y-99567640D01*
X53599650Y-99609777D01*
X53623755Y-99675357D01*
X53608578Y-99743558D01*
X53587711Y-99771295D01*
X51195826Y-102163181D01*
X51134503Y-102196666D01*
X51108145Y-102199500D01*
X47849257Y-102199500D01*
X47697560Y-102214925D01*
X47503420Y-102275837D01*
X47503405Y-102275844D01*
X47325500Y-102374589D01*
X47325495Y-102374592D01*
X47171106Y-102507132D01*
X47171104Y-102507134D01*
X47046554Y-102668037D01*
X47046553Y-102668040D01*
X46956940Y-102850728D01*
X46905937Y-103047714D01*
X46895631Y-103250936D01*
X29716803Y-103250936D01*
X31222584Y-100642243D01*
X31273143Y-100594026D01*
X31341749Y-100580796D01*
X31391974Y-100596849D01*
X31976715Y-100934449D01*
X32614041Y-101302409D01*
X32614294Y-101302631D01*
X32635371Y-101314772D01*
X32635778Y-101314825D01*
X32635778Y-101314824D01*
X32635780Y-101314825D01*
X32636024Y-101314638D01*
X32636024Y-101314636D01*
X32636293Y-101314431D01*
X32636406Y-101314344D01*
X32638002Y-101311862D01*
X32639813Y-101309320D01*
X32642215Y-101303977D01*
X32648620Y-101292868D01*
X32648621Y-101292869D01*
X32648662Y-101292745D01*
X33624426Y-99602672D01*
X33674991Y-99554459D01*
X33743598Y-99541236D01*
X33808463Y-99567204D01*
X33848991Y-99624119D01*
X33852316Y-99693909D01*
X33851587Y-99696765D01*
X33844261Y-99724107D01*
X33844259Y-99724117D01*
X33823672Y-99959431D01*
X33823672Y-99959434D01*
X33844259Y-100194748D01*
X33844261Y-100194759D01*
X33905395Y-100422916D01*
X33905399Y-100422925D01*
X34005228Y-100637011D01*
X34140723Y-100830515D01*
X34297004Y-100986796D01*
X34656722Y-100363747D01*
X34707289Y-100315531D01*
X34775896Y-100302308D01*
X34840761Y-100328276D01*
X34845305Y-100332028D01*
X34905729Y-100384385D01*
X35013472Y-100433590D01*
X35032056Y-100442077D01*
X35084860Y-100487832D01*
X35104544Y-100554871D01*
X35087931Y-100616871D01*
X34730016Y-101236796D01*
X34943506Y-101294001D01*
X34943513Y-101294002D01*
X35178827Y-101314590D01*
X35178831Y-101314590D01*
X35414144Y-101294002D01*
X35414155Y-101294000D01*
X35642312Y-101232866D01*
X35642321Y-101232862D01*
X35856407Y-101133033D01*
X36049907Y-100997542D01*
X36049910Y-100997539D01*
X36206192Y-100841256D01*
X35587679Y-100484157D01*
X35539463Y-100433590D01*
X35526240Y-100364983D01*
X35552208Y-100300118D01*
X35555967Y-100295567D01*
X35560587Y-100290235D01*
X35560590Y-100290231D01*
X35638322Y-100169277D01*
X35638323Y-100169273D01*
X35638324Y-100169272D01*
X35652455Y-100121146D01*
X35690229Y-100062367D01*
X35753784Y-100033342D01*
X35822943Y-100043285D01*
X35833432Y-100048693D01*
X36456192Y-100408244D01*
X36513397Y-100194755D01*
X36513398Y-100194748D01*
X36533986Y-99959434D01*
X36533986Y-99959431D01*
X36513398Y-99724117D01*
X36513396Y-99724106D01*
X36452262Y-99495949D01*
X36452258Y-99495940D01*
X36356467Y-99290515D01*
X36345975Y-99221438D01*
X36374495Y-99157654D01*
X36432971Y-99119414D01*
X36458041Y-99114582D01*
X36684237Y-99094792D01*
X36912492Y-99033632D01*
X37126659Y-98933764D01*
X37145448Y-98920607D01*
X37211653Y-98898280D01*
X37279421Y-98915289D01*
X37327234Y-98966237D01*
X37340572Y-99022182D01*
X37340572Y-99728355D01*
X37338315Y-99817434D01*
X37338315Y-99817442D01*
X37349136Y-99877811D01*
X37349790Y-99882476D01*
X37355997Y-99943502D01*
X37355999Y-99943516D01*
X37366280Y-99976285D01*
X37368151Y-99983909D01*
X37374214Y-100017724D01*
X37374214Y-100017727D01*
X37396966Y-100074684D01*
X37398546Y-100079123D01*
X37416913Y-100137660D01*
X37416916Y-100137667D01*
X37433581Y-100167691D01*
X37436951Y-100174786D01*
X37449694Y-100206686D01*
X37449699Y-100206696D01*
X37483449Y-100257905D01*
X37485890Y-100261935D01*
X37515660Y-100315570D01*
X37515661Y-100315571D01*
X37515663Y-100315574D01*
X37538040Y-100341639D01*
X37542765Y-100347907D01*
X37553205Y-100363747D01*
X37561670Y-100376591D01*
X37605050Y-100419971D01*
X37608241Y-100423415D01*
X37648203Y-100469964D01*
X37648206Y-100469967D01*
X37671286Y-100487832D01*
X37675366Y-100490990D01*
X37681262Y-100496183D01*
X38140775Y-100955696D01*
X38174260Y-101017019D01*
X38169276Y-101086711D01*
X38166228Y-101094139D01*
X38154875Y-101119440D01*
X38119397Y-101291257D01*
X38124499Y-101466626D01*
X38169907Y-101636090D01*
X38203262Y-101697950D01*
X38253173Y-101790515D01*
X38319248Y-101864763D01*
X38369806Y-101921575D01*
X38369807Y-101921577D01*
X38446766Y-101977148D01*
X38453573Y-101982063D01*
X38453579Y-101982066D01*
X38453583Y-101982069D01*
X39385378Y-102520040D01*
X39795927Y-102757070D01*
X39795936Y-102757074D01*
X39890192Y-102799371D01*
X39890193Y-102799371D01*
X39890195Y-102799372D01*
X40062013Y-102834849D01*
X40237380Y-102829747D01*
X40406844Y-102784339D01*
X40561268Y-102701074D01*
X40692328Y-102584441D01*
X40692329Y-102584439D01*
X40692330Y-102584439D01*
X40725245Y-102538856D01*
X40752816Y-102500674D01*
X41402824Y-101374826D01*
X41445125Y-101280558D01*
X41475860Y-101131705D01*
X41480602Y-101108742D01*
X41475500Y-100933373D01*
X41430092Y-100763909D01*
X41401963Y-100711741D01*
X41346827Y-100609485D01*
X41346824Y-100609482D01*
X41343784Y-100603843D01*
X41329293Y-100535493D01*
X41354056Y-100470158D01*
X41410210Y-100428583D01*
X41420811Y-100425224D01*
X41621915Y-100371339D01*
X41836082Y-100271472D01*
X42029653Y-100135932D01*
X42196747Y-99968838D01*
X42332288Y-99775266D01*
X42432155Y-99561099D01*
X42493317Y-99332845D01*
X42513912Y-99097437D01*
X42513680Y-99094790D01*
X42507328Y-99022182D01*
X42493317Y-98862029D01*
X42432156Y-98633774D01*
X42350931Y-98459588D01*
X42340440Y-98390514D01*
X42368959Y-98326730D01*
X42427436Y-98288490D01*
X42452507Y-98283658D01*
X42643567Y-98266942D01*
X42643578Y-98266940D01*
X42871735Y-98205806D01*
X42871744Y-98205802D01*
X43085828Y-98105974D01*
X43085830Y-98105973D01*
X43279326Y-97970487D01*
X43279332Y-97970482D01*
X43435617Y-97814196D01*
X42686174Y-97381505D01*
X42637958Y-97330938D01*
X42624735Y-97262331D01*
X42650703Y-97197466D01*
X42656956Y-97190908D01*
X42656867Y-97190831D01*
X42662665Y-97184137D01*
X42662673Y-97184131D01*
X42736519Y-97069224D01*
X42751347Y-97018721D01*
X42789120Y-96959946D01*
X42852675Y-96930919D01*
X42921833Y-96940862D01*
X42932324Y-96946270D01*
X43685616Y-97381184D01*
X43742821Y-97167696D01*
X43742822Y-97167689D01*
X43763410Y-96932375D01*
X43763410Y-96932372D01*
X43742822Y-96697058D01*
X43742820Y-96697047D01*
X43681686Y-96468890D01*
X43681682Y-96468881D01*
X43581853Y-96254797D01*
X43581852Y-96254795D01*
X43446362Y-96061293D01*
X43279332Y-95894264D01*
X43188615Y-95830742D01*
X43188614Y-95830743D01*
X42809374Y-96487606D01*
X42758807Y-96535822D01*
X42690200Y-96549045D01*
X42625335Y-96523077D01*
X42620803Y-96519335D01*
X42559445Y-96466168D01*
X42545600Y-96459845D01*
X42434215Y-96408977D01*
X42381411Y-96363222D01*
X42361727Y-96296182D01*
X42378340Y-96234183D01*
X42755603Y-95580743D01*
X42755602Y-95580742D01*
X42655244Y-95533944D01*
X42655230Y-95533939D01*
X42427068Y-95472804D01*
X42191750Y-95452217D01*
X42191746Y-95452217D01*
X41956428Y-95472804D01*
X41956424Y-95472804D01*
X41728264Y-95533939D01*
X41728255Y-95533943D01*
X41514169Y-95633772D01*
X41514165Y-95633774D01*
X41320671Y-95769260D01*
X41164381Y-95925549D01*
X41913825Y-96358240D01*
X41962041Y-96408807D01*
X41975264Y-96477414D01*
X41949296Y-96542279D01*
X41943043Y-96548837D01*
X41943133Y-96548915D01*
X41937327Y-96555615D01*
X41863479Y-96670525D01*
X41848652Y-96721023D01*
X41810877Y-96779800D01*
X41747321Y-96808825D01*
X41678163Y-96798881D01*
X41667675Y-96793474D01*
X40914382Y-96358562D01*
X40857178Y-96572049D01*
X40857178Y-96572053D01*
X40836591Y-96807369D01*
X40836591Y-96807374D01*
X40857178Y-97042691D01*
X40857178Y-97042695D01*
X40918313Y-97270855D01*
X40918317Y-97270864D01*
X40999372Y-97444688D01*
X41009864Y-97513766D01*
X40981344Y-97577550D01*
X40922868Y-97615789D01*
X40897798Y-97620621D01*
X40706340Y-97637372D01*
X40706337Y-97637372D01*
X40478092Y-97698530D01*
X40478083Y-97698534D01*
X40263920Y-97798399D01*
X40263918Y-97798400D01*
X40070345Y-97933940D01*
X39903257Y-98101029D01*
X39903254Y-98101032D01*
X39903253Y-98101034D01*
X39854585Y-98170539D01*
X39767711Y-98294607D01*
X39767710Y-98294609D01*
X39667847Y-98508767D01*
X39667845Y-98508771D01*
X39667845Y-98508773D01*
X39650158Y-98574781D01*
X39606682Y-98737028D01*
X39589100Y-98938005D01*
X39576501Y-98970213D01*
X39584549Y-98982736D01*
X39589100Y-99006864D01*
X39590440Y-99022182D01*
X39598594Y-99115388D01*
X39606683Y-99207841D01*
X39606683Y-99207845D01*
X39627433Y-99285283D01*
X39625770Y-99355132D01*
X39586607Y-99412995D01*
X39522379Y-99440499D01*
X39453477Y-99428913D01*
X39419976Y-99405056D01*
X39377890Y-99362969D01*
X39344405Y-99301646D01*
X39341572Y-99275289D01*
X39341572Y-99017671D01*
X39354884Y-98972332D01*
X39344003Y-98951630D01*
X39341572Y-98927198D01*
X39341572Y-96194942D01*
X39343828Y-96105909D01*
X39343827Y-96105908D01*
X39343828Y-96105903D01*
X39333001Y-96045500D01*
X39332354Y-96040887D01*
X39326146Y-95979829D01*
X39326145Y-95979827D01*
X39326145Y-95979824D01*
X39315862Y-95947054D01*
X39313989Y-95939421D01*
X39308776Y-95910333D01*
X39307930Y-95905614D01*
X39289355Y-95859112D01*
X39285174Y-95848645D01*
X39283593Y-95844204D01*
X39272037Y-95807373D01*
X39265231Y-95785679D01*
X39265230Y-95785677D01*
X39265229Y-95785674D01*
X39248561Y-95755646D01*
X39245193Y-95748555D01*
X39236519Y-95726841D01*
X39229933Y-95657286D01*
X39244283Y-95618856D01*
X39337331Y-95457694D01*
X39361587Y-95402865D01*
X39381319Y-95285533D01*
X39385455Y-95260937D01*
X39385455Y-95260936D01*
X39382357Y-95235024D01*
X39368368Y-95118031D01*
X39348039Y-95070559D01*
X39311714Y-94985730D01*
X39311712Y-94985728D01*
X39220080Y-94874750D01*
X39220076Y-94874746D01*
X39171664Y-94839395D01*
X39171656Y-94839390D01*
X38162366Y-94256678D01*
X37616499Y-93941522D01*
X37561670Y-93917266D01*
X37561667Y-93917265D01*
X37561666Y-93917265D01*
X37419741Y-93893397D01*
X37276834Y-93910485D01*
X37144535Y-93967138D01*
X37144533Y-93967140D01*
X37033555Y-94058772D01*
X37033551Y-94058776D01*
X36998200Y-94107188D01*
X36998195Y-94107196D01*
X36199435Y-95490693D01*
X36100327Y-95662354D01*
X36085552Y-95695753D01*
X36076070Y-95717186D01*
X36052202Y-95859110D01*
X36052202Y-95859111D01*
X36069290Y-96002018D01*
X36125943Y-96134316D01*
X36125944Y-96134317D01*
X36125945Y-96134319D01*
X36202542Y-96227087D01*
X36215246Y-96242473D01*
X36242750Y-96306701D01*
X36231164Y-96375604D01*
X36184165Y-96427304D01*
X36151720Y-96441198D01*
X35985173Y-96485823D01*
X35985166Y-96485825D01*
X35985166Y-96485826D01*
X35971645Y-96492130D01*
X35771000Y-96585693D01*
X35770998Y-96585694D01*
X35577426Y-96721234D01*
X35410337Y-96888323D01*
X35341474Y-96986670D01*
X35286897Y-97030295D01*
X35217398Y-97037487D01*
X35155044Y-97005965D01*
X35141459Y-96990948D01*
X35135912Y-96983706D01*
X35115506Y-96971816D01*
X35114837Y-96971586D01*
X34239425Y-96466167D01*
X33892017Y-96265591D01*
X33843802Y-96215025D01*
X33830579Y-96146418D01*
X33846621Y-96096228D01*
X36221717Y-91981488D01*
X36272276Y-91933271D01*
X36340882Y-91920041D01*
X36391106Y-91936093D01*
X37614041Y-92642155D01*
X37614294Y-92642377D01*
X37635371Y-92654518D01*
X37635777Y-92654571D01*
X37635778Y-92654571D01*
X37635778Y-92654570D01*
X37635780Y-92654571D01*
X37636024Y-92654384D01*
X37636024Y-92654382D01*
X37636293Y-92654177D01*
X37636406Y-92654090D01*
X37638002Y-92651608D01*
X37639813Y-92649066D01*
X37642215Y-92643723D01*
X37648620Y-92632614D01*
X37648621Y-92632615D01*
X37648662Y-92632491D01*
X40123582Y-88345804D01*
X40123893Y-88345451D01*
X40134849Y-88326380D01*
X40136073Y-88324471D01*
X40136083Y-88324391D01*
X40136163Y-88323782D01*
X40136162Y-88323779D01*
X40135911Y-88323451D01*
X40115506Y-88311562D01*
X40114837Y-88311332D01*
X38891152Y-87604837D01*
X38842936Y-87554270D01*
X38829713Y-87485663D01*
X38845756Y-87435467D01*
X41220850Y-83320733D01*
X41271409Y-83272516D01*
X41340015Y-83259286D01*
X41390238Y-83275338D01*
X42614041Y-83981901D01*
X42614294Y-83982123D01*
X42635371Y-83994264D01*
X42635778Y-83994317D01*
X42635778Y-83994316D01*
X42635780Y-83994317D01*
X42636024Y-83994130D01*
X42636024Y-83994128D01*
X42636293Y-83993923D01*
X42636406Y-83993836D01*
X42638002Y-83991354D01*
X42639813Y-83988812D01*
X42642215Y-83983469D01*
X42648620Y-83972360D01*
X42648621Y-83972361D01*
X42648662Y-83972237D01*
X45123582Y-79685550D01*
X45123893Y-79685197D01*
X45134849Y-79666126D01*
X45136073Y-79664217D01*
X45136083Y-79664137D01*
X45136163Y-79663528D01*
X45136162Y-79663525D01*
X45135911Y-79663197D01*
X45115506Y-79651308D01*
X45114837Y-79651078D01*
X44520268Y-79307804D01*
X43890283Y-78944082D01*
X43842068Y-78893516D01*
X43828845Y-78824909D01*
X43844888Y-78774715D01*
X46219984Y-74659977D01*
X46270541Y-74611761D01*
X46339147Y-74598531D01*
X46389370Y-74614583D01*
X47502407Y-75257195D01*
X47613948Y-75321593D01*
X47614107Y-75321733D01*
X47635370Y-75334009D01*
X47635777Y-75334063D01*
X47635777Y-75334062D01*
X47635780Y-75334063D01*
X47636024Y-75333876D01*
X47636025Y-75333873D01*
X47636108Y-75333810D01*
X47636108Y-75333809D01*
X47636286Y-75333674D01*
X47636406Y-75333582D01*
X47638002Y-75331100D01*
X47639813Y-75328558D01*
X47642215Y-75323215D01*
X47648620Y-75312106D01*
X47648621Y-75312107D01*
X47648662Y-75311983D01*
X47693035Y-75235128D01*
X47743600Y-75186914D01*
X47812207Y-75173692D01*
X47877072Y-75199660D01*
X47915657Y-75251343D01*
X47917980Y-75257190D01*
X47917983Y-75257195D01*
X48001248Y-75411619D01*
X48117880Y-75542679D01*
X48117881Y-75542679D01*
X48117882Y-75542681D01*
X48201641Y-75603162D01*
X48201648Y-75603167D01*
X48201654Y-75603170D01*
X48201658Y-75603173D01*
X48221544Y-75614654D01*
X48439164Y-75740296D01*
X48487379Y-75790862D01*
X48501164Y-75847683D01*
X48501164Y-80043920D01*
X48499441Y-80059537D01*
X48499726Y-80059564D01*
X48498991Y-80067330D01*
X48501165Y-80136479D01*
X48501165Y-80166008D01*
X48501166Y-80166025D01*
X48502033Y-80172896D01*
X48502491Y-80178715D01*
X48503955Y-80225289D01*
X48503956Y-80225292D01*
X48509545Y-80244532D01*
X48513489Y-80263576D01*
X48516001Y-80283457D01*
X48526784Y-80310693D01*
X48533155Y-80326784D01*
X48535047Y-80332312D01*
X48548046Y-80377053D01*
X48558245Y-80394299D01*
X48566801Y-80411765D01*
X48574179Y-80430397D01*
X48601563Y-80468088D01*
X48604771Y-80472972D01*
X48628492Y-80513081D01*
X48628498Y-80513089D01*
X48642655Y-80527245D01*
X48655293Y-80542041D01*
X48667070Y-80558251D01*
X48667071Y-80558252D01*
X48702974Y-80587953D01*
X48707285Y-80591875D01*
X48993519Y-80878110D01*
X49061038Y-80945629D01*
X49094523Y-81006952D01*
X49096678Y-81020348D01*
X49102074Y-81071686D01*
X49114326Y-81188256D01*
X49114327Y-81188259D01*
X49172818Y-81368277D01*
X49172821Y-81368284D01*
X49267467Y-81532216D01*
X49324109Y-81595123D01*
X49394129Y-81672888D01*
X49547265Y-81784148D01*
X49547270Y-81784151D01*
X49720192Y-81861142D01*
X49720197Y-81861144D01*
X49905354Y-81900500D01*
X49905355Y-81900500D01*
X50094644Y-81900500D01*
X50094646Y-81900500D01*
X50233366Y-81871014D01*
X50303031Y-81876330D01*
X50358765Y-81918467D01*
X50359385Y-81919313D01*
X50376916Y-81943441D01*
X50380123Y-81948324D01*
X50403844Y-81988433D01*
X50403850Y-81988441D01*
X50418007Y-82002597D01*
X50430645Y-82017393D01*
X50442422Y-82033603D01*
X50442423Y-82033604D01*
X50478326Y-82063305D01*
X50482637Y-82067227D01*
X51119410Y-82704001D01*
X51261038Y-82845629D01*
X51294523Y-82906952D01*
X51296678Y-82920348D01*
X51298407Y-82936797D01*
X51314326Y-83088256D01*
X51314327Y-83088259D01*
X51372818Y-83268277D01*
X51372821Y-83268284D01*
X51467467Y-83432216D01*
X51535490Y-83507763D01*
X51594129Y-83572888D01*
X51747265Y-83684148D01*
X51747270Y-83684151D01*
X51920192Y-83761142D01*
X51920197Y-83761144D01*
X52105354Y-83800500D01*
X52105355Y-83800500D01*
X52285216Y-83800500D01*
X52352255Y-83820185D01*
X52398010Y-83872989D01*
X52407954Y-83942147D01*
X52378929Y-84005703D01*
X52372897Y-84012181D01*
X49101532Y-87283546D01*
X49036946Y-87344942D01*
X49001899Y-87395294D01*
X48999062Y-87399056D01*
X48960302Y-87446592D01*
X48960299Y-87446597D01*
X48944392Y-87477047D01*
X48940324Y-87483761D01*
X48920702Y-87511954D01*
X48896509Y-87568330D01*
X48894488Y-87572584D01*
X48866091Y-87626951D01*
X48866090Y-87626952D01*
X48856640Y-87659975D01*
X48854007Y-87667371D01*
X48840459Y-87698943D01*
X48828113Y-87759019D01*
X48826990Y-87763595D01*
X48810113Y-87822577D01*
X48810113Y-87822579D01*
X48807503Y-87856841D01*
X48806414Y-87864608D01*
X48800980Y-87891052D01*
X48799500Y-87898258D01*
X48799500Y-87959597D01*
X48799321Y-87964306D01*
X48794662Y-88025474D01*
X48796196Y-88037513D01*
X48799003Y-88059560D01*
X48799500Y-88067388D01*
X48799500Y-91487283D01*
X48797243Y-91576362D01*
X48797243Y-91576370D01*
X48808064Y-91636739D01*
X48808718Y-91641404D01*
X48814925Y-91702430D01*
X48814927Y-91702444D01*
X48825208Y-91735213D01*
X48827079Y-91742837D01*
X48833142Y-91776652D01*
X48833142Y-91776655D01*
X48855894Y-91833612D01*
X48857474Y-91838051D01*
X48875841Y-91896588D01*
X48875844Y-91896595D01*
X48892509Y-91926619D01*
X48895879Y-91933714D01*
X48908622Y-91965614D01*
X48908627Y-91965624D01*
X48942377Y-92016833D01*
X48944818Y-92020863D01*
X48974588Y-92074498D01*
X48974589Y-92074499D01*
X48974591Y-92074502D01*
X48996968Y-92100567D01*
X49001693Y-92106835D01*
X49014263Y-92125906D01*
X49020598Y-92135519D01*
X49063978Y-92178899D01*
X49067169Y-92182343D01*
X49105804Y-92227346D01*
X49107134Y-92228895D01*
X49125333Y-92242982D01*
X49134294Y-92249918D01*
X49140190Y-92255111D01*
X49628420Y-92743341D01*
X49746593Y-92839698D01*
X49926951Y-92933909D01*
X50122582Y-92989887D01*
X50190213Y-92995037D01*
X50325475Y-93005337D01*
X50325477Y-93005337D01*
X50325478Y-93005337D01*
X50527321Y-92979631D01*
X50527321Y-92979630D01*
X50527328Y-92979630D01*
X50719872Y-92913816D01*
X50895227Y-92810591D01*
X51046213Y-92674179D01*
X51166649Y-92510167D01*
X51166650Y-92510163D01*
X51166653Y-92510160D01*
X51251602Y-92325275D01*
X51251605Y-92325269D01*
X51297603Y-92127054D01*
X51301693Y-91965617D01*
X51302757Y-91923641D01*
X51302756Y-91923640D01*
X51302757Y-91923637D01*
X51266858Y-91723347D01*
X51258508Y-91702444D01*
X51254466Y-91692323D01*
X51191378Y-91534383D01*
X51149979Y-91471569D01*
X51079402Y-91364481D01*
X50836819Y-91121898D01*
X50803334Y-91060575D01*
X50800500Y-91034217D01*
X50800500Y-88465781D01*
X50820185Y-88398742D01*
X50836814Y-88378105D01*
X64615743Y-74599176D01*
X64680329Y-74537783D01*
X64715375Y-74487430D01*
X64718214Y-74483665D01*
X64728018Y-74471641D01*
X64756974Y-74436131D01*
X64772877Y-74405684D01*
X64776950Y-74398963D01*
X64781765Y-74392044D01*
X64796571Y-74370773D01*
X64820768Y-74314384D01*
X64822774Y-74310159D01*
X64851185Y-74255773D01*
X64860633Y-74222746D01*
X64863264Y-74215357D01*
X64876816Y-74183782D01*
X64889171Y-74123654D01*
X64890275Y-74119153D01*
X64907162Y-74060142D01*
X64909770Y-74025881D01*
X64910861Y-74018113D01*
X64917776Y-73984467D01*
X64917776Y-73923122D01*
X64917955Y-73918412D01*
X64922613Y-73857248D01*
X64918273Y-73823166D01*
X64917776Y-73815327D01*
X64917776Y-69745480D01*
X68271867Y-69745480D01*
X68279631Y-69834241D01*
X69015986Y-69636936D01*
X69085836Y-69638599D01*
X69143699Y-69677761D01*
X69170553Y-69737313D01*
X69191666Y-69870622D01*
X69191667Y-69870625D01*
X69228345Y-69942609D01*
X69241241Y-70011278D01*
X69214964Y-70076018D01*
X69157858Y-70116275D01*
X69149954Y-70118678D01*
X68409042Y-70317205D01*
X68446698Y-70397960D01*
X68577175Y-70584298D01*
X68738012Y-70745135D01*
X68924350Y-70875612D01*
X69130506Y-70971743D01*
X69130515Y-70971747D01*
X69350222Y-71030617D01*
X69350233Y-71030619D01*
X69576831Y-71050444D01*
X69576834Y-71050444D01*
X69665596Y-71042677D01*
X69467018Y-70301572D01*
X69468681Y-70231722D01*
X69507843Y-70173859D01*
X69572072Y-70146355D01*
X69586793Y-70145478D01*
X69608319Y-70145478D01*
X69701977Y-70130644D01*
X69701978Y-70130643D01*
X69701981Y-70130643D01*
X69773966Y-70093964D01*
X69842632Y-70081069D01*
X69907372Y-70107345D01*
X69947630Y-70164451D01*
X69950033Y-70172356D01*
X70148560Y-70913267D01*
X70229312Y-70875613D01*
X70415653Y-70745135D01*
X70576490Y-70584298D01*
X70706967Y-70397960D01*
X70803098Y-70191804D01*
X70803102Y-70191795D01*
X70861972Y-69972088D01*
X70861974Y-69972077D01*
X70881799Y-69745480D01*
X70881799Y-69745475D01*
X70874033Y-69656713D01*
X70137678Y-69854018D01*
X70067829Y-69852355D01*
X70009966Y-69813192D01*
X69983112Y-69753640D01*
X69961999Y-69620334D01*
X69961998Y-69620332D01*
X69961998Y-69620330D01*
X69925318Y-69548342D01*
X69912423Y-69479677D01*
X69938699Y-69414937D01*
X69995805Y-69374679D01*
X70003710Y-69372276D01*
X70744622Y-69173749D01*
X70706968Y-69092998D01*
X70706967Y-69092996D01*
X70576490Y-68906657D01*
X70415653Y-68745820D01*
X70229315Y-68615343D01*
X70023159Y-68519212D01*
X70023150Y-68519208D01*
X69803443Y-68460338D01*
X69803432Y-68460336D01*
X69576835Y-68440512D01*
X69576830Y-68440512D01*
X69488068Y-68448276D01*
X69488068Y-68448277D01*
X69686647Y-69189385D01*
X69684984Y-69259234D01*
X69645821Y-69317097D01*
X69581593Y-69344601D01*
X69566872Y-69345478D01*
X69545347Y-69345478D01*
X69451688Y-69360311D01*
X69451685Y-69360312D01*
X69379701Y-69396990D01*
X69311031Y-69409886D01*
X69246291Y-69383609D01*
X69206035Y-69326502D01*
X69203632Y-69318599D01*
X69005104Y-68577687D01*
X68924352Y-68615342D01*
X68738012Y-68745820D01*
X68577175Y-68906657D01*
X68446698Y-69092995D01*
X68350567Y-69299151D01*
X68350563Y-69299160D01*
X68291693Y-69518867D01*
X68291691Y-69518878D01*
X68271867Y-69745475D01*
X68271867Y-69745480D01*
X64917776Y-69745480D01*
X64917776Y-65729991D01*
X64920033Y-65640917D01*
X64920032Y-65640916D01*
X64920033Y-65640913D01*
X64909209Y-65580525D01*
X64908556Y-65575863D01*
X64902350Y-65514839D01*
X64902350Y-65514838D01*
X64892060Y-65482044D01*
X64890193Y-65474431D01*
X64884134Y-65440623D01*
X64884133Y-65440621D01*
X64861378Y-65383655D01*
X64859797Y-65379214D01*
X64841433Y-65320683D01*
X64824764Y-65290654D01*
X64821393Y-65283554D01*
X64808654Y-65251662D01*
X64808653Y-65251659D01*
X64774896Y-65200439D01*
X64772456Y-65196410D01*
X64761655Y-65176951D01*
X64742685Y-65142774D01*
X64742683Y-65142771D01*
X64720309Y-65116710D01*
X64715578Y-65110435D01*
X64696678Y-65081757D01*
X64653288Y-65038367D01*
X64650098Y-65034924D01*
X64610143Y-64988382D01*
X64610139Y-64988378D01*
X64582974Y-64967350D01*
X64577079Y-64962158D01*
X62916451Y-63301531D01*
X62855061Y-63236949D01*
X62855060Y-63236948D01*
X62855059Y-63236947D01*
X62826815Y-63217289D01*
X62804709Y-63201902D01*
X62800946Y-63199064D01*
X62753413Y-63160305D01*
X62753406Y-63160300D01*
X62722959Y-63144397D01*
X62716251Y-63140334D01*
X62688049Y-63120705D01*
X62688046Y-63120703D01*
X62661209Y-63109187D01*
X62607365Y-63064660D01*
X62586142Y-62998091D01*
X62604277Y-62930616D01*
X62622424Y-62907559D01*
X62991111Y-62538872D01*
X63052432Y-62505389D01*
X63122124Y-62510373D01*
X63140784Y-62519165D01*
X63145927Y-62522134D01*
X63240195Y-62564436D01*
X63412013Y-62599913D01*
X63587380Y-62594811D01*
X63756844Y-62549403D01*
X63911268Y-62466138D01*
X64042328Y-62349505D01*
X64042329Y-62349503D01*
X64042330Y-62349503D01*
X64070596Y-62310358D01*
X64102816Y-62265738D01*
X64752824Y-61139890D01*
X64795125Y-61045622D01*
X64827245Y-60890063D01*
X64830602Y-60873806D01*
X64825500Y-60698437D01*
X64780092Y-60528973D01*
X64764739Y-60500500D01*
X64696827Y-60374549D01*
X64696824Y-60374546D01*
X64693784Y-60368907D01*
X64679293Y-60300557D01*
X64704056Y-60235222D01*
X64760210Y-60193647D01*
X64770811Y-60190288D01*
X64971915Y-60136403D01*
X65186082Y-60036536D01*
X65379653Y-59900996D01*
X65546747Y-59733902D01*
X65682288Y-59540330D01*
X65782155Y-59326163D01*
X65843317Y-59097909D01*
X65854252Y-58972917D01*
X65863912Y-58862503D01*
X65863912Y-58862498D01*
X65856608Y-58779016D01*
X65843317Y-58627093D01*
X65782156Y-58398838D01*
X65700931Y-58224652D01*
X65690440Y-58155578D01*
X65718959Y-58091794D01*
X65777436Y-58053554D01*
X65802507Y-58048722D01*
X65993567Y-58032006D01*
X65993578Y-58032004D01*
X66221735Y-57970870D01*
X66221744Y-57970866D01*
X66435828Y-57871038D01*
X66435830Y-57871037D01*
X66629326Y-57735551D01*
X66629332Y-57735546D01*
X66785617Y-57579260D01*
X66036174Y-57146569D01*
X65987958Y-57096002D01*
X65974735Y-57027395D01*
X66000703Y-56962530D01*
X66006956Y-56955972D01*
X66006867Y-56955895D01*
X66012665Y-56949201D01*
X66012673Y-56949195D01*
X66086519Y-56834288D01*
X66101347Y-56783785D01*
X66139120Y-56725010D01*
X66202675Y-56695983D01*
X66271833Y-56705926D01*
X66282324Y-56711334D01*
X67035616Y-57146248D01*
X67092821Y-56932760D01*
X67092822Y-56932753D01*
X67113410Y-56697439D01*
X67113410Y-56697436D01*
X67092822Y-56462122D01*
X67092820Y-56462111D01*
X67031686Y-56233954D01*
X67031682Y-56233945D01*
X66931853Y-56019861D01*
X66931852Y-56019859D01*
X66796362Y-55826357D01*
X66629332Y-55659328D01*
X66538615Y-55595806D01*
X66538614Y-55595807D01*
X66159374Y-56252670D01*
X66108807Y-56300886D01*
X66040200Y-56314109D01*
X65975335Y-56288141D01*
X65970803Y-56284399D01*
X65909445Y-56231232D01*
X65909443Y-56231231D01*
X65784215Y-56174041D01*
X65731411Y-56128286D01*
X65711727Y-56061246D01*
X65728340Y-55999247D01*
X66105603Y-55345807D01*
X66105602Y-55345806D01*
X66005244Y-55299008D01*
X66005230Y-55299003D01*
X65777068Y-55237868D01*
X65541750Y-55217281D01*
X65541746Y-55217281D01*
X65306428Y-55237868D01*
X65306424Y-55237868D01*
X65078264Y-55299003D01*
X65078255Y-55299007D01*
X64864169Y-55398836D01*
X64864165Y-55398838D01*
X64670671Y-55534324D01*
X64514381Y-55690613D01*
X65263825Y-56123304D01*
X65312041Y-56173871D01*
X65325264Y-56242478D01*
X65299296Y-56307343D01*
X65293043Y-56313901D01*
X65293133Y-56313979D01*
X65287327Y-56320679D01*
X65213479Y-56435589D01*
X65198652Y-56486087D01*
X65160877Y-56544864D01*
X65097321Y-56573889D01*
X65028163Y-56563945D01*
X65017675Y-56558538D01*
X64264382Y-56123626D01*
X64207178Y-56337113D01*
X64207178Y-56337117D01*
X64186591Y-56572433D01*
X64186591Y-56572438D01*
X64207178Y-56807755D01*
X64207178Y-56807759D01*
X64268313Y-57035919D01*
X64268317Y-57035928D01*
X64349372Y-57209752D01*
X64359864Y-57278830D01*
X64331344Y-57342614D01*
X64272868Y-57380853D01*
X64247798Y-57385685D01*
X64056340Y-57402436D01*
X64056337Y-57402436D01*
X63828092Y-57463594D01*
X63828083Y-57463598D01*
X63805295Y-57474224D01*
X63736218Y-57484715D01*
X63672434Y-57456194D01*
X63634195Y-57397717D01*
X63628892Y-57361841D01*
X63628892Y-56807755D01*
X63628892Y-56237386D01*
X63648576Y-56170351D01*
X63665205Y-56149714D01*
X67698487Y-52116433D01*
X67763053Y-52055059D01*
X67798097Y-52004709D01*
X67800924Y-52000957D01*
X67839698Y-51953407D01*
X67855607Y-51922948D01*
X67859667Y-51916248D01*
X67879295Y-51888049D01*
X67903492Y-51831660D01*
X67905498Y-51827435D01*
X67933909Y-51773049D01*
X67943357Y-51740022D01*
X67945988Y-51732633D01*
X67959540Y-51701058D01*
X67971895Y-51640930D01*
X67972999Y-51636429D01*
X67989886Y-51577418D01*
X67992494Y-51543157D01*
X67993585Y-51535389D01*
X68000500Y-51501743D01*
X68000500Y-51440398D01*
X68000679Y-51435688D01*
X68005337Y-51374524D01*
X68000997Y-51340442D01*
X68000500Y-51332603D01*
X68000500Y-49722384D01*
X68002757Y-49633310D01*
X68002756Y-49633309D01*
X68002757Y-49633306D01*
X67991933Y-49572918D01*
X67991280Y-49568256D01*
X67985074Y-49507232D01*
X67985074Y-49507231D01*
X67974784Y-49474437D01*
X67972917Y-49466824D01*
X67966858Y-49433017D01*
X67966858Y-49433016D01*
X67944095Y-49376030D01*
X67942527Y-49371624D01*
X67932255Y-49338885D01*
X67924161Y-49313085D01*
X67924160Y-49313083D01*
X67907492Y-49283054D01*
X67904124Y-49275964D01*
X67891378Y-49244052D01*
X67857612Y-49192819D01*
X67855183Y-49188811D01*
X67825409Y-49135167D01*
X67803034Y-49109103D01*
X67798306Y-49102832D01*
X67779404Y-49074153D01*
X67779399Y-49074147D01*
X67756257Y-49051006D01*
X67736019Y-49030768D01*
X67732828Y-49027324D01*
X67692865Y-48980773D01*
X67665694Y-48959741D01*
X67659807Y-48954556D01*
X66792640Y-48087389D01*
X66759155Y-48026066D01*
X66764139Y-47956374D01*
X66772929Y-47937717D01*
X66837332Y-47826169D01*
X66861588Y-47771340D01*
X66869303Y-47725460D01*
X66899829Y-47662617D01*
X66903883Y-47658365D01*
X74125430Y-40436818D01*
X74186753Y-40403334D01*
X74213111Y-40400500D01*
X76934217Y-40400500D01*
X77001256Y-40420185D01*
G37*
%TD.AperFunction*%
%TA.AperFunction,Conductor*%
G36*
X89030422Y-108120185D02*
G01*
X89051064Y-108136819D01*
X98487732Y-117573487D01*
X98549104Y-117638050D01*
X98549103Y-117638050D01*
X98571339Y-117653527D01*
X98615116Y-117707982D01*
X98624500Y-117755295D01*
X98624500Y-117772866D01*
X98624501Y-117772877D01*
X98630908Y-117832483D01*
X98681202Y-117967328D01*
X98681206Y-117967335D01*
X98767452Y-118082544D01*
X98767455Y-118082547D01*
X98882664Y-118168793D01*
X98882671Y-118168797D01*
X99017517Y-118219091D01*
X99017516Y-118219091D01*
X99024444Y-118219835D01*
X99077127Y-118225500D01*
X100872872Y-118225499D01*
X100932483Y-118219091D01*
X101067331Y-118168796D01*
X101182546Y-118082546D01*
X101268796Y-117967331D01*
X101317810Y-117835916D01*
X101359681Y-117779984D01*
X101425145Y-117755566D01*
X101493418Y-117770417D01*
X101521672Y-117791568D01*
X101643599Y-117913495D01*
X101740384Y-117981264D01*
X101837165Y-118049032D01*
X101837167Y-118049033D01*
X101837170Y-118049035D01*
X102051337Y-118148903D01*
X102051343Y-118148904D01*
X102051344Y-118148905D01*
X102106285Y-118163626D01*
X102279592Y-118210063D01*
X102399207Y-118220528D01*
X102464276Y-118245980D01*
X102505255Y-118302571D01*
X102509133Y-118372333D01*
X102503030Y-118391343D01*
X102499459Y-118399999D01*
X102499476Y-118424616D01*
X102499471Y-118424616D01*
X102499500Y-118424759D01*
X102499500Y-119875500D01*
X102479815Y-119942539D01*
X102427011Y-119988294D01*
X102375500Y-119999500D01*
X97624500Y-119999500D01*
X97557461Y-119979815D01*
X97511706Y-119927011D01*
X97500500Y-119875500D01*
X97500500Y-118424759D01*
X97500528Y-118424616D01*
X97500524Y-118424616D01*
X97500539Y-118400002D01*
X97500541Y-118400000D01*
X97500462Y-118399808D01*
X97500384Y-118399618D01*
X97500382Y-118399616D01*
X97500099Y-118399500D01*
X97500000Y-118399459D01*
X97475446Y-118399459D01*
X97475240Y-118399500D01*
X92524760Y-118399500D01*
X92524554Y-118399459D01*
X92500000Y-118399459D01*
X92499901Y-118399500D01*
X92499617Y-118399616D01*
X92499615Y-118399618D01*
X92499459Y-118399999D01*
X92499476Y-118424616D01*
X92499471Y-118424616D01*
X92499500Y-118424759D01*
X92499500Y-119875500D01*
X92479815Y-119942539D01*
X92427011Y-119988294D01*
X92375500Y-119999500D01*
X87624500Y-119999500D01*
X87557461Y-119979815D01*
X87511706Y-119927011D01*
X87500500Y-119875500D01*
X87500500Y-118424759D01*
X87500528Y-118424616D01*
X87500524Y-118424616D01*
X87500539Y-118400002D01*
X87500541Y-118400000D01*
X87500462Y-118399808D01*
X87500384Y-118399618D01*
X87500382Y-118399616D01*
X87500099Y-118399500D01*
X87500000Y-118399459D01*
X87475446Y-118399459D01*
X87475240Y-118399500D01*
X82524760Y-118399500D01*
X82524554Y-118399459D01*
X82500000Y-118399459D01*
X82499901Y-118399500D01*
X82499617Y-118399616D01*
X82499615Y-118399618D01*
X82499459Y-118399999D01*
X82499476Y-118424616D01*
X82499471Y-118424616D01*
X82499500Y-118424759D01*
X82499500Y-119875500D01*
X82479815Y-119942539D01*
X82427011Y-119988294D01*
X82375500Y-119999500D01*
X77624500Y-119999500D01*
X77557461Y-119979815D01*
X77511706Y-119927011D01*
X77500500Y-119875500D01*
X77500500Y-118424759D01*
X77500528Y-118424616D01*
X77500524Y-118424616D01*
X77500539Y-118400002D01*
X77500541Y-118400000D01*
X77500462Y-118399808D01*
X77500384Y-118399618D01*
X77500382Y-118399616D01*
X77500099Y-118399500D01*
X77500000Y-118399459D01*
X77475446Y-118399459D01*
X77475240Y-118399500D01*
X77386077Y-118399500D01*
X77319038Y-118379815D01*
X77273283Y-118327011D01*
X77263339Y-118257853D01*
X77288812Y-118198587D01*
X77292704Y-118193663D01*
X77292712Y-118193656D01*
X77384814Y-118044334D01*
X77439999Y-117877797D01*
X77450500Y-117775009D01*
X77450499Y-117135451D01*
X77470183Y-117068413D01*
X77486813Y-117047776D01*
X82183788Y-112350801D01*
X82196042Y-112340986D01*
X82195859Y-112340764D01*
X82201866Y-112335792D01*
X82201877Y-112335786D01*
X82243871Y-112291067D01*
X82249227Y-112285364D01*
X82259671Y-112274918D01*
X82270120Y-112264471D01*
X82274379Y-112258978D01*
X82278152Y-112254561D01*
X82310062Y-112220582D01*
X82319713Y-112203024D01*
X82330396Y-112186761D01*
X82342673Y-112170936D01*
X82361185Y-112128153D01*
X82363738Y-112122941D01*
X82386197Y-112082092D01*
X82391180Y-112062680D01*
X82397481Y-112044280D01*
X82405437Y-112025896D01*
X82412729Y-111979852D01*
X82413906Y-111974171D01*
X82425500Y-111929019D01*
X82425500Y-111908982D01*
X82427027Y-111889582D01*
X82430160Y-111869804D01*
X82425775Y-111823415D01*
X82425500Y-111817577D01*
X82425500Y-110198687D01*
X82445185Y-110131648D01*
X82457350Y-110115715D01*
X82475891Y-110095122D01*
X82532533Y-110032216D01*
X82627179Y-109868284D01*
X82685674Y-109688256D01*
X82705460Y-109500000D01*
X82685674Y-109311744D01*
X82627179Y-109131716D01*
X82532533Y-108967784D01*
X82405871Y-108827112D01*
X82396908Y-108820600D01*
X82252734Y-108715851D01*
X82252729Y-108715848D01*
X82079807Y-108638857D01*
X82079802Y-108638855D01*
X81934001Y-108607865D01*
X81894646Y-108599500D01*
X81705354Y-108599500D01*
X81672897Y-108606398D01*
X81520197Y-108638855D01*
X81520192Y-108638857D01*
X81347270Y-108715848D01*
X81347265Y-108715851D01*
X81194129Y-108827111D01*
X81067466Y-108967785D01*
X80972821Y-109131715D01*
X80972818Y-109131722D01*
X80914325Y-109311744D01*
X80906048Y-109390501D01*
X80879463Y-109455115D01*
X80822166Y-109495100D01*
X80808508Y-109498829D01*
X80620197Y-109538855D01*
X80620192Y-109538857D01*
X80447270Y-109615848D01*
X80447265Y-109615851D01*
X80294129Y-109727111D01*
X80167466Y-109867785D01*
X80072821Y-110031715D01*
X80072818Y-110031722D01*
X80014327Y-110211740D01*
X80014326Y-110211744D01*
X80001454Y-110334217D01*
X79994540Y-110400000D01*
X80014326Y-110588256D01*
X80014328Y-110588262D01*
X80018514Y-110601146D01*
X80020509Y-110670987D01*
X79988264Y-110727144D01*
X76477226Y-114238181D01*
X76415903Y-114271666D01*
X76389545Y-114274500D01*
X75749998Y-114274500D01*
X75749980Y-114274501D01*
X75647203Y-114285000D01*
X75647200Y-114285001D01*
X75480668Y-114340185D01*
X75480663Y-114340187D01*
X75331342Y-114432289D01*
X75207289Y-114556342D01*
X75115183Y-114705670D01*
X75112383Y-114711677D01*
X75066212Y-114764117D01*
X74999019Y-114783271D01*
X74932138Y-114763057D01*
X74887617Y-114711677D01*
X74884816Y-114705670D01*
X74884812Y-114705663D01*
X74792712Y-114556344D01*
X74668656Y-114432288D01*
X74575888Y-114375069D01*
X74519336Y-114340187D01*
X74519331Y-114340185D01*
X74517862Y-114339698D01*
X74352797Y-114285001D01*
X74352795Y-114285000D01*
X74250010Y-114274500D01*
X73249998Y-114274500D01*
X73249980Y-114274501D01*
X73147203Y-114285000D01*
X73147200Y-114285001D01*
X72980668Y-114340185D01*
X72980663Y-114340187D01*
X72831342Y-114432289D01*
X72707289Y-114556342D01*
X72615187Y-114705663D01*
X72615185Y-114705668D01*
X72613194Y-114711677D01*
X72560001Y-114872203D01*
X72560001Y-114872204D01*
X72560000Y-114872204D01*
X72549500Y-114974983D01*
X72549500Y-115550500D01*
X72529815Y-115617539D01*
X72477011Y-115663294D01*
X72425500Y-115674500D01*
X68979248Y-115674500D01*
X68912209Y-115654815D01*
X68887100Y-115633474D01*
X68881373Y-115627114D01*
X68881369Y-115627110D01*
X68728234Y-115515851D01*
X68728229Y-115515848D01*
X68555307Y-115438857D01*
X68555302Y-115438855D01*
X68409501Y-115407865D01*
X68370146Y-115399500D01*
X68180854Y-115399500D01*
X68148397Y-115406398D01*
X67995697Y-115438855D01*
X67995692Y-115438857D01*
X67822770Y-115515848D01*
X67822765Y-115515851D01*
X67669629Y-115627111D01*
X67542966Y-115767785D01*
X67448321Y-115931715D01*
X67448318Y-115931722D01*
X67424858Y-116003926D01*
X67389826Y-116111744D01*
X67370040Y-116300000D01*
X67389826Y-116488256D01*
X67389827Y-116488259D01*
X67448318Y-116668277D01*
X67448323Y-116668289D01*
X67522429Y-116796645D01*
X67538902Y-116864545D01*
X67516049Y-116930572D01*
X67487928Y-116958961D01*
X67394131Y-117027109D01*
X67394129Y-117027111D01*
X67267466Y-117167785D01*
X67172821Y-117331715D01*
X67172818Y-117331722D01*
X67115027Y-117509587D01*
X67114326Y-117511744D01*
X67105674Y-117594063D01*
X67095246Y-117693287D01*
X67094540Y-117700000D01*
X67114326Y-117888256D01*
X67114327Y-117888259D01*
X67172818Y-118068277D01*
X67172821Y-118068284D01*
X67256661Y-118213500D01*
X67273134Y-118281401D01*
X67250281Y-118347427D01*
X67195360Y-118390618D01*
X67149274Y-118399500D01*
X62524760Y-118399500D01*
X62524554Y-118399459D01*
X62500000Y-118399459D01*
X62499901Y-118399500D01*
X62499617Y-118399616D01*
X62499615Y-118399618D01*
X62499459Y-118399999D01*
X62499476Y-118424616D01*
X62499471Y-118424616D01*
X62499500Y-118424759D01*
X62499500Y-119875500D01*
X62479815Y-119942539D01*
X62427011Y-119988294D01*
X62375500Y-119999500D01*
X57624500Y-119999500D01*
X57557461Y-119979815D01*
X57511706Y-119927011D01*
X57500500Y-119875500D01*
X57500500Y-118424759D01*
X57500528Y-118424616D01*
X57500524Y-118424616D01*
X57500539Y-118400002D01*
X57500541Y-118400000D01*
X57500462Y-118399808D01*
X57500384Y-118399618D01*
X57500382Y-118399616D01*
X57500099Y-118399500D01*
X57500000Y-118399459D01*
X57475446Y-118399459D01*
X57475240Y-118399500D01*
X52524760Y-118399500D01*
X52524554Y-118399459D01*
X52500000Y-118399459D01*
X52499901Y-118399500D01*
X52499617Y-118399616D01*
X52499615Y-118399618D01*
X52499459Y-118399999D01*
X52499476Y-118424616D01*
X52499471Y-118424616D01*
X52499500Y-118424759D01*
X52499500Y-119875500D01*
X52479815Y-119942539D01*
X52427011Y-119988294D01*
X52375500Y-119999500D01*
X47624500Y-119999500D01*
X47557461Y-119979815D01*
X47511706Y-119927011D01*
X47500500Y-119875500D01*
X47500500Y-118424759D01*
X47500528Y-118424616D01*
X47500524Y-118424616D01*
X47500539Y-118400002D01*
X47500541Y-118400000D01*
X47500383Y-118399617D01*
X47500382Y-118399616D01*
X47498016Y-118393879D01*
X47490646Y-118324399D01*
X47522009Y-118261964D01*
X47582149Y-118226397D01*
X47601829Y-118223062D01*
X47750408Y-118210063D01*
X47978663Y-118148903D01*
X48192830Y-118049035D01*
X48386401Y-117913495D01*
X48553495Y-117746401D01*
X48683730Y-117560405D01*
X48738307Y-117516781D01*
X48807805Y-117509587D01*
X48870160Y-117541110D01*
X48886879Y-117560405D01*
X49016890Y-117746078D01*
X49183917Y-117913105D01*
X49377421Y-118048600D01*
X49591507Y-118148429D01*
X49591516Y-118148433D01*
X49805000Y-118205634D01*
X49805000Y-117487301D01*
X49824685Y-117420262D01*
X49877489Y-117374507D01*
X49946647Y-117364563D01*
X50019237Y-117375000D01*
X50019238Y-117375000D01*
X50090762Y-117375000D01*
X50090763Y-117375000D01*
X50163353Y-117364563D01*
X50232512Y-117374507D01*
X50285315Y-117420262D01*
X50305000Y-117487301D01*
X50305000Y-118205633D01*
X50518483Y-118148433D01*
X50518492Y-118148429D01*
X50732578Y-118048600D01*
X50926082Y-117913105D01*
X51093105Y-117746082D01*
X51228600Y-117552578D01*
X51328429Y-117338492D01*
X51328432Y-117338486D01*
X51385636Y-117125000D01*
X50668347Y-117125000D01*
X50601308Y-117105315D01*
X50555553Y-117052511D01*
X50545609Y-116983353D01*
X50549369Y-116966067D01*
X50555000Y-116946888D01*
X50555000Y-116803111D01*
X50549369Y-116783933D01*
X50549370Y-116714064D01*
X50587145Y-116655286D01*
X50650701Y-116626262D01*
X50668347Y-116625000D01*
X51385636Y-116625000D01*
X51385635Y-116624999D01*
X51328432Y-116411513D01*
X51328429Y-116411507D01*
X51228600Y-116197422D01*
X51228599Y-116197420D01*
X51093113Y-116003926D01*
X51093108Y-116003920D01*
X50926082Y-115836894D01*
X50732578Y-115701399D01*
X50518492Y-115601570D01*
X50518486Y-115601567D01*
X50305000Y-115544364D01*
X50305000Y-116262698D01*
X50285315Y-116329737D01*
X50232511Y-116375492D01*
X50163355Y-116385436D01*
X50090766Y-116375000D01*
X50090763Y-116375000D01*
X50019237Y-116375000D01*
X50019233Y-116375000D01*
X49946645Y-116385436D01*
X49877487Y-116375492D01*
X49824684Y-116329736D01*
X49805000Y-116262698D01*
X49805000Y-115544364D01*
X49804999Y-115544364D01*
X49591513Y-115601567D01*
X49591507Y-115601570D01*
X49377422Y-115701399D01*
X49377420Y-115701400D01*
X49183926Y-115836886D01*
X49183920Y-115836891D01*
X49016891Y-116003920D01*
X49016890Y-116003922D01*
X48886880Y-116189595D01*
X48832303Y-116233219D01*
X48762804Y-116240412D01*
X48700450Y-116208890D01*
X48683730Y-116189594D01*
X48553494Y-116003597D01*
X48386402Y-115836506D01*
X48386396Y-115836501D01*
X48371506Y-115826075D01*
X48327881Y-115771498D01*
X48320687Y-115702000D01*
X48352210Y-115639645D01*
X48412440Y-115604231D01*
X48442629Y-115600500D01*
X48587284Y-115600500D01*
X48676358Y-115602757D01*
X48676358Y-115602756D01*
X48676363Y-115602757D01*
X48736753Y-115591932D01*
X48741412Y-115591280D01*
X48783607Y-115586988D01*
X48802438Y-115585074D01*
X48835227Y-115574786D01*
X48842840Y-115572918D01*
X48876653Y-115566858D01*
X48933621Y-115544101D01*
X48938053Y-115542524D01*
X48946295Y-115539938D01*
X48996588Y-115524159D01*
X49026627Y-115507484D01*
X49033708Y-115504122D01*
X49065617Y-115491377D01*
X49116854Y-115457608D01*
X49120851Y-115455187D01*
X49174502Y-115425409D01*
X49200568Y-115403030D01*
X49206843Y-115398300D01*
X49235519Y-115379402D01*
X49278917Y-115336002D01*
X49282336Y-115332834D01*
X49328895Y-115292866D01*
X49349931Y-115265688D01*
X49355101Y-115259818D01*
X50903102Y-113711818D01*
X50964425Y-113678333D01*
X50990783Y-113675499D01*
X51650002Y-113675499D01*
X51650008Y-113675499D01*
X51752797Y-113664999D01*
X51919334Y-113609814D01*
X52068656Y-113517712D01*
X52192712Y-113393656D01*
X52284814Y-113244334D01*
X52339999Y-113077797D01*
X52350500Y-112975009D01*
X52350499Y-112315781D01*
X52370183Y-112248743D01*
X52386813Y-112228106D01*
X53978101Y-110636819D01*
X54039425Y-110603334D01*
X54065783Y-110600500D01*
X56898259Y-110600500D01*
X56973071Y-110600500D01*
X56976211Y-110600580D01*
X57002842Y-110601930D01*
X57050936Y-110604369D01*
X57066856Y-110601930D01*
X57085633Y-110600500D01*
X58575500Y-110600500D01*
X58642539Y-110620185D01*
X58688294Y-110672989D01*
X58699500Y-110724500D01*
X58699500Y-116650743D01*
X58714925Y-116802439D01*
X58775837Y-116996579D01*
X58775844Y-116996594D01*
X58874589Y-117174499D01*
X58874592Y-117174504D01*
X59007132Y-117328893D01*
X59007134Y-117328895D01*
X59168037Y-117453445D01*
X59168038Y-117453445D01*
X59168042Y-117453448D01*
X59350729Y-117543060D01*
X59547715Y-117594063D01*
X59750936Y-117604369D01*
X59952071Y-117573556D01*
X60142887Y-117502886D01*
X60315571Y-117395252D01*
X60463053Y-117255059D01*
X60579295Y-117088049D01*
X60659540Y-116901058D01*
X60700500Y-116701741D01*
X60700500Y-110165781D01*
X60720185Y-110098743D01*
X60736814Y-110078106D01*
X62678101Y-108136818D01*
X62739425Y-108103334D01*
X62765783Y-108100500D01*
X88963383Y-108100500D01*
X89030422Y-108120185D01*
G37*
%TD.AperFunction*%
%TA.AperFunction,Conductor*%
G36*
X116675814Y-100138343D02*
G01*
X116704253Y-100171964D01*
X117351518Y-101293060D01*
X117351588Y-101293264D01*
X117363891Y-101314573D01*
X117364220Y-101314825D01*
X117364631Y-101314771D01*
X117364632Y-101314768D01*
X117374929Y-101308776D01*
X118637275Y-100579960D01*
X118705173Y-100563488D01*
X118771200Y-100586341D01*
X118806642Y-100625317D01*
X125486045Y-112186755D01*
X129222530Y-118654271D01*
X129235154Y-118676121D01*
X129891820Y-119813500D01*
X129908293Y-119881400D01*
X129885440Y-119947427D01*
X129830519Y-119990618D01*
X129784433Y-119999500D01*
X107624500Y-119999500D01*
X107557461Y-119979815D01*
X107511706Y-119927011D01*
X107500500Y-119875500D01*
X107500500Y-118424759D01*
X107500528Y-118424616D01*
X107500524Y-118424616D01*
X107500539Y-118400002D01*
X107500541Y-118400000D01*
X107500462Y-118399808D01*
X107500384Y-118399618D01*
X107500382Y-118399616D01*
X107500099Y-118399500D01*
X107500000Y-118399459D01*
X107475446Y-118399459D01*
X107475240Y-118399500D01*
X105523364Y-118399500D01*
X105456325Y-118379815D01*
X105410570Y-118327011D01*
X105400626Y-118257853D01*
X105429651Y-118194297D01*
X105488429Y-118156523D01*
X105491270Y-118155725D01*
X105518486Y-118148432D01*
X105518492Y-118148429D01*
X105732578Y-118048600D01*
X105926082Y-117913105D01*
X106093105Y-117746082D01*
X106228600Y-117552578D01*
X106328429Y-117338492D01*
X106328432Y-117338486D01*
X106385636Y-117125000D01*
X105668347Y-117125000D01*
X105601308Y-117105315D01*
X105555553Y-117052511D01*
X105545609Y-116983353D01*
X105549369Y-116966067D01*
X105555000Y-116946888D01*
X105555000Y-116803111D01*
X105549369Y-116783933D01*
X105549370Y-116714064D01*
X105587145Y-116655286D01*
X105650701Y-116626262D01*
X105668347Y-116625000D01*
X106385636Y-116625000D01*
X106385635Y-116624999D01*
X106328432Y-116411513D01*
X106328429Y-116411507D01*
X106228600Y-116197422D01*
X106228599Y-116197420D01*
X106093113Y-116003926D01*
X106093108Y-116003920D01*
X105926082Y-115836894D01*
X105732578Y-115701399D01*
X105518492Y-115601570D01*
X105518486Y-115601567D01*
X105305000Y-115544364D01*
X105305000Y-116262698D01*
X105285315Y-116329737D01*
X105232511Y-116375492D01*
X105163355Y-116385436D01*
X105090766Y-116375000D01*
X105090763Y-116375000D01*
X105019237Y-116375000D01*
X105019233Y-116375000D01*
X104946645Y-116385436D01*
X104877487Y-116375492D01*
X104824684Y-116329736D01*
X104805000Y-116262698D01*
X104805000Y-115544364D01*
X104804999Y-115544364D01*
X104591513Y-115601567D01*
X104591507Y-115601570D01*
X104377422Y-115701399D01*
X104377420Y-115701400D01*
X104183926Y-115836886D01*
X104183920Y-115836891D01*
X104016891Y-116003920D01*
X104016890Y-116003922D01*
X103886880Y-116189595D01*
X103832303Y-116233219D01*
X103762804Y-116240412D01*
X103700450Y-116208890D01*
X103683730Y-116189594D01*
X103553494Y-116003597D01*
X103386402Y-115836506D01*
X103386395Y-115836501D01*
X103192834Y-115700967D01*
X103192830Y-115700965D01*
X103190117Y-115699700D01*
X102978663Y-115601097D01*
X102978659Y-115601096D01*
X102978655Y-115601094D01*
X102750413Y-115539938D01*
X102750403Y-115539936D01*
X102515001Y-115519341D01*
X102514999Y-115519341D01*
X102279596Y-115539936D01*
X102279586Y-115539938D01*
X102173890Y-115568259D01*
X102104040Y-115566596D01*
X102046178Y-115527433D01*
X102018674Y-115463204D01*
X102030261Y-115394302D01*
X102054113Y-115360806D01*
X102414916Y-115000003D01*
X118484916Y-115000003D01*
X118504219Y-115331426D01*
X118504220Y-115331437D01*
X118561864Y-115658351D01*
X118561867Y-115658365D01*
X118657082Y-115976408D01*
X118788573Y-116281236D01*
X118788579Y-116281249D01*
X118954570Y-116568756D01*
X119152104Y-116834088D01*
X120120847Y-115865344D01*
X120182170Y-115831859D01*
X120251861Y-115836843D01*
X120296611Y-115868446D01*
X120297808Y-115867250D01*
X120472496Y-116041938D01*
X120471128Y-116043305D01*
X120505120Y-116094374D01*
X120506242Y-116164235D01*
X120474400Y-116218897D01*
X119509035Y-117184261D01*
X119509036Y-117184262D01*
X119634956Y-117289922D01*
X119912334Y-117472356D01*
X120208998Y-117621347D01*
X120209004Y-117621350D01*
X120520959Y-117734892D01*
X120520980Y-117734899D01*
X120843994Y-117811456D01*
X120844009Y-117811458D01*
X121173758Y-117849999D01*
X121173759Y-117850000D01*
X121505733Y-117850000D01*
X121505733Y-117849999D01*
X121835482Y-117811458D01*
X121835497Y-117811456D01*
X122158511Y-117734899D01*
X122158532Y-117734892D01*
X122470487Y-117621350D01*
X122470493Y-117621347D01*
X122767157Y-117472356D01*
X123044529Y-117289926D01*
X123044531Y-117289925D01*
X123170454Y-117184262D01*
X123170455Y-117184261D01*
X122205091Y-116218898D01*
X122171606Y-116157575D01*
X122176590Y-116087883D01*
X122208199Y-116043142D01*
X122206996Y-116041939D01*
X122381685Y-115867250D01*
X122383057Y-115868622D01*
X122434091Y-115834635D01*
X122503951Y-115833494D01*
X122558644Y-115865345D01*
X123527386Y-116834088D01*
X123724921Y-116568756D01*
X123890912Y-116281249D01*
X123890918Y-116281236D01*
X124022409Y-115976408D01*
X124117624Y-115658365D01*
X124117627Y-115658351D01*
X124175271Y-115331437D01*
X124175272Y-115331426D01*
X124194576Y-115000003D01*
X124194576Y-114999996D01*
X124175272Y-114668573D01*
X124175271Y-114668562D01*
X124117627Y-114341648D01*
X124117624Y-114341634D01*
X124022409Y-114023591D01*
X123890918Y-113718763D01*
X123890912Y-113718750D01*
X123724921Y-113431243D01*
X123527386Y-113165910D01*
X122558643Y-114134654D01*
X122497320Y-114168139D01*
X122427628Y-114163155D01*
X122382882Y-114131551D01*
X122381684Y-114132750D01*
X122206996Y-113958062D01*
X122208361Y-113956696D01*
X122174367Y-113905612D01*
X122173251Y-113835751D01*
X122205090Y-113781101D01*
X123170455Y-112815737D01*
X123170454Y-112815736D01*
X123044535Y-112710077D01*
X122767157Y-112527643D01*
X122470493Y-112378652D01*
X122470487Y-112378649D01*
X122158532Y-112265107D01*
X122158511Y-112265100D01*
X121835497Y-112188543D01*
X121835482Y-112188541D01*
X121505733Y-112150000D01*
X121173759Y-112150000D01*
X120844009Y-112188541D01*
X120843994Y-112188543D01*
X120520980Y-112265100D01*
X120520959Y-112265107D01*
X120209004Y-112378649D01*
X120208998Y-112378652D01*
X119912334Y-112527643D01*
X119634961Y-112710074D01*
X119509035Y-112815736D01*
X120474400Y-113781101D01*
X120507885Y-113842424D01*
X120502901Y-113912116D01*
X120471308Y-113956874D01*
X120472496Y-113958062D01*
X120297808Y-114132750D01*
X120296450Y-114131392D01*
X120245297Y-114165396D01*
X120175435Y-114166476D01*
X120120847Y-114134654D01*
X119152103Y-113165910D01*
X118954573Y-113431239D01*
X118788579Y-113718750D01*
X118788573Y-113718763D01*
X118657082Y-114023591D01*
X118561867Y-114341634D01*
X118561864Y-114341648D01*
X118504220Y-114668562D01*
X118504219Y-114668573D01*
X118484916Y-114999996D01*
X118484916Y-115000003D01*
X102414916Y-115000003D01*
X102503101Y-114911818D01*
X102564424Y-114878334D01*
X102590782Y-114875500D01*
X103512284Y-114875500D01*
X103601358Y-114877757D01*
X103601358Y-114877756D01*
X103601363Y-114877757D01*
X103661753Y-114866932D01*
X103666412Y-114866280D01*
X103708607Y-114861988D01*
X103727438Y-114860074D01*
X103760227Y-114849786D01*
X103767840Y-114847918D01*
X103801653Y-114841858D01*
X103858621Y-114819101D01*
X103863053Y-114817524D01*
X103921588Y-114799159D01*
X103951627Y-114782484D01*
X103958708Y-114779122D01*
X103990617Y-114766377D01*
X104041854Y-114732608D01*
X104045851Y-114730187D01*
X104099502Y-114700409D01*
X104125568Y-114678030D01*
X104131843Y-114673300D01*
X104160519Y-114654402D01*
X104203917Y-114611002D01*
X104207336Y-114607834D01*
X104253895Y-114567866D01*
X104274931Y-114540688D01*
X104280101Y-114534818D01*
X105103101Y-113711818D01*
X105164425Y-113678333D01*
X105190783Y-113675499D01*
X105850002Y-113675499D01*
X105850008Y-113675499D01*
X105952797Y-113664999D01*
X106119334Y-113609814D01*
X106268656Y-113517712D01*
X106392712Y-113393656D01*
X106484814Y-113244334D01*
X106539999Y-113077797D01*
X106550500Y-112975009D01*
X106550499Y-111424992D01*
X106549156Y-111411849D01*
X106539999Y-111322203D01*
X106539998Y-111322200D01*
X106535985Y-111310090D01*
X106484814Y-111155666D01*
X106392712Y-111006344D01*
X106268656Y-110882288D01*
X106137786Y-110801567D01*
X106119336Y-110790187D01*
X106119331Y-110790185D01*
X106110573Y-110787283D01*
X105952797Y-110735001D01*
X105952795Y-110735000D01*
X105850010Y-110724500D01*
X104549998Y-110724500D01*
X104549981Y-110724501D01*
X104447203Y-110735000D01*
X104447200Y-110735001D01*
X104280668Y-110790185D01*
X104280663Y-110790187D01*
X104131342Y-110882289D01*
X104007289Y-111006342D01*
X103911821Y-111161121D01*
X103859873Y-111207845D01*
X103790910Y-111219068D01*
X103726828Y-111191224D01*
X103718601Y-111183705D01*
X103571402Y-111036506D01*
X103571395Y-111036501D01*
X103377834Y-110900967D01*
X103377830Y-110900965D01*
X103325069Y-110876362D01*
X103163663Y-110801097D01*
X103163659Y-110801096D01*
X103163655Y-110801094D01*
X102935413Y-110739938D01*
X102935403Y-110739936D01*
X102700001Y-110719341D01*
X102699997Y-110719341D01*
X102697151Y-110719590D01*
X102695912Y-110719341D01*
X102694587Y-110719341D01*
X102694587Y-110719074D01*
X102628651Y-110705823D01*
X102598664Y-110683743D01*
X102336819Y-110421898D01*
X102303334Y-110360575D01*
X102300500Y-110334217D01*
X102300500Y-107150719D01*
X102320185Y-107083680D01*
X102336814Y-107063043D01*
X108570686Y-100829170D01*
X108632007Y-100795687D01*
X108701699Y-100800671D01*
X108757632Y-100842543D01*
X108782049Y-100908007D01*
X108778140Y-100948945D01*
X108757180Y-101027171D01*
X108757177Y-101027184D01*
X108736590Y-101262499D01*
X108736590Y-101262501D01*
X108757177Y-101497815D01*
X108757179Y-101497825D01*
X108814382Y-101711309D01*
X109567675Y-101276397D01*
X109635575Y-101259924D01*
X109701602Y-101282777D01*
X109744793Y-101337698D01*
X109748652Y-101348850D01*
X109763478Y-101399346D01*
X109763480Y-101399350D01*
X109763481Y-101399351D01*
X109837327Y-101514258D01*
X109837330Y-101514261D01*
X109843133Y-101520958D01*
X109840944Y-101522854D01*
X109870798Y-101569299D01*
X109870804Y-101639169D01*
X109833034Y-101697950D01*
X109813824Y-101711631D01*
X109064380Y-102144322D01*
X109064380Y-102144323D01*
X109220667Y-102300609D01*
X109414164Y-102436097D01*
X109414168Y-102436099D01*
X109628255Y-102535929D01*
X109628264Y-102535933D01*
X109856426Y-102597068D01*
X110091746Y-102617656D01*
X110091750Y-102617656D01*
X110327066Y-102597068D01*
X110327067Y-102597068D01*
X110555241Y-102535929D01*
X110655602Y-102489128D01*
X110655603Y-102489127D01*
X110278340Y-101835689D01*
X110261867Y-101767789D01*
X110284720Y-101701762D01*
X110334216Y-101660895D01*
X110388531Y-101636090D01*
X110459445Y-101603705D01*
X110520787Y-101550551D01*
X110584341Y-101521528D01*
X110653499Y-101531471D01*
X110706303Y-101577226D01*
X110709375Y-101582266D01*
X111088614Y-102239128D01*
X111088615Y-102239128D01*
X111179334Y-102175607D01*
X111346362Y-102008579D01*
X111481852Y-101815077D01*
X111481853Y-101815075D01*
X111581682Y-101600991D01*
X111581686Y-101600982D01*
X111642820Y-101372825D01*
X111642822Y-101372815D01*
X111663410Y-101137500D01*
X111663410Y-101137499D01*
X111652658Y-101014614D01*
X111666424Y-100946114D01*
X111715039Y-100895931D01*
X111783068Y-100879997D01*
X111825090Y-100889857D01*
X111832394Y-100892992D01*
X111832393Y-100892992D01*
X111845506Y-100895686D01*
X111892507Y-100905344D01*
X111897047Y-100906458D01*
X111956034Y-100923338D01*
X111990293Y-100925946D01*
X111998061Y-100927037D01*
X112031707Y-100933952D01*
X112031711Y-100933952D01*
X112093053Y-100933952D01*
X112097760Y-100934130D01*
X112134103Y-100936898D01*
X112158927Y-100938789D01*
X112158927Y-100938788D01*
X112158928Y-100938789D01*
X112193011Y-100934448D01*
X112200841Y-100933952D01*
X113752797Y-100933952D01*
X113819836Y-100953637D01*
X113860183Y-100995951D01*
X113912584Y-101086711D01*
X114085540Y-101386280D01*
X114085542Y-101386284D01*
X114098342Y-101403813D01*
X114120896Y-101434702D01*
X114217247Y-101514257D01*
X114231875Y-101526335D01*
X114231877Y-101526337D01*
X114332204Y-101569299D01*
X114364178Y-101582991D01*
X114507083Y-101600078D01*
X114507084Y-101600078D01*
X114554392Y-101592121D01*
X114649012Y-101576210D01*
X114703840Y-101551956D01*
X116259000Y-100654082D01*
X116307421Y-100618727D01*
X116399055Y-100507747D01*
X116455710Y-100375445D01*
X116472797Y-100232540D01*
X116472796Y-100232539D01*
X116473850Y-100223733D01*
X116476353Y-100224032D01*
X116490983Y-100169428D01*
X116542683Y-100122429D01*
X116611585Y-100110841D01*
X116675814Y-100138343D01*
G37*
%TD.AperFunction*%
%TA.AperFunction,Conductor*%
G36*
X61386771Y-48632320D02*
G01*
X61899232Y-48928189D01*
X62614041Y-49340884D01*
X62614294Y-49341106D01*
X62635368Y-49353245D01*
X62635369Y-49353246D01*
X62635780Y-49353300D01*
X62635780Y-49353299D01*
X62641699Y-49354077D01*
X62705604Y-49382325D01*
X62744092Y-49440638D01*
X62744944Y-49510503D01*
X62737932Y-49529425D01*
X62674929Y-49664534D01*
X62674924Y-49664548D01*
X62613768Y-49892790D01*
X62613766Y-49892800D01*
X62593171Y-50128203D01*
X62593171Y-50128204D01*
X62613766Y-50363607D01*
X62613768Y-50363617D01*
X62674924Y-50591859D01*
X62674926Y-50591863D01*
X62674927Y-50591867D01*
X62770886Y-50797651D01*
X62781378Y-50866727D01*
X62752858Y-50930511D01*
X62694382Y-50968751D01*
X62669312Y-50973583D01*
X62443513Y-50993338D01*
X62443503Y-50993340D01*
X62215346Y-51054474D01*
X62215337Y-51054478D01*
X62001252Y-51154307D01*
X62001250Y-51154308D01*
X61807749Y-51289798D01*
X61651464Y-51446083D01*
X62269980Y-51803183D01*
X62318196Y-51853750D01*
X62331419Y-51922357D01*
X62305451Y-51987222D01*
X62301696Y-51991770D01*
X62297069Y-51997110D01*
X62219336Y-52118066D01*
X62205203Y-52166197D01*
X62167427Y-52224974D01*
X62103871Y-52253998D01*
X62034713Y-52244054D01*
X62024226Y-52238647D01*
X61401465Y-51879096D01*
X61344262Y-52092581D01*
X61344260Y-52092592D01*
X61323673Y-52327906D01*
X61323673Y-52327909D01*
X61344260Y-52563223D01*
X61344262Y-52563234D01*
X61405396Y-52791391D01*
X61405400Y-52791400D01*
X61505229Y-53005486D01*
X61640724Y-53198990D01*
X61797005Y-53355271D01*
X62156723Y-52732222D01*
X62207290Y-52684006D01*
X62275897Y-52670783D01*
X62340762Y-52696751D01*
X62345306Y-52700503D01*
X62405730Y-52752860D01*
X62532057Y-52810552D01*
X62584861Y-52856307D01*
X62604545Y-52923346D01*
X62587932Y-52985346D01*
X62230017Y-53605271D01*
X62443507Y-53662476D01*
X62443514Y-53662477D01*
X62678828Y-53683065D01*
X62678832Y-53683065D01*
X62914145Y-53662477D01*
X62914152Y-53662476D01*
X63025098Y-53632748D01*
X63094948Y-53634411D01*
X63152811Y-53673573D01*
X63180315Y-53737801D01*
X63168729Y-53806704D01*
X63144873Y-53840204D01*
X61929924Y-55055154D01*
X61865338Y-55116550D01*
X61830291Y-55166902D01*
X61827454Y-55170664D01*
X61788694Y-55218200D01*
X61788691Y-55218205D01*
X61772784Y-55248655D01*
X61768716Y-55255369D01*
X61749094Y-55283562D01*
X61724901Y-55339938D01*
X61722880Y-55344192D01*
X61694483Y-55398559D01*
X61694482Y-55398560D01*
X61685032Y-55431583D01*
X61682399Y-55438979D01*
X61668851Y-55470551D01*
X61656505Y-55530627D01*
X61655382Y-55535203D01*
X61638505Y-55594185D01*
X61638505Y-55594187D01*
X61635895Y-55628449D01*
X61634806Y-55636216D01*
X61630058Y-55659328D01*
X61627892Y-55669866D01*
X61627892Y-55731205D01*
X61627713Y-55735914D01*
X61623054Y-55797081D01*
X61627394Y-55831157D01*
X61627891Y-55838997D01*
X61627891Y-60430740D01*
X61625635Y-60519815D01*
X61625635Y-60519824D01*
X61636036Y-60577857D01*
X61628486Y-60647318D01*
X61621369Y-60661730D01*
X61547177Y-60790235D01*
X61547173Y-60790243D01*
X61504875Y-60884505D01*
X61469397Y-61056321D01*
X61472773Y-61172350D01*
X61455046Y-61239933D01*
X61436506Y-61263636D01*
X60501531Y-62198611D01*
X60436946Y-62260006D01*
X60401899Y-62310358D01*
X60399062Y-62314120D01*
X60360302Y-62361656D01*
X60360299Y-62361661D01*
X60344392Y-62392111D01*
X60340324Y-62398825D01*
X60320702Y-62427018D01*
X60296509Y-62483394D01*
X60294488Y-62487648D01*
X60266091Y-62542015D01*
X60266090Y-62542016D01*
X60256640Y-62575039D01*
X60254007Y-62582435D01*
X60240459Y-62614007D01*
X60228113Y-62674083D01*
X60226990Y-62678659D01*
X60210113Y-62737641D01*
X60210113Y-62737643D01*
X60207503Y-62771905D01*
X60206414Y-62779672D01*
X60201121Y-62805432D01*
X60199500Y-62813322D01*
X60199500Y-62874661D01*
X60199321Y-62879370D01*
X60194662Y-62940538D01*
X60196707Y-62956591D01*
X60199003Y-62974624D01*
X60199500Y-62982452D01*
X60199500Y-63973070D01*
X60199420Y-63976210D01*
X60195631Y-64050935D01*
X60195631Y-64050936D01*
X60206957Y-64124877D01*
X60207354Y-64127991D01*
X60214925Y-64202437D01*
X60214926Y-64202440D01*
X60219749Y-64217814D01*
X60224003Y-64236147D01*
X60226442Y-64252064D01*
X60226443Y-64252068D01*
X60252427Y-64322232D01*
X60253441Y-64325198D01*
X60275841Y-64396588D01*
X60275842Y-64396589D01*
X60275843Y-64396592D01*
X60283657Y-64410670D01*
X60291517Y-64427777D01*
X60297111Y-64442881D01*
X60297114Y-64442887D01*
X60336694Y-64506390D01*
X60338288Y-64509096D01*
X60374592Y-64574503D01*
X60374593Y-64574504D01*
X60385078Y-64586718D01*
X60396222Y-64601894D01*
X60404745Y-64615567D01*
X60404745Y-64615568D01*
X60404748Y-64615571D01*
X60456315Y-64669819D01*
X60458392Y-64672118D01*
X60478902Y-64696010D01*
X60507132Y-64728894D01*
X60507133Y-64728895D01*
X60519869Y-64738753D01*
X60533844Y-64751379D01*
X60544940Y-64763052D01*
X60606340Y-64805789D01*
X60608873Y-64807648D01*
X60630502Y-64824390D01*
X60668042Y-64853448D01*
X60682515Y-64860547D01*
X60698726Y-64870090D01*
X60711951Y-64879295D01*
X60711956Y-64879297D01*
X60780696Y-64908796D01*
X60783552Y-64910108D01*
X60850724Y-64943058D01*
X60850726Y-64943058D01*
X60850729Y-64943060D01*
X60866316Y-64947095D01*
X60884128Y-64953182D01*
X60898942Y-64959540D01*
X60972265Y-64974607D01*
X60975260Y-64975302D01*
X61047711Y-64994062D01*
X61047715Y-64994063D01*
X61063807Y-64994879D01*
X61082480Y-64997257D01*
X61091413Y-64999093D01*
X61098258Y-65000500D01*
X61098259Y-65000500D01*
X61173071Y-65000500D01*
X61176211Y-65000580D01*
X61202842Y-65001930D01*
X61250936Y-65004369D01*
X61266856Y-65001930D01*
X61285633Y-65000500D01*
X61734217Y-65000500D01*
X61801256Y-65020185D01*
X61821898Y-65036819D01*
X62880457Y-66095377D01*
X62913942Y-66156700D01*
X62916776Y-66183058D01*
X62916775Y-73416940D01*
X62897090Y-73483979D01*
X62880456Y-73504621D01*
X53308478Y-83076600D01*
X53247155Y-83110085D01*
X53177463Y-83105101D01*
X53121530Y-83063229D01*
X53097113Y-82997765D01*
X53097475Y-82975966D01*
X53105460Y-82900000D01*
X53085674Y-82711744D01*
X53027179Y-82531716D01*
X52932533Y-82367784D01*
X52805871Y-82227112D01*
X52805870Y-82227111D01*
X52652734Y-82115851D01*
X52652729Y-82115848D01*
X52479807Y-82038857D01*
X52479802Y-82038855D01*
X52323368Y-82005605D01*
X52294646Y-81999500D01*
X52294645Y-81999500D01*
X52235453Y-81999500D01*
X52168414Y-81979815D01*
X52147772Y-81963181D01*
X51563836Y-81379245D01*
X51530351Y-81317922D01*
X51527517Y-81291564D01*
X51527517Y-76864289D01*
X51547202Y-76797250D01*
X51550988Y-76791695D01*
X51570051Y-76765296D01*
X51583423Y-76746778D01*
X52083430Y-75880738D01*
X52125732Y-75786470D01*
X52161209Y-75614652D01*
X52156107Y-75439285D01*
X52110699Y-75269821D01*
X52027434Y-75115397D01*
X52027431Y-75115393D01*
X52023631Y-75109967D01*
X52001301Y-75043762D01*
X52018309Y-74975994D01*
X52069255Y-74928179D01*
X52136013Y-74915312D01*
X52142618Y-74915890D01*
X52142619Y-74915889D01*
X52142620Y-74915890D01*
X52317987Y-74910788D01*
X52487451Y-74865380D01*
X52641875Y-74782115D01*
X52772935Y-74665482D01*
X52772936Y-74665480D01*
X52772937Y-74665480D01*
X52821280Y-74598531D01*
X52833423Y-74581715D01*
X53333430Y-73715675D01*
X53375732Y-73621407D01*
X53405157Y-73478899D01*
X53411209Y-73449591D01*
X53406107Y-73274222D01*
X53360699Y-73104758D01*
X53322867Y-73034595D01*
X53277434Y-72950334D01*
X53160801Y-72819274D01*
X53160800Y-72819273D01*
X53160799Y-72819271D01*
X53077040Y-72758790D01*
X53077023Y-72758779D01*
X52839516Y-72621655D01*
X52791301Y-72571088D01*
X52777516Y-72514271D01*
X52777516Y-70758434D01*
X52797201Y-70691396D01*
X52813835Y-70670754D01*
X53031763Y-70452827D01*
X53512513Y-69972077D01*
X53747772Y-69736819D01*
X53809095Y-69703334D01*
X53835453Y-69700500D01*
X53894644Y-69700500D01*
X53894646Y-69700500D01*
X54079803Y-69661144D01*
X54252730Y-69584151D01*
X54405871Y-69472888D01*
X54532533Y-69332216D01*
X54627179Y-69168284D01*
X54685674Y-68988256D01*
X54705460Y-68800000D01*
X54685674Y-68611744D01*
X54627179Y-68431716D01*
X54532533Y-68267784D01*
X54405871Y-68127112D01*
X54405870Y-68127111D01*
X54252734Y-68015851D01*
X54252729Y-68015848D01*
X54079807Y-67938857D01*
X54079802Y-67938855D01*
X54003679Y-67922675D01*
X53942197Y-67889482D01*
X53908421Y-67828319D01*
X53905460Y-67801385D01*
X53905460Y-67800002D01*
X53900273Y-67750650D01*
X53885674Y-67611744D01*
X53827179Y-67431716D01*
X53732533Y-67267784D01*
X53605871Y-67127112D01*
X53605870Y-67127111D01*
X53452734Y-67015851D01*
X53452729Y-67015848D01*
X53279807Y-66938857D01*
X53279802Y-66938855D01*
X53134001Y-66907865D01*
X53094646Y-66899500D01*
X52905354Y-66899500D01*
X52872897Y-66906398D01*
X52720197Y-66938855D01*
X52720192Y-66938857D01*
X52547270Y-67015848D01*
X52547265Y-67015851D01*
X52394129Y-67127111D01*
X52267466Y-67267785D01*
X52172821Y-67431715D01*
X52172818Y-67431722D01*
X52130932Y-67560636D01*
X52114326Y-67611744D01*
X52099727Y-67750650D01*
X52096679Y-67779649D01*
X52070094Y-67844263D01*
X52061039Y-67854368D01*
X49992873Y-69922534D01*
X49980616Y-69932355D01*
X49980799Y-69932576D01*
X49974788Y-69937548D01*
X49927437Y-69987971D01*
X49906554Y-70008854D01*
X49906542Y-70008867D01*
X49902286Y-70014352D01*
X49898502Y-70018782D01*
X49866602Y-70052753D01*
X49866601Y-70052755D01*
X49856949Y-70070311D01*
X49846275Y-70086561D01*
X49833994Y-70102396D01*
X49833989Y-70102403D01*
X49815480Y-70145173D01*
X49812910Y-70150419D01*
X49790468Y-70191241D01*
X49785487Y-70210642D01*
X49779186Y-70229045D01*
X49771227Y-70247437D01*
X49771226Y-70247440D01*
X49763936Y-70293462D01*
X49762752Y-70299181D01*
X49751166Y-70344307D01*
X49751164Y-70344319D01*
X49751164Y-70364355D01*
X49749638Y-70383746D01*
X49746505Y-70403529D01*
X49746505Y-70403530D01*
X49750890Y-70449918D01*
X49751165Y-70455756D01*
X49751165Y-70566082D01*
X49731480Y-70633121D01*
X49678676Y-70678876D01*
X49609518Y-70688820D01*
X49565165Y-70673469D01*
X48889418Y-70283327D01*
X48841202Y-70232760D01*
X48827979Y-70164153D01*
X48844022Y-70113957D01*
X51219116Y-65999223D01*
X51269675Y-65951006D01*
X51338281Y-65937776D01*
X51388504Y-65953828D01*
X52614041Y-66661392D01*
X52614294Y-66661614D01*
X52635371Y-66673755D01*
X52635777Y-66673808D01*
X52635778Y-66673808D01*
X52635778Y-66673807D01*
X52635780Y-66673808D01*
X52636024Y-66673621D01*
X52636024Y-66673619D01*
X52636293Y-66673414D01*
X52636406Y-66673327D01*
X52638002Y-66670845D01*
X52639813Y-66668303D01*
X52642215Y-66662960D01*
X52648620Y-66651851D01*
X52648621Y-66651852D01*
X52648662Y-66651728D01*
X55123582Y-62365041D01*
X55123893Y-62364688D01*
X55134849Y-62345617D01*
X55136073Y-62343708D01*
X55136083Y-62343628D01*
X55136163Y-62343019D01*
X55136162Y-62343016D01*
X55135911Y-62342688D01*
X55115506Y-62330799D01*
X55114837Y-62330569D01*
X54311608Y-61866825D01*
X53888548Y-61622571D01*
X53840334Y-61572006D01*
X53827111Y-61503399D01*
X53843154Y-61453205D01*
X56218249Y-57338469D01*
X56268808Y-57290252D01*
X56337414Y-57277022D01*
X56387639Y-57293075D01*
X56670170Y-57456194D01*
X57614041Y-58001138D01*
X57614294Y-58001360D01*
X57635371Y-58013501D01*
X57635778Y-58013554D01*
X57635778Y-58013553D01*
X57635780Y-58013554D01*
X57636024Y-58013367D01*
X57636024Y-58013365D01*
X57636293Y-58013160D01*
X57636406Y-58013073D01*
X57638002Y-58010591D01*
X57639813Y-58008049D01*
X57642215Y-58002706D01*
X57648620Y-57991597D01*
X57648621Y-57991598D01*
X57648662Y-57991474D01*
X60123582Y-53704787D01*
X60123893Y-53704434D01*
X60134849Y-53685363D01*
X60136073Y-53683454D01*
X60136083Y-53683374D01*
X60136163Y-53682765D01*
X60136162Y-53682762D01*
X60135911Y-53682434D01*
X60115506Y-53670545D01*
X60114837Y-53670315D01*
X58931649Y-52987202D01*
X58887682Y-52961817D01*
X58839467Y-52911251D01*
X58826244Y-52842644D01*
X58842287Y-52792450D01*
X61217381Y-48677714D01*
X61267940Y-48629497D01*
X61336546Y-48616267D01*
X61386771Y-48632320D01*
G37*
%TD.AperFunction*%
%TA.AperFunction,Conductor*%
G36*
X88756361Y-48633383D02*
G01*
X88791803Y-48672359D01*
X91168478Y-52786167D01*
X91184970Y-52854063D01*
X91162137Y-52920096D01*
X91123109Y-52955585D01*
X89877538Y-53674716D01*
X89864091Y-53682432D01*
X89863730Y-53682896D01*
X89865770Y-53686423D01*
X89867782Y-53690199D01*
X89889123Y-53733788D01*
X89899356Y-53744520D01*
X92351518Y-57991789D01*
X92351588Y-57991993D01*
X92363891Y-58013302D01*
X92364220Y-58013554D01*
X92364221Y-58013554D01*
X92364627Y-58013501D01*
X92364628Y-58013500D01*
X92364631Y-58013500D01*
X92364632Y-58013497D01*
X92374717Y-58007628D01*
X93624910Y-57285828D01*
X93692807Y-57269356D01*
X93758834Y-57292209D01*
X93794276Y-57331185D01*
X96170952Y-61444993D01*
X96187444Y-61512889D01*
X96164611Y-61578922D01*
X96125583Y-61614411D01*
X94877538Y-62334971D01*
X94864090Y-62342687D01*
X94863730Y-62343150D01*
X94865770Y-62346677D01*
X94867782Y-62350453D01*
X94889123Y-62394042D01*
X94899356Y-62404774D01*
X97351518Y-66652043D01*
X97351588Y-66652247D01*
X97363891Y-66673556D01*
X97364220Y-66673808D01*
X97364221Y-66673808D01*
X97364627Y-66673755D01*
X97364628Y-66673754D01*
X97364631Y-66673754D01*
X97364632Y-66673751D01*
X97374717Y-66667882D01*
X98627384Y-65944653D01*
X98695280Y-65928182D01*
X98761307Y-65951035D01*
X98796749Y-65990011D01*
X100890646Y-69614355D01*
X101163454Y-70086561D01*
X101173425Y-70103819D01*
X101189917Y-70171715D01*
X101167084Y-70237748D01*
X101128056Y-70273237D01*
X99885464Y-70990649D01*
X99885295Y-70990707D01*
X99885307Y-70990728D01*
X99864086Y-71002945D01*
X99863837Y-71003270D01*
X99863836Y-71003273D01*
X99863890Y-71003682D01*
X99876270Y-71025090D01*
X99876266Y-71025092D01*
X99876361Y-71025200D01*
X99920124Y-71101000D01*
X99920887Y-71102320D01*
X99937360Y-71170220D01*
X99914508Y-71236247D01*
X99859587Y-71279437D01*
X99795532Y-71287011D01*
X99789312Y-71286100D01*
X99613935Y-71280997D01*
X99442120Y-71316474D01*
X99379534Y-71344558D01*
X99310311Y-71354043D01*
X99246949Y-71324598D01*
X99241089Y-71319106D01*
X98013695Y-70091712D01*
X98003872Y-70079450D01*
X98003651Y-70079634D01*
X97998678Y-70073623D01*
X97976454Y-70052753D01*
X97948256Y-70026273D01*
X97933261Y-70011278D01*
X97927367Y-70005383D01*
X97921878Y-70001125D01*
X97917453Y-69997347D01*
X97883474Y-69965438D01*
X97883472Y-69965436D01*
X97883469Y-69965435D01*
X97865921Y-69955788D01*
X97849655Y-69945104D01*
X97847309Y-69943284D01*
X97833828Y-69932827D01*
X97833827Y-69932826D01*
X97833825Y-69932825D01*
X97791060Y-69914318D01*
X97785814Y-69911748D01*
X97744985Y-69889303D01*
X97744984Y-69889302D01*
X97725585Y-69884322D01*
X97707173Y-69878018D01*
X97688790Y-69870062D01*
X97688784Y-69870060D01*
X97642766Y-69862772D01*
X97637044Y-69861587D01*
X97591913Y-69850000D01*
X97591911Y-69850000D01*
X97571876Y-69850000D01*
X97552478Y-69848473D01*
X97545054Y-69847297D01*
X97532697Y-69845340D01*
X97532696Y-69845340D01*
X97486308Y-69849725D01*
X97480470Y-69850000D01*
X92703748Y-69850000D01*
X92636709Y-69830315D01*
X92611600Y-69808974D01*
X92605873Y-69802614D01*
X92605869Y-69802610D01*
X92452734Y-69691351D01*
X92452729Y-69691348D01*
X92279807Y-69614357D01*
X92279802Y-69614355D01*
X92134001Y-69583365D01*
X92094646Y-69575000D01*
X91905354Y-69575000D01*
X91872897Y-69581898D01*
X91720197Y-69614355D01*
X91720192Y-69614357D01*
X91547270Y-69691348D01*
X91547265Y-69691351D01*
X91394129Y-69802611D01*
X91267466Y-69943285D01*
X91172821Y-70107215D01*
X91172818Y-70107222D01*
X91114327Y-70287240D01*
X91114326Y-70287244D01*
X91095805Y-70463463D01*
X91069222Y-70528076D01*
X91011924Y-70568061D01*
X90972485Y-70574500D01*
X90803748Y-70574500D01*
X90736709Y-70554815D01*
X90711600Y-70533474D01*
X90705873Y-70527114D01*
X90705869Y-70527110D01*
X90552734Y-70415851D01*
X90552729Y-70415848D01*
X90379807Y-70338857D01*
X90379802Y-70338855D01*
X90234000Y-70307865D01*
X90194646Y-70299500D01*
X90005354Y-70299500D01*
X89972897Y-70306398D01*
X89820197Y-70338855D01*
X89820192Y-70338857D01*
X89647270Y-70415848D01*
X89647265Y-70415851D01*
X89494129Y-70527111D01*
X89367467Y-70667783D01*
X89307433Y-70771765D01*
X89256865Y-70819980D01*
X89188258Y-70833202D01*
X89123394Y-70807234D01*
X89112365Y-70797445D01*
X86402600Y-68087680D01*
X86369115Y-68026357D01*
X86374099Y-67956665D01*
X86402596Y-67912323D01*
X87598468Y-66716451D01*
X87663053Y-66655059D01*
X87698099Y-66604706D01*
X87700938Y-66600941D01*
X87704612Y-66596435D01*
X87739698Y-66553407D01*
X87755601Y-66522960D01*
X87759674Y-66516239D01*
X87764489Y-66509320D01*
X87779295Y-66488049D01*
X87803492Y-66431660D01*
X87805498Y-66427435D01*
X87833909Y-66373049D01*
X87843357Y-66340022D01*
X87845988Y-66332633D01*
X87859540Y-66301058D01*
X87871895Y-66240930D01*
X87872999Y-66236429D01*
X87889886Y-66177418D01*
X87892494Y-66143157D01*
X87893585Y-66135389D01*
X87900500Y-66101743D01*
X87900500Y-66040398D01*
X87900679Y-66035688D01*
X87905337Y-65974524D01*
X87900997Y-65940442D01*
X87900500Y-65932603D01*
X87900500Y-63750870D01*
X87902757Y-63661796D01*
X87902756Y-63661795D01*
X87902757Y-63661792D01*
X87891933Y-63601404D01*
X87891280Y-63596742D01*
X87885074Y-63535718D01*
X87885074Y-63535717D01*
X87874784Y-63502923D01*
X87872917Y-63495310D01*
X87866858Y-63461502D01*
X87866857Y-63461500D01*
X87844102Y-63404534D01*
X87842521Y-63400093D01*
X87824157Y-63341562D01*
X87807488Y-63311533D01*
X87804117Y-63304433D01*
X87791378Y-63272541D01*
X87791377Y-63272538D01*
X87757620Y-63221318D01*
X87755180Y-63217289D01*
X87733764Y-63178706D01*
X87725409Y-63163653D01*
X87725407Y-63163650D01*
X87703033Y-63137589D01*
X87698302Y-63131314D01*
X87691309Y-63120703D01*
X87679402Y-63102636D01*
X87636012Y-63059246D01*
X87632822Y-63055803D01*
X87592867Y-63009261D01*
X87592863Y-63009257D01*
X87565698Y-62988229D01*
X87559803Y-62983037D01*
X87443521Y-62866755D01*
X87410036Y-62805432D01*
X87415020Y-62735740D01*
X87456892Y-62679807D01*
X87478796Y-62666692D01*
X87505602Y-62654191D01*
X87505603Y-62654190D01*
X87128340Y-62000752D01*
X87111867Y-61932852D01*
X87134720Y-61866825D01*
X87184216Y-61825958D01*
X87195377Y-61820860D01*
X87309445Y-61768768D01*
X87370787Y-61715614D01*
X87434341Y-61686591D01*
X87503499Y-61696534D01*
X87556303Y-61742289D01*
X87559375Y-61747329D01*
X87938614Y-62404191D01*
X87938615Y-62404191D01*
X88029334Y-62340670D01*
X88196362Y-62173642D01*
X88331852Y-61980140D01*
X88331853Y-61980138D01*
X88431682Y-61766054D01*
X88431686Y-61766045D01*
X88492820Y-61537888D01*
X88492822Y-61537878D01*
X88513410Y-61302563D01*
X88513410Y-61302561D01*
X88492822Y-61067246D01*
X88492821Y-61067239D01*
X88435616Y-60853750D01*
X87682324Y-61288664D01*
X87614424Y-61305137D01*
X87548397Y-61282284D01*
X87505206Y-61227363D01*
X87501347Y-61216211D01*
X87486520Y-61165716D01*
X87486519Y-61165712D01*
X87412673Y-61050805D01*
X87412668Y-61050801D01*
X87406867Y-61044105D01*
X87409054Y-61042209D01*
X87379198Y-60995754D01*
X87379196Y-60925884D01*
X87416970Y-60867106D01*
X87436174Y-60853430D01*
X88185617Y-60420738D01*
X88185618Y-60420738D01*
X88029333Y-60264453D01*
X87835831Y-60128963D01*
X87835829Y-60128962D01*
X87621744Y-60029133D01*
X87621735Y-60029129D01*
X87393578Y-59967995D01*
X87393568Y-59967993D01*
X87202507Y-59951277D01*
X87137438Y-59925824D01*
X87096460Y-59869233D01*
X87092582Y-59799471D01*
X87100933Y-59775344D01*
X87120256Y-59733906D01*
X87182156Y-59601162D01*
X87243317Y-59372907D01*
X87263912Y-59137499D01*
X87261897Y-59114471D01*
X87245942Y-58932092D01*
X87243317Y-58902091D01*
X87182155Y-58673837D01*
X87082288Y-58459670D01*
X86946747Y-58266098D01*
X86779653Y-58099004D01*
X86586082Y-57963465D01*
X86371915Y-57863597D01*
X86371911Y-57863596D01*
X86371907Y-57863594D01*
X86206099Y-57819166D01*
X86170835Y-57809717D01*
X86111175Y-57773353D01*
X86080646Y-57710506D01*
X86088941Y-57641131D01*
X86093785Y-57631092D01*
X86180091Y-57471029D01*
X86182083Y-57463598D01*
X86225500Y-57301563D01*
X86230602Y-57126196D01*
X86230601Y-57126195D01*
X86230602Y-57126193D01*
X86211963Y-57035928D01*
X86195125Y-56954378D01*
X86192799Y-56949195D01*
X86179480Y-56919513D01*
X86152825Y-56860110D01*
X86108760Y-56783788D01*
X85567113Y-55845627D01*
X85550500Y-55783627D01*
X85550500Y-55523880D01*
X85570185Y-55456841D01*
X85586814Y-55436204D01*
X87036018Y-53986999D01*
X87097339Y-53953516D01*
X87103076Y-53952409D01*
X87149012Y-53944685D01*
X87203840Y-53920431D01*
X88759000Y-53022557D01*
X88807421Y-52987202D01*
X88899055Y-52876222D01*
X88955710Y-52743920D01*
X88972797Y-52601015D01*
X88967291Y-52568277D01*
X88948929Y-52459087D01*
X88948929Y-52459086D01*
X88924675Y-52404258D01*
X88924673Y-52404254D01*
X88924671Y-52404250D01*
X88026801Y-50849098D01*
X88026799Y-50849094D01*
X87996486Y-50807580D01*
X87991446Y-50800677D01*
X87880466Y-50709043D01*
X87880464Y-50709041D01*
X87748165Y-50652388D01*
X87605258Y-50635300D01*
X87605256Y-50635301D01*
X87466944Y-50658560D01*
X87397569Y-50650265D01*
X87343691Y-50605780D01*
X87322416Y-50539228D01*
X87326605Y-50504187D01*
X87371234Y-50337630D01*
X87391830Y-50102222D01*
X87371234Y-49866814D01*
X87310074Y-49638559D01*
X87259349Y-49529781D01*
X87248858Y-49460706D01*
X87277377Y-49396922D01*
X87335854Y-49358682D01*
X87355583Y-49354434D01*
X87364218Y-49353299D01*
X87364220Y-49353300D01*
X87364631Y-49353246D01*
X87364632Y-49353244D01*
X87374806Y-49347322D01*
X88622437Y-48627002D01*
X88690334Y-48610530D01*
X88756361Y-48633383D01*
G37*
%TD.AperFunction*%
%TA.AperFunction,Conductor*%
G36*
X75076689Y-24950481D02*
G01*
X75107416Y-24985928D01*
X86166005Y-44127341D01*
X86182497Y-44195237D01*
X86159664Y-44261270D01*
X86120636Y-44296759D01*
X84877538Y-45014462D01*
X84864091Y-45022178D01*
X84863730Y-45022642D01*
X84865770Y-45026169D01*
X84867782Y-45029945D01*
X84889123Y-45073534D01*
X84899356Y-45084266D01*
X85852159Y-46734569D01*
X85868632Y-46802469D01*
X85845779Y-46868496D01*
X85790858Y-46911687D01*
X85721305Y-46918328D01*
X85659202Y-46886312D01*
X85657091Y-46884250D01*
X85637253Y-46864412D01*
X85443749Y-46728917D01*
X85229663Y-46629088D01*
X85229654Y-46629084D01*
X85001497Y-46567950D01*
X85001486Y-46567948D01*
X84766173Y-46547361D01*
X84766169Y-46547361D01*
X84530855Y-46567948D01*
X84530844Y-46567950D01*
X84317359Y-46625153D01*
X84675273Y-47245079D01*
X84691746Y-47312979D01*
X84668893Y-47379006D01*
X84619398Y-47419873D01*
X84493072Y-47477565D01*
X84493066Y-47477568D01*
X84432652Y-47529917D01*
X84369096Y-47558941D01*
X84299938Y-47548997D01*
X84247135Y-47503241D01*
X84244064Y-47498203D01*
X83884346Y-46875152D01*
X83728061Y-47031437D01*
X83592571Y-47224938D01*
X83592570Y-47224940D01*
X83492741Y-47439025D01*
X83492737Y-47439034D01*
X83431603Y-47667191D01*
X83431601Y-47667202D01*
X83411014Y-47902516D01*
X83411014Y-47902519D01*
X83431601Y-48137833D01*
X83431603Y-48137844D01*
X83488806Y-48351328D01*
X84111567Y-47991777D01*
X84179467Y-47975304D01*
X84245494Y-47998157D01*
X84288685Y-48053078D01*
X84292544Y-48064228D01*
X84306676Y-48112358D01*
X84306677Y-48112360D01*
X84306678Y-48112362D01*
X84335747Y-48157595D01*
X84384412Y-48233320D01*
X84389036Y-48238656D01*
X84418059Y-48302213D01*
X84408112Y-48371371D01*
X84362355Y-48424173D01*
X84357320Y-48427242D01*
X83738806Y-48784341D01*
X83895088Y-48940623D01*
X84088592Y-49076118D01*
X84302678Y-49175947D01*
X84302687Y-49175951D01*
X84530844Y-49237085D01*
X84530855Y-49237087D01*
X84756652Y-49256842D01*
X84821721Y-49282294D01*
X84862700Y-49338885D01*
X84866578Y-49408647D01*
X84858227Y-49432775D01*
X84762269Y-49638557D01*
X84762265Y-49638566D01*
X84701109Y-49866808D01*
X84701107Y-49866818D01*
X84680512Y-50102221D01*
X84680512Y-50102222D01*
X84701107Y-50337625D01*
X84701109Y-50337635D01*
X84762265Y-50565877D01*
X84762267Y-50565881D01*
X84762268Y-50565885D01*
X84854559Y-50763803D01*
X84862136Y-50780052D01*
X84862138Y-50780056D01*
X84927804Y-50873836D01*
X84997676Y-50973623D01*
X85164770Y-51140717D01*
X85261555Y-51208487D01*
X85358336Y-51276254D01*
X85358338Y-51276255D01*
X85358341Y-51276257D01*
X85572508Y-51376125D01*
X85739063Y-51420752D01*
X85798722Y-51457116D01*
X85829252Y-51519963D01*
X85820958Y-51589339D01*
X85802588Y-51619477D01*
X85713285Y-51727634D01*
X85656632Y-51859932D01*
X85639544Y-52002839D01*
X85639544Y-52002840D01*
X85663412Y-52144766D01*
X85687670Y-52199603D01*
X85752064Y-52311136D01*
X85768537Y-52379036D01*
X85745684Y-52445063D01*
X85732358Y-52460817D01*
X83851532Y-54341644D01*
X83786946Y-54403040D01*
X83751899Y-54453392D01*
X83749062Y-54457154D01*
X83710302Y-54504690D01*
X83710299Y-54504695D01*
X83694390Y-54535149D01*
X83690317Y-54541870D01*
X83685318Y-54549051D01*
X83630860Y-54592824D01*
X83561382Y-54600206D01*
X83498941Y-54568854D01*
X83495869Y-54565885D01*
X82136818Y-53206834D01*
X82103333Y-53145511D01*
X82100500Y-53119162D01*
X82100500Y-43112676D01*
X82102756Y-43023637D01*
X82091932Y-42963247D01*
X82091282Y-42958617D01*
X82085074Y-42897562D01*
X82074790Y-42864786D01*
X82072917Y-42857154D01*
X82066858Y-42823349D01*
X82066858Y-42823347D01*
X82044102Y-42766378D01*
X82042521Y-42761937D01*
X82024157Y-42703407D01*
X82007488Y-42673378D01*
X82004117Y-42666278D01*
X81991378Y-42634386D01*
X81991377Y-42634383D01*
X81957620Y-42583163D01*
X81955180Y-42579134D01*
X81941340Y-42554200D01*
X81925409Y-42525498D01*
X81925407Y-42525495D01*
X81903033Y-42499434D01*
X81898302Y-42493159D01*
X81879402Y-42464481D01*
X81836012Y-42421091D01*
X81832822Y-42417648D01*
X81792867Y-42371106D01*
X81792863Y-42371102D01*
X81765698Y-42350074D01*
X81759803Y-42344882D01*
X78116452Y-38701532D01*
X78055061Y-38636949D01*
X78055060Y-38636948D01*
X78055059Y-38636947D01*
X78027204Y-38617559D01*
X78004709Y-38601902D01*
X78000946Y-38599064D01*
X77953413Y-38560305D01*
X77953406Y-38560300D01*
X77922959Y-38544397D01*
X77916251Y-38540334D01*
X77888049Y-38520705D01*
X77888046Y-38520703D01*
X77888045Y-38520703D01*
X77888041Y-38520701D01*
X77831680Y-38496514D01*
X77827424Y-38494493D01*
X77773057Y-38466094D01*
X77773050Y-38466091D01*
X77773049Y-38466091D01*
X77767008Y-38464362D01*
X77740030Y-38456642D01*
X77732630Y-38454008D01*
X77701057Y-38440459D01*
X77701058Y-38440459D01*
X77640966Y-38428109D01*
X77636391Y-38426986D01*
X77577420Y-38410113D01*
X77577425Y-38410113D01*
X77543158Y-38407503D01*
X77535380Y-38406412D01*
X77501742Y-38399500D01*
X77501741Y-38399500D01*
X77440402Y-38399500D01*
X77435695Y-38399321D01*
X77430121Y-38398896D01*
X77374524Y-38394662D01*
X77354589Y-38397201D01*
X77340440Y-38399003D01*
X77332611Y-38399500D01*
X73760046Y-38399500D01*
X73670966Y-38397243D01*
X73670957Y-38397243D01*
X73619805Y-38406412D01*
X73610583Y-38408064D01*
X73605924Y-38408718D01*
X73544893Y-38414925D01*
X73544891Y-38414926D01*
X73512109Y-38425210D01*
X73504485Y-38427081D01*
X73501386Y-38427637D01*
X73470678Y-38433141D01*
X73413710Y-38455895D01*
X73409274Y-38457474D01*
X73350743Y-38475840D01*
X73350739Y-38475842D01*
X73320707Y-38492510D01*
X73313613Y-38495879D01*
X73281711Y-38508623D01*
X73281706Y-38508625D01*
X73230485Y-38542381D01*
X73226457Y-38544822D01*
X73172830Y-38574588D01*
X73146763Y-38596965D01*
X73140494Y-38601692D01*
X73111813Y-38620595D01*
X73111807Y-38620600D01*
X73068438Y-38663968D01*
X73064984Y-38667169D01*
X73018431Y-38707136D01*
X72997405Y-38734298D01*
X72992214Y-38740192D01*
X65377719Y-46354688D01*
X65316396Y-46388173D01*
X65246704Y-46383189D01*
X65228044Y-46374397D01*
X65116500Y-46309997D01*
X65061671Y-46285741D01*
X65061668Y-46285740D01*
X65061667Y-46285740D01*
X64919742Y-46261872D01*
X64776835Y-46278960D01*
X64636382Y-46339106D01*
X64635377Y-46336759D01*
X64580859Y-46351353D01*
X64514312Y-46330061D01*
X64469841Y-46276172D01*
X64461564Y-46206794D01*
X64476453Y-46165394D01*
X65123582Y-45044533D01*
X65123893Y-45044180D01*
X65134849Y-45025109D01*
X65136073Y-45023200D01*
X65136083Y-45023120D01*
X65136163Y-45022511D01*
X65136162Y-45022508D01*
X65135911Y-45022180D01*
X65115506Y-45010291D01*
X65114837Y-45010061D01*
X63886816Y-44301063D01*
X63838600Y-44250496D01*
X63825377Y-44181889D01*
X63841419Y-44131697D01*
X69264149Y-34737081D01*
X72145170Y-34737081D01*
X72164473Y-35068504D01*
X72164474Y-35068515D01*
X72222118Y-35395429D01*
X72222121Y-35395443D01*
X72317336Y-35713486D01*
X72448827Y-36018314D01*
X72448833Y-36018327D01*
X72614824Y-36305834D01*
X72812358Y-36571166D01*
X73781101Y-35602422D01*
X73842424Y-35568937D01*
X73912115Y-35573921D01*
X73956865Y-35605524D01*
X73958062Y-35604328D01*
X74132750Y-35779016D01*
X74131382Y-35780383D01*
X74165374Y-35831452D01*
X74166496Y-35901313D01*
X74134654Y-35955975D01*
X73169289Y-36921339D01*
X73169290Y-36921340D01*
X73295210Y-37027000D01*
X73572588Y-37209434D01*
X73869252Y-37358425D01*
X73869258Y-37358428D01*
X74181213Y-37471970D01*
X74181234Y-37471977D01*
X74504248Y-37548534D01*
X74504263Y-37548536D01*
X74834012Y-37587077D01*
X74834013Y-37587078D01*
X75165987Y-37587078D01*
X75165987Y-37587077D01*
X75495736Y-37548536D01*
X75495751Y-37548534D01*
X75818765Y-37471977D01*
X75818786Y-37471970D01*
X76130741Y-37358428D01*
X76130747Y-37358425D01*
X76427411Y-37209434D01*
X76704783Y-37027004D01*
X76704785Y-37027003D01*
X76830708Y-36921340D01*
X76830709Y-36921339D01*
X75865345Y-35955976D01*
X75831860Y-35894653D01*
X75836844Y-35824961D01*
X75868453Y-35780220D01*
X75867250Y-35779017D01*
X76041939Y-35604328D01*
X76043311Y-35605700D01*
X76094345Y-35571713D01*
X76164205Y-35570572D01*
X76218898Y-35602423D01*
X77187640Y-36571166D01*
X77385175Y-36305834D01*
X77551166Y-36018327D01*
X77551172Y-36018314D01*
X77682663Y-35713486D01*
X77777878Y-35395443D01*
X77777881Y-35395429D01*
X77835525Y-35068515D01*
X77835526Y-35068504D01*
X77854830Y-34737081D01*
X77854830Y-34737074D01*
X77835526Y-34405651D01*
X77835525Y-34405640D01*
X77777881Y-34078726D01*
X77777878Y-34078712D01*
X77682663Y-33760669D01*
X77551172Y-33455841D01*
X77551166Y-33455828D01*
X77385175Y-33168321D01*
X77187640Y-32902988D01*
X76218897Y-33871732D01*
X76157574Y-33905217D01*
X76087882Y-33900233D01*
X76043136Y-33868629D01*
X76041938Y-33869828D01*
X75867250Y-33695140D01*
X75868615Y-33693774D01*
X75834621Y-33642690D01*
X75833505Y-33572829D01*
X75865344Y-33518179D01*
X76830709Y-32552815D01*
X76830708Y-32552814D01*
X76704789Y-32447155D01*
X76427411Y-32264721D01*
X76130747Y-32115730D01*
X76130741Y-32115727D01*
X75818786Y-32002185D01*
X75818765Y-32002178D01*
X75495751Y-31925621D01*
X75495736Y-31925619D01*
X75165987Y-31887078D01*
X74834013Y-31887078D01*
X74504263Y-31925619D01*
X74504248Y-31925621D01*
X74181234Y-32002178D01*
X74181213Y-32002185D01*
X73869258Y-32115727D01*
X73869252Y-32115730D01*
X73572588Y-32264721D01*
X73295215Y-32447152D01*
X73169289Y-32552814D01*
X74134654Y-33518179D01*
X74168139Y-33579502D01*
X74163155Y-33649194D01*
X74131562Y-33693952D01*
X74132750Y-33695140D01*
X73958062Y-33869828D01*
X73956704Y-33868470D01*
X73905551Y-33902474D01*
X73835689Y-33903554D01*
X73781101Y-33871732D01*
X72812357Y-32902988D01*
X72614827Y-33168317D01*
X72448833Y-33455828D01*
X72448827Y-33455841D01*
X72317336Y-33760669D01*
X72222121Y-34078712D01*
X72222118Y-34078726D01*
X72164474Y-34405640D01*
X72164473Y-34405651D01*
X72145170Y-34737074D01*
X72145170Y-34737081D01*
X69264149Y-34737081D01*
X74892656Y-24985967D01*
X74943216Y-24937749D01*
X75011822Y-24924519D01*
X75076689Y-24950481D01*
G37*
%TD.AperFunction*%
%TA.AperFunction,Conductor*%
G36*
X75061399Y-47798928D02*
G01*
X75073310Y-47806583D01*
X75185683Y-47888227D01*
X75262204Y-47922296D01*
X75315441Y-47967546D01*
X75335763Y-48034395D01*
X75327515Y-48075348D01*
X75328605Y-48075675D01*
X75326534Y-48082589D01*
X75326533Y-48082593D01*
X75309992Y-48137844D01*
X75276531Y-48249610D01*
X75276530Y-48249616D01*
X75268517Y-48387198D01*
X75266393Y-48423660D01*
X75296668Y-48595354D01*
X75365721Y-48755438D01*
X75365722Y-48755440D01*
X75365724Y-48755443D01*
X75469832Y-48895283D01*
X75603386Y-49007349D01*
X75759185Y-49085594D01*
X75928829Y-49125800D01*
X75928831Y-49125800D01*
X76059429Y-49125800D01*
X76059436Y-49125800D01*
X76189164Y-49110637D01*
X76352993Y-49051008D01*
X76498654Y-48955205D01*
X76618296Y-48828393D01*
X76705467Y-48677407D01*
X76755469Y-48510388D01*
X76765607Y-48336340D01*
X76735332Y-48164646D01*
X76734276Y-48162199D01*
X76734054Y-48160380D01*
X76733261Y-48157731D01*
X76733713Y-48157595D01*
X76725799Y-48092848D01*
X76756162Y-48029921D01*
X76815726Y-47993398D01*
X76885580Y-47994877D01*
X76935817Y-48025407D01*
X79338181Y-50427771D01*
X79371666Y-50489094D01*
X79374500Y-50515452D01*
X79374500Y-53875500D01*
X79354815Y-53942539D01*
X79302011Y-53988294D01*
X79250500Y-53999500D01*
X79104854Y-53999500D01*
X79072397Y-54006398D01*
X78919697Y-54038855D01*
X78919692Y-54038857D01*
X78746770Y-54115848D01*
X78746765Y-54115851D01*
X78593630Y-54227110D01*
X78593626Y-54227114D01*
X78587900Y-54233474D01*
X78528413Y-54270121D01*
X78495752Y-54274500D01*
X78210453Y-54274500D01*
X78143414Y-54254815D01*
X78122772Y-54238181D01*
X77196772Y-53312181D01*
X77163287Y-53250858D01*
X77168271Y-53181166D01*
X77210143Y-53125233D01*
X77275607Y-53100816D01*
X77284453Y-53100500D01*
X77394644Y-53100500D01*
X77394646Y-53100500D01*
X77579803Y-53061144D01*
X77752730Y-52984151D01*
X77905871Y-52872888D01*
X78032533Y-52732216D01*
X78127179Y-52568284D01*
X78185674Y-52388256D01*
X78205460Y-52200000D01*
X78185674Y-52011744D01*
X78131112Y-51843823D01*
X78127181Y-51831722D01*
X78127180Y-51831721D01*
X78127179Y-51831716D01*
X78032533Y-51667784D01*
X77905871Y-51527112D01*
X77904518Y-51526129D01*
X77752734Y-51415851D01*
X77752729Y-51415848D01*
X77579807Y-51338857D01*
X77579802Y-51338855D01*
X77434000Y-51307865D01*
X77394646Y-51299500D01*
X77394645Y-51299500D01*
X77335453Y-51299500D01*
X77268414Y-51279815D01*
X77247772Y-51263181D01*
X76950803Y-50966212D01*
X76940980Y-50953950D01*
X76940759Y-50954134D01*
X76935786Y-50948123D01*
X76885364Y-50900773D01*
X76874919Y-50890328D01*
X76864475Y-50879883D01*
X76858986Y-50875625D01*
X76854561Y-50871847D01*
X76820582Y-50839938D01*
X76820580Y-50839936D01*
X76820577Y-50839935D01*
X76803029Y-50830288D01*
X76786763Y-50819604D01*
X76781436Y-50815472D01*
X76770936Y-50807327D01*
X76770935Y-50807326D01*
X76770933Y-50807325D01*
X76728168Y-50788818D01*
X76722922Y-50786248D01*
X76682093Y-50763803D01*
X76682092Y-50763802D01*
X76662693Y-50758822D01*
X76644281Y-50752518D01*
X76625898Y-50744562D01*
X76625892Y-50744560D01*
X76579874Y-50737272D01*
X76574152Y-50736087D01*
X76529021Y-50724500D01*
X76529019Y-50724500D01*
X76508984Y-50724500D01*
X76489586Y-50722973D01*
X76482162Y-50721797D01*
X76469805Y-50719840D01*
X76469804Y-50719840D01*
X76423416Y-50724225D01*
X76417578Y-50724500D01*
X74560452Y-50724500D01*
X74493413Y-50704815D01*
X74472771Y-50688181D01*
X73775519Y-49990928D01*
X73742034Y-49929605D01*
X73739200Y-49903247D01*
X73739200Y-49245264D01*
X73758885Y-49178225D01*
X73811689Y-49132470D01*
X73880847Y-49122526D01*
X73891785Y-49124604D01*
X73896829Y-49125800D01*
X73896831Y-49125800D01*
X74027429Y-49125800D01*
X74027436Y-49125800D01*
X74157164Y-49110637D01*
X74320993Y-49051008D01*
X74466654Y-48955205D01*
X74586296Y-48828393D01*
X74673467Y-48677407D01*
X74723469Y-48510388D01*
X74733607Y-48336340D01*
X74703332Y-48164646D01*
X74669930Y-48087212D01*
X74661453Y-48017861D01*
X74691816Y-47954934D01*
X74733350Y-47924824D01*
X74814563Y-47888666D01*
X74927542Y-47806581D01*
X74993345Y-47783103D01*
X75061399Y-47798928D01*
G37*
%TD.AperFunction*%
%TD*%
M02*
