M48
; DRILL file {KiCad 7.0.5} date ven. 14 juil. 2023 15:15:48
; FORMAT={-:-/ absolute / inch / decimal}
; #@! TF.CreationDate,2023-07-14T15:15:48+02:00
; #@! TF.GenerationSoftware,Kicad,Pcbnew,7.0.5
; #@! TF.FileFunction,Plated,1,2,PTH
FMAT,2
INCH
; #@! TA.AperFunction,Plated,PTH,ViaDrill
T1C0.0157
; #@! TA.AperFunction,Plated,PTH,ComponentDrill
T2C0.0315
; #@! TA.AperFunction,Plated,PTH,ComponentDrill
T3C0.0374
; #@! TA.AperFunction,Plated,PTH,ComponentDrill
T4C0.0394
; #@! TA.AperFunction,Plated,PTH,ComponentDrill
T5C0.1063
%
G90
G05
T1
X1.6535Y-4.0157
X1.7362Y-3.9803
X1.7717Y-3.4646
X1.811Y-4.2126
X1.8504Y-4.1339
X1.9291Y-3.7795
X2.0079Y-2.4803
X2.0118Y-3.0669
X2.0472Y-3.1496
X2.0866Y-2.5197
X2.0866Y-3.8583
X2.126Y-3.937
X2.126Y-4.0157
X2.126Y-4.0551
X2.1654Y-4.4094
X2.3228Y-2.0079
X2.3228Y-4.252
X2.3622Y-2.7165
X2.4803Y-3.4646
X2.5197Y-2.3622
X2.5591Y-2.9921
X2.6024Y-3.0079
X2.622Y-3.1791
X2.6772Y-2.0866
X2.6772Y-3.0315
X2.6772Y-3.2283
X2.6772Y-3.3071
X2.6772Y-4.2126
X2.6772Y-4.5276
X2.6772Y-4.6063
X2.7559Y-2.0079
X2.7559Y-3.5827
X2.8091Y-3.7638
X2.813Y-3.0472
X2.8346Y-3.6614
X2.8346Y-3.8583
X2.8366Y-1.8917
X2.8465Y-3.4685
X2.8543Y-3.3858
X2.8583Y-3.2717
X2.8583Y-3.3386
X2.8799Y-1.813
X2.9528Y-3.2677
X2.9823Y-1.6142
X2.9829Y-1.9384
X2.9921Y-3.3858
X3.0315Y-3.3858
X3.0591Y-3.6319
X3.066Y-3.2659
X3.0682Y-3.0828
X3.0884Y-2.0234
X3.0906Y-1.6417
X3.0906Y-1.7441
X3.1102Y-2.3228
X3.1181Y-2.2402
X3.122Y-1.8701
X3.1496Y-4.2913
X3.189Y-2.0079
X3.189Y-3.189
X3.189Y-3.3858
X3.189Y-4.2126
X3.2441Y-2.2402
X3.2697Y-3.0374
X3.3445Y-3.185
X3.3465Y-2.3622
X3.3465Y-3.0315
X3.3465Y-3.3071
X3.4252Y-2.5984
X3.573Y-3.864
X3.5827Y-2.6772
X3.622Y-2.7165
X3.6467Y-3.9065
X3.7677Y-2.374
X3.8099Y-4.0996
X3.8189Y-3.189
X3.8228Y-2.2283
X3.8622Y-3.9724
X3.9564Y-4.0331
X4.0945Y-3.0315
X4.1732Y-2.9921
T2
X2.4287Y-4.0233
X2.5665Y-4.0233
X2.5719Y-2.6947
X2.6408Y-2.5754
X3.7198Y-3.3637
X3.7887Y-3.483
T3
X1.3626Y-3.92
X1.4118Y-3.8347
X1.461Y-3.7495
X1.6732Y-4.458
X1.7717Y-4.458
X1.8701Y-4.458
X2.3062Y-3.155
X2.3554Y-3.0698
X2.4046Y-2.9846
X2.4538Y-2.8993
X2.5437Y-1.8742
X2.5929Y-1.789
X2.6421Y-1.7038
X2.8028Y-4.0233
X2.9012Y-4.0233
X2.9996Y-4.0233
X3.098Y-4.0233
X3.2634Y-1.7038
X3.3126Y-1.789
X3.3618Y-1.8742
X3.4541Y-2.9034
X3.5033Y-2.9886
X3.5525Y-3.0739
X3.6017Y-3.1591
X4.0354Y-4.458
X4.1339Y-4.458
X4.2323Y-4.458
X4.4445Y-3.7495
X4.4937Y-3.8347
X4.5429Y-3.92
T4
X1.1257Y-4.2403
X1.1757Y-4.1537
X1.2257Y-4.0671
X1.2785Y-4.503
X1.3785Y-4.503
X1.4785Y-4.503
X2.7005Y-1.5127
X2.7505Y-1.4261
X2.8005Y-1.3395
X3.1044Y-1.3385
X3.1544Y-1.4251
X3.2044Y-1.5117
X4.4281Y-4.503
X4.5281Y-4.503
X4.6281Y-4.503
X4.6792Y-4.0661
X4.7292Y-4.1527
X4.7792Y-4.2393
T5
X0.9315Y-4.5276
X2.9528Y-1.0267
X4.974Y-4.5276
T0
M30
