%TF.GenerationSoftware,KiCad,Pcbnew,7.0.5*%
%TF.CreationDate,2023-07-14T15:15:51+02:00*%
%TF.ProjectId,Small,536d616c-6c2e-46b6-9963-61645f706362,rev?*%
%TF.SameCoordinates,Original*%
%TF.FileFunction,Legend,Top*%
%TF.FilePolarity,Positive*%
%FSLAX46Y46*%
G04 Gerber Fmt 4.6, Leading zero omitted, Abs format (unit mm)*
G04 Created by KiCad (PCBNEW 7.0.5) date 2023-07-14 15:15:51*
%MOMM*%
%LPD*%
G01*
G04 APERTURE LIST*
%ADD10C,0.150000*%
%ADD11C,0.120000*%
%ADD12C,0.152400*%
%ADD13C,0.254000*%
G04 APERTURE END LIST*
D10*
%TO.C,J1*%
X74666666Y-111454819D02*
X74666666Y-112169104D01*
X74666666Y-112169104D02*
X74619047Y-112311961D01*
X74619047Y-112311961D02*
X74523809Y-112407200D01*
X74523809Y-112407200D02*
X74380952Y-112454819D01*
X74380952Y-112454819D02*
X74285714Y-112454819D01*
X75666666Y-112454819D02*
X75095238Y-112454819D01*
X75380952Y-112454819D02*
X75380952Y-111454819D01*
X75380952Y-111454819D02*
X75285714Y-111597676D01*
X75285714Y-111597676D02*
X75190476Y-111692914D01*
X75190476Y-111692914D02*
X75095238Y-111740533D01*
%TO.C,Q4*%
X88449221Y-65697101D02*
X88442841Y-65590813D01*
X88442841Y-65590813D02*
X88477701Y-65460716D01*
X88477701Y-65460716D02*
X88529990Y-65265569D01*
X88529990Y-65265569D02*
X88523610Y-65159281D01*
X88523610Y-65159281D02*
X88475991Y-65076802D01*
X88293604Y-65237089D02*
X88287225Y-65130801D01*
X88287225Y-65130801D02*
X88322084Y-65000704D01*
X88322084Y-65000704D02*
X88463232Y-64864226D01*
X88463232Y-64864226D02*
X88751907Y-64697560D01*
X88751907Y-64697560D02*
X88940674Y-64643561D01*
X88940674Y-64643561D02*
X89070771Y-64678420D01*
X89070771Y-64678420D02*
X89159630Y-64737089D01*
X89159630Y-64737089D02*
X89254868Y-64902047D01*
X89254868Y-64902047D02*
X89261248Y-65008335D01*
X89261248Y-65008335D02*
X89226388Y-65138432D01*
X89226388Y-65138432D02*
X89085240Y-65274910D01*
X89085240Y-65274910D02*
X88796565Y-65441576D01*
X88796565Y-65441576D02*
X88607798Y-65495575D01*
X88607798Y-65495575D02*
X88477701Y-65460716D01*
X88477701Y-65460716D02*
X88388842Y-65402047D01*
X88388842Y-65402047D02*
X88293604Y-65237089D01*
X89513812Y-66017217D02*
X88936461Y-66350551D01*
X89724679Y-65620545D02*
X88987041Y-65771491D01*
X88987041Y-65771491D02*
X89296565Y-66307602D01*
%TO.C,Q2*%
X88904761Y-110350057D02*
X88809523Y-110302438D01*
X88809523Y-110302438D02*
X88714285Y-110207200D01*
X88714285Y-110207200D02*
X88571428Y-110064342D01*
X88571428Y-110064342D02*
X88476190Y-110016723D01*
X88476190Y-110016723D02*
X88380952Y-110016723D01*
X88428571Y-110254819D02*
X88333333Y-110207200D01*
X88333333Y-110207200D02*
X88238095Y-110111961D01*
X88238095Y-110111961D02*
X88190476Y-109921485D01*
X88190476Y-109921485D02*
X88190476Y-109588152D01*
X88190476Y-109588152D02*
X88238095Y-109397676D01*
X88238095Y-109397676D02*
X88333333Y-109302438D01*
X88333333Y-109302438D02*
X88428571Y-109254819D01*
X88428571Y-109254819D02*
X88619047Y-109254819D01*
X88619047Y-109254819D02*
X88714285Y-109302438D01*
X88714285Y-109302438D02*
X88809523Y-109397676D01*
X88809523Y-109397676D02*
X88857142Y-109588152D01*
X88857142Y-109588152D02*
X88857142Y-109921485D01*
X88857142Y-109921485D02*
X88809523Y-110111961D01*
X88809523Y-110111961D02*
X88714285Y-110207200D01*
X88714285Y-110207200D02*
X88619047Y-110254819D01*
X88619047Y-110254819D02*
X88428571Y-110254819D01*
X89238095Y-109350057D02*
X89285714Y-109302438D01*
X89285714Y-109302438D02*
X89380952Y-109254819D01*
X89380952Y-109254819D02*
X89619047Y-109254819D01*
X89619047Y-109254819D02*
X89714285Y-109302438D01*
X89714285Y-109302438D02*
X89761904Y-109350057D01*
X89761904Y-109350057D02*
X89809523Y-109445295D01*
X89809523Y-109445295D02*
X89809523Y-109540533D01*
X89809523Y-109540533D02*
X89761904Y-109683390D01*
X89761904Y-109683390D02*
X89190476Y-110254819D01*
X89190476Y-110254819D02*
X89809523Y-110254819D01*
%TO.C,SW1*%
X79647200Y-67833332D02*
X79694819Y-67690475D01*
X79694819Y-67690475D02*
X79694819Y-67452380D01*
X79694819Y-67452380D02*
X79647200Y-67357142D01*
X79647200Y-67357142D02*
X79599580Y-67309523D01*
X79599580Y-67309523D02*
X79504342Y-67261904D01*
X79504342Y-67261904D02*
X79409104Y-67261904D01*
X79409104Y-67261904D02*
X79313866Y-67309523D01*
X79313866Y-67309523D02*
X79266247Y-67357142D01*
X79266247Y-67357142D02*
X79218628Y-67452380D01*
X79218628Y-67452380D02*
X79171009Y-67642856D01*
X79171009Y-67642856D02*
X79123390Y-67738094D01*
X79123390Y-67738094D02*
X79075771Y-67785713D01*
X79075771Y-67785713D02*
X78980533Y-67833332D01*
X78980533Y-67833332D02*
X78885295Y-67833332D01*
X78885295Y-67833332D02*
X78790057Y-67785713D01*
X78790057Y-67785713D02*
X78742438Y-67738094D01*
X78742438Y-67738094D02*
X78694819Y-67642856D01*
X78694819Y-67642856D02*
X78694819Y-67404761D01*
X78694819Y-67404761D02*
X78742438Y-67261904D01*
X78694819Y-66928570D02*
X79694819Y-66690475D01*
X79694819Y-66690475D02*
X78980533Y-66499999D01*
X78980533Y-66499999D02*
X79694819Y-66309523D01*
X79694819Y-66309523D02*
X78694819Y-66071428D01*
X79694819Y-65166666D02*
X79694819Y-65738094D01*
X79694819Y-65452380D02*
X78694819Y-65452380D01*
X78694819Y-65452380D02*
X78837676Y-65547618D01*
X78837676Y-65547618D02*
X78932914Y-65642856D01*
X78932914Y-65642856D02*
X78980533Y-65738094D01*
%TO.C,Q1*%
X61004761Y-114200057D02*
X60909523Y-114152438D01*
X60909523Y-114152438D02*
X60814285Y-114057200D01*
X60814285Y-114057200D02*
X60671428Y-113914342D01*
X60671428Y-113914342D02*
X60576190Y-113866723D01*
X60576190Y-113866723D02*
X60480952Y-113866723D01*
X60528571Y-114104819D02*
X60433333Y-114057200D01*
X60433333Y-114057200D02*
X60338095Y-113961961D01*
X60338095Y-113961961D02*
X60290476Y-113771485D01*
X60290476Y-113771485D02*
X60290476Y-113438152D01*
X60290476Y-113438152D02*
X60338095Y-113247676D01*
X60338095Y-113247676D02*
X60433333Y-113152438D01*
X60433333Y-113152438D02*
X60528571Y-113104819D01*
X60528571Y-113104819D02*
X60719047Y-113104819D01*
X60719047Y-113104819D02*
X60814285Y-113152438D01*
X60814285Y-113152438D02*
X60909523Y-113247676D01*
X60909523Y-113247676D02*
X60957142Y-113438152D01*
X60957142Y-113438152D02*
X60957142Y-113771485D01*
X60957142Y-113771485D02*
X60909523Y-113961961D01*
X60909523Y-113961961D02*
X60814285Y-114057200D01*
X60814285Y-114057200D02*
X60719047Y-114104819D01*
X60719047Y-114104819D02*
X60528571Y-114104819D01*
X61909523Y-114104819D02*
X61338095Y-114104819D01*
X61623809Y-114104819D02*
X61623809Y-113104819D01*
X61623809Y-113104819D02*
X61528571Y-113247676D01*
X61528571Y-113247676D02*
X61433333Y-113342914D01*
X61433333Y-113342914D02*
X61338095Y-113390533D01*
%TO.C,Q6*%
X51250249Y-83441353D02*
X51161391Y-83500022D01*
X51161391Y-83500022D02*
X51031293Y-83534881D01*
X51031293Y-83534881D02*
X50836146Y-83587171D01*
X50836146Y-83587171D02*
X50747288Y-83645840D01*
X50747288Y-83645840D02*
X50699669Y-83728318D01*
X50929675Y-83806127D02*
X50840817Y-83864796D01*
X50840817Y-83864796D02*
X50710719Y-83899655D01*
X50710719Y-83899655D02*
X50521952Y-83845657D01*
X50521952Y-83845657D02*
X50233277Y-83678990D01*
X50233277Y-83678990D02*
X50092129Y-83542512D01*
X50092129Y-83542512D02*
X50057270Y-83412415D01*
X50057270Y-83412415D02*
X50063650Y-83306127D01*
X50063650Y-83306127D02*
X50158888Y-83141169D01*
X50158888Y-83141169D02*
X50247746Y-83082500D01*
X50247746Y-83082500D02*
X50377844Y-83047641D01*
X50377844Y-83047641D02*
X50566611Y-83101640D01*
X50566611Y-83101640D02*
X50855286Y-83268306D01*
X50855286Y-83268306D02*
X50996433Y-83404784D01*
X50996433Y-83404784D02*
X51031293Y-83534881D01*
X51031293Y-83534881D02*
X51024913Y-83641169D01*
X51024913Y-83641169D02*
X50929675Y-83806127D01*
X50706507Y-82192665D02*
X50611269Y-82357623D01*
X50611269Y-82357623D02*
X50604889Y-82463911D01*
X50604889Y-82463911D02*
X50622319Y-82528960D01*
X50622319Y-82528960D02*
X50698418Y-82682867D01*
X50698418Y-82682867D02*
X50839565Y-82819344D01*
X50839565Y-82819344D02*
X51169480Y-83009820D01*
X51169480Y-83009820D02*
X51275768Y-83016200D01*
X51275768Y-83016200D02*
X51340817Y-82998770D01*
X51340817Y-82998770D02*
X51429675Y-82940101D01*
X51429675Y-82940101D02*
X51524913Y-82775144D01*
X51524913Y-82775144D02*
X51531293Y-82668856D01*
X51531293Y-82668856D02*
X51513863Y-82603807D01*
X51513863Y-82603807D02*
X51455194Y-82514949D01*
X51455194Y-82514949D02*
X51248997Y-82395901D01*
X51248997Y-82395901D02*
X51142709Y-82389521D01*
X51142709Y-82389521D02*
X51077661Y-82406951D01*
X51077661Y-82406951D02*
X50988802Y-82465620D01*
X50988802Y-82465620D02*
X50893564Y-82630578D01*
X50893564Y-82630578D02*
X50887184Y-82736866D01*
X50887184Y-82736866D02*
X50904614Y-82801914D01*
X50904614Y-82801914D02*
X50963283Y-82890773D01*
%TO.C,Q3*%
X106170246Y-79001395D02*
X106163866Y-78895107D01*
X106163866Y-78895107D02*
X106198726Y-78765010D01*
X106198726Y-78765010D02*
X106251015Y-78569863D01*
X106251015Y-78569863D02*
X106244635Y-78463575D01*
X106244635Y-78463575D02*
X106197016Y-78381096D01*
X106014629Y-78541383D02*
X106008250Y-78435095D01*
X106008250Y-78435095D02*
X106043109Y-78304998D01*
X106043109Y-78304998D02*
X106184257Y-78168520D01*
X106184257Y-78168520D02*
X106472932Y-78001854D01*
X106472932Y-78001854D02*
X106661699Y-77947855D01*
X106661699Y-77947855D02*
X106791796Y-77982714D01*
X106791796Y-77982714D02*
X106880655Y-78041383D01*
X106880655Y-78041383D02*
X106975893Y-78206341D01*
X106975893Y-78206341D02*
X106982273Y-78312629D01*
X106982273Y-78312629D02*
X106947413Y-78442726D01*
X106947413Y-78442726D02*
X106806265Y-78579204D01*
X106806265Y-78579204D02*
X106517590Y-78745870D01*
X106517590Y-78745870D02*
X106328823Y-78799869D01*
X106328823Y-78799869D02*
X106198726Y-78765010D01*
X106198726Y-78765010D02*
X106109867Y-78706341D01*
X106109867Y-78706341D02*
X106014629Y-78541383D01*
X107261607Y-78701212D02*
X107571131Y-79237323D01*
X107571131Y-79237323D02*
X107074550Y-79139124D01*
X107074550Y-79139124D02*
X107145978Y-79262842D01*
X107145978Y-79262842D02*
X107152358Y-79369130D01*
X107152358Y-79369130D02*
X107134928Y-79434179D01*
X107134928Y-79434179D02*
X107076259Y-79523037D01*
X107076259Y-79523037D02*
X106870063Y-79642085D01*
X106870063Y-79642085D02*
X106763775Y-79648465D01*
X106763775Y-79648465D02*
X106698726Y-79631035D01*
X106698726Y-79631035D02*
X106609867Y-79572366D01*
X106609867Y-79572366D02*
X106467010Y-79324930D01*
X106467010Y-79324930D02*
X106460631Y-79218642D01*
X106460631Y-79218642D02*
X106478060Y-79153593D01*
%TO.C,Q5*%
X53845250Y-61523661D02*
X53756392Y-61582330D01*
X53756392Y-61582330D02*
X53626294Y-61617189D01*
X53626294Y-61617189D02*
X53431147Y-61669479D01*
X53431147Y-61669479D02*
X53342289Y-61728148D01*
X53342289Y-61728148D02*
X53294670Y-61810626D01*
X53524676Y-61888435D02*
X53435818Y-61947104D01*
X53435818Y-61947104D02*
X53305720Y-61981963D01*
X53305720Y-61981963D02*
X53116953Y-61927965D01*
X53116953Y-61927965D02*
X52828278Y-61761298D01*
X52828278Y-61761298D02*
X52687130Y-61624820D01*
X52687130Y-61624820D02*
X52652271Y-61494723D01*
X52652271Y-61494723D02*
X52658651Y-61388435D01*
X52658651Y-61388435D02*
X52753889Y-61223477D01*
X52753889Y-61223477D02*
X52842747Y-61164808D01*
X52842747Y-61164808D02*
X52972845Y-61129949D01*
X52972845Y-61129949D02*
X53161612Y-61183948D01*
X53161612Y-61183948D02*
X53450287Y-61350614D01*
X53450287Y-61350614D02*
X53591434Y-61487092D01*
X53591434Y-61487092D02*
X53626294Y-61617189D01*
X53626294Y-61617189D02*
X53619914Y-61723477D01*
X53619914Y-61723477D02*
X53524676Y-61888435D01*
X53325317Y-60233734D02*
X53087222Y-60646127D01*
X53087222Y-60646127D02*
X53475806Y-60925462D01*
X53475806Y-60925462D02*
X53458376Y-60860413D01*
X53458376Y-60860413D02*
X53464756Y-60754125D01*
X53464756Y-60754125D02*
X53583803Y-60547928D01*
X53583803Y-60547928D02*
X53672662Y-60489259D01*
X53672662Y-60489259D02*
X53737710Y-60471829D01*
X53737710Y-60471829D02*
X53843998Y-60478209D01*
X53843998Y-60478209D02*
X54050195Y-60597257D01*
X54050195Y-60597257D02*
X54108864Y-60686115D01*
X54108864Y-60686115D02*
X54126294Y-60751164D01*
X54126294Y-60751164D02*
X54119914Y-60857452D01*
X54119914Y-60857452D02*
X54000867Y-61063649D01*
X54000867Y-61063649D02*
X53912008Y-61122318D01*
X53912008Y-61122318D02*
X53846959Y-61139747D01*
%TO.C,J3*%
X97766322Y-72599742D02*
X98384911Y-72242599D01*
X98384911Y-72242599D02*
X98532439Y-72212410D01*
X98532439Y-72212410D02*
X98662536Y-72247270D01*
X98662536Y-72247270D02*
X98775204Y-72347178D01*
X98775204Y-72347178D02*
X98822823Y-72429657D01*
X97575845Y-72269828D02*
X97266322Y-71733717D01*
X97266322Y-71733717D02*
X97762903Y-71831916D01*
X97762903Y-71831916D02*
X97691474Y-71708198D01*
X97691474Y-71708198D02*
X97685094Y-71601910D01*
X97685094Y-71601910D02*
X97702524Y-71536861D01*
X97702524Y-71536861D02*
X97761193Y-71448002D01*
X97761193Y-71448002D02*
X97967390Y-71328955D01*
X97967390Y-71328955D02*
X98073678Y-71322575D01*
X98073678Y-71322575D02*
X98138727Y-71340005D01*
X98138727Y-71340005D02*
X98227585Y-71398674D01*
X98227585Y-71398674D02*
X98370442Y-71646110D01*
X98370442Y-71646110D02*
X98376822Y-71752398D01*
X98376822Y-71752398D02*
X98359392Y-71817447D01*
%TO.C,J5*%
X52567009Y-72022392D02*
X51948419Y-71665249D01*
X51948419Y-71665249D02*
X51848511Y-71552581D01*
X51848511Y-71552581D02*
X51813651Y-71422483D01*
X51813651Y-71422483D02*
X51843841Y-71274956D01*
X51843841Y-71274956D02*
X51891460Y-71192477D01*
X52090818Y-72847178D02*
X52328913Y-72434785D01*
X52328913Y-72434785D02*
X51940330Y-72155450D01*
X51940330Y-72155450D02*
X51957760Y-72220499D01*
X51957760Y-72220499D02*
X51951380Y-72326787D01*
X51951380Y-72326787D02*
X51832332Y-72532984D01*
X51832332Y-72532984D02*
X51743474Y-72591653D01*
X51743474Y-72591653D02*
X51678425Y-72609083D01*
X51678425Y-72609083D02*
X51572137Y-72602703D01*
X51572137Y-72602703D02*
X51365940Y-72483655D01*
X51365940Y-72483655D02*
X51307271Y-72394797D01*
X51307271Y-72394797D02*
X51289842Y-72329748D01*
X51289842Y-72329748D02*
X51296221Y-72223460D01*
X51296221Y-72223460D02*
X51415269Y-72017264D01*
X51415269Y-72017264D02*
X51504127Y-71958594D01*
X51504127Y-71958594D02*
X51569176Y-71941165D01*
D11*
%TO.C,J14*%
X50350000Y-115983800D02*
X50350000Y-114733800D01*
X50060000Y-115693800D02*
X50060000Y-109723800D01*
X50060000Y-109723800D02*
X39940000Y-109723800D01*
X50050000Y-115683800D02*
X50050000Y-114933800D01*
X50050000Y-114933800D02*
X48250000Y-114933800D01*
X50050000Y-113433800D02*
X49300000Y-113433800D01*
X49300000Y-113433800D02*
X49300000Y-110483800D01*
X49300000Y-110483800D02*
X45000000Y-110483800D01*
X49100000Y-115983800D02*
X50350000Y-115983800D01*
X48250000Y-115683800D02*
X50050000Y-115683800D01*
X48250000Y-114933800D02*
X48250000Y-115683800D01*
X46750000Y-115683800D02*
X46750000Y-114933800D01*
X46750000Y-114933800D02*
X43250000Y-114933800D01*
X43250000Y-115683800D02*
X46750000Y-115683800D01*
X43250000Y-114933800D02*
X43250000Y-115683800D01*
X41750000Y-115683800D02*
X41750000Y-114933800D01*
X41750000Y-114933800D02*
X39950000Y-114933800D01*
X40700000Y-113433800D02*
X40700000Y-110483800D01*
X40700000Y-110483800D02*
X45000000Y-110483800D01*
X39950000Y-115683800D02*
X41750000Y-115683800D01*
X39950000Y-114933800D02*
X39950000Y-115683800D01*
X39950000Y-113433800D02*
X40700000Y-113433800D01*
X39940000Y-115693800D02*
X50060000Y-115693800D01*
X39940000Y-109723800D02*
X39940000Y-115693800D01*
D12*
%TO.C,J1*%
X69767600Y-107631200D02*
X69767600Y-116368800D01*
X69767600Y-116368800D02*
X70501260Y-116368800D01*
X70501260Y-107631200D02*
X69767600Y-107631200D01*
X71878740Y-116368800D02*
X73041260Y-116368800D01*
X73041260Y-107631200D02*
X71878740Y-107631200D01*
X74418740Y-116368800D02*
X75581260Y-116368800D01*
X75581260Y-107631200D02*
X74418740Y-107631200D01*
X76958740Y-116368800D02*
X78121260Y-116368800D01*
X78121260Y-107631200D02*
X76958740Y-107631200D01*
X79498740Y-116368800D02*
X80232400Y-116368800D01*
X80232400Y-107631200D02*
X79498740Y-107631200D01*
X80232400Y-116368800D02*
X80232400Y-107631200D01*
D11*
%TO.C,R1*%
X65472936Y-115615000D02*
X65927064Y-115615000D01*
X65472936Y-117085000D02*
X65927064Y-117085000D01*
%TO.C,R14*%
X93403540Y-64248118D02*
X93176476Y-63854832D01*
X94676598Y-63513118D02*
X94449534Y-63119832D01*
%TO.C,R8*%
X84072936Y-111765000D02*
X84527064Y-111765000D01*
X84072936Y-113235000D02*
X84527064Y-113235000D01*
%TO.C,C5*%
X94713726Y-98930905D02*
X94452474Y-99383407D01*
X93440668Y-98195905D02*
X93179416Y-98648407D01*
%TO.C,R10*%
X89772997Y-65819832D02*
X90000061Y-66213118D01*
X88499939Y-66554832D02*
X88727003Y-66948118D01*
%TO.C,J9*%
X113745000Y-115705000D02*
X118885000Y-115705000D01*
X113745000Y-115705000D02*
X113745000Y-113045000D01*
X118885000Y-115705000D02*
X118885000Y-113045000D01*
X111145000Y-114375000D02*
X111145000Y-113045000D01*
X111145000Y-113045000D02*
X112475000Y-113045000D01*
X113745000Y-113045000D02*
X118885000Y-113045000D01*
%TO.C,R13*%
X102263893Y-80065280D02*
X102490957Y-80458566D01*
X100990835Y-80800280D02*
X101217899Y-81193566D01*
%TO.C,Q4*%
X91018717Y-67476484D02*
X93988319Y-65761984D01*
X93988319Y-65761984D02*
X91257819Y-61032620D01*
X88288217Y-62747120D02*
X91018717Y-67476484D01*
X91257819Y-61032620D02*
X88288217Y-62747120D01*
%TO.C,C7*%
X101091769Y-103466306D02*
X101544271Y-103727558D01*
X100356769Y-104739364D02*
X100809271Y-105000616D01*
%TO.C,R6*%
X98573357Y-104321701D02*
X98966643Y-104548765D01*
X97838357Y-105594759D02*
X98231643Y-105821823D01*
%TO.C,C4*%
X92981675Y-97930905D02*
X92720423Y-98383407D01*
X91708617Y-97195905D02*
X91447365Y-97648407D01*
%TO.C,R19*%
X59658868Y-65999939D02*
X60052154Y-66227003D01*
X58923868Y-67272997D02*
X59317154Y-67500061D01*
%TO.C,R12*%
X96237265Y-62540401D02*
X96630551Y-62313337D01*
X96972265Y-63813459D02*
X97365551Y-63586395D01*
%TO.C,J4*%
X90526596Y-84085005D02*
X91609128Y-83460005D01*
X90632744Y-83688858D02*
X95802915Y-80703858D01*
X95802915Y-80703858D02*
X89492915Y-69774617D01*
X90636404Y-83675198D02*
X91285923Y-83300198D01*
X91285923Y-83300198D02*
X90385923Y-81741352D01*
X92584961Y-82550198D02*
X92209961Y-81900679D01*
X92209961Y-81900679D02*
X94764736Y-80425679D01*
X94764736Y-80425679D02*
X91989736Y-75619238D01*
X89901596Y-83002474D02*
X90526596Y-84085005D01*
X89736404Y-82116352D02*
X90636404Y-83675198D01*
X90385923Y-81741352D02*
X89736404Y-82116352D01*
X88986404Y-80817314D02*
X89635923Y-80442314D01*
X89635923Y-80442314D02*
X86635923Y-75246162D01*
X85986404Y-75621162D02*
X88986404Y-80817314D01*
X86635923Y-75246162D02*
X85986404Y-75621162D01*
X85236404Y-74322123D02*
X85885923Y-73947123D01*
X85885923Y-73947123D02*
X84985923Y-72388278D01*
X86659961Y-72287797D02*
X89214736Y-70812797D01*
X89214736Y-70812797D02*
X91989736Y-75619238D01*
X84336404Y-72763278D02*
X85236404Y-74322123D01*
X84985923Y-72388278D02*
X84336404Y-72763278D01*
X86284961Y-71638278D02*
X86659961Y-72287797D01*
X84322744Y-72759617D02*
X90632744Y-83688858D01*
X89492915Y-69774617D02*
X84322744Y-72759617D01*
%TO.C,C8*%
X67849698Y-104507400D02*
X67049698Y-104507400D01*
X67449698Y-104907400D02*
X67449698Y-104107400D01*
X63440000Y-106272400D02*
X63440000Y-98112400D01*
X63400000Y-106272400D02*
X63400000Y-98112400D01*
X63360000Y-106272400D02*
X63360000Y-98112400D01*
X63320000Y-106271400D02*
X63320000Y-98113400D01*
X63280000Y-106269400D02*
X63280000Y-98115400D01*
X63240000Y-106268400D02*
X63240000Y-98116400D01*
X63200000Y-106266400D02*
X63200000Y-98118400D01*
X63160000Y-106263400D02*
X63160000Y-98121400D01*
X63120000Y-106260400D02*
X63120000Y-98124400D01*
X63080000Y-106257400D02*
X63080000Y-98127400D01*
X63040000Y-106253400D02*
X63040000Y-98131400D01*
X63000000Y-106249400D02*
X63000000Y-98135400D01*
X62960000Y-106244400D02*
X62960000Y-98140400D01*
X62920000Y-106240400D02*
X62920000Y-98144400D01*
X62880000Y-106234400D02*
X62880000Y-98150400D01*
X62840000Y-106229400D02*
X62840000Y-98155400D01*
X62800000Y-106222400D02*
X62800000Y-98162400D01*
X62760000Y-106216400D02*
X62760000Y-98168400D01*
X62719000Y-106209400D02*
X62719000Y-103232400D01*
X62719000Y-101152400D02*
X62719000Y-98175400D01*
X62679000Y-106202400D02*
X62679000Y-103232400D01*
X62679000Y-101152400D02*
X62679000Y-98182400D01*
X62639000Y-106194400D02*
X62639000Y-103232400D01*
X62639000Y-101152400D02*
X62639000Y-98190400D01*
X62599000Y-106186400D02*
X62599000Y-103232400D01*
X62599000Y-101152400D02*
X62599000Y-98198400D01*
X62559000Y-106177400D02*
X62559000Y-103232400D01*
X62559000Y-101152400D02*
X62559000Y-98207400D01*
X62519000Y-106168400D02*
X62519000Y-103232400D01*
X62519000Y-101152400D02*
X62519000Y-98216400D01*
X62479000Y-106159400D02*
X62479000Y-103232400D01*
X62479000Y-101152400D02*
X62479000Y-98225400D01*
X62439000Y-106149400D02*
X62439000Y-103232400D01*
X62439000Y-101152400D02*
X62439000Y-98235400D01*
X62399000Y-106139400D02*
X62399000Y-103232400D01*
X62399000Y-101152400D02*
X62399000Y-98245400D01*
X62359000Y-106128400D02*
X62359000Y-103232400D01*
X62359000Y-101152400D02*
X62359000Y-98256400D01*
X62319000Y-106117400D02*
X62319000Y-103232400D01*
X62319000Y-101152400D02*
X62319000Y-98267400D01*
X62279000Y-106106400D02*
X62279000Y-103232400D01*
X62279000Y-101152400D02*
X62279000Y-98278400D01*
X62239000Y-106094400D02*
X62239000Y-103232400D01*
X62239000Y-101152400D02*
X62239000Y-98290400D01*
X62199000Y-106081400D02*
X62199000Y-103232400D01*
X62199000Y-101152400D02*
X62199000Y-98303400D01*
X62159000Y-106069400D02*
X62159000Y-103232400D01*
X62159000Y-101152400D02*
X62159000Y-98315400D01*
X62119000Y-106055400D02*
X62119000Y-103232400D01*
X62119000Y-101152400D02*
X62119000Y-98329400D01*
X62079000Y-106042400D02*
X62079000Y-103232400D01*
X62079000Y-101152400D02*
X62079000Y-98342400D01*
X62039000Y-106027400D02*
X62039000Y-103232400D01*
X62039000Y-101152400D02*
X62039000Y-98357400D01*
X61999000Y-106013400D02*
X61999000Y-103232400D01*
X61999000Y-101152400D02*
X61999000Y-98371400D01*
X61959000Y-105997400D02*
X61959000Y-103232400D01*
X61959000Y-101152400D02*
X61959000Y-98387400D01*
X61919000Y-105982400D02*
X61919000Y-103232400D01*
X61919000Y-101152400D02*
X61919000Y-98402400D01*
X61879000Y-105966400D02*
X61879000Y-103232400D01*
X61879000Y-101152400D02*
X61879000Y-98418400D01*
X61839000Y-105949400D02*
X61839000Y-103232400D01*
X61839000Y-101152400D02*
X61839000Y-98435400D01*
X61799000Y-105932400D02*
X61799000Y-103232400D01*
X61799000Y-101152400D02*
X61799000Y-98452400D01*
X61759000Y-105914400D02*
X61759000Y-103232400D01*
X61759000Y-101152400D02*
X61759000Y-98470400D01*
X61719000Y-105896400D02*
X61719000Y-103232400D01*
X61719000Y-101152400D02*
X61719000Y-98488400D01*
X61679000Y-105878400D02*
X61679000Y-103232400D01*
X61679000Y-101152400D02*
X61679000Y-98506400D01*
X61639000Y-105858400D02*
X61639000Y-103232400D01*
X61639000Y-101152400D02*
X61639000Y-98526400D01*
X61599000Y-105839400D02*
X61599000Y-103232400D01*
X61599000Y-101152400D02*
X61599000Y-98545400D01*
X61559000Y-105819400D02*
X61559000Y-103232400D01*
X61559000Y-101152400D02*
X61559000Y-98565400D01*
X61519000Y-105798400D02*
X61519000Y-103232400D01*
X61519000Y-101152400D02*
X61519000Y-98586400D01*
X61479000Y-105776400D02*
X61479000Y-103232400D01*
X61479000Y-101152400D02*
X61479000Y-98608400D01*
X61439000Y-105754400D02*
X61439000Y-103232400D01*
X61439000Y-101152400D02*
X61439000Y-98630400D01*
X61399000Y-105732400D02*
X61399000Y-103232400D01*
X61399000Y-101152400D02*
X61399000Y-98652400D01*
X61359000Y-105709400D02*
X61359000Y-103232400D01*
X61359000Y-101152400D02*
X61359000Y-98675400D01*
X61319000Y-105685400D02*
X61319000Y-103232400D01*
X61319000Y-101152400D02*
X61319000Y-98699400D01*
X61279000Y-105661400D02*
X61279000Y-103232400D01*
X61279000Y-101152400D02*
X61279000Y-98723400D01*
X61239000Y-105636400D02*
X61239000Y-103232400D01*
X61239000Y-101152400D02*
X61239000Y-98748400D01*
X61199000Y-105610400D02*
X61199000Y-103232400D01*
X61199000Y-101152400D02*
X61199000Y-98774400D01*
X61159000Y-105584400D02*
X61159000Y-103232400D01*
X61159000Y-101152400D02*
X61159000Y-98800400D01*
X61119000Y-105557400D02*
X61119000Y-103232400D01*
X61119000Y-101152400D02*
X61119000Y-98827400D01*
X61079000Y-105530400D02*
X61079000Y-103232400D01*
X61079000Y-101152400D02*
X61079000Y-98854400D01*
X61039000Y-105501400D02*
X61039000Y-103232400D01*
X61039000Y-101152400D02*
X61039000Y-98883400D01*
X60999000Y-105472400D02*
X60999000Y-103232400D01*
X60999000Y-101152400D02*
X60999000Y-98912400D01*
X60959000Y-105442400D02*
X60959000Y-103232400D01*
X60959000Y-101152400D02*
X60959000Y-98942400D01*
X60919000Y-105412400D02*
X60919000Y-103232400D01*
X60919000Y-101152400D02*
X60919000Y-98972400D01*
X60879000Y-105381400D02*
X60879000Y-103232400D01*
X60879000Y-101152400D02*
X60879000Y-99003400D01*
X60839000Y-105348400D02*
X60839000Y-103232400D01*
X60839000Y-101152400D02*
X60839000Y-99036400D01*
X60799000Y-105316400D02*
X60799000Y-103232400D01*
X60799000Y-101152400D02*
X60799000Y-99068400D01*
X60759000Y-105282400D02*
X60759000Y-103232400D01*
X60759000Y-101152400D02*
X60759000Y-99102400D01*
X60719000Y-105247400D02*
X60719000Y-103232400D01*
X60719000Y-101152400D02*
X60719000Y-99137400D01*
X60679000Y-105211400D02*
X60679000Y-103232400D01*
X60679000Y-101152400D02*
X60679000Y-99173400D01*
X60639000Y-105175400D02*
X60639000Y-99209400D01*
X60599000Y-105137400D02*
X60599000Y-99247400D01*
X60559000Y-105099400D02*
X60559000Y-99285400D01*
X60519000Y-105059400D02*
X60519000Y-99325400D01*
X60479000Y-105018400D02*
X60479000Y-99366400D01*
X60439000Y-104976400D02*
X60439000Y-99408400D01*
X60399000Y-104933400D02*
X60399000Y-99451400D01*
X60359000Y-104889400D02*
X60359000Y-99495400D01*
X60319000Y-104843400D02*
X60319000Y-99541400D01*
X60279000Y-104796400D02*
X60279000Y-99588400D01*
X60239000Y-104748400D02*
X60239000Y-99636400D01*
X60199000Y-104697400D02*
X60199000Y-99687400D01*
X60159000Y-104646400D02*
X60159000Y-99738400D01*
X60119000Y-104592400D02*
X60119000Y-99792400D01*
X60079000Y-104537400D02*
X60079000Y-99847400D01*
X60039000Y-104479400D02*
X60039000Y-99905400D01*
X59999000Y-104420400D02*
X59999000Y-99964400D01*
X59959000Y-104358400D02*
X59959000Y-100026400D01*
X59919000Y-104294400D02*
X59919000Y-100090400D01*
X59879000Y-104226400D02*
X59879000Y-100158400D01*
X59839000Y-104156400D02*
X59839000Y-100228400D01*
X59799000Y-104082400D02*
X59799000Y-100302400D01*
X59759000Y-104005400D02*
X59759000Y-100379400D01*
X59719000Y-103923400D02*
X59719000Y-100461400D01*
X59679000Y-103837400D02*
X59679000Y-100547400D01*
X59639000Y-103744400D02*
X59639000Y-100640400D01*
X59599000Y-103645400D02*
X59599000Y-100739400D01*
X59559000Y-103538400D02*
X59559000Y-100846400D01*
X59519000Y-103421400D02*
X59519000Y-100963400D01*
X59479000Y-103290400D02*
X59479000Y-101094400D01*
X59439000Y-103140400D02*
X59439000Y-101244400D01*
X59399000Y-102960400D02*
X59399000Y-101424400D01*
X59359000Y-102725400D02*
X59359000Y-101659400D01*
X67560000Y-102192400D02*
G75*
G03*
X67560000Y-102192400I-4120000J0D01*
G01*
%TO.C,Q2*%
X82469500Y-108085500D02*
X82469500Y-111514500D01*
X82469500Y-111514500D02*
X87930500Y-111514500D01*
X87930500Y-108085500D02*
X82469500Y-108085500D01*
X87930500Y-111514500D02*
X87930500Y-108085500D01*
%TO.C,J16*%
X113846870Y-91394103D02*
X112764338Y-92019103D01*
X113740722Y-91790250D02*
X108570551Y-94775250D01*
X108570551Y-94775250D02*
X113630551Y-103539427D01*
X113737062Y-91803910D02*
X113087543Y-92178910D01*
X113087543Y-92178910D02*
X113987543Y-93737756D01*
X111788505Y-92928910D02*
X112163505Y-93578429D01*
X112163505Y-93578429D02*
X109608730Y-95053429D01*
X109608730Y-95053429D02*
X111758730Y-98777339D01*
X114471870Y-92476634D02*
X113846870Y-91394103D01*
X114637062Y-93362756D02*
X113737062Y-91803910D01*
X113987543Y-93737756D02*
X114637062Y-93362756D01*
X115387062Y-94661794D02*
X114737543Y-95036794D01*
X114737543Y-95036794D02*
X116487543Y-98067883D01*
X117137062Y-97692883D02*
X115387062Y-94661794D01*
X116487543Y-98067883D02*
X117137062Y-97692883D01*
X117887062Y-98991921D02*
X117237543Y-99366921D01*
X117237543Y-99366921D02*
X118137543Y-100925767D01*
X116463505Y-101026248D02*
X113908730Y-102501248D01*
X113908730Y-102501248D02*
X111758730Y-98777339D01*
X118787062Y-100550767D02*
X117887062Y-98991921D01*
X118137543Y-100925767D02*
X118787062Y-100550767D01*
X116838505Y-101675767D02*
X116463505Y-101026248D01*
X118800722Y-100554427D02*
X113740722Y-91790250D01*
X113630551Y-103539427D02*
X118800722Y-100554427D01*
%TO.C,SW1*%
X71790000Y-69710000D02*
X72200000Y-69710000D01*
X73800000Y-69710000D02*
X76200000Y-69710000D01*
X77800000Y-69710000D02*
X78210000Y-69710000D01*
X78210000Y-69710000D02*
X78210000Y-63290000D01*
X71790000Y-63290000D02*
X71790000Y-69710000D01*
X72200000Y-63290000D02*
X71790000Y-63290000D01*
X76200000Y-63290000D02*
X73800000Y-63290000D01*
X78210000Y-63290000D02*
X77930000Y-63290000D01*
%TO.C,U4*%
X46997724Y-100456828D02*
X46911122Y-100506828D01*
X46911122Y-100506828D02*
X46711122Y-100160418D01*
X44919264Y-101656828D02*
X45092469Y-101556828D01*
X44919264Y-101656828D02*
X46219264Y-103908494D01*
X48297724Y-102708494D02*
X46997724Y-100456828D01*
X48124519Y-102808494D02*
X48297724Y-102708494D01*
X46219264Y-103908494D02*
X46392469Y-103808494D01*
%TO.C,J7*%
X66133403Y-72549548D02*
X65050871Y-71924548D01*
X65737255Y-72655695D02*
X60567084Y-69670695D01*
X60567084Y-69670695D02*
X54257084Y-80599936D01*
X65723595Y-72659355D02*
X65074076Y-72284355D01*
X65074076Y-72284355D02*
X64174076Y-73843201D01*
X63775038Y-71534355D02*
X63400038Y-72183874D01*
X63400038Y-72183874D02*
X60845263Y-70708874D01*
X60845263Y-70708874D02*
X58070263Y-75515315D01*
X65508403Y-73632079D02*
X66133403Y-72549548D01*
X64823595Y-74218201D02*
X65723595Y-72659355D01*
X64174076Y-73843201D02*
X64823595Y-74218201D01*
X64073595Y-75517239D02*
X63424076Y-75142239D01*
X63424076Y-75142239D02*
X60424076Y-80338391D01*
X61073595Y-80713391D02*
X64073595Y-75517239D01*
X60424076Y-80338391D02*
X61073595Y-80713391D01*
X60323595Y-82012430D02*
X59674076Y-81637430D01*
X59674076Y-81637430D02*
X58774076Y-83196275D01*
X57850038Y-81796756D02*
X55295263Y-80321756D01*
X55295263Y-80321756D02*
X58070263Y-75515315D01*
X59423595Y-83571275D02*
X60323595Y-82012430D01*
X58774076Y-83196275D02*
X59423595Y-83571275D01*
X57475038Y-82446275D02*
X57850038Y-81796756D01*
X59427255Y-83584936D02*
X65737255Y-72655695D01*
X54257084Y-80599936D02*
X59427255Y-83584936D01*
%TO.C,R16*%
X53500061Y-61991434D02*
X53272997Y-62384720D01*
X52227003Y-61256434D02*
X51999939Y-61649720D01*
%TO.C,C6*%
X91249624Y-96930905D02*
X90988372Y-97383407D01*
X89976566Y-96195905D02*
X89715314Y-96648407D01*
%TO.C,J10*%
X121907921Y-105913854D02*
X119337921Y-101462483D01*
X121907921Y-105913854D02*
X119604293Y-107243854D01*
X119337921Y-101462483D02*
X117034293Y-102792483D01*
X122056107Y-108830520D02*
X120904293Y-109495520D01*
X120904293Y-109495520D02*
X120239293Y-108343706D01*
X119604293Y-107243854D02*
X117034293Y-102792483D01*
%TO.C,R23*%
X56763079Y-64399720D02*
X56990143Y-64006434D01*
X58036137Y-65134720D02*
X58263201Y-64741434D01*
%TO.C,C18*%
X45114237Y-102824532D02*
X45375489Y-103277034D01*
X43841179Y-103559532D02*
X44102431Y-104012034D01*
%TO.C,C11*%
X61992135Y-69592433D02*
X62392135Y-68899613D01*
X61845725Y-69046023D02*
X62538545Y-69446023D01*
X62668449Y-64891023D02*
X69735217Y-68971023D01*
X62688449Y-64856382D02*
X69755217Y-68936382D01*
X62708449Y-64821741D02*
X69775217Y-68901741D01*
X62729315Y-64787599D02*
X69794351Y-68866599D01*
X62751047Y-64753958D02*
X69812619Y-68830958D01*
X62771913Y-64719817D02*
X69831753Y-68795817D01*
X62793646Y-64686176D02*
X69850020Y-68760176D01*
X62816244Y-64653035D02*
X69867422Y-68724035D01*
X62838842Y-64619894D02*
X69884824Y-68687894D01*
X62861440Y-64586753D02*
X69902226Y-68651753D01*
X62884904Y-64554112D02*
X69918762Y-68615112D01*
X62908368Y-64521471D02*
X69935298Y-68578471D01*
X62932698Y-64489330D02*
X69950968Y-68541330D01*
X62956162Y-64456689D02*
X69967504Y-68504689D01*
X62981358Y-64425048D02*
X69982308Y-68467048D01*
X63005688Y-64392907D02*
X69997978Y-68429907D01*
X63031751Y-64361766D02*
X70011915Y-68391766D01*
X63056947Y-64330125D02*
X70026719Y-68354125D01*
X63083509Y-64298118D02*
X65661667Y-65786618D01*
X67462999Y-66826618D02*
X70041157Y-68315118D01*
X63109571Y-64266977D02*
X65681667Y-65751977D01*
X67482999Y-66791977D02*
X70055095Y-68276977D01*
X63136499Y-64236336D02*
X65701667Y-65717336D01*
X67502999Y-66757336D02*
X70068167Y-68238336D01*
X63163428Y-64205695D02*
X65721667Y-65682695D01*
X67522999Y-66722695D02*
X70081238Y-68199695D01*
X63191222Y-64175554D02*
X65741667Y-65648054D01*
X67542999Y-66688054D02*
X70093444Y-68160554D01*
X63219016Y-64145413D02*
X65761667Y-65613413D01*
X67562999Y-66653413D02*
X70105650Y-68121413D01*
X63246810Y-64115272D02*
X65781667Y-65578772D01*
X67582999Y-66618772D02*
X70117856Y-68082272D01*
X63275470Y-64085631D02*
X65801667Y-65544131D01*
X67602999Y-66584131D02*
X70129196Y-68042631D01*
X63304131Y-64055990D02*
X65821667Y-65509490D01*
X67622999Y-66549490D02*
X70140535Y-68002990D01*
X63333657Y-64026849D02*
X65841667Y-65474849D01*
X67642999Y-66514849D02*
X70151009Y-67962849D01*
X63363183Y-63997708D02*
X65861667Y-65440208D01*
X67662999Y-66480208D02*
X70161483Y-67922708D01*
X63392710Y-63968567D02*
X65881667Y-65405567D01*
X67682999Y-66445567D02*
X70171956Y-67882567D01*
X63423102Y-63939926D02*
X65901667Y-65370926D01*
X67702999Y-66410926D02*
X70181564Y-67841926D01*
X63454360Y-63911785D02*
X65921667Y-65336285D01*
X67722999Y-66376285D02*
X70190306Y-67800785D01*
X63484753Y-63883144D02*
X65941667Y-65301644D01*
X67742999Y-66341644D02*
X70199913Y-67760144D01*
X63516877Y-63855503D02*
X65961667Y-65267003D01*
X67762999Y-66307003D02*
X70207789Y-67718503D01*
X63548135Y-63827362D02*
X65981667Y-65232362D01*
X67782999Y-66272362D02*
X70216531Y-67677362D01*
X63581126Y-63800221D02*
X66001667Y-65197721D01*
X67802999Y-66237721D02*
X70223540Y-67635221D01*
X63613250Y-63772580D02*
X66021667Y-65163080D01*
X67822999Y-66203080D02*
X70231416Y-67593580D01*
X63647106Y-63745939D02*
X66041667Y-65128439D01*
X67842999Y-66168439D02*
X70237560Y-67550939D01*
X63680097Y-63718798D02*
X66061667Y-65093798D01*
X67862999Y-66133798D02*
X70244569Y-67508798D01*
X63713953Y-63692157D02*
X66081667Y-65059157D01*
X67882999Y-66099157D02*
X70250713Y-67466157D01*
X63748676Y-63666016D02*
X66101667Y-65024516D01*
X67902999Y-66064516D02*
X70255990Y-67423016D01*
X63783398Y-63639875D02*
X66121667Y-64989875D01*
X67922999Y-66029875D02*
X70261268Y-67379875D01*
X63818986Y-63614234D02*
X66141667Y-64955234D01*
X67942999Y-65995234D02*
X70265680Y-67336234D01*
X63854575Y-63588593D02*
X66161667Y-64920593D01*
X67962999Y-65960593D02*
X70270091Y-67292593D01*
X63890163Y-63562952D02*
X66181667Y-64885952D01*
X67982999Y-65925952D02*
X70274503Y-67248952D01*
X63927484Y-63538311D02*
X66201667Y-64851311D01*
X68002999Y-65891311D02*
X70277182Y-67204311D01*
X63963938Y-63513170D02*
X66221667Y-64816670D01*
X68022999Y-65856670D02*
X70280728Y-67160170D01*
X64001259Y-63488529D02*
X66241667Y-64782029D01*
X68042999Y-65822029D02*
X70283407Y-67115529D01*
X64039445Y-63464388D02*
X66261667Y-64747388D01*
X68062999Y-65787388D02*
X70285221Y-67070388D01*
X64078498Y-63440747D02*
X66281667Y-64712747D01*
X68082999Y-65752747D02*
X70286168Y-67024747D01*
X64117551Y-63417106D02*
X66301667Y-64678106D01*
X68102999Y-65718106D02*
X70287115Y-66979106D01*
X64156603Y-63393465D02*
X66321667Y-64643465D01*
X68122999Y-65683465D02*
X70288063Y-66933465D01*
X64196522Y-63370324D02*
X66341667Y-64608824D01*
X68142999Y-65648824D02*
X70288144Y-66887324D01*
X64237306Y-63347683D02*
X66361667Y-64574183D01*
X68162999Y-65614183D02*
X70287360Y-66840683D01*
X64278091Y-63325042D02*
X66381667Y-64539542D01*
X68182999Y-65579542D02*
X70286575Y-66794042D01*
X64319742Y-63302901D02*
X66401667Y-64504901D01*
X68202999Y-65544901D02*
X70284924Y-66746901D01*
X64362258Y-63281260D02*
X66421667Y-64470260D01*
X68222999Y-65510260D02*
X70282408Y-66699260D01*
X64404775Y-63259619D02*
X66441667Y-64435619D01*
X68242999Y-65475619D02*
X70279891Y-66651619D01*
X64448158Y-63238478D02*
X66461667Y-64400978D01*
X68262999Y-65440978D02*
X70276508Y-66603478D01*
X64491540Y-63217337D02*
X66481667Y-64366337D01*
X68282999Y-65406337D02*
X70273126Y-66555337D01*
X64536655Y-63197196D02*
X66501667Y-64331696D01*
X68302999Y-65371696D02*
X70268011Y-66506196D01*
X64581770Y-63177055D02*
X66521667Y-64297055D01*
X68322999Y-65337055D02*
X70262896Y-66457055D01*
X64627750Y-63157414D02*
X66541667Y-64262414D01*
X68342999Y-65302414D02*
X70256916Y-66407414D01*
X64673731Y-63137773D02*
X66561667Y-64227773D01*
X68362999Y-65267773D02*
X70250935Y-66357773D01*
X64720578Y-63118631D02*
X66581667Y-64193131D01*
X68382999Y-65233131D02*
X70244088Y-66307631D01*
X64769157Y-63100490D02*
X66601667Y-64158490D01*
X68402999Y-65198490D02*
X70235509Y-66256490D01*
X64816870Y-63081849D02*
X66621667Y-64123849D01*
X68422999Y-65163849D02*
X70227796Y-66205849D01*
X64866315Y-63064208D02*
X66641667Y-64089208D01*
X68442999Y-65129208D02*
X70218351Y-66154208D01*
X64916625Y-63047067D02*
X66661667Y-64054567D01*
X68462999Y-65094567D02*
X70208041Y-66102067D01*
X64967802Y-63030426D02*
X66681667Y-64019926D01*
X68482999Y-65059926D02*
X70196864Y-66049426D01*
X65018979Y-63013785D02*
X70185687Y-65996785D01*
X65071888Y-62998144D02*
X70172778Y-65943144D01*
X65124797Y-62982503D02*
X70159869Y-65889503D01*
X65179438Y-62967862D02*
X70145228Y-65834862D01*
X65234945Y-62953721D02*
X70129721Y-65779721D01*
X65291318Y-62940080D02*
X70113348Y-65724080D01*
X65348557Y-62926939D02*
X70096109Y-65667939D01*
X65406662Y-62914298D02*
X70078004Y-65611298D01*
X65466500Y-62902657D02*
X70058166Y-65553657D01*
X65527203Y-62891516D02*
X70037463Y-65495516D01*
X65588772Y-62880875D02*
X70015894Y-65436875D01*
X65652939Y-62871734D02*
X69991727Y-65376734D01*
X65717107Y-62862593D02*
X69967559Y-65316593D01*
X65783872Y-62854952D02*
X69940794Y-65254952D01*
X65851503Y-62847811D02*
X69913163Y-65192811D01*
X65921733Y-62842170D02*
X69882933Y-65129170D01*
X65992828Y-62837029D02*
X69851838Y-65065029D01*
X66066522Y-62833388D02*
X69818144Y-64999388D01*
X66141948Y-62830747D02*
X69782718Y-64932747D01*
X66220837Y-62830106D02*
X69743829Y-64864106D01*
X66301459Y-62830465D02*
X69703207Y-64794465D01*
X66385545Y-62832824D02*
X69659121Y-64722824D01*
X66472229Y-62836683D02*
X69612437Y-64649683D01*
X66563243Y-62843042D02*
X69561423Y-64574042D01*
X66657721Y-62851401D02*
X69506945Y-64496401D01*
X66758262Y-62863260D02*
X69446404Y-64415260D01*
X66863998Y-62878119D02*
X69380668Y-64331119D01*
X66976663Y-62896978D02*
X69308003Y-64242978D01*
X67097988Y-62920837D02*
X69226678Y-64149837D01*
X67231437Y-62951696D02*
X69133229Y-64049696D01*
X67381341Y-62992055D02*
X69023325Y-63940055D01*
X67557225Y-63047414D02*
X68887441Y-63815414D01*
X67780741Y-63130273D02*
X68703925Y-63663273D01*
X70321833Y-66931023D02*
G75*
G03*
X70321833Y-66931023I-4120000J0D01*
G01*
%TO.C,C3*%
X99697685Y-96275939D02*
X99245183Y-96014687D01*
X100432685Y-95002881D02*
X99980183Y-94741629D01*
%TO.C,R9*%
X105894436Y-78493566D02*
X105667372Y-78100280D01*
X107167494Y-77758566D02*
X106940430Y-77365280D01*
%TO.C,C9*%
X51188206Y-89242692D02*
X51640708Y-88981440D01*
X51923206Y-90515750D02*
X52375708Y-90254498D01*
%TO.C,U2*%
X78610000Y-81749000D02*
X78310000Y-81749000D01*
X78310000Y-81749000D02*
X78310000Y-80434000D01*
X71390000Y-81749000D02*
X71690000Y-81749000D01*
X78610000Y-82049000D02*
X78610000Y-81749000D01*
X71390000Y-82049000D02*
X71390000Y-81749000D01*
X78610000Y-88669000D02*
X78610000Y-88969000D01*
X71390000Y-88669000D02*
X71390000Y-88969000D01*
X78610000Y-88969000D02*
X78310000Y-88969000D01*
X71390000Y-88969000D02*
X71690000Y-88969000D01*
%TO.C,R11*%
X99430168Y-81772997D02*
X99036882Y-82000061D01*
X98695168Y-80499939D02*
X98301882Y-80727003D01*
%TO.C,J2*%
X68340000Y-99442400D02*
X68340000Y-100692400D01*
X68630000Y-99732400D02*
X68630000Y-105702400D01*
X68630000Y-105702400D02*
X81250000Y-105702400D01*
X68640000Y-99742400D02*
X68640000Y-100492400D01*
X68640000Y-100492400D02*
X70440000Y-100492400D01*
X68640000Y-101992400D02*
X69390000Y-101992400D01*
X69390000Y-101992400D02*
X69390000Y-104942400D01*
X69390000Y-104942400D02*
X74940000Y-104942400D01*
X69590000Y-99442400D02*
X68340000Y-99442400D01*
X70440000Y-99742400D02*
X68640000Y-99742400D01*
X70440000Y-100492400D02*
X70440000Y-99742400D01*
X71940000Y-99742400D02*
X71940000Y-100492400D01*
X71940000Y-100492400D02*
X77940000Y-100492400D01*
X77940000Y-99742400D02*
X71940000Y-99742400D01*
X77940000Y-100492400D02*
X77940000Y-99742400D01*
X79440000Y-99742400D02*
X79440000Y-100492400D01*
X79440000Y-100492400D02*
X81240000Y-100492400D01*
X80490000Y-101992400D02*
X80490000Y-104942400D01*
X80490000Y-104942400D02*
X74940000Y-104942400D01*
X81240000Y-99742400D02*
X79440000Y-99742400D01*
X81240000Y-100492400D02*
X81240000Y-99742400D01*
X81240000Y-101992400D02*
X80490000Y-101992400D01*
X81250000Y-99732400D02*
X68630000Y-99732400D01*
X81250000Y-105702400D02*
X81250000Y-99732400D01*
%TO.C,C14*%
X75223752Y-79835000D02*
X74701248Y-79835000D01*
X75223752Y-78365000D02*
X74701248Y-78365000D01*
%TO.C,Q1*%
X67530500Y-115314500D02*
X67530500Y-111885500D01*
X67530500Y-111885500D02*
X62069500Y-111885500D01*
X62069500Y-115314500D02*
X67530500Y-115314500D01*
X62069500Y-111885500D02*
X62069500Y-115314500D01*
%TO.C,R17*%
X50737950Y-82258566D02*
X50965014Y-81865280D01*
X52011008Y-82993566D02*
X52238072Y-82600280D01*
%TO.C,C2*%
X98697686Y-98007989D02*
X98245184Y-97746737D01*
X99432686Y-96734931D02*
X98980184Y-96473679D01*
%TO.C,J8*%
X33745000Y-115705000D02*
X38885000Y-115705000D01*
X33745000Y-115705000D02*
X33745000Y-113045000D01*
X38885000Y-115705000D02*
X38885000Y-113045000D01*
X31145000Y-114375000D02*
X31145000Y-113045000D01*
X31145000Y-113045000D02*
X32475000Y-113045000D01*
X33745000Y-113045000D02*
X38885000Y-113045000D01*
%TO.C,R25*%
X45416010Y-97147218D02*
X45643074Y-97540504D01*
X44142952Y-97882218D02*
X44370016Y-98275504D01*
%TO.C,R3*%
X95325761Y-102446702D02*
X95719047Y-102673766D01*
X94590761Y-103719760D02*
X94984047Y-103946824D01*
%TO.C,J17*%
X83846870Y-39432577D02*
X82764338Y-40057577D01*
X83740722Y-39828724D02*
X78570551Y-42813724D01*
X78570551Y-42813724D02*
X83630551Y-51577901D01*
X83737062Y-39842384D02*
X83087543Y-40217384D01*
X83087543Y-40217384D02*
X83987543Y-41776230D01*
X81788505Y-40967384D02*
X82163505Y-41616903D01*
X82163505Y-41616903D02*
X79608730Y-43091903D01*
X79608730Y-43091903D02*
X81758730Y-46815813D01*
X84471870Y-40515108D02*
X83846870Y-39432577D01*
X84637062Y-41401230D02*
X83737062Y-39842384D01*
X83987543Y-41776230D02*
X84637062Y-41401230D01*
X85387062Y-42700268D02*
X84737543Y-43075268D01*
X84737543Y-43075268D02*
X86487543Y-46106357D01*
X87137062Y-45731357D02*
X85387062Y-42700268D01*
X86487543Y-46106357D02*
X87137062Y-45731357D01*
X87887062Y-47030395D02*
X87237543Y-47405395D01*
X87237543Y-47405395D02*
X88137543Y-48964241D01*
X86463505Y-49064722D02*
X83908730Y-50539722D01*
X83908730Y-50539722D02*
X81758730Y-46815813D01*
X88787062Y-48589241D02*
X87887062Y-47030395D01*
X88137543Y-48964241D02*
X88787062Y-48589241D01*
X86838505Y-49714241D02*
X86463505Y-49064722D01*
X88800722Y-48592901D02*
X83740722Y-39828724D01*
X83630551Y-51577901D02*
X88800722Y-48592901D01*
%TO.C,C13*%
X75211252Y-77785000D02*
X74688748Y-77785000D01*
X75211252Y-76315000D02*
X74688748Y-76315000D01*
%TO.C,J18*%
X60803130Y-48699049D02*
X61885662Y-49324049D01*
X61199278Y-48592902D02*
X66369449Y-51577902D01*
X66369449Y-51577902D02*
X71429449Y-42813725D01*
X61212938Y-48589242D02*
X61862457Y-48964242D01*
X61862457Y-48964242D02*
X62762457Y-47405396D01*
X63161495Y-49714242D02*
X63536495Y-49064723D01*
X63536495Y-49064723D02*
X66091270Y-50539723D01*
X66091270Y-50539723D02*
X68241270Y-46815813D01*
X61428130Y-47616518D02*
X60803130Y-48699049D01*
X62112938Y-47030396D02*
X61212938Y-48589242D01*
X62762457Y-47405396D02*
X62112938Y-47030396D01*
X62862938Y-45731358D02*
X63512457Y-46106358D01*
X63512457Y-46106358D02*
X65262457Y-43075269D01*
X64612938Y-42700269D02*
X62862938Y-45731358D01*
X65262457Y-43075269D02*
X64612938Y-42700269D01*
X65362938Y-41401231D02*
X66012457Y-41776231D01*
X66012457Y-41776231D02*
X66912457Y-40217385D01*
X67836495Y-41616904D02*
X70391270Y-43091904D01*
X70391270Y-43091904D02*
X68241270Y-46815813D01*
X66262938Y-39842385D02*
X65362938Y-41401231D01*
X66912457Y-40217385D02*
X66262938Y-39842385D01*
X68211495Y-40967385D02*
X67836495Y-41616904D01*
X66259278Y-39828725D02*
X61199278Y-48592902D01*
X71429449Y-42813725D02*
X66259278Y-39828725D01*
%TO.C,R2*%
X84527064Y-107835000D02*
X84072936Y-107835000D01*
X84527064Y-106365000D02*
X84072936Y-106365000D01*
%TO.C,Q6*%
X51506492Y-80326414D02*
X48536890Y-78611914D01*
X48536890Y-78611914D02*
X45806390Y-83341278D01*
X48775992Y-85055778D02*
X51506492Y-80326414D01*
X45806390Y-83341278D02*
X48775992Y-85055778D01*
%TO.C,U3*%
X51016316Y-91622466D02*
X56221129Y-88617466D01*
X56374873Y-96403760D02*
X59631129Y-94523760D01*
X56221129Y-88617466D02*
X56851129Y-89708658D01*
X59631129Y-94523760D02*
X59001129Y-93432568D01*
%TO.C,R4*%
X65865000Y-108227064D02*
X65865000Y-107772936D01*
X67335000Y-108227064D02*
X67335000Y-107772936D01*
%TO.C,C1*%
X95158166Y-81977120D02*
X95558166Y-82669940D01*
X95704576Y-82123530D02*
X95011756Y-82523530D01*
X98891550Y-84913530D02*
X91824782Y-88993530D01*
X98911550Y-84948171D02*
X91844782Y-89028171D01*
X98931550Y-84982812D02*
X91864782Y-89062812D01*
X98950684Y-85017954D02*
X91885648Y-89096954D01*
X98968952Y-85053595D02*
X91907380Y-89130595D01*
X98988086Y-85088736D02*
X91928246Y-89164736D01*
X99006353Y-85124377D02*
X91949979Y-89198377D01*
X99023755Y-85160518D02*
X91972577Y-89231518D01*
X99041157Y-85196659D02*
X91995175Y-89264659D01*
X99058559Y-85232800D02*
X92017773Y-89297800D01*
X99075095Y-85269441D02*
X92041237Y-89330441D01*
X99091631Y-85306082D02*
X92064701Y-89363082D01*
X99107301Y-85343223D02*
X92089031Y-89395223D01*
X99123837Y-85379864D02*
X92112495Y-89427864D01*
X99138641Y-85417505D02*
X92137691Y-89459505D01*
X99154311Y-85454646D02*
X92162021Y-89491646D01*
X99168248Y-85492787D02*
X92188084Y-89522787D01*
X99183052Y-85530428D02*
X92213280Y-89554428D01*
X99197490Y-85569435D02*
X96619332Y-87057935D01*
X94818000Y-88097935D02*
X92239842Y-89586435D01*
X99211428Y-85607576D02*
X96639332Y-87092576D01*
X94838000Y-88132576D02*
X92265904Y-89617576D01*
X99224500Y-85646217D02*
X96659332Y-87127217D01*
X94858000Y-88167217D02*
X92292832Y-89648217D01*
X99237571Y-85684858D02*
X96679332Y-87161858D01*
X94878000Y-88201858D02*
X92319761Y-89678858D01*
X99249777Y-85723999D02*
X96699332Y-87196499D01*
X94898000Y-88236499D02*
X92347555Y-89708999D01*
X99261983Y-85763140D02*
X96719332Y-87231140D01*
X94918000Y-88271140D02*
X92375349Y-89739140D01*
X99274189Y-85802281D02*
X96739332Y-87265781D01*
X94938000Y-88305781D02*
X92403143Y-89769281D01*
X99285529Y-85841922D02*
X96759332Y-87300422D01*
X94958000Y-88340422D02*
X92431803Y-89798922D01*
X99296868Y-85881563D02*
X96779332Y-87335063D01*
X94978000Y-88375063D02*
X92460464Y-89828563D01*
X99307342Y-85921704D02*
X96799332Y-87369704D01*
X94998000Y-88409704D02*
X92489990Y-89857704D01*
X99317816Y-85961845D02*
X96819332Y-87404345D01*
X95018000Y-88444345D02*
X92519516Y-89886845D01*
X99328289Y-86001986D02*
X96839332Y-87438986D01*
X95038000Y-88478986D02*
X92549043Y-89915986D01*
X99337897Y-86042627D02*
X96859332Y-87473627D01*
X95058000Y-88513627D02*
X92579435Y-89944627D01*
X99346639Y-86083768D02*
X96879332Y-87508268D01*
X95078000Y-88548268D02*
X92610693Y-89972768D01*
X99356246Y-86124409D02*
X96899332Y-87542909D01*
X95098000Y-88582909D02*
X92641086Y-90001409D01*
X99364122Y-86166050D02*
X96919332Y-87577550D01*
X95118000Y-88617550D02*
X92673210Y-90029050D01*
X99372864Y-86207191D02*
X96939332Y-87612191D01*
X95138000Y-88652191D02*
X92704468Y-90057191D01*
X99379873Y-86249332D02*
X96959332Y-87646832D01*
X95158000Y-88686832D02*
X92737459Y-90084332D01*
X99387749Y-86290973D02*
X96979332Y-87681473D01*
X95178000Y-88721473D02*
X92769583Y-90111973D01*
X99393893Y-86333614D02*
X96999332Y-87716114D01*
X95198000Y-88756114D02*
X92803439Y-90138614D01*
X99400902Y-86375755D02*
X97019332Y-87750755D01*
X95218000Y-88790755D02*
X92836430Y-90165755D01*
X99407046Y-86418396D02*
X97039332Y-87785396D01*
X95238000Y-88825396D02*
X92870286Y-90192396D01*
X99412323Y-86461537D02*
X97059332Y-87820037D01*
X95258000Y-88860037D02*
X92905009Y-90218537D01*
X99417601Y-86504678D02*
X97079332Y-87854678D01*
X95278000Y-88894678D02*
X92939731Y-90244678D01*
X99422013Y-86548319D02*
X97099332Y-87889319D01*
X95298000Y-88929319D02*
X92975319Y-90270319D01*
X99426424Y-86591960D02*
X97119332Y-87923960D01*
X95318000Y-88963960D02*
X93010908Y-90295960D01*
X99430836Y-86635601D02*
X97139332Y-87958601D01*
X95338000Y-88998601D02*
X93046496Y-90321601D01*
X99433515Y-86680242D02*
X97159332Y-87993242D01*
X95358000Y-89033242D02*
X93083817Y-90346242D01*
X99437061Y-86724383D02*
X97179332Y-88027883D01*
X95378000Y-89067883D02*
X93120271Y-90371383D01*
X99439740Y-86769024D02*
X97199332Y-88062524D01*
X95398000Y-89102524D02*
X93157592Y-90396024D01*
X99441554Y-86814165D02*
X97219332Y-88097165D01*
X95418000Y-89137165D02*
X93195778Y-90420165D01*
X99442501Y-86859806D02*
X97239332Y-88131806D01*
X95438000Y-89171806D02*
X93234831Y-90443806D01*
X99443448Y-86905447D02*
X97259332Y-88166447D01*
X95458000Y-89206447D02*
X93273884Y-90467447D01*
X99444396Y-86951088D02*
X97279332Y-88201088D01*
X95478000Y-89241088D02*
X93312936Y-90491088D01*
X99444477Y-86997229D02*
X97299332Y-88235729D01*
X95498000Y-89275729D02*
X93352855Y-90514229D01*
X99443693Y-87043870D02*
X97319332Y-88270370D01*
X95518000Y-89310370D02*
X93393639Y-90536870D01*
X99442908Y-87090511D02*
X97339332Y-88305011D01*
X95538000Y-89345011D02*
X93434424Y-90559511D01*
X99441257Y-87137652D02*
X97359332Y-88339652D01*
X95558000Y-89379652D02*
X93476075Y-90581652D01*
X99438741Y-87185293D02*
X97379332Y-88374293D01*
X95578000Y-89414293D02*
X93518591Y-90603293D01*
X99436224Y-87232934D02*
X97399332Y-88408934D01*
X95598000Y-89448934D02*
X93561108Y-90624934D01*
X99432841Y-87281075D02*
X97419332Y-88443575D01*
X95618000Y-89483575D02*
X93604491Y-90646075D01*
X99429459Y-87329216D02*
X97439332Y-88478216D01*
X95638000Y-89518216D02*
X93647873Y-90667216D01*
X99424344Y-87378357D02*
X97459332Y-88512857D01*
X95658000Y-89552857D02*
X93692988Y-90687357D01*
X99419229Y-87427498D02*
X97479332Y-88547498D01*
X95678000Y-89587498D02*
X93738103Y-90707498D01*
X99413249Y-87477139D02*
X97499332Y-88582139D01*
X95698000Y-89622139D02*
X93784083Y-90727139D01*
X99407268Y-87526780D02*
X97519332Y-88616780D01*
X95718000Y-89656780D02*
X93830064Y-90746780D01*
X99400421Y-87576922D02*
X97539332Y-88651422D01*
X95738000Y-89691422D02*
X93876911Y-90765922D01*
X99391842Y-87628063D02*
X97559332Y-88686063D01*
X95758000Y-89726063D02*
X93925490Y-90784063D01*
X99384129Y-87678704D02*
X97579332Y-88720704D01*
X95778000Y-89760704D02*
X93973203Y-90802704D01*
X99374684Y-87730345D02*
X97599332Y-88755345D01*
X95798000Y-89795345D02*
X94022648Y-90820345D01*
X99364374Y-87782486D02*
X97619332Y-88789986D01*
X95818000Y-89829986D02*
X94072958Y-90837486D01*
X99353197Y-87835127D02*
X97639332Y-88824627D01*
X95838000Y-89864627D02*
X94124135Y-90854127D01*
X99342020Y-87887768D02*
X94175312Y-90870768D01*
X99329111Y-87941409D02*
X94228221Y-90886409D01*
X99316202Y-87995050D02*
X94281130Y-90902050D01*
X99301561Y-88049691D02*
X94335771Y-90916691D01*
X99286054Y-88104832D02*
X94391278Y-90930832D01*
X99269681Y-88160473D02*
X94447651Y-90944473D01*
X99252442Y-88216614D02*
X94504890Y-90957614D01*
X99234337Y-88273255D02*
X94562995Y-90970255D01*
X99214499Y-88330896D02*
X94622833Y-90981896D01*
X99193796Y-88389037D02*
X94683536Y-90993037D01*
X99172227Y-88447678D02*
X94745105Y-91003678D01*
X99148060Y-88507819D02*
X94809272Y-91012819D01*
X99123892Y-88567960D02*
X94873440Y-91021960D01*
X99097127Y-88629601D02*
X94940205Y-91029601D01*
X99069496Y-88691742D02*
X95007836Y-91036742D01*
X99039266Y-88755383D02*
X95078066Y-91042383D01*
X99008171Y-88819524D02*
X95149161Y-91047524D01*
X98974477Y-88885165D02*
X95222855Y-91051165D01*
X98939051Y-88951806D02*
X95298281Y-91053806D01*
X98900162Y-89020447D02*
X95377170Y-91054447D01*
X98859540Y-89090088D02*
X95457792Y-91054088D01*
X98815454Y-89161729D02*
X95541878Y-91051729D01*
X98768770Y-89234870D02*
X95628562Y-91047870D01*
X98717756Y-89310511D02*
X95719576Y-91041511D01*
X98663278Y-89388152D02*
X95814054Y-91033152D01*
X98602737Y-89469293D02*
X95914595Y-91021293D01*
X98537001Y-89553434D02*
X96020331Y-91006434D01*
X98464336Y-89641575D02*
X96132996Y-90987575D01*
X98383011Y-89734716D02*
X96254321Y-90963716D01*
X98289562Y-89834857D02*
X96387770Y-90932857D01*
X98179658Y-89944498D02*
X96537674Y-90892498D01*
X98043774Y-90069139D02*
X96713558Y-90837139D01*
X97860258Y-90221280D02*
X96937074Y-90754280D01*
X99478166Y-86953530D02*
G75*
G03*
X99478166Y-86953530I-4120000J0D01*
G01*
%TO.C,J6*%
X71910000Y-49790000D02*
X73235000Y-49790000D01*
X73235000Y-49725000D02*
X73235000Y-49790000D01*
X73235000Y-49725000D02*
X76765000Y-49725000D01*
X73235000Y-56130000D02*
X73235000Y-56195000D01*
X73235000Y-56195000D02*
X76765000Y-56195000D01*
X76765000Y-49725000D02*
X76765000Y-49790000D01*
X76765000Y-56130000D02*
X76765000Y-56195000D01*
%TO.C,R18*%
X50016010Y-105114652D02*
X50243074Y-105507938D01*
X48742952Y-105849652D02*
X48970016Y-106242938D01*
%TO.C,J11*%
X81907921Y-36631821D02*
X79337921Y-32180450D01*
X81907921Y-36631821D02*
X79604293Y-37961821D01*
X79337921Y-32180450D02*
X77034293Y-33510450D01*
X82056107Y-39548487D02*
X80904293Y-40213487D01*
X80904293Y-40213487D02*
X80239293Y-39061673D01*
X79604293Y-37961821D02*
X77034293Y-33510450D01*
%TO.C,Q3*%
X104648716Y-76836914D02*
X101679114Y-78551414D01*
X101679114Y-78551414D02*
X104409614Y-83280778D01*
X107379216Y-81566278D02*
X104648716Y-76836914D01*
X104409614Y-83280778D02*
X107379216Y-81566278D01*
%TO.C,R20*%
X44579143Y-78250061D02*
X44185857Y-78022997D01*
X45314143Y-76977003D02*
X44920857Y-76749939D01*
%TO.C,C15*%
X75111252Y-72835000D02*
X74588748Y-72835000D01*
X75111252Y-71365000D02*
X74588748Y-71365000D01*
%TO.C,R5*%
X84135000Y-115072936D02*
X84135000Y-115527064D01*
X82665000Y-115072936D02*
X82665000Y-115527064D01*
%TO.C,R24*%
X47474933Y-79850280D02*
X47247869Y-80243566D01*
X46201875Y-79115280D02*
X45974811Y-79508566D01*
%TO.C,Q5*%
X52731519Y-63923586D02*
X55701121Y-65638086D01*
X55701121Y-65638086D02*
X58431621Y-60908722D01*
X55462019Y-59194222D02*
X52731519Y-63923586D01*
X58431621Y-60908722D02*
X55462019Y-59194222D01*
D12*
%TO.C,J3*%
X96904504Y-78754268D02*
X104471488Y-74385468D01*
X104471488Y-74385468D02*
X104104658Y-73750100D01*
X96537674Y-78118900D02*
X96904504Y-78754268D01*
X103415918Y-72557167D02*
X102834658Y-71550396D01*
X95267674Y-75919196D02*
X95848934Y-76925967D01*
X102145918Y-70357463D02*
X101564658Y-69350691D01*
X93997674Y-73719491D02*
X94578934Y-74726263D01*
X100875918Y-68157758D02*
X100294658Y-67150987D01*
X92727674Y-71519787D02*
X93308934Y-72526558D01*
X99605918Y-65958054D02*
X99239088Y-65322686D01*
X91672104Y-69691486D02*
X92038934Y-70326854D01*
X99239088Y-65322686D02*
X91672104Y-69691486D01*
D11*
%TO.C,R7*%
X65927064Y-111585000D02*
X65472936Y-111585000D01*
X65927064Y-110115000D02*
X65472936Y-110115000D01*
%TO.C,J13*%
X29347079Y-103740130D02*
X26777079Y-108191501D01*
X29347079Y-103740130D02*
X31650707Y-105070130D01*
X26777079Y-108191501D02*
X29080707Y-109521501D01*
X31798893Y-102153464D02*
X32950707Y-102818464D01*
X32950707Y-102818464D02*
X32285707Y-103970278D01*
X31650707Y-105070130D02*
X29080707Y-109521501D01*
%TO.C,R21*%
X43250947Y-98397218D02*
X43478011Y-98790504D01*
X41977889Y-99132218D02*
X42204953Y-99525504D01*
D12*
%TO.C,J5*%
X58327894Y-69691486D02*
X50760910Y-65322686D01*
X50760910Y-65322686D02*
X50394080Y-65958054D01*
X57961064Y-70326854D02*
X58327894Y-69691486D01*
X49705340Y-67150987D02*
X49124080Y-68157758D01*
X56691064Y-72526558D02*
X57272324Y-71519787D01*
X48435340Y-69350691D02*
X47854080Y-70357463D01*
X55421064Y-74726263D02*
X56002324Y-73719491D01*
X47165340Y-71550396D02*
X46584080Y-72557167D01*
X54151064Y-76925967D02*
X54732324Y-75919196D01*
X45895340Y-73750100D02*
X45528510Y-74385468D01*
X53095494Y-78754268D02*
X53462324Y-78118900D01*
X45528510Y-74385468D02*
X53095494Y-78754268D01*
%TO.C,U1*%
X96480507Y-97749350D02*
X96625960Y-97833327D01*
X94695560Y-101176877D02*
X94550107Y-101092900D01*
X94550107Y-101092900D02*
X96480507Y-97749350D01*
D13*
X100772790Y-99450270D02*
G75*
G03*
X100772790Y-99450270I-127001J0D01*
G01*
D11*
%TO.C,C10*%
X55805730Y-97315477D02*
X56258232Y-97054225D01*
X56540730Y-98588535D02*
X56993232Y-98327283D01*
%TO.C,C17*%
X48122751Y-101575432D02*
X47861499Y-101122930D01*
X49395809Y-100840432D02*
X49134557Y-100387930D01*
%TO.C,J15*%
X110350000Y-115983800D02*
X110350000Y-114733800D01*
X110060000Y-115693800D02*
X110060000Y-109723800D01*
X110060000Y-109723800D02*
X99940000Y-109723800D01*
X110050000Y-115683800D02*
X110050000Y-114933800D01*
X110050000Y-114933800D02*
X108250000Y-114933800D01*
X110050000Y-113433800D02*
X109300000Y-113433800D01*
X109300000Y-113433800D02*
X109300000Y-110483800D01*
X109300000Y-110483800D02*
X105000000Y-110483800D01*
X109100000Y-115983800D02*
X110350000Y-115983800D01*
X108250000Y-115683800D02*
X110050000Y-115683800D01*
X108250000Y-114933800D02*
X108250000Y-115683800D01*
X106750000Y-115683800D02*
X106750000Y-114933800D01*
X106750000Y-114933800D02*
X103250000Y-114933800D01*
X103250000Y-115683800D02*
X106750000Y-115683800D01*
X103250000Y-114933800D02*
X103250000Y-115683800D01*
X101750000Y-115683800D02*
X101750000Y-114933800D01*
X101750000Y-114933800D02*
X99950000Y-114933800D01*
X100700000Y-113433800D02*
X100700000Y-110483800D01*
X100700000Y-110483800D02*
X105000000Y-110483800D01*
X99950000Y-115683800D02*
X101750000Y-115683800D01*
X99950000Y-114933800D02*
X99950000Y-115683800D01*
X99950000Y-113433800D02*
X100700000Y-113433800D01*
X99940000Y-115693800D02*
X110060000Y-115693800D01*
X99940000Y-109723800D02*
X99940000Y-115693800D01*
%TO.C,J12*%
X69347080Y-34458097D02*
X66777080Y-38909468D01*
X69347080Y-34458097D02*
X71650708Y-35788097D01*
X66777080Y-38909468D02*
X69080708Y-40239468D01*
X71798894Y-32871431D02*
X72950708Y-33536431D01*
X72950708Y-33536431D02*
X72285708Y-34688245D01*
X71650708Y-35788097D02*
X69080708Y-40239468D01*
%TO.C,J19*%
X30803130Y-100660574D02*
X31885662Y-101285574D01*
X31199278Y-100554427D02*
X36369449Y-103539427D01*
X36369449Y-103539427D02*
X41429449Y-94775250D01*
X31212938Y-100550767D02*
X31862457Y-100925767D01*
X31862457Y-100925767D02*
X32762457Y-99366921D01*
X33161495Y-101675767D02*
X33536495Y-101026248D01*
X33536495Y-101026248D02*
X36091270Y-102501248D01*
X36091270Y-102501248D02*
X38241270Y-98777338D01*
X31428130Y-99578043D02*
X30803130Y-100660574D01*
X32112938Y-98991921D02*
X31212938Y-100550767D01*
X32762457Y-99366921D02*
X32112938Y-98991921D01*
X32862938Y-97692883D02*
X33512457Y-98067883D01*
X33512457Y-98067883D02*
X35262457Y-95036794D01*
X34612938Y-94661794D02*
X32862938Y-97692883D01*
X35262457Y-95036794D02*
X34612938Y-94661794D01*
X35362938Y-93362756D02*
X36012457Y-93737756D01*
X36012457Y-93737756D02*
X36912457Y-92178910D01*
X37836495Y-93578429D02*
X40391270Y-95053429D01*
X40391270Y-95053429D02*
X38241270Y-98777338D01*
X36262938Y-91803910D02*
X35362938Y-93362756D01*
X36912457Y-92178910D02*
X36262938Y-91803910D01*
X38211495Y-92928910D02*
X37836495Y-93578429D01*
X36259278Y-91790250D02*
X31199278Y-100554427D01*
X41429449Y-94775250D02*
X36259278Y-91790250D01*
%TD*%
M02*
