%TF.GenerationSoftware,KiCad,Pcbnew,7.0.5*%
%TF.CreationDate,2023-07-14T15:15:51+02:00*%
%TF.ProjectId,Small,536d616c-6c2e-46b6-9963-61645f706362,rev?*%
%TF.SameCoordinates,Original*%
%TF.FileFunction,Soldermask,Bot*%
%TF.FilePolarity,Negative*%
%FSLAX46Y46*%
G04 Gerber Fmt 4.6, Leading zero omitted, Abs format (unit mm)*
G04 Created by KiCad (PCBNEW 7.0.5) date 2023-07-14 15:15:51*
%MOMM*%
%LPD*%
G01*
G04 APERTURE LIST*
G04 Aperture macros list*
%AMRoundRect*
0 Rectangle with rounded corners*
0 $1 Rounding radius*
0 $2 $3 $4 $5 $6 $7 $8 $9 X,Y pos of 4 corners*
0 Add a 4 corners polygon primitive as box body*
4,1,4,$2,$3,$4,$5,$6,$7,$8,$9,$2,$3,0*
0 Add four circle primitives for the rounded corners*
1,1,$1+$1,$2,$3*
1,1,$1+$1,$4,$5*
1,1,$1+$1,$6,$7*
1,1,$1+$1,$8,$9*
0 Add four rect primitives between the rounded corners*
20,1,$1+$1,$2,$3,$4,$5,0*
20,1,$1+$1,$4,$5,$6,$7,0*
20,1,$1+$1,$6,$7,$8,$9,0*
20,1,$1+$1,$8,$9,$2,$3,0*%
%AMHorizOval*
0 Thick line with rounded ends*
0 $1 width*
0 $2 $3 position (X,Y) of the first rounded end (center of the circle)*
0 $4 $5 position (X,Y) of the second rounded end (center of the circle)*
0 Add line between two ends*
20,1,$1,$2,$3,$4,$5,0*
0 Add two circle primitives to create the rounded ends*
1,1,$1,$2,$3*
1,1,$1,$4,$5*%
%AMRotRect*
0 Rectangle, with rotation*
0 The origin of the aperture is its center*
0 $1 length*
0 $2 width*
0 $3 Rotation angle, in degrees counterclockwise*
0 Add horizontal line*
21,1,$1,$2,0,0,$3*%
G04 Aperture macros list end*
%ADD10RoundRect,0.250000X0.600000X0.725000X-0.600000X0.725000X-0.600000X-0.725000X0.600000X-0.725000X0*%
%ADD11O,1.700000X1.950000*%
%ADD12R,1.700000X1.700000*%
%ADD13O,1.700000X1.700000*%
%ADD14RoundRect,0.250000X0.927868X-0.157115X0.327868X0.882115X-0.927868X0.157115X-0.327868X-0.882115X0*%
%ADD15HorizOval,1.700000X0.108253X0.062500X-0.108253X-0.062500X0*%
%ADD16R,1.600000X1.600000*%
%ADD17C,1.600000*%
%ADD18RoundRect,0.250000X-0.927868X0.157115X-0.327868X-0.882115X0.927868X-0.157115X0.327868X0.882115X0*%
%ADD19HorizOval,1.700000X-0.108253X-0.062500X0.108253X0.062500X0*%
%ADD20RoundRect,0.250000X-0.327868X0.882115X-0.927868X-0.157115X0.327868X-0.882115X0.927868X0.157115X0*%
%ADD21HorizOval,1.700000X-0.108253X0.062500X0.108253X-0.062500X0*%
%ADD22RotRect,1.700000X1.700000X210.000000*%
%ADD23HorizOval,1.700000X0.000000X0.000000X0.000000X0.000000X0*%
%ADD24RotRect,1.600000X1.600000X60.000000*%
%ADD25C,4.700000*%
%ADD26RoundRect,0.250000X-0.600000X-0.725000X0.600000X-0.725000X0.600000X0.725000X-0.600000X0.725000X0*%
%ADD27RoundRect,0.250000X0.327868X-0.882115X0.927868X0.157115X-0.327868X0.882115X-0.927868X-0.157115X0*%
%ADD28RotRect,1.600000X1.600000X300.000000*%
%ADD29RotRect,1.700000X1.700000X330.000000*%
%ADD30HorizOval,1.700000X0.000000X0.000000X0.000000X0.000000X0*%
%ADD31RoundRect,0.250000X-0.056458X-0.552211X0.506458X-0.227211X0.056458X0.552211X-0.506458X0.227211X0*%
%ADD32RoundRect,0.250000X0.337500X0.475000X-0.337500X0.475000X-0.337500X-0.475000X0.337500X-0.475000X0*%
%ADD33RoundRect,0.250000X0.475000X-0.337500X0.475000X0.337500X-0.475000X0.337500X-0.475000X-0.337500X0*%
%ADD34RoundRect,0.250000X0.506458X0.227211X-0.056458X0.552211X-0.506458X-0.227211X0.056458X-0.552211X0*%
%ADD35C,0.990600*%
%ADD36C,0.787400*%
%ADD37R,0.800000X0.900000*%
%ADD38RoundRect,0.250000X0.450000X-0.350000X0.450000X0.350000X-0.450000X0.350000X-0.450000X-0.350000X0*%
%ADD39RoundRect,0.250000X-0.450000X0.325000X-0.450000X-0.325000X0.450000X-0.325000X0.450000X0.325000X0*%
G04 APERTURE END LIST*
D10*
%TO.C,J14*%
X47500000Y-113233800D03*
D11*
X45000000Y-113233800D03*
X42500000Y-113233800D03*
%TD*%
D12*
%TO.C,J9*%
X112475000Y-114375000D03*
D13*
X115015000Y-114375000D03*
X117555000Y-114375000D03*
%TD*%
D14*
%TO.C,J4*%
X91483166Y-80241833D03*
D15*
X90233166Y-78076769D03*
X88983166Y-75911706D03*
X87733166Y-73746642D03*
%TD*%
D16*
%TO.C,C8*%
X65190000Y-102192400D03*
D17*
X61690000Y-102192400D03*
%TD*%
D18*
%TO.C,J16*%
X112890300Y-95237275D03*
D19*
X114140300Y-97402339D03*
X115390300Y-99567402D03*
%TD*%
D20*
%TO.C,J7*%
X62326833Y-73642720D03*
D21*
X61076833Y-75807784D03*
X59826833Y-77972847D03*
X58576833Y-80137911D03*
%TD*%
D22*
%TO.C,J10*%
X121391107Y-107678706D03*
D23*
X120121107Y-105479001D03*
X118851107Y-103279297D03*
%TD*%
D24*
%TO.C,C11*%
X65326833Y-68446567D03*
D17*
X67076833Y-65415478D03*
%TD*%
D25*
%TO.C,H1*%
X23660254Y-115000000D03*
%TD*%
D26*
%TO.C,J2*%
X71190000Y-102192400D03*
D11*
X73690000Y-102192400D03*
X76190000Y-102192400D03*
X78690000Y-102192400D03*
%TD*%
D12*
%TO.C,J8*%
X32475000Y-114375000D03*
D13*
X35015000Y-114375000D03*
X37555000Y-114375000D03*
%TD*%
D18*
%TO.C,J17*%
X82890300Y-43275749D03*
D19*
X84140300Y-45440813D03*
X85390300Y-47605876D03*
%TD*%
D27*
%TO.C,J18*%
X64609700Y-47605877D03*
D21*
X65859700Y-45440813D03*
X67109700Y-43275750D03*
%TD*%
D28*
%TO.C,C1*%
X94483166Y-85437986D03*
D17*
X96233166Y-88469075D03*
%TD*%
D25*
%TO.C,H3*%
X126339746Y-115000000D03*
%TD*%
D22*
%TO.C,J11*%
X81391107Y-38396673D03*
D23*
X80121107Y-36196968D03*
X78851107Y-33997264D03*
%TD*%
D25*
%TO.C,H2*%
X75000000Y-26076952D03*
%TD*%
D29*
%TO.C,J13*%
X31133893Y-103305278D03*
D30*
X29863893Y-105504983D03*
X28593893Y-107704687D03*
%TD*%
D10*
%TO.C,J15*%
X107500000Y-113233800D03*
D11*
X105000000Y-113233800D03*
X102500000Y-113233800D03*
%TD*%
D29*
%TO.C,J12*%
X71133894Y-34023245D03*
D30*
X69863894Y-36222950D03*
X68593894Y-38422654D03*
%TD*%
D27*
%TO.C,J19*%
X34609700Y-99567402D03*
D21*
X35859700Y-97402338D03*
X37109700Y-95237275D03*
%TD*%
D31*
%TO.C,D3*%
X101597983Y-71446008D03*
X103373335Y-70421008D03*
%TD*%
D32*
%TO.C,C16*%
X73995000Y-91100000D03*
X71920000Y-91100000D03*
%TD*%
D33*
%TO.C,C12*%
X75820000Y-89775000D03*
X75820000Y-87700000D03*
%TD*%
D34*
%TO.C,D5*%
X49652017Y-69280945D03*
X47876665Y-68255945D03*
%TD*%
D35*
%TO.C,J27*%
X75000000Y-42710000D03*
X76016000Y-47790000D03*
X73984000Y-47790000D03*
D36*
X75635000Y-43980000D03*
X74365000Y-43980000D03*
X75635000Y-45250000D03*
X74365000Y-45250000D03*
X75635000Y-46520000D03*
X74365000Y-46520000D03*
%TD*%
D37*
%TO.C,Y1*%
X72920000Y-89400000D03*
X72920000Y-88000000D03*
X74020000Y-88000000D03*
X74020000Y-89400000D03*
%TD*%
D38*
%TO.C,R15*%
X71170000Y-89200000D03*
X71170000Y-87200000D03*
%TD*%
D31*
%TO.C,D4*%
X100347983Y-69280943D03*
X102123335Y-68255943D03*
%TD*%
D34*
%TO.C,D6*%
X48402017Y-71446008D03*
X46626665Y-70421008D03*
%TD*%
D39*
%TO.C,D2*%
X76250000Y-115350000D03*
X76250000Y-117400000D03*
%TD*%
%TO.C,D1*%
X73750000Y-115350000D03*
X73750000Y-117400000D03*
%TD*%
M02*
