%TF.GenerationSoftware,KiCad,Pcbnew,7.0.7*%
%TF.CreationDate,2023-11-13T09:37:15+01:00*%
%TF.ProjectId,Small,536d616c-6c2e-46b6-9963-61645f706362,rev?*%
%TF.SameCoordinates,Original*%
%TF.FileFunction,Soldermask,Top*%
%TF.FilePolarity,Negative*%
%FSLAX46Y46*%
G04 Gerber Fmt 4.6, Leading zero omitted, Abs format (unit mm)*
G04 Created by KiCad (PCBNEW 7.0.7) date 2023-11-13 09:37:15*
%MOMM*%
%LPD*%
G01*
G04 APERTURE LIST*
G04 Aperture macros list*
%AMRoundRect*
0 Rectangle with rounded corners*
0 $1 Rounding radius*
0 $2 $3 $4 $5 $6 $7 $8 $9 X,Y pos of 4 corners*
0 Add a 4 corners polygon primitive as box body*
4,1,4,$2,$3,$4,$5,$6,$7,$8,$9,$2,$3,0*
0 Add four circle primitives for the rounded corners*
1,1,$1+$1,$2,$3*
1,1,$1+$1,$4,$5*
1,1,$1+$1,$6,$7*
1,1,$1+$1,$8,$9*
0 Add four rect primitives between the rounded corners*
20,1,$1+$1,$2,$3,$4,$5,0*
20,1,$1+$1,$4,$5,$6,$7,0*
20,1,$1+$1,$6,$7,$8,$9,0*
20,1,$1+$1,$8,$9,$2,$3,0*%
%AMHorizOval*
0 Thick line with rounded ends*
0 $1 width*
0 $2 $3 position (X,Y) of the first rounded end (center of the circle)*
0 $4 $5 position (X,Y) of the second rounded end (center of the circle)*
0 Add line between two ends*
20,1,$1,$2,$3,$4,$5,0*
0 Add two circle primitives to create the rounded ends*
1,1,$1,$2,$3*
1,1,$1,$4,$5*%
%AMRotRect*
0 Rectangle, with rotation*
0 The origin of the aperture is its center*
0 $1 length*
0 $2 width*
0 $3 Rotation angle, in degrees counterclockwise*
0 Add horizontal line*
21,1,$1,$2,0,0,$3*%
G04 Aperture macros list end*
%ADD10RoundRect,0.250000X0.600000X0.725000X-0.600000X0.725000X-0.600000X-0.725000X0.600000X-0.725000X0*%
%ADD11O,1.700000X1.950000*%
%ADD12R,0.712000X1.468399*%
%ADD13RoundRect,0.250000X-0.350000X-0.450000X0.350000X-0.450000X0.350000X0.450000X-0.350000X0.450000X0*%
%ADD14RoundRect,0.250000X0.564711X-0.078109X0.214711X0.528109X-0.564711X0.078109X-0.214711X-0.528109X0*%
%ADD15RoundRect,0.250000X-0.242612X0.529784X-0.580112X-0.054784X0.242612X-0.529784X0.580112X0.054784X0*%
%ADD16RoundRect,0.250000X-0.564711X0.078109X-0.214711X-0.528109X0.564711X-0.078109X0.214711X0.528109X0*%
%ADD17R,1.700000X1.700000*%
%ADD18O,1.700000X1.700000*%
%ADD19RotRect,1.900000X0.800000X120.000000*%
%ADD20RoundRect,0.250000X-0.529784X-0.242612X0.054784X-0.580112X0.529784X0.242612X-0.054784X0.580112X0*%
%ADD21RoundRect,0.250000X-0.528109X-0.214711X0.078109X-0.564711X0.528109X0.214711X-0.078109X0.564711X0*%
%ADD22RotRect,1.143000X1.524000X30.000000*%
%ADD23HorizOval,1.524000X0.206114X0.119000X-0.206114X-0.119000X0*%
%ADD24RoundRect,0.250000X-0.078109X-0.564711X0.528109X-0.214711X0.078109X0.564711X-0.528109X0.214711X0*%
%ADD25RoundRect,0.250000X0.927868X-0.157115X0.327868X0.882115X-0.927868X0.157115X-0.327868X-0.882115X0*%
%ADD26HorizOval,1.700000X0.108253X0.062500X-0.108253X-0.062500X0*%
%ADD27R,1.600000X1.600000*%
%ADD28C,1.600000*%
%ADD29R,1.900000X0.800000*%
%ADD30RoundRect,0.250000X-0.927868X0.157115X-0.327868X-0.882115X0.927868X-0.157115X0.327868X0.882115X0*%
%ADD31HorizOval,1.700000X-0.108253X-0.062500X0.108253X0.062500X0*%
%ADD32R,2.800000X1.000000*%
%ADD33RotRect,0.750000X0.250000X300.000000*%
%ADD34RoundRect,0.250000X-0.327868X0.882115X-0.927868X-0.157115X0.327868X-0.882115X0.927868X0.157115X0*%
%ADD35HorizOval,1.700000X-0.108253X0.062500X0.108253X-0.062500X0*%
%ADD36RoundRect,0.250000X-0.214711X0.528109X-0.564711X-0.078109X0.214711X-0.528109X0.564711X0.078109X0*%
%ADD37RotRect,1.700000X1.700000X210.000000*%
%ADD38HorizOval,1.700000X0.000000X0.000000X0.000000X0.000000X0*%
%ADD39RoundRect,0.250000X0.214711X-0.528109X0.564711X0.078109X-0.214711X0.528109X-0.564711X-0.078109X0*%
%ADD40RoundRect,0.250000X-0.580112X0.054784X-0.242612X-0.529784X0.580112X-0.054784X0.242612X0.529784X0*%
%ADD41RotRect,1.600000X1.600000X60.000000*%
%ADD42RoundRect,0.250000X0.529784X0.242612X-0.054784X0.580112X-0.529784X-0.242612X0.054784X-0.580112X0*%
%ADD43RoundRect,0.250000X-0.054784X-0.580112X0.529784X-0.242612X0.054784X0.580112X-0.529784X0.242612X0*%
%ADD44RoundRect,0.125000X-0.625000X-0.125000X0.625000X-0.125000X0.625000X0.125000X-0.625000X0.125000X0*%
%ADD45RoundRect,0.125000X-0.125000X-0.625000X0.125000X-0.625000X0.125000X0.625000X-0.125000X0.625000X0*%
%ADD46RoundRect,0.250000X0.078109X0.564711X-0.528109X0.214711X-0.078109X-0.564711X0.528109X-0.214711X0*%
%ADD47C,4.700000*%
%ADD48RoundRect,0.250000X-0.600000X-0.725000X0.600000X-0.725000X0.600000X0.725000X-0.600000X0.725000X0*%
%ADD49RoundRect,0.250000X-0.475000X0.337500X-0.475000X-0.337500X0.475000X-0.337500X0.475000X0.337500X0*%
%ADD50RoundRect,0.250000X0.327868X-0.882115X0.927868X0.157115X-0.327868X0.882115X-0.927868X-0.157115X0*%
%ADD51RoundRect,0.250000X0.350000X0.450000X-0.350000X0.450000X-0.350000X-0.450000X0.350000X-0.450000X0*%
%ADD52RotRect,1.900000X0.800000X240.000000*%
%ADD53RotRect,2.000000X1.500000X30.000000*%
%ADD54RotRect,2.000000X3.800000X30.000000*%
%ADD55RoundRect,0.250000X0.450000X-0.350000X0.450000X0.350000X-0.450000X0.350000X-0.450000X-0.350000X0*%
%ADD56RotRect,1.600000X1.600000X300.000000*%
%ADD57R,2.400000X0.740000*%
%ADD58R,1.524000X1.143000*%
%ADD59O,1.524000X2.000000*%
%ADD60RotRect,1.900000X0.800000X300.000000*%
%ADD61RoundRect,0.250000X0.528109X0.214711X-0.078109X0.564711X-0.528109X-0.214711X0.078109X-0.564711X0*%
%ADD62RotRect,1.143000X1.524000X150.000000*%
%ADD63HorizOval,1.524000X-0.206114X0.119000X0.206114X-0.119000X0*%
%ADD64RoundRect,0.250000X-0.450000X0.350000X-0.450000X-0.350000X0.450000X-0.350000X0.450000X0.350000X0*%
%ADD65RotRect,1.900000X0.800000X60.000000*%
%ADD66RotRect,0.712000X1.468399X120.000000*%
%ADD67RotRect,1.700000X1.700000X330.000000*%
%ADD68HorizOval,1.700000X0.000000X0.000000X0.000000X0.000000X0*%
%ADD69RotRect,0.712000X1.468399X240.000000*%
%ADD70RotRect,1.124991X0.370002X240.000000*%
%ADD71RotRect,1.099998X0.250012X240.000000*%
%ADD72RotRect,1.099996X2.050008X240.000000*%
%ADD73RotRect,1.099998X2.050008X240.000000*%
%ADD74RotRect,0.800000X0.250000X330.000000*%
%ADD75RotRect,1.520012X0.299999X330.000000*%
%ADD76RoundRect,0.250000X0.580112X-0.054784X0.242612X0.529784X-0.580112X0.054784X-0.242612X-0.529784X0*%
%ADD77C,0.990600*%
G04 APERTURE END LIST*
%TO.C,U1*%
G36*
X94367614Y-100429569D02*
G01*
X94175120Y-100762978D01*
X94391616Y-100887972D01*
X94584110Y-100554563D01*
X94800626Y-100679569D01*
X94608132Y-101012978D01*
X94824628Y-101137972D01*
X95017122Y-100804563D01*
X95233639Y-100929569D01*
X95041145Y-101262978D01*
X95257641Y-101387972D01*
X95450135Y-101054563D01*
X95666652Y-101179569D01*
X95474158Y-101512978D01*
X95647358Y-101612983D01*
X95097359Y-102565610D01*
X93322000Y-101540606D01*
X93871999Y-100587979D01*
X93958603Y-100637972D01*
X94151097Y-100304563D01*
X94367614Y-100429569D01*
G37*
G36*
X94647358Y-103345034D02*
G01*
X94097359Y-104297661D01*
X93924152Y-104197668D01*
X93731658Y-104531077D01*
X93515141Y-104406071D01*
X93707635Y-104072662D01*
X93491139Y-103947668D01*
X93298645Y-104281077D01*
X93082128Y-104156071D01*
X93274622Y-103822662D01*
X93058126Y-103697668D01*
X92865632Y-104031077D01*
X92649116Y-103906071D01*
X92841610Y-103572662D01*
X92625114Y-103447668D01*
X92432620Y-103781077D01*
X92216103Y-103656071D01*
X92408597Y-103322662D01*
X92322000Y-103272657D01*
X92871999Y-102320030D01*
X94647358Y-103345034D01*
G37*
%TD*%
D10*
%TO.C,J14*%
X51000000Y-112200000D03*
D11*
X48500000Y-112200000D03*
X46000000Y-112200000D03*
%TD*%
D12*
%TO.C,J1*%
X71190000Y-108192400D03*
X71190000Y-115807600D03*
X73730000Y-108192400D03*
X73730000Y-115807600D03*
X76270000Y-108192400D03*
X76270000Y-115807600D03*
X78810000Y-108192400D03*
X78810000Y-115807600D03*
%TD*%
D13*
%TO.C,R1*%
X64700000Y-116350000D03*
X66700000Y-116350000D03*
%TD*%
D14*
%TO.C,R14*%
X91926537Y-68880000D03*
X90926537Y-67147950D03*
%TD*%
D13*
%TO.C,R8*%
X83300000Y-112500000D03*
X85300000Y-112500000D03*
%TD*%
D15*
%TO.C,C5*%
X91700000Y-100200000D03*
X90662500Y-101997002D03*
%TD*%
D16*
%TO.C,R10*%
X86250000Y-69847950D03*
X87250000Y-71580000D03*
%TD*%
D17*
%TO.C,J9*%
X99975000Y-116875000D03*
D18*
X102515000Y-116875000D03*
X105055000Y-116875000D03*
%TD*%
D16*
%TO.C,R13*%
X98740896Y-84093398D03*
X99740896Y-85825448D03*
%TD*%
D19*
%TO.C,Q4*%
X88565544Y-70358590D03*
X90210992Y-69408590D03*
X87888268Y-67285514D03*
%TD*%
D20*
%TO.C,C7*%
X97301499Y-105881250D03*
X99098501Y-106918750D03*
%TD*%
D21*
%TO.C,R6*%
X94771154Y-106880607D03*
X96503204Y-107880607D03*
%TD*%
D15*
%TO.C,C4*%
X89967949Y-99200000D03*
X88930449Y-100997002D03*
%TD*%
D21*
%TO.C,R19*%
X61121986Y-70580000D03*
X62854036Y-71580000D03*
%TD*%
D22*
%TO.C,J22*%
X109666395Y-89131036D03*
D23*
X109284305Y-89351636D03*
D22*
X110616395Y-90776484D03*
D23*
X110234305Y-90997084D03*
D22*
X111566395Y-92421932D03*
D23*
X111184305Y-92642532D03*
%TD*%
D24*
%TO.C,R12*%
X93435383Y-67893398D03*
X95167433Y-66893398D03*
%TD*%
D25*
%TO.C,J4*%
X88983166Y-84571833D03*
D26*
X87733166Y-82406769D03*
X86483166Y-80241706D03*
X85233166Y-78076642D03*
%TD*%
D27*
%TO.C,C8*%
X65190000Y-102192400D03*
D28*
X61690000Y-102192400D03*
%TD*%
D29*
%TO.C,Q2*%
X83700000Y-108850000D03*
X83700000Y-110750000D03*
X86700000Y-109800000D03*
%TD*%
D30*
%TO.C,J16*%
X107700000Y-96869873D03*
D31*
X108950000Y-99034937D03*
X110200000Y-101200000D03*
%TD*%
D32*
%TO.C,SW1*%
X79000000Y-66500000D03*
X73200000Y-66500000D03*
X79000000Y-62500000D03*
X73200000Y-62500000D03*
%TD*%
D33*
%TO.C,U4*%
X51554359Y-100583641D03*
X51121346Y-100833641D03*
X50688334Y-101083641D03*
X50255321Y-101333641D03*
X51805321Y-104018319D03*
X52238334Y-103768319D03*
X52671346Y-103518319D03*
X53104359Y-103268319D03*
%TD*%
D34*
%TO.C,J7*%
X64826833Y-77972720D03*
D35*
X63576833Y-80137784D03*
X62326833Y-82302847D03*
X61076833Y-84467911D03*
%TD*%
D36*
%TO.C,R16*%
X55750000Y-65284552D03*
X54750000Y-67016602D03*
%TD*%
D15*
%TO.C,C6*%
X88235898Y-98200000D03*
X87198398Y-99997002D03*
%TD*%
D37*
%TO.C,J10*%
X114806171Y-99933452D03*
D38*
X113536171Y-97733747D03*
X112266171Y-95534043D03*
%TD*%
D39*
%TO.C,R23*%
X59513140Y-69766602D03*
X60513140Y-68034552D03*
%TD*%
D40*
%TO.C,C18*%
X49160930Y-102638101D03*
X50198430Y-104435103D03*
%TD*%
D41*
%TO.C,C11*%
X67826833Y-72776567D03*
D28*
X69576833Y-69745478D03*
%TD*%
D42*
%TO.C,C3*%
X97972114Y-98336379D03*
X96175112Y-97298879D03*
%TD*%
D22*
%TO.C,J23*%
X89666395Y-54490019D03*
D23*
X89284305Y-54710619D03*
D22*
X90616395Y-56135467D03*
D23*
X90234305Y-56356067D03*
D22*
X91566395Y-57780915D03*
D23*
X91184305Y-58001515D03*
%TD*%
D14*
%TO.C,R9*%
X104417433Y-83125448D03*
X103417433Y-81393398D03*
%TD*%
D43*
%TO.C,C9*%
X52683456Y-91016732D03*
X54480458Y-89979232D03*
%TD*%
D44*
%TO.C,U2*%
X70825000Y-86200000D03*
X70825000Y-87000000D03*
X70825000Y-87800000D03*
X70825000Y-88600000D03*
X70825000Y-89400000D03*
X70825000Y-90200000D03*
X70825000Y-91000000D03*
X70825000Y-91800000D03*
D45*
X72200000Y-93175000D03*
X73000000Y-93175000D03*
X73800000Y-93175000D03*
X74600000Y-93175000D03*
X75400000Y-93175000D03*
X76200000Y-93175000D03*
X77000000Y-93175000D03*
X77800000Y-93175000D03*
D44*
X79175000Y-91800000D03*
X79175000Y-91000000D03*
X79175000Y-90200000D03*
X79175000Y-89400000D03*
X79175000Y-88600000D03*
X79175000Y-87800000D03*
X79175000Y-87000000D03*
X79175000Y-86200000D03*
D45*
X77800000Y-84825000D03*
X77000000Y-84825000D03*
X76200000Y-84825000D03*
X75400000Y-84825000D03*
X74600000Y-84825000D03*
X73800000Y-84825000D03*
X73000000Y-84825000D03*
X72200000Y-84825000D03*
%TD*%
D46*
%TO.C,R11*%
X97232050Y-85080000D03*
X95500000Y-86080000D03*
%TD*%
D47*
%TO.C,H1*%
X121339746Y-115000000D03*
%TD*%
D48*
%TO.C,J2*%
X71190000Y-102192400D03*
D11*
X73690000Y-102192400D03*
X76190000Y-102192400D03*
X78690000Y-102192400D03*
%TD*%
D49*
%TO.C,C14*%
X68750000Y-87950000D03*
X68750000Y-90025000D03*
%TD*%
D29*
%TO.C,Q1*%
X66300000Y-114550000D03*
X66300000Y-112650000D03*
X63300000Y-113600000D03*
%TD*%
D39*
%TO.C,R17*%
X53488011Y-87625448D03*
X54488011Y-85893398D03*
%TD*%
D42*
%TO.C,C2*%
X96972115Y-100068429D03*
X95175113Y-99030929D03*
%TD*%
D17*
%TO.C,J8*%
X44975000Y-116875000D03*
D18*
X47515000Y-116875000D03*
X50055000Y-116875000D03*
%TD*%
D16*
%TO.C,R25*%
X49464359Y-96963655D03*
X50464359Y-98695705D03*
%TD*%
D21*
%TO.C,R3*%
X91523558Y-105005608D03*
X93255608Y-106005608D03*
%TD*%
D30*
%TO.C,J17*%
X84550000Y-57034936D03*
D31*
X85800000Y-59200000D03*
X87050000Y-61365063D03*
%TD*%
D49*
%TO.C,C13*%
X66700000Y-87962500D03*
X66700000Y-90037500D03*
%TD*%
D50*
%TO.C,J18*%
X63150000Y-60965064D03*
D35*
X64400000Y-58800000D03*
X65650000Y-56634937D03*
%TD*%
D51*
%TO.C,R2*%
X85300000Y-107100000D03*
X83300000Y-107100000D03*
%TD*%
D52*
%TO.C,Q6*%
X52729165Y-85339808D03*
X51083717Y-84389808D03*
X50406441Y-87462884D03*
%TD*%
D53*
%TO.C,U3*%
X54194040Y-92858142D03*
X55344040Y-94850000D03*
D54*
X60800000Y-91700000D03*
D53*
X56494040Y-96841858D03*
%TD*%
D55*
%TO.C,R4*%
X66600000Y-109000000D03*
X66600000Y-107000000D03*
%TD*%
D56*
%TO.C,C1*%
X91983166Y-89767986D03*
D28*
X93733166Y-92799075D03*
%TD*%
D57*
%TO.C,J6*%
X73050000Y-54800000D03*
X76950000Y-54800000D03*
X73050000Y-56070000D03*
X76950000Y-56070000D03*
X73050000Y-57340000D03*
X76950000Y-57340000D03*
X73050000Y-58610000D03*
X76950000Y-58610000D03*
X73050000Y-59880000D03*
X76950000Y-59880000D03*
%TD*%
D47*
%TO.C,H3*%
X75000000Y-34737078D03*
%TD*%
D16*
%TO.C,R18*%
X54064359Y-104931089D03*
X55064359Y-106663139D03*
%TD*%
D58*
%TO.C,J21*%
X96900000Y-117825000D03*
D59*
X96900000Y-117383800D03*
D58*
X95000000Y-117825000D03*
D59*
X95000000Y-117383800D03*
D58*
X93100000Y-117825000D03*
D59*
X93100000Y-117383800D03*
%TD*%
D37*
%TO.C,J11*%
X87306171Y-52301927D03*
D38*
X86036171Y-50102222D03*
X84766171Y-47902518D03*
%TD*%
D60*
%TO.C,Q3*%
X102101889Y-82614808D03*
X100456441Y-83564808D03*
X102779165Y-85687884D03*
%TD*%
D61*
%TO.C,R20*%
X48116025Y-82330000D03*
X46383975Y-81330000D03*
%TD*%
D62*
%TO.C,J25*%
X38433605Y-92421933D03*
D63*
X38815695Y-92642533D03*
D62*
X39383605Y-90776485D03*
D63*
X39765695Y-90997085D03*
D62*
X40333605Y-89131037D03*
D63*
X40715695Y-89351637D03*
%TD*%
D49*
%TO.C,C15*%
X81800000Y-62962500D03*
X81800000Y-65037500D03*
%TD*%
D64*
%TO.C,R5*%
X83400000Y-114300000D03*
X83400000Y-116300000D03*
%TD*%
D36*
%TO.C,R24*%
X49724872Y-83143398D03*
X48724872Y-84875448D03*
%TD*%
D65*
%TO.C,Q5*%
X56508846Y-67570192D03*
X58154294Y-68520192D03*
X58831570Y-65447116D03*
%TD*%
D47*
%TO.C,H2*%
X28660215Y-115000000D03*
%TD*%
D66*
%TO.C,J3*%
X94179318Y-81571834D03*
X100774274Y-77764234D03*
X92909318Y-79372129D03*
X99504274Y-75564529D03*
X91639318Y-77172425D03*
X98234274Y-73364825D03*
X90369318Y-74972720D03*
X96964274Y-71165120D03*
%TD*%
D62*
%TO.C,J24*%
X58433605Y-57780916D03*
D63*
X58815695Y-58001516D03*
D62*
X59383605Y-56135468D03*
D63*
X59765695Y-56356068D03*
D62*
X60333605Y-54490020D03*
D63*
X60715695Y-54710620D03*
%TD*%
D51*
%TO.C,R7*%
X66700000Y-110850000D03*
X64700000Y-110850000D03*
%TD*%
D67*
%TO.C,J13*%
X37718829Y-95560024D03*
D68*
X36448829Y-97759729D03*
X35178829Y-99959433D03*
%TD*%
D16*
%TO.C,R21*%
X47600000Y-98000000D03*
X48600000Y-99732050D03*
%TD*%
D58*
%TO.C,J20*%
X56900000Y-117825000D03*
D59*
X56900000Y-117383800D03*
D58*
X55000000Y-117825000D03*
D59*
X55000000Y-117383800D03*
D58*
X53100000Y-117825000D03*
D59*
X53100000Y-117383800D03*
%TD*%
D69*
%TO.C,J5*%
X59630680Y-74972720D03*
X53035724Y-71165120D03*
X58360680Y-77172425D03*
X51765724Y-73364825D03*
X57090680Y-79372129D03*
X50495724Y-75564529D03*
X55820680Y-81571834D03*
X49225724Y-77764234D03*
%TD*%
D70*
%TO.C,U1*%
X97241864Y-102721210D03*
D71*
X96546633Y-102305384D03*
X96113621Y-102055384D03*
D72*
X94484678Y-101576795D03*
D73*
X93484679Y-103308845D03*
D71*
X94713621Y-104480256D03*
X95146633Y-104730256D03*
D70*
X95854364Y-105124430D03*
D74*
X96384715Y-104405831D03*
D75*
X96314287Y-103787820D03*
D74*
X96884714Y-103539807D03*
%TD*%
D43*
%TO.C,C10*%
X57300980Y-99089517D03*
X59097982Y-98052017D03*
%TD*%
D76*
%TO.C,C17*%
X54218750Y-101998501D03*
X53181250Y-100201499D03*
%TD*%
D10*
%TO.C,J15*%
X105200000Y-112200000D03*
D11*
X102700000Y-112200000D03*
X100200000Y-112200000D03*
%TD*%
D67*
%TO.C,J12*%
X65218830Y-47928499D03*
D68*
X63948830Y-50128204D03*
X62678830Y-52327908D03*
%TD*%
D50*
%TO.C,J19*%
X39800000Y-101200000D03*
D35*
X41050000Y-99034936D03*
X42300000Y-96869873D03*
%TD*%
D77*
%TO.C,J27*%
X75000000Y-43300000D03*
X76016000Y-48380000D03*
X73984000Y-48380000D03*
%TD*%
M02*
