M48
; DRILL file {KiCad 7.0.7} date lun. 13 nov. 2023 09:37:21
; FORMAT={-:-/ absolute / inch / decimal}
; #@! TF.CreationDate,2023-11-13T09:37:21+01:00
; #@! TF.GenerationSoftware,Kicad,Pcbnew,7.0.7
; #@! TF.FileFunction,Plated,1,2,PTH
FMAT,2
INCH
; #@! TA.AperFunction,Plated,PTH,ViaDrill
T1C0.0157
; #@! TA.AperFunction,Plated,PTH,ComponentDrill
T2C0.0315
; #@! TA.AperFunction,Plated,PTH,ComponentDrill
T3C0.0374
; #@! TA.AperFunction,Plated,PTH,ComponentDrill
T4C0.0394
; #@! TA.AperFunction,Plated,PTH,ComponentDrill
T5C0.1063
%
G90
G05
T1
X1.4331Y-3.6969
X1.7717Y-4.0472
X1.8858Y-4.063
X1.9449Y-3.9685
X1.9685Y-3.189
X1.9803Y-3.622
X2.0394Y-3.7638
X2.0551Y-3.2638
X2.0591Y-4.1496
X2.0866Y-2.6693
X2.0945Y-3.8858
X2.1181Y-2.7087
X2.1929Y-4.0709
X2.2391Y-3.8543
X2.2441Y-4.0
X2.2598Y-2.3858
X2.3504Y-4.5906
X2.4094Y-2.5197
X2.5591Y-3.4449
X2.6654Y-3.5448
X2.6772Y-4.6339
X2.6811Y-3.6811
X2.688Y-4.5787
X2.7913Y-3.752
X2.7913Y-3.7913
X2.8307Y-3.5512
X2.8504Y-3.4213
X2.8701Y-3.5197
X2.9213Y-3.748
X2.9213Y-3.7913
X2.9252Y-3.1654
X2.9449Y-1.6299
X2.9449Y-2.1102
X2.9764Y-2.0709
X2.9882Y-3.0079
X2.9882Y-3.1969
X2.9921Y-2.4606
X3.0354Y-1.748
X3.0433Y-2.0551
X3.1102Y-1.8268
X3.1142Y-2.3465
X3.1181Y-2.1614
X3.1211Y-2.0787
X3.185Y-4.3465
X3.2205Y-4.311
X3.248Y-2.0591
X3.3425Y-2.6772
X3.3504Y-2.5472
X3.4173Y-3.5315
X3.4449Y-2.1614
X3.4685Y-3.9567
X3.4803Y-1.9843
X3.5208Y-4.2165
X3.5394Y-4.0
X3.5472Y-2.8031
X3.622Y-2.7746
X3.685Y-4.4882
X3.6999Y-4.1899
X3.752Y-4.063
X3.7874Y-4.5591
X3.8593Y-4.1201
X3.874Y-4.6693
X3.9528Y-4.0551
X3.9685Y-3.1654
X4.066Y-3.0925
X4.0793Y-3.0516
X4.1535Y-3.4134
X4.1535Y-3.9055
X4.2298Y-3.4803
X4.2795Y-3.3976
T2
X2.4287Y-4.0233
X2.5665Y-4.0233
X2.6703Y-2.8652
X2.7392Y-2.7459
X3.6214Y-3.5342
X3.6903Y-3.6535
T3
X1.5669Y-3.9843
X1.6161Y-3.899
X1.6654Y-3.8138
X1.811Y-4.4173
X1.9094Y-4.4173
X2.0079Y-4.4173
X2.4046Y-3.3255
X2.4538Y-3.2403
X2.4862Y-2.4002
X2.503Y-3.155
X2.5354Y-2.315
X2.5522Y-3.0698
X2.5846Y-2.2297
X2.8028Y-4.0233
X2.9012Y-4.0233
X2.9996Y-4.0233
X3.098Y-4.0233
X3.3287Y-2.2455
X3.3556Y-3.0739
X3.378Y-2.3307
X3.4048Y-3.1591
X3.4272Y-2.4159
X3.4541Y-3.2444
X3.5033Y-3.3296
X3.9449Y-4.4173
X4.0433Y-4.4173
X4.1417Y-4.4173
X4.2402Y-3.8138
X4.2894Y-3.899
X4.3386Y-3.9843
T4
X1.385Y-3.9354
X1.435Y-3.8488
X1.485Y-3.7622
X1.7707Y-4.6014
X1.8707Y-4.6014
X1.9707Y-4.6014
X2.4677Y-2.0602
X2.5177Y-1.9736
X2.5677Y-1.8869
X3.3373Y-1.8859
X3.3873Y-1.9725
X3.4373Y-2.0591
X3.936Y-4.6014
X4.036Y-4.6014
X4.136Y-4.6014
X4.4199Y-3.7612
X4.4699Y-3.8478
X4.5199Y-3.9344
T5
X1.1284Y-4.5276
X2.9528Y-1.3676
X4.7772Y-4.5276
T0
M30
