%TF.GenerationSoftware,KiCad,Pcbnew,7.0.7*%
%TF.CreationDate,2023-11-13T09:37:15+01:00*%
%TF.ProjectId,Small,536d616c-6c2e-46b6-9963-61645f706362,rev?*%
%TF.SameCoordinates,Original*%
%TF.FileFunction,Legend,Bot*%
%TF.FilePolarity,Positive*%
%FSLAX46Y46*%
G04 Gerber Fmt 4.6, Leading zero omitted, Abs format (unit mm)*
G04 Created by KiCad (PCBNEW 7.0.7) date 2023-11-13 09:37:15*
%MOMM*%
%LPD*%
G01*
G04 APERTURE LIST*
%ADD10C,0.120174*%
%ADD11C,0.254000*%
%ADD12C,0.120000*%
G04 APERTURE END LIST*
D10*
X89334574Y-98012619D02*
X87824125Y-97718993D01*
X87485075Y-96602471D01*
X85414504Y-96200016D01*
X85087703Y-97187088D01*
X83747939Y-96926638D01*
X84400652Y-95134654D01*
X85747972Y-95134654D01*
X87144631Y-95406266D01*
X86427775Y-93024551D01*
X85747972Y-95134654D01*
X84400652Y-95134654D01*
X85754018Y-91419069D01*
X87239819Y-91707888D01*
X88468610Y-95406266D01*
X89334574Y-98012619D01*
G36*
X89334574Y-98012619D02*
G01*
X87824125Y-97718993D01*
X87485075Y-96602471D01*
X85414504Y-96200016D01*
X85087703Y-97187088D01*
X83747939Y-96926638D01*
X84400652Y-95134654D01*
X85747972Y-95134654D01*
X87144631Y-95406266D01*
X86427775Y-93024551D01*
X85747972Y-95134654D01*
X84400652Y-95134654D01*
X85754018Y-91419069D01*
X87239819Y-91707888D01*
X88468610Y-95406266D01*
X89334574Y-98012619D01*
G37*
X93141474Y-92855103D02*
X93260536Y-100881124D01*
X75331864Y-97396066D01*
X75309385Y-96052893D01*
X91635364Y-99226342D01*
X91497698Y-92535588D01*
X93141474Y-92855103D01*
G36*
X93141474Y-92855103D02*
G01*
X93260536Y-100881124D01*
X75331864Y-97396066D01*
X75309385Y-96052893D01*
X91635364Y-99226342D01*
X91497698Y-92535588D01*
X93141474Y-92855103D01*
G37*
X70945817Y-75558121D02*
X70968549Y-75563044D01*
X70997693Y-75569658D01*
X71031704Y-75577801D01*
X71069034Y-75587313D01*
X71108138Y-75598033D01*
X71127872Y-75603796D01*
X71147469Y-75609801D01*
X71230136Y-75637135D01*
X71343333Y-75672759D01*
X71465374Y-75710119D01*
X71574574Y-75742661D01*
X71629438Y-75760117D01*
X71695422Y-75783067D01*
X71842384Y-75836655D01*
X71978727Y-75885840D01*
X72031439Y-75903287D01*
X72051922Y-75909262D01*
X72067723Y-75913038D01*
X72119653Y-75923858D01*
X72142167Y-75929109D01*
X72163016Y-75934428D01*
X72182677Y-75939944D01*
X72201627Y-75945787D01*
X72220343Y-75952085D01*
X72239303Y-75958970D01*
X72279862Y-75975016D01*
X72327120Y-75994962D01*
X72457000Y-76050704D01*
X72484412Y-76062207D01*
X72548791Y-76090151D01*
X72586475Y-76107210D01*
X72623357Y-76124687D01*
X72640452Y-76133197D01*
X72656091Y-76141350D01*
X72669855Y-76148992D01*
X72681328Y-76155969D01*
X72741659Y-76195578D01*
X72783648Y-76222374D01*
X72830972Y-76251223D01*
X72856038Y-76265807D01*
X72881721Y-76280171D01*
X72907783Y-76294071D01*
X72933985Y-76307262D01*
X72960087Y-76319500D01*
X72985853Y-76330540D01*
X73011041Y-76340138D01*
X73035415Y-76348050D01*
X73142172Y-76378397D01*
X73254244Y-76410941D01*
X73372515Y-76446998D01*
X73434251Y-76466756D01*
X73497868Y-76487886D01*
X73972567Y-76752522D01*
X74024669Y-76771740D01*
X74072567Y-76788974D01*
X74121239Y-76806162D01*
X74119164Y-76810519D01*
X74112970Y-76821969D01*
X74108344Y-76829594D01*
X74102705Y-76838079D01*
X74096060Y-76847121D01*
X74088414Y-76856415D01*
X74084218Y-76861062D01*
X74079775Y-76865658D01*
X74075084Y-76870165D01*
X74070146Y-76874545D01*
X74064963Y-76878760D01*
X74059535Y-76882772D01*
X74053863Y-76886543D01*
X74047948Y-76890036D01*
X74041789Y-76893211D01*
X74035389Y-76896031D01*
X74028747Y-76898457D01*
X74021865Y-76900453D01*
X74014743Y-76901980D01*
X74007382Y-76903000D01*
X73999783Y-76903474D01*
X73991946Y-76903365D01*
X73993340Y-76907945D01*
X73997739Y-76920579D01*
X74001168Y-76929397D01*
X74005471Y-76939608D01*
X74010689Y-76951003D01*
X74016863Y-76963375D01*
X74024034Y-76976517D01*
X74032243Y-76990222D01*
X74041530Y-77004281D01*
X74046592Y-77011380D01*
X74051938Y-77018489D01*
X74057574Y-77025584D01*
X74063505Y-77032638D01*
X74069737Y-77039626D01*
X74076275Y-77046520D01*
X74083123Y-77053297D01*
X74090286Y-77059929D01*
X74097771Y-77066391D01*
X74105581Y-77072657D01*
X74138063Y-77097407D01*
X74171793Y-77122400D01*
X74206909Y-77147664D01*
X74243547Y-77173225D01*
X74281843Y-77199113D01*
X74321933Y-77225353D01*
X74363955Y-77251973D01*
X74408044Y-77279002D01*
X74455722Y-77308817D01*
X74506920Y-77342625D01*
X74559396Y-77378695D01*
X74610908Y-77415292D01*
X74659211Y-77450686D01*
X74702063Y-77483143D01*
X74737221Y-77510931D01*
X74762443Y-77532319D01*
X74759540Y-77535526D01*
X74751105Y-77544244D01*
X74744941Y-77550246D01*
X74737548Y-77557119D01*
X74728976Y-77564693D01*
X74719278Y-77572800D01*
X74708503Y-77581268D01*
X74696704Y-77589931D01*
X74683931Y-77598618D01*
X74677196Y-77602918D01*
X74670236Y-77607160D01*
X74663058Y-77611324D01*
X74655670Y-77615389D01*
X74648076Y-77619332D01*
X74640283Y-77623134D01*
X74632299Y-77626773D01*
X74624129Y-77630227D01*
X74615779Y-77633476D01*
X74607256Y-77636499D01*
X74606991Y-77636600D01*
X74606352Y-77636968D01*
X74605964Y-77637283D01*
X74605569Y-77637702D01*
X74605196Y-77638238D01*
X74604874Y-77638903D01*
X74604632Y-77639709D01*
X74604499Y-77640669D01*
X74604504Y-77641795D01*
X74604675Y-77643100D01*
X74605043Y-77644595D01*
X74605635Y-77646294D01*
X74606481Y-77648209D01*
X74607609Y-77650351D01*
X74609049Y-77652735D01*
X74610829Y-77655371D01*
X74612979Y-77658273D01*
X74615527Y-77661453D01*
X74618503Y-77664922D01*
X74621934Y-77668695D01*
X74625851Y-77672782D01*
X74630283Y-77677197D01*
X74635257Y-77681952D01*
X74640803Y-77687059D01*
X74646951Y-77692531D01*
X74653728Y-77698380D01*
X74661165Y-77704619D01*
X74669289Y-77711259D01*
X74678130Y-77718314D01*
X74687717Y-77725795D01*
X75139008Y-78047171D01*
X75159773Y-78061119D01*
X75181219Y-78076438D01*
X75225546Y-78110281D01*
X75270766Y-78146882D01*
X75315659Y-78184423D01*
X75399574Y-78255051D01*
X75436152Y-78284502D01*
X75452562Y-78296967D01*
X75467515Y-78307621D01*
X75503303Y-78335002D01*
X75532279Y-78356878D01*
X75556492Y-78375232D01*
X75577993Y-78392046D01*
X75598833Y-78409305D01*
X75609646Y-78418721D01*
X75621062Y-78428991D01*
X75646731Y-78453088D01*
X75677890Y-78483578D01*
X75693866Y-78497516D01*
X75706555Y-78509457D01*
X75711763Y-78514726D01*
X75716267Y-78519553D01*
X75720105Y-78523957D01*
X75723315Y-78527956D01*
X75725937Y-78531569D01*
X75728010Y-78534816D01*
X75729572Y-78537715D01*
X75730662Y-78540285D01*
X75731320Y-78542546D01*
X75731585Y-78544515D01*
X75731494Y-78546213D01*
X75731088Y-78547657D01*
X75730405Y-78548868D01*
X75729483Y-78549863D01*
X75728363Y-78550662D01*
X75727082Y-78551283D01*
X75724197Y-78552069D01*
X75721137Y-78552373D01*
X75718216Y-78552346D01*
X75715743Y-78552139D01*
X75713392Y-78551792D01*
X75704348Y-78552120D01*
X75693288Y-78552364D01*
X75678087Y-78552513D01*
X75658909Y-78552455D01*
X75635915Y-78552080D01*
X75609270Y-78551276D01*
X75594629Y-78550678D01*
X75579136Y-78549931D01*
X75566073Y-78547778D01*
X75553453Y-78546467D01*
X75541331Y-78545901D01*
X75529763Y-78545982D01*
X75518803Y-78546614D01*
X75508507Y-78547699D01*
X75498930Y-78549141D01*
X75490127Y-78550843D01*
X75482153Y-78552708D01*
X75475063Y-78554639D01*
X75463757Y-78558311D01*
X75454183Y-78562178D01*
X75453377Y-78564219D01*
X75452571Y-78566701D01*
X75451676Y-78570098D01*
X75450825Y-78574365D01*
X75450154Y-78579455D01*
X75449928Y-78582296D01*
X75449796Y-78585325D01*
X75449777Y-78588538D01*
X75449887Y-78591928D01*
X75450142Y-78595491D01*
X75450560Y-78599220D01*
X75451156Y-78603110D01*
X75451949Y-78607155D01*
X75452955Y-78611349D01*
X75454190Y-78615688D01*
X75455671Y-78620164D01*
X75457416Y-78624773D01*
X75459440Y-78629509D01*
X75461762Y-78634366D01*
X75464396Y-78639339D01*
X75467362Y-78644422D01*
X75470674Y-78649609D01*
X75474350Y-78654894D01*
X75478407Y-78660273D01*
X75482862Y-78665738D01*
X75492210Y-78677469D01*
X75501728Y-78690614D01*
X75521937Y-78721065D01*
X75544815Y-78756920D01*
X75571687Y-78798010D01*
X75587035Y-78820465D01*
X75603879Y-78844163D01*
X75622384Y-78869086D01*
X75642717Y-78895210D01*
X75665043Y-78922514D01*
X75689528Y-78950978D01*
X75716337Y-78980580D01*
X75745637Y-79011298D01*
X75760864Y-79025912D01*
X75775572Y-79040693D01*
X75789852Y-79055643D01*
X75803793Y-79070761D01*
X75831017Y-79101496D01*
X75857967Y-79132898D01*
X75885360Y-79164960D01*
X75913918Y-79197681D01*
X75944360Y-79231056D01*
X75960513Y-79247987D01*
X75977407Y-79265081D01*
X75992507Y-79282363D01*
X76007588Y-79300574D01*
X76037371Y-79338857D01*
X76066113Y-79378084D01*
X76093169Y-79416406D01*
X76139648Y-79482939D01*
X76157783Y-79507454D01*
X76165293Y-79516715D01*
X76171657Y-79523670D01*
X76049340Y-79585372D01*
X76047170Y-79658391D01*
X76054877Y-79666656D01*
X76062909Y-79674736D01*
X76071260Y-79682663D01*
X76079922Y-79690473D01*
X76088889Y-79698199D01*
X76098153Y-79705877D01*
X76117545Y-79721223D01*
X76205609Y-79787531D01*
X76227121Y-79799316D01*
X76262796Y-79815068D01*
X76373580Y-79856864D01*
X76531846Y-79909710D01*
X76731484Y-79970396D01*
X76966378Y-80035712D01*
X77095137Y-80069104D01*
X77230418Y-80102449D01*
X77371457Y-80135348D01*
X77517490Y-80167398D01*
X77667752Y-80198198D01*
X77821480Y-80227348D01*
X78069549Y-80271845D01*
X78296749Y-80308690D01*
X78504943Y-80338715D01*
X78695995Y-80362754D01*
X79034130Y-80396203D01*
X79326065Y-80415696D01*
X79830974Y-80439459D01*
X80073771Y-80457051D01*
X80330009Y-80487332D01*
X80461413Y-80508513D01*
X80588034Y-80533131D01*
X80710380Y-80561070D01*
X80828956Y-80592216D01*
X80944270Y-80626452D01*
X81056830Y-80663663D01*
X81167142Y-80703734D01*
X81275713Y-80746548D01*
X81383050Y-80791990D01*
X81489661Y-80839944D01*
X81702730Y-80942928D01*
X81918976Y-81054574D01*
X82142456Y-81173957D01*
X82165040Y-81185419D01*
X82186786Y-81196966D01*
X82227921Y-81220207D01*
X82266190Y-81243457D01*
X82301920Y-81266494D01*
X82335438Y-81289098D01*
X82367073Y-81311045D01*
X82426004Y-81352086D01*
X82523207Y-81394745D01*
X82619884Y-81438602D01*
X82715734Y-81483739D01*
X82810454Y-81530235D01*
X82903744Y-81578172D01*
X82995300Y-81627632D01*
X83084821Y-81678694D01*
X83172005Y-81731441D01*
X83330737Y-81840175D01*
X83499083Y-81970656D01*
X83674970Y-82119374D01*
X83856325Y-82282819D01*
X84041074Y-82457478D01*
X84227144Y-82639843D01*
X84594955Y-83013642D01*
X85255211Y-83699220D01*
X85514485Y-83954827D01*
X85619152Y-84048547D01*
X85704409Y-84114863D01*
X85775469Y-84163302D01*
X85843554Y-84206795D01*
X85908963Y-84245634D01*
X85972000Y-84280112D01*
X86032964Y-84310521D01*
X86092158Y-84337156D01*
X86149883Y-84360307D01*
X86206440Y-84380269D01*
X86262132Y-84397334D01*
X86317258Y-84411795D01*
X86372121Y-84423944D01*
X86427021Y-84434075D01*
X86482261Y-84442480D01*
X86538142Y-84449452D01*
X86653032Y-84460269D01*
X86710113Y-84462032D01*
X86762957Y-84462536D01*
X86811642Y-84461937D01*
X86856244Y-84460395D01*
X86933502Y-84455112D01*
X86995343Y-84447953D01*
X87042378Y-84440182D01*
X87075218Y-84433064D01*
X87100757Y-84425852D01*
X87140199Y-84375984D01*
X87184894Y-84322867D01*
X87212143Y-84291951D01*
X87242146Y-84259153D01*
X87274521Y-84225243D01*
X87308884Y-84190988D01*
X87344850Y-84157156D01*
X87382036Y-84124515D01*
X87420059Y-84093833D01*
X87439263Y-84079467D01*
X87458533Y-84065879D01*
X87477820Y-84053165D01*
X87497076Y-84041420D01*
X87516254Y-84030742D01*
X87535304Y-84021225D01*
X87589866Y-83997266D01*
X87651142Y-83974393D01*
X87717719Y-83952670D01*
X87788185Y-83932159D01*
X87935136Y-83895029D01*
X88080700Y-83863511D01*
X88213581Y-83838113D01*
X88322482Y-83819344D01*
X88423158Y-83803719D01*
X88423493Y-83821369D01*
X88422058Y-83870682D01*
X88419531Y-83905506D01*
X88415187Y-83946199D01*
X88408569Y-83992079D01*
X88399218Y-84042464D01*
X88386677Y-84096671D01*
X88370487Y-84154019D01*
X88360880Y-84183657D01*
X88350190Y-84213824D01*
X88338359Y-84244435D01*
X88325329Y-84275406D01*
X88311043Y-84306649D01*
X88295445Y-84338081D01*
X88278477Y-84369615D01*
X88260081Y-84401167D01*
X88240201Y-84432651D01*
X88218779Y-84463983D01*
X88195757Y-84495076D01*
X88171080Y-84525846D01*
X88139451Y-84560734D01*
X88107114Y-84592789D01*
X88074144Y-84622132D01*
X88040616Y-84648882D01*
X88006606Y-84673161D01*
X87972187Y-84695087D01*
X87937435Y-84714782D01*
X87902425Y-84732365D01*
X87867233Y-84747957D01*
X87831933Y-84761677D01*
X87761309Y-84783985D01*
X87691156Y-84800248D01*
X87622072Y-84811430D01*
X87179978Y-84833268D01*
X87113246Y-84843438D01*
X87037322Y-84852000D01*
X86953125Y-84858470D01*
X86861574Y-84862365D01*
X86763592Y-84863203D01*
X86660097Y-84860501D01*
X86552010Y-84853775D01*
X86440251Y-84842543D01*
X86325741Y-84826322D01*
X86209399Y-84804629D01*
X86092146Y-84776981D01*
X85974902Y-84742894D01*
X85858587Y-84701887D01*
X85744121Y-84653476D01*
X85632426Y-84597178D01*
X85577904Y-84565921D01*
X85524420Y-84532511D01*
X85429101Y-84468510D01*
X85334575Y-84401653D01*
X85240984Y-84332399D01*
X85148474Y-84261207D01*
X84967264Y-84114838D01*
X84792093Y-83966214D01*
X84174734Y-83422503D01*
X84104660Y-83367581D01*
X84029450Y-83312133D01*
X83949551Y-83256445D01*
X83865409Y-83200801D01*
X83777470Y-83145487D01*
X83686182Y-83090788D01*
X83591989Y-83036989D01*
X83495339Y-82984376D01*
X83396678Y-82933234D01*
X83296452Y-82883848D01*
X83195108Y-82836503D01*
X83093091Y-82791484D01*
X82990848Y-82749077D01*
X82888826Y-82709567D01*
X82787471Y-82673239D01*
X82687229Y-82640379D01*
X82689637Y-82677568D01*
X82692902Y-82714782D01*
X82701007Y-82788513D01*
X82709548Y-82860033D01*
X82713358Y-82894483D01*
X82716529Y-82927804D01*
X82731727Y-83026187D01*
X82753138Y-83136142D01*
X82811203Y-83382140D01*
X82883924Y-83648529D01*
X82964501Y-83918041D01*
X83046134Y-84173408D01*
X83122023Y-84397362D01*
X83185367Y-84572635D01*
X83229366Y-84681959D01*
X83277126Y-84784078D01*
X83346055Y-84920922D01*
X83428870Y-85079150D01*
X83518288Y-85245420D01*
X83607024Y-85406388D01*
X83687796Y-85548714D01*
X83753318Y-85659054D01*
X83796308Y-85724067D01*
X83812710Y-85741336D01*
X83831717Y-85759583D01*
X83853281Y-85778690D01*
X83877353Y-85798541D01*
X83903885Y-85819018D01*
X83932828Y-85840004D01*
X83964134Y-85861383D01*
X83997754Y-85883036D01*
X84033639Y-85904848D01*
X84071740Y-85926700D01*
X84112010Y-85948475D01*
X84154400Y-85970058D01*
X84198860Y-85991329D01*
X84245343Y-86012173D01*
X84293799Y-86032471D01*
X84344181Y-86052108D01*
X84649525Y-86155717D01*
X85031383Y-86278956D01*
X85495584Y-86425265D01*
X85495488Y-86559198D01*
X85497664Y-86707260D01*
X85503364Y-86892181D01*
X85514118Y-87101058D01*
X85521868Y-87210448D01*
X85531457Y-87320988D01*
X85543074Y-87431065D01*
X85556912Y-87539067D01*
X85573161Y-87643381D01*
X85592013Y-87742393D01*
X85607963Y-87827565D01*
X85629047Y-87926079D01*
X85677668Y-88132680D01*
X85738050Y-88371038D01*
X85721428Y-88382222D01*
X85676071Y-88414745D01*
X85644730Y-88438527D01*
X85608741Y-88467065D01*
X85568949Y-88500166D01*
X85526200Y-88537638D01*
X85481339Y-88579289D01*
X85435210Y-88624924D01*
X85388660Y-88674351D01*
X85342534Y-88727377D01*
X85319894Y-88755180D01*
X85297676Y-88783810D01*
X85275987Y-88813244D01*
X85254933Y-88843457D01*
X85234618Y-88874425D01*
X85215149Y-88906124D01*
X85196631Y-88938530D01*
X85179170Y-88971619D01*
X85145571Y-89014913D01*
X85107483Y-89062774D01*
X85066580Y-89111802D01*
X85045596Y-89135691D01*
X85024535Y-89158598D01*
X85003608Y-89180097D01*
X84983022Y-89199763D01*
X84962988Y-89217171D01*
X84943715Y-89231897D01*
X84925412Y-89243516D01*
X84916689Y-89248027D01*
X84908288Y-89251602D01*
X84900233Y-89254188D01*
X84892552Y-89255731D01*
X84885270Y-89256179D01*
X84878413Y-89255478D01*
X83463305Y-88977666D01*
X83462706Y-88962091D01*
X83462712Y-88944116D01*
X83463594Y-88920679D01*
X83465856Y-88892775D01*
X83470002Y-88861401D01*
X83476535Y-88827553D01*
X83485960Y-88792227D01*
X83491914Y-88774322D01*
X83498780Y-88756420D01*
X83506621Y-88738648D01*
X83515500Y-88721128D01*
X83525479Y-88703987D01*
X83536623Y-88687348D01*
X83548993Y-88671335D01*
X83562653Y-88656075D01*
X83577666Y-88641690D01*
X83594094Y-88628306D01*
X83612002Y-88616046D01*
X83631451Y-88605037D01*
X83652505Y-88595401D01*
X83675226Y-88587265D01*
X83699678Y-88580751D01*
X83725924Y-88575985D01*
X83741050Y-88572136D01*
X83755148Y-88568211D01*
X83780680Y-88560145D01*
X83803358Y-88551807D01*
X83824022Y-88543217D01*
X83903317Y-88506774D01*
X83926497Y-88497247D01*
X83952697Y-88487595D01*
X83982756Y-88477839D01*
X84017514Y-88468001D01*
X84036917Y-88463057D01*
X84057810Y-88458101D01*
X84080296Y-88453135D01*
X84104482Y-88448161D01*
X84130472Y-88443182D01*
X84158370Y-88438201D01*
X84188283Y-88433220D01*
X84220314Y-88428242D01*
X84245704Y-88424011D01*
X84269839Y-88419334D01*
X84292842Y-88414040D01*
X84314835Y-88407954D01*
X84335944Y-88400905D01*
X84356290Y-88392719D01*
X84375996Y-88383222D01*
X84395188Y-88372243D01*
X84413986Y-88359608D01*
X84432516Y-88345145D01*
X84450900Y-88328679D01*
X84469261Y-88310039D01*
X84487723Y-88289051D01*
X84506408Y-88265542D01*
X84525441Y-88239340D01*
X84544945Y-88210271D01*
X84564140Y-88178403D01*
X84582156Y-88144312D01*
X84598986Y-88108588D01*
X84614621Y-88071821D01*
X84629053Y-88034603D01*
X84642273Y-87997524D01*
X84665045Y-87926142D01*
X84682873Y-87862400D01*
X84695688Y-87811022D01*
X84706020Y-87764251D01*
X84706710Y-87751111D01*
X84707322Y-87715710D01*
X84706914Y-87691545D01*
X84705666Y-87664076D01*
X84703305Y-87634055D01*
X84699556Y-87602238D01*
X84694146Y-87569377D01*
X84686802Y-87536225D01*
X84682320Y-87519776D01*
X84677251Y-87503537D01*
X84671562Y-87487602D01*
X84665218Y-87472066D01*
X84658185Y-87457022D01*
X84650430Y-87442566D01*
X84641918Y-87428790D01*
X84632614Y-87415790D01*
X84622485Y-87403659D01*
X84611496Y-87392491D01*
X84599613Y-87382382D01*
X84586803Y-87373424D01*
X84569852Y-87362760D01*
X84551374Y-87353144D01*
X84531426Y-87344500D01*
X84510066Y-87336751D01*
X84463342Y-87323635D01*
X84411661Y-87313187D01*
X84355485Y-87304799D01*
X84295274Y-87297860D01*
X84164589Y-87285896D01*
X84023293Y-87272422D01*
X83949818Y-87263596D01*
X83875073Y-87252565D01*
X83799518Y-87238721D01*
X83723614Y-87221452D01*
X83647821Y-87200152D01*
X83610111Y-87187799D01*
X83572601Y-87174210D01*
X83457233Y-87126246D01*
X83337580Y-87073152D01*
X83090013Y-86954845D01*
X82839095Y-86825831D01*
X82594016Y-86692653D01*
X82363972Y-86561853D01*
X82158152Y-86439975D01*
X81985752Y-86333559D01*
X81855962Y-86249150D01*
X81807746Y-86212588D01*
X81756538Y-86167886D01*
X81702967Y-86116226D01*
X81647661Y-86058789D01*
X81591251Y-85996757D01*
X81534363Y-85931314D01*
X81421672Y-85794916D01*
X81314617Y-85659051D01*
X81218227Y-85533173D01*
X81077560Y-85349205D01*
X81053415Y-85320337D01*
X81029076Y-85293639D01*
X81004784Y-85269069D01*
X80980782Y-85246584D01*
X80957311Y-85226141D01*
X80934613Y-85207698D01*
X80912929Y-85191213D01*
X80892501Y-85176643D01*
X80873572Y-85163947D01*
X80856382Y-85153080D01*
X80828187Y-85136670D01*
X80803312Y-85123948D01*
X80761325Y-85151684D01*
X80636673Y-85232081D01*
X80543961Y-85290710D01*
X80431320Y-85360925D01*
X80298994Y-85442197D01*
X80147229Y-85534002D01*
X79994609Y-85624270D01*
X79866085Y-85703624D01*
X79758180Y-85772961D01*
X79667420Y-85833178D01*
X79523439Y-85929842D01*
X79463267Y-85968083D01*
X79406343Y-86000795D01*
X79377616Y-86017189D01*
X79348095Y-86035903D01*
X79318078Y-86056602D01*
X79287865Y-86078948D01*
X79257753Y-86102606D01*
X79228043Y-86127239D01*
X79199033Y-86152513D01*
X79171022Y-86178090D01*
X79144309Y-86203636D01*
X79119193Y-86228813D01*
X79095973Y-86253286D01*
X79074947Y-86276719D01*
X79056415Y-86298776D01*
X79040676Y-86319121D01*
X79028028Y-86337417D01*
X79018770Y-86353330D01*
X78988282Y-86411875D01*
X78960040Y-86475149D01*
X78934007Y-86541978D01*
X78910142Y-86611188D01*
X78888409Y-86681606D01*
X78868767Y-86752059D01*
X78835607Y-86888371D01*
X78810353Y-87010736D01*
X78792696Y-87109765D01*
X78778941Y-87200254D01*
X78680899Y-87216210D01*
X78575742Y-87235266D01*
X78448623Y-87260916D01*
X78311140Y-87292569D01*
X78242137Y-87310460D01*
X78174891Y-87329630D01*
X78110852Y-87350003D01*
X78051471Y-87371507D01*
X77998197Y-87394066D01*
X77952479Y-87417608D01*
X77932016Y-87429001D01*
X77911675Y-87441331D01*
X77871492Y-87468460D01*
X77832208Y-87498312D01*
X77794099Y-87530207D01*
X77757444Y-87563464D01*
X77722520Y-87597401D01*
X77689605Y-87631339D01*
X77658976Y-87664595D01*
X77605688Y-87726339D01*
X77564875Y-87777188D01*
X77529560Y-87824404D01*
X75807959Y-87486284D01*
X75805983Y-87464508D01*
X75805033Y-87443776D01*
X75805054Y-87424060D01*
X75805991Y-87405330D01*
X75807790Y-87387559D01*
X75810395Y-87370717D01*
X75813752Y-87354776D01*
X75817805Y-87339707D01*
X75822500Y-87325481D01*
X75827782Y-87312070D01*
X75833596Y-87299445D01*
X75839886Y-87287577D01*
X75846599Y-87276437D01*
X75853679Y-87265998D01*
X75861071Y-87256230D01*
X75868720Y-87247104D01*
X75884571Y-87230666D01*
X75900791Y-87216453D01*
X75916942Y-87204236D01*
X75932585Y-87193787D01*
X75981282Y-87165064D01*
X75997173Y-87153724D01*
X76013194Y-87141175D01*
X76046167Y-87113343D01*
X76081284Y-87083356D01*
X76099986Y-87068113D01*
X76119631Y-87053002D01*
X76140354Y-87038246D01*
X76162291Y-87024069D01*
X76173757Y-87017268D01*
X76185577Y-87010695D01*
X76197769Y-87004378D01*
X76210349Y-86998346D01*
X76223334Y-86992626D01*
X76236741Y-86987246D01*
X76250587Y-86982235D01*
X76264889Y-86977620D01*
X76279664Y-86973429D01*
X76294929Y-86969690D01*
X76310701Y-86966431D01*
X76326996Y-86963680D01*
X76437854Y-86947578D01*
X76534545Y-86935095D01*
X76618357Y-86925713D01*
X76690575Y-86918914D01*
X76805373Y-86910990D01*
X76889224Y-86907175D01*
X76952416Y-86903320D01*
X76979480Y-86900082D01*
X77005236Y-86895279D01*
X77030970Y-86888392D01*
X77057969Y-86878903D01*
X77087518Y-86866293D01*
X77120903Y-86850045D01*
X77412030Y-86708262D01*
X77491828Y-86666307D01*
X77529479Y-86645085D01*
X77564831Y-86623877D01*
X77597285Y-86602816D01*
X77626241Y-86582035D01*
X77651098Y-86561668D01*
X77671256Y-86541846D01*
X77690306Y-86517724D01*
X77711982Y-86484806D01*
X77735905Y-86443753D01*
X77761691Y-86395227D01*
X77788961Y-86339887D01*
X77817332Y-86278395D01*
X77846424Y-86211411D01*
X77875855Y-86139596D01*
X77905243Y-86063611D01*
X77934208Y-85984116D01*
X77962368Y-85901771D01*
X77989341Y-85817239D01*
X78014746Y-85731178D01*
X78038203Y-85644251D01*
X78059329Y-85557118D01*
X78077743Y-85470439D01*
X78098891Y-85365662D01*
X78120542Y-85264143D01*
X78142535Y-85166710D01*
X78164708Y-85074193D01*
X78186902Y-84987420D01*
X78208955Y-84907221D01*
X78230706Y-84834425D01*
X78251996Y-84769861D01*
X78042040Y-84695109D01*
X77809919Y-84617000D01*
X77560242Y-84542038D01*
X77430259Y-84507771D01*
X77297616Y-84476730D01*
X77162887Y-84449729D01*
X77026650Y-84427580D01*
X76889479Y-84411098D01*
X76751952Y-84401094D01*
X76614644Y-84398382D01*
X76478131Y-84403775D01*
X76342989Y-84418087D01*
X76209795Y-84442130D01*
X76066267Y-84474408D01*
X75859827Y-84517288D01*
X75738733Y-84540959D01*
X75608772Y-84565184D01*
X75472232Y-84589266D01*
X75331399Y-84612507D01*
X75321353Y-84629342D01*
X75311444Y-84647103D01*
X75301702Y-84665831D01*
X75292155Y-84685568D01*
X75282831Y-84706355D01*
X75273758Y-84728233D01*
X75264965Y-84751242D01*
X75256478Y-84775425D01*
X75248328Y-84800822D01*
X75240541Y-84827474D01*
X75233146Y-84855422D01*
X75226171Y-84884708D01*
X75219644Y-84915373D01*
X75213594Y-84947457D01*
X75208048Y-84981002D01*
X75203036Y-85016049D01*
X75197972Y-85060134D01*
X75195203Y-85105188D01*
X75195989Y-85197581D01*
X75204274Y-85291984D01*
X75218939Y-85387156D01*
X75238864Y-85481853D01*
X75262930Y-85574834D01*
X75290016Y-85664857D01*
X75319005Y-85750677D01*
X75378209Y-85904746D01*
X75431585Y-86027100D01*
X75485034Y-86136911D01*
X75431303Y-86219548D01*
X75306573Y-86406497D01*
X75234675Y-86510514D01*
X75165537Y-86606319D01*
X75134139Y-86647570D01*
X75105996Y-86682482D01*
X75081961Y-86709626D01*
X75062889Y-86727572D01*
X75046884Y-86741481D01*
X75027368Y-86756548D01*
X75004804Y-86772704D01*
X74979654Y-86789877D01*
X74862442Y-86867329D01*
X74800343Y-86910320D01*
X74770038Y-86932635D01*
X74740847Y-86955401D01*
X74713232Y-86978548D01*
X74687654Y-87002006D01*
X74664577Y-87025702D01*
X74644463Y-87049568D01*
X74601457Y-87111740D01*
X74557138Y-87174810D01*
X74508503Y-87243353D01*
X93111708Y-90859411D01*
X93131397Y-92183207D01*
X82803966Y-90175732D01*
X82913727Y-96764478D01*
X81495208Y-96488836D01*
X81359559Y-89894974D01*
X56683703Y-85098524D01*
X56665561Y-83775038D01*
X74499821Y-87241648D01*
X73022703Y-86951432D01*
X73020765Y-86939240D01*
X73019076Y-86925057D01*
X73017561Y-86906426D01*
X73016709Y-86884050D01*
X73017009Y-86858637D01*
X73018951Y-86830892D01*
X73023023Y-86801520D01*
X73026012Y-86786445D01*
X73029717Y-86771228D01*
X73034199Y-86755957D01*
X73039520Y-86740721D01*
X73045741Y-86725608D01*
X73052923Y-86710705D01*
X73061128Y-86696102D01*
X73070416Y-86681887D01*
X73080848Y-86668147D01*
X73092486Y-86654970D01*
X73105392Y-86642447D01*
X73119625Y-86630663D01*
X73135248Y-86619708D01*
X73152322Y-86609670D01*
X73170907Y-86600637D01*
X73191066Y-86592697D01*
X73208388Y-86586362D01*
X73225919Y-86579062D01*
X73243649Y-86570937D01*
X73261568Y-86562130D01*
X73297932Y-86543038D01*
X73334929Y-86522918D01*
X73372479Y-86502908D01*
X73391436Y-86493298D01*
X73410501Y-86484140D01*
X73429663Y-86475578D01*
X73448913Y-86467751D01*
X73468240Y-86460803D01*
X73487635Y-86454876D01*
X73560591Y-86437661D01*
X73625436Y-86424199D01*
X73682940Y-86413961D01*
X73733869Y-86406415D01*
X73778992Y-86401029D01*
X73819077Y-86397274D01*
X73887204Y-86392529D01*
X73944394Y-86387933D01*
X73970808Y-86384363D01*
X73996791Y-86379237D01*
X74023113Y-86372024D01*
X74050540Y-86362194D01*
X74079841Y-86349215D01*
X74111784Y-86332557D01*
X74121946Y-86327033D01*
X74132123Y-86320315D01*
X74142292Y-86312492D01*
X74152432Y-86303654D01*
X74172535Y-86283291D01*
X74192255Y-86259946D01*
X74211415Y-86234338D01*
X74229837Y-86207186D01*
X74247345Y-86179207D01*
X74263761Y-86151122D01*
X74292612Y-86097507D01*
X74314973Y-86052090D01*
X74334562Y-86008856D01*
X74244992Y-85879328D01*
X74040816Y-85579190D01*
X73926001Y-85406600D01*
X73818833Y-85241109D01*
X73731414Y-85099299D01*
X73698891Y-85042457D01*
X73675842Y-84997754D01*
X73534334Y-84720401D01*
X73509449Y-84670701D01*
X73487258Y-84624833D01*
X73467008Y-84580784D01*
X73447949Y-84536541D01*
X73256904Y-84478422D01*
X73068858Y-84416730D01*
X72888152Y-84352747D01*
X72719126Y-84287758D01*
X72566120Y-84223045D01*
X72433474Y-84159891D01*
X72376143Y-84129300D01*
X72325530Y-84099580D01*
X72282176Y-84070892D01*
X72246626Y-84043395D01*
X72236601Y-84036696D01*
X72226884Y-84029809D01*
X72217450Y-84022764D01*
X72208275Y-84015591D01*
X72190605Y-84000989D01*
X72173681Y-83986248D01*
X72141299Y-83957340D01*
X72125453Y-83943667D01*
X72117533Y-83937133D01*
X72109581Y-83930842D01*
X72085395Y-83939844D01*
X72062196Y-83948896D01*
X72018326Y-83966487D01*
X71997437Y-83974699D01*
X71977101Y-83982302D01*
X71957210Y-83989132D01*
X71937654Y-83995025D01*
X71875696Y-84016390D01*
X71804584Y-84038523D01*
X71640235Y-84084920D01*
X71260446Y-84185048D01*
X71066379Y-84238096D01*
X70883778Y-84292678D01*
X70800117Y-84320437D01*
X70723329Y-84348452D01*
X70654752Y-84376679D01*
X70595720Y-84405076D01*
X70540058Y-84437669D01*
X70481315Y-84477639D01*
X70420412Y-84523678D01*
X70358269Y-84574477D01*
X70295807Y-84628730D01*
X70233946Y-84685128D01*
X70115711Y-84799125D01*
X70010930Y-84906005D01*
X69926967Y-84995304D01*
X69850959Y-85079300D01*
X69749126Y-85098910D01*
X69640931Y-85122653D01*
X69511527Y-85155003D01*
X69442850Y-85174245D01*
X69373644Y-85195447D01*
X69305501Y-85218545D01*
X69240013Y-85243473D01*
X69178771Y-85270168D01*
X69123366Y-85298566D01*
X69098350Y-85313384D01*
X69075390Y-85328603D01*
X69054686Y-85344215D01*
X69036435Y-85360214D01*
X69023907Y-85370449D01*
X69008914Y-85380311D01*
X68972285Y-85398924D01*
X68928048Y-85416079D01*
X68877706Y-85431803D01*
X68822761Y-85446121D01*
X68764714Y-85459058D01*
X68645324Y-85480895D01*
X68531549Y-85497520D01*
X68435406Y-85509140D01*
X68344074Y-85518188D01*
X68336489Y-85517105D01*
X68327180Y-85516242D01*
X68314347Y-85515602D01*
X68298105Y-85515512D01*
X68278570Y-85516301D01*
X68255855Y-85518294D01*
X68230076Y-85521821D01*
X68216074Y-85524262D01*
X68201349Y-85527208D01*
X68185915Y-85530702D01*
X68169788Y-85534784D01*
X68152981Y-85539495D01*
X68135508Y-85544876D01*
X68117385Y-85550967D01*
X68098625Y-85557810D01*
X68079242Y-85565446D01*
X68059253Y-85573916D01*
X68038669Y-85583261D01*
X68017507Y-85593521D01*
X67995780Y-85604737D01*
X67973503Y-85616951D01*
X67950690Y-85630204D01*
X67927356Y-85644535D01*
X67767272Y-85739593D01*
X67736551Y-85756889D01*
X67708390Y-85771835D01*
X67682210Y-85784551D01*
X67657432Y-85795157D01*
X67633475Y-85803772D01*
X67609761Y-85810514D01*
X67585708Y-85815503D01*
X67560739Y-85818858D01*
X67534273Y-85820699D01*
X67505731Y-85821144D01*
X67474532Y-85820313D01*
X67440098Y-85818325D01*
X67295196Y-85801980D01*
X67137596Y-85780132D01*
X66823778Y-85729400D01*
X66477987Y-85666085D01*
X66474657Y-85648323D01*
X66468408Y-85600846D01*
X66465942Y-85568686D01*
X66464849Y-85532364D01*
X66465830Y-85492968D01*
X66469588Y-85451588D01*
X66472727Y-85430493D01*
X66476822Y-85409311D01*
X66481962Y-85388177D01*
X66488234Y-85367228D01*
X66495727Y-85346599D01*
X66504526Y-85326427D01*
X66514720Y-85306847D01*
X66526398Y-85287996D01*
X66539645Y-85270010D01*
X66554551Y-85253025D01*
X66571202Y-85237177D01*
X66589687Y-85222603D01*
X66610092Y-85209438D01*
X66632506Y-85197818D01*
X66657016Y-85187880D01*
X66683710Y-85179759D01*
X66710069Y-85172373D01*
X66733689Y-85164561D01*
X66754827Y-85156342D01*
X66773743Y-85147737D01*
X66790694Y-85138763D01*
X66805940Y-85129441D01*
X66819739Y-85119791D01*
X66832350Y-85109830D01*
X66844031Y-85099580D01*
X66855040Y-85089058D01*
X66876081Y-85067281D01*
X66897539Y-85044652D01*
X66921484Y-85021328D01*
X66935035Y-85009454D01*
X66949984Y-84997464D01*
X66966588Y-84985377D01*
X66985108Y-84973214D01*
X67005800Y-84960993D01*
X67028924Y-84948734D01*
X67054739Y-84936456D01*
X67083502Y-84924178D01*
X67115473Y-84911921D01*
X67150909Y-84899703D01*
X67190071Y-84887543D01*
X67233215Y-84875462D01*
X67280601Y-84863478D01*
X67332488Y-84851612D01*
X67389133Y-84839881D01*
X67450796Y-84828306D01*
X67795586Y-84772053D01*
X67883642Y-84755846D01*
X67964538Y-84738088D01*
X68001067Y-84728519D01*
X68034325Y-84718432D01*
X68063818Y-84707785D01*
X68089052Y-84696532D01*
X68118583Y-84678219D01*
X68160373Y-84647369D01*
X68275151Y-84553784D01*
X68422240Y-84427222D01*
X68590494Y-84279127D01*
X68945912Y-83964119D01*
X69110784Y-83820094D01*
X69252236Y-83700315D01*
X69393091Y-83585147D01*
X69556788Y-83446470D01*
X69901392Y-83146503D01*
X70300233Y-82791533D01*
X70487818Y-82522246D01*
X70508282Y-82293580D01*
X70425342Y-82154827D01*
X70295892Y-81941051D01*
X70264564Y-81886010D01*
X70250216Y-81859368D01*
X70237027Y-81833582D01*
X70225208Y-81808856D01*
X70214971Y-81785393D01*
X70206525Y-81763396D01*
X70200084Y-81743068D01*
X70188660Y-81704468D01*
X70178468Y-81675298D01*
X70173794Y-81663883D01*
X70169380Y-81654385D01*
X70165209Y-81646659D01*
X70161267Y-81640556D01*
X70157537Y-81635931D01*
X70154002Y-81632636D01*
X70150648Y-81630525D01*
X70147457Y-81629451D01*
X70144415Y-81629268D01*
X70141504Y-81629828D01*
X70136014Y-81632593D01*
X70125914Y-81640592D01*
X70121047Y-81643478D01*
X70118603Y-81644129D01*
X70116131Y-81644057D01*
X70113615Y-81643114D01*
X70111039Y-81641154D01*
X70108387Y-81638031D01*
X70105643Y-81633597D01*
X70102791Y-81627706D01*
X70099814Y-81620211D01*
X70093425Y-81599823D01*
X70090339Y-81589997D01*
X70086480Y-81579962D01*
X70081892Y-81569738D01*
X70076616Y-81559347D01*
X70064174Y-81538154D01*
X70049497Y-81516557D01*
X70032928Y-81494731D01*
X70014808Y-81472852D01*
X69995480Y-81451094D01*
X69975287Y-81429633D01*
X69954571Y-81408643D01*
X69933674Y-81388299D01*
X69892708Y-81350250D01*
X69855128Y-81316887D01*
X69823674Y-81289609D01*
X69811838Y-81277011D01*
X69799504Y-81262378D01*
X69786848Y-81246102D01*
X69774042Y-81228578D01*
X69748678Y-81191354D01*
X69724805Y-81153849D01*
X69703815Y-81119206D01*
X69687099Y-81090569D01*
X69672056Y-81063887D01*
X69668724Y-81077964D01*
X69664221Y-81093987D01*
X69661161Y-81103786D01*
X69657526Y-81114603D01*
X69653285Y-81126305D01*
X69648412Y-81138762D01*
X69642878Y-81151843D01*
X69636655Y-81165416D01*
X69629714Y-81179351D01*
X69622028Y-81193517D01*
X69617897Y-81200646D01*
X69613568Y-81207783D01*
X69609039Y-81214912D01*
X69604307Y-81222017D01*
X69602048Y-81219254D01*
X69595567Y-81210928D01*
X69590881Y-81204661D01*
X69585307Y-81196982D01*
X69578898Y-81187883D01*
X69571711Y-81177358D01*
X69563801Y-81165399D01*
X69555224Y-81151999D01*
X69546034Y-81137151D01*
X69536287Y-81120848D01*
X69526039Y-81103083D01*
X69515345Y-81083848D01*
X69504261Y-81063137D01*
X69492841Y-81040941D01*
X69482250Y-81019293D01*
X69473421Y-80999999D01*
X69466064Y-80982714D01*
X69459885Y-80967095D01*
X69449903Y-80939476D01*
X69441146Y-80914393D01*
X69436498Y-80901941D01*
X69431283Y-80889092D01*
X69425209Y-80875500D01*
X69417984Y-80860822D01*
X69409319Y-80844714D01*
X69398921Y-80826831D01*
X69386499Y-80806831D01*
X69371763Y-80784368D01*
X69354339Y-80759033D01*
X69338392Y-80731673D01*
X69323801Y-80702534D01*
X69310445Y-80671862D01*
X69298206Y-80639902D01*
X69286961Y-80606900D01*
X69276592Y-80573101D01*
X69266976Y-80538750D01*
X69202781Y-80273547D01*
X69186676Y-80223768D01*
X69172224Y-80181637D01*
X69159286Y-80146410D01*
X69147720Y-80117338D01*
X69137389Y-80093675D01*
X69128151Y-80074674D01*
X69119867Y-80059588D01*
X69112398Y-80047670D01*
X69102794Y-80064339D01*
X69077795Y-80106680D01*
X69061310Y-80133885D01*
X69043123Y-80163196D01*
X69023947Y-80193176D01*
X69004499Y-80222388D01*
X68995286Y-80207953D01*
X68985390Y-80191518D01*
X68979592Y-80181465D01*
X68973408Y-80170368D01*
X68966972Y-80158361D01*
X68960419Y-80145576D01*
X68953884Y-80132150D01*
X68947503Y-80118214D01*
X68941410Y-80103905D01*
X68935740Y-80089355D01*
X68930628Y-80074700D01*
X68928324Y-80067374D01*
X68926210Y-80060072D01*
X68918965Y-80001429D01*
X68914907Y-79970657D01*
X68910154Y-79939030D01*
X68904404Y-79906633D01*
X68897356Y-79873551D01*
X68893249Y-79856779D01*
X68888705Y-79839868D01*
X68883684Y-79822827D01*
X68878149Y-79805668D01*
X68867129Y-79770950D01*
X68856974Y-79736261D01*
X68847213Y-79702513D01*
X68837379Y-79670618D01*
X68832288Y-79655650D01*
X68827002Y-79641486D01*
X68821463Y-79628242D01*
X68815613Y-79616031D01*
X68809392Y-79604966D01*
X68802743Y-79595161D01*
X68795605Y-79586732D01*
X68787922Y-79579791D01*
X68779611Y-79573158D01*
X68770623Y-79565672D01*
X68750576Y-79548713D01*
X68739498Y-79539522D01*
X68727704Y-79530045D01*
X68715184Y-79520426D01*
X68701929Y-79510806D01*
X68687929Y-79501325D01*
X68673173Y-79492127D01*
X68657653Y-79483353D01*
X68649604Y-79479170D01*
X68641359Y-79475145D01*
X68632919Y-79471298D01*
X68624281Y-79467645D01*
X68615445Y-79464204D01*
X68606409Y-79460993D01*
X68597172Y-79458031D01*
X68587734Y-79455333D01*
X68578092Y-79452919D01*
X68568245Y-79450806D01*
X68554500Y-79448525D01*
X68539863Y-79446859D01*
X68524434Y-79445756D01*
X68508313Y-79445164D01*
X68491600Y-79445031D01*
X68474395Y-79445303D01*
X68438908Y-79446859D01*
X68402651Y-79449411D01*
X68366424Y-79452542D01*
X68297254Y-79458868D01*
X68288185Y-79459174D01*
X68279521Y-79459167D01*
X68271239Y-79458881D01*
X68263316Y-79458349D01*
X68248461Y-79456682D01*
X68234777Y-79454438D01*
X68210208Y-79449295D01*
X68198967Y-79446937D01*
X68188183Y-79445082D01*
X68177677Y-79443999D01*
X68172474Y-79443831D01*
X68167273Y-79443958D01*
X68162052Y-79444413D01*
X68156790Y-79445230D01*
X68151463Y-79446442D01*
X68146050Y-79448084D01*
X68140528Y-79450189D01*
X68134876Y-79452791D01*
X68129069Y-79455923D01*
X68123088Y-79459620D01*
X68116908Y-79463915D01*
X68110508Y-79468842D01*
X68103865Y-79474435D01*
X68096957Y-79480727D01*
X68082721Y-79493435D01*
X68068301Y-79504979D01*
X68053850Y-79515406D01*
X68039520Y-79524764D01*
X68025463Y-79533100D01*
X68011830Y-79540462D01*
X67998775Y-79546897D01*
X67986448Y-79552453D01*
X67975002Y-79557177D01*
X67964589Y-79561118D01*
X67947470Y-79566836D01*
X67932316Y-79570955D01*
X67932325Y-79570810D01*
X67932288Y-79570351D01*
X67932220Y-79569992D01*
X67932103Y-79569540D01*
X67931925Y-79568991D01*
X67931672Y-79568339D01*
X67931332Y-79567581D01*
X67930892Y-79566712D01*
X67930341Y-79565726D01*
X67929666Y-79564620D01*
X67928853Y-79563388D01*
X67927891Y-79562025D01*
X67926768Y-79560528D01*
X67925469Y-79558891D01*
X67923984Y-79557110D01*
X67922300Y-79555179D01*
X67920403Y-79553095D01*
X67918282Y-79550852D01*
X67915924Y-79548447D01*
X67913317Y-79545873D01*
X67910448Y-79543127D01*
X67907304Y-79540204D01*
X67903873Y-79537098D01*
X67900142Y-79533807D01*
X67896100Y-79530323D01*
X67891733Y-79526644D01*
X67887029Y-79522764D01*
X67881975Y-79518679D01*
X67876560Y-79514383D01*
X67870769Y-79509873D01*
X67849590Y-79493488D01*
X67832926Y-79480426D01*
X67819308Y-79469396D01*
X67807269Y-79459104D01*
X67795338Y-79448260D01*
X67782046Y-79435571D01*
X67765926Y-79419746D01*
X67745507Y-79399491D01*
X67734859Y-79388490D01*
X67725843Y-79378311D01*
X67718267Y-79368846D01*
X67711936Y-79359985D01*
X67706657Y-79351618D01*
X67702236Y-79343634D01*
X67698478Y-79335924D01*
X67695191Y-79328379D01*
X67689252Y-79313341D01*
X67686212Y-79305628D01*
X67682868Y-79297641D01*
X67679024Y-79289268D01*
X67674489Y-79280400D01*
X67669067Y-79270928D01*
X67662565Y-79260741D01*
X67655597Y-79250175D01*
X67648919Y-79239592D01*
X67642542Y-79228924D01*
X67636482Y-79218102D01*
X67630751Y-79207057D01*
X67625364Y-79195720D01*
X67620334Y-79184022D01*
X67615676Y-79171895D01*
X67611402Y-79159269D01*
X67607527Y-79146075D01*
X67604064Y-79132245D01*
X67601028Y-79117710D01*
X67598432Y-79102401D01*
X67596290Y-79086249D01*
X67594615Y-79069185D01*
X67593422Y-79051141D01*
X67593126Y-79042040D01*
X67593162Y-79033283D01*
X67593500Y-79024856D01*
X67594113Y-79016743D01*
X67596049Y-79001402D01*
X67598740Y-78987145D01*
X67601958Y-78973854D01*
X67605476Y-78961412D01*
X67612495Y-78938609D01*
X67615541Y-78928013D01*
X67617974Y-78917799D01*
X67619565Y-78907849D01*
X67619973Y-78902937D01*
X67620086Y-78898047D01*
X67619874Y-78893165D01*
X67619309Y-78888275D01*
X67618363Y-78883364D01*
X67617006Y-78878417D01*
X67615211Y-78873419D01*
X67612949Y-78868356D01*
X67610192Y-78863212D01*
X67606910Y-78857974D01*
X67604090Y-78854079D01*
X67600973Y-78850314D01*
X67597580Y-78846656D01*
X67593932Y-78843082D01*
X67585947Y-78836094D01*
X67577180Y-78829168D01*
X67557946Y-78814765D01*
X67547801Y-78806922D01*
X67537520Y-78798405D01*
X67527263Y-78789032D01*
X67522194Y-78783967D01*
X67517192Y-78778620D01*
X67512277Y-78772966D01*
X67507469Y-78766984D01*
X67502788Y-78760650D01*
X67498254Y-78753941D01*
X67493888Y-78746835D01*
X67489709Y-78739308D01*
X67485739Y-78731338D01*
X67481996Y-78722901D01*
X67478501Y-78713975D01*
X67475275Y-78704537D01*
X67472338Y-78694563D01*
X67469709Y-78684032D01*
X67467303Y-78664013D01*
X67465479Y-78646242D01*
X67464145Y-78630540D01*
X67463211Y-78616726D01*
X67462184Y-78594052D01*
X67461673Y-78576787D01*
X67460955Y-78563501D01*
X67460293Y-78557901D01*
X67459308Y-78552760D01*
X67457909Y-78547896D01*
X67456007Y-78543133D01*
X67453510Y-78538290D01*
X67450329Y-78533188D01*
X67448614Y-78530415D01*
X67447017Y-78527401D01*
X67444163Y-78520736D01*
X67441733Y-78513367D01*
X67439695Y-78505466D01*
X67438013Y-78497204D01*
X67436655Y-78488756D01*
X67435587Y-78480294D01*
X67434774Y-78471989D01*
X67433781Y-78456545D01*
X67433407Y-78443803D01*
X67433431Y-78431954D01*
X67418142Y-78410373D01*
X67402314Y-78386414D01*
X67393313Y-78372022D01*
X67383952Y-78356357D01*
X67374504Y-78339671D01*
X67365244Y-78322214D01*
X67356444Y-78304238D01*
X67348379Y-78285995D01*
X67341323Y-78267737D01*
X67338259Y-78258680D01*
X67335549Y-78249713D01*
X67333228Y-78240868D01*
X67331331Y-78232176D01*
X67329890Y-78223669D01*
X67328942Y-78215378D01*
X67329527Y-78199981D01*
X67329633Y-78185568D01*
X67329273Y-78172069D01*
X67328460Y-78159416D01*
X67327208Y-78147538D01*
X67325531Y-78136367D01*
X67323441Y-78125832D01*
X67320953Y-78115866D01*
X67318080Y-78106398D01*
X67314836Y-78097359D01*
X67311234Y-78088680D01*
X67307287Y-78080292D01*
X67303009Y-78072124D01*
X67298414Y-78064109D01*
X67293514Y-78056176D01*
X67288325Y-78048256D01*
X67290697Y-78043246D01*
X67293866Y-78037318D01*
X67298536Y-78029408D01*
X67304845Y-78019738D01*
X67312926Y-78008533D01*
X67322915Y-77996017D01*
X67328668Y-77989337D01*
X67334948Y-77982413D01*
X67341773Y-77975273D01*
X67349160Y-77967946D01*
X67357125Y-77960458D01*
X67365686Y-77952838D01*
X67374859Y-77945114D01*
X67384662Y-77937314D01*
X67395111Y-77929467D01*
X67406223Y-77921599D01*
X67418015Y-77913739D01*
X67430504Y-77905915D01*
X67443707Y-77898154D01*
X67457641Y-77890486D01*
X67472323Y-77882938D01*
X67487769Y-77875537D01*
X67503997Y-77868312D01*
X67521024Y-77861291D01*
X67526971Y-77853463D01*
X67534154Y-77843845D01*
X67543923Y-77830573D01*
X67556109Y-77813757D01*
X67570548Y-77793509D01*
X67587071Y-77769939D01*
X67605513Y-77743159D01*
X67619880Y-77734085D01*
X67636344Y-77724653D01*
X67674457Y-77704859D01*
X67717646Y-77684057D01*
X67763703Y-77662531D01*
X67810422Y-77640560D01*
X67855594Y-77618426D01*
X67876911Y-77607387D01*
X67897013Y-77596412D01*
X67915625Y-77585537D01*
X67932471Y-77574797D01*
X67965444Y-77552204D01*
X68000068Y-77527774D01*
X68069420Y-77477629D01*
X68130837Y-77432815D01*
X68155541Y-77415048D01*
X68174626Y-77401784D01*
X68183303Y-77395501D01*
X68193345Y-77387479D01*
X68216822Y-77367230D01*
X68272446Y-77316967D01*
X68301788Y-77290990D01*
X68316228Y-77278672D01*
X68330281Y-77267139D01*
X68343771Y-77256641D01*
X68356523Y-77247432D01*
X68368361Y-77239764D01*
X68379111Y-77233888D01*
X68383042Y-77231766D01*
X68387314Y-77228568D01*
X68391897Y-77224363D01*
X68396761Y-77219222D01*
X68407215Y-77206414D01*
X68418439Y-77190708D01*
X68430194Y-77172666D01*
X68442244Y-77152852D01*
X68454350Y-77131830D01*
X68466277Y-77110162D01*
X68488638Y-77067144D01*
X68507429Y-77028305D01*
X68520749Y-76998151D01*
X68524764Y-76987740D01*
X68526699Y-76981190D01*
X68529898Y-76976670D01*
X68533377Y-76971181D01*
X68541426Y-76957845D01*
X68546121Y-76950275D01*
X68551347Y-76942287D01*
X68557165Y-76934021D01*
X68563639Y-76925614D01*
X68570831Y-76917204D01*
X68574716Y-76913041D01*
X68578804Y-76908930D01*
X68583103Y-76904887D01*
X68587620Y-76900930D01*
X68592364Y-76897076D01*
X68597342Y-76893343D01*
X68602562Y-76889747D01*
X68608032Y-76886305D01*
X68613759Y-76883036D01*
X68619753Y-76879957D01*
X68626019Y-76877084D01*
X68632567Y-76874435D01*
X68639403Y-76872028D01*
X68646537Y-76869879D01*
X68749187Y-76830405D01*
X68782083Y-76816582D01*
X68798611Y-76809175D01*
X68814949Y-76801459D01*
X68830913Y-76793453D01*
X68846321Y-76785175D01*
X68860991Y-76776641D01*
X68874739Y-76767870D01*
X68891042Y-76760522D01*
X68909636Y-76751183D01*
X68951856Y-76727890D01*
X68997706Y-76700714D01*
X69043497Y-76672375D01*
X69120135Y-76623098D01*
X69152242Y-76601833D01*
X69167646Y-76558542D01*
X69185514Y-76511476D01*
X69208925Y-76453730D01*
X69222421Y-76422320D01*
X69236957Y-76390002D01*
X69252415Y-76357364D01*
X69268682Y-76324992D01*
X69285641Y-76293474D01*
X69303178Y-76263397D01*
X69321175Y-76235350D01*
X69339518Y-76209919D01*
X69373039Y-76165769D01*
X69400504Y-76128323D01*
X69442113Y-76069330D01*
X69458684Y-76045675D01*
X69474050Y-76024511D01*
X69489424Y-76004782D01*
X69506018Y-75985437D01*
X69536002Y-75952674D01*
X69542219Y-75945758D01*
X69548095Y-75939026D01*
X69553716Y-75932316D01*
X69559167Y-75925465D01*
X69564534Y-75918310D01*
X69569903Y-75910689D01*
X69575360Y-75902440D01*
X69580989Y-75893398D01*
X69586876Y-75883403D01*
X69593107Y-75872291D01*
X69599768Y-75859899D01*
X69606943Y-75846065D01*
X69611139Y-75846989D01*
X69622824Y-75849966D01*
X69631052Y-75852320D01*
X69640647Y-75855302D01*
X69651438Y-75858950D01*
X69663256Y-75863302D01*
X69675934Y-75868397D01*
X69689301Y-75874274D01*
X69703189Y-75880969D01*
X69717429Y-75888522D01*
X69731851Y-75896971D01*
X69739079Y-75901544D01*
X69746288Y-75906354D01*
X69753459Y-75911408D01*
X69760570Y-75916710D01*
X69767600Y-75922264D01*
X69774528Y-75928076D01*
X69807403Y-75911760D01*
X69845270Y-75893530D01*
X69894556Y-75870510D01*
X69953110Y-75844144D01*
X70018782Y-75815876D01*
X70053615Y-75801479D01*
X70089421Y-75787148D01*
X70125931Y-75773062D01*
X70162877Y-75759404D01*
X70311783Y-75714393D01*
X70455388Y-75672927D01*
X70520518Y-75655475D01*
X70578700Y-75641252D01*
X70628059Y-75631038D01*
X70648846Y-75627678D01*
X70666723Y-75625614D01*
X70682997Y-75625955D01*
X70699904Y-75625360D01*
X70717306Y-75623894D01*
X70735065Y-75621618D01*
X70753042Y-75618595D01*
X70771101Y-75614888D01*
X70789103Y-75610560D01*
X70806909Y-75605673D01*
X70824383Y-75600290D01*
X70841385Y-75594474D01*
X70857778Y-75588287D01*
X70873424Y-75581793D01*
X70888185Y-75575053D01*
X70901923Y-75568131D01*
X70914499Y-75561089D01*
X70925776Y-75553990D01*
X70945817Y-75558121D01*
G36*
X70945817Y-75558121D02*
G01*
X70968549Y-75563044D01*
X70997693Y-75569658D01*
X71031704Y-75577801D01*
X71069034Y-75587313D01*
X71108138Y-75598033D01*
X71127872Y-75603796D01*
X71147469Y-75609801D01*
X71230136Y-75637135D01*
X71343333Y-75672759D01*
X71465374Y-75710119D01*
X71574574Y-75742661D01*
X71629438Y-75760117D01*
X71695422Y-75783067D01*
X71842384Y-75836655D01*
X71978727Y-75885840D01*
X72031439Y-75903287D01*
X72051922Y-75909262D01*
X72067723Y-75913038D01*
X72119653Y-75923858D01*
X72142167Y-75929109D01*
X72163016Y-75934428D01*
X72182677Y-75939944D01*
X72201627Y-75945787D01*
X72220343Y-75952085D01*
X72239303Y-75958970D01*
X72279862Y-75975016D01*
X72327120Y-75994962D01*
X72457000Y-76050704D01*
X72484412Y-76062207D01*
X72548791Y-76090151D01*
X72586475Y-76107210D01*
X72623357Y-76124687D01*
X72640452Y-76133197D01*
X72656091Y-76141350D01*
X72669855Y-76148992D01*
X72681328Y-76155969D01*
X72741659Y-76195578D01*
X72783648Y-76222374D01*
X72830972Y-76251223D01*
X72856038Y-76265807D01*
X72881721Y-76280171D01*
X72907783Y-76294071D01*
X72933985Y-76307262D01*
X72960087Y-76319500D01*
X72985853Y-76330540D01*
X73011041Y-76340138D01*
X73035415Y-76348050D01*
X73142172Y-76378397D01*
X73254244Y-76410941D01*
X73372515Y-76446998D01*
X73434251Y-76466756D01*
X73497868Y-76487886D01*
X73972567Y-76752522D01*
X74024669Y-76771740D01*
X74072567Y-76788974D01*
X74121239Y-76806162D01*
X74119164Y-76810519D01*
X74112970Y-76821969D01*
X74108344Y-76829594D01*
X74102705Y-76838079D01*
X74096060Y-76847121D01*
X74088414Y-76856415D01*
X74084218Y-76861062D01*
X74079775Y-76865658D01*
X74075084Y-76870165D01*
X74070146Y-76874545D01*
X74064963Y-76878760D01*
X74059535Y-76882772D01*
X74053863Y-76886543D01*
X74047948Y-76890036D01*
X74041789Y-76893211D01*
X74035389Y-76896031D01*
X74028747Y-76898457D01*
X74021865Y-76900453D01*
X74014743Y-76901980D01*
X74007382Y-76903000D01*
X73999783Y-76903474D01*
X73991946Y-76903365D01*
X73993340Y-76907945D01*
X73997739Y-76920579D01*
X74001168Y-76929397D01*
X74005471Y-76939608D01*
X74010689Y-76951003D01*
X74016863Y-76963375D01*
X74024034Y-76976517D01*
X74032243Y-76990222D01*
X74041530Y-77004281D01*
X74046592Y-77011380D01*
X74051938Y-77018489D01*
X74057574Y-77025584D01*
X74063505Y-77032638D01*
X74069737Y-77039626D01*
X74076275Y-77046520D01*
X74083123Y-77053297D01*
X74090286Y-77059929D01*
X74097771Y-77066391D01*
X74105581Y-77072657D01*
X74138063Y-77097407D01*
X74171793Y-77122400D01*
X74206909Y-77147664D01*
X74243547Y-77173225D01*
X74281843Y-77199113D01*
X74321933Y-77225353D01*
X74363955Y-77251973D01*
X74408044Y-77279002D01*
X74455722Y-77308817D01*
X74506920Y-77342625D01*
X74559396Y-77378695D01*
X74610908Y-77415292D01*
X74659211Y-77450686D01*
X74702063Y-77483143D01*
X74737221Y-77510931D01*
X74762443Y-77532319D01*
X74759540Y-77535526D01*
X74751105Y-77544244D01*
X74744941Y-77550246D01*
X74737548Y-77557119D01*
X74728976Y-77564693D01*
X74719278Y-77572800D01*
X74708503Y-77581268D01*
X74696704Y-77589931D01*
X74683931Y-77598618D01*
X74677196Y-77602918D01*
X74670236Y-77607160D01*
X74663058Y-77611324D01*
X74655670Y-77615389D01*
X74648076Y-77619332D01*
X74640283Y-77623134D01*
X74632299Y-77626773D01*
X74624129Y-77630227D01*
X74615779Y-77633476D01*
X74607256Y-77636499D01*
X74606991Y-77636600D01*
X74606352Y-77636968D01*
X74605964Y-77637283D01*
X74605569Y-77637702D01*
X74605196Y-77638238D01*
X74604874Y-77638903D01*
X74604632Y-77639709D01*
X74604499Y-77640669D01*
X74604504Y-77641795D01*
X74604675Y-77643100D01*
X74605043Y-77644595D01*
X74605635Y-77646294D01*
X74606481Y-77648209D01*
X74607609Y-77650351D01*
X74609049Y-77652735D01*
X74610829Y-77655371D01*
X74612979Y-77658273D01*
X74615527Y-77661453D01*
X74618503Y-77664922D01*
X74621934Y-77668695D01*
X74625851Y-77672782D01*
X74630283Y-77677197D01*
X74635257Y-77681952D01*
X74640803Y-77687059D01*
X74646951Y-77692531D01*
X74653728Y-77698380D01*
X74661165Y-77704619D01*
X74669289Y-77711259D01*
X74678130Y-77718314D01*
X74687717Y-77725795D01*
X75139008Y-78047171D01*
X75159773Y-78061119D01*
X75181219Y-78076438D01*
X75225546Y-78110281D01*
X75270766Y-78146882D01*
X75315659Y-78184423D01*
X75399574Y-78255051D01*
X75436152Y-78284502D01*
X75452562Y-78296967D01*
X75467515Y-78307621D01*
X75503303Y-78335002D01*
X75532279Y-78356878D01*
X75556492Y-78375232D01*
X75577993Y-78392046D01*
X75598833Y-78409305D01*
X75609646Y-78418721D01*
X75621062Y-78428991D01*
X75646731Y-78453088D01*
X75677890Y-78483578D01*
X75693866Y-78497516D01*
X75706555Y-78509457D01*
X75711763Y-78514726D01*
X75716267Y-78519553D01*
X75720105Y-78523957D01*
X75723315Y-78527956D01*
X75725937Y-78531569D01*
X75728010Y-78534816D01*
X75729572Y-78537715D01*
X75730662Y-78540285D01*
X75731320Y-78542546D01*
X75731585Y-78544515D01*
X75731494Y-78546213D01*
X75731088Y-78547657D01*
X75730405Y-78548868D01*
X75729483Y-78549863D01*
X75728363Y-78550662D01*
X75727082Y-78551283D01*
X75724197Y-78552069D01*
X75721137Y-78552373D01*
X75718216Y-78552346D01*
X75715743Y-78552139D01*
X75713392Y-78551792D01*
X75704348Y-78552120D01*
X75693288Y-78552364D01*
X75678087Y-78552513D01*
X75658909Y-78552455D01*
X75635915Y-78552080D01*
X75609270Y-78551276D01*
X75594629Y-78550678D01*
X75579136Y-78549931D01*
X75566073Y-78547778D01*
X75553453Y-78546467D01*
X75541331Y-78545901D01*
X75529763Y-78545982D01*
X75518803Y-78546614D01*
X75508507Y-78547699D01*
X75498930Y-78549141D01*
X75490127Y-78550843D01*
X75482153Y-78552708D01*
X75475063Y-78554639D01*
X75463757Y-78558311D01*
X75454183Y-78562178D01*
X75453377Y-78564219D01*
X75452571Y-78566701D01*
X75451676Y-78570098D01*
X75450825Y-78574365D01*
X75450154Y-78579455D01*
X75449928Y-78582296D01*
X75449796Y-78585325D01*
X75449777Y-78588538D01*
X75449887Y-78591928D01*
X75450142Y-78595491D01*
X75450560Y-78599220D01*
X75451156Y-78603110D01*
X75451949Y-78607155D01*
X75452955Y-78611349D01*
X75454190Y-78615688D01*
X75455671Y-78620164D01*
X75457416Y-78624773D01*
X75459440Y-78629509D01*
X75461762Y-78634366D01*
X75464396Y-78639339D01*
X75467362Y-78644422D01*
X75470674Y-78649609D01*
X75474350Y-78654894D01*
X75478407Y-78660273D01*
X75482862Y-78665738D01*
X75492210Y-78677469D01*
X75501728Y-78690614D01*
X75521937Y-78721065D01*
X75544815Y-78756920D01*
X75571687Y-78798010D01*
X75587035Y-78820465D01*
X75603879Y-78844163D01*
X75622384Y-78869086D01*
X75642717Y-78895210D01*
X75665043Y-78922514D01*
X75689528Y-78950978D01*
X75716337Y-78980580D01*
X75745637Y-79011298D01*
X75760864Y-79025912D01*
X75775572Y-79040693D01*
X75789852Y-79055643D01*
X75803793Y-79070761D01*
X75831017Y-79101496D01*
X75857967Y-79132898D01*
X75885360Y-79164960D01*
X75913918Y-79197681D01*
X75944360Y-79231056D01*
X75960513Y-79247987D01*
X75977407Y-79265081D01*
X75992507Y-79282363D01*
X76007588Y-79300574D01*
X76037371Y-79338857D01*
X76066113Y-79378084D01*
X76093169Y-79416406D01*
X76139648Y-79482939D01*
X76157783Y-79507454D01*
X76165293Y-79516715D01*
X76171657Y-79523670D01*
X76049340Y-79585372D01*
X76047170Y-79658391D01*
X76054877Y-79666656D01*
X76062909Y-79674736D01*
X76071260Y-79682663D01*
X76079922Y-79690473D01*
X76088889Y-79698199D01*
X76098153Y-79705877D01*
X76117545Y-79721223D01*
X76205609Y-79787531D01*
X76227121Y-79799316D01*
X76262796Y-79815068D01*
X76373580Y-79856864D01*
X76531846Y-79909710D01*
X76731484Y-79970396D01*
X76966378Y-80035712D01*
X77095137Y-80069104D01*
X77230418Y-80102449D01*
X77371457Y-80135348D01*
X77517490Y-80167398D01*
X77667752Y-80198198D01*
X77821480Y-80227348D01*
X78069549Y-80271845D01*
X78296749Y-80308690D01*
X78504943Y-80338715D01*
X78695995Y-80362754D01*
X79034130Y-80396203D01*
X79326065Y-80415696D01*
X79830974Y-80439459D01*
X80073771Y-80457051D01*
X80330009Y-80487332D01*
X80461413Y-80508513D01*
X80588034Y-80533131D01*
X80710380Y-80561070D01*
X80828956Y-80592216D01*
X80944270Y-80626452D01*
X81056830Y-80663663D01*
X81167142Y-80703734D01*
X81275713Y-80746548D01*
X81383050Y-80791990D01*
X81489661Y-80839944D01*
X81702730Y-80942928D01*
X81918976Y-81054574D01*
X82142456Y-81173957D01*
X82165040Y-81185419D01*
X82186786Y-81196966D01*
X82227921Y-81220207D01*
X82266190Y-81243457D01*
X82301920Y-81266494D01*
X82335438Y-81289098D01*
X82367073Y-81311045D01*
X82426004Y-81352086D01*
X82523207Y-81394745D01*
X82619884Y-81438602D01*
X82715734Y-81483739D01*
X82810454Y-81530235D01*
X82903744Y-81578172D01*
X82995300Y-81627632D01*
X83084821Y-81678694D01*
X83172005Y-81731441D01*
X83330737Y-81840175D01*
X83499083Y-81970656D01*
X83674970Y-82119374D01*
X83856325Y-82282819D01*
X84041074Y-82457478D01*
X84227144Y-82639843D01*
X84594955Y-83013642D01*
X85255211Y-83699220D01*
X85514485Y-83954827D01*
X85619152Y-84048547D01*
X85704409Y-84114863D01*
X85775469Y-84163302D01*
X85843554Y-84206795D01*
X85908963Y-84245634D01*
X85972000Y-84280112D01*
X86032964Y-84310521D01*
X86092158Y-84337156D01*
X86149883Y-84360307D01*
X86206440Y-84380269D01*
X86262132Y-84397334D01*
X86317258Y-84411795D01*
X86372121Y-84423944D01*
X86427021Y-84434075D01*
X86482261Y-84442480D01*
X86538142Y-84449452D01*
X86653032Y-84460269D01*
X86710113Y-84462032D01*
X86762957Y-84462536D01*
X86811642Y-84461937D01*
X86856244Y-84460395D01*
X86933502Y-84455112D01*
X86995343Y-84447953D01*
X87042378Y-84440182D01*
X87075218Y-84433064D01*
X87100757Y-84425852D01*
X87140199Y-84375984D01*
X87184894Y-84322867D01*
X87212143Y-84291951D01*
X87242146Y-84259153D01*
X87274521Y-84225243D01*
X87308884Y-84190988D01*
X87344850Y-84157156D01*
X87382036Y-84124515D01*
X87420059Y-84093833D01*
X87439263Y-84079467D01*
X87458533Y-84065879D01*
X87477820Y-84053165D01*
X87497076Y-84041420D01*
X87516254Y-84030742D01*
X87535304Y-84021225D01*
X87589866Y-83997266D01*
X87651142Y-83974393D01*
X87717719Y-83952670D01*
X87788185Y-83932159D01*
X87935136Y-83895029D01*
X88080700Y-83863511D01*
X88213581Y-83838113D01*
X88322482Y-83819344D01*
X88423158Y-83803719D01*
X88423493Y-83821369D01*
X88422058Y-83870682D01*
X88419531Y-83905506D01*
X88415187Y-83946199D01*
X88408569Y-83992079D01*
X88399218Y-84042464D01*
X88386677Y-84096671D01*
X88370487Y-84154019D01*
X88360880Y-84183657D01*
X88350190Y-84213824D01*
X88338359Y-84244435D01*
X88325329Y-84275406D01*
X88311043Y-84306649D01*
X88295445Y-84338081D01*
X88278477Y-84369615D01*
X88260081Y-84401167D01*
X88240201Y-84432651D01*
X88218779Y-84463983D01*
X88195757Y-84495076D01*
X88171080Y-84525846D01*
X88139451Y-84560734D01*
X88107114Y-84592789D01*
X88074144Y-84622132D01*
X88040616Y-84648882D01*
X88006606Y-84673161D01*
X87972187Y-84695087D01*
X87937435Y-84714782D01*
X87902425Y-84732365D01*
X87867233Y-84747957D01*
X87831933Y-84761677D01*
X87761309Y-84783985D01*
X87691156Y-84800248D01*
X87622072Y-84811430D01*
X87179978Y-84833268D01*
X87113246Y-84843438D01*
X87037322Y-84852000D01*
X86953125Y-84858470D01*
X86861574Y-84862365D01*
X86763592Y-84863203D01*
X86660097Y-84860501D01*
X86552010Y-84853775D01*
X86440251Y-84842543D01*
X86325741Y-84826322D01*
X86209399Y-84804629D01*
X86092146Y-84776981D01*
X85974902Y-84742894D01*
X85858587Y-84701887D01*
X85744121Y-84653476D01*
X85632426Y-84597178D01*
X85577904Y-84565921D01*
X85524420Y-84532511D01*
X85429101Y-84468510D01*
X85334575Y-84401653D01*
X85240984Y-84332399D01*
X85148474Y-84261207D01*
X84967264Y-84114838D01*
X84792093Y-83966214D01*
X84174734Y-83422503D01*
X84104660Y-83367581D01*
X84029450Y-83312133D01*
X83949551Y-83256445D01*
X83865409Y-83200801D01*
X83777470Y-83145487D01*
X83686182Y-83090788D01*
X83591989Y-83036989D01*
X83495339Y-82984376D01*
X83396678Y-82933234D01*
X83296452Y-82883848D01*
X83195108Y-82836503D01*
X83093091Y-82791484D01*
X82990848Y-82749077D01*
X82888826Y-82709567D01*
X82787471Y-82673239D01*
X82687229Y-82640379D01*
X82689637Y-82677568D01*
X82692902Y-82714782D01*
X82701007Y-82788513D01*
X82709548Y-82860033D01*
X82713358Y-82894483D01*
X82716529Y-82927804D01*
X82731727Y-83026187D01*
X82753138Y-83136142D01*
X82811203Y-83382140D01*
X82883924Y-83648529D01*
X82964501Y-83918041D01*
X83046134Y-84173408D01*
X83122023Y-84397362D01*
X83185367Y-84572635D01*
X83229366Y-84681959D01*
X83277126Y-84784078D01*
X83346055Y-84920922D01*
X83428870Y-85079150D01*
X83518288Y-85245420D01*
X83607024Y-85406388D01*
X83687796Y-85548714D01*
X83753318Y-85659054D01*
X83796308Y-85724067D01*
X83812710Y-85741336D01*
X83831717Y-85759583D01*
X83853281Y-85778690D01*
X83877353Y-85798541D01*
X83903885Y-85819018D01*
X83932828Y-85840004D01*
X83964134Y-85861383D01*
X83997754Y-85883036D01*
X84033639Y-85904848D01*
X84071740Y-85926700D01*
X84112010Y-85948475D01*
X84154400Y-85970058D01*
X84198860Y-85991329D01*
X84245343Y-86012173D01*
X84293799Y-86032471D01*
X84344181Y-86052108D01*
X84649525Y-86155717D01*
X85031383Y-86278956D01*
X85495584Y-86425265D01*
X85495488Y-86559198D01*
X85497664Y-86707260D01*
X85503364Y-86892181D01*
X85514118Y-87101058D01*
X85521868Y-87210448D01*
X85531457Y-87320988D01*
X85543074Y-87431065D01*
X85556912Y-87539067D01*
X85573161Y-87643381D01*
X85592013Y-87742393D01*
X85607963Y-87827565D01*
X85629047Y-87926079D01*
X85677668Y-88132680D01*
X85738050Y-88371038D01*
X85721428Y-88382222D01*
X85676071Y-88414745D01*
X85644730Y-88438527D01*
X85608741Y-88467065D01*
X85568949Y-88500166D01*
X85526200Y-88537638D01*
X85481339Y-88579289D01*
X85435210Y-88624924D01*
X85388660Y-88674351D01*
X85342534Y-88727377D01*
X85319894Y-88755180D01*
X85297676Y-88783810D01*
X85275987Y-88813244D01*
X85254933Y-88843457D01*
X85234618Y-88874425D01*
X85215149Y-88906124D01*
X85196631Y-88938530D01*
X85179170Y-88971619D01*
X85145571Y-89014913D01*
X85107483Y-89062774D01*
X85066580Y-89111802D01*
X85045596Y-89135691D01*
X85024535Y-89158598D01*
X85003608Y-89180097D01*
X84983022Y-89199763D01*
X84962988Y-89217171D01*
X84943715Y-89231897D01*
X84925412Y-89243516D01*
X84916689Y-89248027D01*
X84908288Y-89251602D01*
X84900233Y-89254188D01*
X84892552Y-89255731D01*
X84885270Y-89256179D01*
X84878413Y-89255478D01*
X83463305Y-88977666D01*
X83462706Y-88962091D01*
X83462712Y-88944116D01*
X83463594Y-88920679D01*
X83465856Y-88892775D01*
X83470002Y-88861401D01*
X83476535Y-88827553D01*
X83485960Y-88792227D01*
X83491914Y-88774322D01*
X83498780Y-88756420D01*
X83506621Y-88738648D01*
X83515500Y-88721128D01*
X83525479Y-88703987D01*
X83536623Y-88687348D01*
X83548993Y-88671335D01*
X83562653Y-88656075D01*
X83577666Y-88641690D01*
X83594094Y-88628306D01*
X83612002Y-88616046D01*
X83631451Y-88605037D01*
X83652505Y-88595401D01*
X83675226Y-88587265D01*
X83699678Y-88580751D01*
X83725924Y-88575985D01*
X83741050Y-88572136D01*
X83755148Y-88568211D01*
X83780680Y-88560145D01*
X83803358Y-88551807D01*
X83824022Y-88543217D01*
X83903317Y-88506774D01*
X83926497Y-88497247D01*
X83952697Y-88487595D01*
X83982756Y-88477839D01*
X84017514Y-88468001D01*
X84036917Y-88463057D01*
X84057810Y-88458101D01*
X84080296Y-88453135D01*
X84104482Y-88448161D01*
X84130472Y-88443182D01*
X84158370Y-88438201D01*
X84188283Y-88433220D01*
X84220314Y-88428242D01*
X84245704Y-88424011D01*
X84269839Y-88419334D01*
X84292842Y-88414040D01*
X84314835Y-88407954D01*
X84335944Y-88400905D01*
X84356290Y-88392719D01*
X84375996Y-88383222D01*
X84395188Y-88372243D01*
X84413986Y-88359608D01*
X84432516Y-88345145D01*
X84450900Y-88328679D01*
X84469261Y-88310039D01*
X84487723Y-88289051D01*
X84506408Y-88265542D01*
X84525441Y-88239340D01*
X84544945Y-88210271D01*
X84564140Y-88178403D01*
X84582156Y-88144312D01*
X84598986Y-88108588D01*
X84614621Y-88071821D01*
X84629053Y-88034603D01*
X84642273Y-87997524D01*
X84665045Y-87926142D01*
X84682873Y-87862400D01*
X84695688Y-87811022D01*
X84706020Y-87764251D01*
X84706710Y-87751111D01*
X84707322Y-87715710D01*
X84706914Y-87691545D01*
X84705666Y-87664076D01*
X84703305Y-87634055D01*
X84699556Y-87602238D01*
X84694146Y-87569377D01*
X84686802Y-87536225D01*
X84682320Y-87519776D01*
X84677251Y-87503537D01*
X84671562Y-87487602D01*
X84665218Y-87472066D01*
X84658185Y-87457022D01*
X84650430Y-87442566D01*
X84641918Y-87428790D01*
X84632614Y-87415790D01*
X84622485Y-87403659D01*
X84611496Y-87392491D01*
X84599613Y-87382382D01*
X84586803Y-87373424D01*
X84569852Y-87362760D01*
X84551374Y-87353144D01*
X84531426Y-87344500D01*
X84510066Y-87336751D01*
X84463342Y-87323635D01*
X84411661Y-87313187D01*
X84355485Y-87304799D01*
X84295274Y-87297860D01*
X84164589Y-87285896D01*
X84023293Y-87272422D01*
X83949818Y-87263596D01*
X83875073Y-87252565D01*
X83799518Y-87238721D01*
X83723614Y-87221452D01*
X83647821Y-87200152D01*
X83610111Y-87187799D01*
X83572601Y-87174210D01*
X83457233Y-87126246D01*
X83337580Y-87073152D01*
X83090013Y-86954845D01*
X82839095Y-86825831D01*
X82594016Y-86692653D01*
X82363972Y-86561853D01*
X82158152Y-86439975D01*
X81985752Y-86333559D01*
X81855962Y-86249150D01*
X81807746Y-86212588D01*
X81756538Y-86167886D01*
X81702967Y-86116226D01*
X81647661Y-86058789D01*
X81591251Y-85996757D01*
X81534363Y-85931314D01*
X81421672Y-85794916D01*
X81314617Y-85659051D01*
X81218227Y-85533173D01*
X81077560Y-85349205D01*
X81053415Y-85320337D01*
X81029076Y-85293639D01*
X81004784Y-85269069D01*
X80980782Y-85246584D01*
X80957311Y-85226141D01*
X80934613Y-85207698D01*
X80912929Y-85191213D01*
X80892501Y-85176643D01*
X80873572Y-85163947D01*
X80856382Y-85153080D01*
X80828187Y-85136670D01*
X80803312Y-85123948D01*
X80761325Y-85151684D01*
X80636673Y-85232081D01*
X80543961Y-85290710D01*
X80431320Y-85360925D01*
X80298994Y-85442197D01*
X80147229Y-85534002D01*
X79994609Y-85624270D01*
X79866085Y-85703624D01*
X79758180Y-85772961D01*
X79667420Y-85833178D01*
X79523439Y-85929842D01*
X79463267Y-85968083D01*
X79406343Y-86000795D01*
X79377616Y-86017189D01*
X79348095Y-86035903D01*
X79318078Y-86056602D01*
X79287865Y-86078948D01*
X79257753Y-86102606D01*
X79228043Y-86127239D01*
X79199033Y-86152513D01*
X79171022Y-86178090D01*
X79144309Y-86203636D01*
X79119193Y-86228813D01*
X79095973Y-86253286D01*
X79074947Y-86276719D01*
X79056415Y-86298776D01*
X79040676Y-86319121D01*
X79028028Y-86337417D01*
X79018770Y-86353330D01*
X78988282Y-86411875D01*
X78960040Y-86475149D01*
X78934007Y-86541978D01*
X78910142Y-86611188D01*
X78888409Y-86681606D01*
X78868767Y-86752059D01*
X78835607Y-86888371D01*
X78810353Y-87010736D01*
X78792696Y-87109765D01*
X78778941Y-87200254D01*
X78680899Y-87216210D01*
X78575742Y-87235266D01*
X78448623Y-87260916D01*
X78311140Y-87292569D01*
X78242137Y-87310460D01*
X78174891Y-87329630D01*
X78110852Y-87350003D01*
X78051471Y-87371507D01*
X77998197Y-87394066D01*
X77952479Y-87417608D01*
X77932016Y-87429001D01*
X77911675Y-87441331D01*
X77871492Y-87468460D01*
X77832208Y-87498312D01*
X77794099Y-87530207D01*
X77757444Y-87563464D01*
X77722520Y-87597401D01*
X77689605Y-87631339D01*
X77658976Y-87664595D01*
X77605688Y-87726339D01*
X77564875Y-87777188D01*
X77529560Y-87824404D01*
X75807959Y-87486284D01*
X75805983Y-87464508D01*
X75805033Y-87443776D01*
X75805054Y-87424060D01*
X75805991Y-87405330D01*
X75807790Y-87387559D01*
X75810395Y-87370717D01*
X75813752Y-87354776D01*
X75817805Y-87339707D01*
X75822500Y-87325481D01*
X75827782Y-87312070D01*
X75833596Y-87299445D01*
X75839886Y-87287577D01*
X75846599Y-87276437D01*
X75853679Y-87265998D01*
X75861071Y-87256230D01*
X75868720Y-87247104D01*
X75884571Y-87230666D01*
X75900791Y-87216453D01*
X75916942Y-87204236D01*
X75932585Y-87193787D01*
X75981282Y-87165064D01*
X75997173Y-87153724D01*
X76013194Y-87141175D01*
X76046167Y-87113343D01*
X76081284Y-87083356D01*
X76099986Y-87068113D01*
X76119631Y-87053002D01*
X76140354Y-87038246D01*
X76162291Y-87024069D01*
X76173757Y-87017268D01*
X76185577Y-87010695D01*
X76197769Y-87004378D01*
X76210349Y-86998346D01*
X76223334Y-86992626D01*
X76236741Y-86987246D01*
X76250587Y-86982235D01*
X76264889Y-86977620D01*
X76279664Y-86973429D01*
X76294929Y-86969690D01*
X76310701Y-86966431D01*
X76326996Y-86963680D01*
X76437854Y-86947578D01*
X76534545Y-86935095D01*
X76618357Y-86925713D01*
X76690575Y-86918914D01*
X76805373Y-86910990D01*
X76889224Y-86907175D01*
X76952416Y-86903320D01*
X76979480Y-86900082D01*
X77005236Y-86895279D01*
X77030970Y-86888392D01*
X77057969Y-86878903D01*
X77087518Y-86866293D01*
X77120903Y-86850045D01*
X77412030Y-86708262D01*
X77491828Y-86666307D01*
X77529479Y-86645085D01*
X77564831Y-86623877D01*
X77597285Y-86602816D01*
X77626241Y-86582035D01*
X77651098Y-86561668D01*
X77671256Y-86541846D01*
X77690306Y-86517724D01*
X77711982Y-86484806D01*
X77735905Y-86443753D01*
X77761691Y-86395227D01*
X77788961Y-86339887D01*
X77817332Y-86278395D01*
X77846424Y-86211411D01*
X77875855Y-86139596D01*
X77905243Y-86063611D01*
X77934208Y-85984116D01*
X77962368Y-85901771D01*
X77989341Y-85817239D01*
X78014746Y-85731178D01*
X78038203Y-85644251D01*
X78059329Y-85557118D01*
X78077743Y-85470439D01*
X78098891Y-85365662D01*
X78120542Y-85264143D01*
X78142535Y-85166710D01*
X78164708Y-85074193D01*
X78186902Y-84987420D01*
X78208955Y-84907221D01*
X78230706Y-84834425D01*
X78251996Y-84769861D01*
X78042040Y-84695109D01*
X77809919Y-84617000D01*
X77560242Y-84542038D01*
X77430259Y-84507771D01*
X77297616Y-84476730D01*
X77162887Y-84449729D01*
X77026650Y-84427580D01*
X76889479Y-84411098D01*
X76751952Y-84401094D01*
X76614644Y-84398382D01*
X76478131Y-84403775D01*
X76342989Y-84418087D01*
X76209795Y-84442130D01*
X76066267Y-84474408D01*
X75859827Y-84517288D01*
X75738733Y-84540959D01*
X75608772Y-84565184D01*
X75472232Y-84589266D01*
X75331399Y-84612507D01*
X75321353Y-84629342D01*
X75311444Y-84647103D01*
X75301702Y-84665831D01*
X75292155Y-84685568D01*
X75282831Y-84706355D01*
X75273758Y-84728233D01*
X75264965Y-84751242D01*
X75256478Y-84775425D01*
X75248328Y-84800822D01*
X75240541Y-84827474D01*
X75233146Y-84855422D01*
X75226171Y-84884708D01*
X75219644Y-84915373D01*
X75213594Y-84947457D01*
X75208048Y-84981002D01*
X75203036Y-85016049D01*
X75197972Y-85060134D01*
X75195203Y-85105188D01*
X75195989Y-85197581D01*
X75204274Y-85291984D01*
X75218939Y-85387156D01*
X75238864Y-85481853D01*
X75262930Y-85574834D01*
X75290016Y-85664857D01*
X75319005Y-85750677D01*
X75378209Y-85904746D01*
X75431585Y-86027100D01*
X75485034Y-86136911D01*
X75431303Y-86219548D01*
X75306573Y-86406497D01*
X75234675Y-86510514D01*
X75165537Y-86606319D01*
X75134139Y-86647570D01*
X75105996Y-86682482D01*
X75081961Y-86709626D01*
X75062889Y-86727572D01*
X75046884Y-86741481D01*
X75027368Y-86756548D01*
X75004804Y-86772704D01*
X74979654Y-86789877D01*
X74862442Y-86867329D01*
X74800343Y-86910320D01*
X74770038Y-86932635D01*
X74740847Y-86955401D01*
X74713232Y-86978548D01*
X74687654Y-87002006D01*
X74664577Y-87025702D01*
X74644463Y-87049568D01*
X74601457Y-87111740D01*
X74557138Y-87174810D01*
X74508503Y-87243353D01*
X93111708Y-90859411D01*
X93131397Y-92183207D01*
X82803966Y-90175732D01*
X82913727Y-96764478D01*
X81495208Y-96488836D01*
X81359559Y-89894974D01*
X56683703Y-85098524D01*
X56665561Y-83775038D01*
X74499821Y-87241648D01*
X73022703Y-86951432D01*
X73020765Y-86939240D01*
X73019076Y-86925057D01*
X73017561Y-86906426D01*
X73016709Y-86884050D01*
X73017009Y-86858637D01*
X73018951Y-86830892D01*
X73023023Y-86801520D01*
X73026012Y-86786445D01*
X73029717Y-86771228D01*
X73034199Y-86755957D01*
X73039520Y-86740721D01*
X73045741Y-86725608D01*
X73052923Y-86710705D01*
X73061128Y-86696102D01*
X73070416Y-86681887D01*
X73080848Y-86668147D01*
X73092486Y-86654970D01*
X73105392Y-86642447D01*
X73119625Y-86630663D01*
X73135248Y-86619708D01*
X73152322Y-86609670D01*
X73170907Y-86600637D01*
X73191066Y-86592697D01*
X73208388Y-86586362D01*
X73225919Y-86579062D01*
X73243649Y-86570937D01*
X73261568Y-86562130D01*
X73297932Y-86543038D01*
X73334929Y-86522918D01*
X73372479Y-86502908D01*
X73391436Y-86493298D01*
X73410501Y-86484140D01*
X73429663Y-86475578D01*
X73448913Y-86467751D01*
X73468240Y-86460803D01*
X73487635Y-86454876D01*
X73560591Y-86437661D01*
X73625436Y-86424199D01*
X73682940Y-86413961D01*
X73733869Y-86406415D01*
X73778992Y-86401029D01*
X73819077Y-86397274D01*
X73887204Y-86392529D01*
X73944394Y-86387933D01*
X73970808Y-86384363D01*
X73996791Y-86379237D01*
X74023113Y-86372024D01*
X74050540Y-86362194D01*
X74079841Y-86349215D01*
X74111784Y-86332557D01*
X74121946Y-86327033D01*
X74132123Y-86320315D01*
X74142292Y-86312492D01*
X74152432Y-86303654D01*
X74172535Y-86283291D01*
X74192255Y-86259946D01*
X74211415Y-86234338D01*
X74229837Y-86207186D01*
X74247345Y-86179207D01*
X74263761Y-86151122D01*
X74292612Y-86097507D01*
X74314973Y-86052090D01*
X74334562Y-86008856D01*
X74244992Y-85879328D01*
X74040816Y-85579190D01*
X73926001Y-85406600D01*
X73818833Y-85241109D01*
X73731414Y-85099299D01*
X73698891Y-85042457D01*
X73675842Y-84997754D01*
X73534334Y-84720401D01*
X73509449Y-84670701D01*
X73487258Y-84624833D01*
X73467008Y-84580784D01*
X73447949Y-84536541D01*
X73256904Y-84478422D01*
X73068858Y-84416730D01*
X72888152Y-84352747D01*
X72719126Y-84287758D01*
X72566120Y-84223045D01*
X72433474Y-84159891D01*
X72376143Y-84129300D01*
X72325530Y-84099580D01*
X72282176Y-84070892D01*
X72246626Y-84043395D01*
X72236601Y-84036696D01*
X72226884Y-84029809D01*
X72217450Y-84022764D01*
X72208275Y-84015591D01*
X72190605Y-84000989D01*
X72173681Y-83986248D01*
X72141299Y-83957340D01*
X72125453Y-83943667D01*
X72117533Y-83937133D01*
X72109581Y-83930842D01*
X72085395Y-83939844D01*
X72062196Y-83948896D01*
X72018326Y-83966487D01*
X71997437Y-83974699D01*
X71977101Y-83982302D01*
X71957210Y-83989132D01*
X71937654Y-83995025D01*
X71875696Y-84016390D01*
X71804584Y-84038523D01*
X71640235Y-84084920D01*
X71260446Y-84185048D01*
X71066379Y-84238096D01*
X70883778Y-84292678D01*
X70800117Y-84320437D01*
X70723329Y-84348452D01*
X70654752Y-84376679D01*
X70595720Y-84405076D01*
X70540058Y-84437669D01*
X70481315Y-84477639D01*
X70420412Y-84523678D01*
X70358269Y-84574477D01*
X70295807Y-84628730D01*
X70233946Y-84685128D01*
X70115711Y-84799125D01*
X70010930Y-84906005D01*
X69926967Y-84995304D01*
X69850959Y-85079300D01*
X69749126Y-85098910D01*
X69640931Y-85122653D01*
X69511527Y-85155003D01*
X69442850Y-85174245D01*
X69373644Y-85195447D01*
X69305501Y-85218545D01*
X69240013Y-85243473D01*
X69178771Y-85270168D01*
X69123366Y-85298566D01*
X69098350Y-85313384D01*
X69075390Y-85328603D01*
X69054686Y-85344215D01*
X69036435Y-85360214D01*
X69023907Y-85370449D01*
X69008914Y-85380311D01*
X68972285Y-85398924D01*
X68928048Y-85416079D01*
X68877706Y-85431803D01*
X68822761Y-85446121D01*
X68764714Y-85459058D01*
X68645324Y-85480895D01*
X68531549Y-85497520D01*
X68435406Y-85509140D01*
X68344074Y-85518188D01*
X68336489Y-85517105D01*
X68327180Y-85516242D01*
X68314347Y-85515602D01*
X68298105Y-85515512D01*
X68278570Y-85516301D01*
X68255855Y-85518294D01*
X68230076Y-85521821D01*
X68216074Y-85524262D01*
X68201349Y-85527208D01*
X68185915Y-85530702D01*
X68169788Y-85534784D01*
X68152981Y-85539495D01*
X68135508Y-85544876D01*
X68117385Y-85550967D01*
X68098625Y-85557810D01*
X68079242Y-85565446D01*
X68059253Y-85573916D01*
X68038669Y-85583261D01*
X68017507Y-85593521D01*
X67995780Y-85604737D01*
X67973503Y-85616951D01*
X67950690Y-85630204D01*
X67927356Y-85644535D01*
X67767272Y-85739593D01*
X67736551Y-85756889D01*
X67708390Y-85771835D01*
X67682210Y-85784551D01*
X67657432Y-85795157D01*
X67633475Y-85803772D01*
X67609761Y-85810514D01*
X67585708Y-85815503D01*
X67560739Y-85818858D01*
X67534273Y-85820699D01*
X67505731Y-85821144D01*
X67474532Y-85820313D01*
X67440098Y-85818325D01*
X67295196Y-85801980D01*
X67137596Y-85780132D01*
X66823778Y-85729400D01*
X66477987Y-85666085D01*
X66474657Y-85648323D01*
X66468408Y-85600846D01*
X66465942Y-85568686D01*
X66464849Y-85532364D01*
X66465830Y-85492968D01*
X66469588Y-85451588D01*
X66472727Y-85430493D01*
X66476822Y-85409311D01*
X66481962Y-85388177D01*
X66488234Y-85367228D01*
X66495727Y-85346599D01*
X66504526Y-85326427D01*
X66514720Y-85306847D01*
X66526398Y-85287996D01*
X66539645Y-85270010D01*
X66554551Y-85253025D01*
X66571202Y-85237177D01*
X66589687Y-85222603D01*
X66610092Y-85209438D01*
X66632506Y-85197818D01*
X66657016Y-85187880D01*
X66683710Y-85179759D01*
X66710069Y-85172373D01*
X66733689Y-85164561D01*
X66754827Y-85156342D01*
X66773743Y-85147737D01*
X66790694Y-85138763D01*
X66805940Y-85129441D01*
X66819739Y-85119791D01*
X66832350Y-85109830D01*
X66844031Y-85099580D01*
X66855040Y-85089058D01*
X66876081Y-85067281D01*
X66897539Y-85044652D01*
X66921484Y-85021328D01*
X66935035Y-85009454D01*
X66949984Y-84997464D01*
X66966588Y-84985377D01*
X66985108Y-84973214D01*
X67005800Y-84960993D01*
X67028924Y-84948734D01*
X67054739Y-84936456D01*
X67083502Y-84924178D01*
X67115473Y-84911921D01*
X67150909Y-84899703D01*
X67190071Y-84887543D01*
X67233215Y-84875462D01*
X67280601Y-84863478D01*
X67332488Y-84851612D01*
X67389133Y-84839881D01*
X67450796Y-84828306D01*
X67795586Y-84772053D01*
X67883642Y-84755846D01*
X67964538Y-84738088D01*
X68001067Y-84728519D01*
X68034325Y-84718432D01*
X68063818Y-84707785D01*
X68089052Y-84696532D01*
X68118583Y-84678219D01*
X68160373Y-84647369D01*
X68275151Y-84553784D01*
X68422240Y-84427222D01*
X68590494Y-84279127D01*
X68945912Y-83964119D01*
X69110784Y-83820094D01*
X69252236Y-83700315D01*
X69393091Y-83585147D01*
X69556788Y-83446470D01*
X69901392Y-83146503D01*
X70300233Y-82791533D01*
X70487818Y-82522246D01*
X70508282Y-82293580D01*
X70425342Y-82154827D01*
X70295892Y-81941051D01*
X70264564Y-81886010D01*
X70250216Y-81859368D01*
X70237027Y-81833582D01*
X70225208Y-81808856D01*
X70214971Y-81785393D01*
X70206525Y-81763396D01*
X70200084Y-81743068D01*
X70188660Y-81704468D01*
X70178468Y-81675298D01*
X70173794Y-81663883D01*
X70169380Y-81654385D01*
X70165209Y-81646659D01*
X70161267Y-81640556D01*
X70157537Y-81635931D01*
X70154002Y-81632636D01*
X70150648Y-81630525D01*
X70147457Y-81629451D01*
X70144415Y-81629268D01*
X70141504Y-81629828D01*
X70136014Y-81632593D01*
X70125914Y-81640592D01*
X70121047Y-81643478D01*
X70118603Y-81644129D01*
X70116131Y-81644057D01*
X70113615Y-81643114D01*
X70111039Y-81641154D01*
X70108387Y-81638031D01*
X70105643Y-81633597D01*
X70102791Y-81627706D01*
X70099814Y-81620211D01*
X70093425Y-81599823D01*
X70090339Y-81589997D01*
X70086480Y-81579962D01*
X70081892Y-81569738D01*
X70076616Y-81559347D01*
X70064174Y-81538154D01*
X70049497Y-81516557D01*
X70032928Y-81494731D01*
X70014808Y-81472852D01*
X69995480Y-81451094D01*
X69975287Y-81429633D01*
X69954571Y-81408643D01*
X69933674Y-81388299D01*
X69892708Y-81350250D01*
X69855128Y-81316887D01*
X69823674Y-81289609D01*
X69811838Y-81277011D01*
X69799504Y-81262378D01*
X69786848Y-81246102D01*
X69774042Y-81228578D01*
X69748678Y-81191354D01*
X69724805Y-81153849D01*
X69703815Y-81119206D01*
X69687099Y-81090569D01*
X69672056Y-81063887D01*
X69668724Y-81077964D01*
X69664221Y-81093987D01*
X69661161Y-81103786D01*
X69657526Y-81114603D01*
X69653285Y-81126305D01*
X69648412Y-81138762D01*
X69642878Y-81151843D01*
X69636655Y-81165416D01*
X69629714Y-81179351D01*
X69622028Y-81193517D01*
X69617897Y-81200646D01*
X69613568Y-81207783D01*
X69609039Y-81214912D01*
X69604307Y-81222017D01*
X69602048Y-81219254D01*
X69595567Y-81210928D01*
X69590881Y-81204661D01*
X69585307Y-81196982D01*
X69578898Y-81187883D01*
X69571711Y-81177358D01*
X69563801Y-81165399D01*
X69555224Y-81151999D01*
X69546034Y-81137151D01*
X69536287Y-81120848D01*
X69526039Y-81103083D01*
X69515345Y-81083848D01*
X69504261Y-81063137D01*
X69492841Y-81040941D01*
X69482250Y-81019293D01*
X69473421Y-80999999D01*
X69466064Y-80982714D01*
X69459885Y-80967095D01*
X69449903Y-80939476D01*
X69441146Y-80914393D01*
X69436498Y-80901941D01*
X69431283Y-80889092D01*
X69425209Y-80875500D01*
X69417984Y-80860822D01*
X69409319Y-80844714D01*
X69398921Y-80826831D01*
X69386499Y-80806831D01*
X69371763Y-80784368D01*
X69354339Y-80759033D01*
X69338392Y-80731673D01*
X69323801Y-80702534D01*
X69310445Y-80671862D01*
X69298206Y-80639902D01*
X69286961Y-80606900D01*
X69276592Y-80573101D01*
X69266976Y-80538750D01*
X69202781Y-80273547D01*
X69186676Y-80223768D01*
X69172224Y-80181637D01*
X69159286Y-80146410D01*
X69147720Y-80117338D01*
X69137389Y-80093675D01*
X69128151Y-80074674D01*
X69119867Y-80059588D01*
X69112398Y-80047670D01*
X69102794Y-80064339D01*
X69077795Y-80106680D01*
X69061310Y-80133885D01*
X69043123Y-80163196D01*
X69023947Y-80193176D01*
X69004499Y-80222388D01*
X68995286Y-80207953D01*
X68985390Y-80191518D01*
X68979592Y-80181465D01*
X68973408Y-80170368D01*
X68966972Y-80158361D01*
X68960419Y-80145576D01*
X68953884Y-80132150D01*
X68947503Y-80118214D01*
X68941410Y-80103905D01*
X68935740Y-80089355D01*
X68930628Y-80074700D01*
X68928324Y-80067374D01*
X68926210Y-80060072D01*
X68918965Y-80001429D01*
X68914907Y-79970657D01*
X68910154Y-79939030D01*
X68904404Y-79906633D01*
X68897356Y-79873551D01*
X68893249Y-79856779D01*
X68888705Y-79839868D01*
X68883684Y-79822827D01*
X68878149Y-79805668D01*
X68867129Y-79770950D01*
X68856974Y-79736261D01*
X68847213Y-79702513D01*
X68837379Y-79670618D01*
X68832288Y-79655650D01*
X68827002Y-79641486D01*
X68821463Y-79628242D01*
X68815613Y-79616031D01*
X68809392Y-79604966D01*
X68802743Y-79595161D01*
X68795605Y-79586732D01*
X68787922Y-79579791D01*
X68779611Y-79573158D01*
X68770623Y-79565672D01*
X68750576Y-79548713D01*
X68739498Y-79539522D01*
X68727704Y-79530045D01*
X68715184Y-79520426D01*
X68701929Y-79510806D01*
X68687929Y-79501325D01*
X68673173Y-79492127D01*
X68657653Y-79483353D01*
X68649604Y-79479170D01*
X68641359Y-79475145D01*
X68632919Y-79471298D01*
X68624281Y-79467645D01*
X68615445Y-79464204D01*
X68606409Y-79460993D01*
X68597172Y-79458031D01*
X68587734Y-79455333D01*
X68578092Y-79452919D01*
X68568245Y-79450806D01*
X68554500Y-79448525D01*
X68539863Y-79446859D01*
X68524434Y-79445756D01*
X68508313Y-79445164D01*
X68491600Y-79445031D01*
X68474395Y-79445303D01*
X68438908Y-79446859D01*
X68402651Y-79449411D01*
X68366424Y-79452542D01*
X68297254Y-79458868D01*
X68288185Y-79459174D01*
X68279521Y-79459167D01*
X68271239Y-79458881D01*
X68263316Y-79458349D01*
X68248461Y-79456682D01*
X68234777Y-79454438D01*
X68210208Y-79449295D01*
X68198967Y-79446937D01*
X68188183Y-79445082D01*
X68177677Y-79443999D01*
X68172474Y-79443831D01*
X68167273Y-79443958D01*
X68162052Y-79444413D01*
X68156790Y-79445230D01*
X68151463Y-79446442D01*
X68146050Y-79448084D01*
X68140528Y-79450189D01*
X68134876Y-79452791D01*
X68129069Y-79455923D01*
X68123088Y-79459620D01*
X68116908Y-79463915D01*
X68110508Y-79468842D01*
X68103865Y-79474435D01*
X68096957Y-79480727D01*
X68082721Y-79493435D01*
X68068301Y-79504979D01*
X68053850Y-79515406D01*
X68039520Y-79524764D01*
X68025463Y-79533100D01*
X68011830Y-79540462D01*
X67998775Y-79546897D01*
X67986448Y-79552453D01*
X67975002Y-79557177D01*
X67964589Y-79561118D01*
X67947470Y-79566836D01*
X67932316Y-79570955D01*
X67932325Y-79570810D01*
X67932288Y-79570351D01*
X67932220Y-79569992D01*
X67932103Y-79569540D01*
X67931925Y-79568991D01*
X67931672Y-79568339D01*
X67931332Y-79567581D01*
X67930892Y-79566712D01*
X67930341Y-79565726D01*
X67929666Y-79564620D01*
X67928853Y-79563388D01*
X67927891Y-79562025D01*
X67926768Y-79560528D01*
X67925469Y-79558891D01*
X67923984Y-79557110D01*
X67922300Y-79555179D01*
X67920403Y-79553095D01*
X67918282Y-79550852D01*
X67915924Y-79548447D01*
X67913317Y-79545873D01*
X67910448Y-79543127D01*
X67907304Y-79540204D01*
X67903873Y-79537098D01*
X67900142Y-79533807D01*
X67896100Y-79530323D01*
X67891733Y-79526644D01*
X67887029Y-79522764D01*
X67881975Y-79518679D01*
X67876560Y-79514383D01*
X67870769Y-79509873D01*
X67849590Y-79493488D01*
X67832926Y-79480426D01*
X67819308Y-79469396D01*
X67807269Y-79459104D01*
X67795338Y-79448260D01*
X67782046Y-79435571D01*
X67765926Y-79419746D01*
X67745507Y-79399491D01*
X67734859Y-79388490D01*
X67725843Y-79378311D01*
X67718267Y-79368846D01*
X67711936Y-79359985D01*
X67706657Y-79351618D01*
X67702236Y-79343634D01*
X67698478Y-79335924D01*
X67695191Y-79328379D01*
X67689252Y-79313341D01*
X67686212Y-79305628D01*
X67682868Y-79297641D01*
X67679024Y-79289268D01*
X67674489Y-79280400D01*
X67669067Y-79270928D01*
X67662565Y-79260741D01*
X67655597Y-79250175D01*
X67648919Y-79239592D01*
X67642542Y-79228924D01*
X67636482Y-79218102D01*
X67630751Y-79207057D01*
X67625364Y-79195720D01*
X67620334Y-79184022D01*
X67615676Y-79171895D01*
X67611402Y-79159269D01*
X67607527Y-79146075D01*
X67604064Y-79132245D01*
X67601028Y-79117710D01*
X67598432Y-79102401D01*
X67596290Y-79086249D01*
X67594615Y-79069185D01*
X67593422Y-79051141D01*
X67593126Y-79042040D01*
X67593162Y-79033283D01*
X67593500Y-79024856D01*
X67594113Y-79016743D01*
X67596049Y-79001402D01*
X67598740Y-78987145D01*
X67601958Y-78973854D01*
X67605476Y-78961412D01*
X67612495Y-78938609D01*
X67615541Y-78928013D01*
X67617974Y-78917799D01*
X67619565Y-78907849D01*
X67619973Y-78902937D01*
X67620086Y-78898047D01*
X67619874Y-78893165D01*
X67619309Y-78888275D01*
X67618363Y-78883364D01*
X67617006Y-78878417D01*
X67615211Y-78873419D01*
X67612949Y-78868356D01*
X67610192Y-78863212D01*
X67606910Y-78857974D01*
X67604090Y-78854079D01*
X67600973Y-78850314D01*
X67597580Y-78846656D01*
X67593932Y-78843082D01*
X67585947Y-78836094D01*
X67577180Y-78829168D01*
X67557946Y-78814765D01*
X67547801Y-78806922D01*
X67537520Y-78798405D01*
X67527263Y-78789032D01*
X67522194Y-78783967D01*
X67517192Y-78778620D01*
X67512277Y-78772966D01*
X67507469Y-78766984D01*
X67502788Y-78760650D01*
X67498254Y-78753941D01*
X67493888Y-78746835D01*
X67489709Y-78739308D01*
X67485739Y-78731338D01*
X67481996Y-78722901D01*
X67478501Y-78713975D01*
X67475275Y-78704537D01*
X67472338Y-78694563D01*
X67469709Y-78684032D01*
X67467303Y-78664013D01*
X67465479Y-78646242D01*
X67464145Y-78630540D01*
X67463211Y-78616726D01*
X67462184Y-78594052D01*
X67461673Y-78576787D01*
X67460955Y-78563501D01*
X67460293Y-78557901D01*
X67459308Y-78552760D01*
X67457909Y-78547896D01*
X67456007Y-78543133D01*
X67453510Y-78538290D01*
X67450329Y-78533188D01*
X67448614Y-78530415D01*
X67447017Y-78527401D01*
X67444163Y-78520736D01*
X67441733Y-78513367D01*
X67439695Y-78505466D01*
X67438013Y-78497204D01*
X67436655Y-78488756D01*
X67435587Y-78480294D01*
X67434774Y-78471989D01*
X67433781Y-78456545D01*
X67433407Y-78443803D01*
X67433431Y-78431954D01*
X67418142Y-78410373D01*
X67402314Y-78386414D01*
X67393313Y-78372022D01*
X67383952Y-78356357D01*
X67374504Y-78339671D01*
X67365244Y-78322214D01*
X67356444Y-78304238D01*
X67348379Y-78285995D01*
X67341323Y-78267737D01*
X67338259Y-78258680D01*
X67335549Y-78249713D01*
X67333228Y-78240868D01*
X67331331Y-78232176D01*
X67329890Y-78223669D01*
X67328942Y-78215378D01*
X67329527Y-78199981D01*
X67329633Y-78185568D01*
X67329273Y-78172069D01*
X67328460Y-78159416D01*
X67327208Y-78147538D01*
X67325531Y-78136367D01*
X67323441Y-78125832D01*
X67320953Y-78115866D01*
X67318080Y-78106398D01*
X67314836Y-78097359D01*
X67311234Y-78088680D01*
X67307287Y-78080292D01*
X67303009Y-78072124D01*
X67298414Y-78064109D01*
X67293514Y-78056176D01*
X67288325Y-78048256D01*
X67290697Y-78043246D01*
X67293866Y-78037318D01*
X67298536Y-78029408D01*
X67304845Y-78019738D01*
X67312926Y-78008533D01*
X67322915Y-77996017D01*
X67328668Y-77989337D01*
X67334948Y-77982413D01*
X67341773Y-77975273D01*
X67349160Y-77967946D01*
X67357125Y-77960458D01*
X67365686Y-77952838D01*
X67374859Y-77945114D01*
X67384662Y-77937314D01*
X67395111Y-77929467D01*
X67406223Y-77921599D01*
X67418015Y-77913739D01*
X67430504Y-77905915D01*
X67443707Y-77898154D01*
X67457641Y-77890486D01*
X67472323Y-77882938D01*
X67487769Y-77875537D01*
X67503997Y-77868312D01*
X67521024Y-77861291D01*
X67526971Y-77853463D01*
X67534154Y-77843845D01*
X67543923Y-77830573D01*
X67556109Y-77813757D01*
X67570548Y-77793509D01*
X67587071Y-77769939D01*
X67605513Y-77743159D01*
X67619880Y-77734085D01*
X67636344Y-77724653D01*
X67674457Y-77704859D01*
X67717646Y-77684057D01*
X67763703Y-77662531D01*
X67810422Y-77640560D01*
X67855594Y-77618426D01*
X67876911Y-77607387D01*
X67897013Y-77596412D01*
X67915625Y-77585537D01*
X67932471Y-77574797D01*
X67965444Y-77552204D01*
X68000068Y-77527774D01*
X68069420Y-77477629D01*
X68130837Y-77432815D01*
X68155541Y-77415048D01*
X68174626Y-77401784D01*
X68183303Y-77395501D01*
X68193345Y-77387479D01*
X68216822Y-77367230D01*
X68272446Y-77316967D01*
X68301788Y-77290990D01*
X68316228Y-77278672D01*
X68330281Y-77267139D01*
X68343771Y-77256641D01*
X68356523Y-77247432D01*
X68368361Y-77239764D01*
X68379111Y-77233888D01*
X68383042Y-77231766D01*
X68387314Y-77228568D01*
X68391897Y-77224363D01*
X68396761Y-77219222D01*
X68407215Y-77206414D01*
X68418439Y-77190708D01*
X68430194Y-77172666D01*
X68442244Y-77152852D01*
X68454350Y-77131830D01*
X68466277Y-77110162D01*
X68488638Y-77067144D01*
X68507429Y-77028305D01*
X68520749Y-76998151D01*
X68524764Y-76987740D01*
X68526699Y-76981190D01*
X68529898Y-76976670D01*
X68533377Y-76971181D01*
X68541426Y-76957845D01*
X68546121Y-76950275D01*
X68551347Y-76942287D01*
X68557165Y-76934021D01*
X68563639Y-76925614D01*
X68570831Y-76917204D01*
X68574716Y-76913041D01*
X68578804Y-76908930D01*
X68583103Y-76904887D01*
X68587620Y-76900930D01*
X68592364Y-76897076D01*
X68597342Y-76893343D01*
X68602562Y-76889747D01*
X68608032Y-76886305D01*
X68613759Y-76883036D01*
X68619753Y-76879957D01*
X68626019Y-76877084D01*
X68632567Y-76874435D01*
X68639403Y-76872028D01*
X68646537Y-76869879D01*
X68749187Y-76830405D01*
X68782083Y-76816582D01*
X68798611Y-76809175D01*
X68814949Y-76801459D01*
X68830913Y-76793453D01*
X68846321Y-76785175D01*
X68860991Y-76776641D01*
X68874739Y-76767870D01*
X68891042Y-76760522D01*
X68909636Y-76751183D01*
X68951856Y-76727890D01*
X68997706Y-76700714D01*
X69043497Y-76672375D01*
X69120135Y-76623098D01*
X69152242Y-76601833D01*
X69167646Y-76558542D01*
X69185514Y-76511476D01*
X69208925Y-76453730D01*
X69222421Y-76422320D01*
X69236957Y-76390002D01*
X69252415Y-76357364D01*
X69268682Y-76324992D01*
X69285641Y-76293474D01*
X69303178Y-76263397D01*
X69321175Y-76235350D01*
X69339518Y-76209919D01*
X69373039Y-76165769D01*
X69400504Y-76128323D01*
X69442113Y-76069330D01*
X69458684Y-76045675D01*
X69474050Y-76024511D01*
X69489424Y-76004782D01*
X69506018Y-75985437D01*
X69536002Y-75952674D01*
X69542219Y-75945758D01*
X69548095Y-75939026D01*
X69553716Y-75932316D01*
X69559167Y-75925465D01*
X69564534Y-75918310D01*
X69569903Y-75910689D01*
X69575360Y-75902440D01*
X69580989Y-75893398D01*
X69586876Y-75883403D01*
X69593107Y-75872291D01*
X69599768Y-75859899D01*
X69606943Y-75846065D01*
X69611139Y-75846989D01*
X69622824Y-75849966D01*
X69631052Y-75852320D01*
X69640647Y-75855302D01*
X69651438Y-75858950D01*
X69663256Y-75863302D01*
X69675934Y-75868397D01*
X69689301Y-75874274D01*
X69703189Y-75880969D01*
X69717429Y-75888522D01*
X69731851Y-75896971D01*
X69739079Y-75901544D01*
X69746288Y-75906354D01*
X69753459Y-75911408D01*
X69760570Y-75916710D01*
X69767600Y-75922264D01*
X69774528Y-75928076D01*
X69807403Y-75911760D01*
X69845270Y-75893530D01*
X69894556Y-75870510D01*
X69953110Y-75844144D01*
X70018782Y-75815876D01*
X70053615Y-75801479D01*
X70089421Y-75787148D01*
X70125931Y-75773062D01*
X70162877Y-75759404D01*
X70311783Y-75714393D01*
X70455388Y-75672927D01*
X70520518Y-75655475D01*
X70578700Y-75641252D01*
X70628059Y-75631038D01*
X70648846Y-75627678D01*
X70666723Y-75625614D01*
X70682997Y-75625955D01*
X70699904Y-75625360D01*
X70717306Y-75623894D01*
X70735065Y-75621618D01*
X70753042Y-75618595D01*
X70771101Y-75614888D01*
X70789103Y-75610560D01*
X70806909Y-75605673D01*
X70824383Y-75600290D01*
X70841385Y-75594474D01*
X70857778Y-75588287D01*
X70873424Y-75581793D01*
X70888185Y-75575053D01*
X70901923Y-75568131D01*
X70914499Y-75561089D01*
X70925776Y-75553990D01*
X70945817Y-75558121D01*
G37*
X62716355Y-92838516D02*
X61408996Y-92584423D01*
X61387288Y-90355411D01*
X60810891Y-90243325D01*
X59354699Y-92185067D01*
X58006878Y-91923069D01*
X59564144Y-89850946D01*
X59466455Y-89814163D01*
X59372214Y-89775564D01*
X59281421Y-89735152D01*
X59194075Y-89692926D01*
X59110176Y-89648887D01*
X59029724Y-89603033D01*
X58952719Y-89555367D01*
X58879161Y-89505887D01*
X58809049Y-89454594D01*
X58742384Y-89401489D01*
X58679165Y-89346570D01*
X58619392Y-89289840D01*
X58563065Y-89231297D01*
X58510184Y-89170941D01*
X58460749Y-89108774D01*
X58414759Y-89044795D01*
X58371749Y-88977325D01*
X58332871Y-88907209D01*
X58298126Y-88834446D01*
X58267513Y-88759037D01*
X58241034Y-88680982D01*
X58218688Y-88600281D01*
X58200476Y-88516935D01*
X58186399Y-88430944D01*
X58176457Y-88342308D01*
X58170651Y-88251028D01*
X58170333Y-88233166D01*
X59531892Y-88233166D01*
X59532066Y-88267582D01*
X59533664Y-88301103D01*
X59536686Y-88333728D01*
X59541133Y-88365457D01*
X59547006Y-88396291D01*
X59554304Y-88426230D01*
X59563029Y-88455274D01*
X59573181Y-88483422D01*
X59584761Y-88510675D01*
X59597768Y-88537034D01*
X59612205Y-88562497D01*
X59628051Y-88586132D01*
X59644879Y-88609129D01*
X59662686Y-88631489D01*
X59681473Y-88653212D01*
X59701241Y-88674298D01*
X59721988Y-88694747D01*
X59743716Y-88714558D01*
X59766423Y-88733732D01*
X59790110Y-88752270D01*
X59814776Y-88770169D01*
X59840422Y-88787432D01*
X59867048Y-88804057D01*
X59894654Y-88820045D01*
X59923238Y-88835395D01*
X59952802Y-88850109D01*
X59983346Y-88864184D01*
X60044962Y-88888578D01*
X60108915Y-88911771D01*
X60175205Y-88933765D01*
X60243834Y-88954559D01*
X60314802Y-88974152D01*
X60388111Y-88992544D01*
X60463763Y-89009735D01*
X60541758Y-89025724D01*
X61378142Y-89188196D01*
X61368067Y-87853238D01*
X60604856Y-87704875D01*
X60552633Y-87695137D01*
X60501520Y-87686442D01*
X60451518Y-87678789D01*
X60402628Y-87672180D01*
X60354851Y-87666615D01*
X60308190Y-87662096D01*
X60262644Y-87658623D01*
X60218215Y-87656196D01*
X60174900Y-87654814D01*
X60132699Y-87654472D01*
X60091611Y-87655173D01*
X60051637Y-87656916D01*
X60012777Y-87659703D01*
X59975032Y-87663535D01*
X59938401Y-87668412D01*
X59902884Y-87674335D01*
X59867790Y-87681653D01*
X59850903Y-87686113D01*
X59834456Y-87691106D01*
X59818448Y-87696634D01*
X59802881Y-87702696D01*
X59787753Y-87709291D01*
X59773065Y-87716421D01*
X59758816Y-87724084D01*
X59745007Y-87732281D01*
X59731638Y-87741012D01*
X59718708Y-87750277D01*
X59706218Y-87760075D01*
X59694168Y-87770408D01*
X59682557Y-87781274D01*
X59671385Y-87792674D01*
X59660652Y-87804607D01*
X59650359Y-87817074D01*
X59640505Y-87830075D01*
X59631091Y-87843610D01*
X59622115Y-87857678D01*
X59613579Y-87872280D01*
X59605482Y-87887416D01*
X59597824Y-87903085D01*
X59583825Y-87936024D01*
X59571582Y-87971097D01*
X59561094Y-88008305D01*
X59552361Y-88047646D01*
X59545424Y-88086542D01*
X59539908Y-88124542D01*
X59535814Y-88161646D01*
X59533142Y-88197854D01*
X59531892Y-88233166D01*
X58170333Y-88233166D01*
X58168980Y-88157103D01*
X58171445Y-88060534D01*
X58178047Y-87961322D01*
X58188786Y-87859466D01*
X58203662Y-87754968D01*
X58222677Y-87647826D01*
X58244780Y-87545976D01*
X58270576Y-87448846D01*
X58300066Y-87356437D01*
X58333249Y-87268748D01*
X58370124Y-87185778D01*
X58410692Y-87107527D01*
X58454952Y-87033994D01*
X58502903Y-86965180D01*
X58554546Y-86901084D01*
X58609879Y-86841705D01*
X58668903Y-86787044D01*
X58731618Y-86737099D01*
X58798023Y-86691871D01*
X58868117Y-86651358D01*
X58941900Y-86615561D01*
X59019373Y-86584480D01*
X59058982Y-86569909D01*
X59099299Y-86556183D01*
X59140324Y-86543302D01*
X59182057Y-86531266D01*
X59224499Y-86520074D01*
X59267648Y-86509726D01*
X59311506Y-86500224D01*
X59356072Y-86491565D01*
X59401346Y-86483752D01*
X59447328Y-86476783D01*
X59494018Y-86470658D01*
X59541416Y-86465378D01*
X59589523Y-86460943D01*
X59638337Y-86457352D01*
X59738089Y-86452704D01*
X59840671Y-86451429D01*
X59946083Y-86453526D01*
X60054326Y-86458997D01*
X60165401Y-86467843D01*
X60279308Y-86480069D01*
X60396049Y-86495675D01*
X60515624Y-86514665D01*
X60638035Y-86537040D01*
X62667988Y-86931591D01*
X62686465Y-89188196D01*
X62716355Y-92838516D01*
G36*
X62716355Y-92838516D02*
G01*
X61408996Y-92584423D01*
X61387288Y-90355411D01*
X60810891Y-90243325D01*
X59354699Y-92185067D01*
X58006878Y-91923069D01*
X59564144Y-89850946D01*
X59466455Y-89814163D01*
X59372214Y-89775564D01*
X59281421Y-89735152D01*
X59194075Y-89692926D01*
X59110176Y-89648887D01*
X59029724Y-89603033D01*
X58952719Y-89555367D01*
X58879161Y-89505887D01*
X58809049Y-89454594D01*
X58742384Y-89401489D01*
X58679165Y-89346570D01*
X58619392Y-89289840D01*
X58563065Y-89231297D01*
X58510184Y-89170941D01*
X58460749Y-89108774D01*
X58414759Y-89044795D01*
X58371749Y-88977325D01*
X58332871Y-88907209D01*
X58298126Y-88834446D01*
X58267513Y-88759037D01*
X58241034Y-88680982D01*
X58218688Y-88600281D01*
X58200476Y-88516935D01*
X58186399Y-88430944D01*
X58176457Y-88342308D01*
X58170651Y-88251028D01*
X58170333Y-88233166D01*
X59531892Y-88233166D01*
X59532066Y-88267582D01*
X59533664Y-88301103D01*
X59536686Y-88333728D01*
X59541133Y-88365457D01*
X59547006Y-88396291D01*
X59554304Y-88426230D01*
X59563029Y-88455274D01*
X59573181Y-88483422D01*
X59584761Y-88510675D01*
X59597768Y-88537034D01*
X59612205Y-88562497D01*
X59628051Y-88586132D01*
X59644879Y-88609129D01*
X59662686Y-88631489D01*
X59681473Y-88653212D01*
X59701241Y-88674298D01*
X59721988Y-88694747D01*
X59743716Y-88714558D01*
X59766423Y-88733732D01*
X59790110Y-88752270D01*
X59814776Y-88770169D01*
X59840422Y-88787432D01*
X59867048Y-88804057D01*
X59894654Y-88820045D01*
X59923238Y-88835395D01*
X59952802Y-88850109D01*
X59983346Y-88864184D01*
X60044962Y-88888578D01*
X60108915Y-88911771D01*
X60175205Y-88933765D01*
X60243834Y-88954559D01*
X60314802Y-88974152D01*
X60388111Y-88992544D01*
X60463763Y-89009735D01*
X60541758Y-89025724D01*
X61378142Y-89188196D01*
X61368067Y-87853238D01*
X60604856Y-87704875D01*
X60552633Y-87695137D01*
X60501520Y-87686442D01*
X60451518Y-87678789D01*
X60402628Y-87672180D01*
X60354851Y-87666615D01*
X60308190Y-87662096D01*
X60262644Y-87658623D01*
X60218215Y-87656196D01*
X60174900Y-87654814D01*
X60132699Y-87654472D01*
X60091611Y-87655173D01*
X60051637Y-87656916D01*
X60012777Y-87659703D01*
X59975032Y-87663535D01*
X59938401Y-87668412D01*
X59902884Y-87674335D01*
X59867790Y-87681653D01*
X59850903Y-87686113D01*
X59834456Y-87691106D01*
X59818448Y-87696634D01*
X59802881Y-87702696D01*
X59787753Y-87709291D01*
X59773065Y-87716421D01*
X59758816Y-87724084D01*
X59745007Y-87732281D01*
X59731638Y-87741012D01*
X59718708Y-87750277D01*
X59706218Y-87760075D01*
X59694168Y-87770408D01*
X59682557Y-87781274D01*
X59671385Y-87792674D01*
X59660652Y-87804607D01*
X59650359Y-87817074D01*
X59640505Y-87830075D01*
X59631091Y-87843610D01*
X59622115Y-87857678D01*
X59613579Y-87872280D01*
X59605482Y-87887416D01*
X59597824Y-87903085D01*
X59583825Y-87936024D01*
X59571582Y-87971097D01*
X59561094Y-88008305D01*
X59552361Y-88047646D01*
X59545424Y-88086542D01*
X59539908Y-88124542D01*
X59535814Y-88161646D01*
X59533142Y-88197854D01*
X59531892Y-88233166D01*
X58170333Y-88233166D01*
X58168980Y-88157103D01*
X58171445Y-88060534D01*
X58178047Y-87961322D01*
X58188786Y-87859466D01*
X58203662Y-87754968D01*
X58222677Y-87647826D01*
X58244780Y-87545976D01*
X58270576Y-87448846D01*
X58300066Y-87356437D01*
X58333249Y-87268748D01*
X58370124Y-87185778D01*
X58410692Y-87107527D01*
X58454952Y-87033994D01*
X58502903Y-86965180D01*
X58554546Y-86901084D01*
X58609879Y-86841705D01*
X58668903Y-86787044D01*
X58731618Y-86737099D01*
X58798023Y-86691871D01*
X58868117Y-86651358D01*
X58941900Y-86615561D01*
X59019373Y-86584480D01*
X59058982Y-86569909D01*
X59099299Y-86556183D01*
X59140324Y-86543302D01*
X59182057Y-86531266D01*
X59224499Y-86520074D01*
X59267648Y-86509726D01*
X59311506Y-86500224D01*
X59356072Y-86491565D01*
X59401346Y-86483752D01*
X59447328Y-86476783D01*
X59494018Y-86470658D01*
X59541416Y-86465378D01*
X59589523Y-86460943D01*
X59638337Y-86457352D01*
X59738089Y-86452704D01*
X59840671Y-86451429D01*
X59946083Y-86453526D01*
X60054326Y-86458997D01*
X60165401Y-86467843D01*
X60279308Y-86480069D01*
X60396049Y-86495675D01*
X60515624Y-86514665D01*
X60638035Y-86537040D01*
X62667988Y-86931591D01*
X62686465Y-89188196D01*
X62716355Y-92838516D01*
G37*
X90492178Y-92639613D02*
X90531711Y-94560735D01*
X89011338Y-94265251D01*
X88982813Y-92346143D01*
X90492178Y-92639613D01*
G36*
X90492178Y-92639613D02*
G01*
X90531711Y-94560735D01*
X89011338Y-94265251D01*
X88982813Y-92346143D01*
X90492178Y-92639613D01*
G37*
X79569124Y-90216970D02*
X79617649Y-96123742D01*
X75411549Y-95306272D01*
X75405969Y-94077975D01*
X78296644Y-94639956D01*
X78284243Y-93445611D01*
X76522333Y-93103151D01*
X76516753Y-91874855D01*
X78278660Y-92217312D01*
X78267498Y-91191020D01*
X75376823Y-90629193D01*
X75363024Y-89399347D01*
X79569124Y-90216970D01*
G36*
X79569124Y-90216970D02*
G01*
X79617649Y-96123742D01*
X75411549Y-95306272D01*
X75405969Y-94077975D01*
X78296644Y-94639956D01*
X78284243Y-93445611D01*
X76522333Y-93103151D01*
X76516753Y-91874855D01*
X78278660Y-92217312D01*
X78267498Y-91191020D01*
X75376823Y-90629193D01*
X75363024Y-89399347D01*
X79569124Y-90216970D01*
G37*
X67500248Y-87870913D02*
X67548774Y-93777838D01*
X63342674Y-92960215D01*
X63337094Y-91732071D01*
X66227768Y-92293898D01*
X66215368Y-91099707D01*
X64453458Y-90757092D01*
X64447722Y-89528951D01*
X66209785Y-89871411D01*
X66198623Y-88845116D01*
X63307948Y-88283136D01*
X63294149Y-87053443D01*
X67500248Y-87870913D01*
G36*
X67500248Y-87870913D02*
G01*
X67548774Y-93777838D01*
X63342674Y-92960215D01*
X63337094Y-91732071D01*
X66227768Y-92293898D01*
X66215368Y-91099707D01*
X64453458Y-90757092D01*
X64447722Y-89528951D01*
X66209785Y-89871411D01*
X66198623Y-88845116D01*
X63307948Y-88283136D01*
X63294149Y-87053443D01*
X67500248Y-87870913D01*
G37*
X74391922Y-89210521D02*
X74525557Y-97239332D01*
X56802762Y-93794427D01*
X56784314Y-92452028D01*
X73031695Y-95610284D01*
X72894027Y-88919374D01*
X74391922Y-89210521D01*
G36*
X74391922Y-89210521D02*
G01*
X74525557Y-97239332D01*
X56802762Y-93794427D01*
X56784314Y-92452028D01*
X73031695Y-95610284D01*
X72894027Y-88919374D01*
X74391922Y-89210521D01*
G37*
X71124835Y-88575521D02*
X71130880Y-89671423D01*
X70383793Y-89526161D01*
X70420227Y-93241282D01*
X71167002Y-93386388D01*
X71173202Y-94482446D01*
X68380041Y-93939378D01*
X68365779Y-92841926D01*
X69104802Y-92985483D01*
X69084649Y-89273773D01*
X68337718Y-89128511D01*
X68323454Y-88030903D01*
X71124835Y-88575521D01*
G36*
X71124835Y-88575521D02*
G01*
X71130880Y-89671423D01*
X70383793Y-89526161D01*
X70420227Y-93241282D01*
X71167002Y-93386388D01*
X71173202Y-94482446D01*
X68380041Y-93939378D01*
X68365779Y-92841926D01*
X69104802Y-92985483D01*
X69084649Y-89273773D01*
X68337718Y-89128511D01*
X68323454Y-88030903D01*
X71124835Y-88575521D01*
G37*
D11*
%TO.C,U1*%
X98007469Y-101759115D02*
G75*
G03*
X98007469Y-101759115I-127001J0D01*
G01*
D12*
%TO.C,D3*%
X97894852Y-75362124D02*
X100371684Y-73932124D01*
X98854852Y-77024892D02*
X97894852Y-75362124D01*
X101331684Y-75594892D02*
X98854852Y-77024892D01*
%TO.C,C16*%
X78035000Y-89201248D02*
X78035000Y-89723752D01*
X76565000Y-89201248D02*
X76565000Y-89723752D01*
%TO.C,C12*%
X75198752Y-87335000D02*
X74676248Y-87335000D01*
X75198752Y-85865000D02*
X74676248Y-85865000D01*
%TO.C,D5*%
X52395148Y-74859829D02*
X49918316Y-73429829D01*
X53355148Y-73197061D02*
X52395148Y-74859829D01*
X50878316Y-71767061D02*
X53355148Y-73197061D01*
%TO.C,J27*%
X76270000Y-43935000D02*
X75635000Y-43935000D01*
X76270000Y-44570000D02*
X76270000Y-43935000D01*
%TO.C,Y1*%
X76250000Y-90100000D02*
X73550000Y-90100000D01*
X76250000Y-87800000D02*
X76250000Y-90100000D01*
%TO.C,R15*%
X74627064Y-91985000D02*
X74172936Y-91985000D01*
X74627064Y-90515000D02*
X74172936Y-90515000D01*
%TO.C,D4*%
X96644852Y-73197059D02*
X99121684Y-71767059D01*
X97604852Y-74859827D02*
X96644852Y-73197059D01*
X100081684Y-73429827D02*
X97604852Y-74859827D01*
%TO.C,D6*%
X51145148Y-77024892D02*
X48668316Y-75594892D01*
X52105148Y-75362124D02*
X51145148Y-77024892D01*
X49628316Y-73932124D02*
X52105148Y-75362124D01*
%TO.C,D2*%
X77210000Y-114515000D02*
X77210000Y-117375000D01*
X75290000Y-114515000D02*
X77210000Y-114515000D01*
X75290000Y-117375000D02*
X75290000Y-114515000D01*
%TO.C,D1*%
X74710000Y-114515000D02*
X74710000Y-117375000D01*
X72790000Y-114515000D02*
X74710000Y-114515000D01*
X72790000Y-117375000D02*
X72790000Y-114515000D01*
%TD*%
M02*
