%TF.GenerationSoftware,KiCad,Pcbnew,7.0.7*%
%TF.CreationDate,2023-11-13T09:37:15+01:00*%
%TF.ProjectId,Small,536d616c-6c2e-46b6-9963-61645f706362,rev?*%
%TF.SameCoordinates,Original*%
%TF.FileFunction,Soldermask,Bot*%
%TF.FilePolarity,Negative*%
%FSLAX46Y46*%
G04 Gerber Fmt 4.6, Leading zero omitted, Abs format (unit mm)*
G04 Created by KiCad (PCBNEW 7.0.7) date 2023-11-13 09:37:15*
%MOMM*%
%LPD*%
G01*
G04 APERTURE LIST*
G04 Aperture macros list*
%AMRoundRect*
0 Rectangle with rounded corners*
0 $1 Rounding radius*
0 $2 $3 $4 $5 $6 $7 $8 $9 X,Y pos of 4 corners*
0 Add a 4 corners polygon primitive as box body*
4,1,4,$2,$3,$4,$5,$6,$7,$8,$9,$2,$3,0*
0 Add four circle primitives for the rounded corners*
1,1,$1+$1,$2,$3*
1,1,$1+$1,$4,$5*
1,1,$1+$1,$6,$7*
1,1,$1+$1,$8,$9*
0 Add four rect primitives between the rounded corners*
20,1,$1+$1,$2,$3,$4,$5,0*
20,1,$1+$1,$4,$5,$6,$7,0*
20,1,$1+$1,$6,$7,$8,$9,0*
20,1,$1+$1,$8,$9,$2,$3,0*%
%AMHorizOval*
0 Thick line with rounded ends*
0 $1 width*
0 $2 $3 position (X,Y) of the first rounded end (center of the circle)*
0 $4 $5 position (X,Y) of the second rounded end (center of the circle)*
0 Add line between two ends*
20,1,$1,$2,$3,$4,$5,0*
0 Add two circle primitives to create the rounded ends*
1,1,$1,$2,$3*
1,1,$1,$4,$5*%
%AMRotRect*
0 Rectangle, with rotation*
0 The origin of the aperture is its center*
0 $1 length*
0 $2 width*
0 $3 Rotation angle, in degrees counterclockwise*
0 Add horizontal line*
21,1,$1,$2,0,0,$3*%
G04 Aperture macros list end*
%ADD10RoundRect,0.250000X0.600000X0.725000X-0.600000X0.725000X-0.600000X-0.725000X0.600000X-0.725000X0*%
%ADD11O,1.700000X1.950000*%
%ADD12R,1.700000X1.700000*%
%ADD13O,1.700000X1.700000*%
%ADD14RoundRect,0.250000X0.927868X-0.157115X0.327868X0.882115X-0.927868X0.157115X-0.327868X-0.882115X0*%
%ADD15HorizOval,1.700000X0.108253X0.062500X-0.108253X-0.062500X0*%
%ADD16R,1.600000X1.600000*%
%ADD17C,1.600000*%
%ADD18RoundRect,0.250000X-0.927868X0.157115X-0.327868X-0.882115X0.927868X-0.157115X0.327868X0.882115X0*%
%ADD19HorizOval,1.700000X-0.108253X-0.062500X0.108253X0.062500X0*%
%ADD20RoundRect,0.250000X-0.327868X0.882115X-0.927868X-0.157115X0.327868X-0.882115X0.927868X0.157115X0*%
%ADD21HorizOval,1.700000X-0.108253X0.062500X0.108253X-0.062500X0*%
%ADD22RotRect,1.700000X1.700000X210.000000*%
%ADD23HorizOval,1.700000X0.000000X0.000000X0.000000X0.000000X0*%
%ADD24RotRect,1.600000X1.600000X60.000000*%
%ADD25C,4.700000*%
%ADD26RoundRect,0.250000X-0.600000X-0.725000X0.600000X-0.725000X0.600000X0.725000X-0.600000X0.725000X0*%
%ADD27RoundRect,0.250000X0.327868X-0.882115X0.927868X0.157115X-0.327868X0.882115X-0.927868X-0.157115X0*%
%ADD28RotRect,1.600000X1.600000X300.000000*%
%ADD29RotRect,1.700000X1.700000X330.000000*%
%ADD30HorizOval,1.700000X0.000000X0.000000X0.000000X0.000000X0*%
%ADD31RoundRect,0.250000X-0.056458X-0.552211X0.506458X-0.227211X0.056458X0.552211X-0.506458X0.227211X0*%
%ADD32RoundRect,0.250000X-0.475000X0.337500X-0.475000X-0.337500X0.475000X-0.337500X0.475000X0.337500X0*%
%ADD33RoundRect,0.250000X0.337500X0.475000X-0.337500X0.475000X-0.337500X-0.475000X0.337500X-0.475000X0*%
%ADD34RoundRect,0.250000X0.506458X0.227211X-0.056458X0.552211X-0.506458X-0.227211X0.056458X-0.552211X0*%
%ADD35C,0.990600*%
%ADD36C,0.787400*%
%ADD37R,0.900000X0.800000*%
%ADD38RoundRect,0.250000X0.350000X0.450000X-0.350000X0.450000X-0.350000X-0.450000X0.350000X-0.450000X0*%
%ADD39RoundRect,0.250000X-0.450000X0.325000X-0.450000X-0.325000X0.450000X-0.325000X0.450000X0.325000X0*%
G04 APERTURE END LIST*
D10*
%TO.C,J14*%
X51000000Y-112200000D03*
D11*
X48500000Y-112200000D03*
X46000000Y-112200000D03*
%TD*%
D12*
%TO.C,J9*%
X99975000Y-116875000D03*
D13*
X102515000Y-116875000D03*
X105055000Y-116875000D03*
%TD*%
D14*
%TO.C,J4*%
X88983166Y-84571833D03*
D15*
X87733166Y-82406769D03*
X86483166Y-80241706D03*
X85233166Y-78076642D03*
%TD*%
D16*
%TO.C,C8*%
X65190000Y-102192400D03*
D17*
X61690000Y-102192400D03*
%TD*%
D18*
%TO.C,J16*%
X107700000Y-96869873D03*
D19*
X108950000Y-99034937D03*
X110200000Y-101200000D03*
%TD*%
D20*
%TO.C,J7*%
X64826833Y-77972720D03*
D21*
X63576833Y-80137784D03*
X62326833Y-82302847D03*
X61076833Y-84467911D03*
%TD*%
D22*
%TO.C,J10*%
X114806171Y-99933452D03*
D23*
X113536171Y-97733747D03*
X112266171Y-95534043D03*
%TD*%
D24*
%TO.C,C11*%
X67826833Y-72776567D03*
D17*
X69576833Y-69745478D03*
%TD*%
D25*
%TO.C,H1*%
X121339746Y-115000000D03*
%TD*%
D26*
%TO.C,J2*%
X71190000Y-102192400D03*
D11*
X73690000Y-102192400D03*
X76190000Y-102192400D03*
X78690000Y-102192400D03*
%TD*%
D12*
%TO.C,J8*%
X44975000Y-116875000D03*
D13*
X47515000Y-116875000D03*
X50055000Y-116875000D03*
%TD*%
D18*
%TO.C,J17*%
X84550000Y-57034936D03*
D19*
X85800000Y-59200000D03*
X87050000Y-61365063D03*
%TD*%
D27*
%TO.C,J18*%
X63150000Y-60965064D03*
D21*
X64400000Y-58800000D03*
X65650000Y-56634937D03*
%TD*%
D28*
%TO.C,C1*%
X91983166Y-89767986D03*
D17*
X93733166Y-92799075D03*
%TD*%
D25*
%TO.C,H3*%
X75000000Y-34737078D03*
%TD*%
D22*
%TO.C,J11*%
X87306171Y-52301927D03*
D23*
X86036171Y-50102222D03*
X84766171Y-47902518D03*
%TD*%
D25*
%TO.C,H2*%
X28660215Y-115000000D03*
%TD*%
D29*
%TO.C,J13*%
X37718829Y-95560024D03*
D30*
X36448829Y-97759729D03*
X35178829Y-99959433D03*
%TD*%
D10*
%TO.C,J15*%
X105200000Y-112200000D03*
D11*
X102700000Y-112200000D03*
X100200000Y-112200000D03*
%TD*%
D29*
%TO.C,J12*%
X65218830Y-47928499D03*
D30*
X63948830Y-50128204D03*
X62678830Y-52327908D03*
%TD*%
D27*
%TO.C,J19*%
X39800000Y-101200000D03*
D21*
X41050000Y-99034936D03*
X42300000Y-96869873D03*
%TD*%
D31*
%TO.C,D3*%
X99097983Y-75776008D03*
X100873335Y-74751008D03*
%TD*%
D32*
%TO.C,C16*%
X77300000Y-88425000D03*
X77300000Y-90500000D03*
%TD*%
D33*
%TO.C,C12*%
X75975000Y-86600000D03*
X73900000Y-86600000D03*
%TD*%
D34*
%TO.C,D5*%
X52152017Y-73610945D03*
X50376665Y-72585945D03*
%TD*%
D35*
%TO.C,J27*%
X75000000Y-43300000D03*
X76016000Y-48380000D03*
X73984000Y-48380000D03*
D36*
X75635000Y-44570000D03*
X74365000Y-44570000D03*
X75635000Y-45840000D03*
X74365000Y-45840000D03*
X75635000Y-47110000D03*
X74365000Y-47110000D03*
%TD*%
D37*
%TO.C,Y1*%
X75600000Y-89500000D03*
X74200000Y-89500000D03*
X74200000Y-88400000D03*
X75600000Y-88400000D03*
%TD*%
D38*
%TO.C,R15*%
X75400000Y-91250000D03*
X73400000Y-91250000D03*
%TD*%
D31*
%TO.C,D4*%
X97847983Y-73610943D03*
X99623335Y-72585943D03*
%TD*%
D34*
%TO.C,D6*%
X50902017Y-75776008D03*
X49126665Y-74751008D03*
%TD*%
D39*
%TO.C,D2*%
X76250000Y-115350000D03*
X76250000Y-117400000D03*
%TD*%
%TO.C,D1*%
X73750000Y-115350000D03*
X73750000Y-117400000D03*
%TD*%
M02*
